<svg version="1.1" xmlns="http://www.w3.org/2000/svg" xmlns:xlink="http://www.w3.org/1999/xlink" width="372" height="476"><defs/><g><g transform="translate(-62,-134) scale(1,1)"><rect fill="#ffffff" stroke="none" x="72" y="144" width="175.59385681152344" height="21"/></g><g transform="translate(-62,-134) scale(1,1)"><path fill="none" stroke="#000000" d="M 72 144 L 247.59385681152344 144 L 247.59385681152344 165 L 72 165 L 72 144 Z Z" stroke-miterlimit="10" stroke-width="2"/></g><g transform="translate(-62,-134) scale(1,1)"><path fill="none" stroke="#000000" d="M 72 600 L 72 144 L 247.59385681152344 144 L 247.59385681152344 600" stroke-miterlimit="10" stroke-width="2"/></g><g transform="translate(-62,-134) scale(1,1)"><g><path fill="none" stroke="none"/><text fill="#000000" stroke="none" font-family="Arial" font-size="13px" font-style="normal" font-weight="normal" text-decoration="none" x="146.79692840576172" y="161">用户</text></g></g><g transform="translate(-62,-134) scale(1,1)"><rect fill="#ffffff" stroke="none" x="248" y="144" width="176" height="21"/></g><g transform="translate(-62,-134) scale(1,1)"><path fill="none" stroke="#000000" d="M 248 144 L 424 144 L 424 165 L 248 165 L 248 144 Z Z" stroke-miterlimit="10" stroke-width="2"/></g><g transform="translate(-62,-134) scale(1,1)"><path fill="none" stroke="#000000" d="M 248 600 L 248 144 L 424 144 L 424 600" stroke-miterlimit="10" stroke-width="2"/></g><g transform="translate(-62,-134) scale(1,1)"><g><path fill="none" stroke="none"/><text fill="#000000" stroke="none" font-family="Arial" font-size="13px" font-style="normal" font-weight="normal" text-decoration="none" x="323" y="161">系统</text></g></g><g transform="translate(-62,-134) scale(1,1)"><path fill="#C0C0C0" stroke="none" d="M 159 192.5 C 159 187.2532944 163.2532944 183 168.5 183 C 173.7467056 183 178 187.2532944 178 192.5 C 178 197.7467056 173.7467056 202 168.5 202 C 163.2532944 202 159 197.7467056 159 192.5 Z" opacity="0.2"/></g><g transform="translate(-62,-134) scale(1,1)"><path fill="#000000" stroke="none" d="M 152 185.5 C 152 180.2532944 156.2532944 176 161.5 176 C 166.7467056 176 171 180.2532944 171 185.5 C 171 190.7467056 166.7467056 195 161.5 195 C 156.2532944 195 152 190.7467056 152 185.5 Z"/></g><g transform="translate(-62,-134) scale(1,1)"><path fill="#C0C0C0" stroke="none" d="M 329 351 L 370 351 Q 380 351 380 361 L 380 381 Q 380 391 370 391 L 329 391 Q 319 391 319 381 L 319 361 Q 319 351 329 351 Z" opacity="0.2"/></g><g transform="translate(-62,-134) scale(1,1)"><path fill="#ffffff" stroke="none" d="M 322 344 L 363 344 Q 373 344 373 354 L 373 374 Q 373 384 363 384 L 322 384 Q 312 384 312 374 L 312 354 Q 312 344 322 344 Z"/></g><g transform="translate(-62,-134) scale(1,1)"><path fill="none" stroke="#000000" d="M 322 344 L 363 344 Q 373 344 373 354 L 373 374 Q 373 384 363 384 L 322 384 Q 312 384 312 374 L 312 354 Q 312 344 322 344 Z" stroke-miterlimit="10"/></g><g transform="translate(-62,-134) scale(1,1)"><g><path fill="none" stroke="none"/><text fill="#000000" stroke="none" font-family="Arial" font-size="13px" font-style="normal" font-weight="bold" text-decoration="none" x="316.5" y="363.5">执行筛选</text></g></g><g transform="translate(-62,-134) scale(1,1)"><path fill="#C0C0C0" stroke="none" d="M 297 415 L 403 415 Q 413 415 413 425 L 413 445 Q 413 455 403 455 L 297 455 Q 287 455 287 445 L 287 425 Q 287 415 297 415 Z" opacity="0.2"/></g><g transform="translate(-62,-134) scale(1,1)"><path fill="#ffffff" stroke="none" d="M 290 408 L 396 408 Q 406 408 406 418 L 406 438 Q 406 448 396 448 L 290 448 Q 280 448 280 438 L 280 418 Q 280 408 290 408 Z"/></g><g transform="translate(-62,-134) scale(1,1)"><path fill="none" stroke="#000000" d="M 290 408 L 396 408 Q 406 408 406 418 L 406 438 Q 406 448 396 448 L 290 448 Q 280 448 280 438 L 280 418 Q 280 408 290 408 Z" stroke-miterlimit="10"/></g><g transform="translate(-62,-134) scale(1,1)"><g><path fill="none" stroke="none"/><text fill="#000000" stroke="none" font-family="Arial" font-size="13px" font-style="normal" font-weight="bold" text-decoration="none" x="284.5" y="427.5">返回匹配的演出信息</text></g></g><g transform="translate(-62,-134) scale(1,1)"><path fill="#C0C0C0" stroke="none" d="M 121 487 L 227 487 Q 237 487 237 497 L 237 517 Q 237 527 227 527 L 121 527 Q 111 527 111 517 L 111 497 Q 111 487 121 487 Z" opacity="0.2"/></g><g transform="translate(-62,-134) scale(1,1)"><path fill="#ffffff" stroke="none" d="M 114 480 L 220 480 Q 230 480 230 490 L 230 510 Q 230 520 220 520 L 114 520 Q 104 520 104 510 L 104 490 Q 104 480 114 480 Z"/></g><g transform="translate(-62,-134) scale(1,1)"><path fill="none" stroke="#000000" d="M 114 480 L 220 480 Q 230 480 230 490 L 230 510 Q 230 520 220 520 L 114 520 Q 104 520 104 510 L 104 490 Q 104 480 114 480 Z" stroke-miterlimit="10"/></g><g transform="translate(-62,-134) scale(1,1)"><g><path fill="none" stroke="none"/><text fill="#000000" stroke="none" font-family="Arial" font-size="13px" font-style="normal" font-weight="bold" text-decoration="none" x="108.5" y="499.5">查看匹配的演出信息</text></g></g><g transform="translate(-62,-134) scale(1,1)"><path fill="#C0C0C0" stroke="none" d="M 159 571.5 C 159 564.59644 164.59644 559 171.5 559 C 178.40356 559 184 564.59644 184 571.5 C 184 578.40356 178.40356 584 171.5 584 C 164.59644 584 159 578.40356 159 571.5 Z" opacity="0.2"/></g><g transform="translate(-62,-134) scale(1,1)"><path fill="none" stroke="#000000" d="M 152 564.5 C 152 557.59644 157.59644 552 164.5 552 C 171.40356 552 177 557.59644 177 564.5 C 177 571.40356 171.40356 577 164.5 577 C 157.59644 577 152 571.40356 152 564.5 Z" stroke-miterlimit="10"/></g><g transform="translate(-62,-134) scale(1,1)"><path fill="#000000" stroke="none" d="M 157 564.5 C 157 560.357864 160.357864 557 164.5 557 C 168.642136 557 172 560.357864 172 564.5 C 172 568.642136 168.642136 572 164.5 572 C 160.357864 572 157 568.642136 157 564.5 Z"/></g><g transform="translate(-62,-134) scale(1,1)"><path fill="#C0C0C0" stroke="none" d="M 105 255 L 146 255 Q 156 255 156 265 L 156 285 Q 156 295 146 295 L 105 295 Q 95 295 95 285 L 95 265 Q 95 255 105 255 Z" opacity="0.2"/></g><g transform="translate(-62,-134) scale(1,1)"><path fill="#ffffff" stroke="none" d="M 98 248 L 139 248 Q 149 248 149 258 L 149 278 Q 149 288 139 288 L 98 288 Q 88 288 88 278 L 88 258 Q 88 248 98 248 Z"/></g><g transform="translate(-62,-134) scale(1,1)"><path fill="none" stroke="#000000" d="M 98 248 L 139 248 Q 149 248 149 258 L 149 278 Q 149 288 139 288 L 98 288 Q 88 288 88 278 L 88 258 Q 88 248 98 248 Z" stroke-miterlimit="10"/></g><g transform="translate(-62,-134) scale(1,1)"><g><path fill="none" stroke="none"/><text fill="#000000" stroke="none" font-family="Arial" font-size="13px" font-style="normal" font-weight="bold" text-decoration="none" x="92.5" y="267.5">选择城市</text></g></g><g transform="translate(-62,-134) scale(1,1)"><path fill="#C0C0C0" stroke="none" d="M 185 255 L 226 255 Q 236 255 236 265 L 236 285 Q 236 295 226 295 L 185 295 Q 175 295 175 285 L 175 265 Q 175 255 185 255 Z" opacity="0.2"/></g><g transform="translate(-62,-134) scale(1,1)"><path fill="#ffffff" stroke="none" d="M 178 248 L 219 248 Q 229 248 229 258 L 229 278 Q 229 288 219 288 L 178 288 Q 168 288 168 278 L 168 258 Q 168 248 178 248 Z"/></g><g transform="translate(-62,-134) scale(1,1)"><path fill="none" stroke="#000000" d="M 178 248 L 219 248 Q 229 248 229 258 L 229 278 Q 229 288 219 288 L 178 288 Q 168 288 168 278 L 168 258 Q 168 248 178 248 Z" stroke-miterlimit="10"/></g><g transform="translate(-62,-134) scale(1,1)"><g><path fill="none" stroke="none"/><text fill="#000000" stroke="none" font-family="Arial" font-size="13px" font-style="normal" font-weight="bold" text-decoration="none" x="172.5" y="267.5">选择类型</text></g></g><g transform="translate(-62,-134) scale(1,1)"><path fill="#C0C0C0" stroke="none" d="M 138 327 L 201 327 Q 204 327 204 330 L 204 329 Q 204 332 201 332 L 138 332 Q 135 332 135 329 L 135 330 Q 135 327 138 327 Z" opacity="0.2"/></g><g transform="translate(-62,-134) scale(1,1)"><path fill="#000000" stroke="none" d="M 131 320 L 194 320 Q 197 320 197 323 L 197 323 Q 197 326 194 326 L 131 326 Q 128 326 128 323 L 128 323 Q 128 320 131 320 Z"/></g><g transform="translate(-62,-134) scale(1,1)"><path fill="none" stroke="#000000" d="M 161 196 L 162 215" stroke-miterlimit="10"/></g><g transform="translate(-62,-134) scale(1,1)"><path fill="none" stroke="#000000" d="M 157.2621621840279 205.07261903473304 L 162 215 L 165.66956115212656 204.63012435220153" stroke-miterlimit="10"/></g><g transform="translate(-62,-134) scale(1,1)"><path fill="none" stroke="#000000" d="M 158 222 L 136 247" stroke-miterlimit="10"/></g><g transform="translate(-62,-134) scale(1,1)"><path fill="none" stroke="#000000" d="M 139.5536046184968 236.58981776262306 L 136 247 L 145.8738883768319 242.15166746995794" stroke-miterlimit="10"/></g><g transform="translate(-62,-134) scale(1,1)"><path fill="none" stroke="#000000" d="M 165 222 L 183 247" stroke-miterlimit="10"/></g><g transform="translate(-62,-134) scale(1,1)"><path fill="none" stroke="#000000" d="M 173.64573283350646 241.21228147040122 L 183 247 L 180.4780692734201 236.2929992336634" stroke-miterlimit="10"/></g><g transform="translate(-62,-134) scale(1,1)"><path fill="none" stroke="#000000" d="M 184 289 L 164 319" stroke-miterlimit="10"/></g><g transform="translate(-62,-134) scale(1,1)"><path fill="none" stroke="#000000" d="M 166.13470724978384 308.20912306817837 L 164 319 L 173.1397682256108 312.87916371872967" stroke-miterlimit="10"/></g><g transform="translate(-62,-134) scale(1,1)"><path fill="none" stroke="#000000" d="M 135 289 L 160 319" stroke-miterlimit="10"/></g><g transform="translate(-62,-134) scale(1,1)"><path fill="none" stroke="#000000" d="M 150.2601729802721 313.88768451425597 L 160 319 L 156.72785521430106 308.49794931923185" stroke-miterlimit="10"/></g><g transform="translate(-62,-134) scale(1,1)"><path fill="none" stroke="#000000" d="M 160 325 L 160 357 L 312 357" stroke-miterlimit="10"/></g><g transform="translate(-62,-134) scale(1,1)"><path fill="none" stroke="#000000" d="M 301.83732514237585 361.209517756016 L 312 357 L 301.83732514237585 352.790482243984" stroke-miterlimit="10"/></g><g transform="translate(-62,-134) scale(1,1)"><path fill="none" stroke="#000000" d="M 342 384 L 342 408" stroke-miterlimit="10"/></g><g transform="translate(-62,-134) scale(1,1)"><path fill="none" stroke="#000000" d="M 337.790482243984 397.83732514237585 L 342 408 L 346.209517756016 397.83732514237585" stroke-miterlimit="10"/></g><g transform="translate(-62,-134) scale(1,1)"><path fill="none" stroke="#000000" d="M 280 428 L 168 428 L 168 480" stroke-miterlimit="10"/></g><g transform="translate(-62,-134) scale(1,1)"><path fill="none" stroke="#000000" d="M 163.790482243984 469.83732514237585 L 168 480 L 172.209517756016 469.83732514237585" stroke-miterlimit="10"/></g><g transform="translate(-62,-134) scale(1,1)"><path fill="none" stroke="#000000" d="M 166 520 L 166 552" stroke-miterlimit="10"/></g><g transform="translate(-62,-134) scale(1,1)"><path fill="none" stroke="#000000" d="M 161.790482243984 541.8373251423759 L 166 552 L 170.209517756016 541.8373251423759" stroke-miterlimit="10"/></g><g transform="translate(-62,-134) scale(1,1)"><path fill="#C0C0C0" stroke="none" d="M 138 223 L 201 223 Q 204 223 204 226 L 204 225 Q 204 228 201 228 L 138 228 Q 135 228 135 225 L 135 226 Q 135 223 138 223 Z" opacity="0.2"/></g><g transform="translate(-62,-134) scale(1,1)"><path fill="#000000" stroke="none" d="M 131 216 L 194 216 Q 197 216 197 219 L 197 219 Q 197 222 194 222 L 131 222 Q 128 222 128 219 L 128 219 Q 128 216 131 216 Z"/></g></g></svg>