<svg version="1.1" xmlns="http://www.w3.org/2000/svg" xmlns:xlink="http://www.w3.org/1999/xlink" width="391.0908203125" height="524"><defs/><g><g transform="translate(-278,-102) scale(1,1)"><rect fill="#ffffff" stroke="none" x="480" y="112" width="179.0908203125" height="21"/></g><g transform="translate(-278,-102) scale(1,1)"><path fill="none" stroke="#000000" d="M 480 112 L 659.0908203125 112 L 659.0908203125 133 L 480 133 L 480 112 Z Z" stroke-miterlimit="10" stroke-width="2"/></g><g transform="translate(-278,-102) scale(1,1)"><path fill="none" stroke="#000000" d="M 480 616 L 480 112 L 659.0908203125 112 L 659.0908203125 616" stroke-miterlimit="10" stroke-width="2"/></g><g transform="translate(-278,-102) scale(1,1)"><g><path fill="none" stroke="none"/><text fill="#000000" stroke="none" font-family="Arial" font-size="13px" font-style="normal" font-weight="normal" text-decoration="none" x="556.54541015625" y="129">系统</text></g></g><g transform="translate(-278,-102) scale(1,1)"><rect fill="#ffffff" stroke="none" x="288" y="112" width="192" height="21"/></g><g transform="translate(-278,-102) scale(1,1)"><path fill="none" stroke="#000000" d="M 288 112 L 480 112 L 480 133 L 288 133 L 288 112 Z Z" stroke-miterlimit="10" stroke-width="2"/></g><g transform="translate(-278,-102) scale(1,1)"><path fill="none" stroke="#000000" d="M 288 616 L 288 112 L 480 112 L 480 616" stroke-miterlimit="10" stroke-width="2"/></g><g transform="translate(-278,-102) scale(1,1)"><g><path fill="none" stroke="none"/><text fill="#000000" stroke="none" font-family="Arial" font-size="13px" font-style="normal" font-weight="normal" text-decoration="none" x="371" y="129">用户</text></g></g><g transform="translate(-278,-102) scale(1,1)"><path fill="#C0C0C0" stroke="none" d="M 375 168.5 C 375 163.2532944 379.2532944 159 384.5 159 C 389.7467056 159 394 163.2532944 394 168.5 C 394 173.7467056 389.7467056 178 384.5 178 C 379.2532944 178 375 173.7467056 375 168.5 Z" opacity="0.2"/></g><g transform="translate(-278,-102) scale(1,1)"><path fill="#000000" stroke="none" d="M 368 161.5 C 368 156.2532944 372.2532944 152 377.5 152 C 382.7467056 152 387 156.2532944 387 161.5 C 387 166.7467056 382.7467056 171 377.5 171 C 372.2532944 171 368 166.7467056 368 161.5 Z"/></g><g transform="translate(-278,-102) scale(1,1)"><path fill="#C0C0C0" stroke="none" d="M 361 223 L 402 223 Q 412 223 412 233 L 412 253 Q 412 263 402 263 L 361 263 Q 351 263 351 253 L 351 233 Q 351 223 361 223 Z" opacity="0.2"/></g><g transform="translate(-278,-102) scale(1,1)"><path fill="#ffffff" stroke="none" d="M 354 216 L 395 216 Q 405 216 405 226 L 405 246 Q 405 256 395 256 L 354 256 Q 344 256 344 246 L 344 226 Q 344 216 354 216 Z"/></g><g transform="translate(-278,-102) scale(1,1)"><path fill="none" stroke="#000000" d="M 354 216 L 395 216 Q 405 216 405 226 L 405 246 Q 405 256 395 256 L 354 256 Q 344 256 344 246 L 344 226 Q 344 216 354 216 Z" stroke-miterlimit="10"/></g><g transform="translate(-278,-102) scale(1,1)"><g><path fill="none" stroke="none"/><text fill="#000000" stroke="none" font-family="Arial" font-size="13px" font-style="normal" font-weight="bold" text-decoration="none" x="348.5" y="235.5">浏览首页</text></g></g><g transform="translate(-278,-102) scale(1,1)"><path fill="#C0C0C0" stroke="none" d="M 529 311 L 622 311 Q 632 311 632 321 L 632 341 Q 632 351 622 351 L 529 351 Q 519 351 519 341 L 519 321 Q 519 311 529 311 Z" opacity="0.2"/></g><g transform="translate(-278,-102) scale(1,1)"><path fill="#ffffff" stroke="none" d="M 522 304 L 615 304 Q 625 304 625 314 L 625 334 Q 625 344 615 344 L 522 344 Q 512 344 512 334 L 512 314 Q 512 304 522 304 Z"/></g><g transform="translate(-278,-102) scale(1,1)"><path fill="none" stroke="#000000" d="M 522 304 L 615 304 Q 625 304 625 314 L 625 334 Q 625 344 615 344 L 522 344 Q 512 344 512 334 L 512 314 Q 512 304 522 304 Z" stroke-miterlimit="10"/></g><g transform="translate(-278,-102) scale(1,1)"><g><path fill="none" stroke="none"/><text fill="#000000" stroke="none" font-family="Arial" font-size="13px" font-style="normal" font-weight="bold" text-decoration="none" x="516.5" y="323.5">返回所需演出信息</text></g></g><g transform="translate(-278,-102) scale(1,1)"><path fill="#C0C0C0" stroke="none" d="M 353 407 L 420 407 Q 430 407 430 417 L 430 437 Q 430 447 420 447 L 353 447 Q 343 447 343 437 L 343 417 Q 343 407 353 407 Z" opacity="0.2"/></g><g transform="translate(-278,-102) scale(1,1)"><path fill="#ffffff" stroke="none" d="M 346 400 L 413 400 Q 423 400 423 410 L 423 430 Q 423 440 413 440 L 346 440 Q 336 440 336 430 L 336 410 Q 336 400 346 400 Z"/></g><g transform="translate(-278,-102) scale(1,1)"><path fill="none" stroke="#000000" d="M 346 400 L 413 400 Q 423 400 423 410 L 423 430 Q 423 440 413 440 L 346 440 Q 336 440 336 430 L 336 410 Q 336 400 346 400 Z" stroke-miterlimit="10"/></g><g transform="translate(-278,-102) scale(1,1)"><g><path fill="none" stroke="none"/><text fill="#000000" stroke="none" font-family="Arial" font-size="13px" font-style="normal" font-weight="bold" text-decoration="none" x="340.5" y="419.5">浏览演出信息</text></g></g><g transform="translate(-278,-102) scale(1,1)"><path fill="none" stroke="#000000" d="M 377 171 L 377 216" stroke-miterlimit="10"/></g><g transform="translate(-278,-102) scale(1,1)"><path fill="none" stroke="#000000" d="M 372.790482243984 205.83732514237585 L 377 216 L 381.209517756016 205.83732514237585" stroke-miterlimit="10"/></g><g transform="translate(-278,-102) scale(1,1)"><path fill="none" stroke="#000000" d="M 406 251 L 522 303" stroke-miterlimit="10"/></g><g transform="translate(-278,-102) scale(1,1)"><path fill="none" stroke="#000000" d="M 511.00453633892204 302.6841220521881 L 522 303 L 514.4483925218866 295.00167364403643" stroke-miterlimit="10"/></g><g transform="translate(-278,-102) scale(1,1)"><path fill="none" stroke="#000000" d="M 527 345 L 420 399" stroke-miterlimit="10"/></g><g transform="translate(-278,-102) scale(1,1)"><path fill="none" stroke="#000000" d="M 427.17616176011126 390.6631719225645 L 420 399 L 430.9693403106073 398.1792849763252" stroke-miterlimit="10"/></g><g transform="translate(-278,-102) scale(1,1)"><path fill="none" stroke="#000000" d="M 379 441 L 380 503" stroke-miterlimit="10"/></g><g transform="translate(-278,-102) scale(1,1)"><path fill="none" stroke="#000000" d="M 375.62713688711733 492.90653339055456 L 380 503 L 384.04507752489906 492.7707601544613" stroke-miterlimit="10"/></g><g transform="translate(-278,-102) scale(1,1)"><path fill="#C0C0C0" stroke="none" d="M 375 523.5 C 375 516.59644 380.59644 511 387.5 511 C 394.40356 511 400 516.59644 400 523.5 C 400 530.40356 394.40356 536 387.5 536 C 380.59644 536 375 530.40356 375 523.5 Z" opacity="0.2"/></g><g transform="translate(-278,-102) scale(1,1)"><path fill="none" stroke="#000000" d="M 368 516.5 C 368 509.59644 373.59644 504 380.5 504 C 387.40356 504 393 509.59644 393 516.5 C 393 523.40356 387.40356 529 380.5 529 C 373.59644 529 368 523.40356 368 516.5 Z" stroke-miterlimit="10"/></g><g transform="translate(-278,-102) scale(1,1)"><path fill="#000000" stroke="none" d="M 373 516.5 C 373 512.357864 376.357864 509 380.5 509 C 384.642136 509 388 512.357864 388 516.5 C 388 520.642136 384.642136 524 380.5 524 C 376.357864 524 373 520.642136 373 516.5 Z"/></g></g></svg>