<svg version="1.1" xmlns="http://www.w3.org/2000/svg" xmlns:xlink="http://www.w3.org/1999/xlink" width="787" height="660"><defs/><g><g transform="translate(2,-118) scale(1,1)"><rect fill="#ffffff" stroke="none" x="8" y="128" width="488" height="21"/></g><g transform="translate(2,-118) scale(1,1)"><path fill="none" stroke="#000000" d="M 8 128 L 496 128 L 496 149 L 8 149 L 8 128 Z Z" stroke-miterlimit="10" stroke-width="2"/></g><g transform="translate(2,-118) scale(1,1)"><path fill="none" stroke="#000000" d="M 8 768 L 8 128 L 496 128 L 496 768" stroke-miterlimit="10" stroke-width="2"/></g><g transform="translate(2,-118) scale(1,1)"><g><path fill="none" stroke="none"/><text fill="#000000" stroke="none" font-family="Arial" font-size="13px" font-style="normal" font-weight="normal" text-decoration="none" x="232.5" y="145">管理员</text></g></g><g transform="translate(2,-118) scale(1,1)"><rect fill="#ffffff" stroke="none" x="496" y="128" width="279" height="21"/></g><g transform="translate(2,-118) scale(1,1)"><path fill="none" stroke="#000000" d="M 496 128 L 775 128 L 775 149 L 496 149 L 496 128 Z Z" stroke-miterlimit="10" stroke-width="2"/></g><g transform="translate(2,-118) scale(1,1)"><path fill="none" stroke="#000000" d="M 496 768 L 496 128 L 775 128 L 775 768" stroke-miterlimit="10" stroke-width="2"/></g><g transform="translate(2,-118) scale(1,1)"><g><path fill="none" stroke="none"/><text fill="#000000" stroke="none" font-family="Arial" font-size="13px" font-style="normal" font-weight="normal" text-decoration="none" x="616" y="145">数据库</text></g></g><g transform="translate(2,-118) scale(1,1)"><path fill="#C0C0C0" stroke="none" d="M 255 192.5 C 255 187.2532944 259.2532944 183 264.5 183 C 269.7467056 183 274 187.2532944 274 192.5 C 274 197.7467056 269.7467056 202 264.5 202 C 259.2532944 202 255 197.7467056 255 192.5 Z" opacity="0.2"/></g><g transform="translate(2,-118) scale(1,1)"><path fill="#000000" stroke="none" d="M 248 185.5 C 248 180.2532944 252.2532944 176 257.5 176 C 262.7467056 176 267 180.2532944 267 185.5 C 267 190.7467056 262.7467056 195 257.5 195 C 252.2532944 195 248 190.7467056 248 185.5 Z"/></g><g transform="translate(2,-118) scale(1,1)"><path fill="#C0C0C0" stroke="none" d="M 58 255 L 468 255 Q 471 255 471 258 L 471 257 Q 471 260 468 260 L 58 260 Q 55 260 55 257 L 55 258 Q 55 255 58 255 Z" opacity="0.2"/></g><g transform="translate(2,-118) scale(1,1)"><path fill="#000000" stroke="none" d="M 51 248 L 461 248 Q 464 248 464 251 L 464 251 Q 464 254 461 254 L 51 254 Q 48 254 48 251 L 48 251 Q 48 248 51 248 Z"/></g><g transform="translate(2,-118) scale(1,1)"><path fill="#C0C0C0" stroke="none" d="M 65 311 L 106 311 Q 116 311 116 321 L 116 341 Q 116 351 106 351 L 65 351 Q 55 351 55 341 L 55 321 Q 55 311 65 311 Z" opacity="0.2"/></g><g transform="translate(2,-118) scale(1,1)"><path fill="#ffffff" stroke="none" d="M 58 304 L 99 304 Q 109 304 109 314 L 109 334 Q 109 344 99 344 L 58 344 Q 48 344 48 334 L 48 314 Q 48 304 58 304 Z"/></g><g transform="translate(2,-118) scale(1,1)"><path fill="none" stroke="#000000" d="M 58 304 L 99 304 Q 109 304 109 314 L 109 334 Q 109 344 99 344 L 58 344 Q 48 344 48 334 L 48 314 Q 48 304 58 304 Z" stroke-miterlimit="10"/></g><g transform="translate(2,-118) scale(1,1)"><g><path fill="none" stroke="none"/><text fill="#000000" stroke="none" font-family="Arial" font-size="13px" font-style="normal" font-weight="bold" text-decoration="none" x="52.5" y="323.5">填写剧院</text></g></g><g transform="translate(2,-118) scale(1,1)"><path fill="#C0C0C0" stroke="none" d="M 145 311 L 212 311 Q 222 311 222 321 L 222 341 Q 222 351 212 351 L 145 351 Q 135 351 135 341 L 135 321 Q 135 311 145 311 Z" opacity="0.2"/></g><g transform="translate(2,-118) scale(1,1)"><path fill="#ffffff" stroke="none" d="M 138 304 L 205 304 Q 215 304 215 314 L 215 334 Q 215 344 205 344 L 138 344 Q 128 344 128 334 L 128 314 Q 128 304 138 304 Z"/></g><g transform="translate(2,-118) scale(1,1)"><path fill="none" stroke="#000000" d="M 138 304 L 205 304 Q 215 304 215 314 L 215 334 Q 215 344 205 344 L 138 344 Q 128 344 128 334 L 128 314 Q 128 304 138 304 Z" stroke-miterlimit="10"/></g><g transform="translate(2,-118) scale(1,1)"><g><path fill="none" stroke="none"/><text fill="#000000" stroke="none" font-family="Arial" font-size="13px" font-style="normal" font-weight="bold" text-decoration="none" x="132.5" y="323.5">填写演出时间</text></g></g><g transform="translate(2,-118) scale(1,1)"><path fill="#C0C0C0" stroke="none" d="M 257 311 L 324 311 Q 334 311 334 321 L 334 341 Q 334 351 324 351 L 257 351 Q 247 351 247 341 L 247 321 Q 247 311 257 311 Z" opacity="0.2"/></g><g transform="translate(2,-118) scale(1,1)"><path fill="#ffffff" stroke="none" d="M 250 304 L 317 304 Q 327 304 327 314 L 327 334 Q 327 344 317 344 L 250 344 Q 240 344 240 334 L 240 314 Q 240 304 250 304 Z"/></g><g transform="translate(2,-118) scale(1,1)"><path fill="none" stroke="#000000" d="M 250 304 L 317 304 Q 327 304 327 314 L 327 334 Q 327 344 317 344 L 250 344 Q 240 344 240 334 L 240 314 Q 240 304 250 304 Z" stroke-miterlimit="10"/></g><g transform="translate(2,-118) scale(1,1)"><g><path fill="none" stroke="none"/><text fill="#000000" stroke="none" font-family="Arial" font-size="13px" font-style="normal" font-weight="bold" text-decoration="none" x="244.5" y="323.5">填写演员列表</text></g></g><g transform="translate(2,-118) scale(1,1)"><path fill="#C0C0C0" stroke="none" d="M 369 311 L 462 311 Q 472 311 472 321 L 472 341 Q 472 351 462 351 L 369 351 Q 359 351 359 341 L 359 321 Q 359 311 369 311 Z" opacity="0.2"/></g><g transform="translate(2,-118) scale(1,1)"><path fill="#ffffff" stroke="none" d="M 362 304 L 455 304 Q 465 304 465 314 L 465 334 Q 465 344 455 344 L 362 344 Q 352 344 352 334 L 352 314 Q 352 304 362 304 Z"/></g><g transform="translate(2,-118) scale(1,1)"><path fill="none" stroke="#000000" d="M 362 304 L 455 304 Q 465 304 465 314 L 465 334 Q 465 344 455 344 L 362 344 Q 352 344 352 334 L 352 314 Q 352 304 362 304 Z" stroke-miterlimit="10"/></g><g transform="translate(2,-118) scale(1,1)"><g><path fill="none" stroke="none"/><text fill="#000000" stroke="none" font-family="Arial" font-size="13px" font-style="normal" font-weight="bold" text-decoration="none" x="356.5" y="323.5">填写剧照以及介绍</text></g></g><g transform="translate(2,-118) scale(1,1)"><path fill="#C0C0C0" stroke="none" d="M 58 399 L 467 399 Q 470 399 470 402 L 470 401 Q 470 404 467 404 L 58 404 Q 55 404 55 401 L 55 402 Q 55 399 58 399 Z" opacity="0.2"/></g><g transform="translate(2,-118) scale(1,1)"><path fill="#000000" stroke="none" d="M 51 392 L 460 392 Q 463 392 463 395 L 463 395 Q 463 398 460 398 L 51 398 Q 48 398 48 395 L 48 395 Q 48 392 51 392 Z"/></g><g transform="translate(2,-118) scale(1,1)"><path fill="#C0C0C0" stroke="none" d="M 255 464.5 L 266.5 455 L 277 464.5 L 266.5 473 L 255 464.5" opacity="0.2"/></g><g transform="translate(2,-118) scale(1,1)"><path fill="#ffffff" stroke="none" d="M 248 457 L 259 448 L 270 457 L 259 466 L 248 457"/></g><g transform="translate(2,-118) scale(1,1)"><path fill="none" stroke="#000000" d="M 248 457 L 259 448 L 270 457 L 259 466 L 248 457 L 248 457" stroke-miterlimit="10"/></g><g transform="translate(2,-118) scale(1,1)"><path fill="#C0C0C0" stroke="none" d="M 255 555.5 C 255 548.59644 260.59644 543 267.5 543 C 274.40356 543 280 548.59644 280 555.5 C 280 562.40356 274.40356 568 267.5 568 C 260.59644 568 255 562.40356 255 555.5 Z" opacity="0.2"/></g><g transform="translate(2,-118) scale(1,1)"><path fill="none" stroke="#000000" d="M 248 548.5 C 248 541.59644 253.59644 536 260.5 536 C 267.40356 536 273 541.59644 273 548.5 C 273 555.40356 267.40356 561 260.5 561 C 253.59644 561 248 555.40356 248 548.5 Z" stroke-miterlimit="10"/></g><g transform="translate(2,-118) scale(1,1)"><path fill="#000000" stroke="none" d="M 253 548.5 C 253 544.357864 256.357864 541 260.5 541 C 264.642136 541 268 544.357864 268 548.5 C 268 552.642136 264.642136 556 260.5 556 C 256.357864 556 253 552.642136 253 548.5 Z"/></g><g transform="translate(2,-118) scale(1,1)"><path fill="#C0C0C0" stroke="none" d="M 631 552.5 L 642.5 543 L 653 552.5 L 642.5 561 L 631 552.5" opacity="0.2"/></g><g transform="translate(2,-118) scale(1,1)"><path fill="#ffffff" stroke="none" d="M 624 545 L 635 536 L 646 545 L 635 554 L 624 545"/></g><g transform="translate(2,-118) scale(1,1)"><path fill="none" stroke="#000000" d="M 624 545 L 635 536 L 646 545 L 635 554 L 624 545 L 624 545" stroke-miterlimit="10"/></g><g transform="translate(2,-118) scale(1,1)"><path fill="#C0C0C0" stroke="none" d="M 593 439 L 701 439 Q 711 439 711 449 L 711 469 Q 711 479 701 479 L 593 479 Q 583 479 583 469 L 583 449 Q 583 439 593 439 Z" opacity="0.2"/></g><g transform="translate(2,-118) scale(1,1)"><path fill="#ffffff" stroke="none" d="M 586 432 L 694 432 Q 704 432 704 442 L 704 462 Q 704 472 694 472 L 586 472 Q 576 472 576 462 L 576 442 Q 576 432 586 432 Z"/></g><g transform="translate(2,-118) scale(1,1)"><path fill="none" stroke="#000000" d="M 586 432 L 694 432 Q 704 432 704 442 L 704 462 Q 704 472 694 472 L 586 472 Q 576 472 576 462 L 576 442 Q 576 432 586 432 Z" stroke-miterlimit="10"/></g><g transform="translate(2,-118) scale(1,1)"><g><path fill="none" stroke="none"/><text fill="#000000" stroke="none" font-family="Arial" font-size="13px" font-style="normal" font-weight="bold" text-decoration="none" x="594.5" y="451.5">核实信息完整度</text></g></g><g transform="translate(2,-118) scale(1,1)"><path fill="#C0C0C0" stroke="none" d="M 529 615 L 635 615 Q 645 615 645 625 L 645 645 Q 645 655 635 655 L 529 655 Q 519 655 519 645 L 519 625 Q 519 615 529 615 Z" opacity="0.2"/></g><g transform="translate(2,-118) scale(1,1)"><path fill="#ffffff" stroke="none" d="M 522 608 L 628 608 Q 638 608 638 618 L 638 638 Q 638 648 628 648 L 522 648 Q 512 648 512 638 L 512 618 Q 512 608 522 608 Z"/></g><g transform="translate(2,-118) scale(1,1)"><path fill="none" stroke="#000000" d="M 522 608 L 628 608 Q 638 608 638 618 L 638 638 Q 638 648 628 648 L 522 648 Q 512 648 512 638 L 512 618 Q 512 608 522 608 Z" stroke-miterlimit="10"/></g><g transform="translate(2,-118) scale(1,1)"><g><path fill="none" stroke="none"/><text fill="#000000" stroke="none" font-family="Arial" font-size="13px" font-style="normal" font-weight="bold" text-decoration="none" x="516.5" y="627.5">提示管理员补全信息</text></g></g><g transform="translate(2,-118) scale(1,1)"><path fill="#C0C0C0" stroke="none" d="M 681 614 L 756 614 Q 766 614 766 624 L 766 644 Q 766 654 756 654 L 681 654 Q 671 654 671 644 L 671 624 Q 671 614 681 614 Z" opacity="0.2"/></g><g transform="translate(2,-118) scale(1,1)"><path fill="#ffffff" stroke="none" d="M 674 607 L 749 607 Q 759 607 759 617 L 759 637 Q 759 647 749 647 L 674 647 Q 664 647 664 637 L 664 617 Q 664 607 674 607 Z"/></g><g transform="translate(2,-118) scale(1,1)"><path fill="none" stroke="#000000" d="M 674 607 L 749 607 Q 759 607 759 617 L 759 637 Q 759 647 749 647 L 674 647 Q 664 647 664 637 L 664 617 Q 664 607 674 607 Z" stroke-miterlimit="10"/></g><g transform="translate(2,-118) scale(1,1)"><g><path fill="none" stroke="none"/><text fill="#000000" stroke="none" font-family="Arial" font-size="13px" font-style="normal" font-weight="bold" text-decoration="none" x="685.5" y="626.5">发布演出</text></g></g><g transform="translate(2,-118) scale(1,1)"><path fill="#C0C0C0" stroke="none" d="M 551 707.5 C 551 700.59644 556.59644 695 563.5 695 C 570.40356 695 576 700.59644 576 707.5 C 576 714.40356 570.40356 720 563.5 720 C 556.59644 720 551 714.40356 551 707.5 Z" opacity="0.2"/></g><g transform="translate(2,-118) scale(1,1)"><path fill="none" stroke="#000000" d="M 544 700.5 C 544 693.59644 549.59644 688 556.5 688 C 563.40356 688 569 693.59644 569 700.5 C 569 707.40356 563.40356 713 556.5 713 C 549.59644 713 544 707.40356 544 700.5 Z" stroke-miterlimit="10"/></g><g transform="translate(2,-118) scale(1,1)"><path fill="#000000" stroke="none" d="M 549 700.5 C 549 696.357864 552.357864 693 556.5 693 C 560.642136 693 564 696.357864 564 700.5 C 564 704.642136 560.642136 708 556.5 708 C 552.357864 708 549 704.642136 549 700.5 Z"/></g><g transform="translate(2,-118) scale(1,1)"><path fill="#C0C0C0" stroke="none" d="M 711 707.5 C 711 700.59644 716.59644 695 723.5 695 C 730.40356 695 736 700.59644 736 707.5 C 736 714.40356 730.40356 720 723.5 720 C 716.59644 720 711 714.40356 711 707.5 Z" opacity="0.2"/></g><g transform="translate(2,-118) scale(1,1)"><path fill="none" stroke="#000000" d="M 704 700.5 C 704 693.59644 709.59644 688 716.5 688 C 723.40356 688 729 693.59644 729 700.5 C 729 707.40356 723.40356 713 716.5 713 C 709.59644 713 704 707.40356 704 700.5 Z" stroke-miterlimit="10"/></g><g transform="translate(2,-118) scale(1,1)"><path fill="#000000" stroke="none" d="M 709 700.5 C 709 696.357864 712.357864 693 716.5 693 C 720.642136 693 724 696.357864 724 700.5 C 724 704.642136 720.642136 708 716.5 708 C 712.357864 708 709 704.642136 709 700.5 Z"/></g><g transform="translate(2,-118) scale(1,1)"><path fill="none" stroke="#000000" d="M 257 195 L 257 248" stroke-miterlimit="10"/></g><g transform="translate(2,-118) scale(1,1)"><path fill="none" stroke="#000000" d="M 252.790482243984 237.83732514237585 L 257 248 L 261.209517756016 237.83732514237585" stroke-miterlimit="10"/></g><g transform="translate(2,-118) scale(1,1)"><path fill="none" stroke="#000000" d="M 80 253 L 80 304" stroke-miterlimit="10"/></g><g transform="translate(2,-118) scale(1,1)"><path fill="none" stroke="#000000" d="M 75.79048224398402 293.83732514237585 L 80 304 L 84.20951775601598 293.83732514237585" stroke-miterlimit="10"/></g><g transform="translate(2,-118) scale(1,1)"><path fill="none" stroke="#000000" d="M 176 253 L 176 304" stroke-miterlimit="10"/></g><g transform="translate(2,-118) scale(1,1)"><path fill="none" stroke="#000000" d="M 171.790482243984 293.83732514237585 L 176 304 L 180.209517756016 293.83732514237585" stroke-miterlimit="10"/></g><g transform="translate(2,-118) scale(1,1)"><path fill="none" stroke="#000000" d="M 288 253 L 288 304" stroke-miterlimit="10"/></g><g transform="translate(2,-118) scale(1,1)"><path fill="none" stroke="#000000" d="M 283.790482243984 293.83732514237585 L 288 304 L 292.209517756016 293.83732514237585" stroke-miterlimit="10"/></g><g transform="translate(2,-118) scale(1,1)"><path fill="none" stroke="#000000" d="M 416 253 L 416 304" stroke-miterlimit="10"/></g><g transform="translate(2,-118) scale(1,1)"><path fill="none" stroke="#000000" d="M 411.790482243984 293.83732514237585 L 416 304 L 420.209517756016 293.83732514237585" stroke-miterlimit="10"/></g><g transform="translate(2,-118) scale(1,1)"><path fill="none" stroke="#000000" d="M 78 344 L 78 392" stroke-miterlimit="10"/></g><g transform="translate(2,-118) scale(1,1)"><path fill="none" stroke="#000000" d="M 73.79048224398402 381.83732514237585 L 78 392 L 82.20951775601598 381.83732514237585" stroke-miterlimit="10"/></g><g transform="translate(2,-118) scale(1,1)"><path fill="none" stroke="#000000" d="M 176 344 L 176 392" stroke-miterlimit="10"/></g><g transform="translate(2,-118) scale(1,1)"><path fill="none" stroke="#000000" d="M 171.790482243984 381.83732514237585 L 176 392 L 180.209517756016 381.83732514237585" stroke-miterlimit="10"/></g><g transform="translate(2,-118) scale(1,1)"><path fill="none" stroke="#000000" d="M 288 344 L 288 392" stroke-miterlimit="10"/></g><g transform="translate(2,-118) scale(1,1)"><path fill="none" stroke="#000000" d="M 283.790482243984 381.83732514237585 L 288 392 L 292.209517756016 381.83732514237585" stroke-miterlimit="10"/></g><g transform="translate(2,-118) scale(1,1)"><path fill="none" stroke="#000000" d="M 416 344 L 416 392" stroke-miterlimit="10"/></g><g transform="translate(2,-118) scale(1,1)"><path fill="none" stroke="#000000" d="M 411.790482243984 381.83732514237585 L 416 392 L 420.209517756016 381.83732514237585" stroke-miterlimit="10"/></g><g transform="translate(2,-118) scale(1,1)"><path fill="none" stroke="#000000" d="M 255 397 L 255 448" stroke-miterlimit="10"/></g><g transform="translate(2,-118) scale(1,1)"><path fill="none" stroke="#000000" d="M 250.790482243984 437.83732514237585 L 255 448 L 259.209517756016 437.83732514237585" stroke-miterlimit="10"/></g><g transform="translate(2,-118) scale(1,1)"><path fill="none" stroke="#000000" d="M 259 466 L 259 536" stroke-miterlimit="10"/></g><g transform="translate(2,-118) scale(1,1)"><path fill="none" stroke="#000000" d="M 254.790482243984 525.8373251423759 L 259 536 L 263.209517756016 525.8373251423759" stroke-miterlimit="10"/></g><g transform="translate(2,-118) scale(1,1)"><g><path fill="none" stroke="none"/><text fill="#000000" stroke="none" font-family="Arial" font-size="13px" font-style="normal" font-weight="normal" text-decoration="none" x="206.5" y="491.5">取消操作</text></g></g><g transform="translate(2,-118) scale(1,1)"><path fill="none" stroke="#000000" d="M 270 457 L 576 457" stroke-miterlimit="10"/></g><g transform="translate(2,-118) scale(1,1)"><path fill="none" stroke="#000000" d="M 565.8373251423759 461.209517756016 L 576 457 L 565.8373251423758 452.790482243984" stroke-miterlimit="10"/></g><g transform="translate(2,-118) scale(1,1)"><g><path fill="none" stroke="none"/><text fill="#000000" stroke="none" font-family="Arial" font-size="13px" font-style="normal" font-weight="normal" text-decoration="none" x="294.5" y="447.5">确认发布</text></g></g><g transform="translate(2,-118) scale(1,1)"><path fill="none" stroke="#000000" d="M 639 472 L 639 536" stroke-miterlimit="10"/></g><g transform="translate(2,-118) scale(1,1)"><path fill="none" stroke="#000000" d="M 634.790482243984 525.8373251423759 L 639 536 L 643.209517756016 525.8373251423759" stroke-miterlimit="10"/></g><g transform="translate(2,-118) scale(1,1)"><path fill="none" stroke="#000000" d="M 624 544 L 560 544 L 560 608" stroke-miterlimit="10"/></g><g transform="translate(2,-118) scale(1,1)"><path fill="none" stroke="#000000" d="M 555.790482243984 597.8373251423759 L 560 608 L 564.209517756016 597.8373251423759" stroke-miterlimit="10"/></g><g transform="translate(2,-118) scale(1,1)"><g><path fill="none" stroke="none"/><text fill="#000000" stroke="none" font-family="Arial" font-size="13px" font-style="normal" font-weight="normal" text-decoration="none" x="566.5" y="540.5">信息完整</text></g></g><g transform="translate(2,-118) scale(1,1)"><path fill="none" stroke="#000000" d="M 646 544 L 712 544 L 712 607" stroke-miterlimit="10"/></g><g transform="translate(2,-118) scale(1,1)"><path fill="none" stroke="#000000" d="M 707.790482243984 596.8373251423759 L 712 607 L 716.209517756016 596.8373251423759" stroke-miterlimit="10"/></g><g transform="translate(2,-118) scale(1,1)"><g><path fill="none" stroke="none"/><text fill="#000000" stroke="none" font-family="Arial" font-size="13px" font-style="normal" font-weight="normal" text-decoration="none" x="655.5" y="539.5">信息不完整</text></g></g><g transform="translate(2,-118) scale(1,1)"><path fill="none" stroke="#000000" d="M 560 648 L 560 688" stroke-miterlimit="10"/></g><g transform="translate(2,-118) scale(1,1)"><path fill="none" stroke="#000000" d="M 555.790482243984 677.8373251423759 L 560 688 L 564.209517756016 677.8373251423759" stroke-miterlimit="10"/></g><g transform="translate(2,-118) scale(1,1)"><path fill="none" stroke="#000000" d="M 712 647 L 712 688" stroke-miterlimit="10"/></g><g transform="translate(2,-118) scale(1,1)"><path fill="none" stroke="#000000" d="M 707.790482243984 677.8373251423759 L 712 688 L 716.209517756016 677.8373251423759" stroke-miterlimit="10"/></g></g></svg>