<svg version="1.1" xmlns="http://www.w3.org/2000/svg" xmlns:xlink="http://www.w3.org/1999/xlink" width="843" height="764"><defs/><g><g transform="translate(-30,-150) scale(1,1)"><rect fill="#ffffff" stroke="none" x="40" y="160" width="504" height="21"/></g><g transform="translate(-30,-150) scale(1,1)"><path fill="none" stroke="#000000" d="M 40 160 L 544 160 L 544 181 L 40 181 L 40 160 Z Z" stroke-miterlimit="10" stroke-width="2"/></g><g transform="translate(-30,-150) scale(1,1)"><path fill="none" stroke="#000000" d="M 40 904 L 40 160 L 544 160 L 544 904" stroke-miterlimit="10" stroke-width="2"/></g><g transform="translate(-30,-150) scale(1,1)"><g><path fill="none" stroke="none"/><text fill="#000000" stroke="none" font-family="Arial" font-size="13px" font-style="normal" font-weight="normal" text-decoration="none" x="272.5" y="177">管理员</text></g></g><g transform="translate(-30,-150) scale(1,1)"><rect fill="#ffffff" stroke="none" x="544" y="160" width="319" height="21"/></g><g transform="translate(-30,-150) scale(1,1)"><path fill="none" stroke="#000000" d="M 544 160 L 863 160 L 863 181 L 544 181 L 544 160 Z Z" stroke-miterlimit="10" stroke-width="2"/></g><g transform="translate(-30,-150) scale(1,1)"><path fill="none" stroke="#000000" d="M 544 904 L 544 160 L 863 160 L 863 904" stroke-miterlimit="10" stroke-width="2"/></g><g transform="translate(-30,-150) scale(1,1)"><g><path fill="none" stroke="none"/><text fill="#000000" stroke="none" font-family="Arial" font-size="13px" font-style="normal" font-weight="normal" text-decoration="none" x="684" y="177">数据库</text></g></g><g transform="translate(-30,-150) scale(1,1)"><path fill="#C0C0C0" stroke="none" d="M 98 415 L 508 415 Q 511 415 511 418 L 511 417 Q 511 420 508 420 L 98 420 Q 95 420 95 417 L 95 418 Q 95 415 98 415 Z" opacity="0.2"/></g><g transform="translate(-30,-150) scale(1,1)"><path fill="#000000" stroke="none" d="M 91 408 L 501 408 Q 504 408 504 411 L 504 411 Q 504 414 501 414 L 91 414 Q 88 414 88 411 L 88 411 Q 88 408 91 408 Z"/></g><g transform="translate(-30,-150) scale(1,1)"><path fill="#C0C0C0" stroke="none" d="M 295 232.5 C 295 227.2532944 299.2532944 223 304.5 223 C 309.7467056 223 314 227.2532944 314 232.5 C 314 237.7467056 309.7467056 242 304.5 242 C 299.2532944 242 295 237.7467056 295 232.5 Z" opacity="0.2"/></g><g transform="translate(-30,-150) scale(1,1)"><path fill="#000000" stroke="none" d="M 288 225.5 C 288 220.2532944 292.2532944 216 297.5 216 C 302.7467056 216 307 220.2532944 307 225.5 C 307 230.7467056 302.7467056 235 297.5 235 C 292.2532944 235 288 230.7467056 288 225.5 Z"/></g><g transform="translate(-30,-150) scale(1,1)"><path fill="#C0C0C0" stroke="none" d="M 257 311 L 348 311 Q 358 311 358 321 L 358 341 Q 358 351 348 351 L 257 351 Q 247 351 247 341 L 247 321 Q 247 311 257 311 Z" opacity="0.2"/></g><g transform="translate(-30,-150) scale(1,1)"><path fill="#ffffff" stroke="none" d="M 250 304 L 341 304 Q 351 304 351 314 L 351 334 Q 351 344 341 344 L 250 344 Q 240 344 240 334 L 240 314 Q 240 304 250 304 Z"/></g><g transform="translate(-30,-150) scale(1,1)"><path fill="none" stroke="#000000" d="M 250 304 L 341 304 Q 351 304 351 314 L 351 334 Q 351 344 341 344 L 250 344 Q 240 344 240 334 L 240 314 Q 240 304 250 304 Z" stroke-miterlimit="10"/></g><g transform="translate(-30,-150) scale(1,1)"><g><path fill="none" stroke="none"/><text fill="#000000" stroke="none" font-family="Arial" font-size="13px" font-style="normal" font-weight="bold" text-decoration="none" x="269.5" y="323.5">选择演出</text></g></g><g transform="translate(-30,-150) scale(1,1)"><path fill="#C0C0C0" stroke="none" d="M 113 471 L 154 471 Q 164 471 164 481 L 164 501 Q 164 511 154 511 L 113 511 Q 103 511 103 501 L 103 481 Q 103 471 113 471 Z" opacity="0.2"/></g><g transform="translate(-30,-150) scale(1,1)"><path fill="#ffffff" stroke="none" d="M 106 464 L 147 464 Q 157 464 157 474 L 157 494 Q 157 504 147 504 L 106 504 Q 96 504 96 494 L 96 474 Q 96 464 106 464 Z"/></g><g transform="translate(-30,-150) scale(1,1)"><path fill="none" stroke="#000000" d="M 106 464 L 147 464 Q 157 464 157 474 L 157 494 Q 157 504 147 504 L 106 504 Q 96 504 96 494 L 96 474 Q 96 464 106 464 Z" stroke-miterlimit="10"/></g><g transform="translate(-30,-150) scale(1,1)"><g><path fill="none" stroke="none"/><text fill="#000000" stroke="none" font-family="Arial" font-size="13px" font-style="normal" font-weight="bold" text-decoration="none" x="100.5" y="483.5">填写剧院</text></g></g><g transform="translate(-30,-150) scale(1,1)"><path fill="#C0C0C0" stroke="none" d="M 193 471 L 260 471 Q 270 471 270 481 L 270 501 Q 270 511 260 511 L 193 511 Q 183 511 183 501 L 183 481 Q 183 471 193 471 Z" opacity="0.2"/></g><g transform="translate(-30,-150) scale(1,1)"><path fill="#ffffff" stroke="none" d="M 186 464 L 253 464 Q 263 464 263 474 L 263 494 Q 263 504 253 504 L 186 504 Q 176 504 176 494 L 176 474 Q 176 464 186 464 Z"/></g><g transform="translate(-30,-150) scale(1,1)"><path fill="none" stroke="#000000" d="M 186 464 L 253 464 Q 263 464 263 474 L 263 494 Q 263 504 253 504 L 186 504 Q 176 504 176 494 L 176 474 Q 176 464 186 464 Z" stroke-miterlimit="10"/></g><g transform="translate(-30,-150) scale(1,1)"><g><path fill="none" stroke="none"/><text fill="#000000" stroke="none" font-family="Arial" font-size="13px" font-style="normal" font-weight="bold" text-decoration="none" x="180.5" y="483.5">填写演出时间</text></g></g><g transform="translate(-30,-150) scale(1,1)"><path fill="#C0C0C0" stroke="none" d="M 297 471 L 364 471 Q 374 471 374 481 L 374 501 Q 374 511 364 511 L 297 511 Q 287 511 287 501 L 287 481 Q 287 471 297 471 Z" opacity="0.2"/></g><g transform="translate(-30,-150) scale(1,1)"><path fill="#ffffff" stroke="none" d="M 290 464 L 357 464 Q 367 464 367 474 L 367 494 Q 367 504 357 504 L 290 504 Q 280 504 280 494 L 280 474 Q 280 464 290 464 Z"/></g><g transform="translate(-30,-150) scale(1,1)"><path fill="none" stroke="#000000" d="M 290 464 L 357 464 Q 367 464 367 474 L 367 494 Q 367 504 357 504 L 290 504 Q 280 504 280 494 L 280 474 Q 280 464 290 464 Z" stroke-miterlimit="10"/></g><g transform="translate(-30,-150) scale(1,1)"><g><path fill="none" stroke="none"/><text fill="#000000" stroke="none" font-family="Arial" font-size="13px" font-style="normal" font-weight="bold" text-decoration="none" x="284.5" y="483.5">填写演员列表</text></g></g><g transform="translate(-30,-150) scale(1,1)"><path fill="#C0C0C0" stroke="none" d="M 401 471 L 494 471 Q 504 471 504 481 L 504 501 Q 504 511 494 511 L 401 511 Q 391 511 391 501 L 391 481 Q 391 471 401 471 Z" opacity="0.2"/></g><g transform="translate(-30,-150) scale(1,1)"><path fill="#ffffff" stroke="none" d="M 394 464 L 487 464 Q 497 464 497 474 L 497 494 Q 497 504 487 504 L 394 504 Q 384 504 384 494 L 384 474 Q 384 464 394 464 Z"/></g><g transform="translate(-30,-150) scale(1,1)"><path fill="none" stroke="#000000" d="M 394 464 L 487 464 Q 497 464 497 474 L 497 494 Q 497 504 487 504 L 394 504 Q 384 504 384 494 L 384 474 Q 384 464 394 464 Z" stroke-miterlimit="10"/></g><g transform="translate(-30,-150) scale(1,1)"><g><path fill="none" stroke="none"/><text fill="#000000" stroke="none" font-family="Arial" font-size="13px" font-style="normal" font-weight="bold" text-decoration="none" x="388.5" y="483.5">填写剧照以及介绍</text></g></g><g transform="translate(-30,-150) scale(1,1)"><path fill="#C0C0C0" stroke="none" d="M 98 575 L 507 575 Q 510 575 510 578 L 510 577 Q 510 580 507 580 L 98 580 Q 95 580 95 577 L 95 578 Q 95 575 98 575 Z" opacity="0.2"/></g><g transform="translate(-30,-150) scale(1,1)"><path fill="#000000" stroke="none" d="M 91 568 L 500 568 Q 503 568 503 571 L 503 571 Q 503 574 500 574 L 91 574 Q 88 574 88 571 L 88 571 Q 88 568 91 568 Z"/></g><g transform="translate(-30,-150) scale(1,1)"><path fill="#C0C0C0" stroke="none" d="M 295 640.5 L 306.5 631 L 317 640.5 L 306.5 649 L 295 640.5" opacity="0.2"/></g><g transform="translate(-30,-150) scale(1,1)"><path fill="#ffffff" stroke="none" d="M 288 633 L 299 624 L 310 633 L 299 642 L 288 633"/></g><g transform="translate(-30,-150) scale(1,1)"><path fill="none" stroke="#000000" d="M 288 633 L 299 624 L 310 633 L 299 642 L 288 633 L 288 633" stroke-miterlimit="10"/></g><g transform="translate(-30,-150) scale(1,1)"><path fill="#C0C0C0" stroke="none" d="M 665 615 L 780 615 Q 790 615 790 625 L 790 652 Q 790 662 780 662 L 665 662 Q 655 662 655 652 L 655 625 Q 655 615 665 615 Z" opacity="0.2"/></g><g transform="translate(-30,-150) scale(1,1)"><path fill="#ffffff" stroke="none" d="M 658 608 L 773 608 Q 783 608 783 618 L 783 645 Q 783 655 773 655 L 658 655 Q 648 655 648 645 L 648 618 Q 648 608 658 608 Z"/></g><g transform="translate(-30,-150) scale(1,1)"><path fill="none" stroke="#000000" d="M 658 608 L 773 608 Q 783 608 783 618 L 783 645 Q 783 655 773 655 L 658 655 Q 648 655 648 645 L 648 618 Q 648 608 658 608 Z" stroke-miterlimit="10"/></g><g transform="translate(-30,-150) scale(1,1)"><g><path fill="none" stroke="none"/><text fill="#000000" stroke="none" font-family="Arial" font-size="13px" font-style="normal" font-weight="bold" text-decoration="none" x="663.5" y="627.5">检验信息是否完整</text></g></g><g transform="translate(-30,-150) scale(1,1)"><path fill="#C0C0C0" stroke="none" d="M 761 743 L 852 743 Q 862 743 862 753 L 862 773 Q 862 783 852 783 L 761 783 Q 751 783 751 773 L 751 753 Q 751 743 761 743 Z" opacity="0.2"/></g><g transform="translate(-30,-150) scale(1,1)"><path fill="#ffffff" stroke="none" d="M 754 736 L 845 736 Q 855 736 855 746 L 855 766 Q 855 776 845 776 L 754 776 Q 744 776 744 766 L 744 746 Q 744 736 754 736 Z"/></g><g transform="translate(-30,-150) scale(1,1)"><path fill="none" stroke="#000000" d="M 754 736 L 845 736 Q 855 736 855 746 L 855 766 Q 855 776 845 776 L 754 776 Q 744 776 744 766 L 744 746 Q 744 736 754 736 Z" stroke-miterlimit="10"/></g><g transform="translate(-30,-150) scale(1,1)"><g><path fill="none" stroke="none"/><text fill="#000000" stroke="none" font-family="Arial" font-size="13px" font-style="normal" font-weight="bold" text-decoration="none" x="760.5" y="755.5">修改演出信息</text></g></g><g transform="translate(-30,-150) scale(1,1)"><path fill="none" stroke="#000000" d="M 297 235 L 297 304" stroke-miterlimit="10"/></g><g transform="translate(-30,-150) scale(1,1)"><path fill="none" stroke="#000000" d="M 292.790482243984 293.83732514237585 L 297 304 L 301.209517756016 293.83732514237585" stroke-miterlimit="10"/></g><g transform="translate(-30,-150) scale(1,1)"><path fill="none" stroke="#000000" d="M 295 344 L 295 408" stroke-miterlimit="10"/></g><g transform="translate(-30,-150) scale(1,1)"><path fill="none" stroke="#000000" d="M 290.790482243984 397.83732514237585 L 295 408 L 299.209517756016 397.83732514237585" stroke-miterlimit="10"/></g><g transform="translate(-30,-150) scale(1,1)"><path fill="none" stroke="#000000" d="M 128 413 L 128 464" stroke-miterlimit="10"/></g><g transform="translate(-30,-150) scale(1,1)"><path fill="none" stroke="#000000" d="M 123.79048224398402 453.83732514237585 L 128 464 L 132.209517756016 453.83732514237585" stroke-miterlimit="10"/></g><g transform="translate(-30,-150) scale(1,1)"><path fill="none" stroke="#000000" d="M 224 413 L 224 464" stroke-miterlimit="10"/></g><g transform="translate(-30,-150) scale(1,1)"><path fill="none" stroke="#000000" d="M 219.790482243984 453.83732514237585 L 224 464 L 228.209517756016 453.83732514237585" stroke-miterlimit="10"/></g><g transform="translate(-30,-150) scale(1,1)"><path fill="none" stroke="#000000" d="M 328 413 L 328 464" stroke-miterlimit="10"/></g><g transform="translate(-30,-150) scale(1,1)"><path fill="none" stroke="#000000" d="M 323.790482243984 453.83732514237585 L 328 464 L 332.209517756016 453.83732514237585" stroke-miterlimit="10"/></g><g transform="translate(-30,-150) scale(1,1)"><path fill="none" stroke="#000000" d="M 440 413 L 440 464" stroke-miterlimit="10"/></g><g transform="translate(-30,-150) scale(1,1)"><path fill="none" stroke="#000000" d="M 435.790482243984 453.83732514237585 L 440 464 L 444.209517756016 453.83732514237585" stroke-miterlimit="10"/></g><g transform="translate(-30,-150) scale(1,1)"><path fill="none" stroke="#000000" d="M 126 504 L 126 568" stroke-miterlimit="10"/></g><g transform="translate(-30,-150) scale(1,1)"><path fill="none" stroke="#000000" d="M 121.79048224398402 557.8373251423759 L 126 568 L 130.209517756016 557.8373251423759" stroke-miterlimit="10"/></g><g transform="translate(-30,-150) scale(1,1)"><path fill="none" stroke="#000000" d="M 224 504 L 224 568" stroke-miterlimit="10"/></g><g transform="translate(-30,-150) scale(1,1)"><path fill="none" stroke="#000000" d="M 219.790482243984 557.8373251423759 L 224 568 L 228.209517756016 557.8373251423759" stroke-miterlimit="10"/></g><g transform="translate(-30,-150) scale(1,1)"><path fill="none" stroke="#000000" d="M 328 504 L 328 568" stroke-miterlimit="10"/></g><g transform="translate(-30,-150) scale(1,1)"><path fill="none" stroke="#000000" d="M 323.790482243984 557.8373251423759 L 328 568 L 332.209517756016 557.8373251423759" stroke-miterlimit="10"/></g><g transform="translate(-30,-150) scale(1,1)"><path fill="none" stroke="#000000" d="M 440 504 L 440 568" stroke-miterlimit="10"/></g><g transform="translate(-30,-150) scale(1,1)"><path fill="none" stroke="#000000" d="M 435.790482243984 557.8373251423759 L 440 568 L 444.209517756016 557.8373251423759" stroke-miterlimit="10"/></g><g transform="translate(-30,-150) scale(1,1)"><path fill="none" stroke="#000000" d="M 295 573 L 295 624" stroke-miterlimit="10"/></g><g transform="translate(-30,-150) scale(1,1)"><path fill="none" stroke="#000000" d="M 290.790482243984 613.8373251423759 L 295 624 L 299.209517756016 613.8373251423759" stroke-miterlimit="10"/></g><g transform="translate(-30,-150) scale(1,1)"><path fill="none" stroke="#000000" d="M 310 633 L 648 633" stroke-miterlimit="10"/></g><g transform="translate(-30,-150) scale(1,1)"><path fill="none" stroke="#000000" d="M 637.8373251423759 637.209517756016 L 648 633 L 637.8373251423758 628.790482243984" stroke-miterlimit="10"/></g><g transform="translate(-30,-150) scale(1,1)"><g><path fill="none" stroke="none"/><text fill="#000000" stroke="none" font-family="Arial" font-size="13px" font-style="normal" font-weight="normal" text-decoration="none" x="334.5" y="623.5">确认更改</text></g></g><g transform="translate(-30,-150) scale(1,1)"><path fill="#C0C0C0" stroke="none" d="M 295 739.5 C 295 732.59644 300.59644 727 307.5 727 C 314.40356 727 320 732.59644 320 739.5 C 320 746.40356 314.40356 752 307.5 752 C 300.59644 752 295 746.40356 295 739.5 Z" opacity="0.2"/></g><g transform="translate(-30,-150) scale(1,1)"><path fill="none" stroke="#000000" d="M 288 732.5 C 288 725.59644 293.59644 720 300.5 720 C 307.40356 720 313 725.59644 313 732.5 C 313 739.40356 307.40356 745 300.5 745 C 293.59644 745 288 739.40356 288 732.5 Z" stroke-miterlimit="10"/></g><g transform="translate(-30,-150) scale(1,1)"><path fill="#000000" stroke="none" d="M 293 732.5 C 293 728.357864 296.357864 725 300.5 725 C 304.642136 725 308 728.357864 308 732.5 C 308 736.642136 304.642136 740 300.5 740 C 296.357864 740 293 736.642136 293 732.5 Z"/></g><g transform="translate(-30,-150) scale(1,1)"><path fill="none" stroke="#000000" d="M 300 642 L 300 720" stroke-miterlimit="10"/></g><g transform="translate(-30,-150) scale(1,1)"><path fill="none" stroke="#000000" d="M 295.790482243984 709.8373251423759 L 300 720 L 304.209517756016 709.8373251423759" stroke-miterlimit="10"/></g><g transform="translate(-30,-150) scale(1,1)"><g><path fill="none" stroke="none"/><text fill="#000000" stroke="none" font-family="Arial" font-size="13px" font-style="normal" font-weight="normal" text-decoration="none" x="238.5" y="675.5">取消更改</text></g></g><g transform="translate(-30,-150) scale(1,1)"><path fill="#C0C0C0" stroke="none" d="M 711 704.5 L 722.5 695 L 733 704.5 L 722.5 713 L 711 704.5" opacity="0.2"/></g><g transform="translate(-30,-150) scale(1,1)"><path fill="#ffffff" stroke="none" d="M 704 697 L 715 688 L 726 697 L 715 706 L 704 697"/></g><g transform="translate(-30,-150) scale(1,1)"><path fill="none" stroke="#000000" d="M 704 697 L 715 688 L 726 697 L 715 706 L 704 697 L 704 697" stroke-miterlimit="10"/></g><g transform="translate(-30,-150) scale(1,1)"><path fill="#C0C0C0" stroke="none" d="M 615 771.5 C 615 764.59644 620.59644 759 627.5 759 C 634.40356 759 640 764.59644 640 771.5 C 640 778.40356 634.40356 784 627.5 784 C 620.59644 784 615 778.40356 615 771.5 Z" opacity="0.2"/></g><g transform="translate(-30,-150) scale(1,1)"><path fill="none" stroke="#000000" d="M 608 764.5 C 608 757.59644 613.59644 752 620.5 752 C 627.40356 752 633 757.59644 633 764.5 C 633 771.40356 627.40356 777 620.5 777 C 613.59644 777 608 771.40356 608 764.5 Z" stroke-miterlimit="10"/></g><g transform="translate(-30,-150) scale(1,1)"><path fill="#000000" stroke="none" d="M 613 764.5 C 613 760.357864 616.357864 757 620.5 757 C 624.642136 757 628 760.357864 628 764.5 C 628 768.642136 624.642136 772 620.5 772 C 616.357864 772 613 768.642136 613 764.5 Z"/></g><g transform="translate(-30,-150) scale(1,1)"><path fill="#C0C0C0" stroke="none" d="M 791 851.5 C 791 844.59644 796.59644 839 803.5 839 C 810.40356 839 816 844.59644 816 851.5 C 816 858.40356 810.40356 864 803.5 864 C 796.59644 864 791 858.40356 791 851.5 Z" opacity="0.2"/></g><g transform="translate(-30,-150) scale(1,1)"><path fill="none" stroke="#000000" d="M 784 844.5 C 784 837.59644 789.59644 832 796.5 832 C 803.40356 832 809 837.59644 809 844.5 C 809 851.40356 803.40356 857 796.5 857 C 789.59644 857 784 851.40356 784 844.5 Z" stroke-miterlimit="10"/></g><g transform="translate(-30,-150) scale(1,1)"><path fill="#000000" stroke="none" d="M 789 844.5 C 789 840.357864 792.357864 837 796.5 837 C 800.642136 837 804 840.357864 804 844.5 C 804 848.642136 800.642136 852 796.5 852 C 792.357864 852 789 848.642136 789 844.5 Z"/></g><g transform="translate(-30,-150) scale(1,1)"><path fill="none" stroke="#000000" d="M 715 655 L 715 688" stroke-miterlimit="10"/></g><g transform="translate(-30,-150) scale(1,1)"><path fill="none" stroke="#000000" d="M 710.790482243984 677.8373251423759 L 715 688 L 719.209517756016 677.8373251423759" stroke-miterlimit="10"/></g><g transform="translate(-30,-150) scale(1,1)"><path fill="none" stroke="#000000" d="M 802 776 L 802 832" stroke-miterlimit="10"/></g><g transform="translate(-30,-150) scale(1,1)"><path fill="none" stroke="#000000" d="M 797.790482243984 821.8373251423759 L 802 832 L 806.209517756016 821.8373251423759" stroke-miterlimit="10"/></g><g transform="translate(-30,-150) scale(1,1)"><path fill="none" stroke="#000000" d="M 704 696 L 624 696 L 624 752" stroke-miterlimit="10"/></g><g transform="translate(-30,-150) scale(1,1)"><path fill="none" stroke="#000000" d="M 619.790482243984 741.8373251423759 L 624 752 L 628.209517756016 741.8373251423759" stroke-miterlimit="10"/></g><g transform="translate(-30,-150) scale(1,1)"><g><path fill="none" stroke="none"/><text fill="#000000" stroke="none" font-family="Arial" font-size="13px" font-style="normal" font-weight="normal" text-decoration="none" x="631.5" y="692.5">信息不完整</text></g></g><g transform="translate(-30,-150) scale(1,1)"><path fill="none" stroke="#000000" d="M 726 696 L 800 696 L 800 736" stroke-miterlimit="10"/></g><g transform="translate(-30,-150) scale(1,1)"><path fill="none" stroke="#000000" d="M 795.790482243984 725.8373251423759 L 800 736 L 804.209517756016 725.8373251423759" stroke-miterlimit="10"/></g><g transform="translate(-30,-150) scale(1,1)"><g><path fill="none" stroke="none"/><text fill="#000000" stroke="none" font-family="Arial" font-size="13px" font-style="normal" font-weight="normal" text-decoration="none" x="734.5" y="691.5">信息完整</text></g></g></g></svg>