<svg version="1.1" xmlns="http://www.w3.org/2000/svg" xmlns:xlink="http://www.w3.org/1999/xlink" width="388" height="572"><defs/><g><g transform="translate(-198,-446) scale(1,1)"><rect fill="#ffffff" stroke="none" x="208" y="456" width="368" height="21"/></g><g transform="translate(-198,-446) scale(1,1)"><path fill="none" stroke="#000000" d="M 208 456 L 576 456 L 576 477 L 208 477 L 208 456 Z Z" stroke-miterlimit="10" stroke-width="2"/></g><g transform="translate(-198,-446) scale(1,1)"><path fill="none" stroke="#000000" d="M 208 1008 L 208 456 L 576 456 L 576 1008" stroke-miterlimit="10" stroke-width="2"/></g><g transform="translate(-198,-446) scale(1,1)"><g><path fill="none" stroke="none"/><text fill="#000000" stroke="none" font-family="Arial" font-size="13px" font-style="normal" font-weight="normal" text-decoration="none" x="379" y="473">用户</text></g></g><g transform="translate(-198,-446) scale(1,1)"><path fill="#C0C0C0" stroke="none" d="M 367 528.5 C 367 523.2532944 371.2532944 519 376.5 519 C 381.7467056 519 386 523.2532944 386 528.5 C 386 533.7467056 381.7467056 538 376.5 538 C 371.2532944 538 367 533.7467056 367 528.5 Z" opacity="0.2"/></g><g transform="translate(-198,-446) scale(1,1)"><path fill="#000000" stroke="none" d="M 360 521.5 C 360 516.2532944 364.2532944 512 369.5 512 C 374.7467056 512 379 516.2532944 379 521.5 C 379 526.7467056 374.7467056 531 369.5 531 C 364.2532944 531 360 526.7467056 360 521.5 Z"/></g><g transform="translate(-198,-446) scale(1,1)"><path fill="#C0C0C0" stroke="none" d="M 329 575 L 422 575 Q 432 575 432 585 L 432 605 Q 432 615 422 615 L 329 615 Q 319 615 319 605 L 319 585 Q 319 575 329 575 Z" opacity="0.2"/></g><g transform="translate(-198,-446) scale(1,1)"><path fill="#ffffff" stroke="none" d="M 322 568 L 415 568 Q 425 568 425 578 L 425 598 Q 425 608 415 608 L 322 608 Q 312 608 312 598 L 312 578 Q 312 568 322 568 Z"/></g><g transform="translate(-198,-446) scale(1,1)"><path fill="none" stroke="#000000" d="M 322 568 L 415 568 Q 425 568 425 578 L 425 598 Q 425 608 415 608 L 322 608 Q 312 608 312 598 L 312 578 Q 312 568 322 568 Z" stroke-miterlimit="10"/></g><g transform="translate(-198,-446) scale(1,1)"><g><path fill="none" stroke="none"/><text fill="#000000" stroke="none" font-family="Arial" font-size="13px" font-style="normal" font-weight="bold" text-decoration="none" x="316.5" y="587.5">进入查看订单页面</text></g></g><g transform="translate(-198,-446) scale(1,1)"><path fill="#C0C0C0" stroke="none" d="M 329 735 L 429 735 Q 439 735 439 745 L 439 765 Q 439 775 429 775 L 329 775 Q 319 775 319 765 L 319 745 Q 319 735 329 735 Z" opacity="0.2"/></g><g transform="translate(-198,-446) scale(1,1)"><path fill="#ffffff" stroke="none" d="M 322 728 L 422 728 Q 432 728 432 738 L 432 758 Q 432 768 422 768 L 322 768 Q 312 768 312 758 L 312 738 Q 312 728 322 728 Z"/></g><g transform="translate(-198,-446) scale(1,1)"><path fill="none" stroke="#000000" d="M 322 728 L 422 728 Q 432 728 432 738 L 432 758 Q 432 768 422 768 L 322 768 Q 312 768 312 758 L 312 738 Q 312 728 322 728 Z" stroke-miterlimit="10"/></g><g transform="translate(-198,-446) scale(1,1)"><g><path fill="none" stroke="none"/><text fill="#000000" stroke="none" font-family="Arial" font-size="13px" font-style="normal" font-weight="bold" text-decoration="none" x="333" y="747.5">点击某一订单</text></g></g><g transform="translate(-198,-446) scale(1,1)"><path fill="none" stroke="#000000" d="M 369 531 L 369 568" stroke-miterlimit="10"/></g><g transform="translate(-198,-446) scale(1,1)"><path fill="none" stroke="#000000" d="M 364.790482243984 557.8373251423759 L 369 568 L 373.209517756016 557.8373251423759" stroke-miterlimit="10"/></g><g transform="translate(-198,-446) scale(1,1)"><path fill="#C0C0C0" stroke="none" d="M 375 947.5 C 375 940.59644 380.59644 935 387.5 935 C 394.40356 935 400 940.59644 400 947.5 C 400 954.40356 394.40356 960 387.5 960 C 380.59644 960 375 954.40356 375 947.5 Z" opacity="0.2"/></g><g transform="translate(-198,-446) scale(1,1)"><path fill="none" stroke="#000000" d="M 368 940.5 C 368 933.59644 373.59644 928 380.5 928 C 387.40356 928 393 933.59644 393 940.5 C 393 947.40356 387.40356 953 380.5 953 C 373.59644 953 368 947.40356 368 940.5 Z" stroke-miterlimit="10"/></g><g transform="translate(-198,-446) scale(1,1)"><path fill="#000000" stroke="none" d="M 373 940.5 C 373 936.357864 376.357864 933 380.5 933 C 384.642136 933 388 936.357864 388 940.5 C 388 944.642136 384.642136 948 380.5 948 C 376.357864 948 373 944.642136 373 940.5 Z"/></g><g transform="translate(-198,-446) scale(1,1)"><path fill="#C0C0C0" stroke="none" d="M 321 839 L 436 839 Q 446 839 446 849 L 446 869 Q 446 879 436 879 L 321 879 Q 311 879 311 869 L 311 849 Q 311 839 321 839 Z" opacity="0.2"/></g><g transform="translate(-198,-446) scale(1,1)"><path fill="#ffffff" stroke="none" d="M 314 832 L 429 832 Q 439 832 439 842 L 439 862 Q 439 872 429 872 L 314 872 Q 304 872 304 862 L 304 842 Q 304 832 314 832 Z"/></g><g transform="translate(-198,-446) scale(1,1)"><path fill="none" stroke="#000000" d="M 314 832 L 429 832 Q 439 832 439 842 L 439 862 Q 439 872 429 872 L 314 872 Q 304 872 304 862 L 304 842 Q 304 832 314 832 Z" stroke-miterlimit="10"/></g><g transform="translate(-198,-446) scale(1,1)"><g><path fill="none" stroke="none"/><text fill="#000000" stroke="none" font-family="Arial" font-size="13px" font-style="normal" font-weight="bold" text-decoration="none" x="332.5" y="851.5">查看订单详情</text></g></g><g transform="translate(-198,-446) scale(1,1)"><path fill="none" stroke="#000000" d="M 376 872 L 376 928" stroke-miterlimit="10"/></g><g transform="translate(-198,-446) scale(1,1)"><path fill="none" stroke="#000000" d="M 371.790482243984 917.8373251423759 L 376 928 L 380.209517756016 917.8373251423759" stroke-miterlimit="10"/></g><g transform="translate(-198,-446) scale(1,1)"><path fill="#C0C0C0" stroke="none" d="M 367 664.5 L 378.5 655 L 389 664.5 L 378.5 673 L 367 664.5" opacity="0.2"/></g><g transform="translate(-198,-446) scale(1,1)"><path fill="#ffffff" stroke="none" d="M 360 657 L 371 648 L 382 657 L 371 666 L 360 657"/></g><g transform="translate(-198,-446) scale(1,1)"><path fill="none" stroke="#000000" d="M 360 657 L 371 648 L 382 657 L 371 666 L 360 657 L 360 657" stroke-miterlimit="10"/></g><g transform="translate(-198,-446) scale(1,1)"><path fill="#C0C0C0" stroke="none" d="M 503 667.5 C 503 660.59644 508.59644 655 515.5 655 C 522.40356 655 528 660.59644 528 667.5 C 528 674.40356 522.40356 680 515.5 680 C 508.59644 680 503 674.40356 503 667.5 Z" opacity="0.2"/></g><g transform="translate(-198,-446) scale(1,1)"><path fill="none" stroke="#000000" d="M 496 660.5 C 496 653.59644 501.59644 648 508.5 648 C 515.40356 648 521 653.59644 521 660.5 C 521 667.40356 515.40356 673 508.5 673 C 501.59644 673 496 667.40356 496 660.5 Z" stroke-miterlimit="10"/></g><g transform="translate(-198,-446) scale(1,1)"><path fill="#000000" stroke="none" d="M 501 660.5 C 501 656.357864 504.357864 653 508.5 653 C 512.642136 653 516 656.357864 516 660.5 C 516 664.642136 512.642136 668 508.5 668 C 504.357864 668 501 664.642136 501 660.5 Z"/></g><g transform="translate(-198,-446) scale(1,1)"><path fill="none" stroke="#000000" d="M 369 608 L 369 648" stroke-miterlimit="10"/></g><g transform="translate(-198,-446) scale(1,1)"><path fill="none" stroke="#000000" d="M 364.790482243984 637.8373251423759 L 369 648 L 373.209517756016 637.8373251423759" stroke-miterlimit="10"/></g><g transform="translate(-198,-446) scale(1,1)"><path fill="none" stroke="#000000" d="M 382 660 L 496 660" stroke-miterlimit="10"/></g><g transform="translate(-198,-446) scale(1,1)"><path fill="none" stroke="#000000" d="M 485.83732514237585 664.209517756016 L 496 660 L 485.83732514237585 655.790482243984" stroke-miterlimit="10"/></g><g transform="translate(-198,-446) scale(1,1)"><g><path fill="none" stroke="none"/><text fill="#000000" stroke="none" font-family="Arial" font-size="13px" font-style="normal" font-weight="normal" text-decoration="none" x="399.5" y="651.5">用户没有订单</text></g></g><g transform="translate(-198,-446) scale(1,1)"><path fill="none" stroke="#000000" d="M 371 666 L 371 728" stroke-miterlimit="10"/></g><g transform="translate(-198,-446) scale(1,1)"><path fill="none" stroke="#000000" d="M 366.790482243984 717.8373251423759 L 371 728 L 375.209517756016 717.8373251423759" stroke-miterlimit="10"/></g><g transform="translate(-198,-446) scale(1,1)"><g><path fill="none" stroke="none"/><text fill="#000000" stroke="none" font-family="Arial" font-size="13px" font-style="normal" font-weight="normal" text-decoration="none" x="278.5" y="683.5">用户拥有订单</text></g></g><g transform="translate(-198,-446) scale(1,1)"><path fill="none" stroke="#000000" d="M 372 768 L 372 832" stroke-miterlimit="10"/></g><g transform="translate(-198,-446) scale(1,1)"><path fill="none" stroke="#000000" d="M 367.790482243984 821.8373251423759 L 372 832 L 376.209517756016 821.8373251423759" stroke-miterlimit="10"/></g></g></svg>