<svg version="1.1" xmlns="http://www.w3.org/2000/svg" xmlns:xlink="http://www.w3.org/1999/xlink" width="492" height="676"><defs/><g><g transform="translate(-118,-118) scale(1,1)"><rect fill="#ffffff" stroke="none" x="128" y="128" width="232" height="21"/></g><g transform="translate(-118,-118) scale(1,1)"><path fill="none" stroke="#000000" d="M 128 128 L 360 128 L 360 149 L 128 149 L 128 128 Z Z" stroke-miterlimit="10" stroke-width="2"/></g><g transform="translate(-118,-118) scale(1,1)"><path fill="none" stroke="#000000" d="M 128 784 L 128 128 L 360 128 L 360 784" stroke-miterlimit="10" stroke-width="2"/></g><g transform="translate(-118,-118) scale(1,1)"><g><path fill="none" stroke="none"/><text fill="#000000" stroke="none" font-family="Arial" font-size="13px" font-style="normal" font-weight="normal" text-decoration="none" x="231" y="145">用户</text></g></g><g transform="translate(-118,-118) scale(1,1)"><rect fill="#ffffff" stroke="none" x="360" y="128" width="240" height="21"/></g><g transform="translate(-118,-118) scale(1,1)"><path fill="none" stroke="#000000" d="M 360 128 L 600 128 L 600 149 L 360 149 L 360 128 Z Z" stroke-miterlimit="10" stroke-width="2"/></g><g transform="translate(-118,-118) scale(1,1)"><path fill="none" stroke="#000000" d="M 360 784 L 360 128 L 600 128 L 600 784" stroke-miterlimit="10" stroke-width="2"/></g><g transform="translate(-118,-118) scale(1,1)"><g><path fill="none" stroke="none"/><text fill="#000000" stroke="none" font-family="Arial" font-size="13px" font-style="normal" font-weight="normal" text-decoration="none" x="467" y="145">系统</text></g></g><g transform="translate(-118,-118) scale(1,1)"><path fill="#C0C0C0" stroke="none" d="M 153 327 L 194 327 Q 204 327 204 337 L 204 357 Q 204 367 194 367 L 153 367 Q 143 367 143 357 L 143 337 Q 143 327 153 327 Z" opacity="0.2"/></g><g transform="translate(-118,-118) scale(1,1)"><path fill="#ffffff" stroke="none" d="M 146 320 L 187 320 Q 197 320 197 330 L 197 350 Q 197 360 187 360 L 146 360 Q 136 360 136 350 L 136 330 Q 136 320 146 320 Z"/></g><g transform="translate(-118,-118) scale(1,1)"><path fill="none" stroke="#000000" d="M 146 320 L 187 320 Q 197 320 197 330 L 197 350 Q 197 360 187 360 L 146 360 Q 136 360 136 350 L 136 330 Q 136 320 146 320 Z" stroke-miterlimit="10"/></g><g transform="translate(-118,-118) scale(1,1)"><g><path fill="none" stroke="none"/><text fill="#000000" stroke="none" font-family="Arial" font-size="13px" font-style="normal" font-weight="bold" text-decoration="none" x="140.5" y="339.5">编辑内容</text></g></g><g transform="translate(-118,-118) scale(1,1)"><path fill="#C0C0C0" stroke="none" d="M 247 176.5 C 247 171.2532944 251.2532944 167 256.5 167 C 261.7467056 167 266 171.2532944 266 176.5 C 266 181.7467056 261.7467056 186 256.5 186 C 251.2532944 186 247 181.7467056 247 176.5 Z" opacity="0.2"/></g><g transform="translate(-118,-118) scale(1,1)"><path fill="#000000" stroke="none" d="M 240 169.5 C 240 164.2532944 244.2532944 160 249.5 160 C 254.7467056 160 259 164.2532944 259 169.5 C 259 174.7467056 254.7467056 179 249.5 179 C 244.2532944 179 240 174.7467056 240 169.5 Z"/></g><g transform="translate(-118,-118) scale(1,1)"><path fill="#C0C0C0" stroke="none" d="M 226 271 L 289 271 Q 292 271 292 274 L 292 273 Q 292 276 289 276 L 226 276 Q 223 276 223 273 L 223 274 Q 223 271 226 271 Z" opacity="0.2"/></g><g transform="translate(-118,-118) scale(1,1)"><path fill="#000000" stroke="none" d="M 219 264 L 282 264 Q 285 264 285 267 L 285 267 Q 285 270 282 270 L 219 270 Q 216 270 216 267 L 216 267 Q 216 264 219 264 Z"/></g><g transform="translate(-118,-118) scale(1,1)"><path fill="#C0C0C0" stroke="none" d="M 417 559 L 510 559 Q 520 559 520 569 L 520 589 Q 520 599 510 599 L 417 599 Q 407 599 407 589 L 407 569 Q 407 559 417 559 Z" opacity="0.2"/></g><g transform="translate(-118,-118) scale(1,1)"><path fill="#ffffff" stroke="none" d="M 410 552 L 503 552 Q 513 552 513 562 L 513 582 Q 513 592 503 592 L 410 592 Q 400 592 400 582 L 400 562 Q 400 552 410 552 Z"/></g><g transform="translate(-118,-118) scale(1,1)"><path fill="none" stroke="#000000" d="M 410 552 L 503 552 Q 513 552 513 562 L 513 582 Q 513 592 503 592 L 410 592 Q 400 592 400 582 L 400 562 Q 400 552 410 552 Z" stroke-miterlimit="10"/></g><g transform="translate(-118,-118) scale(1,1)"><g><path fill="none" stroke="none"/><text fill="#000000" stroke="none" font-family="Arial" font-size="13px" font-style="normal" font-weight="bold" text-decoration="none" x="404.5" y="571.5">判断是否可以发布</text></g></g><g transform="translate(-118,-118) scale(1,1)"><path fill="#C0C0C0" stroke="none" d="M 447 640.5 L 458.5 631 L 469 640.5 L 458.5 649 L 447 640.5" opacity="0.2"/></g><g transform="translate(-118,-118) scale(1,1)"><path fill="#ffffff" stroke="none" d="M 440 633 L 451 624 L 462 633 L 451 642 L 440 633"/></g><g transform="translate(-118,-118) scale(1,1)"><path fill="none" stroke="#000000" d="M 440 633 L 451 624 L 462 633 L 451 642 L 440 633 L 440 633" stroke-miterlimit="10"/></g><g transform="translate(-118,-118) scale(1,1)"><path fill="#C0C0C0" stroke="none" d="M 217 679 L 284 679 Q 294 679 294 689 L 294 709 Q 294 719 284 719 L 217 719 Q 207 719 207 709 L 207 689 Q 207 679 217 679 Z" opacity="0.2"/></g><g transform="translate(-118,-118) scale(1,1)"><path fill="#ffffff" stroke="none" d="M 210 672 L 277 672 Q 287 672 287 682 L 287 702 Q 287 712 277 712 L 210 712 Q 200 712 200 702 L 200 682 Q 200 672 210 672 Z"/></g><g transform="translate(-118,-118) scale(1,1)"><path fill="none" stroke="#000000" d="M 210 672 L 277 672 Q 287 672 287 682 L 287 702 Q 287 712 277 712 L 210 712 Q 200 712 200 702 L 200 682 Q 200 672 210 672 Z" stroke-miterlimit="10"/></g><g transform="translate(-118,-118) scale(1,1)"><g><path fill="none" stroke="none"/><text fill="#000000" stroke="none" font-family="Arial" font-size="13px" font-style="normal" font-weight="bold" text-decoration="none" x="204.5" y="691.5">点击发布按钮</text></g></g><g transform="translate(-118,-118) scale(1,1)"><path fill="#C0C0C0" stroke="none" d="M 239 763.5 C 239 756.59644 244.59644 751 251.5 751 C 258.40356 751 264 756.59644 264 763.5 C 264 770.40356 258.40356 776 251.5 776 C 244.59644 776 239 770.40356 239 763.5 Z" opacity="0.2"/></g><g transform="translate(-118,-118) scale(1,1)"><path fill="none" stroke="#000000" d="M 232 756.5 C 232 749.59644 237.59644 744 244.5 744 C 251.40356 744 257 749.59644 257 756.5 C 257 763.40356 251.40356 769 244.5 769 C 237.59644 769 232 763.40356 232 756.5 Z" stroke-miterlimit="10"/></g><g transform="translate(-118,-118) scale(1,1)"><path fill="#000000" stroke="none" d="M 237 756.5 C 237 752.357864 240.357864 749 244.5 749 C 248.642136 749 252 752.357864 252 756.5 C 252 760.642136 248.642136 764 244.5 764 C 240.357864 764 237 760.642136 237 756.5 Z"/></g><g transform="translate(-118,-118) scale(1,1)"><path fill="none" stroke="#000000" d="M 249 179 L 249 192" stroke-miterlimit="10"/></g><g transform="translate(-118,-118) scale(1,1)"><path fill="none" stroke="#000000" d="M 244.790482243984 181.83732514237585 L 249 192 L 253.209517756016 181.83732514237585" stroke-miterlimit="10"/></g><g transform="translate(-118,-118) scale(1,1)"><path fill="none" stroke="#000000" d="M 249 232 L 249 264" stroke-miterlimit="10"/></g><g transform="translate(-118,-118) scale(1,1)"><path fill="none" stroke="#000000" d="M 244.790482243984 253.83732514237585 L 249 264 L 253.209517756016 253.83732514237585" stroke-miterlimit="10"/></g><g transform="translate(-118,-118) scale(1,1)"><path fill="none" stroke="#000000" d="M 248 269 L 248 296 L 320 296 L 320 320" stroke-miterlimit="10"/></g><g transform="translate(-118,-118) scale(1,1)"><path fill="none" stroke="#000000" d="M 315.790482243984 309.83732514237585 L 320 320 L 324.209517756016 309.83732514237585" stroke-miterlimit="10"/></g><g transform="translate(-118,-118) scale(1,1)"><path fill="none" stroke="#000000" d="M 242 549 L 242 576 L 400 576" stroke-miterlimit="10"/></g><g transform="translate(-118,-118) scale(1,1)"><path fill="none" stroke="#000000" d="M 389.83732514237585 580.209517756016 L 400 576 L 389.83732514237585 571.790482243984" stroke-miterlimit="10"/></g><g transform="translate(-118,-118) scale(1,1)"><path fill="#C0C0C0" stroke="none" d="M 218 551 L 281 551 Q 284 551 284 554 L 284 553 Q 284 556 281 556 L 218 556 Q 215 556 215 553 L 215 554 Q 215 551 218 551 Z" opacity="0.2"/></g><g transform="translate(-118,-118) scale(1,1)"><path fill="#000000" stroke="none" d="M 211 544 L 274 544 Q 277 544 277 547 L 277 547 Q 277 550 274 550 L 211 550 Q 208 550 208 547 L 208 547 Q 208 544 211 544 Z"/></g><g transform="translate(-118,-118) scale(1,1)"><path fill="#C0C0C0" stroke="none" d="M 313 327 L 354 327 Q 364 327 364 337 L 364 357 Q 364 367 354 367 L 313 367 Q 303 367 303 357 L 303 337 Q 303 327 313 327 Z" opacity="0.2"/></g><g transform="translate(-118,-118) scale(1,1)"><path fill="#ffffff" stroke="none" d="M 306 320 L 347 320 Q 357 320 357 330 L 357 350 Q 357 360 347 360 L 306 360 Q 296 360 296 350 L 296 330 Q 296 320 306 320 Z"/></g><g transform="translate(-118,-118) scale(1,1)"><path fill="none" stroke="#000000" d="M 306 320 L 347 320 Q 357 320 357 330 L 357 350 Q 357 360 347 360 L 306 360 Q 296 360 296 350 L 296 330 Q 296 320 306 320 Z" stroke-miterlimit="10"/></g><g transform="translate(-118,-118) scale(1,1)"><g><path fill="none" stroke="none"/><text fill="#000000" stroke="none" font-family="Arial" font-size="13px" font-style="normal" font-weight="bold" text-decoration="none" x="300.5" y="339.5">添加图片</text></g></g><g transform="translate(-118,-118) scale(1,1)"><path fill="#C0C0C0" stroke="none" d="M 233 327 L 274 327 Q 284 327 284 337 L 284 357 Q 284 367 274 367 L 233 367 Q 223 367 223 357 L 223 337 Q 223 327 233 327 Z" opacity="0.2"/></g><g transform="translate(-118,-118) scale(1,1)"><path fill="#ffffff" stroke="none" d="M 226 320 L 267 320 Q 277 320 277 330 L 277 350 Q 277 360 267 360 L 226 360 Q 216 360 216 350 L 216 330 Q 216 320 226 320 Z"/></g><g transform="translate(-118,-118) scale(1,1)"><path fill="none" stroke="#000000" d="M 226 320 L 267 320 Q 277 320 277 330 L 277 350 Q 277 360 267 360 L 226 360 Q 216 360 216 350 L 216 330 Q 216 320 226 320 Z" stroke-miterlimit="10"/></g><g transform="translate(-118,-118) scale(1,1)"><g><path fill="none" stroke="none"/><text fill="#000000" stroke="none" font-family="Arial" font-size="13px" font-style="normal" font-weight="bold" text-decoration="none" x="220.5" y="339.5">关联演出</text></g></g><g transform="translate(-118,-118) scale(1,1)"><path fill="none" stroke="#000000" d="M 326 360 L 326 370 L 400 370" stroke-miterlimit="10"/></g><g transform="translate(-118,-118) scale(1,1)"><path fill="none" stroke="#000000" d="M 389.83732514237585 374.209517756016 L 400 370 L 389.83732514237585 365.790482243984" stroke-miterlimit="10"/></g><g transform="translate(-118,-118) scale(1,1)"><path fill="none" stroke="#000000" d="M 400 392 L 224 392 L 224 544" stroke-miterlimit="10"/></g><g transform="translate(-118,-118) scale(1,1)"><path fill="none" stroke="#000000" d="M 219.790482243984 533.8373251423759 L 224 544 L 228.209517756016 533.8373251423759" stroke-miterlimit="10"/></g><g transform="translate(-118,-118) scale(1,1)"><path fill="none" stroke="#000000" d="M 280 505 L 245 543" stroke-miterlimit="10"/></g><g transform="translate(-118,-118) scale(1,1)"><path fill="none" stroke="#000000" d="M 248.78867563894815 532.6730480342533 L 245 543 L 254.9812559999838 538.3767404720493" stroke-miterlimit="10"/></g><g transform="translate(-118,-118) scale(1,1)"><path fill="#C0C0C0" stroke="none" d="M 273 471 L 340 471 Q 350 471 350 481 L 350 501 Q 350 511 340 511 L 273 511 Q 263 511 263 501 L 263 481 Q 263 471 273 471 Z" opacity="0.2"/></g><g transform="translate(-118,-118) scale(1,1)"><path fill="#ffffff" stroke="none" d="M 266 464 L 333 464 Q 343 464 343 474 L 343 494 Q 343 504 333 504 L 266 504 Q 256 504 256 494 L 256 474 Q 256 464 266 464 Z"/></g><g transform="translate(-118,-118) scale(1,1)"><path fill="none" stroke="#000000" d="M 266 464 L 333 464 Q 343 464 343 474 L 343 494 Q 343 504 333 504 L 266 504 Q 256 504 256 494 L 256 474 Q 256 464 266 464 Z" stroke-miterlimit="10"/></g><g transform="translate(-118,-118) scale(1,1)"><g><path fill="none" stroke="none"/><text fill="#000000" stroke="none" font-family="Arial" font-size="13px" font-style="normal" font-weight="bold" text-decoration="none" x="260.5" y="483.5">搜索选择演出</text></g></g><g transform="translate(-118,-118) scale(1,1)"><path fill="none" stroke="#000000" d="M 246 360 L 246 424 L 424 424 L 424 464" stroke-miterlimit="10"/></g><g transform="translate(-118,-118) scale(1,1)"><path fill="none" stroke="#000000" d="M 419.790482243984 453.83732514237585 L 424 464 L 428.209517756016 453.83732514237585" stroke-miterlimit="10"/></g><g transform="translate(-118,-118) scale(1,1)"><path fill="none" stroke="#000000" d="M 423 484 L 344 484" stroke-miterlimit="10"/></g><g transform="translate(-118,-118) scale(1,1)"><path fill="none" stroke="#000000" d="M 354.16267485762415 479.790482243984 L 344 484 L 354.16267485762415 488.209517756016" stroke-miterlimit="10"/></g><g transform="translate(-118,-118) scale(1,1)"><path fill="none" stroke="#000000" d="M 454 592 L 454 624" stroke-miterlimit="10"/></g><g transform="translate(-118,-118) scale(1,1)"><path fill="none" stroke="#000000" d="M 449.790482243984 613.8373251423759 L 454 624 L 458.209517756016 613.8373251423759" stroke-miterlimit="10"/></g><g transform="translate(-118,-118) scale(1,1)"><path fill="none" stroke="#000000" d="M 440 632 L 240 632 L 240 672" stroke-miterlimit="10"/></g><g transform="translate(-118,-118) scale(1,1)"><path fill="none" stroke="#000000" d="M 235.790482243984 661.8373251423759 L 240 672 L 244.209517756016 661.8373251423759" stroke-miterlimit="10"/></g><g transform="translate(-118,-118) scale(1,1)"><g><path fill="none" stroke="none"/><text fill="#000000" stroke="none" font-family="Arial" font-size="13px" font-style="normal" font-weight="normal" text-decoration="none" x="327.5" y="628.5">可以发布</text></g></g><g transform="translate(-118,-118) scale(1,1)"><path fill="none" stroke="#000000" d="M 462 633 L 568 633 L 568 288 L 272 288 L 272 269" stroke-miterlimit="10"/></g><g transform="translate(-118,-118) scale(1,1)"><path fill="none" stroke="#000000" d="M 276.209517756016 279.16267485762415 L 272 269 L 267.790482243984 279.16267485762415" stroke-miterlimit="10"/></g><g transform="translate(-118,-118) scale(1,1)"><g><path fill="none" stroke="none"/><text fill="#000000" stroke="none" font-family="Arial" font-size="13px" font-style="normal" font-weight="normal" text-decoration="none" x="462.5" y="652.5">不满足可发布条件</text></g></g><g transform="translate(-118,-118) scale(1,1)"><path fill="none" stroke="#000000" d="M 248 269 L 248 320" stroke-miterlimit="10"/></g><g transform="translate(-118,-118) scale(1,1)"><path fill="none" stroke="#000000" d="M 243.790482243984 309.83732514237585 L 248 320 L 252.209517756016 309.83732514237585" stroke-miterlimit="10"/></g><g transform="translate(-118,-118) scale(1,1)"><path fill="#C0C0C0" stroke="none" d="M 417 375 L 484 375 Q 494 375 494 385 L 494 405 Q 494 415 484 415 L 417 415 Q 407 415 407 405 L 407 385 Q 407 375 417 375 Z" opacity="0.2"/></g><g transform="translate(-118,-118) scale(1,1)"><path fill="#ffffff" stroke="none" d="M 410 368 L 477 368 Q 487 368 487 378 L 487 398 Q 487 408 477 408 L 410 408 Q 400 408 400 398 L 400 378 Q 400 368 410 368 Z"/></g><g transform="translate(-118,-118) scale(1,1)"><path fill="none" stroke="#000000" d="M 410 368 L 477 368 Q 487 368 487 378 L 487 398 Q 487 408 477 408 L 410 408 Q 400 408 400 398 L 400 378 Q 400 368 410 368 Z" stroke-miterlimit="10"/></g><g transform="translate(-118,-118) scale(1,1)"><g><path fill="none" stroke="none"/><text fill="#000000" stroke="none" font-family="Arial" font-size="13px" font-style="normal" font-weight="bold" text-decoration="none" x="404.5" y="387.5">读取用户相册</text></g></g><g transform="translate(-118,-118) scale(1,1)"><path fill="#C0C0C0" stroke="none" d="M 209 199 L 302 199 Q 312 199 312 209 L 312 229 Q 312 239 302 239 L 209 239 Q 199 239 199 229 L 199 209 Q 199 199 209 199 Z" opacity="0.2"/></g><g transform="translate(-118,-118) scale(1,1)"><path fill="#ffffff" stroke="none" d="M 202 192 L 295 192 Q 305 192 305 202 L 305 222 Q 305 232 295 232 L 202 232 Q 192 232 192 222 L 192 202 Q 192 192 202 192 Z"/></g><g transform="translate(-118,-118) scale(1,1)"><path fill="none" stroke="#000000" d="M 202 192 L 295 192 Q 305 192 305 202 L 305 222 Q 305 232 295 232 L 202 232 Q 192 232 192 222 L 192 202 Q 192 192 202 192 Z" stroke-miterlimit="10"/></g><g transform="translate(-118,-118) scale(1,1)"><g><path fill="none" stroke="none"/><text fill="#000000" stroke="none" font-family="Arial" font-size="13px" font-style="normal" font-weight="bold" text-decoration="none" x="196.5" y="211.5">点击新增现场按钮</text></g></g><g transform="translate(-118,-118) scale(1,1)"><path fill="#C0C0C0" stroke="none" d="M 441 471 L 508 471 Q 518 471 518 481 L 518 501 Q 518 511 508 511 L 441 511 Q 431 511 431 501 L 431 481 Q 431 471 441 471 Z" opacity="0.2"/></g><g transform="translate(-118,-118) scale(1,1)"><path fill="#ffffff" stroke="none" d="M 434 464 L 501 464 Q 511 464 511 474 L 511 494 Q 511 504 501 504 L 434 504 Q 424 504 424 494 L 424 474 Q 424 464 434 464 Z"/></g><g transform="translate(-118,-118) scale(1,1)"><path fill="none" stroke="#000000" d="M 434 464 L 501 464 Q 511 464 511 474 L 511 494 Q 511 504 501 504 L 434 504 Q 424 504 424 494 L 424 474 Q 424 464 434 464 Z" stroke-miterlimit="10"/></g><g transform="translate(-118,-118) scale(1,1)"><g><path fill="none" stroke="none"/><text fill="#000000" stroke="none" font-family="Arial" font-size="13px" font-style="normal" font-weight="bold" text-decoration="none" x="428.5" y="483.5">调取演出数据</text></g></g><g transform="translate(-118,-118) scale(1,1)"><path fill="none" stroke="#000000" d="M 248 269 L 248 296 L 160 296 L 160 320" stroke-miterlimit="10"/></g><g transform="translate(-118,-118) scale(1,1)"><path fill="none" stroke="#000000" d="M 155.790482243984 309.83732514237585 L 160 320 L 164.209517756016 309.83732514237585" stroke-miterlimit="10"/></g><g transform="translate(-118,-118) scale(1,1)"><path fill="none" stroke="#000000" d="M 243 712 L 243 744" stroke-miterlimit="10"/></g><g transform="translate(-118,-118) scale(1,1)"><path fill="none" stroke="#000000" d="M 238.790482243984 733.8373251423759 L 243 744 L 247.209517756016 733.8373251423759" stroke-miterlimit="10"/></g></g></svg>