<svg version="1.1" xmlns="http://www.w3.org/2000/svg" xmlns:xlink="http://www.w3.org/1999/xlink" width="636" height="764"><defs/><g><g transform="translate(-254,-38) scale(1,1)"><rect fill="#ffffff" stroke="none" x="264" y="48" width="616" height="21"/></g><g transform="translate(-254,-38) scale(1,1)"><path fill="none" stroke="#000000" d="M 264 48 L 880 48 L 880 69 L 264 69 L 264 48 Z Z" stroke-miterlimit="10" stroke-width="2"/></g><g transform="translate(-254,-38) scale(1,1)"><path fill="none" stroke="#000000" d="M 264 792 L 264 48 L 880 48 L 880 792" stroke-miterlimit="10" stroke-width="2"/></g><g transform="translate(-254,-38) scale(1,1)"><g><path fill="none" stroke="none"/><text fill="#000000" stroke="none" font-family="Arial" font-size="13px" font-style="normal" font-weight="normal" text-decoration="none" x="552.5" y="65">管理员</text></g></g><g transform="translate(-254,-38) scale(1,1)"><path fill="#C0C0C0" stroke="none" d="M 599 152.5 C 599 147.2532944 603.2532944 143 608.5 143 C 613.7467056 143 618 147.2532944 618 152.5 C 618 157.7467056 613.7467056 162 608.5 162 C 603.2532944 162 599 157.7467056 599 152.5 Z" opacity="0.2"/></g><g transform="translate(-254,-38) scale(1,1)"><path fill="#000000" stroke="none" d="M 592 145.5 C 592 140.2532944 596.2532944 136 601.5 136 C 606.7467056 136 611 140.2532944 611 145.5 C 611 150.7467056 606.7467056 155 601.5 155 C 596.2532944 155 592 150.7467056 592 145.5 Z"/></g><g transform="translate(-254,-38) scale(1,1)"><path fill="#C0C0C0" stroke="none" d="M 402 271 L 812 271 Q 815 271 815 274 L 815 273 Q 815 276 812 276 L 402 276 Q 399 276 399 273 L 399 274 Q 399 271 402 271 Z" opacity="0.2"/></g><g transform="translate(-254,-38) scale(1,1)"><path fill="#000000" stroke="none" d="M 395 264 L 805 264 Q 808 264 808 267 L 808 267 Q 808 270 805 270 L 395 270 Q 392 270 392 267 L 392 267 Q 392 264 395 264 Z"/></g><g transform="translate(-254,-38) scale(1,1)"><path fill="#C0C0C0" stroke="none" d="M 409 327 L 450 327 Q 460 327 460 337 L 460 357 Q 460 367 450 367 L 409 367 Q 399 367 399 357 L 399 337 Q 399 327 409 327 Z" opacity="0.2"/></g><g transform="translate(-254,-38) scale(1,1)"><path fill="#ffffff" stroke="none" d="M 402 320 L 443 320 Q 453 320 453 330 L 453 350 Q 453 360 443 360 L 402 360 Q 392 360 392 350 L 392 330 Q 392 320 402 320 Z"/></g><g transform="translate(-254,-38) scale(1,1)"><path fill="none" stroke="#000000" d="M 402 320 L 443 320 Q 453 320 453 330 L 453 350 Q 453 360 443 360 L 402 360 Q 392 360 392 350 L 392 330 Q 392 320 402 320 Z" stroke-miterlimit="10"/></g><g transform="translate(-254,-38) scale(1,1)"><g><path fill="none" stroke="none"/><text fill="#000000" stroke="none" font-family="Arial" font-size="13px" font-style="normal" font-weight="bold" text-decoration="none" x="396.5" y="339.5">填写剧院</text></g></g><g transform="translate(-254,-38) scale(1,1)"><path fill="#C0C0C0" stroke="none" d="M 489 327 L 556 327 Q 566 327 566 337 L 566 357 Q 566 367 556 367 L 489 367 Q 479 367 479 357 L 479 337 Q 479 327 489 327 Z" opacity="0.2"/></g><g transform="translate(-254,-38) scale(1,1)"><path fill="#ffffff" stroke="none" d="M 482 320 L 549 320 Q 559 320 559 330 L 559 350 Q 559 360 549 360 L 482 360 Q 472 360 472 350 L 472 330 Q 472 320 482 320 Z"/></g><g transform="translate(-254,-38) scale(1,1)"><path fill="none" stroke="#000000" d="M 482 320 L 549 320 Q 559 320 559 330 L 559 350 Q 559 360 549 360 L 482 360 Q 472 360 472 350 L 472 330 Q 472 320 482 320 Z" stroke-miterlimit="10"/></g><g transform="translate(-254,-38) scale(1,1)"><g><path fill="none" stroke="none"/><text fill="#000000" stroke="none" font-family="Arial" font-size="13px" font-style="normal" font-weight="bold" text-decoration="none" x="476.5" y="339.5">填写演出时间</text></g></g><g transform="translate(-254,-38) scale(1,1)"><path fill="#C0C0C0" stroke="none" d="M 601 327 L 668 327 Q 678 327 678 337 L 678 357 Q 678 367 668 367 L 601 367 Q 591 367 591 357 L 591 337 Q 591 327 601 327 Z" opacity="0.2"/></g><g transform="translate(-254,-38) scale(1,1)"><path fill="#ffffff" stroke="none" d="M 594 320 L 661 320 Q 671 320 671 330 L 671 350 Q 671 360 661 360 L 594 360 Q 584 360 584 350 L 584 330 Q 584 320 594 320 Z"/></g><g transform="translate(-254,-38) scale(1,1)"><path fill="none" stroke="#000000" d="M 594 320 L 661 320 Q 671 320 671 330 L 671 350 Q 671 360 661 360 L 594 360 Q 584 360 584 350 L 584 330 Q 584 320 594 320 Z" stroke-miterlimit="10"/></g><g transform="translate(-254,-38) scale(1,1)"><g><path fill="none" stroke="none"/><text fill="#000000" stroke="none" font-family="Arial" font-size="13px" font-style="normal" font-weight="bold" text-decoration="none" x="588.5" y="339.5">填写演员列表</text></g></g><g transform="translate(-254,-38) scale(1,1)"><path fill="#C0C0C0" stroke="none" d="M 713 327 L 806 327 Q 816 327 816 337 L 816 357 Q 816 367 806 367 L 713 367 Q 703 367 703 357 L 703 337 Q 703 327 713 327 Z" opacity="0.2"/></g><g transform="translate(-254,-38) scale(1,1)"><path fill="#ffffff" stroke="none" d="M 706 320 L 799 320 Q 809 320 809 330 L 809 350 Q 809 360 799 360 L 706 360 Q 696 360 696 350 L 696 330 Q 696 320 706 320 Z"/></g><g transform="translate(-254,-38) scale(1,1)"><path fill="none" stroke="#000000" d="M 706 320 L 799 320 Q 809 320 809 330 L 809 350 Q 809 360 799 360 L 706 360 Q 696 360 696 350 L 696 330 Q 696 320 706 320 Z" stroke-miterlimit="10"/></g><g transform="translate(-254,-38) scale(1,1)"><g><path fill="none" stroke="none"/><text fill="#000000" stroke="none" font-family="Arial" font-size="13px" font-style="normal" font-weight="bold" text-decoration="none" x="700.5" y="339.5">填写剧照以及介绍</text></g></g><g transform="translate(-254,-38) scale(1,1)"><path fill="#C0C0C0" stroke="none" d="M 402 415 L 811 415 Q 814 415 814 418 L 814 417 Q 814 420 811 420 L 402 420 Q 399 420 399 417 L 399 418 Q 399 415 402 415 Z" opacity="0.2"/></g><g transform="translate(-254,-38) scale(1,1)"><path fill="#000000" stroke="none" d="M 395 408 L 804 408 Q 807 408 807 411 L 807 411 Q 807 414 804 414 L 395 414 Q 392 414 392 411 L 392 411 Q 392 408 395 408 Z"/></g><g transform="translate(-254,-38) scale(1,1)"><path fill="#C0C0C0" stroke="none" d="M 599 480.5 L 610.5 471 L 621 480.5 L 610.5 489 L 599 480.5" opacity="0.2"/></g><g transform="translate(-254,-38) scale(1,1)"><path fill="#ffffff" stroke="none" d="M 592 473 L 603 464 L 614 473 L 603 482 L 592 473"/></g><g transform="translate(-254,-38) scale(1,1)"><path fill="none" stroke="#000000" d="M 592 473 L 603 464 L 614 473 L 603 482 L 592 473 L 592 473" stroke-miterlimit="10"/></g><g transform="translate(-254,-38) scale(1,1)"><path fill="#C0C0C0" stroke="none" d="M 593 663 L 699 663 Q 709 663 709 673 L 709 693 Q 709 703 699 703 L 593 703 Q 583 703 583 693 L 583 673 Q 583 663 593 663 Z" opacity="0.2"/></g><g transform="translate(-254,-38) scale(1,1)"><path fill="#ffffff" stroke="none" d="M 586 656 L 692 656 Q 702 656 702 666 L 702 686 Q 702 696 692 696 L 586 696 Q 576 696 576 686 L 576 666 Q 576 656 586 656 Z"/></g><g transform="translate(-254,-38) scale(1,1)"><path fill="none" stroke="#000000" d="M 586 656 L 692 656 Q 702 656 702 666 L 702 686 Q 702 696 692 696 L 586 696 Q 576 696 576 686 L 576 666 Q 576 656 586 656 Z" stroke-miterlimit="10"/></g><g transform="translate(-254,-38) scale(1,1)"><g><path fill="none" stroke="none"/><text fill="#000000" stroke="none" font-family="Arial" font-size="13px" font-style="normal" font-weight="bold" text-decoration="none" x="580.5" y="675.5">提示管理员补全信息</text></g></g><g transform="translate(-254,-38) scale(1,1)"><path fill="#C0C0C0" stroke="none" d="M 761 662 L 836 662 Q 846 662 846 672 L 846 692 Q 846 702 836 702 L 761 702 Q 751 702 751 692 L 751 672 Q 751 662 761 662 Z" opacity="0.2"/></g><g transform="translate(-254,-38) scale(1,1)"><path fill="#ffffff" stroke="none" d="M 754 655 L 829 655 Q 839 655 839 665 L 839 685 Q 839 695 829 695 L 754 695 Q 744 695 744 685 L 744 665 Q 744 655 754 655 Z"/></g><g transform="translate(-254,-38) scale(1,1)"><path fill="none" stroke="#000000" d="M 754 655 L 829 655 Q 839 655 839 665 L 839 685 Q 839 695 829 695 L 754 695 Q 744 695 744 685 L 744 665 Q 744 655 754 655 Z" stroke-miterlimit="10"/></g><g transform="translate(-254,-38) scale(1,1)"><g><path fill="none" stroke="none"/><text fill="#000000" stroke="none" font-family="Arial" font-size="13px" font-style="normal" font-weight="bold" text-decoration="none" x="765.5" y="674.5">发布演出</text></g></g><g transform="translate(-254,-38) scale(1,1)"><path fill="#C0C0C0" stroke="none" d="M 791 755.5 C 791 748.59644 796.59644 743 803.5 743 C 810.40356 743 816 748.59644 816 755.5 C 816 762.40356 810.40356 768 803.5 768 C 796.59644 768 791 762.40356 791 755.5 Z" opacity="0.2"/></g><g transform="translate(-254,-38) scale(1,1)"><path fill="none" stroke="#000000" d="M 784 748.5 C 784 741.59644 789.59644 736 796.5 736 C 803.40356 736 809 741.59644 809 748.5 C 809 755.40356 803.40356 761 796.5 761 C 789.59644 761 784 755.40356 784 748.5 Z" stroke-miterlimit="10"/></g><g transform="translate(-254,-38) scale(1,1)"><path fill="#000000" stroke="none" d="M 789 748.5 C 789 744.357864 792.357864 741 796.5 741 C 800.642136 741 804 744.357864 804 748.5 C 804 752.642136 800.642136 756 796.5 756 C 792.357864 756 789 752.642136 789 748.5 Z"/></g><g transform="translate(-254,-38) scale(1,1)"><path fill="none" stroke="#000000" d="M 600 155 L 600 184" stroke-miterlimit="10"/></g><g transform="translate(-254,-38) scale(1,1)"><path fill="none" stroke="#000000" d="M 595.790482243984 173.83732514237585 L 600 184 L 604.209517756016 173.83732514237585" stroke-miterlimit="10"/></g><g transform="translate(-254,-38) scale(1,1)"><path fill="none" stroke="#000000" d="M 424 269 L 424 320" stroke-miterlimit="10"/></g><g transform="translate(-254,-38) scale(1,1)"><path fill="none" stroke="#000000" d="M 419.790482243984 309.83732514237585 L 424 320 L 428.209517756016 309.83732514237585" stroke-miterlimit="10"/></g><g transform="translate(-254,-38) scale(1,1)"><path fill="none" stroke="#000000" d="M 520 269 L 520 320" stroke-miterlimit="10"/></g><g transform="translate(-254,-38) scale(1,1)"><path fill="none" stroke="#000000" d="M 515.790482243984 309.83732514237585 L 520 320 L 524.209517756016 309.83732514237585" stroke-miterlimit="10"/></g><g transform="translate(-254,-38) scale(1,1)"><path fill="none" stroke="#000000" d="M 632 269 L 632 320" stroke-miterlimit="10"/></g><g transform="translate(-254,-38) scale(1,1)"><path fill="none" stroke="#000000" d="M 627.790482243984 309.83732514237585 L 632 320 L 636.209517756016 309.83732514237585" stroke-miterlimit="10"/></g><g transform="translate(-254,-38) scale(1,1)"><path fill="none" stroke="#000000" d="M 760 269 L 760 320" stroke-miterlimit="10"/></g><g transform="translate(-254,-38) scale(1,1)"><path fill="none" stroke="#000000" d="M 755.790482243984 309.83732514237585 L 760 320 L 764.209517756016 309.83732514237585" stroke-miterlimit="10"/></g><g transform="translate(-254,-38) scale(1,1)"><path fill="none" stroke="#000000" d="M 422 360 L 422 408" stroke-miterlimit="10"/></g><g transform="translate(-254,-38) scale(1,1)"><path fill="none" stroke="#000000" d="M 417.790482243984 397.83732514237585 L 422 408 L 426.209517756016 397.83732514237585" stroke-miterlimit="10"/></g><g transform="translate(-254,-38) scale(1,1)"><path fill="none" stroke="#000000" d="M 520 360 L 520 408" stroke-miterlimit="10"/></g><g transform="translate(-254,-38) scale(1,1)"><path fill="none" stroke="#000000" d="M 515.790482243984 397.83732514237585 L 520 408 L 524.209517756016 397.83732514237585" stroke-miterlimit="10"/></g><g transform="translate(-254,-38) scale(1,1)"><path fill="none" stroke="#000000" d="M 632 360 L 632 408" stroke-miterlimit="10"/></g><g transform="translate(-254,-38) scale(1,1)"><path fill="none" stroke="#000000" d="M 627.790482243984 397.83732514237585 L 632 408 L 636.209517756016 397.83732514237585" stroke-miterlimit="10"/></g><g transform="translate(-254,-38) scale(1,1)"><path fill="none" stroke="#000000" d="M 760 360 L 760 408" stroke-miterlimit="10"/></g><g transform="translate(-254,-38) scale(1,1)"><path fill="none" stroke="#000000" d="M 755.790482243984 397.83732514237585 L 760 408 L 764.209517756016 397.83732514237585" stroke-miterlimit="10"/></g><g transform="translate(-254,-38) scale(1,1)"><path fill="none" stroke="#000000" d="M 599 413 L 599 464" stroke-miterlimit="10"/></g><g transform="translate(-254,-38) scale(1,1)"><path fill="none" stroke="#000000" d="M 594.790482243984 453.83732514237585 L 599 464 L 603.209517756016 453.83732514237585" stroke-miterlimit="10"/></g><g transform="translate(-254,-38) scale(1,1)"><path fill="none" stroke="#000000" d="M 592 472 L 496 472 L 496 536" stroke-miterlimit="10"/></g><g transform="translate(-254,-38) scale(1,1)"><path fill="none" stroke="#000000" d="M 491.790482243984 525.8373251423759 L 496 536 L 500.209517756016 525.8373251423759" stroke-miterlimit="10"/></g><g transform="translate(-254,-38) scale(1,1)"><g><path fill="none" stroke="none"/><text fill="#000000" stroke="none" font-family="Arial" font-size="13px" font-style="normal" font-weight="normal" text-decoration="none" x="534.5" y="462.5">取消操作</text></g></g><g transform="translate(-254,-38) scale(1,1)"><path fill="none" stroke="#000000" d="M 614 473 L 720 473 L 720 496" stroke-miterlimit="10"/></g><g transform="translate(-254,-38) scale(1,1)"><path fill="none" stroke="#000000" d="M 715.790482243984 485.83732514237585 L 720 496 L 724.209517756016 485.83732514237585" stroke-miterlimit="10"/></g><g transform="translate(-254,-38) scale(1,1)"><g><path fill="none" stroke="none"/><text fill="#000000" stroke="none" font-family="Arial" font-size="13px" font-style="normal" font-weight="normal" text-decoration="none" x="622.5" y="459.5">确认发布</text></g></g><g transform="translate(-254,-38) scale(1,1)"><path fill="none" stroke="#000000" d="M 792 695 L 792 736" stroke-miterlimit="10"/></g><g transform="translate(-254,-38) scale(1,1)"><path fill="none" stroke="#000000" d="M 787.790482243984 725.8373251423759 L 792 736 L 796.209517756016 725.8373251423759" stroke-miterlimit="10"/></g><g transform="translate(-254,-38) scale(1,1)"><path fill="#C0C0C0" stroke="none" d="M 545 191 L 660 191 Q 670 191 670 201 L 670 221 Q 670 231 660 231 L 545 231 Q 535 231 535 221 L 535 201 Q 535 191 545 191 Z" opacity="0.2"/></g><g transform="translate(-254,-38) scale(1,1)"><path fill="#ffffff" stroke="none" d="M 538 184 L 653 184 Q 663 184 663 194 L 663 214 Q 663 224 653 224 L 538 224 Q 528 224 528 214 L 528 194 Q 528 184 538 184 Z"/></g><g transform="translate(-254,-38) scale(1,1)"><path fill="none" stroke="#000000" d="M 538 184 L 653 184 Q 663 184 663 194 L 663 214 Q 663 224 653 224 L 538 224 Q 528 224 528 214 L 528 194 Q 528 184 538 184 Z" stroke-miterlimit="10"/></g><g transform="translate(-254,-38) scale(1,1)"><g><path fill="none" stroke="none"/><text fill="#000000" stroke="none" font-family="Arial" font-size="13px" font-style="normal" font-weight="bold" text-decoration="none" x="543.5" y="203.5">进入上架演出界面</text></g></g><g transform="translate(-254,-38) scale(1,1)"><path fill="none" stroke="#000000" d="M 600 224 L 600 264" stroke-miterlimit="10"/></g><g transform="translate(-254,-38) scale(1,1)"><path fill="none" stroke="#000000" d="M 595.790482243984 253.83732514237585 L 600 264 L 604.209517756016 253.83732514237585" stroke-miterlimit="10"/></g><g transform="translate(-254,-38) scale(1,1)"><path fill="#C0C0C0" stroke="none" d="M 495 555.5 C 495 548.59644 500.59644 543 507.5 543 C 514.40356 543 520 548.59644 520 555.5 C 520 562.40356 514.40356 568 507.5 568 C 500.59644 568 495 562.40356 495 555.5 Z" opacity="0.2"/></g><g transform="translate(-254,-38) scale(1,1)"><path fill="none" stroke="#000000" d="M 488 548.5 C 488 541.59644 493.59644 536 500.5 536 C 507.40356 536 513 541.59644 513 548.5 C 513 555.40356 507.40356 561 500.5 561 C 493.59644 561 488 555.40356 488 548.5 Z" stroke-miterlimit="10"/></g><g transform="translate(-254,-38) scale(1,1)"><path fill="#000000" stroke="none" d="M 493 548.5 C 493 544.357864 496.357864 541 500.5 541 C 504.642136 541 508 544.357864 508 548.5 C 508 552.642136 504.642136 556 500.5 556 C 496.357864 556 493 552.642136 493 548.5 Z"/></g><g transform="translate(-254,-38) scale(1,1)"><path fill="#C0C0C0" stroke="none" d="M 673 503 L 781 503 Q 791 503 791 513 L 791 533 Q 791 543 781 543 L 673 543 Q 663 543 663 533 L 663 513 Q 663 503 673 503 Z" opacity="0.2"/></g><g transform="translate(-254,-38) scale(1,1)"><path fill="#ffffff" stroke="none" d="M 666 496 L 774 496 Q 784 496 784 506 L 784 526 Q 784 536 774 536 L 666 536 Q 656 536 656 526 L 656 506 Q 656 496 666 496 Z"/></g><g transform="translate(-254,-38) scale(1,1)"><path fill="none" stroke="#000000" d="M 666 496 L 774 496 Q 784 496 784 506 L 784 526 Q 784 536 774 536 L 666 536 Q 656 536 656 526 L 656 506 Q 656 496 666 496 Z" stroke-miterlimit="10"/></g><g transform="translate(-254,-38) scale(1,1)"><g><path fill="none" stroke="none"/><text fill="#000000" stroke="none" font-family="Arial" font-size="13px" font-style="normal" font-weight="bold" text-decoration="none" x="661.5" y="515.5">系统核实信息完整度</text></g></g><g transform="translate(-254,-38) scale(1,1)"><path fill="#C0C0C0" stroke="none" d="M 719 592.5 L 730.5 583 L 741 592.5 L 730.5 601 L 719 592.5" opacity="0.2"/></g><g transform="translate(-254,-38) scale(1,1)"><path fill="#ffffff" stroke="none" d="M 712 585 L 723 576 L 734 585 L 723 594 L 712 585"/></g><g transform="translate(-254,-38) scale(1,1)"><path fill="none" stroke="#000000" d="M 712 585 L 723 576 L 734 585 L 723 594 L 712 585 L 712 585" stroke-miterlimit="10"/></g><g transform="translate(-254,-38) scale(1,1)"><path fill="none" stroke="#000000" d="M 712 586 L 640 586 L 640 656" stroke-miterlimit="10"/></g><g transform="translate(-254,-38) scale(1,1)"><path fill="none" stroke="#000000" d="M 635.790482243984 645.8373251423759 L 640 656 L 644.209517756016 645.8373251423759" stroke-miterlimit="10"/></g><g transform="translate(-254,-38) scale(1,1)"><g><path fill="none" stroke="none"/><text fill="#000000" stroke="none" font-family="Arial" font-size="13px" font-style="normal" font-weight="normal" text-decoration="none" x="639.5" y="580.5">信息不完整</text></g></g><g transform="translate(-254,-38) scale(1,1)"><path fill="none" stroke="#000000" d="M 734 584 L 792 584 L 792 655" stroke-miterlimit="10"/></g><g transform="translate(-254,-38) scale(1,1)"><path fill="none" stroke="#000000" d="M 787.790482243984 644.8373251423759 L 792 655 L 796.209517756016 644.8373251423759" stroke-miterlimit="10"/></g><g transform="translate(-254,-38) scale(1,1)"><g><path fill="none" stroke="none"/><text fill="#000000" stroke="none" font-family="Arial" font-size="13px" font-style="normal" font-weight="normal" text-decoration="none" x="734.5" y="579.5">信息完整</text></g></g><g transform="translate(-254,-38) scale(1,1)"><path fill="none" stroke="#000000" d="M 721 536 L 721 576" stroke-miterlimit="10"/></g><g transform="translate(-254,-38) scale(1,1)"><path fill="none" stroke="#000000" d="M 716.790482243984 565.8373251423759 L 721 576 L 725.209517756016 565.8373251423759" stroke-miterlimit="10"/></g><g transform="translate(-254,-38) scale(1,1)"><path fill="none" stroke="#000000" d="M 640 696 L 640 752 L 336 752 L 336 208 L 528 208" stroke-miterlimit="10"/></g><g transform="translate(-254,-38) scale(1,1)"><path fill="none" stroke="#000000" d="M 517.8373251423759 212.209517756016 L 528 208 L 517.8373251423758 203.790482243984" stroke-miterlimit="10"/></g></g></svg>