<svg version="1.1" xmlns="http://www.w3.org/2000/svg" xmlns:xlink="http://www.w3.org/1999/xlink" width="652" height="868"><defs/><g><g transform="translate(-30,-150) scale(1,1)"><rect fill="#ffffff" stroke="none" x="40" y="160" width="632" height="21"/></g><g transform="translate(-30,-150) scale(1,1)"><path fill="none" stroke="#000000" d="M 40 160 L 672 160 L 672 181 L 40 181 L 40 160 Z Z" stroke-miterlimit="10" stroke-width="2"/></g><g transform="translate(-30,-150) scale(1,1)"><path fill="none" stroke="#000000" d="M 40 1008 L 40 160 L 672 160 L 672 1008" stroke-miterlimit="10" stroke-width="2"/></g><g transform="translate(-30,-150) scale(1,1)"><g><path fill="none" stroke="none"/><text fill="#000000" stroke="none" font-family="Arial" font-size="13px" font-style="normal" font-weight="normal" text-decoration="none" x="336.5" y="177">管理员</text></g></g><g transform="translate(-30,-150) scale(1,1)"><path fill="#C0C0C0" stroke="none" d="M 98 415 L 508 415 Q 511 415 511 418 L 511 417 Q 511 420 508 420 L 98 420 Q 95 420 95 417 L 95 418 Q 95 415 98 415 Z" opacity="0.2"/></g><g transform="translate(-30,-150) scale(1,1)"><path fill="#000000" stroke="none" d="M 91 408 L 501 408 Q 504 408 504 411 L 504 411 Q 504 414 501 414 L 91 414 Q 88 414 88 411 L 88 411 Q 88 408 91 408 Z"/></g><g transform="translate(-30,-150) scale(1,1)"><path fill="#C0C0C0" stroke="none" d="M 295 216.5 C 295 211.2532944 299.2532944 207 304.5 207 C 309.7467056 207 314 211.2532944 314 216.5 C 314 221.7467056 309.7467056 226 304.5 226 C 299.2532944 226 295 221.7467056 295 216.5 Z" opacity="0.2"/></g><g transform="translate(-30,-150) scale(1,1)"><path fill="#000000" stroke="none" d="M 288 209.5 C 288 204.2532944 292.2532944 200 297.5 200 C 302.7467056 200 307 204.2532944 307 209.5 C 307 214.7467056 302.7467056 219 297.5 219 C 292.2532944 219 288 214.7467056 288 209.5 Z"/></g><g transform="translate(-30,-150) scale(1,1)"><path fill="#C0C0C0" stroke="none" d="M 257 327 L 348 327 Q 358 327 358 337 L 358 357 Q 358 367 348 367 L 257 367 Q 247 367 247 357 L 247 337 Q 247 327 257 327 Z" opacity="0.2"/></g><g transform="translate(-30,-150) scale(1,1)"><path fill="#ffffff" stroke="none" d="M 250 320 L 341 320 Q 351 320 351 330 L 351 350 Q 351 360 341 360 L 250 360 Q 240 360 240 350 L 240 330 Q 240 320 250 320 Z"/></g><g transform="translate(-30,-150) scale(1,1)"><path fill="none" stroke="#000000" d="M 250 320 L 341 320 Q 351 320 351 330 L 351 350 Q 351 360 341 360 L 250 360 Q 240 360 240 350 L 240 330 Q 240 320 250 320 Z" stroke-miterlimit="10"/></g><g transform="translate(-30,-150) scale(1,1)"><g><path fill="none" stroke="none"/><text fill="#000000" stroke="none" font-family="Arial" font-size="13px" font-style="normal" font-weight="bold" text-decoration="none" x="269.5" y="339.5">选择演出</text></g></g><g transform="translate(-30,-150) scale(1,1)"><path fill="#C0C0C0" stroke="none" d="M 113 471 L 154 471 Q 164 471 164 481 L 164 501 Q 164 511 154 511 L 113 511 Q 103 511 103 501 L 103 481 Q 103 471 113 471 Z" opacity="0.2"/></g><g transform="translate(-30,-150) scale(1,1)"><path fill="#ffffff" stroke="none" d="M 106 464 L 147 464 Q 157 464 157 474 L 157 494 Q 157 504 147 504 L 106 504 Q 96 504 96 494 L 96 474 Q 96 464 106 464 Z"/></g><g transform="translate(-30,-150) scale(1,1)"><path fill="none" stroke="#000000" d="M 106 464 L 147 464 Q 157 464 157 474 L 157 494 Q 157 504 147 504 L 106 504 Q 96 504 96 494 L 96 474 Q 96 464 106 464 Z" stroke-miterlimit="10"/></g><g transform="translate(-30,-150) scale(1,1)"><g><path fill="none" stroke="none"/><text fill="#000000" stroke="none" font-family="Arial" font-size="13px" font-style="normal" font-weight="bold" text-decoration="none" x="100.5" y="483.5">填写剧院</text></g></g><g transform="translate(-30,-150) scale(1,1)"><path fill="#C0C0C0" stroke="none" d="M 193 471 L 260 471 Q 270 471 270 481 L 270 501 Q 270 511 260 511 L 193 511 Q 183 511 183 501 L 183 481 Q 183 471 193 471 Z" opacity="0.2"/></g><g transform="translate(-30,-150) scale(1,1)"><path fill="#ffffff" stroke="none" d="M 186 464 L 253 464 Q 263 464 263 474 L 263 494 Q 263 504 253 504 L 186 504 Q 176 504 176 494 L 176 474 Q 176 464 186 464 Z"/></g><g transform="translate(-30,-150) scale(1,1)"><path fill="none" stroke="#000000" d="M 186 464 L 253 464 Q 263 464 263 474 L 263 494 Q 263 504 253 504 L 186 504 Q 176 504 176 494 L 176 474 Q 176 464 186 464 Z" stroke-miterlimit="10"/></g><g transform="translate(-30,-150) scale(1,1)"><g><path fill="none" stroke="none"/><text fill="#000000" stroke="none" font-family="Arial" font-size="13px" font-style="normal" font-weight="bold" text-decoration="none" x="180.5" y="483.5">填写演出时间</text></g></g><g transform="translate(-30,-150) scale(1,1)"><path fill="#C0C0C0" stroke="none" d="M 297 471 L 364 471 Q 374 471 374 481 L 374 501 Q 374 511 364 511 L 297 511 Q 287 511 287 501 L 287 481 Q 287 471 297 471 Z" opacity="0.2"/></g><g transform="translate(-30,-150) scale(1,1)"><path fill="#ffffff" stroke="none" d="M 290 464 L 357 464 Q 367 464 367 474 L 367 494 Q 367 504 357 504 L 290 504 Q 280 504 280 494 L 280 474 Q 280 464 290 464 Z"/></g><g transform="translate(-30,-150) scale(1,1)"><path fill="none" stroke="#000000" d="M 290 464 L 357 464 Q 367 464 367 474 L 367 494 Q 367 504 357 504 L 290 504 Q 280 504 280 494 L 280 474 Q 280 464 290 464 Z" stroke-miterlimit="10"/></g><g transform="translate(-30,-150) scale(1,1)"><g><path fill="none" stroke="none"/><text fill="#000000" stroke="none" font-family="Arial" font-size="13px" font-style="normal" font-weight="bold" text-decoration="none" x="284.5" y="483.5">填写演员列表</text></g></g><g transform="translate(-30,-150) scale(1,1)"><path fill="#C0C0C0" stroke="none" d="M 401 471 L 494 471 Q 504 471 504 481 L 504 501 Q 504 511 494 511 L 401 511 Q 391 511 391 501 L 391 481 Q 391 471 401 471 Z" opacity="0.2"/></g><g transform="translate(-30,-150) scale(1,1)"><path fill="#ffffff" stroke="none" d="M 394 464 L 487 464 Q 497 464 497 474 L 497 494 Q 497 504 487 504 L 394 504 Q 384 504 384 494 L 384 474 Q 384 464 394 464 Z"/></g><g transform="translate(-30,-150) scale(1,1)"><path fill="none" stroke="#000000" d="M 394 464 L 487 464 Q 497 464 497 474 L 497 494 Q 497 504 487 504 L 394 504 Q 384 504 384 494 L 384 474 Q 384 464 394 464 Z" stroke-miterlimit="10"/></g><g transform="translate(-30,-150) scale(1,1)"><g><path fill="none" stroke="none"/><text fill="#000000" stroke="none" font-family="Arial" font-size="13px" font-style="normal" font-weight="bold" text-decoration="none" x="388.5" y="483.5">填写剧照以及介绍</text></g></g><g transform="translate(-30,-150) scale(1,1)"><path fill="#C0C0C0" stroke="none" d="M 98 575 L 507 575 Q 510 575 510 578 L 510 577 Q 510 580 507 580 L 98 580 Q 95 580 95 577 L 95 578 Q 95 575 98 575 Z" opacity="0.2"/></g><g transform="translate(-30,-150) scale(1,1)"><path fill="#000000" stroke="none" d="M 91 568 L 500 568 Q 503 568 503 571 L 503 571 Q 503 574 500 574 L 91 574 Q 88 574 88 571 L 88 571 Q 88 568 91 568 Z"/></g><g transform="translate(-30,-150) scale(1,1)"><path fill="#C0C0C0" stroke="none" d="M 295 640.5 L 306.5 631 L 317 640.5 L 306.5 649 L 295 640.5" opacity="0.2"/></g><g transform="translate(-30,-150) scale(1,1)"><path fill="#ffffff" stroke="none" d="M 288 633 L 299 624 L 310 633 L 299 642 L 288 633"/></g><g transform="translate(-30,-150) scale(1,1)"><path fill="none" stroke="#000000" d="M 288 633 L 299 624 L 310 633 L 299 642 L 288 633 L 288 633" stroke-miterlimit="10"/></g><g transform="translate(-30,-150) scale(1,1)"><path fill="#C0C0C0" stroke="none" d="M 409 679 L 528 679 Q 538 679 538 689 L 538 716 Q 538 726 528 726 L 409 726 Q 399 726 399 716 L 399 689 Q 399 679 409 679 Z" opacity="0.2"/></g><g transform="translate(-30,-150) scale(1,1)"><path fill="#ffffff" stroke="none" d="M 402 672 L 521 672 Q 531 672 531 682 L 531 709 Q 531 719 521 719 L 402 719 Q 392 719 392 709 L 392 682 Q 392 672 402 672 Z"/></g><g transform="translate(-30,-150) scale(1,1)"><path fill="none" stroke="#000000" d="M 402 672 L 521 672 Q 531 672 531 682 L 531 709 Q 531 719 521 719 L 402 719 Q 392 719 392 709 L 392 682 Q 392 672 402 672 Z" stroke-miterlimit="10"/></g><g transform="translate(-30,-150) scale(1,1)"><g><path fill="none" stroke="none"/><text fill="#000000" stroke="none" font-family="Arial" font-size="13px" font-style="normal" font-weight="bold" text-decoration="none" x="396.5" y="691.5">系统检验信息是否完整</text></g></g><g transform="translate(-30,-150) scale(1,1)"><path fill="#C0C0C0" stroke="none" d="M 505 799 L 596 799 Q 606 799 606 809 L 606 829 Q 606 839 596 839 L 505 839 Q 495 839 495 829 L 495 809 Q 495 799 505 799 Z" opacity="0.2"/></g><g transform="translate(-30,-150) scale(1,1)"><path fill="#ffffff" stroke="none" d="M 498 792 L 589 792 Q 599 792 599 802 L 599 822 Q 599 832 589 832 L 498 832 Q 488 832 488 822 L 488 802 Q 488 792 498 792 Z"/></g><g transform="translate(-30,-150) scale(1,1)"><path fill="none" stroke="#000000" d="M 498 792 L 589 792 Q 599 792 599 802 L 599 822 Q 599 832 589 832 L 498 832 Q 488 832 488 822 L 488 802 Q 488 792 498 792 Z" stroke-miterlimit="10"/></g><g transform="translate(-30,-150) scale(1,1)"><g><path fill="none" stroke="none"/><text fill="#000000" stroke="none" font-family="Arial" font-size="13px" font-style="normal" font-weight="bold" text-decoration="none" x="504.5" y="811.5">修改演出信息</text></g></g><g transform="translate(-30,-150) scale(1,1)"><path fill="none" stroke="#000000" d="M 296 219 L 296 248" stroke-miterlimit="10"/></g><g transform="translate(-30,-150) scale(1,1)"><path fill="none" stroke="#000000" d="M 291.790482243984 237.83732514237585 L 296 248 L 300.209517756016 237.83732514237585" stroke-miterlimit="10"/></g><g transform="translate(-30,-150) scale(1,1)"><path fill="none" stroke="#000000" d="M 295 360 L 295 408" stroke-miterlimit="10"/></g><g transform="translate(-30,-150) scale(1,1)"><path fill="none" stroke="#000000" d="M 290.790482243984 397.83732514237585 L 295 408 L 299.209517756016 397.83732514237585" stroke-miterlimit="10"/></g><g transform="translate(-30,-150) scale(1,1)"><path fill="none" stroke="#000000" d="M 128 413 L 128 464" stroke-miterlimit="10"/></g><g transform="translate(-30,-150) scale(1,1)"><path fill="none" stroke="#000000" d="M 123.79048224398402 453.83732514237585 L 128 464 L 132.209517756016 453.83732514237585" stroke-miterlimit="10"/></g><g transform="translate(-30,-150) scale(1,1)"><path fill="none" stroke="#000000" d="M 224 413 L 224 464" stroke-miterlimit="10"/></g><g transform="translate(-30,-150) scale(1,1)"><path fill="none" stroke="#000000" d="M 219.790482243984 453.83732514237585 L 224 464 L 228.209517756016 453.83732514237585" stroke-miterlimit="10"/></g><g transform="translate(-30,-150) scale(1,1)"><path fill="none" stroke="#000000" d="M 328 413 L 328 464" stroke-miterlimit="10"/></g><g transform="translate(-30,-150) scale(1,1)"><path fill="none" stroke="#000000" d="M 323.790482243984 453.83732514237585 L 328 464 L 332.209517756016 453.83732514237585" stroke-miterlimit="10"/></g><g transform="translate(-30,-150) scale(1,1)"><path fill="none" stroke="#000000" d="M 440 413 L 440 464" stroke-miterlimit="10"/></g><g transform="translate(-30,-150) scale(1,1)"><path fill="none" stroke="#000000" d="M 435.790482243984 453.83732514237585 L 440 464 L 444.209517756016 453.83732514237585" stroke-miterlimit="10"/></g><g transform="translate(-30,-150) scale(1,1)"><path fill="none" stroke="#000000" d="M 126 504 L 126 568" stroke-miterlimit="10"/></g><g transform="translate(-30,-150) scale(1,1)"><path fill="none" stroke="#000000" d="M 121.79048224398402 557.8373251423759 L 126 568 L 130.209517756016 557.8373251423759" stroke-miterlimit="10"/></g><g transform="translate(-30,-150) scale(1,1)"><path fill="none" stroke="#000000" d="M 224 504 L 224 568" stroke-miterlimit="10"/></g><g transform="translate(-30,-150) scale(1,1)"><path fill="none" stroke="#000000" d="M 219.790482243984 557.8373251423759 L 224 568 L 228.209517756016 557.8373251423759" stroke-miterlimit="10"/></g><g transform="translate(-30,-150) scale(1,1)"><path fill="none" stroke="#000000" d="M 328 504 L 328 568" stroke-miterlimit="10"/></g><g transform="translate(-30,-150) scale(1,1)"><path fill="none" stroke="#000000" d="M 323.790482243984 557.8373251423759 L 328 568 L 332.209517756016 557.8373251423759" stroke-miterlimit="10"/></g><g transform="translate(-30,-150) scale(1,1)"><path fill="none" stroke="#000000" d="M 440 504 L 440 568" stroke-miterlimit="10"/></g><g transform="translate(-30,-150) scale(1,1)"><path fill="none" stroke="#000000" d="M 435.790482243984 557.8373251423759 L 440 568 L 444.209517756016 557.8373251423759" stroke-miterlimit="10"/></g><g transform="translate(-30,-150) scale(1,1)"><path fill="none" stroke="#000000" d="M 295 573 L 295 624" stroke-miterlimit="10"/></g><g transform="translate(-30,-150) scale(1,1)"><path fill="none" stroke="#000000" d="M 290.790482243984 613.8373251423759 L 295 624 L 299.209517756016 613.8373251423759" stroke-miterlimit="10"/></g><g transform="translate(-30,-150) scale(1,1)"><path fill="none" stroke="#000000" d="M 310 633 L 453 633 L 453 672" stroke-miterlimit="10"/></g><g transform="translate(-30,-150) scale(1,1)"><path fill="none" stroke="#000000" d="M 448.790482243984 661.8373251423759 L 453 672 L 457.209517756016 661.8373251423759" stroke-miterlimit="10"/></g><g transform="translate(-30,-150) scale(1,1)"><g><path fill="none" stroke="none"/><text fill="#000000" stroke="none" font-family="Arial" font-size="13px" font-style="normal" font-weight="normal" text-decoration="none" x="326.5" y="627.5">确认更改</text></g></g><g transform="translate(-30,-150) scale(1,1)"><path fill="#C0C0C0" stroke="none" d="M 295 739.5 C 295 732.59644 300.59644 727 307.5 727 C 314.40356 727 320 732.59644 320 739.5 C 320 746.40356 314.40356 752 307.5 752 C 300.59644 752 295 746.40356 295 739.5 Z" opacity="0.2"/></g><g transform="translate(-30,-150) scale(1,1)"><path fill="none" stroke="#000000" d="M 288 732.5 C 288 725.59644 293.59644 720 300.5 720 C 307.40356 720 313 725.59644 313 732.5 C 313 739.40356 307.40356 745 300.5 745 C 293.59644 745 288 739.40356 288 732.5 Z" stroke-miterlimit="10"/></g><g transform="translate(-30,-150) scale(1,1)"><path fill="#000000" stroke="none" d="M 293 732.5 C 293 728.357864 296.357864 725 300.5 725 C 304.642136 725 308 728.357864 308 732.5 C 308 736.642136 304.642136 740 300.5 740 C 296.357864 740 293 736.642136 293 732.5 Z"/></g><g transform="translate(-30,-150) scale(1,1)"><path fill="none" stroke="#000000" d="M 300 642 L 300 720" stroke-miterlimit="10"/></g><g transform="translate(-30,-150) scale(1,1)"><path fill="none" stroke="#000000" d="M 295.790482243984 709.8373251423759 L 300 720 L 304.209517756016 709.8373251423759" stroke-miterlimit="10"/></g><g transform="translate(-30,-150) scale(1,1)"><g><path fill="none" stroke="none"/><text fill="#000000" stroke="none" font-family="Arial" font-size="13px" font-style="normal" font-weight="normal" text-decoration="none" x="238.5" y="675.5">取消更改</text></g></g><g transform="translate(-30,-150) scale(1,1)"><path fill="#C0C0C0" stroke="none" d="M 455 768.5 L 466.5 759 L 477 768.5 L 466.5 777 L 455 768.5" opacity="0.2"/></g><g transform="translate(-30,-150) scale(1,1)"><path fill="#ffffff" stroke="none" d="M 448 761 L 459 752 L 470 761 L 459 770 L 448 761"/></g><g transform="translate(-30,-150) scale(1,1)"><path fill="none" stroke="#000000" d="M 448 761 L 459 752 L 470 761 L 459 770 L 448 761 L 448 761" stroke-miterlimit="10"/></g><g transform="translate(-30,-150) scale(1,1)"><path fill="none" stroke="#000000" d="M 459 719 L 459 752" stroke-miterlimit="10"/></g><g transform="translate(-30,-150) scale(1,1)"><path fill="none" stroke="#000000" d="M 454.790482243984 741.8373251423759 L 459 752 L 463.209517756016 741.8373251423759" stroke-miterlimit="10"/></g><g transform="translate(-30,-150) scale(1,1)"><path fill="none" stroke="#000000" d="M 560 832 L 560 865 L 470 865" stroke-miterlimit="10"/></g><g transform="translate(-30,-150) scale(1,1)"><path fill="none" stroke="#000000" d="M 480.16267485762415 860.790482243984 L 470 865 L 480.16267485762415 869.209517756016" stroke-miterlimit="10"/></g><g transform="translate(-30,-150) scale(1,1)"><path fill="none" stroke="#000000" d="M 448 760 L 352 760 L 352 864 L 448 864" stroke-miterlimit="10"/></g><g transform="translate(-30,-150) scale(1,1)"><path fill="none" stroke="#000000" d="M 437.83732514237585 868.209517756016 L 448 864 L 437.83732514237585 859.790482243984" stroke-miterlimit="10"/></g><g transform="translate(-30,-150) scale(1,1)"><g><path fill="none" stroke="none"/><text fill="#000000" stroke="none" font-family="Arial" font-size="13px" font-style="normal" font-weight="normal" text-decoration="none" x="375.5" y="760.5">信息不完整</text></g></g><g transform="translate(-30,-150) scale(1,1)"><path fill="none" stroke="#000000" d="M 470 760 L 560 760 L 560 792" stroke-miterlimit="10"/></g><g transform="translate(-30,-150) scale(1,1)"><path fill="none" stroke="#000000" d="M 555.790482243984 781.8373251423759 L 560 792 L 564.209517756016 781.8373251423759" stroke-miterlimit="10"/></g><g transform="translate(-30,-150) scale(1,1)"><g><path fill="none" stroke="none"/><text fill="#000000" stroke="none" font-family="Arial" font-size="13px" font-style="normal" font-weight="normal" text-decoration="none" x="470.5" y="755.5">信息完整</text></g></g><g transform="translate(-30,-150) scale(1,1)"><path fill="#C0C0C0" stroke="none" d="M 249 255 L 357 255 Q 367 255 367 265 L 367 285 Q 367 295 357 295 L 249 295 Q 239 295 239 285 L 239 265 Q 239 255 249 255 Z" opacity="0.2"/></g><g transform="translate(-30,-150) scale(1,1)"><path fill="#ffffff" stroke="none" d="M 242 248 L 350 248 Q 360 248 360 258 L 360 278 Q 360 288 350 288 L 242 288 Q 232 288 232 278 L 232 258 Q 232 248 242 248 Z"/></g><g transform="translate(-30,-150) scale(1,1)"><path fill="none" stroke="#000000" d="M 242 248 L 350 248 Q 360 248 360 258 L 360 278 Q 360 288 350 288 L 242 288 Q 232 288 232 278 L 232 258 Q 232 248 242 248 Z" stroke-miterlimit="10"/></g><g transform="translate(-30,-150) scale(1,1)"><g><path fill="none" stroke="none"/><text fill="#000000" stroke="none" font-family="Arial" font-size="13px" font-style="normal" font-weight="bold" text-decoration="none" x="244" y="267.5">进入修改演出界面</text></g></g><g transform="translate(-30,-150) scale(1,1)"><path fill="none" stroke="#000000" d="M 296 288 L 296 320" stroke-miterlimit="10"/></g><g transform="translate(-30,-150) scale(1,1)"><path fill="none" stroke="#000000" d="M 291.790482243984 309.83732514237585 L 296 320 L 300.209517756016 309.83732514237585" stroke-miterlimit="10"/></g><g transform="translate(-30,-150) scale(1,1)"><path fill="#C0C0C0" stroke="none" d="M 455 872.5 L 466.5 863 L 477 872.5 L 466.5 881 L 455 872.5" opacity="0.2"/></g><g transform="translate(-30,-150) scale(1,1)"><path fill="#ffffff" stroke="none" d="M 448 865 L 459 856 L 470 865 L 459 874 L 448 865"/></g><g transform="translate(-30,-150) scale(1,1)"><path fill="none" stroke="#000000" d="M 448 865 L 459 856 L 470 865 L 459 874 L 448 865 L 448 865" stroke-miterlimit="10"/></g><g transform="translate(-30,-150) scale(1,1)"><path fill="#C0C0C0" stroke="none" d="M 455 931.5 C 455 924.59644 460.59644 919 467.5 919 C 474.40356 919 480 924.59644 480 931.5 C 480 938.40356 474.40356 944 467.5 944 C 460.59644 944 455 938.40356 455 931.5 Z" opacity="0.2"/></g><g transform="translate(-30,-150) scale(1,1)"><path fill="none" stroke="#000000" d="M 448 924.5 C 448 917.59644 453.59644 912 460.5 912 C 467.40356 912 473 917.59644 473 924.5 C 473 931.40356 467.40356 937 460.5 937 C 453.59644 937 448 931.40356 448 924.5 Z" stroke-miterlimit="10"/></g><g transform="translate(-30,-150) scale(1,1)"><path fill="#000000" stroke="none" d="M 453 924.5 C 453 920.357864 456.357864 917 460.5 917 C 464.642136 917 468 920.357864 468 924.5 C 468 928.642136 464.642136 932 460.5 932 C 456.357864 932 453 928.642136 453 924.5 Z"/></g><g transform="translate(-30,-150) scale(1,1)"><path fill="none" stroke="#000000" d="M 459 874 L 459 912" stroke-miterlimit="10"/></g><g transform="translate(-30,-150) scale(1,1)"><path fill="none" stroke="#000000" d="M 454.790482243984 901.8373251423759 L 459 912 L 463.209517756016 901.8373251423759" stroke-miterlimit="10"/></g></g></svg>