<svg version="1.1" xmlns="http://www.w3.org/2000/svg" xmlns:xlink="http://www.w3.org/1999/xlink" width="580" height="492"><defs/><g><g transform="translate(-246,-150) scale(1,1)"><rect fill="#ffffff" stroke="none" x="256" y="160" width="263" height="21"/></g><g transform="translate(-246,-150) scale(1,1)"><path fill="none" stroke="#000000" d="M 256 160 L 519 160 L 519 181 L 256 181 L 256 160 Z Z" stroke-miterlimit="10" stroke-width="2"/></g><g transform="translate(-246,-150) scale(1,1)"><path fill="none" stroke="#000000" d="M 256 632 L 256 160 L 519 160 L 519 632" stroke-miterlimit="10" stroke-width="2"/></g><g transform="translate(-246,-150) scale(1,1)"><g><path fill="none" stroke="none"/><text fill="#000000" stroke="none" font-family="Arial" font-size="13px" font-style="normal" font-weight="normal" text-decoration="none" x="368" y="177">管理员</text></g></g><g transform="translate(-246,-150) scale(1,1)"><rect fill="#ffffff" stroke="none" x="520" y="160" width="296" height="21"/></g><g transform="translate(-246,-150) scale(1,1)"><path fill="none" stroke="#000000" d="M 520 160 L 816 160 L 816 181 L 520 181 L 520 160 Z Z" stroke-miterlimit="10" stroke-width="2"/></g><g transform="translate(-246,-150) scale(1,1)"><path fill="none" stroke="#000000" d="M 520 632 L 520 160 L 816 160 L 816 632" stroke-miterlimit="10" stroke-width="2"/></g><g transform="translate(-246,-150) scale(1,1)"><g><path fill="none" stroke="none"/><text fill="#000000" stroke="none" font-family="Arial" font-size="13px" font-style="normal" font-weight="normal" text-decoration="none" x="648.5" y="177">数据库</text></g></g><g transform="translate(-246,-150) scale(1,1)"><path fill="#C0C0C0" stroke="none" d="M 383 240.5 C 383 235.2532944 387.2532944 231 392.5 231 C 397.7467056 231 402 235.2532944 402 240.5 C 402 245.7467056 397.7467056 250 392.5 250 C 387.2532944 250 383 245.7467056 383 240.5 Z" opacity="0.2"/></g><g transform="translate(-246,-150) scale(1,1)"><path fill="#000000" stroke="none" d="M 376 233.5 C 376 228.2532944 380.2532944 224 385.5 224 C 390.7467056 224 395 228.2532944 395 233.5 C 395 238.7467056 390.7467056 243 385.5 243 C 380.2532944 243 376 238.7467056 376 233.5 Z"/></g><g transform="translate(-246,-150) scale(1,1)"><path fill="#C0C0C0" stroke="none" d="M 345 287 L 452 287 Q 462 287 462 297 L 462 317 Q 462 327 452 327 L 345 327 Q 335 327 335 317 L 335 297 Q 335 287 345 287 Z" opacity="0.2"/></g><g transform="translate(-246,-150) scale(1,1)"><path fill="#ffffff" stroke="none" d="M 338 280 L 445 280 Q 455 280 455 290 L 455 310 Q 455 320 445 320 L 338 320 Q 328 320 328 310 L 328 290 Q 328 280 338 280 Z"/></g><g transform="translate(-246,-150) scale(1,1)"><path fill="none" stroke="#000000" d="M 338 280 L 445 280 Q 455 280 455 290 L 455 310 Q 455 320 445 320 L 338 320 Q 328 320 328 310 L 328 290 Q 328 280 338 280 Z" stroke-miterlimit="10"/></g><g transform="translate(-246,-150) scale(1,1)"><g><path fill="none" stroke="none"/><text fill="#000000" stroke="none" font-family="Arial" font-size="13px" font-style="normal" font-weight="bold" text-decoration="none" x="352.5" y="299.5">选择某场演出</text></g></g><g transform="translate(-246,-150) scale(1,1)"><path fill="#C0C0C0" stroke="none" d="M 625 287 L 740 287 Q 750 287 750 297 L 750 317 Q 750 327 740 327 L 625 327 Q 615 327 615 317 L 615 297 Q 615 287 625 287 Z" opacity="0.2"/></g><g transform="translate(-246,-150) scale(1,1)"><path fill="#ffffff" stroke="none" d="M 618 280 L 733 280 Q 743 280 743 290 L 743 310 Q 743 320 733 320 L 618 320 Q 608 320 608 310 L 608 290 Q 608 280 618 280 Z"/></g><g transform="translate(-246,-150) scale(1,1)"><path fill="none" stroke="#000000" d="M 618 280 L 733 280 Q 743 280 743 290 L 743 310 Q 743 320 733 320 L 618 320 Q 608 320 608 310 L 608 290 Q 608 280 618 280 Z" stroke-miterlimit="10"/></g><g transform="translate(-246,-150) scale(1,1)"><g><path fill="none" stroke="none"/><text fill="#000000" stroke="none" font-family="Arial" font-size="13px" font-style="normal" font-weight="bold" text-decoration="none" x="617" y="299.5">获取并分析售票情况</text></g></g><g transform="translate(-246,-150) scale(1,1)"><path fill="#C0C0C0" stroke="none" d="M 671 392.5 L 682.5 383 L 693 392.5 L 682.5 401 L 671 392.5" opacity="0.2"/></g><g transform="translate(-246,-150) scale(1,1)"><path fill="#ffffff" stroke="none" d="M 664 385 L 675 376 L 686 385 L 675 394 L 664 385"/></g><g transform="translate(-246,-150) scale(1,1)"><path fill="none" stroke="#000000" d="M 664 385 L 675 376 L 686 385 L 675 394 L 664 385 L 664 385" stroke-miterlimit="10"/></g><g transform="translate(-246,-150) scale(1,1)"><path fill="#C0C0C0" stroke="none" d="M 561 463 L 660 463 Q 670 463 670 473 L 670 493 Q 670 503 660 503 L 561 503 Q 551 503 551 493 L 551 473 Q 551 463 561 463 Z" opacity="0.2"/></g><g transform="translate(-246,-150) scale(1,1)"><path fill="#ffffff" stroke="none" d="M 554 456 L 653 456 Q 663 456 663 466 L 663 486 Q 663 496 653 496 L 554 496 Q 544 496 544 486 L 544 466 Q 544 456 554 456 Z"/></g><g transform="translate(-246,-150) scale(1,1)"><path fill="none" stroke="#000000" d="M 554 456 L 653 456 Q 663 456 663 466 L 663 486 Q 663 496 653 496 L 554 496 Q 544 496 544 486 L 544 466 Q 544 456 554 456 Z" stroke-miterlimit="10"/></g><g transform="translate(-246,-150) scale(1,1)"><g><path fill="none" stroke="none"/><text fill="#000000" stroke="none" font-family="Arial" font-size="13px" font-style="normal" font-weight="bold" text-decoration="none" x="551.5" y="475.5">返回售票情况分析</text></g></g><g transform="translate(-246,-150) scale(1,1)"><path fill="#C0C0C0" stroke="none" d="M 591 587.5 C 591 580.59644 596.59644 575 603.5 575 C 610.40356 575 616 580.59644 616 587.5 C 616 594.40356 610.40356 600 603.5 600 C 596.59644 600 591 594.40356 591 587.5 Z" opacity="0.2"/></g><g transform="translate(-246,-150) scale(1,1)"><path fill="none" stroke="#000000" d="M 584 580.5 C 584 573.59644 589.59644 568 596.5 568 C 603.40356 568 609 573.59644 609 580.5 C 609 587.40356 603.40356 593 596.5 593 C 589.59644 593 584 587.40356 584 580.5 Z" stroke-miterlimit="10"/></g><g transform="translate(-246,-150) scale(1,1)"><path fill="#000000" stroke="none" d="M 589 580.5 C 589 576.357864 592.357864 573 596.5 573 C 600.642136 573 604 576.357864 604 580.5 C 604 584.642136 600.642136 588 596.5 588 C 592.357864 588 589 584.642136 589 580.5 Z"/></g><g transform="translate(-246,-150) scale(1,1)"><path fill="#C0C0C0" stroke="none" d="M 759 483.5 C 759 476.59644 764.59644 471 771.5 471 C 778.40356 471 784 476.59644 784 483.5 C 784 490.40356 778.40356 496 771.5 496 C 764.59644 496 759 490.40356 759 483.5 Z" opacity="0.2"/></g><g transform="translate(-246,-150) scale(1,1)"><path fill="none" stroke="#000000" d="M 752 476.5 C 752 469.59644 757.59644 464 764.5 464 C 771.40356 464 777 469.59644 777 476.5 C 777 483.40356 771.40356 489 764.5 489 C 757.59644 489 752 483.40356 752 476.5 Z" stroke-miterlimit="10"/></g><g transform="translate(-246,-150) scale(1,1)"><path fill="#000000" stroke="none" d="M 757 476.5 C 757 472.357864 760.357864 469 764.5 469 C 768.642136 469 772 472.357864 772 476.5 C 772 480.642136 768.642136 484 764.5 484 C 760.357864 484 757 480.642136 757 476.5 Z"/></g><g transform="translate(-246,-150) scale(1,1)"><path fill="none" stroke="#000000" d="M 386 243 L 386 280" stroke-miterlimit="10"/></g><g transform="translate(-246,-150) scale(1,1)"><path fill="none" stroke="#000000" d="M 381.790482243984 269.83732514237585 L 386 280 L 390.209517756016 269.83732514237585" stroke-miterlimit="10"/></g><g transform="translate(-246,-150) scale(1,1)"><path fill="none" stroke="#000000" d="M 455 300 L 608 300" stroke-miterlimit="10"/></g><g transform="translate(-246,-150) scale(1,1)"><path fill="none" stroke="#000000" d="M 597.8373251423759 304.209517756016 L 608 300 L 597.8373251423758 295.790482243984" stroke-miterlimit="10"/></g><g transform="translate(-246,-150) scale(1,1)"><path fill="none" stroke="#000000" d="M 675 320 L 675 376" stroke-miterlimit="10"/></g><g transform="translate(-246,-150) scale(1,1)"><path fill="none" stroke="#000000" d="M 670.790482243984 365.83732514237585 L 675 376 L 679.209517756016 365.83732514237585" stroke-miterlimit="10"/></g><g transform="translate(-246,-150) scale(1,1)"><path fill="none" stroke="#000000" d="M 592 496 L 592 568" stroke-miterlimit="10"/></g><g transform="translate(-246,-150) scale(1,1)"><path fill="none" stroke="#000000" d="M 587.790482243984 557.8373251423759 L 592 568 L 596.209517756016 557.8373251423759" stroke-miterlimit="10"/></g><g transform="translate(-246,-150) scale(1,1)"><path fill="none" stroke="#000000" d="M 664 384 L 592 384 L 592 456" stroke-miterlimit="10"/></g><g transform="translate(-246,-150) scale(1,1)"><path fill="none" stroke="#000000" d="M 587.790482243984 445.83732514237585 L 592 456 L 596.209517756016 445.83732514237585" stroke-miterlimit="10"/></g><g transform="translate(-246,-150) scale(1,1)"><path fill="none" stroke="#000000" d="M 686 384 L 768 384 L 768 464" stroke-miterlimit="10"/></g><g transform="translate(-246,-150) scale(1,1)"><path fill="none" stroke="#000000" d="M 763.790482243984 453.83732514237585 L 768 464 L 772.209517756016 453.83732514237585" stroke-miterlimit="10"/></g></g></svg>