<svg version="1.1" xmlns="http://www.w3.org/2000/svg" xmlns:xlink="http://www.w3.org/1999/xlink" width="532" height="828"><defs/><g><g transform="translate(-174,-6) scale(1,1)"><rect fill="#ffffff" stroke="none" x="184" y="16" width="512" height="21"/></g><g transform="translate(-174,-6) scale(1,1)"><path fill="none" stroke="#000000" d="M 184 16 L 696 16 L 696 37 L 184 37 L 184 16 Z Z" stroke-miterlimit="10" stroke-width="2"/></g><g transform="translate(-174,-6) scale(1,1)"><path fill="none" stroke="#000000" d="M 184 824 L 184 16 L 696 16 L 696 824" stroke-miterlimit="10" stroke-width="2"/></g><g transform="translate(-174,-6) scale(1,1)"><g><path fill="none" stroke="none"/><text fill="#000000" stroke="none" font-family="Arial" font-size="13px" font-style="normal" font-weight="normal" text-decoration="none" x="427" y="33">用户</text></g></g><g transform="translate(-174,-6) scale(1,1)"><path fill="none" stroke="#000000" d="M 392 75 L 392 104" stroke-miterlimit="10"/></g><g transform="translate(-174,-6) scale(1,1)"><path fill="none" stroke="#000000" d="M 387.790482243984 93.83732514237585 L 392 104 L 396.209517756016 93.83732514237585" stroke-miterlimit="10"/></g><g transform="translate(-174,-6) scale(1,1)"><path fill="none" stroke="#000000" d="M 395 144 L 395 176" stroke-miterlimit="10"/></g><g transform="translate(-174,-6) scale(1,1)"><path fill="none" stroke="#000000" d="M 390.790482243984 165.83732514237585 L 395 176 L 399.209517756016 165.83732514237585" stroke-miterlimit="10"/></g><g transform="translate(-174,-6) scale(1,1)"><path fill="#C0C0C0" stroke="none" d="M 561 247 L 653 247 Q 663 247 663 257 L 663 277 Q 663 287 653 287 L 561 287 Q 551 287 551 277 L 551 257 Q 551 247 561 247 Z" opacity="0.2"/></g><g transform="translate(-174,-6) scale(1,1)"><path fill="#ffffff" stroke="none" d="M 554 240 L 646 240 Q 656 240 656 250 L 656 270 Q 656 280 646 280 L 554 280 Q 544 280 544 270 L 544 250 Q 544 240 554 240 Z"/></g><g transform="translate(-174,-6) scale(1,1)"><path fill="none" stroke="#000000" d="M 554 240 L 646 240 Q 656 240 656 250 L 656 270 Q 656 280 646 280 L 554 280 Q 544 280 544 270 L 544 250 Q 544 240 554 240 Z" stroke-miterlimit="10"/></g><g transform="translate(-174,-6) scale(1,1)"><g><path fill="none" stroke="none"/><text fill="#000000" stroke="none" font-family="Arial" font-size="13px" font-style="normal" font-weight="bold" text-decoration="none" x="561" y="259.5">转至登录界面</text></g></g><g transform="translate(-174,-6) scale(1,1)"><path fill="none" stroke="#000000" d="M 406 185 L 608 185 L 608 240" stroke-miterlimit="10"/></g><g transform="translate(-174,-6) scale(1,1)"><path fill="none" stroke="#000000" d="M 603.790482243984 229.83732514237585 L 608 240 L 612.209517756016 229.83732514237585" stroke-miterlimit="10"/></g><g transform="translate(-174,-6) scale(1,1)"><g><path fill="none" stroke="none"/><text fill="#000000" stroke="none" font-family="Arial" font-size="13px" font-style="normal" font-weight="normal" text-decoration="none" x="431.5" y="178.5">用户未登录</text></g></g><g transform="translate(-174,-6) scale(1,1)"><path fill="none" stroke="#000000" d="M 608 280 L 608 304" stroke-miterlimit="10"/></g><g transform="translate(-174,-6) scale(1,1)"><path fill="none" stroke="#000000" d="M 603.790482243984 293.83732514237585 L 608 304 L 612.209517756016 293.83732514237585" stroke-miterlimit="10"/></g><g transform="translate(-174,-6) scale(1,1)"><path fill="#C0C0C0" stroke="none" d="M 353 271 L 437 271 Q 447 271 447 281 L 447 301 Q 447 311 437 311 L 353 311 Q 343 311 343 301 L 343 281 Q 343 271 353 271 Z" opacity="0.2"/></g><g transform="translate(-174,-6) scale(1,1)"><path fill="#ffffff" stroke="none" d="M 346 264 L 430 264 Q 440 264 440 274 L 440 294 Q 440 304 430 304 L 346 304 Q 336 304 336 294 L 336 274 Q 336 264 346 264 Z"/></g><g transform="translate(-174,-6) scale(1,1)"><path fill="none" stroke="#000000" d="M 346 264 L 430 264 Q 440 264 440 274 L 440 294 Q 440 304 430 304 L 346 304 Q 336 304 336 294 L 336 274 Q 336 264 346 264 Z" stroke-miterlimit="10"/></g><g transform="translate(-174,-6) scale(1,1)"><g><path fill="none" stroke="none"/><text fill="#000000" stroke="none" font-family="Arial" font-size="13px" font-style="normal" font-weight="bold" text-decoration="none" x="349" y="283.5">查看个人信息</text></g></g><g transform="translate(-174,-6) scale(1,1)"><path fill="#C0C0C0" stroke="none" d="M 265 439 L 317 439 Q 327 439 327 449 L 327 469 Q 327 479 317 479 L 265 479 Q 255 479 255 469 L 255 449 Q 255 439 265 439 Z" opacity="0.2"/></g><g transform="translate(-174,-6) scale(1,1)"><path fill="#ffffff" stroke="none" d="M 258 432 L 310 432 Q 320 432 320 442 L 320 462 Q 320 472 310 472 L 258 472 Q 248 472 248 462 L 248 442 Q 248 432 258 432 Z"/></g><g transform="translate(-174,-6) scale(1,1)"><path fill="none" stroke="#000000" d="M 258 432 L 310 432 Q 320 432 320 442 L 320 462 Q 320 472 310 472 L 258 472 Q 248 472 248 462 L 248 442 Q 248 432 258 432 Z" stroke-miterlimit="10"/></g><g transform="translate(-174,-6) scale(1,1)"><g><path fill="none" stroke="none"/><text fill="#000000" stroke="none" font-family="Arial" font-size="13px" font-style="normal" font-weight="bold" text-decoration="none" x="258" y="451.5">上传头像</text></g></g><g transform="translate(-174,-6) scale(1,1)"><path fill="#C0C0C0" stroke="none" d="M 473 439 L 525 439 Q 535 439 535 449 L 535 469 Q 535 479 525 479 L 473 479 Q 463 479 463 469 L 463 449 Q 463 439 473 439 Z" opacity="0.2"/></g><g transform="translate(-174,-6) scale(1,1)"><path fill="#ffffff" stroke="none" d="M 466 432 L 518 432 Q 528 432 528 442 L 528 462 Q 528 472 518 472 L 466 472 Q 456 472 456 462 L 456 442 Q 456 432 466 432 Z"/></g><g transform="translate(-174,-6) scale(1,1)"><path fill="none" stroke="#000000" d="M 466 432 L 518 432 Q 528 432 528 442 L 528 462 Q 528 472 518 472 L 466 472 Q 456 472 456 462 L 456 442 Q 456 432 466 432 Z" stroke-miterlimit="10"/></g><g transform="translate(-174,-6) scale(1,1)"><g><path fill="none" stroke="none"/><text fill="#000000" stroke="none" font-family="Arial" font-size="13px" font-style="normal" font-weight="bold" text-decoration="none" x="466" y="451.5">输入城市</text></g></g><g transform="translate(-174,-6) scale(1,1)"><path fill="#C0C0C0" stroke="none" d="M 369 439 L 420 439 Q 430 439 430 449 L 430 469 Q 430 479 420 479 L 369 479 Q 359 479 359 469 L 359 449 Q 359 439 369 439 Z" opacity="0.2"/></g><g transform="translate(-174,-6) scale(1,1)"><path fill="#ffffff" stroke="none" d="M 362 432 L 413 432 Q 423 432 423 442 L 423 462 Q 423 472 413 472 L 362 472 Q 352 472 352 462 L 352 442 Q 352 432 362 432 Z"/></g><g transform="translate(-174,-6) scale(1,1)"><path fill="none" stroke="#000000" d="M 362 432 L 413 432 Q 423 432 423 442 L 423 462 Q 423 472 413 472 L 362 472 Q 352 472 352 462 L 352 442 Q 352 432 362 432 Z" stroke-miterlimit="10"/></g><g transform="translate(-174,-6) scale(1,1)"><g><path fill="none" stroke="none"/><text fill="#000000" stroke="none" font-family="Arial" font-size="13px" font-style="normal" font-weight="bold" text-decoration="none" x="361.5" y="451.5">输入昵称</text></g></g><g transform="translate(-174,-6) scale(1,1)"><path fill="none" stroke="#000000" d="M 280 381 L 280 432" stroke-miterlimit="10"/></g><g transform="translate(-174,-6) scale(1,1)"><path fill="none" stroke="#000000" d="M 275.790482243984 421.83732514237585 L 280 432 L 284.209517756016 421.83732514237585" stroke-miterlimit="10"/></g><g transform="translate(-174,-6) scale(1,1)"><path fill="none" stroke="#000000" d="M 388 381 L 388 432" stroke-miterlimit="10"/></g><g transform="translate(-174,-6) scale(1,1)"><path fill="none" stroke="#000000" d="M 383.790482243984 421.83732514237585 L 388 432 L 392.209517756016 421.83732514237585" stroke-miterlimit="10"/></g><g transform="translate(-174,-6) scale(1,1)"><path fill="none" stroke="#000000" d="M 488 381 L 488 432" stroke-miterlimit="10"/></g><g transform="translate(-174,-6) scale(1,1)"><path fill="none" stroke="#000000" d="M 483.790482243984 421.83732514237585 L 488 432 L 492.209517756016 421.83732514237585" stroke-miterlimit="10"/></g><g transform="translate(-174,-6) scale(1,1)"><path fill="none" stroke="#000000" d="M 392 304 L 392 376" stroke-miterlimit="10"/></g><g transform="translate(-174,-6) scale(1,1)"><path fill="none" stroke="#000000" d="M 387.790482243984 365.83732514237585 L 392 376 L 396.209517756016 365.83732514237585" stroke-miterlimit="10"/></g><g transform="translate(-174,-6) scale(1,1)"><path fill="#C0C0C0" stroke="none" d="M 250 519 L 539 519 Q 542 519 542 522 L 542 521 Q 542 524 539 524 L 250 524 Q 247 524 247 521 L 247 522 Q 247 519 250 519 Z" opacity="0.2"/></g><g transform="translate(-174,-6) scale(1,1)"><path fill="#000000" stroke="none" d="M 243 512 L 532 512 Q 535 512 535 515 L 535 515 Q 535 518 532 518 L 243 518 Q 240 518 240 515 L 240 515 Q 240 512 243 512 Z"/></g><g transform="translate(-174,-6) scale(1,1)"><path fill="none" stroke="#000000" d="M 280 472 L 280 512" stroke-miterlimit="10"/></g><g transform="translate(-174,-6) scale(1,1)"><path fill="none" stroke="#000000" d="M 275.790482243984 501.83732514237585 L 280 512 L 284.209517756016 501.83732514237585" stroke-miterlimit="10"/></g><g transform="translate(-174,-6) scale(1,1)"><path fill="none" stroke="#000000" d="M 387 472 L 387 512" stroke-miterlimit="10"/></g><g transform="translate(-174,-6) scale(1,1)"><path fill="none" stroke="#000000" d="M 382.790482243984 501.83732514237585 L 387 512 L 391.209517756016 501.83732514237585" stroke-miterlimit="10"/></g><g transform="translate(-174,-6) scale(1,1)"><path fill="none" stroke="#000000" d="M 488 472 L 488 512" stroke-miterlimit="10"/></g><g transform="translate(-174,-6) scale(1,1)"><path fill="none" stroke="#000000" d="M 483.790482243984 501.83732514237585 L 488 512 L 492.209517756016 501.83732514237585" stroke-miterlimit="10"/></g><g transform="translate(-174,-6) scale(1,1)"><path fill="none" stroke="#000000" d="M 368 589 L 272 589 L 272 624" stroke-miterlimit="10"/></g><g transform="translate(-174,-6) scale(1,1)"><path fill="none" stroke="#000000" d="M 267.790482243984 613.8373251423759 L 272 624 L 276.209517756016 613.8373251423759" stroke-miterlimit="10"/></g><g transform="translate(-174,-6) scale(1,1)"><g><path fill="none" stroke="none"/><text fill="#000000" stroke="none" font-family="Arial" font-size="13px" font-style="normal" font-weight="normal" text-decoration="none" x="286.5" y="580.5">点击确认更改</text></g></g><g transform="translate(-174,-6) scale(1,1)"><path fill="#C0C0C0" stroke="none" d="M 337 111 L 456 111 Q 466 111 466 121 L 466 141 Q 466 151 456 151 L 337 151 Q 327 151 327 141 L 327 121 Q 327 111 337 111 Z" opacity="0.2"/></g><g transform="translate(-174,-6) scale(1,1)"><path fill="#ffffff" stroke="none" d="M 330 104 L 449 104 Q 459 104 459 114 L 459 134 Q 459 144 449 144 L 330 144 Q 320 144 320 134 L 320 114 Q 320 104 330 104 Z"/></g><g transform="translate(-174,-6) scale(1,1)"><path fill="none" stroke="#000000" d="M 330 104 L 449 104 Q 459 104 459 114 L 459 134 Q 459 144 449 144 L 330 144 Q 320 144 320 134 L 320 114 Q 320 104 330 104 Z" stroke-miterlimit="10"/></g><g transform="translate(-174,-6) scale(1,1)"><g><path fill="none" stroke="none"/><text fill="#000000" stroke="none" font-family="Arial" font-size="13px" font-style="normal" font-weight="bold" text-decoration="none" x="324.5" y="123.5">点击进入个人信息界面</text></g></g><g transform="translate(-174,-6) scale(1,1)"><path fill="#C0C0C0" stroke="none" d="M 391 72.5 C 391 67.2532944 395.2532944 63 400.5 63 C 405.7467056 63 410 67.2532944 410 72.5 C 410 77.7467056 405.7467056 82 400.5 82 C 395.2532944 82 391 77.7467056 391 72.5 Z" opacity="0.2"/></g><g transform="translate(-174,-6) scale(1,1)"><path fill="#000000" stroke="none" d="M 384 65.5 C 384 60.2532944 388.2532944 56 393.5 56 C 398.7467056 56 403 60.2532944 403 65.5 C 403 70.7467056 398.7467056 75 393.5 75 C 388.2532944 75 384 70.7467056 384 65.5 Z"/></g><g transform="translate(-174,-6) scale(1,1)"><path fill="#C0C0C0" stroke="none" d="M 391 192.5 L 402.5 183 L 413 192.5 L 402.5 201 L 391 192.5" opacity="0.2"/></g><g transform="translate(-174,-6) scale(1,1)"><path fill="#ffffff" stroke="none" d="M 384 185 L 395 176 L 406 185 L 395 194 L 384 185"/></g><g transform="translate(-174,-6) scale(1,1)"><path fill="none" stroke="#000000" d="M 384 185 L 395 176 L 406 185 L 395 194 L 384 185 L 384 185" stroke-miterlimit="10"/></g><g transform="translate(-174,-6) scale(1,1)"><path fill="none" stroke="#000000" d="M 392 194 L 392 264" stroke-miterlimit="10"/></g><g transform="translate(-174,-6) scale(1,1)"><path fill="none" stroke="#000000" d="M 387.790482243984 253.83732514237585 L 392 264 L 396.209517756016 253.83732514237585" stroke-miterlimit="10"/></g><g transform="translate(-174,-6) scale(1,1)"><g><path fill="none" stroke="none"/><text fill="#000000" stroke="none" font-family="Arial" font-size="13px" font-style="normal" font-weight="normal" text-decoration="none" x="311.5" y="219.5">用户已登录</text></g></g><g transform="translate(-174,-6) scale(1,1)"><path fill="#C0C0C0" stroke="none" d="M 607 323.5 C 607 316.59644 612.59644 311 619.5 311 C 626.40356 311 632 316.59644 632 323.5 C 632 330.40356 626.40356 336 619.5 336 C 612.59644 336 607 330.40356 607 323.5 Z" opacity="0.2"/></g><g transform="translate(-174,-6) scale(1,1)"><path fill="none" stroke="#000000" d="M 600 316.5 C 600 309.59644 605.59644 304 612.5 304 C 619.40356 304 625 309.59644 625 316.5 C 625 323.40356 619.40356 329 612.5 329 C 605.59644 329 600 323.40356 600 316.5 Z" stroke-miterlimit="10"/></g><g transform="translate(-174,-6) scale(1,1)"><path fill="#000000" stroke="none" d="M 605 316.5 C 605 312.357864 608.357864 309 612.5 309 C 616.642136 309 620 312.357864 620 316.5 C 620 320.642136 616.642136 324 612.5 324 C 608.357864 324 605 320.642136 605 316.5 Z"/></g><g transform="translate(-174,-6) scale(1,1)"><path fill="#C0C0C0" stroke="none" d="M 250 383 L 540 383 Q 543 383 543 386 L 543 385 Q 543 388 540 388 L 250 388 Q 247 388 247 385 L 247 386 Q 247 383 250 383 Z" opacity="0.2"/></g><g transform="translate(-174,-6) scale(1,1)"><path fill="#000000" stroke="none" d="M 243 376 L 533 376 Q 536 376 536 379 L 536 379 Q 536 382 533 382 L 243 382 Q 240 382 240 379 L 240 379 Q 240 376 243 376 Z"/></g><g transform="translate(-174,-6) scale(1,1)"><path fill="none" stroke="#000000" d="M 387 517 L 387 576" stroke-miterlimit="10"/></g><g transform="translate(-174,-6) scale(1,1)"><path fill="none" stroke="#000000" d="M 382.790482243984 565.8373251423759 L 387 576 L 391.209517756016 565.8373251423759" stroke-miterlimit="10"/></g><g transform="translate(-174,-6) scale(1,1)"><path fill="#C0C0C0" stroke="none" d="M 383 704.5 L 394.5 695 L 405 704.5 L 394.5 713 L 383 704.5" opacity="0.2"/></g><g transform="translate(-174,-6) scale(1,1)"><path fill="#ffffff" stroke="none" d="M 376 697 L 387 688 L 398 697 L 387 706 L 376 697"/></g><g transform="translate(-174,-6) scale(1,1)"><path fill="none" stroke="#000000" d="M 376 697 L 387 688 L 398 697 L 387 706 L 376 697 L 376 697" stroke-miterlimit="10"/></g><g transform="translate(-174,-6) scale(1,1)"><path fill="#C0C0C0" stroke="none" d="M 375 596.5 L 389.5 583 L 403 596.5 L 389.5 609 L 375 596.5" opacity="0.2"/></g><g transform="translate(-174,-6) scale(1,1)"><path fill="#ffffff" stroke="none" d="M 368 589 L 382 576 L 396 589 L 382 602 L 368 589"/></g><g transform="translate(-174,-6) scale(1,1)"><path fill="none" stroke="#000000" d="M 368 589 L 382 576 L 396 589 L 382 602 L 368 589 L 368 589" stroke-miterlimit="10"/></g><g transform="translate(-174,-6) scale(1,1)"><path fill="none" stroke="#000000" d="M 396 584 L 496 584 L 496 697 L 398 697" stroke-miterlimit="10"/></g><g transform="translate(-174,-6) scale(1,1)"><path fill="none" stroke="#000000" d="M 408.16267485762415 692.790482243984 L 398 697 L 408.16267485762415 701.209517756016" stroke-miterlimit="10"/></g><g transform="translate(-174,-6) scale(1,1)"><g><path fill="none" stroke="none"/><text fill="#000000" stroke="none" font-family="Arial" font-size="13px" font-style="normal" font-weight="normal" text-decoration="none" x="398.5" y="579.5">退出当前界面</text></g></g><g transform="translate(-174,-6) scale(1,1)"><path fill="#C0C0C0" stroke="none" d="M 383 771.5 C 383 764.59644 388.59644 759 395.5 759 C 402.40356 759 408 764.59644 408 771.5 C 408 778.40356 402.40356 784 395.5 784 C 388.59644 784 383 778.40356 383 771.5 Z" opacity="0.2"/></g><g transform="translate(-174,-6) scale(1,1)"><path fill="none" stroke="#000000" d="M 376 764.5 C 376 757.59644 381.59644 752 388.5 752 C 395.40356 752 401 757.59644 401 764.5 C 401 771.40356 395.40356 777 388.5 777 C 381.59644 777 376 771.40356 376 764.5 Z" stroke-miterlimit="10"/></g><g transform="translate(-174,-6) scale(1,1)"><path fill="#000000" stroke="none" d="M 381 764.5 C 381 760.357864 384.357864 757 388.5 757 C 392.642136 757 396 760.357864 396 764.5 C 396 768.642136 392.642136 772 388.5 772 C 384.357864 772 381 768.642136 381 764.5 Z"/></g><g transform="translate(-174,-6) scale(1,1)"><path fill="none" stroke="#000000" d="M 389 706 L 389 752" stroke-miterlimit="10"/></g><g transform="translate(-174,-6) scale(1,1)"><path fill="none" stroke="#000000" d="M 384.790482243984 741.8373251423759 L 389 752 L 393.209517756016 741.8373251423759" stroke-miterlimit="10"/></g><g transform="translate(-174,-6) scale(1,1)"><path fill="#C0C0C0" stroke="none" d="M 241 631 L 325 631 Q 335 631 335 641 L 335 661 Q 335 671 325 671 L 241 671 Q 231 671 231 661 L 231 641 Q 231 631 241 631 Z" opacity="0.2"/></g><g transform="translate(-174,-6) scale(1,1)"><path fill="#ffffff" stroke="none" d="M 234 624 L 318 624 Q 328 624 328 634 L 328 654 Q 328 664 318 664 L 234 664 Q 224 664 224 654 L 224 634 Q 224 624 234 624 Z"/></g><g transform="translate(-174,-6) scale(1,1)"><path fill="none" stroke="#000000" d="M 234 624 L 318 624 Q 328 624 328 634 L 328 654 Q 328 664 318 664 L 234 664 Q 224 664 224 654 L 224 634 Q 224 624 234 624 Z" stroke-miterlimit="10"/></g><g transform="translate(-174,-6) scale(1,1)"><g><path fill="none" stroke="none"/><text fill="#000000" stroke="none" font-family="Arial" font-size="13px" font-style="normal" font-weight="bold" text-decoration="none" x="237" y="643.5">更改个人信息</text></g></g><g transform="translate(-174,-6) scale(1,1)"><path fill="none" stroke="#000000" d="M 272 664 L 272 696 L 376 696" stroke-miterlimit="10"/></g><g transform="translate(-174,-6) scale(1,1)"><path fill="none" stroke="#000000" d="M 365.83732514237585 700.209517756016 L 376 696 L 365.83732514237585 691.790482243984" stroke-miterlimit="10"/></g></g></svg>