<svg version="1.1" xmlns="http://www.w3.org/2000/svg" xmlns:xlink="http://www.w3.org/1999/xlink" width="1004" height="876"><defs/><g><g transform="translate(-22,-30) scale(1,1)"><rect fill="#ffffff" stroke="none" x="32" y="40" width="424" height="21"/></g><g transform="translate(-22,-30) scale(1,1)"><path fill="none" stroke="#000000" d="M 32 40 L 456 40 L 456 61 L 32 61 L 32 40 Z Z" stroke-miterlimit="10" stroke-width="2"/></g><g transform="translate(-22,-30) scale(1,1)"><path fill="none" stroke="#000000" d="M 32 896 L 32 40 L 456 40 L 456 896" stroke-miterlimit="10" stroke-width="2"/></g><g transform="translate(-22,-30) scale(1,1)"><g><path fill="none" stroke="none"/><text fill="#000000" stroke="none" font-family="Arial" font-size="13px" font-style="normal" font-weight="normal" text-decoration="none" x="231" y="57">游客</text></g></g><g transform="translate(-22,-30) scale(1,1)"><rect fill="#ffffff" stroke="none" x="456" y="40" width="304" height="21"/></g><g transform="translate(-22,-30) scale(1,1)"><path fill="none" stroke="#000000" d="M 456 40 L 760 40 L 760 61 L 456 61 L 456 40 Z Z" stroke-miterlimit="10" stroke-width="2"/></g><g transform="translate(-22,-30) scale(1,1)"><path fill="none" stroke="#000000" d="M 456 896 L 456 40 L 760 40 L 760 896" stroke-miterlimit="10" stroke-width="2"/></g><g transform="translate(-22,-30) scale(1,1)"><g><path fill="none" stroke="none"/><text fill="#000000" stroke="none" font-family="Arial" font-size="13px" font-style="normal" font-weight="normal" text-decoration="none" x="575.5" y="57">登录控制类</text></g></g><g transform="translate(-22,-30) scale(1,1)"><path fill="#C0C0C0" stroke="none" d="M 215 120.5 C 215 115.2532944 219.2532944 111 224.5 111 C 229.7467056 111 234 115.2532944 234 120.5 C 234 125.7467056 229.7467056 130 224.5 130 C 219.2532944 130 215 125.7467056 215 120.5 Z" opacity="0.2"/></g><g transform="translate(-22,-30) scale(1,1)"><path fill="#000000" stroke="none" d="M 208 113.5 C 208 108.2532944 212.2532944 104 217.5 104 C 222.7467056 104 227 108.2532944 227 113.5 C 227 118.7467056 222.7467056 123 217.5 123 C 212.2532944 123 208 118.7467056 208 113.5 Z"/></g><g transform="translate(-22,-30) scale(1,1)"><path fill="#C0C0C0" stroke="none" d="M 193 159 L 260 159 Q 270 159 270 169 L 270 189 Q 270 199 260 199 L 193 199 Q 183 199 183 189 L 183 169 Q 183 159 193 159 Z" opacity="0.2"/></g><g transform="translate(-22,-30) scale(1,1)"><path fill="#ffffff" stroke="none" d="M 186 152 L 253 152 Q 263 152 263 162 L 263 182 Q 263 192 253 192 L 186 192 Q 176 192 176 182 L 176 162 Q 176 152 186 152 Z"/></g><g transform="translate(-22,-30) scale(1,1)"><path fill="none" stroke="#000000" d="M 186 152 L 253 152 Q 263 152 263 162 L 263 182 Q 263 192 253 192 L 186 192 Q 176 192 176 182 L 176 162 Q 176 152 186 152 Z" stroke-miterlimit="10"/></g><g transform="translate(-22,-30) scale(1,1)"><g><path fill="none" stroke="none"/><text fill="#000000" stroke="none" font-family="Arial" font-size="13px" font-style="normal" font-weight="bold" text-decoration="none" x="180.5" y="171.5">进入登录界面</text></g></g><g transform="translate(-22,-30) scale(1,1)"><path fill="none" stroke="#000000" d="M 217 123 L 217 152" stroke-miterlimit="10"/></g><g transform="translate(-22,-30) scale(1,1)"><path fill="none" stroke="#000000" d="M 212.790482243984 141.83732514237585 L 217 152 L 221.209517756016 141.83732514237585" stroke-miterlimit="10"/></g><g transform="translate(-22,-30) scale(1,1)"><path fill="#C0C0C0" stroke="none" d="M 215 232.5 L 226.5 223 L 237 232.5 L 226.5 241 L 215 232.5" opacity="0.2"/></g><g transform="translate(-22,-30) scale(1,1)"><path fill="#ffffff" stroke="none" d="M 208 225 L 219 216 L 230 225 L 219 234 L 208 225"/></g><g transform="translate(-22,-30) scale(1,1)"><path fill="none" stroke="#000000" d="M 208 225 L 219 216 L 230 225 L 219 234 L 208 225 L 208 225" stroke-miterlimit="10"/></g><g transform="translate(-22,-30) scale(1,1)"><path fill="#C0C0C0" stroke="none" d="M 305 255 L 398 255 Q 408 255 408 265 L 408 285 Q 408 295 398 295 L 305 295 Q 295 295 295 285 L 295 265 Q 295 255 305 255 Z" opacity="0.2"/></g><g transform="translate(-22,-30) scale(1,1)"><path fill="#ffffff" stroke="none" d="M 298 248 L 391 248 Q 401 248 401 258 L 401 278 Q 401 288 391 288 L 298 288 Q 288 288 288 278 L 288 258 Q 288 248 298 248 Z"/></g><g transform="translate(-22,-30) scale(1,1)"><path fill="none" stroke="#000000" d="M 298 248 L 391 248 Q 401 248 401 258 L 401 278 Q 401 288 391 288 L 298 288 Q 288 288 288 278 L 288 258 Q 288 248 298 248 Z" stroke-miterlimit="10"/></g><g transform="translate(-22,-30) scale(1,1)"><g><path fill="none" stroke="none"/><text fill="#000000" stroke="none" font-family="Arial" font-size="13px" font-style="normal" font-weight="bold" text-decoration="none" x="301.1708984375" y="267.5">点击“找回密码”</text></g></g><g transform="translate(-22,-30) scale(1,1)"><path fill="#C0C0C0" stroke="none" d="M 103 339.5 C 103 332.59644 108.59644 327 115.5 327 C 122.40356 327 128 332.59644 128 339.5 C 128 346.40356 122.40356 352 115.5 352 C 108.59644 352 103 346.40356 103 339.5 Z" opacity="0.2"/></g><g transform="translate(-22,-30) scale(1,1)"><path fill="none" stroke="#000000" d="M 96 332.5 C 96 325.59644 101.59644 320 108.5 320 C 115.40356 320 121 325.59644 121 332.5 C 121 339.40356 115.40356 345 108.5 345 C 101.59644 345 96 339.40356 96 332.5 Z" stroke-miterlimit="10"/></g><g transform="translate(-22,-30) scale(1,1)"><path fill="#000000" stroke="none" d="M 101 332.5 C 101 328.357864 104.357864 325 108.5 325 C 112.642136 325 116 328.357864 116 332.5 C 116 336.642136 112.642136 340 108.5 340 C 104.357864 340 101 336.642136 101 332.5 Z"/></g><g transform="translate(-22,-30) scale(1,1)"><path fill="#C0C0C0" stroke="none" d="M 335 339.5 C 335 332.59644 340.59644 327 347.5 327 C 354.40356 327 360 332.59644 360 339.5 C 360 346.40356 354.40356 352 347.5 352 C 340.59644 352 335 346.40356 335 339.5 Z" opacity="0.2"/></g><g transform="translate(-22,-30) scale(1,1)"><path fill="none" stroke="#000000" d="M 328 332.5 C 328 325.59644 333.59644 320 340.5 320 C 347.40356 320 353 325.59644 353 332.5 C 353 339.40356 347.40356 345 340.5 345 C 333.59644 345 328 339.40356 328 332.5 Z" stroke-miterlimit="10"/></g><g transform="translate(-22,-30) scale(1,1)"><path fill="#000000" stroke="none" d="M 333 332.5 C 333 328.357864 336.357864 325 340.5 325 C 344.642136 325 348 328.357864 348 332.5 C 348 336.642136 344.642136 340 340.5 340 C 336.357864 340 333 336.642136 333 332.5 Z"/></g><g transform="translate(-22,-30) scale(1,1)"><path fill="none" stroke="#000000" d="M 106 288 L 106 320" stroke-miterlimit="10"/></g><g transform="translate(-22,-30) scale(1,1)"><path fill="none" stroke="#000000" d="M 101.79048224398402 309.83732514237585 L 106 320 L 110.20951775601598 309.83732514237585" stroke-miterlimit="10"/></g><g transform="translate(-22,-30) scale(1,1)"><path fill="none" stroke="#000000" d="M 341 288 L 341 320" stroke-miterlimit="10"/></g><g transform="translate(-22,-30) scale(1,1)"><path fill="none" stroke="#000000" d="M 336.790482243984 309.83732514237585 L 341 320 L 345.209517756016 309.83732514237585" stroke-miterlimit="10"/></g><g transform="translate(-22,-30) scale(1,1)"><path fill="none" stroke="#000000" d="M 219 193 L 219 215" stroke-miterlimit="10"/></g><g transform="translate(-22,-30) scale(1,1)"><path fill="none" stroke="#000000" d="M 214.790482243984 204.83732514237585 L 219 215 L 223.209517756016 204.83732514237585" stroke-miterlimit="10"/></g><g transform="translate(-22,-30) scale(1,1)"><path fill="none" stroke="#000000" d="M 208 225 L 112 225 L 112 248" stroke-miterlimit="10"/></g><g transform="translate(-22,-30) scale(1,1)"><path fill="none" stroke="#000000" d="M 107.79048224398402 237.83732514237585 L 112 248 L 116.20951775601598 237.83732514237585" stroke-miterlimit="10"/></g><g transform="translate(-22,-30) scale(1,1)"><path fill="none" stroke="#000000" d="M 230 225 L 344 225 L 344 248" stroke-miterlimit="10"/></g><g transform="translate(-22,-30) scale(1,1)"><path fill="none" stroke="#000000" d="M 339.790482243984 237.83732514237585 L 344 248 L 348.209517756016 237.83732514237585" stroke-miterlimit="10"/></g><g transform="translate(-22,-30) scale(1,1)"><path fill="#C0C0C0" stroke="none" d="M 89 255 L 156 255 Q 166 255 166 265 L 166 285 Q 166 295 156 295 L 89 295 Q 79 295 79 285 L 79 265 Q 79 255 89 255 Z" opacity="0.2"/></g><g transform="translate(-22,-30) scale(1,1)"><path fill="#ffffff" stroke="none" d="M 82 248 L 149 248 Q 159 248 159 258 L 159 278 Q 159 288 149 288 L 82 288 Q 72 288 72 278 L 72 258 Q 72 248 82 248 Z"/></g><g transform="translate(-22,-30) scale(1,1)"><path fill="none" stroke="#000000" d="M 82 248 L 149 248 Q 159 248 159 258 L 159 278 Q 159 288 149 288 L 82 288 Q 72 288 72 278 L 72 258 Q 72 248 82 248 Z" stroke-miterlimit="10"/></g><g transform="translate(-22,-30) scale(1,1)"><g><path fill="none" stroke="none"/><text fill="#000000" stroke="none" font-family="Arial" font-size="13px" font-style="normal" font-weight="bold" text-decoration="none" x="85.1708984375" y="267.5">点击“注册”</text></g></g><g transform="translate(-22,-30) scale(1,1)"><path fill="#C0C0C0" stroke="none" d="M 215 408.5 L 226.5 399 L 237 408.5 L 226.5 417 L 215 408.5" opacity="0.2"/></g><g transform="translate(-22,-30) scale(1,1)"><path fill="#ffffff" stroke="none" d="M 208 401 L 219 392 L 230 401 L 219 410 L 208 401"/></g><g transform="translate(-22,-30) scale(1,1)"><path fill="none" stroke="#000000" d="M 208 401 L 219 392 L 230 401 L 219 410 L 208 401 L 208 401" stroke-miterlimit="10"/></g><g transform="translate(-22,-30) scale(1,1)"><path fill="none" stroke="#000000" d="M 219 234 L 219 392" stroke-miterlimit="10"/></g><g transform="translate(-22,-30) scale(1,1)"><path fill="none" stroke="#000000" d="M 214.790482243984 381.83732514237585 L 219 392 L 223.209517756016 381.83732514237585" stroke-miterlimit="10"/></g><g transform="translate(-22,-30) scale(1,1)"><path fill="#C0C0C0" stroke="none" d="M 673 463 L 727 463 Q 737 463 737 473 L 737 493 Q 737 503 727 503 L 673 503 Q 663 503 663 493 L 663 473 Q 663 463 673 463 Z" opacity="0.2"/></g><g transform="translate(-22,-30) scale(1,1)"><path fill="#ffffff" stroke="none" d="M 666 456 L 720 456 Q 730 456 730 466 L 730 486 Q 730 496 720 496 L 666 496 Q 656 496 656 486 L 656 466 Q 656 456 666 456 Z"/></g><g transform="translate(-22,-30) scale(1,1)"><path fill="none" stroke="#000000" d="M 666 456 L 720 456 Q 730 456 730 466 L 730 486 Q 730 496 720 496 L 666 496 Q 656 496 656 486 L 656 466 Q 656 456 666 456 Z" stroke-miterlimit="10"/></g><g transform="translate(-22,-30) scale(1,1)"><g><path fill="none" stroke="none"/><text fill="#000000" stroke="none" font-family="Arial" font-size="13px" font-style="normal" font-weight="bold" text-decoration="none" x="660.5" y="475.5">发送验证码</text></g></g><g transform="translate(-22,-30) scale(1,1)"><path fill="#C0C0C0" stroke="none" d="M 353 391 L 407 391 Q 417 391 417 401 L 417 421 Q 417 431 407 431 L 353 431 Q 343 431 343 421 L 343 401 Q 343 391 353 391 Z" opacity="0.2"/></g><g transform="translate(-22,-30) scale(1,1)"><path fill="#ffffff" stroke="none" d="M 346 384 L 400 384 Q 410 384 410 394 L 410 414 Q 410 424 400 424 L 346 424 Q 336 424 336 414 L 336 394 Q 336 384 346 384 Z"/></g><g transform="translate(-22,-30) scale(1,1)"><path fill="none" stroke="#000000" d="M 346 384 L 400 384 Q 410 384 410 394 L 410 414 Q 410 424 400 424 L 346 424 Q 336 424 336 414 L 336 394 Q 336 384 346 384 Z" stroke-miterlimit="10"/></g><g transform="translate(-22,-30) scale(1,1)"><g><path fill="none" stroke="none"/><text fill="#000000" stroke="none" font-family="Arial" font-size="13px" font-style="normal" font-weight="bold" text-decoration="none" x="340.5" y="403.5">填写手机号</text></g></g><g transform="translate(-22,-30) scale(1,1)"><path fill="none" stroke="#000000" d="M 230 403 L 336 403" stroke-miterlimit="10"/></g><g transform="translate(-22,-30) scale(1,1)"><path fill="none" stroke="#000000" d="M 325.83732514237585 407.209517756016 L 336 403 L 325.83732514237585 398.790482243984" stroke-miterlimit="10"/></g><g transform="translate(-22,-30) scale(1,1)"><path fill="#C0C0C0" stroke="none" d="M 233 607 L 287 607 Q 297 607 297 617 L 297 637 Q 297 647 287 647 L 233 647 Q 223 647 223 637 L 223 617 Q 223 607 233 607 Z" opacity="0.2"/></g><g transform="translate(-22,-30) scale(1,1)"><path fill="#ffffff" stroke="none" d="M 226 600 L 280 600 Q 290 600 290 610 L 290 630 Q 290 640 280 640 L 226 640 Q 216 640 216 630 L 216 610 Q 216 600 226 600 Z"/></g><g transform="translate(-22,-30) scale(1,1)"><path fill="none" stroke="#000000" d="M 226 600 L 280 600 Q 290 600 290 610 L 290 630 Q 290 640 280 640 L 226 640 Q 216 640 216 630 L 216 610 Q 216 600 226 600 Z" stroke-miterlimit="10"/></g><g transform="translate(-22,-30) scale(1,1)"><g><path fill="none" stroke="none"/><text fill="#000000" stroke="none" font-family="Arial" font-size="13px" font-style="normal" font-weight="bold" text-decoration="none" x="220.5" y="619.5">填写验证码</text></g></g><g transform="translate(-22,-30) scale(1,1)"><path fill="#C0C0C0" stroke="none" d="M 583 408.5 L 594.5 399 L 605 408.5 L 594.5 417 L 583 408.5" opacity="0.2"/></g><g transform="translate(-22,-30) scale(1,1)"><path fill="#ffffff" stroke="none" d="M 576 401 L 587 392 L 598 401 L 587 410 L 576 401"/></g><g transform="translate(-22,-30) scale(1,1)"><path fill="none" stroke="#000000" d="M 576 401 L 587 392 L 598 401 L 587 410 L 576 401 L 576 401" stroke-miterlimit="10"/></g><g transform="translate(-22,-30) scale(1,1)"><path fill="none" stroke="#000000" d="M 538 456 L 538 403 L 576 403" stroke-miterlimit="10"/></g><g transform="translate(-22,-30) scale(1,1)"><path fill="none" stroke="#000000" d="M 565.8373251423759 407.209517756016 L 576 403 L 565.8373251423758 398.790482243984" stroke-miterlimit="10"/></g><g transform="translate(-22,-30) scale(1,1)"><path fill="none" stroke="#000000" d="M 512 184 L 263 184" stroke-miterlimit="10"/></g><g transform="translate(-22,-30) scale(1,1)"><path fill="none" stroke="#000000" d="M 273.16267485762415 179.790482243984 L 263 184 L 273.16267485762415 188.209517756016" stroke-miterlimit="10"/></g><g transform="translate(-22,-30) scale(1,1)"><path fill="none" stroke="#000000" d="M 587 410 L 587 480 L 656 480" stroke-miterlimit="10"/></g><g transform="translate(-22,-30) scale(1,1)"><path fill="none" stroke="#000000" d="M 645.8373251423759 484.209517756016 L 656 480 L 645.8373251423758 475.790482243984" stroke-miterlimit="10"/></g><g transform="translate(-22,-30) scale(1,1)"><path fill="#C0C0C0" stroke="none" d="M 481 463 L 561 463 Q 571 463 571 473 L 571 493 Q 571 503 561 503 L 481 503 Q 471 503 471 493 L 471 473 Q 471 463 481 463 Z" opacity="0.2"/></g><g transform="translate(-22,-30) scale(1,1)"><path fill="#ffffff" stroke="none" d="M 474 456 L 554 456 Q 564 456 564 466 L 564 486 Q 564 496 554 496 L 474 496 Q 464 496 464 486 L 464 466 Q 464 456 474 456 Z"/></g><g transform="translate(-22,-30) scale(1,1)"><path fill="none" stroke="#000000" d="M 474 456 L 554 456 Q 564 456 564 466 L 564 486 Q 564 496 554 496 L 474 496 Q 464 496 464 486 L 464 466 Q 464 456 474 456 Z" stroke-miterlimit="10"/></g><g transform="translate(-22,-30) scale(1,1)"><g><path fill="none" stroke="none"/><text fill="#000000" stroke="none" font-family="Arial" font-size="13px" font-style="normal" font-weight="bold" text-decoration="none" x="468.5" y="475.5">查询手机号信息</text></g></g><g transform="translate(-22,-30) scale(1,1)"><path fill="#C0C0C0" stroke="none" d="M 58 447 L 204 447 Q 207 447 207 450 L 207 449 Q 207 452 204 452 L 58 452 Q 55 452 55 449 L 55 450 Q 55 447 58 447 Z" opacity="0.2"/></g><g transform="translate(-22,-30) scale(1,1)"><path fill="#000000" stroke="none" d="M 51 440 L 197 440 Q 200 440 200 443 L 200 443 Q 200 446 197 446 L 51 446 Q 48 446 48 443 L 48 443 Q 48 440 51 440 Z"/></g><g transform="translate(-22,-30) scale(1,1)"><path fill="#C0C0C0" stroke="none" d="M 65 503 L 119 503 Q 129 503 129 513 L 129 533 Q 129 543 119 543 L 65 543 Q 55 543 55 533 L 55 513 Q 55 503 65 503 Z" opacity="0.2"/></g><g transform="translate(-22,-30) scale(1,1)"><path fill="#ffffff" stroke="none" d="M 58 496 L 112 496 Q 122 496 122 506 L 122 526 Q 122 536 112 536 L 58 536 Q 48 536 48 526 L 48 506 Q 48 496 58 496 Z"/></g><g transform="translate(-22,-30) scale(1,1)"><path fill="none" stroke="#000000" d="M 58 496 L 112 496 Q 122 496 122 506 L 122 526 Q 122 536 112 536 L 58 536 Q 48 536 48 526 L 48 506 Q 48 496 58 496 Z" stroke-miterlimit="10"/></g><g transform="translate(-22,-30) scale(1,1)"><g><path fill="none" stroke="none"/><text fill="#000000" stroke="none" font-family="Arial" font-size="13px" font-style="normal" font-weight="bold" text-decoration="none" x="52.5" y="515.5">填写手机号</text></g></g><g transform="translate(-22,-30) scale(1,1)"><path fill="#C0C0C0" stroke="none" d="M 153 503 L 194 503 Q 204 503 204 513 L 204 533 Q 204 543 194 543 L 153 543 Q 143 543 143 533 L 143 513 Q 143 503 153 503 Z" opacity="0.2"/></g><g transform="translate(-22,-30) scale(1,1)"><path fill="#ffffff" stroke="none" d="M 146 496 L 187 496 Q 197 496 197 506 L 197 526 Q 197 536 187 536 L 146 536 Q 136 536 136 526 L 136 506 Q 136 496 146 496 Z"/></g><g transform="translate(-22,-30) scale(1,1)"><path fill="none" stroke="#000000" d="M 146 496 L 187 496 Q 197 496 197 506 L 197 526 Q 197 536 187 536 L 146 536 Q 136 536 136 526 L 136 506 Q 136 496 146 496 Z" stroke-miterlimit="10"/></g><g transform="translate(-22,-30) scale(1,1)"><g><path fill="none" stroke="none"/><text fill="#000000" stroke="none" font-family="Arial" font-size="13px" font-style="normal" font-weight="bold" text-decoration="none" x="140.5" y="515.5">填写密码</text></g></g><g transform="translate(-22,-30) scale(1,1)"><path fill="none" stroke="#000000" d="M 80 445 L 80 496" stroke-miterlimit="10"/></g><g transform="translate(-22,-30) scale(1,1)"><path fill="none" stroke="#000000" d="M 75.79048224398402 485.83732514237585 L 80 496 L 84.20951775601598 485.83732514237585" stroke-miterlimit="10"/></g><g transform="translate(-22,-30) scale(1,1)"><path fill="none" stroke="#000000" d="M 168 445 L 168 496" stroke-miterlimit="10"/></g><g transform="translate(-22,-30) scale(1,1)"><path fill="none" stroke="#000000" d="M 163.790482243984 485.83732514237585 L 168 496 L 172.209517756016 485.83732514237585" stroke-miterlimit="10"/></g><g transform="translate(-22,-30) scale(1,1)"><path fill="#C0C0C0" stroke="none" d="M 529 183 L 648 183 Q 658 183 658 193 L 658 213 Q 658 223 648 223 L 529 223 Q 519 223 519 213 L 519 193 Q 519 183 529 183 Z" opacity="0.2"/></g><g transform="translate(-22,-30) scale(1,1)"><path fill="#ffffff" stroke="none" d="M 522 176 L 641 176 Q 651 176 651 186 L 651 206 Q 651 216 641 216 L 522 216 Q 512 216 512 206 L 512 186 Q 512 176 522 176 Z"/></g><g transform="translate(-22,-30) scale(1,1)"><path fill="none" stroke="#000000" d="M 522 176 L 641 176 Q 651 176 651 186 L 651 206 Q 651 216 641 216 L 522 216 Q 512 216 512 206 L 512 186 Q 512 176 522 176 Z" stroke-miterlimit="10"/></g><g transform="translate(-22,-30) scale(1,1)"><g><path fill="none" stroke="none"/><text fill="#000000" stroke="none" font-family="Arial" font-size="13px" font-style="normal" font-weight="bold" text-decoration="none" x="542.5" y="195.5">显示错误信息</text></g></g><g transform="translate(-22,-30) scale(1,1)"><path fill="none" stroke="#000000" d="M 208 400 L 120 400 L 120 440" stroke-miterlimit="10"/></g><g transform="translate(-22,-30) scale(1,1)"><path fill="none" stroke="#000000" d="M 115.79048224398402 429.83732514237585 L 120 440 L 124.20951775601598 429.83732514237585" stroke-miterlimit="10"/></g><g transform="translate(-22,-30) scale(1,1)"><path fill="#C0C0C0" stroke="none" d="M 489 775 L 595 775 Q 605 775 605 785 L 605 805 Q 605 815 595 815 L 489 815 Q 479 815 479 805 L 479 785 Q 479 775 489 775 Z" opacity="0.2"/></g><g transform="translate(-22,-30) scale(1,1)"><path fill="#ffffff" stroke="none" d="M 482 768 L 588 768 Q 598 768 598 778 L 598 798 Q 598 808 588 808 L 482 808 Q 472 808 472 798 L 472 778 Q 472 768 482 768 Z"/></g><g transform="translate(-22,-30) scale(1,1)"><path fill="none" stroke="#000000" d="M 482 768 L 588 768 Q 598 768 598 778 L 598 798 Q 598 808 588 808 L 482 808 Q 472 808 472 798 L 472 778 Q 472 768 482 768 Z" stroke-miterlimit="10"/></g><g transform="translate(-22,-30) scale(1,1)"><g><path fill="none" stroke="none"/><text fill="#000000" stroke="none" font-family="Arial" font-size="13px" font-style="normal" font-weight="bold" text-decoration="none" x="476.5" y="787.5">验证验证码是否匹配</text></g></g><g transform="translate(-22,-30) scale(1,1)"><path fill="#C0C0C0" stroke="none" d="M 58 575 L 196 575 Q 199 575 199 578 L 199 577 Q 199 580 196 580 L 58 580 Q 55 580 55 577 L 55 578 Q 55 575 58 575 Z" opacity="0.2"/></g><g transform="translate(-22,-30) scale(1,1)"><path fill="#000000" stroke="none" d="M 51 568 L 189 568 Q 192 568 192 571 L 192 571 Q 192 574 189 574 L 51 574 Q 48 574 48 571 L 48 571 Q 48 568 51 568 Z"/></g><g transform="translate(-22,-30) scale(1,1)"><path fill="none" stroke="#000000" d="M 80 536 L 80 568" stroke-miterlimit="10"/></g><g transform="translate(-22,-30) scale(1,1)"><path fill="none" stroke="#000000" d="M 75.79048224398402 557.8373251423759 L 80 568 L 84.20951775601598 557.8373251423759" stroke-miterlimit="10"/></g><g transform="translate(-22,-30) scale(1,1)"><path fill="none" stroke="#000000" d="M 168 536 L 168 568" stroke-miterlimit="10"/></g><g transform="translate(-22,-30) scale(1,1)"><path fill="none" stroke="#000000" d="M 163.790482243984 557.8373251423759 L 168 568 L 172.209517756016 557.8373251423759" stroke-miterlimit="10"/></g><g transform="translate(-22,-30) scale(1,1)"><path fill="#C0C0C0" stroke="none" d="M 97 703 L 164 703 Q 174 703 174 713 L 174 733 Q 174 743 164 743 L 97 743 Q 87 743 87 733 L 87 713 Q 87 703 97 703 Z" opacity="0.2"/></g><g transform="translate(-22,-30) scale(1,1)"><path fill="#ffffff" stroke="none" d="M 90 696 L 157 696 Q 167 696 167 706 L 167 726 Q 167 736 157 736 L 90 736 Q 80 736 80 726 L 80 706 Q 80 696 90 696 Z"/></g><g transform="translate(-22,-30) scale(1,1)"><path fill="none" stroke="#000000" d="M 90 696 L 157 696 Q 167 696 167 706 L 167 726 Q 167 736 157 736 L 90 736 Q 80 736 80 726 L 80 706 Q 80 696 90 696 Z" stroke-miterlimit="10"/></g><g transform="translate(-22,-30) scale(1,1)"><g><path fill="none" stroke="none"/><text fill="#000000" stroke="none" font-family="Arial" font-size="13px" font-style="normal" font-weight="bold" text-decoration="none" x="93.1708984375" y="715.5">点击“登录”</text></g></g><g transform="translate(-22,-30) scale(1,1)"><path fill="#C0C0C0" stroke="none" d="M 233 775 L 300 775 Q 310 775 310 785 L 310 805 Q 310 815 300 815 L 233 815 Q 223 815 223 805 L 223 785 Q 223 775 233 775 Z" opacity="0.2"/></g><g transform="translate(-22,-30) scale(1,1)"><path fill="#ffffff" stroke="none" d="M 226 768 L 293 768 Q 303 768 303 778 L 303 798 Q 303 808 293 808 L 226 808 Q 216 808 216 798 L 216 778 Q 216 768 226 768 Z"/></g><g transform="translate(-22,-30) scale(1,1)"><path fill="none" stroke="#000000" d="M 226 768 L 293 768 Q 303 768 303 778 L 303 798 Q 303 808 293 808 L 226 808 Q 216 808 216 798 L 216 778 Q 216 768 226 768 Z" stroke-miterlimit="10"/></g><g transform="translate(-22,-30) scale(1,1)"><g><path fill="none" stroke="none"/><text fill="#000000" stroke="none" font-family="Arial" font-size="13px" font-style="normal" font-weight="bold" text-decoration="none" x="229.1708984375" y="787.5">点击“登录”</text></g></g><g transform="translate(-22,-30) scale(1,1)"><path fill="none" stroke="#000000" d="M 120 573 L 120 696" stroke-miterlimit="10"/></g><g transform="translate(-22,-30) scale(1,1)"><path fill="none" stroke="#000000" d="M 115.79048224398402 685.8373251423759 L 120 696 L 124.20951775601598 685.8373251423759" stroke-miterlimit="10"/></g><g transform="translate(-22,-30) scale(1,1)"><path fill="none" stroke="#000000" d="M 167 712 L 776 712 L 776 680 L 824 680" stroke-miterlimit="10"/></g><g transform="translate(-22,-30) scale(1,1)"><path fill="none" stroke="#000000" d="M 813.8373251423759 684.209517756016 L 824 680 L 813.8373251423758 675.790482243984" stroke-miterlimit="10"/></g><g transform="translate(-22,-30) scale(1,1)"><path fill="#C0C0C0" stroke="none" d="M 337 463 L 443 463 Q 453 463 453 473 L 453 493 Q 453 503 443 503 L 337 503 Q 327 503 327 493 L 327 473 Q 327 463 337 463 Z" opacity="0.2"/></g><g transform="translate(-22,-30) scale(1,1)"><path fill="#ffffff" stroke="none" d="M 330 456 L 436 456 Q 446 456 446 466 L 446 486 Q 446 496 436 496 L 330 496 Q 320 496 320 486 L 320 466 Q 320 456 330 456 Z"/></g><g transform="translate(-22,-30) scale(1,1)"><path fill="none" stroke="#000000" d="M 330 456 L 436 456 Q 446 456 446 466 L 446 486 Q 446 496 436 496 L 330 496 Q 320 496 320 486 L 320 466 Q 320 456 330 456 Z" stroke-miterlimit="10"/></g><g transform="translate(-22,-30) scale(1,1)"><g><path fill="none" stroke="none"/><text fill="#000000" stroke="none" font-family="Arial" font-size="13px" font-style="normal" font-weight="bold" text-decoration="none" x="333.1708984375" y="475.5">点击“发送验证码”</text></g></g><g transform="translate(-22,-30) scale(1,1)"><path fill="none" stroke="#000000" d="M 374 424 L 374 456" stroke-miterlimit="10"/></g><g transform="translate(-22,-30) scale(1,1)"><path fill="none" stroke="#000000" d="M 369.790482243984 445.83732514237585 L 374 456 L 378.209517756016 445.83732514237585" stroke-miterlimit="10"/></g><g transform="translate(-22,-30) scale(1,1)"><path fill="none" stroke="#000000" d="M 446 476 L 464 476" stroke-miterlimit="10"/></g><g transform="translate(-22,-30) scale(1,1)"><path fill="none" stroke="#000000" d="M 453.83732514237585 480.209517756016 L 464 476 L 453.83732514237585 471.790482243984" stroke-miterlimit="10"/></g><g transform="translate(-22,-30) scale(1,1)"><path fill="#C0C0C0" stroke="none" d="M 247 568.5 L 258.5 559 L 269 568.5 L 258.5 577 L 247 568.5" opacity="0.2"/></g><g transform="translate(-22,-30) scale(1,1)"><path fill="#ffffff" stroke="none" d="M 240 561 L 251 552 L 262 561 L 251 570 L 240 561"/></g><g transform="translate(-22,-30) scale(1,1)"><path fill="none" stroke="#000000" d="M 240 561 L 251 552 L 262 561 L 251 570 L 240 561 L 240 561" stroke-miterlimit="10"/></g><g transform="translate(-22,-30) scale(1,1)"><path fill="none" stroke="#000000" d="M 251 570 L 251 600" stroke-miterlimit="10"/></g><g transform="translate(-22,-30) scale(1,1)"><path fill="none" stroke="#000000" d="M 246.790482243984 589.8373251423759 L 251 600 L 255.209517756016 589.8373251423759" stroke-miterlimit="10"/></g><g transform="translate(-22,-30) scale(1,1)"><path fill="#C0C0C0" stroke="none" d="M 297 663 L 429 663 Q 439 663 439 673 L 439 693 Q 439 703 429 703 L 297 703 Q 287 703 287 693 L 287 673 Q 287 663 297 663 Z" opacity="0.2"/></g><g transform="translate(-22,-30) scale(1,1)"><path fill="#ffffff" stroke="none" d="M 290 656 L 422 656 Q 432 656 432 666 L 432 686 Q 432 696 422 696 L 290 696 Q 280 696 280 686 L 280 666 Q 280 656 290 656 Z"/></g><g transform="translate(-22,-30) scale(1,1)"><path fill="none" stroke="#000000" d="M 290 656 L 422 656 Q 432 656 432 666 L 432 686 Q 432 696 422 696 L 290 696 Q 280 696 280 686 L 280 666 Q 280 656 290 656 Z" stroke-miterlimit="10"/></g><g transform="translate(-22,-30) scale(1,1)"><g><path fill="none" stroke="none"/><text fill="#000000" stroke="none" font-family="Arial" font-size="13px" font-style="normal" font-weight="bold" text-decoration="none" x="293.1708984375" y="675.5">点击“重新发送验证码”</text></g></g><g transform="translate(-22,-30) scale(1,1)"><path fill="#C0C0C0" stroke="none" d="M 233 463 L 287 463 Q 297 463 297 473 L 297 493 Q 297 503 287 503 L 233 503 Q 223 503 223 493 L 223 473 Q 223 463 233 463 Z" opacity="0.2"/></g><g transform="translate(-22,-30) scale(1,1)"><path fill="#ffffff" stroke="none" d="M 226 456 L 280 456 Q 290 456 290 466 L 290 486 Q 290 496 280 496 L 226 496 Q 216 496 216 486 L 216 466 Q 216 456 226 456 Z"/></g><g transform="translate(-22,-30) scale(1,1)"><path fill="none" stroke="#000000" d="M 226 456 L 280 456 Q 290 456 290 466 L 290 486 Q 290 496 280 496 L 226 496 Q 216 496 216 486 L 216 466 Q 216 456 226 456 Z" stroke-miterlimit="10"/></g><g transform="translate(-22,-30) scale(1,1)"><g><path fill="none" stroke="none"/><text fill="#000000" stroke="none" font-family="Arial" font-size="13px" font-style="normal" font-weight="bold" text-decoration="none" x="220.5" y="475.5">接收验证码</text></g></g><g transform="translate(-22,-30) scale(1,1)"><path fill="none" stroke="#000000" d="M 253 496 L 253 552" stroke-miterlimit="10"/></g><g transform="translate(-22,-30) scale(1,1)"><path fill="none" stroke="#000000" d="M 248.790482243984 541.8373251423759 L 253 552 L 257.209517756016 541.8373251423759" stroke-miterlimit="10"/></g><g transform="translate(-22,-30) scale(1,1)"><path fill="none" stroke="#000000" d="M 693 496 L 693 536 L 304 536 L 304 472 L 290 472" stroke-miterlimit="10"/></g><g transform="translate(-22,-30) scale(1,1)"><path fill="none" stroke="#000000" d="M 300.16267485762415 467.790482243984 L 290 472 L 300.16267485762415 476.209517756016" stroke-miterlimit="10"/></g><g transform="translate(-22,-30) scale(1,1)"><path fill="#ffffff" stroke="none" d="M 361.225830078125 568 L 384.225830078125 568 L 361.225830078125 591 L 384.225830078125 591 L 361.225830078125 568"/></g><g transform="translate(-22,-30) scale(1,1)"><path fill="none" stroke="#000000" d="M 361.225830078125 568 L 384.225830078125 568 L 361.225830078125 591 L 384.225830078125 591 L 361.225830078125 568 L 361.225830078125 568" stroke-miterlimit="10"/></g><g transform="translate(-22,-30) scale(1,1)"><g><path fill="none" stroke="none"/><text fill="#000000" stroke="none" font-family="Arial" font-size="13px" font-style="normal" font-weight="bold" text-decoration="none" x="349.245849609375" y="610.5">等待30s</text></g></g><g transform="translate(-22,-30) scale(1,1)"><path fill="none" stroke="#000000" d="M 263 564 L 343 585" stroke-miterlimit="10"/></g><g transform="translate(-22,-30) scale(1,1)"><path fill="none" stroke="#000000" d="M 332.10155750685294 586.4912917969217 L 343 585 L 334.2391348663929 578.3481399510553" stroke-miterlimit="10"/></g><g transform="translate(-22,-30) scale(1,1)"><path fill="none" stroke="#000000" d="M 375 616 L 375 656" stroke-miterlimit="10"/></g><g transform="translate(-22,-30) scale(1,1)"><path fill="none" stroke="#000000" d="M 370.790482243984 645.8373251423759 L 375 656 L 379.209517756016 645.8373251423759" stroke-miterlimit="10"/></g><g transform="translate(-22,-30) scale(1,1)"><path fill="none" stroke="#000000" d="M 253 640 L 253 768" stroke-miterlimit="10"/></g><g transform="translate(-22,-30) scale(1,1)"><path fill="none" stroke="#000000" d="M 248.790482243984 757.8373251423759 L 253 768 L 257.209517756016 757.8373251423759" stroke-miterlimit="10"/></g><g transform="translate(-22,-30) scale(1,1)"><path fill="none" stroke="#000000" d="M 391 655 L 658 497" stroke-miterlimit="10"/></g><g transform="translate(-22,-30) scale(1,1)"><path fill="none" stroke="#000000" d="M 651.3977362542128 505.79830173562283 L 658 497 L 647.1101557139875 498.55283335435604" stroke-miterlimit="10"/></g><g transform="translate(-22,-30) scale(1,1)"><path fill="none" stroke="#000000" d="M 304 788 L 471 788" stroke-miterlimit="10"/></g><g transform="translate(-22,-30) scale(1,1)"><path fill="none" stroke="#000000" d="M 460.83732514237585 792.209517756016 L 471 788 L 460.83732514237585 783.790482243984" stroke-miterlimit="10"/></g><g transform="translate(-22,-30) scale(1,1)"><path fill="#C0C0C0" stroke="none" d="M 583 264.5 L 594.5 255 L 605 264.5 L 594.5 273 L 583 264.5" opacity="0.2"/></g><g transform="translate(-22,-30) scale(1,1)"><path fill="#ffffff" stroke="none" d="M 576 257 L 587 248 L 598 257 L 587 266 L 576 257"/></g><g transform="translate(-22,-30) scale(1,1)"><path fill="none" stroke="#000000" d="M 576 257 L 587 248 L 598 257 L 587 266 L 576 257 L 576 257" stroke-miterlimit="10"/></g><g transform="translate(-22,-30) scale(1,1)"><path fill="#C0C0C0" stroke="none" d="M 727 800.5 L 738.5 791 L 749 800.5 L 738.5 809 L 727 800.5" opacity="0.2"/></g><g transform="translate(-22,-30) scale(1,1)"><path fill="#ffffff" stroke="none" d="M 720 793 L 731 784 L 742 793 L 731 802 L 720 793"/></g><g transform="translate(-22,-30) scale(1,1)"><path fill="none" stroke="#000000" d="M 720 793 L 731 784 L 742 793 L 731 802 L 720 793 L 720 793" stroke-miterlimit="10"/></g><g transform="translate(-22,-30) scale(1,1)"><path fill="none" stroke="#000000" d="M 587 391 L 587 267" stroke-miterlimit="10"/></g><g transform="translate(-22,-30) scale(1,1)"><path fill="none" stroke="#000000" d="M 591.209517756016 277.16267485762415 L 587 267 L 582.790482243984 277.16267485762415" stroke-miterlimit="10"/></g><g transform="translate(-22,-30) scale(1,1)"><path fill="none" stroke="#000000" d="M 908 680 L 908 744" stroke-miterlimit="10"/></g><g transform="translate(-22,-30) scale(1,1)"><path fill="none" stroke="#000000" d="M 903.790482243984 733.8373251423759 L 908 744 L 912.209517756016 733.8373251423759" stroke-miterlimit="10"/></g><g transform="translate(-22,-30) scale(1,1)"><path fill="none" stroke="#000000" d="M 896 753 L 736 753 L 736 266 L 598 266" stroke-miterlimit="10"/></g><g transform="translate(-22,-30) scale(1,1)"><path fill="none" stroke="#000000" d="M 608.1626748576241 261.790482243984 L 598 266 L 608.1626748576241 270.209517756016" stroke-miterlimit="10"/></g><g transform="translate(-22,-30) scale(1,1)"><path fill="none" stroke="#000000" d="M 598 793 L 720 793" stroke-miterlimit="10"/></g><g transform="translate(-22,-30) scale(1,1)"><path fill="none" stroke="#000000" d="M 709.8373251423759 797.209517756016 L 720 793 L 709.8373251423758 788.790482243984" stroke-miterlimit="10"/></g><g transform="translate(-22,-30) scale(1,1)"><path fill="none" stroke="#000000" d="M 742 793 L 744 793 L 744 248 L 598 248" stroke-miterlimit="10"/></g><g transform="translate(-22,-30) scale(1,1)"><path fill="none" stroke="#000000" d="M 608.1626748576241 243.790482243984 L 598 248 L 608.1626748576241 252.209517756016" stroke-miterlimit="10"/></g><g transform="translate(-22,-30) scale(1,1)"><path fill="none" stroke="#000000" d="M 583 248 L 583 216" stroke-miterlimit="10"/></g><g transform="translate(-22,-30) scale(1,1)"><path fill="none" stroke="#000000" d="M 587.209517756016 226.16267485762415 L 583 216 L 578.790482243984 226.16267485762415" stroke-miterlimit="10"/></g><g transform="translate(-22,-30) scale(1,1)"><path fill="#C0C0C0" stroke="none" d="M 679 867.5 C 679 860.59644 684.59644 855 691.5 855 C 698.40356 855 704 860.59644 704 867.5 C 704 874.40356 698.40356 880 691.5 880 C 684.59644 880 679 874.40356 679 867.5 Z" opacity="0.2"/></g><g transform="translate(-22,-30) scale(1,1)"><path fill="none" stroke="#000000" d="M 672 860.5 C 672 853.59644 677.59644 848 684.5 848 C 691.40356 848 697 853.59644 697 860.5 C 697 867.40356 691.40356 873 684.5 873 C 677.59644 873 672 867.40356 672 860.5 Z" stroke-miterlimit="10"/></g><g transform="translate(-22,-30) scale(1,1)"><path fill="#000000" stroke="none" d="M 677 860.5 C 677 856.357864 680.357864 853 684.5 853 C 688.642136 853 692 856.357864 692 860.5 C 692 864.642136 688.642136 868 684.5 868 C 680.357864 868 677 864.642136 677 860.5 Z"/></g><g transform="translate(-22,-30) scale(1,1)"><path fill="none" stroke="#000000" d="M 896 762 L 683 762 L 683 848" stroke-miterlimit="10"/></g><g transform="translate(-22,-30) scale(1,1)"><path fill="none" stroke="#000000" d="M 678.790482243984 837.8373251423759 L 683 848 L 687.209517756016 837.8373251423759" stroke-miterlimit="10"/></g><g transform="translate(-22,-30) scale(1,1)"><path fill="none" stroke="#000000" d="M 736 802 L 736 860 L 697 860" stroke-miterlimit="10"/></g><g transform="translate(-22,-30) scale(1,1)"><path fill="none" stroke="#000000" d="M 707.1626748576241 855.790482243984 L 697 860 L 707.1626748576241 864.209517756016" stroke-miterlimit="10"/></g><g transform="translate(-22,-30) scale(1,1)"><rect fill="#ffffff" stroke="none" x="760" y="40" width="256" height="21"/></g><g transform="translate(-22,-30) scale(1,1)"><path fill="none" stroke="#000000" d="M 760 40 L 1016 40 L 1016 61 L 760 61 L 760 40 Z Z" stroke-miterlimit="10" stroke-width="2"/></g><g transform="translate(-22,-30) scale(1,1)"><path fill="none" stroke="#000000" d="M 760 896 L 760 40 L 1016 40 L 1016 896" stroke-miterlimit="10" stroke-width="2"/></g><g transform="translate(-22,-30) scale(1,1)"><g><path fill="none" stroke="none"/><text fill="#000000" stroke="none" font-family="Arial" font-size="13px" font-style="normal" font-weight="normal" text-decoration="none" x="868.5" y="57">数据库</text></g></g><g transform="translate(-22,-30) scale(1,1)"><path fill="#C0C0C0" stroke="none" d="M 841 647 L 973 647 Q 983 647 983 657 L 983 677 Q 983 687 973 687 L 841 687 Q 831 687 831 677 L 831 657 Q 831 647 841 647 Z" opacity="0.2"/></g><g transform="translate(-22,-30) scale(1,1)"><path fill="#ffffff" stroke="none" d="M 834 640 L 966 640 Q 976 640 976 650 L 976 670 Q 976 680 966 680 L 834 680 Q 824 680 824 670 L 824 650 Q 824 640 834 640 Z"/></g><g transform="translate(-22,-30) scale(1,1)"><path fill="none" stroke="#000000" d="M 834 640 L 966 640 Q 976 640 976 650 L 976 670 Q 976 680 966 680 L 834 680 Q 824 680 824 670 L 824 650 Q 824 640 834 640 Z" stroke-miterlimit="10"/></g><g transform="translate(-22,-30) scale(1,1)"><g><path fill="none" stroke="none"/><text fill="#000000" stroke="none" font-family="Arial" font-size="13px" font-style="normal" font-weight="bold" text-decoration="none" x="828.5" y="659.5">验证手机号密码是否匹配</text></g></g><g transform="translate(-22,-30) scale(1,1)"><path fill="#C0C0C0" stroke="none" d="M 903 760.5 L 914.5 751 L 925 760.5 L 914.5 769 L 903 760.5" opacity="0.2"/></g><g transform="translate(-22,-30) scale(1,1)"><path fill="#ffffff" stroke="none" d="M 896 753 L 907 744 L 918 753 L 907 762 L 896 753"/></g><g transform="translate(-22,-30) scale(1,1)"><path fill="none" stroke="#000000" d="M 896 753 L 907 744 L 918 753 L 907 762 L 896 753 L 896 753" stroke-miterlimit="10"/></g></g></svg>