<svg version="1.1" xmlns="http://www.w3.org/2000/svg" xmlns:xlink="http://www.w3.org/1999/xlink" width="620" height="652"><defs/><g><g transform="translate(-246,-542) scale(1,1)"><rect fill="#ffffff" stroke="none" x="256" y="552" width="192" height="21"/></g><g transform="translate(-246,-542) scale(1,1)"><path fill="none" stroke="#000000" d="M 256 552 L 448 552 L 448 573 L 256 573 L 256 552 Z Z" stroke-miterlimit="10" stroke-width="2"/></g><g transform="translate(-246,-542) scale(1,1)"><path fill="none" stroke="#000000" d="M 256 1184 L 256 552 L 448 552 L 448 1184" stroke-miterlimit="10" stroke-width="2"/></g><g transform="translate(-246,-542) scale(1,1)"><g><path fill="none" stroke="none"/><text fill="#000000" stroke="none" font-family="Arial" font-size="13px" font-style="normal" font-weight="normal" text-decoration="none" x="339" y="569">用户</text></g></g><g transform="translate(-246,-542) scale(1,1)"><rect fill="#ffffff" stroke="none" x="448" y="552" width="232" height="21"/></g><g transform="translate(-246,-542) scale(1,1)"><path fill="none" stroke="#000000" d="M 448 552 L 680 552 L 680 573 L 448 573 L 448 552 Z Z" stroke-miterlimit="10" stroke-width="2"/></g><g transform="translate(-246,-542) scale(1,1)"><path fill="none" stroke="#000000" d="M 448 1184 L 448 552 L 680 552 L 680 1184" stroke-miterlimit="10" stroke-width="2"/></g><g transform="translate(-246,-542) scale(1,1)"><g><path fill="none" stroke="none"/><text fill="#000000" stroke="none" font-family="Arial" font-size="13px" font-style="normal" font-weight="normal" text-decoration="none" x="531.5" y="569">转卖控制类</text></g></g><g transform="translate(-246,-542) scale(1,1)"><rect fill="#ffffff" stroke="none" x="680" y="552" width="176" height="21"/></g><g transform="translate(-246,-542) scale(1,1)"><path fill="none" stroke="#000000" d="M 680 552 L 856 552 L 856 573 L 680 573 L 680 552 Z Z" stroke-miterlimit="10" stroke-width="2"/></g><g transform="translate(-246,-542) scale(1,1)"><path fill="none" stroke="#000000" d="M 680 1184 L 680 552 L 856 552 L 856 1184" stroke-miterlimit="10" stroke-width="2"/></g><g transform="translate(-246,-542) scale(1,1)"><g><path fill="none" stroke="none"/><text fill="#000000" stroke="none" font-family="Arial" font-size="13px" font-style="normal" font-weight="normal" text-decoration="none" x="748.5" y="569">数据库</text></g></g><g transform="translate(-246,-542) scale(1,1)"><path fill="#C0C0C0" stroke="none" d="M 351 616.5 C 351 611.2532944 355.2532944 607 360.5 607 C 365.7467056 607 370 611.2532944 370 616.5 C 370 621.7467056 365.7467056 626 360.5 626 C 355.2532944 626 351 621.7467056 351 616.5 Z" opacity="0.2"/></g><g transform="translate(-246,-542) scale(1,1)"><path fill="#000000" stroke="none" d="M 344 609.5 C 344 604.2532944 348.2532944 600 353.5 600 C 358.7467056 600 363 604.2532944 363 609.5 C 363 614.7467056 358.7467056 619 353.5 619 C 348.2532944 619 344 614.7467056 344 609.5 Z"/></g><g transform="translate(-246,-542) scale(1,1)"><path fill="#C0C0C0" stroke="none" d="M 321 663 L 401 663 Q 411 663 411 673 L 411 693 Q 411 703 401 703 L 321 703 Q 311 703 311 693 L 311 673 Q 311 663 321 663 Z" opacity="0.2"/></g><g transform="translate(-246,-542) scale(1,1)"><path fill="#ffffff" stroke="none" d="M 314 656 L 394 656 Q 404 656 404 666 L 404 686 Q 404 696 394 696 L 314 696 Q 304 696 304 686 L 304 666 Q 304 656 314 656 Z"/></g><g transform="translate(-246,-542) scale(1,1)"><path fill="none" stroke="#000000" d="M 314 656 L 394 656 Q 404 656 404 666 L 404 686 Q 404 696 394 696 L 314 696 Q 304 696 304 686 L 304 666 Q 304 656 314 656 Z" stroke-miterlimit="10"/></g><g transform="translate(-246,-542) scale(1,1)"><g><path fill="none" stroke="none"/><text fill="#000000" stroke="none" font-family="Arial" font-size="13px" font-style="normal" font-weight="bold" text-decoration="none" x="310.6708984375" y="675.5">进入”票夹“页面</text></g></g><g transform="translate(-246,-542) scale(1,1)"><path fill="none" stroke="#000000" d="M 353 619 L 353 656" stroke-miterlimit="10"/></g><g transform="translate(-246,-542) scale(1,1)"><path fill="none" stroke="#000000" d="M 348.790482243984 645.8373251423759 L 353 656 L 357.209517756016 645.8373251423759" stroke-miterlimit="10"/></g><g transform="translate(-246,-542) scale(1,1)"><path fill="#C0C0C0" stroke="none" d="M 321 751 L 401 751 Q 411 751 411 761 L 411 781 Q 411 791 401 791 L 321 791 Q 311 791 311 781 L 311 761 Q 311 751 321 751 Z" opacity="0.2"/></g><g transform="translate(-246,-542) scale(1,1)"><path fill="#ffffff" stroke="none" d="M 314 744 L 394 744 Q 404 744 404 754 L 404 774 Q 404 784 394 784 L 314 784 Q 304 784 304 774 L 304 754 Q 304 744 314 744 Z"/></g><g transform="translate(-246,-542) scale(1,1)"><path fill="none" stroke="#000000" d="M 314 744 L 394 744 Q 404 744 404 754 L 404 774 Q 404 784 394 784 L 314 784 Q 304 784 304 774 L 304 754 Q 304 744 314 744 Z" stroke-miterlimit="10"/></g><g transform="translate(-246,-542) scale(1,1)"><g><path fill="none" stroke="none"/><text fill="#000000" stroke="none" font-family="Arial" font-size="13px" font-style="normal" font-weight="bold" text-decoration="none" x="308.5" y="763.5">选中一张有效票</text></g></g><g transform="translate(-246,-542) scale(1,1)"><path fill="#C0C0C0" stroke="none" d="M 329 839 L 396 839 Q 406 839 406 849 L 406 869 Q 406 879 396 879 L 329 879 Q 319 879 319 869 L 319 849 Q 319 839 329 839 Z" opacity="0.2"/></g><g transform="translate(-246,-542) scale(1,1)"><path fill="#ffffff" stroke="none" d="M 322 832 L 389 832 Q 399 832 399 842 L 399 862 Q 399 872 389 872 L 322 872 Q 312 872 312 862 L 312 842 Q 312 832 322 832 Z"/></g><g transform="translate(-246,-542) scale(1,1)"><path fill="none" stroke="#000000" d="M 322 832 L 389 832 Q 399 832 399 842 L 399 862 Q 399 872 389 872 L 322 872 Q 312 872 312 862 L 312 842 Q 312 832 322 832 Z" stroke-miterlimit="10"/></g><g transform="translate(-246,-542) scale(1,1)"><g><path fill="none" stroke="none"/><text fill="#000000" stroke="none" font-family="Arial" font-size="13px" font-style="normal" font-weight="bold" text-decoration="none" x="316.5" y="851.5">输入转卖价格</text></g></g><g transform="translate(-246,-542) scale(1,1)"><path fill="none" stroke="#000000" d="M 354 784 L 354 832" stroke-miterlimit="10"/></g><g transform="translate(-246,-542) scale(1,1)"><path fill="none" stroke="#000000" d="M 349.790482243984 821.8373251423759 L 354 832 L 358.209517756016 821.8373251423759" stroke-miterlimit="10"/></g><g transform="translate(-246,-542) scale(1,1)"><path fill="#C0C0C0" stroke="none" d="M 497 839 L 655 839 Q 665 839 665 849 L 665 869 Q 665 879 655 879 L 497 879 Q 487 879 487 869 L 487 849 Q 487 839 497 839 Z" opacity="0.2"/></g><g transform="translate(-246,-542) scale(1,1)"><path fill="#ffffff" stroke="none" d="M 490 832 L 648 832 Q 658 832 658 842 L 658 862 Q 658 872 648 872 L 490 872 Q 480 872 480 862 L 480 842 Q 480 832 490 832 Z"/></g><g transform="translate(-246,-542) scale(1,1)"><path fill="none" stroke="#000000" d="M 490 832 L 648 832 Q 658 832 658 842 L 658 862 Q 658 872 648 872 L 490 872 Q 480 872 480 862 L 480 842 Q 480 832 490 832 Z" stroke-miterlimit="10"/></g><g transform="translate(-246,-542) scale(1,1)"><g><path fill="none" stroke="none"/><text fill="#000000" stroke="none" font-family="Arial" font-size="13px" font-style="normal" font-weight="bold" text-decoration="none" x="484.5" y="851.5">创建转卖实体，记录买家信息</text></g></g><g transform="translate(-246,-542) scale(1,1)"><path fill="none" stroke="#000000" d="M 399 852 L 480 852" stroke-miterlimit="10"/></g><g transform="translate(-246,-542) scale(1,1)"><path fill="none" stroke="#000000" d="M 469.83732514237585 856.209517756016 L 480 852 L 469.83732514237585 847.790482243984" stroke-miterlimit="10"/></g><g transform="translate(-246,-542) scale(1,1)"><path fill="#C0C0C0" stroke="none" d="M 745 839 L 812 839 Q 822 839 822 849 L 822 869 Q 822 879 812 879 L 745 879 Q 735 879 735 869 L 735 849 Q 735 839 745 839 Z" opacity="0.2"/></g><g transform="translate(-246,-542) scale(1,1)"><path fill="#ffffff" stroke="none" d="M 738 832 L 805 832 Q 815 832 815 842 L 815 862 Q 815 872 805 872 L 738 872 Q 728 872 728 862 L 728 842 Q 728 832 738 832 Z"/></g><g transform="translate(-246,-542) scale(1,1)"><path fill="none" stroke="#000000" d="M 738 832 L 805 832 Q 815 832 815 842 L 815 862 Q 815 872 805 872 L 738 872 Q 728 872 728 862 L 728 842 Q 728 832 738 832 Z" stroke-miterlimit="10"/></g><g transform="translate(-246,-542) scale(1,1)"><g><path fill="none" stroke="none"/><text fill="#000000" stroke="none" font-family="Arial" font-size="13px" font-style="normal" font-weight="bold" text-decoration="none" x="732.5" y="851.5">存储转卖信息</text></g></g><g transform="translate(-246,-542) scale(1,1)"><path fill="#C0C0C0" stroke="none" d="M 729 663 L 822 663 Q 832 663 832 673 L 832 693 Q 832 703 822 703 L 729 703 Q 719 703 719 693 L 719 673 Q 719 663 729 663 Z" opacity="0.2"/></g><g transform="translate(-246,-542) scale(1,1)"><path fill="#ffffff" stroke="none" d="M 722 656 L 815 656 Q 825 656 825 666 L 825 686 Q 825 696 815 696 L 722 696 Q 712 696 712 686 L 712 666 Q 712 656 722 656 Z"/></g><g transform="translate(-246,-542) scale(1,1)"><path fill="none" stroke="#000000" d="M 722 656 L 815 656 Q 825 656 825 666 L 825 686 Q 825 696 815 696 L 722 696 Q 712 696 712 686 L 712 666 Q 712 656 722 656 Z" stroke-miterlimit="10"/></g><g transform="translate(-246,-542) scale(1,1)"><g><path fill="none" stroke="none"/><text fill="#000000" stroke="none" font-family="Arial" font-size="13px" font-style="normal" font-weight="bold" text-decoration="none" x="716.5" y="675.5">读取用户有效票卷</text></g></g><g transform="translate(-246,-542) scale(1,1)"><path fill="none" stroke="#000000" d="M 404 676 L 712 676" stroke-miterlimit="10"/></g><g transform="translate(-246,-542) scale(1,1)"><path fill="none" stroke="#000000" d="M 701.8373251423759 680.209517756016 L 712 676 L 701.8373251423758 671.790482243984" stroke-miterlimit="10"/></g><g transform="translate(-246,-542) scale(1,1)"><path fill="none" stroke="#000000" d="M 768 696 L 768 753 L 404 753" stroke-miterlimit="10"/></g><g transform="translate(-246,-542) scale(1,1)"><path fill="none" stroke="#000000" d="M 414.16267485762415 748.790482243984 L 404 753 L 414.16267485762415 757.209517756016" stroke-miterlimit="10"/></g><g transform="translate(-246,-542) scale(1,1)"><path fill="none" stroke="#000000" d="M 659 852 L 727 852" stroke-miterlimit="10"/></g><g transform="translate(-246,-542) scale(1,1)"><path fill="none" stroke="#000000" d="M 716.8373251423759 856.209517756016 L 727 852 L 716.8373251423758 847.790482243984" stroke-miterlimit="10"/></g><g transform="translate(-246,-542) scale(1,1)"><path fill="#C0C0C0" stroke="none" d="M 767 968.5 L 778.5 959 L 789 968.5 L 778.5 977 L 767 968.5" opacity="0.2"/></g><g transform="translate(-246,-542) scale(1,1)"><path fill="#ffffff" stroke="none" d="M 760 961 L 771 952 L 782 961 L 771 970 L 760 961"/></g><g transform="translate(-246,-542) scale(1,1)"><path fill="none" stroke="#000000" d="M 760 961 L 771 952 L 782 961 L 771 970 L 760 961 L 760 961" stroke-miterlimit="10"/></g><g transform="translate(-246,-542) scale(1,1)"><path fill="none" stroke="#000000" d="M 771 872 L 771 952" stroke-miterlimit="10"/></g><g transform="translate(-246,-542) scale(1,1)"><path fill="none" stroke="#000000" d="M 766.790482243984 941.8373251423759 L 771 952 L 775.209517756016 941.8373251423759" stroke-miterlimit="10"/></g><g transform="translate(-246,-542) scale(1,1)"><path fill="#C0C0C0" stroke="none" d="M 537 951 L 604 951 Q 614 951 614 961 L 614 981 Q 614 991 604 991 L 537 991 Q 527 991 527 981 L 527 961 Q 527 951 537 951 Z" opacity="0.2"/></g><g transform="translate(-246,-542) scale(1,1)"><path fill="#ffffff" stroke="none" d="M 530 944 L 597 944 Q 607 944 607 954 L 607 974 Q 607 984 597 984 L 530 984 Q 520 984 520 974 L 520 954 Q 520 944 530 944 Z"/></g><g transform="translate(-246,-542) scale(1,1)"><path fill="none" stroke="#000000" d="M 530 944 L 597 944 Q 607 944 607 954 L 607 974 Q 607 984 597 984 L 530 984 Q 520 984 520 974 L 520 954 Q 520 944 530 944 Z" stroke-miterlimit="10"/></g><g transform="translate(-246,-542) scale(1,1)"><g><path fill="none" stroke="none"/><text fill="#000000" stroke="none" font-family="Arial" font-size="13px" font-style="normal" font-weight="bold" text-decoration="none" x="524.5" y="963.5">提示错误信息</text></g></g><g transform="translate(-246,-542) scale(1,1)"><path fill="#C0C0C0" stroke="none" d="M 559 1139.5 C 559 1132.59644 564.59644 1127 571.5 1127 C 578.40356 1127 584 1132.59644 584 1139.5 C 584 1146.40356 578.40356 1152 571.5 1152 C 564.59644 1152 559 1146.40356 559 1139.5 Z" opacity="0.2"/></g><g transform="translate(-246,-542) scale(1,1)"><path fill="none" stroke="#000000" d="M 552 1132.5 C 552 1125.59644 557.59644 1120 564.5 1120 C 571.40356 1120 577 1125.59644 577 1132.5 C 577 1139.40356 571.40356 1145 564.5 1145 C 557.59644 1145 552 1139.40356 552 1132.5 Z" stroke-miterlimit="10"/></g><g transform="translate(-246,-542) scale(1,1)"><path fill="#000000" stroke="none" d="M 557 1132.5 C 557 1128.357864 560.357864 1125 564.5 1125 C 568.642136 1125 572 1128.357864 572 1132.5 C 572 1136.642136 568.642136 1140 564.5 1140 C 560.357864 1140 557 1136.642136 557 1132.5 Z"/></g><g transform="translate(-246,-542) scale(1,1)"><path fill="none" stroke="#000000" d="M 760 963 L 607 963" stroke-miterlimit="10"/></g><g transform="translate(-246,-542) scale(1,1)"><path fill="none" stroke="#000000" d="M 617.1626748576241 958.790482243984 L 607 963 L 617.1626748576241 967.209517756016" stroke-miterlimit="10"/></g><g transform="translate(-246,-542) scale(1,1)"><g><path fill="none" stroke="none"/><text fill="#000000" stroke="none" font-family="Arial" font-size="13px" font-style="normal" font-weight="normal" text-decoration="none" x="655.5" y="984.5">存储成功</text></g></g><g transform="translate(-246,-542) scale(1,1)"><path fill="none" stroke="#000000" d="M 563 984 L 563 1120" stroke-miterlimit="10"/></g><g transform="translate(-246,-542) scale(1,1)"><path fill="none" stroke="#000000" d="M 558.790482243984 1109.837325142376 L 563 1120 L 567.209517756016 1109.837325142376" stroke-miterlimit="10"/></g><g transform="translate(-246,-542) scale(1,1)"><path fill="none" stroke="#000000" d="M 759 971 L 578 1120" stroke-miterlimit="10"/></g><g transform="translate(-246,-542) scale(1,1)"><path fill="none" stroke="#000000" d="M 583.1707356097396 1110.2910611674513 L 578 1120 L 588.5215186999901 1116.791005726749" stroke-miterlimit="10"/></g><g transform="translate(-246,-542) scale(1,1)"><g><path fill="none" stroke="none"/><text fill="#000000" stroke="none" font-family="Arial" font-size="13px" font-style="normal" font-weight="normal" text-decoration="none" x="650.5" y="1062.5">存储失败</text></g></g></g></svg>