<svg version="1.1" xmlns="http://www.w3.org/2000/svg" xmlns:xlink="http://www.w3.org/1999/xlink" width="348" height="428"><defs/><g><g transform="translate(-46,-62) scale(1,1)"><rect fill="#ffffff" stroke="none" x="56" y="72" width="168" height="21"/></g><g transform="translate(-46,-62) scale(1,1)"><path fill="none" stroke="#000000" d="M 56 72 L 224 72 L 224 93 L 56 93 L 56 72 Z Z" stroke-miterlimit="10" stroke-width="2"/></g><g transform="translate(-46,-62) scale(1,1)"><path fill="none" stroke="#000000" d="M 56 480 L 56 72 L 224 72 L 224 480" stroke-miterlimit="10" stroke-width="2"/></g><g transform="translate(-46,-62) scale(1,1)"><g><path fill="none" stroke="none"/><text fill="#000000" stroke="none" font-family="Arial" font-size="13px" font-style="normal" font-weight="normal" text-decoration="none" x="127" y="89">用户</text></g></g><g transform="translate(-46,-62) scale(1,1)"><rect fill="#ffffff" stroke="none" x="224" y="72" width="160" height="21"/></g><g transform="translate(-46,-62) scale(1,1)"><path fill="none" stroke="#000000" d="M 224 72 L 384 72 L 384 93 L 224 93 L 224 72 Z Z" stroke-miterlimit="10" stroke-width="2"/></g><g transform="translate(-46,-62) scale(1,1)"><path fill="none" stroke="#000000" d="M 224 480 L 224 72 L 384 72 L 384 480" stroke-miterlimit="10" stroke-width="2"/></g><g transform="translate(-46,-62) scale(1,1)"><g><path fill="none" stroke="none"/><text fill="#000000" stroke="none" font-family="Arial" font-size="13px" font-style="normal" font-weight="normal" text-decoration="none" x="291" y="89">系统</text></g></g><g transform="translate(-46,-62) scale(1,1)"><path fill="#C0C0C0" stroke="none" d="M 135 128.5 C 135 123.2532944 139.2532944 119 144.5 119 C 149.7467056 119 154 123.2532944 154 128.5 C 154 133.7467056 149.7467056 138 144.5 138 C 139.2532944 138 135 133.7467056 135 128.5 Z" opacity="0.2"/></g><g transform="translate(-46,-62) scale(1,1)"><path fill="#000000" stroke="none" d="M 128 121.5 C 128 116.2532944 132.2532944 112 137.5 112 C 142.7467056 112 147 116.2532944 147 121.5 C 147 126.7467056 142.7467056 131 137.5 131 C 132.2532944 131 128 126.7467056 128 121.5 Z"/></g><g transform="translate(-46,-62) scale(1,1)"><path fill="#C0C0C0" stroke="none" d="M 89 159 L 195 159 Q 205 159 205 169 L 205 189 Q 205 199 195 199 L 89 199 Q 79 199 79 189 L 79 169 Q 79 159 89 159 Z" opacity="0.2"/></g><g transform="translate(-46,-62) scale(1,1)"><path fill="#ffffff" stroke="none" d="M 82 152 L 188 152 Q 198 152 198 162 L 198 182 Q 198 192 188 192 L 82 192 Q 72 192 72 182 L 72 162 Q 72 152 82 152 Z"/></g><g transform="translate(-46,-62) scale(1,1)"><path fill="none" stroke="#000000" d="M 82 152 L 188 152 Q 198 152 198 162 L 198 182 Q 198 192 188 192 L 82 192 Q 72 192 72 182 L 72 162 Q 72 152 82 152 Z" stroke-miterlimit="10"/></g><g transform="translate(-46,-62) scale(1,1)"><g><path fill="none" stroke="none"/><text fill="#000000" stroke="none" font-family="Arial" font-size="13px" font-style="normal" font-weight="bold" text-decoration="none" x="76.5" y="171.5">在搜索框输入关键字</text></g></g><g transform="translate(-46,-62) scale(1,1)"><path fill="#C0C0C0" stroke="none" d="M 289 263 L 330 263 Q 340 263 340 273 L 340 293 Q 340 303 330 303 L 289 303 Q 279 303 279 293 L 279 273 Q 279 263 289 263 Z" opacity="0.2"/></g><g transform="translate(-46,-62) scale(1,1)"><path fill="#ffffff" stroke="none" d="M 282 256 L 323 256 Q 333 256 333 266 L 333 286 Q 333 296 323 296 L 282 296 Q 272 296 272 286 L 272 266 Q 272 256 282 256 Z"/></g><g transform="translate(-46,-62) scale(1,1)"><path fill="none" stroke="#000000" d="M 282 256 L 323 256 Q 333 256 333 266 L 333 286 Q 333 296 323 296 L 282 296 Q 272 296 272 286 L 272 266 Q 272 256 282 256 Z" stroke-miterlimit="10"/></g><g transform="translate(-46,-62) scale(1,1)"><g><path fill="none" stroke="none"/><text fill="#000000" stroke="none" font-family="Arial" font-size="13px" font-style="normal" font-weight="bold" text-decoration="none" x="276.5" y="275.5">执行搜索</text></g></g><g transform="translate(-46,-62) scale(1,1)"><path fill="#C0C0C0" stroke="none" d="M 257 351 L 363 351 Q 373 351 373 361 L 373 381 Q 373 391 363 391 L 257 391 Q 247 391 247 381 L 247 361 Q 247 351 257 351 Z" opacity="0.2"/></g><g transform="translate(-46,-62) scale(1,1)"><path fill="#ffffff" stroke="none" d="M 250 344 L 356 344 Q 366 344 366 354 L 366 374 Q 366 384 356 384 L 250 384 Q 240 384 240 374 L 240 354 Q 240 344 250 344 Z"/></g><g transform="translate(-46,-62) scale(1,1)"><path fill="none" stroke="#000000" d="M 250 344 L 356 344 Q 366 344 366 354 L 366 374 Q 366 384 356 384 L 250 384 Q 240 384 240 374 L 240 354 Q 240 344 250 344 Z" stroke-miterlimit="10"/></g><g transform="translate(-46,-62) scale(1,1)"><g><path fill="none" stroke="none"/><text fill="#000000" stroke="none" font-family="Arial" font-size="13px" font-style="normal" font-weight="bold" text-decoration="none" x="244.5" y="363.5">返回匹配的演出信息</text></g></g><g transform="translate(-46,-62) scale(1,1)"><path fill="#C0C0C0" stroke="none" d="M 97 351 L 203 351 Q 213 351 213 361 L 213 381 Q 213 391 203 391 L 97 391 Q 87 391 87 381 L 87 361 Q 87 351 97 351 Z" opacity="0.2"/></g><g transform="translate(-46,-62) scale(1,1)"><path fill="#ffffff" stroke="none" d="M 90 344 L 196 344 Q 206 344 206 354 L 206 374 Q 206 384 196 384 L 90 384 Q 80 384 80 374 L 80 354 Q 80 344 90 344 Z"/></g><g transform="translate(-46,-62) scale(1,1)"><path fill="none" stroke="#000000" d="M 90 344 L 196 344 Q 206 344 206 354 L 206 374 Q 206 384 196 384 L 90 384 Q 80 384 80 374 L 80 354 Q 80 344 90 344 Z" stroke-miterlimit="10"/></g><g transform="translate(-46,-62) scale(1,1)"><g><path fill="none" stroke="none"/><text fill="#000000" stroke="none" font-family="Arial" font-size="13px" font-style="normal" font-weight="bold" text-decoration="none" x="84.5" y="363.5">查看匹配的演出信息</text></g></g><g transform="translate(-46,-62) scale(1,1)"><path fill="#C0C0C0" stroke="none" d="M 135 451.5 C 135 444.59644 140.59644 439 147.5 439 C 154.40356 439 160 444.59644 160 451.5 C 160 458.40356 154.40356 464 147.5 464 C 140.59644 464 135 458.40356 135 451.5 Z" opacity="0.2"/></g><g transform="translate(-46,-62) scale(1,1)"><path fill="none" stroke="#000000" d="M 128 444.5 C 128 437.59644 133.59644 432 140.5 432 C 147.40356 432 153 437.59644 153 444.5 C 153 451.40356 147.40356 457 140.5 457 C 133.59644 457 128 451.40356 128 444.5 Z" stroke-miterlimit="10"/></g><g transform="translate(-46,-62) scale(1,1)"><path fill="#000000" stroke="none" d="M 133 444.5 C 133 440.357864 136.357864 437 140.5 437 C 144.642136 437 148 440.357864 148 444.5 C 148 448.642136 144.642136 452 140.5 452 C 136.357864 452 133 448.642136 133 444.5 Z"/></g><g transform="translate(-46,-62) scale(1,1)"><path fill="#C0C0C0" stroke="none" d="M 87 323.5 C 87 316.59644 92.59644 311 99.5 311 C 106.40356 311 112 316.59644 112 323.5 C 112 330.40356 106.40356 336 99.5 336 C 92.59644 336 87 330.40356 87 323.5 Z" opacity="0.2"/></g><g transform="translate(-46,-62) scale(1,1)"><path fill="none" stroke="#000000" d="M 80 316.5 C 80 309.59644 85.59644 304 92.5 304 C 99.40356 304 105 309.59644 105 316.5 C 105 323.40356 99.40356 329 92.5 329 C 85.59644 329 80 323.40356 80 316.5 Z" stroke-miterlimit="10"/></g><g transform="translate(-46,-62) scale(1,1)"><path fill="#000000" stroke="none" d="M 85 316.5 C 85 312.357864 88.357864 309 92.5 309 C 96.642136 309 100 312.357864 100 316.5 C 100 320.642136 96.642136 324 92.5 324 C 88.357864 324 85 320.642136 85 316.5 Z"/></g><g transform="translate(-46,-62) scale(1,1)"><path fill="none" stroke="#000000" d="M 138 131 L 138 152" stroke-miterlimit="10"/></g><g transform="translate(-46,-62) scale(1,1)"><path fill="none" stroke="#000000" d="M 133.790482243984 141.83732514237585 L 138 152 L 142.209517756016 141.83732514237585" stroke-miterlimit="10"/></g><g transform="translate(-46,-62) scale(1,1)"><path fill="none" stroke="#000000" d="M 142 192 L 142 264" stroke-miterlimit="10"/></g><g transform="translate(-46,-62) scale(1,1)"><path fill="none" stroke="#000000" d="M 137.790482243984 253.83732514237585 L 142 264 L 146.209517756016 253.83732514237585" stroke-miterlimit="10"/></g><g transform="translate(-46,-62) scale(1,1)"><path fill="none" stroke="#000000" d="M 128 273 L 88 273 L 88 304" stroke-miterlimit="10"/></g><g transform="translate(-46,-62) scale(1,1)"><path fill="none" stroke="#000000" d="M 83.79048224398402 293.83732514237585 L 88 304 L 92.20951775601598 293.83732514237585" stroke-miterlimit="10"/></g><g transform="translate(-46,-62) scale(1,1)"><g><path fill="none" stroke="none"/><text fill="#000000" stroke="none" font-family="Arial" font-size="13px" font-style="normal" font-weight="normal" text-decoration="none" x="78.5" y="269.5">取消搜索</text></g></g><g transform="translate(-46,-62) scale(1,1)"><path fill="none" stroke="#000000" d="M 150 275 L 272 275" stroke-miterlimit="10"/></g><g transform="translate(-46,-62) scale(1,1)"><path fill="none" stroke="#000000" d="M 261.83732514237585 279.209517756016 L 272 275 L 261.83732514237585 270.790482243984" stroke-miterlimit="10"/></g><g transform="translate(-46,-62) scale(1,1)"><g><path fill="none" stroke="none"/><text fill="#000000" stroke="none" font-family="Arial" font-size="13px" font-style="normal" font-weight="normal" text-decoration="none" x="157.5" y="269.5">确认搜索</text></g></g><g transform="translate(-46,-62) scale(1,1)"><path fill="none" stroke="#000000" d="M 302 296 L 302 344" stroke-miterlimit="10"/></g><g transform="translate(-46,-62) scale(1,1)"><path fill="none" stroke="#000000" d="M 297.790482243984 333.83732514237585 L 302 344 L 306.209517756016 333.83732514237585" stroke-miterlimit="10"/></g><g transform="translate(-46,-62) scale(1,1)"><path fill="none" stroke="#000000" d="M 240 364 L 206 364" stroke-miterlimit="10"/></g><g transform="translate(-46,-62) scale(1,1)"><path fill="none" stroke="#000000" d="M 216.16267485762415 359.790482243984 L 206 364 L 216.16267485762415 368.209517756016" stroke-miterlimit="10"/></g><g transform="translate(-46,-62) scale(1,1)"><path fill="none" stroke="#000000" d="M 142 384 L 142 432" stroke-miterlimit="10"/></g><g transform="translate(-46,-62) scale(1,1)"><path fill="none" stroke="#000000" d="M 137.790482243984 421.83732514237585 L 142 432 L 146.209517756016 421.83732514237585" stroke-miterlimit="10"/></g><g transform="translate(-46,-62) scale(1,1)"><path fill="#C0C0C0" stroke="none" d="M 135 280.5 L 146.5 271 L 157 280.5 L 146.5 289 L 135 280.5" opacity="0.2"/></g><g transform="translate(-46,-62) scale(1,1)"><path fill="#ffffff" stroke="none" d="M 128 273 L 139 264 L 150 273 L 139 282 L 128 273"/></g><g transform="translate(-46,-62) scale(1,1)"><path fill="none" stroke="#000000" d="M 128 273 L 139 264 L 150 273 L 139 282 L 128 273 L 128 273" stroke-miterlimit="10"/></g></g></svg>