<svg version="1.1" xmlns="http://www.w3.org/2000/svg" xmlns:xlink="http://www.w3.org/1999/xlink" width="588" height="836"><defs/><g><g transform="translate(-22,-190) scale(1,1)"><rect fill="#ffffff" stroke="none" x="32" y="200" width="568" height="21"/></g><g transform="translate(-22,-190) scale(1,1)"><path fill="none" stroke="#000000" d="M 32 200 L 600 200 L 600 221 L 32 221 L 32 200 Z Z" stroke-miterlimit="10" stroke-width="2"/></g><g transform="translate(-22,-190) scale(1,1)"><path fill="none" stroke="#000000" d="M 32 1016 L 32 200 L 600 200 L 600 1016" stroke-miterlimit="10" stroke-width="2"/></g><g transform="translate(-22,-190) scale(1,1)"><g><path fill="none" stroke="none"/><text fill="#000000" stroke="none" font-family="Arial" font-size="13px" font-style="normal" font-weight="normal" text-decoration="none" x="303" y="217">用户</text></g></g><g transform="translate(-22,-190) scale(1,1)"><path fill="#C0C0C0" stroke="none" d="M 201 303 L 281 303 Q 291 303 291 313 L 291 333 Q 291 343 281 343 L 201 343 Q 191 343 191 333 L 191 313 Q 191 303 201 303 Z" opacity="0.2"/></g><g transform="translate(-22,-190) scale(1,1)"><path fill="#ffffff" stroke="none" d="M 194 296 L 274 296 Q 284 296 284 306 L 284 326 Q 284 336 274 336 L 194 336 Q 184 336 184 326 L 184 306 Q 184 296 194 296 Z"/></g><g transform="translate(-22,-190) scale(1,1)"><path fill="none" stroke="#000000" d="M 194 296 L 274 296 Q 284 296 284 306 L 284 326 Q 284 336 274 336 L 194 336 Q 184 336 184 326 L 184 306 Q 184 296 194 296 Z" stroke-miterlimit="10"/></g><g transform="translate(-22,-190) scale(1,1)"><g><path fill="none" stroke="none"/><text fill="#000000" stroke="none" font-family="Arial" font-size="13px" font-style="normal" font-weight="bold" text-decoration="none" x="188.5" y="315.5">进入观演人界面</text></g></g><g transform="translate(-22,-190) scale(1,1)"><path fill="#C0C0C0" stroke="none" d="M 81 463 L 164 463 Q 174 463 174 473 L 174 500 Q 174 510 164 510 L 81 510 Q 71 510 71 500 L 71 473 Q 71 463 81 463 Z" opacity="0.2"/></g><g transform="translate(-22,-190) scale(1,1)"><path fill="#ffffff" stroke="none" d="M 74 456 L 157 456 Q 167 456 167 466 L 167 493 Q 167 503 157 503 L 74 503 Q 64 503 64 493 L 64 466 Q 64 456 74 456 Z"/></g><g transform="translate(-22,-190) scale(1,1)"><path fill="none" stroke="#000000" d="M 74 456 L 157 456 Q 167 456 167 466 L 167 493 Q 167 503 157 503 L 74 503 Q 64 503 64 493 L 64 466 Q 64 456 74 456 Z" stroke-miterlimit="10"/></g><g transform="translate(-22,-190) scale(1,1)"><g><path fill="none" stroke="none"/><text fill="#000000" stroke="none" font-family="Arial" font-size="13px" font-style="normal" font-weight="bold" text-decoration="none" x="70" y="475.5">点击增加观演人</text></g></g><g transform="translate(-22,-190) scale(1,1)"><path fill="#C0C0C0" stroke="none" d="M 289 463 L 395 463 Q 405 463 405 473 L 405 500 Q 405 510 395 510 L 289 510 Q 279 510 279 500 L 279 473 Q 279 463 289 463 Z" opacity="0.2"/></g><g transform="translate(-22,-190) scale(1,1)"><path fill="#ffffff" stroke="none" d="M 282 456 L 388 456 Q 398 456 398 466 L 398 493 Q 398 503 388 503 L 282 503 Q 272 503 272 493 L 272 466 Q 272 456 282 456 Z"/></g><g transform="translate(-22,-190) scale(1,1)"><path fill="none" stroke="#000000" d="M 282 456 L 388 456 Q 398 456 398 466 L 398 493 Q 398 503 388 503 L 282 503 Q 272 503 272 493 L 272 466 Q 272 456 282 456 Z" stroke-miterlimit="10"/></g><g transform="translate(-22,-190) scale(1,1)"><g><path fill="none" stroke="none"/><text fill="#000000" stroke="none" font-family="Arial" font-size="13px" font-style="normal" font-weight="bold" text-decoration="none" x="283" y="475.5">选择观演人并删除</text></g></g><g transform="translate(-22,-190) scale(1,1)"><path fill="#C0C0C0" stroke="none" d="M 81 567 L 161 567 Q 171 567 171 577 L 171 604 Q 171 614 161 614 L 81 614 Q 71 614 71 604 L 71 577 Q 71 567 81 567 Z" opacity="0.2"/></g><g transform="translate(-22,-190) scale(1,1)"><path fill="#ffffff" stroke="none" d="M 74 560 L 154 560 Q 164 560 164 570 L 164 597 Q 164 607 154 607 L 74 607 Q 64 607 64 597 L 64 570 Q 64 560 74 560 Z"/></g><g transform="translate(-22,-190) scale(1,1)"><path fill="none" stroke="#000000" d="M 74 560 L 154 560 Q 164 560 164 570 L 164 597 Q 164 607 154 607 L 74 607 Q 64 607 64 597 L 64 570 Q 64 560 74 560 Z" stroke-miterlimit="10"/></g><g transform="translate(-22,-190) scale(1,1)"><g><path fill="none" stroke="none"/><text fill="#000000" stroke="none" font-family="Arial" font-size="13px" font-style="normal" font-weight="bold" text-decoration="none" x="68.5" y="579.5">填写观演人信息</text></g></g><g transform="translate(-22,-190) scale(1,1)"><path fill="#C0C0C0" stroke="none" d="M 231 256.5 C 231 251.2532944 235.2532944 247 240.5 247 C 245.7467056 247 250 251.2532944 250 256.5 C 250 261.7467056 245.7467056 266 240.5 266 C 235.2532944 266 231 261.7467056 231 256.5 Z" opacity="0.2"/></g><g transform="translate(-22,-190) scale(1,1)"><path fill="#000000" stroke="none" d="M 224 249.5 C 224 244.2532944 228.2532944 240 233.5 240 C 238.7467056 240 243 244.2532944 243 249.5 C 243 254.7467056 238.7467056 259 233.5 259 C 228.2532944 259 224 254.7467056 224 249.5 Z"/></g><g transform="translate(-22,-190) scale(1,1)"><path fill="#C0C0C0" stroke="none" d="M 231 400.5 L 242.5 391 L 253 400.5 L 242.5 409 L 231 400.5" opacity="0.2"/></g><g transform="translate(-22,-190) scale(1,1)"><path fill="#ffffff" stroke="none" d="M 224 393 L 235 384 L 246 393 L 235 402 L 224 393"/></g><g transform="translate(-22,-190) scale(1,1)"><path fill="none" stroke="#000000" d="M 224 393 L 235 384 L 246 393 L 235 402 L 224 393 L 224 393" stroke-miterlimit="10"/></g><g transform="translate(-22,-190) scale(1,1)"><path fill="#C0C0C0" stroke="none" d="M 327 536.5 L 338.5 527 L 349 536.5 L 338.5 545 L 327 536.5" opacity="0.2"/></g><g transform="translate(-22,-190) scale(1,1)"><path fill="#ffffff" stroke="none" d="M 320 529 L 331 520 L 342 529 L 331 538 L 320 529"/></g><g transform="translate(-22,-190) scale(1,1)"><path fill="none" stroke="#000000" d="M 320 529 L 331 520 L 342 529 L 331 538 L 320 529 L 320 529" stroke-miterlimit="10"/></g><g transform="translate(-22,-190) scale(1,1)"><path fill="#C0C0C0" stroke="none" d="M 119 688.5 L 130.5 679 L 141 688.5 L 130.5 697 L 119 688.5" opacity="0.2"/></g><g transform="translate(-22,-190) scale(1,1)"><path fill="#ffffff" stroke="none" d="M 112 681 L 123 672 L 134 681 L 123 690 L 112 681"/></g><g transform="translate(-22,-190) scale(1,1)"><path fill="none" stroke="#000000" d="M 112 681 L 123 672 L 134 681 L 123 690 L 112 681 L 112 681" stroke-miterlimit="10"/></g><g transform="translate(-22,-190) scale(1,1)"><path fill="#C0C0C0" stroke="none" d="M 327 635.5 C 327 628.59644 332.59644 623 339.5 623 C 346.40356 623 352 628.59644 352 635.5 C 352 642.40356 346.40356 648 339.5 648 C 332.59644 648 327 642.40356 327 635.5 Z" opacity="0.2"/></g><g transform="translate(-22,-190) scale(1,1)"><path fill="none" stroke="#000000" d="M 320 628.5 C 320 621.59644 325.59644 616 332.5 616 C 339.40356 616 345 621.59644 345 628.5 C 345 635.40356 339.40356 641 332.5 641 C 325.59644 641 320 635.40356 320 628.5 Z" stroke-miterlimit="10"/></g><g transform="translate(-22,-190) scale(1,1)"><path fill="#000000" stroke="none" d="M 325 628.5 C 325 624.357864 328.357864 621 332.5 621 C 336.642136 621 340 624.357864 340 628.5 C 340 632.642136 336.642136 636 332.5 636 C 328.357864 636 325 632.642136 325 628.5 Z"/></g><g transform="translate(-22,-190) scale(1,1)"><path fill="#C0C0C0" stroke="none" d="M 399 784.5 L 410.5 775 L 421 784.5 L 410.5 793 L 399 784.5" opacity="0.2"/></g><g transform="translate(-22,-190) scale(1,1)"><path fill="#ffffff" stroke="none" d="M 392 777 L 403 768 L 414 777 L 403 786 L 392 777"/></g><g transform="translate(-22,-190) scale(1,1)"><path fill="none" stroke="#000000" d="M 392 777 L 403 768 L 414 777 L 403 786 L 392 777 L 392 777" stroke-miterlimit="10"/></g><g transform="translate(-22,-190) scale(1,1)"><path fill="#C0C0C0" stroke="none" d="M 273 847 L 418 847 Q 428 847 428 857 L 428 884 Q 428 894 418 894 L 273 894 Q 263 894 263 884 L 263 857 Q 263 847 273 847 Z" opacity="0.2"/></g><g transform="translate(-22,-190) scale(1,1)"><path fill="#ffffff" stroke="none" d="M 266 840 L 411 840 Q 421 840 421 850 L 421 877 Q 421 887 411 887 L 266 887 Q 256 887 256 877 L 256 850 Q 256 840 266 840 Z"/></g><g transform="translate(-22,-190) scale(1,1)"><path fill="none" stroke="#000000" d="M 266 840 L 411 840 Q 421 840 421 850 L 421 877 Q 421 887 411 887 L 266 887 Q 256 887 256 877 L 256 850 Q 256 840 266 840 Z" stroke-miterlimit="10"/></g><g transform="translate(-22,-190) scale(1,1)"><g><path fill="none" stroke="none"/><text fill="#000000" stroke="none" font-family="Arial" font-size="13px" font-style="normal" font-weight="bold" text-decoration="none" x="260.5" y="859.5">增添观演人并返回提示信息</text></g></g><g transform="translate(-22,-190) scale(1,1)"><path fill="#C0C0C0" stroke="none" d="M 465 847 L 548 847 Q 558 847 558 857 L 558 877 Q 558 887 548 887 L 465 887 Q 455 887 455 877 L 455 857 Q 455 847 465 847 Z" opacity="0.2"/></g><g transform="translate(-22,-190) scale(1,1)"><path fill="#ffffff" stroke="none" d="M 458 840 L 541 840 Q 551 840 551 850 L 551 870 Q 551 880 541 880 L 458 880 Q 448 880 448 870 L 448 850 Q 448 840 458 840 Z"/></g><g transform="translate(-22,-190) scale(1,1)"><path fill="none" stroke="#000000" d="M 458 840 L 541 840 Q 551 840 551 850 L 551 870 Q 551 880 541 880 L 458 880 Q 448 880 448 870 L 448 850 Q 448 840 458 840 Z" stroke-miterlimit="10"/></g><g transform="translate(-22,-190) scale(1,1)"><g><path fill="none" stroke="none"/><text fill="#000000" stroke="none" font-family="Arial" font-size="13px" font-style="normal" font-weight="bold" text-decoration="none" x="460.5" y="859.5">返回错误信息</text></g></g><g transform="translate(-22,-190) scale(1,1)"><path fill="#C0C0C0" stroke="none" d="M 327 947.5 C 327 940.59644 332.59644 935 339.5 935 C 346.40356 935 352 940.59644 352 947.5 C 352 954.40356 346.40356 960 339.5 960 C 332.59644 960 327 954.40356 327 947.5 Z" opacity="0.2"/></g><g transform="translate(-22,-190) scale(1,1)"><path fill="none" stroke="#000000" d="M 320 940.5 C 320 933.59644 325.59644 928 332.5 928 C 339.40356 928 345 933.59644 345 940.5 C 345 947.40356 339.40356 953 332.5 953 C 325.59644 953 320 947.40356 320 940.5 Z" stroke-miterlimit="10"/></g><g transform="translate(-22,-190) scale(1,1)"><path fill="#000000" stroke="none" d="M 325 940.5 C 325 936.357864 328.357864 933 332.5 933 C 336.642136 933 340 936.357864 340 940.5 C 340 944.642136 336.642136 948 332.5 948 C 328.357864 948 325 944.642136 325 940.5 Z"/></g><g transform="translate(-22,-190) scale(1,1)"><path fill="#C0C0C0" stroke="none" d="M 495 947.5 C 495 940.59644 500.59644 935 507.5 935 C 514.40356 935 520 940.59644 520 947.5 C 520 954.40356 514.40356 960 507.5 960 C 500.59644 960 495 954.40356 495 947.5 Z" opacity="0.2"/></g><g transform="translate(-22,-190) scale(1,1)"><path fill="none" stroke="#000000" d="M 488 940.5 C 488 933.59644 493.59644 928 500.5 928 C 507.40356 928 513 933.59644 513 940.5 C 513 947.40356 507.40356 953 500.5 953 C 493.59644 953 488 947.40356 488 940.5 Z" stroke-miterlimit="10"/></g><g transform="translate(-22,-190) scale(1,1)"><path fill="#000000" stroke="none" d="M 493 940.5 C 493 936.357864 496.357864 933 500.5 933 C 504.642136 933 508 936.357864 508 940.5 C 508 944.642136 504.642136 948 500.5 948 C 496.357864 948 493 944.642136 493 940.5 Z"/></g><g transform="translate(-22,-190) scale(1,1)"><path fill="#C0C0C0" stroke="none" d="M 119 787.5 C 119 780.59644 124.59644 775 131.5 775 C 138.40356 775 144 780.59644 144 787.5 C 144 794.40356 138.40356 800 131.5 800 C 124.59644 800 119 794.40356 119 787.5 Z" opacity="0.2"/></g><g transform="translate(-22,-190) scale(1,1)"><path fill="none" stroke="#000000" d="M 112 780.5 C 112 773.59644 117.59644 768 124.5 768 C 131.40356 768 137 773.59644 137 780.5 C 137 787.40356 131.40356 793 124.5 793 C 117.59644 793 112 787.40356 112 780.5 Z" stroke-miterlimit="10"/></g><g transform="translate(-22,-190) scale(1,1)"><path fill="#000000" stroke="none" d="M 117 780.5 C 117 776.357864 120.357864 773 124.5 773 C 128.642136 773 132 776.357864 132 780.5 C 132 784.642136 128.642136 788 124.5 788 C 120.357864 788 117 784.642136 117 780.5 Z"/></g><g transform="translate(-22,-190) scale(1,1)"><path fill="none" stroke="#000000" d="M 232 259 L 232 296" stroke-miterlimit="10"/></g><g transform="translate(-22,-190) scale(1,1)"><path fill="none" stroke="#000000" d="M 227.790482243984 285.83732514237585 L 232 296 L 236.209517756016 285.83732514237585" stroke-miterlimit="10"/></g><g transform="translate(-22,-190) scale(1,1)"><path fill="none" stroke="#000000" d="M 234 336 L 234 384" stroke-miterlimit="10"/></g><g transform="translate(-22,-190) scale(1,1)"><path fill="none" stroke="#000000" d="M 229.790482243984 373.83732514237585 L 234 384 L 238.209517756016 373.83732514237585" stroke-miterlimit="10"/></g><g transform="translate(-22,-190) scale(1,1)"><path fill="none" stroke="#000000" d="M 328 503 L 328 520" stroke-miterlimit="10"/></g><g transform="translate(-22,-190) scale(1,1)"><path fill="none" stroke="#000000" d="M 323.790482243984 509.83732514237585 L 328 520 L 332.209517756016 509.83732514237585" stroke-miterlimit="10"/></g><g transform="translate(-22,-190) scale(1,1)"><path fill="none" stroke="#000000" d="M 120 607 L 120 672" stroke-miterlimit="10"/></g><g transform="translate(-22,-190) scale(1,1)"><path fill="none" stroke="#000000" d="M 115.79048224398402 661.8373251423759 L 120 672 L 124.20951775601598 661.8373251423759" stroke-miterlimit="10"/></g><g transform="translate(-22,-190) scale(1,1)"><path fill="none" stroke="#000000" d="M 320 529 L 256 529 L 256 577 L 320 577" stroke-miterlimit="10"/></g><g transform="translate(-22,-190) scale(1,1)"><path fill="none" stroke="#000000" d="M 309.83732514237585 581.209517756016 L 320 577 L 309.83732514237585 572.790482243984" stroke-miterlimit="10"/></g><g transform="translate(-22,-190) scale(1,1)"><g><path fill="none" stroke="none"/><text fill="#000000" stroke="none" font-family="Arial" font-size="13px" font-style="normal" font-weight="normal" text-decoration="none" x="262.5" y="524.5">取消操作</text></g></g><g transform="translate(-22,-190) scale(1,1)"><path fill="none" stroke="#000000" d="M 120 503 L 120 560" stroke-miterlimit="10"/></g><g transform="translate(-22,-190) scale(1,1)"><path fill="none" stroke="#000000" d="M 115.79048224398402 549.8373251423759 L 120 560 L 124.20951775601598 549.8373251423759" stroke-miterlimit="10"/></g><g transform="translate(-22,-190) scale(1,1)"><path fill="none" stroke="#000000" d="M 224 392 L 120 392 L 120 456" stroke-miterlimit="10"/></g><g transform="translate(-22,-190) scale(1,1)"><path fill="none" stroke="#000000" d="M 115.79048224398402 445.83732514237585 L 120 456 L 124.20951775601598 445.83732514237585" stroke-miterlimit="10"/></g><g transform="translate(-22,-190) scale(1,1)"><g><path fill="none" stroke="none"/><text fill="#000000" stroke="none" font-family="Arial" font-size="13px" font-style="normal" font-weight="normal" text-decoration="none" x="119.5" y="388.5">选择增加观演人</text></g></g><g transform="translate(-22,-190) scale(1,1)"><path fill="none" stroke="#000000" d="M 246 392 L 328 392 L 328 456" stroke-miterlimit="10"/></g><g transform="translate(-22,-190) scale(1,1)"><path fill="none" stroke="#000000" d="M 323.790482243984 445.83732514237585 L 328 456 L 332.209517756016 445.83732514237585" stroke-miterlimit="10"/></g><g transform="translate(-22,-190) scale(1,1)"><g><path fill="none" stroke="none"/><text fill="#000000" stroke="none" font-family="Arial" font-size="13px" font-style="normal" font-weight="normal" text-decoration="none" x="255.5" y="387.5">选择删除观演人</text></g></g><g transform="translate(-22,-190) scale(1,1)"><path fill="none" stroke="#000000" d="M 122 690 L 122 768" stroke-miterlimit="10"/></g><g transform="translate(-22,-190) scale(1,1)"><path fill="none" stroke="#000000" d="M 117.79048224398402 757.8373251423759 L 122 768 L 126.20951775601598 757.8373251423759" stroke-miterlimit="10"/></g><g transform="translate(-22,-190) scale(1,1)"><g><path fill="none" stroke="none"/><text fill="#000000" stroke="none" font-family="Arial" font-size="13px" font-style="normal" font-weight="normal" text-decoration="none" x="126.5" y="732.5">取消操作</text></g></g><g transform="translate(-22,-190) scale(1,1)"><path fill="none" stroke="#000000" d="M 392 776 L 320 776 L 320 840" stroke-miterlimit="10"/></g><g transform="translate(-22,-190) scale(1,1)"><path fill="none" stroke="#000000" d="M 315.790482243984 829.8373251423759 L 320 840 L 324.209517756016 829.8373251423759" stroke-miterlimit="10"/></g><g transform="translate(-22,-190) scale(1,1)"><g><path fill="none" stroke="none"/><text fill="#000000" stroke="none" font-family="Arial" font-size="13px" font-style="normal" font-weight="normal" text-decoration="none" x="287.5" y="772.5">观演人信息正确</text></g></g><g transform="translate(-22,-190) scale(1,1)"><path fill="none" stroke="#000000" d="M 414 776 L 496 776 L 496 840" stroke-miterlimit="10"/></g><g transform="translate(-22,-190) scale(1,1)"><path fill="none" stroke="#000000" d="M 491.790482243984 829.8373251423759 L 496 840 L 500.209517756016 829.8373251423759" stroke-miterlimit="10"/></g><g transform="translate(-22,-190) scale(1,1)"><g><path fill="none" stroke="none"/><text fill="#000000" stroke="none" font-family="Arial" font-size="13px" font-style="normal" font-weight="normal" text-decoration="none" x="411.5" y="771.5">观演人信息有误</text></g></g><g transform="translate(-22,-190) scale(1,1)"><path fill="none" stroke="#000000" d="M 328 887 L 328 928" stroke-miterlimit="10"/></g><g transform="translate(-22,-190) scale(1,1)"><path fill="none" stroke="#000000" d="M 323.790482243984 917.8373251423759 L 328 928 L 332.209517756016 917.8373251423759" stroke-miterlimit="10"/></g><g transform="translate(-22,-190) scale(1,1)"><path fill="none" stroke="#000000" d="M 501 880 L 501 928" stroke-miterlimit="10"/></g><g transform="translate(-22,-190) scale(1,1)"><path fill="none" stroke="#000000" d="M 496.790482243984 917.8373251423759 L 501 928 L 505.209517756016 917.8373251423759" stroke-miterlimit="10"/></g><g transform="translate(-22,-190) scale(1,1)"><path fill="none" stroke="#000000" d="M 342 529 L 408 529 L 408 577 L 342 577" stroke-miterlimit="10"/></g><g transform="translate(-22,-190) scale(1,1)"><path fill="none" stroke="#000000" d="M 352.16267485762415 572.790482243984 L 342 577 L 352.16267485762415 581.209517756016" stroke-miterlimit="10"/></g><g transform="translate(-22,-190) scale(1,1)"><g><path fill="none" stroke="none"/><text fill="#000000" stroke="none" font-family="Arial" font-size="13px" font-style="normal" font-weight="normal" text-decoration="none" x="342.5" y="523.5">确认删除</text></g></g><g transform="translate(-22,-190) scale(1,1)"><path fill="none" stroke="#000000" d="M 328 586 L 328 616" stroke-miterlimit="10"/></g><g transform="translate(-22,-190) scale(1,1)"><path fill="none" stroke="#000000" d="M 323.790482243984 605.8373251423759 L 328 616 L 332.209517756016 605.8373251423759" stroke-miterlimit="10"/></g><g transform="translate(-22,-190) scale(1,1)"><path fill="#C0C0C0" stroke="none" d="M 327 584.5 L 338.5 575 L 349 584.5 L 338.5 593 L 327 584.5" opacity="0.2"/></g><g transform="translate(-22,-190) scale(1,1)"><path fill="#ffffff" stroke="none" d="M 320 577 L 331 568 L 342 577 L 331 586 L 320 577"/></g><g transform="translate(-22,-190) scale(1,1)"><path fill="none" stroke="#000000" d="M 320 577 L 331 568 L 342 577 L 331 586 L 320 577 L 320 577" stroke-miterlimit="10"/></g><g transform="translate(-22,-190) scale(1,1)"><path fill="none" stroke="#000000" d="M 134 680 L 400 680 L 400 768" stroke-miterlimit="10"/></g><g transform="translate(-22,-190) scale(1,1)"><path fill="none" stroke="#000000" d="M 395.790482243984 757.8373251423759 L 400 768 L 404.209517756016 757.8373251423759" stroke-miterlimit="10"/></g><g transform="translate(-22,-190) scale(1,1)"><g><path fill="none" stroke="none"/><text fill="#000000" stroke="none" font-family="Arial" font-size="13px" font-style="normal" font-weight="normal" text-decoration="none" x="150.5" y="675.5">确认增添</text></g></g></g></svg>