<svg version="1.1" xmlns="http://www.w3.org/2000/svg" xmlns:xlink="http://www.w3.org/1999/xlink" width="484" height="613"><defs/><g><g transform="translate(-214,-198) scale(1,1)"><rect fill="#ffffff" stroke="none" x="432" y="208" width="256" height="21"/></g><g transform="translate(-214,-198) scale(1,1)"><path fill="none" stroke="#000000" d="M 432 208 L 688 208 L 688 229 L 432 229 L 432 208 Z Z" stroke-miterlimit="10" stroke-width="2"/></g><g transform="translate(-214,-198) scale(1,1)"><path fill="none" stroke="#000000" d="M 432 784 L 432 208 L 688 208 L 688 784" stroke-miterlimit="10" stroke-width="2"/></g><g transform="translate(-214,-198) scale(1,1)"><g><path fill="none" stroke="none"/><text fill="#000000" stroke="none" font-family="Arial" font-size="13px" font-style="normal" font-weight="normal" text-decoration="none" x="540.5" y="225">数据库</text></g></g><g transform="translate(-214,-198) scale(1,1)"><rect fill="#ffffff" stroke="none" x="224" y="208" width="208" height="21"/></g><g transform="translate(-214,-198) scale(1,1)"><path fill="none" stroke="#000000" d="M 224 208 L 432 208 L 432 229 L 224 229 L 224 208 Z Z" stroke-miterlimit="10" stroke-width="2"/></g><g transform="translate(-214,-198) scale(1,1)"><path fill="none" stroke="#000000" d="M 224 784 L 224 208 L 432 208 L 432 784" stroke-miterlimit="10" stroke-width="2"/></g><g transform="translate(-214,-198) scale(1,1)"><g><path fill="none" stroke="none"/><text fill="#000000" stroke="none" font-family="Arial" font-size="13px" font-style="normal" font-weight="normal" text-decoration="none" x="315" y="225">用户</text></g></g><g transform="translate(-214,-198) scale(1,1)"><path fill="#C0C0C0" stroke="none" d="M 319 272.5 C 319 267.2532944 323.2532944 263 328.5 263 C 333.7467056 263 338 267.2532944 338 272.5 C 338 277.7467056 333.7467056 282 328.5 282 C 323.2532944 282 319 277.7467056 319 272.5 Z" opacity="0.2"/></g><g transform="translate(-214,-198) scale(1,1)"><path fill="#000000" stroke="none" d="M 312 265.5 C 312 260.2532944 316.2532944 256 321.5 256 C 326.7467056 256 331 260.2532944 331 265.5 C 331 270.7467056 326.7467056 275 321.5 275 C 316.2532944 275 312 270.7467056 312 265.5 Z"/></g><g transform="translate(-214,-198) scale(1,1)"><path fill="#C0C0C0" stroke="none" d="M 281 311 L 374 311 Q 384 311 384 321 L 384 341 Q 384 351 374 351 L 281 351 Q 271 351 271 341 L 271 321 Q 271 311 281 311 Z" opacity="0.2"/></g><g transform="translate(-214,-198) scale(1,1)"><path fill="#ffffff" stroke="none" d="M 274 304 L 367 304 Q 377 304 377 314 L 377 334 Q 377 344 367 344 L 274 344 Q 264 344 264 334 L 264 314 Q 264 304 274 304 Z"/></g><g transform="translate(-214,-198) scale(1,1)"><path fill="none" stroke="#000000" d="M 274 304 L 367 304 Q 377 304 377 314 L 377 334 Q 377 344 367 344 L 274 344 Q 264 344 264 334 L 264 314 Q 264 304 274 304 Z" stroke-miterlimit="10"/></g><g transform="translate(-214,-198) scale(1,1)"><g><path fill="none" stroke="none"/><text fill="#000000" stroke="none" font-family="Arial" font-size="13px" font-style="normal" font-weight="bold" text-decoration="none" x="268.5" y="323.5">点击进入选座页面</text></g></g><g transform="translate(-214,-198) scale(1,1)"><path fill="#C0C0C0" stroke="none" d="M 529 311 L 609 311 Q 619 311 619 321 L 619 341 Q 619 351 609 351 L 529 351 Q 519 351 519 341 L 519 321 Q 519 311 529 311 Z" opacity="0.2"/></g><g transform="translate(-214,-198) scale(1,1)"><path fill="#ffffff" stroke="none" d="M 522 304 L 602 304 Q 612 304 612 314 L 612 334 Q 612 344 602 344 L 522 344 Q 512 344 512 334 L 512 314 Q 512 304 522 304 Z"/></g><g transform="translate(-214,-198) scale(1,1)"><path fill="none" stroke="#000000" d="M 522 304 L 602 304 Q 612 304 612 314 L 612 334 Q 612 344 602 344 L 522 344 Q 512 344 512 334 L 512 314 Q 512 304 522 304 Z" stroke-miterlimit="10"/></g><g transform="translate(-214,-198) scale(1,1)"><g><path fill="none" stroke="none"/><text fill="#000000" stroke="none" font-family="Arial" font-size="13px" font-style="normal" font-weight="bold" text-decoration="none" x="516.5" y="323.5">搜索对应座位表</text></g></g><g transform="translate(-214,-198) scale(1,1)"><path fill="#C0C0C0" stroke="none" d="M 289 399 L 369 399 Q 379 399 379 409 L 379 429 Q 379 439 369 439 L 289 439 Q 279 439 279 429 L 279 409 Q 279 399 289 399 Z" opacity="0.2"/></g><g transform="translate(-214,-198) scale(1,1)"><path fill="#ffffff" stroke="none" d="M 282 392 L 362 392 Q 372 392 372 402 L 372 422 Q 372 432 362 432 L 282 432 Q 272 432 272 422 L 272 402 Q 272 392 282 392 Z"/></g><g transform="translate(-214,-198) scale(1,1)"><path fill="none" stroke="#000000" d="M 282 392 L 362 392 Q 372 392 372 402 L 372 422 Q 372 432 362 432 L 282 432 Q 272 432 272 422 L 272 402 Q 272 392 282 392 Z" stroke-miterlimit="10"/></g><g transform="translate(-214,-198) scale(1,1)"><g><path fill="none" stroke="none"/><text fill="#000000" stroke="none" font-family="Arial" font-size="13px" font-style="normal" font-weight="bold" text-decoration="none" x="276.5" y="411.5">显示座位并选择</text></g></g><g transform="translate(-214,-198) scale(1,1)"><path fill="none" stroke="#000000" d="M 511 343 L 373 393" stroke-miterlimit="10"/></g><g transform="translate(-214,-198) scale(1,1)"><path fill="none" stroke="#000000" d="M 381.12088454702683 385.5803481096576 L 373 393 L 383.9888186981404 393.49584636673103" stroke-miterlimit="10"/></g><g transform="translate(-214,-198) scale(1,1)"><path fill="none" stroke="#000000" d="M 378 324 L 511 324" stroke-miterlimit="10"/></g><g transform="translate(-214,-198) scale(1,1)"><path fill="none" stroke="#000000" d="M 500.83732514237585 328.209517756016 L 511 324 L 500.83732514237585 319.790482243984" stroke-miterlimit="10"/></g><g transform="translate(-214,-198) scale(1,1)"><path fill="#C0C0C0" stroke="none" d="M 273 471 L 399.22998046875 471 Q 409.22998046875 471 409.22998046875 481 L 409.22998046875 501 Q 409.22998046875 511 399.22998046875 511 L 273 511 Q 263 511 263 501 L 263 481 Q 263 471 273 471 Z" opacity="0.2"/></g><g transform="translate(-214,-198) scale(1,1)"><path fill="#ffffff" stroke="none" d="M 266 464 L 392.22998046875 464 Q 402.22998046875 464 402.22998046875 474 L 402.22998046875 494 Q 402.22998046875 504 392.22998046875 504 L 266 504 Q 256 504 256 494 L 256 474 Q 256 464 266 464 Z"/></g><g transform="translate(-214,-198) scale(1,1)"><path fill="none" stroke="#000000" d="M 266 464 L 392.22998046875 464 Q 402.22998046875 464 402.22998046875 474 L 402.22998046875 494 Q 402.22998046875 504 392.22998046875 504 L 266 504 Q 256 504 256 494 L 256 474 Q 256 464 266 464 Z" stroke-miterlimit="10"/></g><g transform="translate(-214,-198) scale(1,1)"><g><path fill="none" stroke="none"/><text fill="#000000" stroke="none" font-family="Arial" font-size="13px" font-style="normal" font-weight="bold" text-decoration="none" x="264.114990234375" y="483.5">选择观演人与支付方式</text></g></g><g transform="translate(-214,-198) scale(1,1)"><path fill="none" stroke="#000000" d="M 324 432 L 324 464" stroke-miterlimit="10"/></g><g transform="translate(-214,-198) scale(1,1)"><path fill="none" stroke="#000000" d="M 319.790482243984 453.83732514237585 L 324 464 L 328.209517756016 453.83732514237585" stroke-miterlimit="10"/></g><g transform="translate(-214,-198) scale(1,1)"><path fill="#C0C0C0" stroke="none" d="M 553 543 L 607 543 Q 617 543 617 553 L 617 573 Q 617 583 607 583 L 553 583 Q 543 583 543 573 L 543 553 Q 543 543 553 543 Z" opacity="0.2"/></g><g transform="translate(-214,-198) scale(1,1)"><path fill="#ffffff" stroke="none" d="M 546 536 L 600 536 Q 610 536 610 546 L 610 566 Q 610 576 600 576 L 546 576 Q 536 576 536 566 L 536 546 Q 536 536 546 536 Z"/></g><g transform="translate(-214,-198) scale(1,1)"><path fill="none" stroke="#000000" d="M 546 536 L 600 536 Q 610 536 610 546 L 610 566 Q 610 576 600 576 L 546 576 Q 536 576 536 566 L 536 546 Q 536 536 546 536 Z" stroke-miterlimit="10"/></g><g transform="translate(-214,-198) scale(1,1)"><g><path fill="none" stroke="none"/><text fill="#000000" stroke="none" font-family="Arial" font-size="13px" font-style="normal" font-weight="bold" text-decoration="none" x="540.5" y="555.5">信誉分检测</text></g></g><g transform="translate(-214,-198) scale(1,1)"><path fill="#C0C0C0" stroke="none" d="M 567 624.5 L 578.5 615 L 589 624.5 L 578.5 633 L 567 624.5" opacity="0.2"/></g><g transform="translate(-214,-198) scale(1,1)"><path fill="#ffffff" stroke="none" d="M 560 617 L 571 608 L 582 617 L 571 626 L 560 617"/></g><g transform="translate(-214,-198) scale(1,1)"><path fill="none" stroke="#000000" d="M 560 617 L 571 608 L 582 617 L 571 626 L 560 617 L 560 617" stroke-miterlimit="10"/></g><g transform="translate(-214,-198) scale(1,1)"><path fill="none" stroke="#000000" d="M 572 576 L 572 608" stroke-miterlimit="10"/></g><g transform="translate(-214,-198) scale(1,1)"><path fill="none" stroke="#000000" d="M 567.790482243984 597.8373251423759 L 572 608 L 576.209517756016 597.8373251423759" stroke-miterlimit="10"/></g><g transform="translate(-214,-198) scale(1,1)"><path fill="#C0C0C0" stroke="none" d="M 273 639 L 366 639 Q 376 639 376 649 L 376 669 Q 376 679 366 679 L 273 679 Q 263 679 263 669 L 263 649 Q 263 639 273 639 Z" opacity="0.2"/></g><g transform="translate(-214,-198) scale(1,1)"><path fill="#ffffff" stroke="none" d="M 266 632 L 359 632 Q 369 632 369 642 L 369 662 Q 369 672 359 672 L 266 672 Q 256 672 256 662 L 256 642 Q 256 632 266 632 Z"/></g><g transform="translate(-214,-198) scale(1,1)"><path fill="none" stroke="#000000" d="M 266 632 L 359 632 Q 369 632 369 642 L 369 662 Q 369 672 359 672 L 266 672 Q 256 672 256 662 L 256 642 Q 256 632 266 632 Z" stroke-miterlimit="10"/></g><g transform="translate(-214,-198) scale(1,1)"><g><path fill="none" stroke="none"/><text fill="#000000" stroke="none" font-family="Arial" font-size="13px" font-style="normal" font-weight="bold" text-decoration="none" x="260.5" y="651.5">显示信誉分不达标</text></g></g><g transform="translate(-214,-198) scale(1,1)"><path fill="none" stroke="#000000" d="M 559 619 L 370 644" stroke-miterlimit="10"/></g><g transform="translate(-214,-198) scale(1,1)"><path fill="none" stroke="#000000" d="M 379.5229117821548 638.4941711623682 L 370 644 L 380.6269244049448 646.840506590661" stroke-miterlimit="10"/></g><g transform="translate(-214,-198) scale(1,1)"><g><path fill="none" stroke="none"/><text fill="#000000" stroke="none" font-family="Arial" font-size="13px" font-style="normal" font-weight="normal" text-decoration="none" x="390.5" y="619.5">信誉分未达到购买要求</text></g></g><g transform="translate(-214,-198) scale(1,1)"><path fill="#C0C0C0" stroke="none" d="M 273 703 L 366 703 Q 376 703 376 713 L 376 733 Q 376 743 366 743 L 273 743 Q 263 743 263 733 L 263 713 Q 263 703 273 703 Z" opacity="0.2"/></g><g transform="translate(-214,-198) scale(1,1)"><path fill="#ffffff" stroke="none" d="M 266 696 L 359 696 Q 369 696 369 706 L 369 726 Q 369 736 359 736 L 266 736 Q 256 736 256 726 L 256 706 Q 256 696 266 696 Z"/></g><g transform="translate(-214,-198) scale(1,1)"><path fill="none" stroke="#000000" d="M 266 696 L 359 696 Q 369 696 369 706 L 369 726 Q 369 736 359 736 L 266 736 Q 256 736 256 726 L 256 706 Q 256 696 266 696 Z" stroke-miterlimit="10"/></g><g transform="translate(-214,-198) scale(1,1)"><g><path fill="none" stroke="none"/><text fill="#000000" stroke="none" font-family="Arial" font-size="13px" font-style="normal" font-weight="bold" text-decoration="none" x="260.5" y="715.5">显示订单创建成功</text></g></g><g transform="translate(-214,-198) scale(1,1)"><path fill="#C0C0C0" stroke="none" d="M 553 727 L 620 727 Q 630 727 630 737 L 630 757 Q 630 767 620 767 L 553 767 Q 543 767 543 757 L 543 737 Q 543 727 553 727 Z" opacity="0.2"/></g><g transform="translate(-214,-198) scale(1,1)"><path fill="#ffffff" stroke="none" d="M 546 720 L 613 720 Q 623 720 623 730 L 623 750 Q 623 760 613 760 L 546 760 Q 536 760 536 750 L 536 730 Q 536 720 546 720 Z"/></g><g transform="translate(-214,-198) scale(1,1)"><path fill="none" stroke="#000000" d="M 546 720 L 613 720 Q 623 720 623 730 L 623 750 Q 623 760 613 760 L 546 760 Q 536 760 536 750 L 536 730 Q 536 720 546 720 Z" stroke-miterlimit="10"/></g><g transform="translate(-214,-198) scale(1,1)"><g><path fill="none" stroke="none"/><text fill="#000000" stroke="none" font-family="Arial" font-size="13px" font-style="normal" font-weight="bold" text-decoration="none" x="540.5" y="739.5">系统创建订单</text></g></g><g transform="translate(-214,-198) scale(1,1)"><path fill="#C0C0C0" stroke="none" d="M 506 663 L 569 663 Q 572 663 572 666 L 572 665 Q 572 668 569 668 L 506 668 Q 503 668 503 665 L 503 666 Q 503 663 506 663 Z" opacity="0.2"/></g><g transform="translate(-214,-198) scale(1,1)"><path fill="#000000" stroke="none" d="M 499 656 L 562 656 Q 565 656 565 659 L 565 659 Q 565 662 562 662 L 499 662 Q 496 662 496 659 L 496 659 Q 496 656 499 656 Z"/></g><g transform="translate(-214,-198) scale(1,1)"><path fill="none" stroke="#000000" d="M 561 627 L 533 655" stroke-miterlimit="10"/></g><g transform="translate(-214,-198) scale(1,1)"><path fill="none" stroke="#000000" d="M 537.209517756016 644.8373251423759 L 533 655 L 543.1626748576241 650.790482243984" stroke-miterlimit="10"/></g><g transform="translate(-214,-198) scale(1,1)"><g><path fill="none" stroke="none"/><text fill="#000000" stroke="none" font-family="Arial" font-size="13px" font-style="normal" font-weight="normal" text-decoration="none" x="567.5" y="644.5">信誉分达标</text></g></g><g transform="translate(-214,-198) scale(1,1)"><path fill="none" stroke="#000000" d="M 515 662 L 370 701" stroke-miterlimit="10"/></g><g transform="translate(-214,-198) scale(1,1)"><path fill="none" stroke="#000000" d="M 378.7205346397328 694.2953541780926 L 370 701 L 380.90724970545205 702.4254486532025" stroke-miterlimit="10"/></g><g transform="translate(-214,-198) scale(1,1)"><path fill="none" stroke="#000000" d="M 532 662 L 566 719" stroke-miterlimit="10"/></g><g transform="translate(-214,-198) scale(1,1)"><path fill="none" stroke="#000000" d="M 557.1786662328349 712.4285412145954 L 566 719 L 564.4090981435751 708.1156520046801" stroke-miterlimit="10"/></g><g transform="translate(-214,-198) scale(1,1)"><path fill="none" stroke="#000000" d="M 400 505 L 535 545" stroke-miterlimit="10"/></g><g transform="translate(-214,-198) scale(1,1)"><path fill="none" stroke="#000000" d="M 524.0601716583283 546.1489803543816 L 535 545 L 526.4519213945538 538.0768249946204" stroke-miterlimit="10"/></g><g transform="translate(-214,-198) scale(1,1)"><g><path fill="none" stroke="none"/><text fill="#000000" stroke="none" font-family="Arial" font-size="13px" font-style="normal" font-weight="normal" text-decoration="none" x="438.5" y="508.5">用户提交订单</text></g></g><g transform="translate(-214,-198) scale(1,1)"><path fill="none" stroke="#000000" d="M 321 276 L 320 303" stroke-miterlimit="10"/></g><g transform="translate(-214,-198) scale(1,1)"><path fill="none" stroke="#000000" d="M 316.1695039351113 292.6884870219316 L 320 303 L 324.58277100829406 293.0000895061236" stroke-miterlimit="10"/></g><g transform="translate(-214,-198) scale(1,1)"><path fill="#C0C0C0" stroke="none" d="M 303 795.5 C 303 788.59644 308.59644 783 315.5 783 C 322.40356 783 328 788.59644 328 795.5 C 328 802.40356 322.40356 808 315.5 808 C 308.59644 808 303 802.40356 303 795.5 Z" opacity="0.2"/></g><g transform="translate(-214,-198) scale(1,1)"><path fill="none" stroke="#000000" d="M 296 788.5 C 296 781.59644 301.59644 776 308.5 776 C 315.40356 776 321 781.59644 321 788.5 C 321 795.40356 315.40356 801 308.5 801 C 301.59644 801 296 795.40356 296 788.5 Z" stroke-miterlimit="10"/></g><g transform="translate(-214,-198) scale(1,1)"><path fill="#000000" stroke="none" d="M 301 788.5 C 301 784.357864 304.357864 781 308.5 781 C 312.642136 781 316 784.357864 316 788.5 C 316 792.642136 312.642136 796 308.5 796 C 304.357864 796 301 792.642136 301 788.5 Z"/></g><g transform="translate(-214,-198) scale(1,1)"><path fill="none" stroke="#000000" d="M 311 737 L 309 775" stroke-miterlimit="10"/></g><g transform="translate(-214,-198) scale(1,1)"><path fill="none" stroke="#000000" d="M 305.33043884787344 764.6301243522015 L 309 775 L 313.7378378159721 765.0726190347331" stroke-miterlimit="10"/></g><g transform="translate(-214,-198) scale(1,1)"><path fill="none" stroke="#000000" d="M 535 748 L 322 786" stroke-miterlimit="10"/></g><g transform="translate(-214,-198) scale(1,1)"><path fill="none" stroke="#000000" d="M 331.2653871114406 780.0710370489309 L 322 786 L 332.7440279649229 788.3592081487133" stroke-miterlimit="10"/></g></g></svg>