<svg version="1.1" xmlns="http://www.w3.org/2000/svg" xmlns:xlink="http://www.w3.org/1999/xlink" width="404" height="620"><defs/><g><g transform="translate(-174,-150) scale(1,1)"><rect fill="#ffffff" stroke="none" x="184" y="160" width="384" height="21"/></g><g transform="translate(-174,-150) scale(1,1)"><path fill="none" stroke="#000000" d="M 184 160 L 568 160 L 568 181 L 184 181 L 184 160 Z Z" stroke-miterlimit="10" stroke-width="2"/></g><g transform="translate(-174,-150) scale(1,1)"><path fill="none" stroke="#000000" d="M 184 760 L 184 160 L 568 160 L 568 760" stroke-miterlimit="10" stroke-width="2"/></g><g transform="translate(-174,-150) scale(1,1)"><g><path fill="none" stroke="none"/><text fill="#000000" stroke="none" font-family="Arial" font-size="13px" font-style="normal" font-weight="normal" text-decoration="none" x="356.5" y="177">管理员</text></g></g><g transform="translate(-174,-150) scale(1,1)"><path fill="#C0C0C0" stroke="none" d="M 383 240.5 C 383 235.2532944 387.2532944 231 392.5 231 C 397.7467056 231 402 235.2532944 402 240.5 C 402 245.7467056 397.7467056 250 392.5 250 C 387.2532944 250 383 245.7467056 383 240.5 Z" opacity="0.2"/></g><g transform="translate(-174,-150) scale(1,1)"><path fill="#000000" stroke="none" d="M 376 233.5 C 376 228.2532944 380.2532944 224 385.5 224 C 390.7467056 224 395 228.2532944 395 233.5 C 395 238.7467056 390.7467056 243 385.5 243 C 380.2532944 243 376 238.7467056 376 233.5 Z"/></g><g transform="translate(-174,-150) scale(1,1)"><path fill="#C0C0C0" stroke="none" d="M 345 287 L 452 287 Q 462 287 462 297 L 462 317 Q 462 327 452 327 L 345 327 Q 335 327 335 317 L 335 297 Q 335 287 345 287 Z" opacity="0.2"/></g><g transform="translate(-174,-150) scale(1,1)"><path fill="#ffffff" stroke="none" d="M 338 280 L 445 280 Q 455 280 455 290 L 455 310 Q 455 320 445 320 L 338 320 Q 328 320 328 310 L 328 290 Q 328 280 338 280 Z"/></g><g transform="translate(-174,-150) scale(1,1)"><path fill="none" stroke="#000000" d="M 338 280 L 445 280 Q 455 280 455 290 L 455 310 Q 455 320 445 320 L 338 320 Q 328 320 328 310 L 328 290 Q 328 280 338 280 Z" stroke-miterlimit="10"/></g><g transform="translate(-174,-150) scale(1,1)"><g><path fill="none" stroke="none"/><text fill="#000000" stroke="none" font-family="Arial" font-size="13px" font-style="normal" font-weight="bold" text-decoration="none" x="339.5" y="299.5">进入售票分析界面</text></g></g><g transform="translate(-174,-150) scale(1,1)"><path fill="none" stroke="#000000" d="M 386 243 L 386 280" stroke-miterlimit="10"/></g><g transform="translate(-174,-150) scale(1,1)"><path fill="none" stroke="#000000" d="M 381.790482243984 269.83732514237585 L 386 280 L 390.209517756016 269.83732514237585" stroke-miterlimit="10"/></g><g transform="translate(-174,-150) scale(1,1)"><path fill="none" stroke="#000000" d="M 384 320 L 384 368" stroke-miterlimit="10"/></g><g transform="translate(-174,-150) scale(1,1)"><path fill="none" stroke="#000000" d="M 379.790482243984 357.83732514237585 L 384 368 L 388.209517756016 357.83732514237585" stroke-miterlimit="10"/></g><g transform="translate(-174,-150) scale(1,1)"><path fill="none" stroke="#000000" d="M 379 408 L 379 440" stroke-miterlimit="10"/></g><g transform="translate(-174,-150) scale(1,1)"><path fill="none" stroke="#000000" d="M 374.790482243984 429.83732514237585 L 379 440 L 383.209517756016 429.83732514237585" stroke-miterlimit="10"/></g><g transform="translate(-174,-150) scale(1,1)"><path fill="none" stroke="#000000" d="M 300 528 L 300 569 L 368 569" stroke-miterlimit="10"/></g><g transform="translate(-174,-150) scale(1,1)"><path fill="none" stroke="#000000" d="M 357.83732514237585 573.209517756016 L 368 569 L 357.83732514237585 564.790482243984" stroke-miterlimit="10"/></g><g transform="translate(-174,-150) scale(1,1)"><path fill="none" stroke="#000000" d="M 368 449 L 296 449 L 296 488" stroke-miterlimit="10"/></g><g transform="translate(-174,-150) scale(1,1)"><path fill="none" stroke="#000000" d="M 291.790482243984 477.83732514237585 L 296 488 L 300.209517756016 477.83732514237585" stroke-miterlimit="10"/></g><g transform="translate(-174,-150) scale(1,1)"><g><path fill="none" stroke="none"/><text fill="#000000" stroke="none" font-family="Arial" font-size="13px" font-style="normal" font-weight="normal" text-decoration="none" x="310.5" y="444.5">获取成功</text></g></g><g transform="translate(-174,-150) scale(1,1)"><path fill="none" stroke="#000000" d="M 390 448 L 448 448 L 448 568 L 390 568" stroke-miterlimit="10"/></g><g transform="translate(-174,-150) scale(1,1)"><path fill="none" stroke="#000000" d="M 400.16267485762415 563.790482243984 L 390 568 L 400.16267485762415 572.209517756016" stroke-miterlimit="10"/></g><g transform="translate(-174,-150) scale(1,1)"><g><path fill="none" stroke="none"/><text fill="#000000" stroke="none" font-family="Arial" font-size="13px" font-style="normal" font-weight="normal" text-decoration="none" x="390.5" y="447.5">获取失败</text></g></g><g transform="translate(-174,-150) scale(1,1)"><path fill="#C0C0C0" stroke="none" d="M 345 375 L 437 375 Q 447 375 447 385 L 447 405 Q 447 415 437 415 L 345 415 Q 335 415 335 405 L 335 385 Q 335 375 345 375 Z" opacity="0.2"/></g><g transform="translate(-174,-150) scale(1,1)"><path fill="#ffffff" stroke="none" d="M 338 368 L 430 368 Q 440 368 440 378 L 440 398 Q 440 408 430 408 L 338 408 Q 328 408 328 398 L 328 378 Q 328 368 338 368 Z"/></g><g transform="translate(-174,-150) scale(1,1)"><path fill="none" stroke="#000000" d="M 338 368 L 430 368 Q 440 368 440 378 L 440 398 Q 440 408 430 408 L 338 408 Q 328 408 328 398 L 328 378 Q 328 368 338 368 Z" stroke-miterlimit="10"/></g><g transform="translate(-174,-150) scale(1,1)"><g><path fill="none" stroke="none"/><text fill="#000000" stroke="none" font-family="Arial" font-size="13px" font-style="normal" font-weight="bold" text-decoration="none" x="345" y="387.5">选择某场演出</text></g></g><g transform="translate(-174,-150) scale(1,1)"><path fill="#C0C0C0" stroke="none" d="M 375 456.5 L 386.5 447 L 397 456.5 L 386.5 465 L 375 456.5" opacity="0.2"/></g><g transform="translate(-174,-150) scale(1,1)"><path fill="#ffffff" stroke="none" d="M 368 449 L 379 440 L 390 449 L 379 458 L 368 449"/></g><g transform="translate(-174,-150) scale(1,1)"><path fill="none" stroke="#000000" d="M 368 449 L 379 440 L 390 449 L 379 458 L 368 449 L 368 449" stroke-miterlimit="10"/></g><g transform="translate(-174,-150) scale(1,1)"><path fill="#C0C0C0" stroke="none" d="M 257 495 L 356 495 Q 366 495 366 505 L 366 525 Q 366 535 356 535 L 257 535 Q 247 535 247 525 L 247 505 Q 247 495 257 495 Z" opacity="0.2"/></g><g transform="translate(-174,-150) scale(1,1)"><path fill="#ffffff" stroke="none" d="M 250 488 L 349 488 Q 359 488 359 498 L 359 518 Q 359 528 349 528 L 250 528 Q 240 528 240 518 L 240 498 Q 240 488 250 488 Z"/></g><g transform="translate(-174,-150) scale(1,1)"><path fill="none" stroke="#000000" d="M 250 488 L 349 488 Q 359 488 359 498 L 359 518 Q 359 528 349 528 L 250 528 Q 240 528 240 518 L 240 498 Q 240 488 250 488 Z" stroke-miterlimit="10"/></g><g transform="translate(-174,-150) scale(1,1)"><g><path fill="none" stroke="none"/><text fill="#000000" stroke="none" font-family="Arial" font-size="13px" font-style="normal" font-weight="bold" text-decoration="none" x="247.5" y="507.5">返回售票情况分析</text></g></g><g transform="translate(-174,-150) scale(1,1)"><path fill="#C0C0C0" stroke="none" d="M 375 643.5 C 375 636.59644 380.59644 631 387.5 631 C 394.40356 631 400 636.59644 400 643.5 C 400 650.40356 394.40356 656 387.5 656 C 380.59644 656 375 650.40356 375 643.5 Z" opacity="0.2"/></g><g transform="translate(-174,-150) scale(1,1)"><path fill="none" stroke="#000000" d="M 368 636.5 C 368 629.59644 373.59644 624 380.5 624 C 387.40356 624 393 629.59644 393 636.5 C 393 643.40356 387.40356 649 380.5 649 C 373.59644 649 368 643.40356 368 636.5 Z" stroke-miterlimit="10"/></g><g transform="translate(-174,-150) scale(1,1)"><path fill="#000000" stroke="none" d="M 373 636.5 C 373 632.357864 376.357864 629 380.5 629 C 384.642136 629 388 632.357864 388 636.5 C 388 640.642136 384.642136 644 380.5 644 C 376.357864 644 373 640.642136 373 636.5 Z"/></g><g transform="translate(-174,-150) scale(1,1)"><path fill="#C0C0C0" stroke="none" d="M 375 576.5 L 386.5 567 L 397 576.5 L 386.5 585 L 375 576.5" opacity="0.2"/></g><g transform="translate(-174,-150) scale(1,1)"><path fill="#ffffff" stroke="none" d="M 368 569 L 379 560 L 390 569 L 379 578 L 368 569"/></g><g transform="translate(-174,-150) scale(1,1)"><path fill="none" stroke="#000000" d="M 368 569 L 379 560 L 390 569 L 379 578 L 368 569 L 368 569" stroke-miterlimit="10"/></g><g transform="translate(-174,-150) scale(1,1)"><path fill="none" stroke="#000000" d="M 379 578 L 379 624" stroke-miterlimit="10"/></g><g transform="translate(-174,-150) scale(1,1)"><path fill="none" stroke="#000000" d="M 374.790482243984 613.8373251423759 L 379 624 L 383.209517756016 613.8373251423759" stroke-miterlimit="10"/></g></g></svg>