<svg version="1.1" xmlns="http://www.w3.org/2000/svg" xmlns:xlink="http://www.w3.org/1999/xlink" width="484" height="596"><defs/><g><g transform="translate(-214,-198) scale(1,1)"><rect fill="#ffffff" stroke="none" x="456" y="208" width="232" height="21"/></g><g transform="translate(-214,-198) scale(1,1)"><path fill="none" stroke="#000000" d="M 456 208 L 688 208 L 688 229 L 456 229 L 456 208 Z Z" stroke-miterlimit="10" stroke-width="2"/></g><g transform="translate(-214,-198) scale(1,1)"><path fill="none" stroke="#000000" d="M 456 784 L 456 208 L 688 208 L 688 784" stroke-miterlimit="10" stroke-width="2"/></g><g transform="translate(-214,-198) scale(1,1)"><g><path fill="none" stroke="none"/><text fill="#000000" stroke="none" font-family="Arial" font-size="13px" font-style="normal" font-weight="normal" text-decoration="none" x="559" y="225">系统</text></g></g><g transform="translate(-214,-198) scale(1,1)"><rect fill="#ffffff" stroke="none" x="224" y="208" width="232" height="21"/></g><g transform="translate(-214,-198) scale(1,1)"><path fill="none" stroke="#000000" d="M 224 208 L 456 208 L 456 229 L 224 229 L 224 208 Z Z" stroke-miterlimit="10" stroke-width="2"/></g><g transform="translate(-214,-198) scale(1,1)"><path fill="none" stroke="#000000" d="M 224 784 L 224 208 L 456 208 L 456 784" stroke-miterlimit="10" stroke-width="2"/></g><g transform="translate(-214,-198) scale(1,1)"><g><path fill="none" stroke="none"/><text fill="#000000" stroke="none" font-family="Arial" font-size="13px" font-style="normal" font-weight="normal" text-decoration="none" x="327" y="225">用户</text></g></g><g transform="translate(-214,-198) scale(1,1)"><path fill="#C0C0C0" stroke="none" d="M 327 272.5 C 327 267.2532944 331.2532944 263 336.5 263 C 341.7467056 263 346 267.2532944 346 272.5 C 346 277.7467056 341.7467056 282 336.5 282 C 331.2532944 282 327 277.7467056 327 272.5 Z" opacity="0.2"/></g><g transform="translate(-214,-198) scale(1,1)"><path fill="#000000" stroke="none" d="M 320 265.5 C 320 260.2532944 324.2532944 256 329.5 256 C 334.7467056 256 339 260.2532944 339 265.5 C 339 270.7467056 334.7467056 275 329.5 275 C 324.2532944 275 320 270.7467056 320 265.5 Z"/></g><g transform="translate(-214,-198) scale(1,1)"><path fill="#C0C0C0" stroke="none" d="M 281 311 L 374 311 Q 384 311 384 321 L 384 341 Q 384 351 374 351 L 281 351 Q 271 351 271 341 L 271 321 Q 271 311 281 311 Z" opacity="0.2"/></g><g transform="translate(-214,-198) scale(1,1)"><path fill="#ffffff" stroke="none" d="M 274 304 L 367 304 Q 377 304 377 314 L 377 334 Q 377 344 367 344 L 274 344 Q 264 344 264 334 L 264 314 Q 264 304 274 304 Z"/></g><g transform="translate(-214,-198) scale(1,1)"><path fill="none" stroke="#000000" d="M 274 304 L 367 304 Q 377 304 377 314 L 377 334 Q 377 344 367 344 L 274 344 Q 264 344 264 334 L 264 314 Q 264 304 274 304 Z" stroke-miterlimit="10"/></g><g transform="translate(-214,-198) scale(1,1)"><g><path fill="none" stroke="none"/><text fill="#000000" stroke="none" font-family="Arial" font-size="13px" font-style="normal" font-weight="bold" text-decoration="none" x="268.5" y="323.5">点击进入选座页面</text></g></g><g transform="translate(-214,-198) scale(1,1)"><path fill="#C0C0C0" stroke="none" d="M 529 311 L 609 311 Q 619 311 619 321 L 619 341 Q 619 351 609 351 L 529 351 Q 519 351 519 341 L 519 321 Q 519 311 529 311 Z" opacity="0.2"/></g><g transform="translate(-214,-198) scale(1,1)"><path fill="#ffffff" stroke="none" d="M 522 304 L 602 304 Q 612 304 612 314 L 612 334 Q 612 344 602 344 L 522 344 Q 512 344 512 334 L 512 314 Q 512 304 522 304 Z"/></g><g transform="translate(-214,-198) scale(1,1)"><path fill="none" stroke="#000000" d="M 522 304 L 602 304 Q 612 304 612 314 L 612 334 Q 612 344 602 344 L 522 344 Q 512 344 512 334 L 512 314 Q 512 304 522 304 Z" stroke-miterlimit="10"/></g><g transform="translate(-214,-198) scale(1,1)"><g><path fill="none" stroke="none"/><text fill="#000000" stroke="none" font-family="Arial" font-size="13px" font-style="normal" font-weight="bold" text-decoration="none" x="516.5" y="323.5">搜索对应座位表</text></g></g><g transform="translate(-214,-198) scale(1,1)"><path fill="#C0C0C0" stroke="none" d="M 289 399 L 369 399 Q 379 399 379 409 L 379 429 Q 379 439 369 439 L 289 439 Q 279 439 279 429 L 279 409 Q 279 399 289 399 Z" opacity="0.2"/></g><g transform="translate(-214,-198) scale(1,1)"><path fill="#ffffff" stroke="none" d="M 282 392 L 362 392 Q 372 392 372 402 L 372 422 Q 372 432 362 432 L 282 432 Q 272 432 272 422 L 272 402 Q 272 392 282 392 Z"/></g><g transform="translate(-214,-198) scale(1,1)"><path fill="none" stroke="#000000" d="M 282 392 L 362 392 Q 372 392 372 402 L 372 422 Q 372 432 362 432 L 282 432 Q 272 432 272 422 L 272 402 Q 272 392 282 392 Z" stroke-miterlimit="10"/></g><g transform="translate(-214,-198) scale(1,1)"><g><path fill="none" stroke="none"/><text fill="#000000" stroke="none" font-family="Arial" font-size="13px" font-style="normal" font-weight="bold" text-decoration="none" x="276.5" y="411.5">显示座位并选择</text></g></g><g transform="translate(-214,-198) scale(1,1)"><path fill="none" stroke="#000000" d="M 511 343 L 373 393" stroke-miterlimit="10"/></g><g transform="translate(-214,-198) scale(1,1)"><path fill="none" stroke="#000000" d="M 381.12088454702683 385.5803481096576 L 373 393 L 383.9888186981404 393.49584636673103" stroke-miterlimit="10"/></g><g transform="translate(-214,-198) scale(1,1)"><path fill="none" stroke="#000000" d="M 377 324 L 512 324" stroke-miterlimit="10"/></g><g transform="translate(-214,-198) scale(1,1)"><path fill="none" stroke="#000000" d="M 501.83732514237585 328.209517756016 L 512 324 L 501.83732514237585 319.790482243984" stroke-miterlimit="10"/></g><g transform="translate(-214,-198) scale(1,1)"><path fill="#C0C0C0" stroke="none" d="M 273 471 L 399.22998046875 471 Q 409.22998046875 471 409.22998046875 481 L 409.22998046875 501 Q 409.22998046875 511 399.22998046875 511 L 273 511 Q 263 511 263 501 L 263 481 Q 263 471 273 471 Z" opacity="0.2"/></g><g transform="translate(-214,-198) scale(1,1)"><path fill="#ffffff" stroke="none" d="M 266 464 L 392.22998046875 464 Q 402.22998046875 464 402.22998046875 474 L 402.22998046875 494 Q 402.22998046875 504 392.22998046875 504 L 266 504 Q 256 504 256 494 L 256 474 Q 256 464 266 464 Z"/></g><g transform="translate(-214,-198) scale(1,1)"><path fill="none" stroke="#000000" d="M 266 464 L 392.22998046875 464 Q 402.22998046875 464 402.22998046875 474 L 402.22998046875 494 Q 402.22998046875 504 392.22998046875 504 L 266 504 Q 256 504 256 494 L 256 474 Q 256 464 266 464 Z" stroke-miterlimit="10"/></g><g transform="translate(-214,-198) scale(1,1)"><g><path fill="none" stroke="none"/><text fill="#000000" stroke="none" font-family="Arial" font-size="13px" font-style="normal" font-weight="bold" text-decoration="none" x="264.114990234375" y="483.5">选择观演人与支付方式</text></g></g><g transform="translate(-214,-198) scale(1,1)"><path fill="none" stroke="#000000" d="M 324 432 L 324 464" stroke-miterlimit="10"/></g><g transform="translate(-214,-198) scale(1,1)"><path fill="none" stroke="#000000" d="M 319.790482243984 453.83732514237585 L 324 464 L 328.209517756016 453.83732514237585" stroke-miterlimit="10"/></g><g transform="translate(-214,-198) scale(1,1)"><path fill="#C0C0C0" stroke="none" d="M 249 543 L 433 543 Q 443 543 443 553 L 443 573 Q 443 583 433 583 L 249 583 Q 239 583 239 573 L 239 553 Q 239 543 249 543 Z" opacity="0.2"/></g><g transform="translate(-214,-198) scale(1,1)"><path fill="#ffffff" stroke="none" d="M 242 536 L 426 536 Q 436 536 436 546 L 436 566 Q 436 576 426 576 L 242 576 Q 232 576 232 566 L 232 546 Q 232 536 242 536 Z"/></g><g transform="translate(-214,-198) scale(1,1)"><path fill="none" stroke="#000000" d="M 242 536 L 426 536 Q 436 536 436 546 L 436 566 Q 436 576 426 576 L 242 576 Q 232 576 232 566 L 232 546 Q 232 536 242 536 Z" stroke-miterlimit="10"/></g><g transform="translate(-214,-198) scale(1,1)"><g><path fill="none" stroke="none"/><text fill="#000000" stroke="none" font-family="Arial" font-size="13px" font-style="normal" font-weight="bold" text-decoration="none" x="245.1708984375" y="555.5">阅读《订票协议》并点击“同意”</text></g></g><g transform="translate(-214,-198) scale(1,1)"><path fill="none" stroke="#000000" d="M 330 504 L 330 536" stroke-miterlimit="10"/></g><g transform="translate(-214,-198) scale(1,1)"><path fill="none" stroke="#000000" d="M 325.790482243984 525.8373251423759 L 330 536 L 334.209517756016 525.8373251423759" stroke-miterlimit="10"/></g><g transform="translate(-214,-198) scale(1,1)"><path fill="#C0C0C0" stroke="none" d="M 553 543 L 607 543 Q 617 543 617 553 L 617 573 Q 617 583 607 583 L 553 583 Q 543 583 543 573 L 543 553 Q 543 543 553 543 Z" opacity="0.2"/></g><g transform="translate(-214,-198) scale(1,1)"><path fill="#ffffff" stroke="none" d="M 546 536 L 600 536 Q 610 536 610 546 L 610 566 Q 610 576 600 576 L 546 576 Q 536 576 536 566 L 536 546 Q 536 536 546 536 Z"/></g><g transform="translate(-214,-198) scale(1,1)"><path fill="none" stroke="#000000" d="M 546 536 L 600 536 Q 610 536 610 546 L 610 566 Q 610 576 600 576 L 546 576 Q 536 576 536 566 L 536 546 Q 536 536 546 536 Z" stroke-miterlimit="10"/></g><g transform="translate(-214,-198) scale(1,1)"><g><path fill="none" stroke="none"/><text fill="#000000" stroke="none" font-family="Arial" font-size="13px" font-style="normal" font-weight="bold" text-decoration="none" x="540.5" y="555.5">信誉分检测</text></g></g><g transform="translate(-214,-198) scale(1,1)"><path fill="none" stroke="#000000" d="M 437 556 L 535 556" stroke-miterlimit="10"/></g><g transform="translate(-214,-198) scale(1,1)"><path fill="none" stroke="#000000" d="M 524.8373251423759 560.209517756016 L 535 556 L 524.8373251423758 551.790482243984" stroke-miterlimit="10"/></g><g transform="translate(-214,-198) scale(1,1)"><g><path fill="none" stroke="none"/><text fill="#000000" stroke="none" font-family="Arial" font-size="13px" font-style="normal" font-weight="normal" text-decoration="none" x="446.5" y="547.5">用户提交订单</text></g></g><g transform="translate(-214,-198) scale(1,1)"><path fill="#C0C0C0" stroke="none" d="M 567 624.5 L 578.5 615 L 589 624.5 L 578.5 633 L 567 624.5" opacity="0.2"/></g><g transform="translate(-214,-198) scale(1,1)"><path fill="#ffffff" stroke="none" d="M 560 617 L 571 608 L 582 617 L 571 626 L 560 617"/></g><g transform="translate(-214,-198) scale(1,1)"><path fill="none" stroke="#000000" d="M 560 617 L 571 608 L 582 617 L 571 626 L 560 617 L 560 617" stroke-miterlimit="10"/></g><g transform="translate(-214,-198) scale(1,1)"><path fill="none" stroke="#000000" d="M 572 576 L 572 608" stroke-miterlimit="10"/></g><g transform="translate(-214,-198) scale(1,1)"><path fill="none" stroke="#000000" d="M 567.790482243984 597.8373251423759 L 572 608 L 576.209517756016 597.8373251423759" stroke-miterlimit="10"/></g><g transform="translate(-214,-198) scale(1,1)"><path fill="#C0C0C0" stroke="none" d="M 273 639 L 366 639 Q 376 639 376 649 L 376 669 Q 376 679 366 679 L 273 679 Q 263 679 263 669 L 263 649 Q 263 639 273 639 Z" opacity="0.2"/></g><g transform="translate(-214,-198) scale(1,1)"><path fill="#ffffff" stroke="none" d="M 266 632 L 359 632 Q 369 632 369 642 L 369 662 Q 369 672 359 672 L 266 672 Q 256 672 256 662 L 256 642 Q 256 632 266 632 Z"/></g><g transform="translate(-214,-198) scale(1,1)"><path fill="none" stroke="#000000" d="M 266 632 L 359 632 Q 369 632 369 642 L 369 662 Q 369 672 359 672 L 266 672 Q 256 672 256 662 L 256 642 Q 256 632 266 632 Z" stroke-miterlimit="10"/></g><g transform="translate(-214,-198) scale(1,1)"><g><path fill="none" stroke="none"/><text fill="#000000" stroke="none" font-family="Arial" font-size="13px" font-style="normal" font-weight="bold" text-decoration="none" x="260.5" y="651.5">显示信誉分不达标</text></g></g><g transform="translate(-214,-198) scale(1,1)"><path fill="none" stroke="#000000" d="M 559 619 L 370 644" stroke-miterlimit="10"/></g><g transform="translate(-214,-198) scale(1,1)"><path fill="none" stroke="#000000" d="M 379.5229117821548 638.4941711623682 L 370 644 L 380.6269244049448 646.840506590661" stroke-miterlimit="10"/></g><g transform="translate(-214,-198) scale(1,1)"><g><path fill="none" stroke="none"/><text fill="#000000" stroke="none" font-family="Arial" font-size="13px" font-style="normal" font-weight="normal" text-decoration="none" x="390.5" y="619.5">信誉分未达到购买要求</text></g></g><g transform="translate(-214,-198) scale(1,1)"><path fill="#C0C0C0" stroke="none" d="M 553 727 L 620 727 Q 630 727 630 737 L 630 757 Q 630 767 620 767 L 553 767 Q 543 767 543 757 L 543 737 Q 543 727 553 727 Z" opacity="0.2"/></g><g transform="translate(-214,-198) scale(1,1)"><path fill="#ffffff" stroke="none" d="M 546 720 L 613 720 Q 623 720 623 730 L 623 750 Q 623 760 613 760 L 546 760 Q 536 760 536 750 L 536 730 Q 536 720 546 720 Z"/></g><g transform="translate(-214,-198) scale(1,1)"><path fill="none" stroke="#000000" d="M 546 720 L 613 720 Q 623 720 623 730 L 623 750 Q 623 760 613 760 L 546 760 Q 536 760 536 750 L 536 730 Q 536 720 546 720 Z" stroke-miterlimit="10"/></g><g transform="translate(-214,-198) scale(1,1)"><g><path fill="none" stroke="none"/><text fill="#000000" stroke="none" font-family="Arial" font-size="13px" font-style="normal" font-weight="bold" text-decoration="none" x="540.5" y="739.5">系统创建订单</text></g></g><g transform="translate(-214,-198) scale(1,1)"><path fill="#C0C0C0" stroke="none" d="M 506 663 L 569 663 Q 572 663 572 666 L 572 665 Q 572 668 569 668 L 506 668 Q 503 668 503 665 L 503 666 Q 503 663 506 663 Z" opacity="0.2"/></g><g transform="translate(-214,-198) scale(1,1)"><path fill="#000000" stroke="none" d="M 499 656 L 562 656 Q 565 656 565 659 L 565 659 Q 565 662 562 662 L 499 662 Q 496 662 496 659 L 496 659 Q 496 656 499 656 Z"/></g><g transform="translate(-214,-198) scale(1,1)"><path fill="none" stroke="#000000" d="M 561 627 L 533 655" stroke-miterlimit="10"/></g><g transform="translate(-214,-198) scale(1,1)"><path fill="none" stroke="#000000" d="M 537.209517756016 644.8373251423759 L 533 655 L 543.1626748576241 650.790482243984" stroke-miterlimit="10"/></g><g transform="translate(-214,-198) scale(1,1)"><g><path fill="none" stroke="none"/><text fill="#000000" stroke="none" font-family="Arial" font-size="13px" font-style="normal" font-weight="normal" text-decoration="none" x="567.5" y="644.5">信誉分达标</text></g></g><g transform="translate(-214,-198) scale(1,1)"><path fill="none" stroke="#000000" d="M 519 662 L 432 695" stroke-miterlimit="10"/></g><g transform="translate(-214,-198) scale(1,1)"><path fill="none" stroke="#000000" d="M 440.00915255687386 687.4598756428875 L 432 695 L 442.99499914842715 695.331653020619" stroke-miterlimit="10"/></g><g transform="translate(-214,-198) scale(1,1)"><path fill="none" stroke="#000000" d="M 532 662 L 566 719" stroke-miterlimit="10"/></g><g transform="translate(-214,-198) scale(1,1)"><path fill="none" stroke="#000000" d="M 557.1786662328349 712.4285412145954 L 566 719 L 564.4090981435751 708.1156520046801" stroke-miterlimit="10"/></g><g transform="translate(-214,-198) scale(1,1)"><path fill="none" stroke="#000000" d="M 327 275 L 327 304" stroke-miterlimit="10"/></g><g transform="translate(-214,-198) scale(1,1)"><path fill="none" stroke="#000000" d="M 322.790482243984 293.83732514237585 L 327 304 L 331.209517756016 293.83732514237585" stroke-miterlimit="10"/></g><g transform="translate(-214,-198) scale(1,1)"><path fill="#C0C0C0" stroke="none" d="M 337 703 L 430 703 Q 440 703 440 713 L 440 733 Q 440 743 430 743 L 337 743 Q 327 743 327 733 L 327 713 Q 327 703 337 703 Z" opacity="0.2"/></g><g transform="translate(-214,-198) scale(1,1)"><path fill="#ffffff" stroke="none" d="M 330 696 L 423 696 Q 433 696 433 706 L 433 726 Q 433 736 423 736 L 330 736 Q 320 736 320 726 L 320 706 Q 320 696 330 696 Z"/></g><g transform="translate(-214,-198) scale(1,1)"><path fill="none" stroke="#000000" d="M 330 696 L 423 696 Q 433 696 433 706 L 433 726 Q 433 736 423 736 L 330 736 Q 320 736 320 726 L 320 706 Q 320 696 330 696 Z" stroke-miterlimit="10"/></g><g transform="translate(-214,-198) scale(1,1)"><g><path fill="none" stroke="none"/><text fill="#000000" stroke="none" font-family="Arial" font-size="13px" font-style="normal" font-weight="bold" text-decoration="none" x="324.5" y="715.5">显示订单创建成功</text></g></g><g transform="translate(-214,-198) scale(1,1)"><path fill="#C0C0C0" stroke="none" d="M 263 771.5 C 263 764.59644 268.59644 759 275.5 759 C 282.40356 759 288 764.59644 288 771.5 C 288 778.40356 282.40356 784 275.5 784 C 268.59644 784 263 778.40356 263 771.5 Z" opacity="0.2"/></g><g transform="translate(-214,-198) scale(1,1)"><path fill="none" stroke="#000000" d="M 256 764.5 C 256 757.59644 261.59644 752 268.5 752 C 275.40356 752 281 757.59644 281 764.5 C 281 771.40356 275.40356 777 268.5 777 C 261.59644 777 256 771.40356 256 764.5 Z" stroke-miterlimit="10"/></g><g transform="translate(-214,-198) scale(1,1)"><path fill="#000000" stroke="none" d="M 261 764.5 C 261 760.357864 264.357864 757 268.5 757 C 272.642136 757 276 760.357864 276 764.5 C 276 768.642136 272.642136 772 268.5 772 C 264.357864 772 261 768.642136 261 764.5 Z"/></g><g transform="translate(-214,-198) scale(1,1)"><path fill="none" stroke="#000000" d="M 272 672 L 272 752" stroke-miterlimit="10"/></g><g transform="translate(-214,-198) scale(1,1)"><path fill="none" stroke="#000000" d="M 267.790482243984 741.8373251423759 L 272 752 L 276.209517756016 741.8373251423759" stroke-miterlimit="10"/></g><g transform="translate(-214,-198) scale(1,1)"><path fill="none" stroke="#000000" d="M 329 737 L 282 758" stroke-miterlimit="10"/></g><g transform="translate(-214,-198) scale(1,1)"><path fill="none" stroke="#000000" d="M 289.56137973298803 750.010911407829 L 282 758 L 292.9958416033466 757.6975641652981" stroke-miterlimit="10"/></g></g></svg>