<svg version="1.1" xmlns="http://www.w3.org/2000/svg" xmlns:xlink="http://www.w3.org/1999/xlink" width="795" height="836"><defs/><g><g transform="translate(-22,-190) scale(1,1)"><rect fill="#ffffff" stroke="none" x="32" y="200" width="423" height="21"/></g><g transform="translate(-22,-190) scale(1,1)"><path fill="none" stroke="#000000" d="M 32 200 L 455 200 L 455 221 L 32 221 L 32 200 Z Z" stroke-miterlimit="10" stroke-width="2"/></g><g transform="translate(-22,-190) scale(1,1)"><path fill="none" stroke="#000000" d="M 32 1016 L 32 200 L 455 200 L 455 1016" stroke-miterlimit="10" stroke-width="2"/></g><g transform="translate(-22,-190) scale(1,1)"><g><path fill="none" stroke="none"/><text fill="#000000" stroke="none" font-family="Arial" font-size="13px" font-style="normal" font-weight="normal" text-decoration="none" x="230.5" y="217">用户</text></g></g><g transform="translate(-22,-190) scale(1,1)"><rect fill="#ffffff" stroke="none" x="456" y="200" width="351" height="21"/></g><g transform="translate(-22,-190) scale(1,1)"><path fill="none" stroke="#000000" d="M 456 200 L 807 200 L 807 221 L 456 221 L 456 200 Z Z" stroke-miterlimit="10" stroke-width="2"/></g><g transform="translate(-22,-190) scale(1,1)"><path fill="none" stroke="#000000" d="M 456 1016 L 456 200 L 807 200 L 807 1016" stroke-miterlimit="10" stroke-width="2"/></g><g transform="translate(-22,-190) scale(1,1)"><g><path fill="none" stroke="none"/><text fill="#000000" stroke="none" font-family="Arial" font-size="13px" font-style="normal" font-weight="normal" text-decoration="none" x="618.5" y="217">系统</text></g></g><g transform="translate(-22,-190) scale(1,1)"><path fill="#C0C0C0" stroke="none" d="M 201 303 L 281 303 Q 291 303 291 313 L 291 333 Q 291 343 281 343 L 201 343 Q 191 343 191 333 L 191 313 Q 191 303 201 303 Z" opacity="0.2"/></g><g transform="translate(-22,-190) scale(1,1)"><path fill="#ffffff" stroke="none" d="M 194 296 L 274 296 Q 284 296 284 306 L 284 326 Q 284 336 274 336 L 194 336 Q 184 336 184 326 L 184 306 Q 184 296 194 296 Z"/></g><g transform="translate(-22,-190) scale(1,1)"><path fill="none" stroke="#000000" d="M 194 296 L 274 296 Q 284 296 284 306 L 284 326 Q 284 336 274 336 L 194 336 Q 184 336 184 326 L 184 306 Q 184 296 194 296 Z" stroke-miterlimit="10"/></g><g transform="translate(-22,-190) scale(1,1)"><g><path fill="none" stroke="none"/><text fill="#000000" stroke="none" font-family="Arial" font-size="13px" font-style="normal" font-weight="bold" text-decoration="none" x="188.5" y="315.5">进入观演人界面</text></g></g><g transform="translate(-22,-190) scale(1,1)"><path fill="#C0C0C0" stroke="none" d="M 81 463 L 164 463 Q 174 463 174 473 L 174 500 Q 174 510 164 510 L 81 510 Q 71 510 71 500 L 71 473 Q 71 463 81 463 Z" opacity="0.2"/></g><g transform="translate(-22,-190) scale(1,1)"><path fill="#ffffff" stroke="none" d="M 74 456 L 157 456 Q 167 456 167 466 L 167 493 Q 167 503 157 503 L 74 503 Q 64 503 64 493 L 64 466 Q 64 456 74 456 Z"/></g><g transform="translate(-22,-190) scale(1,1)"><path fill="none" stroke="#000000" d="M 74 456 L 157 456 Q 167 456 167 466 L 167 493 Q 167 503 157 503 L 74 503 Q 64 503 64 493 L 64 466 Q 64 456 74 456 Z" stroke-miterlimit="10"/></g><g transform="translate(-22,-190) scale(1,1)"><g><path fill="none" stroke="none"/><text fill="#000000" stroke="none" font-family="Arial" font-size="13px" font-style="normal" font-weight="bold" text-decoration="none" x="70" y="475.5">点击增加观演人</text></g></g><g transform="translate(-22,-190) scale(1,1)"><path fill="#C0C0C0" stroke="none" d="M 289 463 L 395 463 Q 405 463 405 473 L 405 500 Q 405 510 395 510 L 289 510 Q 279 510 279 500 L 279 473 Q 279 463 289 463 Z" opacity="0.2"/></g><g transform="translate(-22,-190) scale(1,1)"><path fill="#ffffff" stroke="none" d="M 282 456 L 388 456 Q 398 456 398 466 L 398 493 Q 398 503 388 503 L 282 503 Q 272 503 272 493 L 272 466 Q 272 456 282 456 Z"/></g><g transform="translate(-22,-190) scale(1,1)"><path fill="none" stroke="#000000" d="M 282 456 L 388 456 Q 398 456 398 466 L 398 493 Q 398 503 388 503 L 282 503 Q 272 503 272 493 L 272 466 Q 272 456 282 456 Z" stroke-miterlimit="10"/></g><g transform="translate(-22,-190) scale(1,1)"><g><path fill="none" stroke="none"/><text fill="#000000" stroke="none" font-family="Arial" font-size="13px" font-style="normal" font-weight="bold" text-decoration="none" x="283" y="475.5">选择观演人并删除</text></g></g><g transform="translate(-22,-190) scale(1,1)"><path fill="#C0C0C0" stroke="none" d="M 81 567 L 161 567 Q 171 567 171 577 L 171 604 Q 171 614 161 614 L 81 614 Q 71 614 71 604 L 71 577 Q 71 567 81 567 Z" opacity="0.2"/></g><g transform="translate(-22,-190) scale(1,1)"><path fill="#ffffff" stroke="none" d="M 74 560 L 154 560 Q 164 560 164 570 L 164 597 Q 164 607 154 607 L 74 607 Q 64 607 64 597 L 64 570 Q 64 560 74 560 Z"/></g><g transform="translate(-22,-190) scale(1,1)"><path fill="none" stroke="#000000" d="M 74 560 L 154 560 Q 164 560 164 570 L 164 597 Q 164 607 154 607 L 74 607 Q 64 607 64 597 L 64 570 Q 64 560 74 560 Z" stroke-miterlimit="10"/></g><g transform="translate(-22,-190) scale(1,1)"><g><path fill="none" stroke="none"/><text fill="#000000" stroke="none" font-family="Arial" font-size="13px" font-style="normal" font-weight="bold" text-decoration="none" x="68.5" y="579.5">填写观演人信息</text></g></g><g transform="translate(-22,-190) scale(1,1)"><path fill="#C0C0C0" stroke="none" d="M 231 256.5 C 231 251.2532944 235.2532944 247 240.5 247 C 245.7467056 247 250 251.2532944 250 256.5 C 250 261.7467056 245.7467056 266 240.5 266 C 235.2532944 266 231 261.7467056 231 256.5 Z" opacity="0.2"/></g><g transform="translate(-22,-190) scale(1,1)"><path fill="#000000" stroke="none" d="M 224 249.5 C 224 244.2532944 228.2532944 240 233.5 240 C 238.7467056 240 243 244.2532944 243 249.5 C 243 254.7467056 238.7467056 259 233.5 259 C 228.2532944 259 224 254.7467056 224 249.5 Z"/></g><g transform="translate(-22,-190) scale(1,1)"><path fill="#C0C0C0" stroke="none" d="M 231 400.5 L 242.5 391 L 253 400.5 L 242.5 409 L 231 400.5" opacity="0.2"/></g><g transform="translate(-22,-190) scale(1,1)"><path fill="#ffffff" stroke="none" d="M 224 393 L 235 384 L 246 393 L 235 402 L 224 393"/></g><g transform="translate(-22,-190) scale(1,1)"><path fill="none" stroke="#000000" d="M 224 393 L 235 384 L 246 393 L 235 402 L 224 393 L 224 393" stroke-miterlimit="10"/></g><g transform="translate(-22,-190) scale(1,1)"><path fill="#C0C0C0" stroke="none" d="M 327 560.5 L 338.5 551 L 349 560.5 L 338.5 569 L 327 560.5" opacity="0.2"/></g><g transform="translate(-22,-190) scale(1,1)"><path fill="#ffffff" stroke="none" d="M 320 553 L 331 544 L 342 553 L 331 562 L 320 553"/></g><g transform="translate(-22,-190) scale(1,1)"><path fill="none" stroke="#000000" d="M 320 553 L 331 544 L 342 553 L 331 562 L 320 553 L 320 553" stroke-miterlimit="10"/></g><g transform="translate(-22,-190) scale(1,1)"><path fill="#C0C0C0" stroke="none" d="M 561 535 L 706 535 Q 716 535 716 545 L 716 572 Q 716 582 706 582 L 561 582 Q 551 582 551 572 L 551 545 Q 551 535 561 535 Z" opacity="0.2"/></g><g transform="translate(-22,-190) scale(1,1)"><path fill="#ffffff" stroke="none" d="M 554 528 L 699 528 Q 709 528 709 538 L 709 565 Q 709 575 699 575 L 554 575 Q 544 575 544 565 L 544 538 Q 544 528 554 528 Z"/></g><g transform="translate(-22,-190) scale(1,1)"><path fill="none" stroke="#000000" d="M 554 528 L 699 528 Q 709 528 709 538 L 709 565 Q 709 575 699 575 L 554 575 Q 544 575 544 565 L 544 538 Q 544 528 554 528 Z" stroke-miterlimit="10"/></g><g transform="translate(-22,-190) scale(1,1)"><g><path fill="none" stroke="none"/><text fill="#000000" stroke="none" font-family="Arial" font-size="13px" font-style="normal" font-weight="bold" text-decoration="none" x="548.5" y="547.5">删除观演人并返回提示信息</text></g></g><g transform="translate(-22,-190) scale(1,1)"><path fill="#C0C0C0" stroke="none" d="M 623 627.5 C 623 620.59644 628.59644 615 635.5 615 C 642.40356 615 648 620.59644 648 627.5 C 648 634.40356 642.40356 640 635.5 640 C 628.59644 640 623 634.40356 623 627.5 Z" opacity="0.2"/></g><g transform="translate(-22,-190) scale(1,1)"><path fill="none" stroke="#000000" d="M 616 620.5 C 616 613.59644 621.59644 608 628.5 608 C 635.40356 608 641 613.59644 641 620.5 C 641 627.40356 635.40356 633 628.5 633 C 621.59644 633 616 627.40356 616 620.5 Z" stroke-miterlimit="10"/></g><g transform="translate(-22,-190) scale(1,1)"><path fill="#000000" stroke="none" d="M 621 620.5 C 621 616.357864 624.357864 613 628.5 613 C 632.642136 613 636 616.357864 636 620.5 C 636 624.642136 632.642136 628 628.5 628 C 624.357864 628 621 624.642136 621 620.5 Z"/></g><g transform="translate(-22,-190) scale(1,1)"><path fill="#C0C0C0" stroke="none" d="M 119 688.5 L 130.5 679 L 141 688.5 L 130.5 697 L 119 688.5" opacity="0.2"/></g><g transform="translate(-22,-190) scale(1,1)"><path fill="#ffffff" stroke="none" d="M 112 681 L 123 672 L 134 681 L 123 690 L 112 681"/></g><g transform="translate(-22,-190) scale(1,1)"><path fill="none" stroke="#000000" d="M 112 681 L 123 672 L 134 681 L 123 690 L 112 681 L 112 681" stroke-miterlimit="10"/></g><g transform="translate(-22,-190) scale(1,1)"><path fill="#C0C0C0" stroke="none" d="M 327 627.5 C 327 620.59644 332.59644 615 339.5 615 C 346.40356 615 352 620.59644 352 627.5 C 352 634.40356 346.40356 640 339.5 640 C 332.59644 640 327 634.40356 327 627.5 Z" opacity="0.2"/></g><g transform="translate(-22,-190) scale(1,1)"><path fill="none" stroke="#000000" d="M 320 620.5 C 320 613.59644 325.59644 608 332.5 608 C 339.40356 608 345 613.59644 345 620.5 C 345 627.40356 339.40356 633 332.5 633 C 325.59644 633 320 627.40356 320 620.5 Z" stroke-miterlimit="10"/></g><g transform="translate(-22,-190) scale(1,1)"><path fill="#000000" stroke="none" d="M 325 620.5 C 325 616.357864 328.357864 613 332.5 613 C 336.642136 613 340 616.357864 340 620.5 C 340 624.642136 336.642136 628 332.5 628 C 328.357864 628 325 624.642136 325 620.5 Z"/></g><g transform="translate(-22,-190) scale(1,1)"><path fill="#C0C0C0" stroke="none" d="M 561 663 L 719 663 Q 729 663 729 673 L 729 700 Q 729 710 719 710 L 561 710 Q 551 710 551 700 L 551 673 Q 551 663 561 663 Z" opacity="0.2"/></g><g transform="translate(-22,-190) scale(1,1)"><path fill="#ffffff" stroke="none" d="M 554 656 L 712 656 Q 722 656 722 666 L 722 693 Q 722 703 712 703 L 554 703 Q 544 703 544 693 L 544 666 Q 544 656 554 656 Z"/></g><g transform="translate(-22,-190) scale(1,1)"><path fill="none" stroke="#000000" d="M 554 656 L 712 656 Q 722 656 722 666 L 722 693 Q 722 703 712 703 L 554 703 Q 544 703 544 693 L 544 666 Q 544 656 554 656 Z" stroke-miterlimit="10"/></g><g transform="translate(-22,-190) scale(1,1)"><g><path fill="none" stroke="none"/><text fill="#000000" stroke="none" font-family="Arial" font-size="13px" font-style="normal" font-weight="bold" text-decoration="none" x="548.5" y="675.5">检验观演人实名信息是否正确</text></g></g><g transform="translate(-22,-190) scale(1,1)"><path fill="#C0C0C0" stroke="none" d="M 623 768.5 L 634.5 759 L 645 768.5 L 634.5 777 L 623 768.5" opacity="0.2"/></g><g transform="translate(-22,-190) scale(1,1)"><path fill="#ffffff" stroke="none" d="M 616 761 L 627 752 L 638 761 L 627 770 L 616 761"/></g><g transform="translate(-22,-190) scale(1,1)"><path fill="none" stroke="#000000" d="M 616 761 L 627 752 L 638 761 L 627 770 L 616 761 L 616 761" stroke-miterlimit="10"/></g><g transform="translate(-22,-190) scale(1,1)"><path fill="#C0C0C0" stroke="none" d="M 497 831 L 642 831 Q 652 831 652 841 L 652 868 Q 652 878 642 878 L 497 878 Q 487 878 487 868 L 487 841 Q 487 831 497 831 Z" opacity="0.2"/></g><g transform="translate(-22,-190) scale(1,1)"><path fill="#ffffff" stroke="none" d="M 490 824 L 635 824 Q 645 824 645 834 L 645 861 Q 645 871 635 871 L 490 871 Q 480 871 480 861 L 480 834 Q 480 824 490 824 Z"/></g><g transform="translate(-22,-190) scale(1,1)"><path fill="none" stroke="#000000" d="M 490 824 L 635 824 Q 645 824 645 834 L 645 861 Q 645 871 635 871 L 490 871 Q 480 871 480 861 L 480 834 Q 480 824 490 824 Z" stroke-miterlimit="10"/></g><g transform="translate(-22,-190) scale(1,1)"><g><path fill="none" stroke="none"/><text fill="#000000" stroke="none" font-family="Arial" font-size="13px" font-style="normal" font-weight="bold" text-decoration="none" x="484.5" y="843.5">增添观演人并返回提示信息</text></g></g><g transform="translate(-22,-190) scale(1,1)"><path fill="#C0C0C0" stroke="none" d="M 689 831 L 772 831 Q 782 831 782 841 L 782 861 Q 782 871 772 871 L 689 871 Q 679 871 679 861 L 679 841 Q 679 831 689 831 Z" opacity="0.2"/></g><g transform="translate(-22,-190) scale(1,1)"><path fill="#ffffff" stroke="none" d="M 682 824 L 765 824 Q 775 824 775 834 L 775 854 Q 775 864 765 864 L 682 864 Q 672 864 672 854 L 672 834 Q 672 824 682 824 Z"/></g><g transform="translate(-22,-190) scale(1,1)"><path fill="none" stroke="#000000" d="M 682 824 L 765 824 Q 775 824 775 834 L 775 854 Q 775 864 765 864 L 682 864 Q 672 864 672 854 L 672 834 Q 672 824 682 824 Z" stroke-miterlimit="10"/></g><g transform="translate(-22,-190) scale(1,1)"><g><path fill="none" stroke="none"/><text fill="#000000" stroke="none" font-family="Arial" font-size="13px" font-style="normal" font-weight="bold" text-decoration="none" x="684.5" y="843.5">返回错误信息</text></g></g><g transform="translate(-22,-190) scale(1,1)"><path fill="#C0C0C0" stroke="none" d="M 551 931.5 C 551 924.59644 556.59644 919 563.5 919 C 570.40356 919 576 924.59644 576 931.5 C 576 938.40356 570.40356 944 563.5 944 C 556.59644 944 551 938.40356 551 931.5 Z" opacity="0.2"/></g><g transform="translate(-22,-190) scale(1,1)"><path fill="none" stroke="#000000" d="M 544 924.5 C 544 917.59644 549.59644 912 556.5 912 C 563.40356 912 569 917.59644 569 924.5 C 569 931.40356 563.40356 937 556.5 937 C 549.59644 937 544 931.40356 544 924.5 Z" stroke-miterlimit="10"/></g><g transform="translate(-22,-190) scale(1,1)"><path fill="#000000" stroke="none" d="M 549 924.5 C 549 920.357864 552.357864 917 556.5 917 C 560.642136 917 564 920.357864 564 924.5 C 564 928.642136 560.642136 932 556.5 932 C 552.357864 932 549 928.642136 549 924.5 Z"/></g><g transform="translate(-22,-190) scale(1,1)"><path fill="#C0C0C0" stroke="none" d="M 719 931.5 C 719 924.59644 724.59644 919 731.5 919 C 738.40356 919 744 924.59644 744 931.5 C 744 938.40356 738.40356 944 731.5 944 C 724.59644 944 719 938.40356 719 931.5 Z" opacity="0.2"/></g><g transform="translate(-22,-190) scale(1,1)"><path fill="none" stroke="#000000" d="M 712 924.5 C 712 917.59644 717.59644 912 724.5 912 C 731.40356 912 737 917.59644 737 924.5 C 737 931.40356 731.40356 937 724.5 937 C 717.59644 937 712 931.40356 712 924.5 Z" stroke-miterlimit="10"/></g><g transform="translate(-22,-190) scale(1,1)"><path fill="#000000" stroke="none" d="M 717 924.5 C 717 920.357864 720.357864 917 724.5 917 C 728.642136 917 732 920.357864 732 924.5 C 732 928.642136 728.642136 932 724.5 932 C 720.357864 932 717 928.642136 717 924.5 Z"/></g><g transform="translate(-22,-190) scale(1,1)"><path fill="#C0C0C0" stroke="none" d="M 119 787.5 C 119 780.59644 124.59644 775 131.5 775 C 138.40356 775 144 780.59644 144 787.5 C 144 794.40356 138.40356 800 131.5 800 C 124.59644 800 119 794.40356 119 787.5 Z" opacity="0.2"/></g><g transform="translate(-22,-190) scale(1,1)"><path fill="none" stroke="#000000" d="M 112 780.5 C 112 773.59644 117.59644 768 124.5 768 C 131.40356 768 137 773.59644 137 780.5 C 137 787.40356 131.40356 793 124.5 793 C 117.59644 793 112 787.40356 112 780.5 Z" stroke-miterlimit="10"/></g><g transform="translate(-22,-190) scale(1,1)"><path fill="#000000" stroke="none" d="M 117 780.5 C 117 776.357864 120.357864 773 124.5 773 C 128.642136 773 132 776.357864 132 780.5 C 132 784.642136 128.642136 788 124.5 788 C 120.357864 788 117 784.642136 117 780.5 Z"/></g><g transform="translate(-22,-190) scale(1,1)"><path fill="none" stroke="#000000" d="M 232 259 L 232 296" stroke-miterlimit="10"/></g><g transform="translate(-22,-190) scale(1,1)"><path fill="none" stroke="#000000" d="M 227.790482243984 285.83732514237585 L 232 296 L 236.209517756016 285.83732514237585" stroke-miterlimit="10"/></g><g transform="translate(-22,-190) scale(1,1)"><path fill="none" stroke="#000000" d="M 234 336 L 234 384" stroke-miterlimit="10"/></g><g transform="translate(-22,-190) scale(1,1)"><path fill="none" stroke="#000000" d="M 229.790482243984 373.83732514237585 L 234 384 L 238.209517756016 373.83732514237585" stroke-miterlimit="10"/></g><g transform="translate(-22,-190) scale(1,1)"><path fill="none" stroke="#000000" d="M 328 503 L 328 544" stroke-miterlimit="10"/></g><g transform="translate(-22,-190) scale(1,1)"><path fill="none" stroke="#000000" d="M 323.790482243984 533.8373251423759 L 328 544 L 332.209517756016 533.8373251423759" stroke-miterlimit="10"/></g><g transform="translate(-22,-190) scale(1,1)"><path fill="none" stroke="#000000" d="M 120 607 L 120 672" stroke-miterlimit="10"/></g><g transform="translate(-22,-190) scale(1,1)"><path fill="none" stroke="#000000" d="M 115.79048224398402 661.8373251423759 L 120 672 L 124.20951775601598 661.8373251423759" stroke-miterlimit="10"/></g><g transform="translate(-22,-190) scale(1,1)"><path fill="none" stroke="#000000" d="M 331 562 L 331 608" stroke-miterlimit="10"/></g><g transform="translate(-22,-190) scale(1,1)"><path fill="none" stroke="#000000" d="M 326.790482243984 597.8373251423759 L 331 608 L 335.209517756016 597.8373251423759" stroke-miterlimit="10"/></g><g transform="translate(-22,-190) scale(1,1)"><g><path fill="none" stroke="none"/><text fill="#000000" stroke="none" font-family="Arial" font-size="13px" font-style="normal" font-weight="normal" text-decoration="none" x="278.5" y="587.5">取消操作</text></g></g><g transform="translate(-22,-190) scale(1,1)"><path fill="none" stroke="#000000" d="M 342 553 L 544 553" stroke-miterlimit="10"/></g><g transform="translate(-22,-190) scale(1,1)"><path fill="none" stroke="#000000" d="M 533.8373251423759 557.209517756016 L 544 553 L 533.8373251423758 548.790482243984" stroke-miterlimit="10"/></g><g transform="translate(-22,-190) scale(1,1)"><g><path fill="none" stroke="none"/><text fill="#000000" stroke="none" font-family="Arial" font-size="13px" font-style="normal" font-weight="normal" text-decoration="none" x="350.5" y="548.5">确认删除</text></g></g><g transform="translate(-22,-190) scale(1,1)"><path fill="none" stroke="#000000" d="M 120 503 L 120 560" stroke-miterlimit="10"/></g><g transform="translate(-22,-190) scale(1,1)"><path fill="none" stroke="#000000" d="M 115.79048224398402 549.8373251423759 L 120 560 L 124.20951775601598 549.8373251423759" stroke-miterlimit="10"/></g><g transform="translate(-22,-190) scale(1,1)"><path fill="none" stroke="#000000" d="M 224 392 L 120 392 L 120 456" stroke-miterlimit="10"/></g><g transform="translate(-22,-190) scale(1,1)"><path fill="none" stroke="#000000" d="M 115.79048224398402 445.83732514237585 L 120 456 L 124.20951775601598 445.83732514237585" stroke-miterlimit="10"/></g><g transform="translate(-22,-190) scale(1,1)"><g><path fill="none" stroke="none"/><text fill="#000000" stroke="none" font-family="Arial" font-size="13px" font-style="normal" font-weight="normal" text-decoration="none" x="119.5" y="388.5">选择增加观演人</text></g></g><g transform="translate(-22,-190) scale(1,1)"><path fill="none" stroke="#000000" d="M 246 392 L 328 392 L 328 456" stroke-miterlimit="10"/></g><g transform="translate(-22,-190) scale(1,1)"><path fill="none" stroke="#000000" d="M 323.790482243984 445.83732514237585 L 328 456 L 332.209517756016 445.83732514237585" stroke-miterlimit="10"/></g><g transform="translate(-22,-190) scale(1,1)"><g><path fill="none" stroke="none"/><text fill="#000000" stroke="none" font-family="Arial" font-size="13px" font-style="normal" font-weight="normal" text-decoration="none" x="255.5" y="387.5">选择删除观演人</text></g></g><g transform="translate(-22,-190) scale(1,1)"><path fill="none" stroke="#000000" d="M 122 690 L 122 768" stroke-miterlimit="10"/></g><g transform="translate(-22,-190) scale(1,1)"><path fill="none" stroke="#000000" d="M 117.79048224398402 757.8373251423759 L 122 768 L 126.20951775601598 757.8373251423759" stroke-miterlimit="10"/></g><g transform="translate(-22,-190) scale(1,1)"><g><path fill="none" stroke="none"/><text fill="#000000" stroke="none" font-family="Arial" font-size="13px" font-style="normal" font-weight="normal" text-decoration="none" x="126.5" y="732.5">取消操作</text></g></g><g transform="translate(-22,-190) scale(1,1)"><path fill="none" stroke="#000000" d="M 135 681 L 543 679" stroke-miterlimit="10"/></g><g transform="translate(-22,-190) scale(1,1)"><path fill="none" stroke="#000000" d="M 532.8580818837931 683.2592836163087 L 543 679 L 532.8168125977028 674.84034925388" stroke-miterlimit="10"/></g><g transform="translate(-22,-190) scale(1,1)"><g><path fill="none" stroke="none"/><text fill="#000000" stroke="none" font-family="Arial" font-size="13px" font-style="normal" font-weight="normal" text-decoration="none" x="150.5" y="675.5">确认增加</text></g></g><g transform="translate(-22,-190) scale(1,1)"><path fill="none" stroke="#000000" d="M 631 703 L 631 752" stroke-miterlimit="10"/></g><g transform="translate(-22,-190) scale(1,1)"><path fill="none" stroke="#000000" d="M 626.790482243984 741.8373251423759 L 631 752 L 635.209517756016 741.8373251423759" stroke-miterlimit="10"/></g><g transform="translate(-22,-190) scale(1,1)"><path fill="none" stroke="#000000" d="M 627 575 L 627 608" stroke-miterlimit="10"/></g><g transform="translate(-22,-190) scale(1,1)"><path fill="none" stroke="#000000" d="M 622.790482243984 597.8373251423759 L 627 608 L 631.209517756016 597.8373251423759" stroke-miterlimit="10"/></g><g transform="translate(-22,-190) scale(1,1)"><path fill="none" stroke="#000000" d="M 616 760 L 552 760 L 552 824" stroke-miterlimit="10"/></g><g transform="translate(-22,-190) scale(1,1)"><path fill="none" stroke="#000000" d="M 547.790482243984 813.8373251423759 L 552 824 L 556.209517756016 813.8373251423759" stroke-miterlimit="10"/></g><g transform="translate(-22,-190) scale(1,1)"><g><path fill="none" stroke="none"/><text fill="#000000" stroke="none" font-family="Arial" font-size="13px" font-style="normal" font-weight="normal" text-decoration="none" x="558.5" y="756.5">信息正确</text></g></g><g transform="translate(-22,-190) scale(1,1)"><path fill="none" stroke="#000000" d="M 638 760 L 720 760 L 720 824" stroke-miterlimit="10"/></g><g transform="translate(-22,-190) scale(1,1)"><path fill="none" stroke="#000000" d="M 715.790482243984 813.8373251423759 L 720 824 L 724.209517756016 813.8373251423759" stroke-miterlimit="10"/></g><g transform="translate(-22,-190) scale(1,1)"><g><path fill="none" stroke="none"/><text fill="#000000" stroke="none" font-family="Arial" font-size="13px" font-style="normal" font-weight="normal" text-decoration="none" x="654.5" y="755.5">信息有误</text></g></g><g transform="translate(-22,-190) scale(1,1)"><path fill="none" stroke="#000000" d="M 552 871 L 552 912" stroke-miterlimit="10"/></g><g transform="translate(-22,-190) scale(1,1)"><path fill="none" stroke="#000000" d="M 547.790482243984 901.8373251423759 L 552 912 L 556.209517756016 901.8373251423759" stroke-miterlimit="10"/></g><g transform="translate(-22,-190) scale(1,1)"><path fill="none" stroke="#000000" d="M 725 864 L 725 912" stroke-miterlimit="10"/></g><g transform="translate(-22,-190) scale(1,1)"><path fill="none" stroke="#000000" d="M 720.790482243984 901.8373251423759 L 725 912 L 729.209517756016 901.8373251423759" stroke-miterlimit="10"/></g></g></svg>