<svg version="1.1" xmlns="http://www.w3.org/2000/svg" xmlns:xlink="http://www.w3.org/1999/xlink" width="781" height="282"><defs/><g><g transform="translate(-222,-177) scale(1,1)"><path fill="#C0C0C0" stroke="none" d="M 239 296.5 C 239 291.2532944 243.2532944 287 248.5 287 C 253.7467056 287 258 291.2532944 258 296.5 C 258 301.7467056 253.7467056 306 248.5 306 C 243.2532944 306 239 301.7467056 239 296.5 Z" opacity="0.2"/></g><g transform="translate(-222,-177) scale(1,1)"><path fill="#000000" stroke="none" d="M 232 289.5 C 232 284.2532944 236.2532944 280 241.5 280 C 246.7467056 280 251 284.2532944 251 289.5 C 251 294.7467056 246.7467056 299 241.5 299 C 236.2532944 299 232 294.7467056 232 289.5 Z"/></g><g transform="translate(-222,-177) scale(1,1)"><path fill="#C0C0C0" stroke="none" d="M 319 296.5 L 330.5 287 L 341 296.5 L 330.5 305 L 319 296.5" opacity="0.2"/></g><g transform="translate(-222,-177) scale(1,1)"><path fill="#ffffff" stroke="none" d="M 312 289 L 323 280 L 334 289 L 323 298 L 312 289"/></g><g transform="translate(-222,-177) scale(1,1)"><path fill="none" stroke="#000000" d="M 312 289 L 323 280 L 334 289 L 323 298 L 312 289 L 312 289" stroke-miterlimit="10"/></g><g transform="translate(-222,-177) scale(1,1)"><path fill="#C0C0C0" stroke="none" d="M 745 199 L 851 199 Q 861 199 861 209 L 861 228 Q 861 238 851 238 L 745 238 Q 735 238 735 228 L 735 209 Q 735 199 745 199 Z" opacity="0.2"/></g><g transform="translate(-222,-177) scale(1,1)"><path fill="#ffffff" stroke="none" d="M 738 192 L 844 192 Q 854 192 854 202 L 854 221 Q 854 231 844 231 L 738 231 Q 728 231 728 221 L 728 202 Q 728 192 738 192 Z"/></g><g transform="translate(-222,-177) scale(1,1)"><path fill="none" stroke="#000000" d="M 738 192 L 844 192 Q 854 192 854 202 L 854 221 Q 854 231 844 231 L 738 231 Q 728 231 728 221 L 728 202 Q 728 192 738 192 Z" stroke-miterlimit="10"/></g><g transform="translate(-222,-177) scale(1,1)"><g><path fill="none" stroke="none"/><text fill="#000000" stroke="none" font-family="Arial" font-size="13px" font-style="normal" font-weight="bold" text-decoration="none" x="765" y="211.5">登录成功</text></g></g><g transform="translate(-222,-177) scale(1,1)"><path fill="#C0C0C0" stroke="none" d="M 457 319 L 572 319 Q 582 319 582 329 L 582 348 Q 582 358 572 358 L 457 358 Q 447 358 447 348 L 447 329 Q 447 319 457 319 Z" opacity="0.2"/></g><g transform="translate(-222,-177) scale(1,1)"><path fill="#ffffff" stroke="none" d="M 450 312 L 565 312 Q 575 312 575 322 L 575 341 Q 575 351 565 351 L 450 351 Q 440 351 440 341 L 440 322 Q 440 312 450 312 Z"/></g><g transform="translate(-222,-177) scale(1,1)"><path fill="none" stroke="#000000" d="M 450 312 L 565 312 Q 575 312 575 322 L 575 341 Q 575 351 565 351 L 450 351 Q 440 351 440 341 L 440 322 Q 440 312 450 312 Z" stroke-miterlimit="10"/></g><g transform="translate(-222,-177) scale(1,1)"><g><path fill="none" stroke="none"/><text fill="#000000" stroke="none" font-family="Arial" font-size="13px" font-style="normal" font-weight="bold" text-decoration="none" x="481.5" y="331.5">游客状态</text></g></g><g transform="translate(-222,-177) scale(1,1)"><path fill="#C0C0C0" stroke="none" d="M 975 219.5 C 975 212.59644 980.59644 207 987.5 207 C 994.40356 207 1000 212.59644 1000 219.5 C 1000 226.40356 994.40356 232 987.5 232 C 980.59644 232 975 226.40356 975 219.5 Z" opacity="0.2"/></g><g transform="translate(-222,-177) scale(1,1)"><path fill="none" stroke="#000000" d="M 968 212.5 C 968 205.59644 973.59644 200 980.5 200 C 987.40356 200 993 205.59644 993 212.5 C 993 219.40356 987.40356 225 980.5 225 C 973.59644 225 968 219.40356 968 212.5 Z" stroke-miterlimit="10"/></g><g transform="translate(-222,-177) scale(1,1)"><path fill="#000000" stroke="none" d="M 973 212.5 C 973 208.357864 976.357864 205 980.5 205 C 984.642136 205 988 208.357864 988 212.5 C 988 216.642136 984.642136 220 980.5 220 C 976.357864 220 973 216.642136 973 212.5 Z"/></g><g transform="translate(-222,-177) scale(1,1)"><path fill="none" stroke="#000000" d="M 252 289 L 311 289" stroke-miterlimit="10"/></g><g transform="translate(-222,-177) scale(1,1)"><path fill="none" stroke="#000000" d="M 300.83732514237585 293.209517756016 L 311 289 L 300.83732514237585 284.790482243984" stroke-miterlimit="10"/></g><g transform="translate(-222,-177) scale(1,1)"><g><path fill="none" stroke="none"/><text fill="#000000" stroke="none" font-family="Arial" font-size="13px" font-style="normal" font-weight="normal" text-decoration="none" x="254.5" y="280.5">进入平台</text></g></g><g transform="translate(-222,-177) scale(1,1)"><path fill="none" stroke="#000000" d="M 320 298 L 320 328 L 440 328" stroke-miterlimit="10"/></g><g transform="translate(-222,-177) scale(1,1)"><path fill="none" stroke="#000000" d="M 429.83732514237585 332.209517756016 L 440 328 L 429.83732514237585 323.790482243984" stroke-miterlimit="10"/></g><g transform="translate(-222,-177) scale(1,1)"><g><path fill="none" stroke="none"/><text fill="#000000" stroke="none" font-family="Arial" font-size="13px" font-style="normal" font-weight="normal" text-decoration="none" x="339" y="347.5">令牌过期</text></g></g><g transform="translate(-222,-177) scale(1,1)"><path fill="none" stroke="#000000" d="M 854 212 L 968 212" stroke-miterlimit="10"/></g><g transform="translate(-222,-177) scale(1,1)"><path fill="none" stroke="#000000" d="M 957.8373251423759 216.209517756016 L 968 212 L 957.8373251423758 207.790482243984" stroke-miterlimit="10"/></g><g transform="translate(-222,-177) scale(1,1)"><path fill="#C0C0C0" stroke="none" d="M 745 319 L 837 319 Q 847 319 847 329 L 847 348 Q 847 358 837 358 L 745 358 Q 735 358 735 348 L 735 329 Q 735 319 745 319 Z" opacity="0.2"/></g><g transform="translate(-222,-177) scale(1,1)"><path fill="#ffffff" stroke="none" d="M 738 312 L 830 312 Q 840 312 840 322 L 840 341 Q 840 351 830 351 L 738 351 Q 728 351 728 341 L 728 322 Q 728 312 738 312 Z"/></g><g transform="translate(-222,-177) scale(1,1)"><path fill="none" stroke="#000000" d="M 738 312 L 830 312 Q 840 312 840 322 L 840 341 Q 840 351 830 351 L 738 351 Q 728 351 728 341 L 728 322 Q 728 312 738 312 Z" stroke-miterlimit="10"/></g><g transform="translate(-222,-177) scale(1,1)"><g><path fill="none" stroke="none"/><text fill="#000000" stroke="none" font-family="Arial" font-size="13px" font-style="normal" font-weight="bold" text-decoration="none" x="758" y="331.5">身份验证</text></g></g><g transform="translate(-222,-177) scale(1,1)"><path fill="none" stroke="#000000" d="M 576 331 L 727 331" stroke-miterlimit="10"/></g><g transform="translate(-222,-177) scale(1,1)"><path fill="none" stroke="#000000" d="M 716.8373251423759 335.209517756016 L 727 331 L 716.8373251423758 326.790482243984" stroke-miterlimit="10"/></g><g transform="translate(-222,-177) scale(1,1)"><g><path fill="none" stroke="none"/><text fill="#000000" stroke="none" font-family="Arial" font-size="13px" font-style="normal" font-weight="normal" text-decoration="none" x="611.5" y="322.5">进入登录页面</text></g></g><g transform="translate(-222,-177) scale(1,1)"><path fill="#C0C0C0" stroke="none" d="M 503 443.5 C 503 436.59644 508.59644 431 515.5 431 C 522.40356 431 528 436.59644 528 443.5 C 528 450.40356 522.40356 456 515.5 456 C 508.59644 456 503 450.40356 503 443.5 Z" opacity="0.2"/></g><g transform="translate(-222,-177) scale(1,1)"><path fill="none" stroke="#000000" d="M 496 436.5 C 496 429.59644 501.59644 424 508.5 424 C 515.40356 424 521 429.59644 521 436.5 C 521 443.40356 515.40356 449 508.5 449 C 501.59644 449 496 443.40356 496 436.5 Z" stroke-miterlimit="10"/></g><g transform="translate(-222,-177) scale(1,1)"><path fill="#000000" stroke="none" d="M 501 436.5 C 501 432.357864 504.357864 429 508.5 429 C 512.642136 429 516 432.357864 516 436.5 C 516 440.642136 512.642136 444 508.5 444 C 504.357864 444 501 440.642136 501 436.5 Z"/></g><g transform="translate(-222,-177) scale(1,1)"><path fill="none" stroke="#000000" d="M 507 351 L 507 424" stroke-miterlimit="10"/></g><g transform="translate(-222,-177) scale(1,1)"><path fill="none" stroke="#000000" d="M 502.790482243984 413.83732514237585 L 507 424 L 511.209517756016 413.83732514237585" stroke-miterlimit="10"/></g><g transform="translate(-222,-177) scale(1,1)"><g><path fill="none" stroke="none"/><text fill="#000000" stroke="none" font-family="Arial" font-size="13px" font-style="normal" font-weight="normal" text-decoration="none" x="510.5" y="392.5">放弃登录</text></g></g><g transform="translate(-222,-177) scale(1,1)"><path fill="none" stroke="#000000" d="M 760 312 L 760 231" stroke-miterlimit="10"/></g><g transform="translate(-222,-177) scale(1,1)"><path fill="none" stroke="#000000" d="M 764.209517756016 241.16267485762415 L 760 231 L 755.790482243984 241.16267485762415" stroke-miterlimit="10"/></g><g transform="translate(-222,-177) scale(1,1)"><g><path fill="none" stroke="none"/><text fill="#000000" stroke="none" font-family="Arial" font-size="13px" font-style="normal" font-weight="normal" text-decoration="none" x="683.5" y="279.5">验证成功</text></g></g><g transform="translate(-222,-177) scale(1,1)"><path fill="none" stroke="#000000" d="M 784 312 L 784 291 L 870 291 L 870 331 L 840 331" stroke-miterlimit="10"/></g><g transform="translate(-222,-177) scale(1,1)"><path fill="none" stroke="#000000" d="M 850.1626748576241 326.790482243984 L 840 331 L 850.1626748576241 335.209517756016" stroke-miterlimit="10"/></g><g transform="translate(-222,-177) scale(1,1)"><g><path fill="none" stroke="none"/><text fill="#000000" stroke="none" font-family="Arial" font-size="13px" font-style="normal" font-weight="normal" text-decoration="none" x="817.5" y="268.5">不正确的手机号或密码</text></g></g><g transform="translate(-222,-177) scale(1,1)"><path fill="none" stroke="#000000" d="M 320 280 L 320 208 L 728 208" stroke-miterlimit="10"/></g><g transform="translate(-222,-177) scale(1,1)"><path fill="none" stroke="#000000" d="M 717.8373251423759 212.209517756016 L 728 208 L 717.8373251423758 203.790482243984" stroke-miterlimit="10"/></g><g transform="translate(-222,-177) scale(1,1)"><g><path fill="none" stroke="none"/><text fill="#000000" stroke="none" font-family="Arial" font-size="13px" font-style="normal" font-weight="normal" text-decoration="none" x="293.5" y="199.5">令牌有效</text></g></g></g></svg>