<svg version="1.1" xmlns="http://www.w3.org/2000/svg" xmlns:xlink="http://www.w3.org/1999/xlink" width="989" height="278"><defs/><g><g transform="translate(-126,-149) scale(1,1)"><path fill="#C0C0C0" stroke="none" d="M 289 207 L 356 207 Q 366 207 366 217 L 366 236 Q 366 246 356 246 L 289 246 Q 279 246 279 236 L 279 217 Q 279 207 289 207 Z" opacity="0.2"/></g><g transform="translate(-126,-149) scale(1,1)"><path fill="#ffffff" stroke="none" d="M 282 200 L 349 200 Q 359 200 359 210 L 359 229 Q 359 239 349 239 L 282 239 Q 272 239 272 229 L 272 210 Q 272 200 282 200 Z"/></g><g transform="translate(-126,-149) scale(1,1)"><path fill="none" stroke="#000000" d="M 282 200 L 349 200 Q 359 200 359 210 L 359 229 Q 359 239 349 239 L 282 239 Q 272 239 272 229 L 272 210 Q 272 200 282 200 Z" stroke-miterlimit="10"/></g><g transform="translate(-126,-149) scale(1,1)"><g><path fill="none" stroke="none"/><text fill="#000000" stroke="none" font-family="Arial" font-size="13px" font-style="normal" font-weight="bold" text-decoration="none" x="276.5" y="219.5">填写注册信息</text></g></g><g transform="translate(-126,-149) scale(1,1)"><path fill="#C0C0C0" stroke="none" d="M 143 224.5 C 143 219.2532944 147.2532944 215 152.5 215 C 157.7467056 215 162 219.2532944 162 224.5 C 162 229.7467056 157.7467056 234 152.5 234 C 147.2532944 234 143 229.7467056 143 224.5 Z" opacity="0.2"/></g><g transform="translate(-126,-149) scale(1,1)"><path fill="#000000" stroke="none" d="M 136 217.5 C 136 212.2532944 140.2532944 208 145.5 208 C 150.7467056 208 155 212.2532944 155 217.5 C 155 222.7467056 150.7467056 227 145.5 227 C 140.2532944 227 136 222.7467056 136 217.5 Z"/></g><g transform="translate(-126,-149) scale(1,1)"><path fill="#C0C0C0" stroke="none" d="M 665 207 L 758 207 Q 768 207 768 217 L 768 236 Q 768 246 758 246 L 665 246 Q 655 246 655 236 L 655 217 Q 655 207 665 207 Z" opacity="0.2"/></g><g transform="translate(-126,-149) scale(1,1)"><path fill="#ffffff" stroke="none" d="M 658 200 L 751 200 Q 761 200 761 210 L 761 229 Q 761 239 751 239 L 658 239 Q 648 239 648 229 L 648 210 Q 648 200 658 200 Z"/></g><g transform="translate(-126,-149) scale(1,1)"><path fill="none" stroke="#000000" d="M 658 200 L 751 200 Q 761 200 761 210 L 761 229 Q 761 239 751 239 L 658 239 Q 648 239 648 229 L 648 210 Q 648 200 658 200 Z" stroke-miterlimit="10"/></g><g transform="translate(-126,-149) scale(1,1)"><g><path fill="none" stroke="none"/><text fill="#000000" stroke="none" font-family="Arial" font-size="13px" font-style="normal" font-weight="bold" text-decoration="none" x="678.5" y="219.5">短信验证</text></g></g><g transform="translate(-126,-149) scale(1,1)"><path fill="#C0C0C0" stroke="none" d="M 953 207 L 1004 207 Q 1014 207 1014 217 L 1014 236 Q 1014 246 1004 246 L 953 246 Q 943 246 943 236 L 943 217 Q 943 207 953 207 Z" opacity="0.2"/></g><g transform="translate(-126,-149) scale(1,1)"><path fill="#ffffff" stroke="none" d="M 946 200 L 997 200 Q 1007 200 1007 210 L 1007 229 Q 1007 239 997 239 L 946 239 Q 936 239 936 229 L 936 210 Q 936 200 946 200 Z"/></g><g transform="translate(-126,-149) scale(1,1)"><path fill="none" stroke="#000000" d="M 946 200 L 997 200 Q 1007 200 1007 210 L 1007 229 Q 1007 239 997 239 L 946 239 Q 936 239 936 229 L 936 210 Q 936 200 946 200 Z" stroke-miterlimit="10"/></g><g transform="translate(-126,-149) scale(1,1)"><g><path fill="none" stroke="none"/><text fill="#000000" stroke="none" font-family="Arial" font-size="13px" font-style="normal" font-weight="bold" text-decoration="none" x="945.5" y="219.5">注册成功</text></g></g><g transform="translate(-126,-149) scale(1,1)"><path fill="#C0C0C0" stroke="none" d="M 1087 227.5 C 1087 220.59644 1092.59644 215 1099.5 215 C 1106.40356 215 1112 220.59644 1112 227.5 C 1112 234.40356 1106.40356 240 1099.5 240 C 1092.59644 240 1087 234.40356 1087 227.5 Z" opacity="0.2"/></g><g transform="translate(-126,-149) scale(1,1)"><path fill="none" stroke="#000000" d="M 1080 220.5 C 1080 213.59644 1085.59644 208 1092.5 208 C 1099.40356 208 1105 213.59644 1105 220.5 C 1105 227.40356 1099.40356 233 1092.5 233 C 1085.59644 233 1080 227.40356 1080 220.5 Z" stroke-miterlimit="10"/></g><g transform="translate(-126,-149) scale(1,1)"><path fill="#000000" stroke="none" d="M 1085 220.5 C 1085 216.357864 1088.357864 213 1092.5 213 C 1096.642136 213 1100 216.357864 1100 220.5 C 1100 224.642136 1096.642136 228 1092.5 228 C 1088.357864 228 1085 224.642136 1085 220.5 Z"/></g><g transform="translate(-126,-149) scale(1,1)"><path fill="none" stroke="#000000" d="M 155 218 L 272 218" stroke-miterlimit="10"/></g><g transform="translate(-126,-149) scale(1,1)"><path fill="none" stroke="#000000" d="M 261.83732514237585 222.209517756016 L 272 218 L 261.83732514237585 213.790482243984" stroke-miterlimit="10"/></g><g transform="translate(-126,-149) scale(1,1)"><g><path fill="none" stroke="none"/><text fill="#000000" stroke="none" font-family="Arial" font-size="13px" font-style="normal" font-weight="normal" text-decoration="none" x="173.5" y="209.5">进入注册页面</text></g></g><g transform="translate(-126,-149) scale(1,1)"><path fill="none" stroke="#000000" d="M 1007 220 L 1080 220" stroke-miterlimit="10"/></g><g transform="translate(-126,-149) scale(1,1)"><path fill="none" stroke="#000000" d="M 1069.837325142376 224.209517756016 L 1080 220 L 1069.837325142376 215.790482243984" stroke-miterlimit="10"/></g><g transform="translate(-126,-149) scale(1,1)"><path fill="#C0C0C0" stroke="none" d="M 457 319 L 533 319 Q 543 319 543 329 L 543 348 Q 543 358 533 358 L 457 358 Q 447 358 447 348 L 447 329 Q 447 319 457 319 Z" opacity="0.2"/></g><g transform="translate(-126,-149) scale(1,1)"><path fill="#ffffff" stroke="none" d="M 450 312 L 526 312 Q 536 312 536 322 L 536 341 Q 536 351 526 351 L 450 351 Q 440 351 440 341 L 440 322 Q 440 312 450 312 Z"/></g><g transform="translate(-126,-149) scale(1,1)"><path fill="none" stroke="#000000" d="M 450 312 L 526 312 Q 536 312 536 322 L 536 341 Q 536 351 526 351 L 450 351 Q 440 351 440 341 L 440 322 Q 440 312 450 312 Z" stroke-miterlimit="10"/></g><g transform="translate(-126,-149) scale(1,1)"><g><path fill="none" stroke="none"/><text fill="#000000" stroke="none" font-family="Arial" font-size="13px" font-style="normal" font-weight="bold" text-decoration="none" x="462" y="331.5">注册失败</text></g></g><g transform="translate(-126,-149) scale(1,1)"><path fill="none" stroke="#000000" d="M 664 200 L 664 179 L 790 179 L 790 219 L 761 219" stroke-miterlimit="10"/></g><g transform="translate(-126,-149) scale(1,1)"><path fill="none" stroke="#000000" d="M 771.1626748576241 214.790482243984 L 761 219 L 771.1626748576241 223.209517756016" stroke-miterlimit="10"/></g><g transform="translate(-126,-149) scale(1,1)"><g><path fill="none" stroke="none"/><text fill="#000000" stroke="none" font-family="Arial" font-size="13px" font-style="normal" font-weight="normal" text-decoration="none" x="686.5" y="171.5">错误的验证码</text></g></g><g transform="translate(-126,-149) scale(1,1)"><path fill="none" stroke="#000000" d="M 762 219 L 935 219" stroke-miterlimit="10"/></g><g transform="translate(-126,-149) scale(1,1)"><path fill="none" stroke="#000000" d="M 924.8373251423759 223.209517756016 L 935 219 L 924.8373251423758 214.790482243984" stroke-miterlimit="10"/></g><g transform="translate(-126,-149) scale(1,1)"><g><path fill="none" stroke="none"/><text fill="#000000" stroke="none" font-family="Arial" font-size="13px" font-style="normal" font-weight="normal" text-decoration="none" x="822.5" y="210.5">正确的验证码</text></g></g><g transform="translate(-126,-149) scale(1,1)"><path fill="#C0C0C0" stroke="none" d="M 457 207 L 537 207 Q 547 207 547 217 L 547 236 Q 547 246 537 246 L 457 246 Q 447 246 447 236 L 447 217 Q 447 207 457 207 Z" opacity="0.2"/></g><g transform="translate(-126,-149) scale(1,1)"><path fill="#ffffff" stroke="none" d="M 450 200 L 530 200 Q 540 200 540 210 L 540 229 Q 540 239 530 239 L 450 239 Q 440 239 440 229 L 440 210 Q 440 200 450 200 Z"/></g><g transform="translate(-126,-149) scale(1,1)"><path fill="none" stroke="#000000" d="M 450 200 L 530 200 Q 540 200 540 210 L 540 229 Q 540 239 530 239 L 450 239 Q 440 239 440 229 L 440 210 Q 440 200 450 200 Z" stroke-miterlimit="10"/></g><g transform="translate(-126,-149) scale(1,1)"><g><path fill="none" stroke="none"/><text fill="#000000" stroke="none" font-family="Arial" font-size="13px" font-style="normal" font-weight="bold" text-decoration="none" x="444.5" y="219.5">检查信息正确性</text></g></g><g transform="translate(-126,-149) scale(1,1)"><path fill="none" stroke="#000000" d="M 496 200 L 496 176 L 296 176 L 296 200" stroke-miterlimit="10"/></g><g transform="translate(-126,-149) scale(1,1)"><path fill="none" stroke="#000000" d="M 291.790482243984 189.83732514237585 L 296 200 L 300.209517756016 189.83732514237585" stroke-miterlimit="10"/></g><g transform="translate(-126,-149) scale(1,1)"><g><path fill="none" stroke="none"/><text fill="#000000" stroke="none" font-family="Arial" font-size="13px" font-style="normal" font-weight="normal" text-decoration="none" x="368.5" y="197.5">信息错误</text></g></g><g transform="translate(-126,-149) scale(1,1)"><path fill="none" stroke="#000000" d="M 360 219 L 439 219" stroke-miterlimit="10"/></g><g transform="translate(-126,-149) scale(1,1)"><path fill="none" stroke="#000000" d="M 428.83732514237585 223.209517756016 L 439 219 L 428.83732514237585 214.790482243984" stroke-miterlimit="10"/></g><g transform="translate(-126,-149) scale(1,1)"><path fill="none" stroke="#000000" d="M 541 219 L 647 219" stroke-miterlimit="10"/></g><g transform="translate(-126,-149) scale(1,1)"><path fill="none" stroke="#000000" d="M 636.8373251423759 223.209517756016 L 647 219 L 636.8373251423758 214.790482243984" stroke-miterlimit="10"/></g><g transform="translate(-126,-149) scale(1,1)"><g><path fill="none" stroke="none"/><text fill="#000000" stroke="none" font-family="Arial" font-size="13px" font-style="normal" font-weight="normal" text-decoration="none" x="567.5" y="210.5">信息正确</text></g></g><g transform="translate(-126,-149) scale(1,1)"><path fill="none" stroke="#000000" d="M 347 239 L 347 331 L 440 331" stroke-miterlimit="10"/></g><g transform="translate(-126,-149) scale(1,1)"><path fill="none" stroke="#000000" d="M 429.83732514237585 335.209517756016 L 440 331 L 429.83732514237585 326.790482243984" stroke-miterlimit="10"/></g><g transform="translate(-126,-149) scale(1,1)"><g><path fill="none" stroke="none"/><text fill="#000000" stroke="none" font-family="Arial" font-size="13px" font-style="normal" font-weight="normal" text-decoration="none" x="320.5" y="322.5">放弃注册</text></g></g><g transform="translate(-126,-149) scale(1,1)"><path fill="none" stroke="#000000" d="M 490 239 L 490 312" stroke-miterlimit="10"/></g><g transform="translate(-126,-149) scale(1,1)"><path fill="none" stroke="#000000" d="M 485.790482243984 301.83732514237585 L 490 312 L 494.209517756016 301.83732514237585" stroke-miterlimit="10"/></g><g transform="translate(-126,-149) scale(1,1)"><g><path fill="none" stroke="none"/><text fill="#000000" stroke="none" font-family="Arial" font-size="13px" font-style="normal" font-weight="normal" text-decoration="none" x="477.5" y="280.5">放弃注册</text></g></g><g transform="translate(-126,-149) scale(1,1)"><path fill="none" stroke="#000000" d="M 664 239 L 664 331 L 536 331" stroke-miterlimit="10"/></g><g transform="translate(-126,-149) scale(1,1)"><path fill="none" stroke="#000000" d="M 546.1626748576241 326.790482243984 L 536 331 L 546.1626748576241 335.209517756016" stroke-miterlimit="10"/></g><g transform="translate(-126,-149) scale(1,1)"><g><path fill="none" stroke="none"/><text fill="#000000" stroke="none" font-family="Arial" font-size="13px" font-style="normal" font-weight="normal" text-decoration="none" x="636.5" y="352.5">放弃注册</text></g></g><g transform="translate(-126,-149) scale(1,1)"><path fill="#C0C0C0" stroke="none" d="M 487 411.5 C 487 404.59644 492.59644 399 499.5 399 C 506.40356 399 512 404.59644 512 411.5 C 512 418.40356 506.40356 424 499.5 424 C 492.59644 424 487 418.40356 487 411.5 Z" opacity="0.2"/></g><g transform="translate(-126,-149) scale(1,1)"><path fill="none" stroke="#000000" d="M 480 404.5 C 480 397.59644 485.59644 392 492.5 392 C 499.40356 392 505 397.59644 505 404.5 C 505 411.40356 499.40356 417 492.5 417 C 485.59644 417 480 411.40356 480 404.5 Z" stroke-miterlimit="10"/></g><g transform="translate(-126,-149) scale(1,1)"><path fill="#000000" stroke="none" d="M 485 404.5 C 485 400.357864 488.357864 397 492.5 397 C 496.642136 397 500 400.357864 500 404.5 C 500 408.642136 496.642136 412 492.5 412 C 488.357864 412 485 408.642136 485 404.5 Z"/></g><g transform="translate(-126,-149) scale(1,1)"><path fill="none" stroke="#000000" d="M 489 351 L 489 392" stroke-miterlimit="10"/></g><g transform="translate(-126,-149) scale(1,1)"><path fill="none" stroke="#000000" d="M 484.790482243984 381.83732514237585 L 489 392 L 493.209517756016 381.83732514237585" stroke-miterlimit="10"/></g></g></svg>