<svg version="1.1" xmlns="http://www.w3.org/2000/svg" xmlns:xlink="http://www.w3.org/1999/xlink" width="541" height="233"><defs/><g><g transform="translate(-102,-778) scale(1,1)"><path fill="#C0C0C0" stroke="none" d="M 119 840.5 C 119 835.2532944 123.2532944 831 128.5 831 C 133.7467056 831 138 835.2532944 138 840.5 C 138 845.7467056 133.7467056 850 128.5 850 C 123.2532944 850 119 845.7467056 119 840.5 Z" opacity="0.2"/></g><g transform="translate(-102,-778) scale(1,1)"><path fill="#000000" stroke="none" d="M 112 833.5 C 112 828.2532944 116.2532944 824 121.5 824 C 126.7467056 824 131 828.2532944 131 833.5 C 131 838.7467056 126.7467056 843 121.5 843 C 116.2532944 843 112 838.7467056 112 833.5 Z"/></g><g transform="translate(-102,-778) scale(1,1)"><path fill="#C0C0C0" stroke="none" d="M 249 823 L 316 823 Q 326 823 326 833 L 326 852 Q 326 862 316 862 L 249 862 Q 239 862 239 852 L 239 833 Q 239 823 249 823 Z" opacity="0.2"/></g><g transform="translate(-102,-778) scale(1,1)"><path fill="#ffffff" stroke="none" d="M 242 816 L 309 816 Q 319 816 319 826 L 319 845 Q 319 855 309 855 L 242 855 Q 232 855 232 845 L 232 826 Q 232 816 242 816 Z"/></g><g transform="translate(-102,-778) scale(1,1)"><path fill="none" stroke="#000000" d="M 242 816 L 309 816 Q 319 816 319 826 L 319 845 Q 319 855 309 855 L 242 855 Q 232 855 232 845 L 232 826 Q 232 816 242 816 Z" stroke-miterlimit="10"/></g><g transform="translate(-102,-778) scale(1,1)"><g><path fill="none" stroke="none"/><text fill="#000000" stroke="none" font-family="Arial" font-size="13px" font-style="normal" font-weight="bold" text-decoration="none" x="236.5" y="835.5">转卖发布状态</text></g></g><g transform="translate(-102,-778) scale(1,1)"><path fill="#C0C0C0" stroke="none" d="M 433 823 L 500 823 Q 510 823 510 833 L 510 852 Q 510 862 500 862 L 433 862 Q 423 862 423 852 L 423 833 Q 423 823 433 823 Z" opacity="0.2"/></g><g transform="translate(-102,-778) scale(1,1)"><path fill="#ffffff" stroke="none" d="M 426 816 L 493 816 Q 503 816 503 826 L 503 845 Q 503 855 493 855 L 426 855 Q 416 855 416 845 L 416 826 Q 416 816 426 816 Z"/></g><g transform="translate(-102,-778) scale(1,1)"><path fill="none" stroke="#000000" d="M 426 816 L 493 816 Q 503 816 503 826 L 503 845 Q 503 855 493 855 L 426 855 Q 416 855 416 845 L 416 826 Q 416 816 426 816 Z" stroke-miterlimit="10"/></g><g transform="translate(-102,-778) scale(1,1)"><g><path fill="none" stroke="none"/><text fill="#000000" stroke="none" font-family="Arial" font-size="13px" font-style="normal" font-weight="bold" text-decoration="none" x="420.5" y="835.5">转卖结束状态</text></g></g><g transform="translate(-102,-778) scale(1,1)"><path fill="#C0C0C0" stroke="none" d="M 249 911 L 316 911 Q 326 911 326 921 L 326 940 Q 326 950 316 950 L 249 950 Q 239 950 239 940 L 239 921 Q 239 911 249 911 Z" opacity="0.2"/></g><g transform="translate(-102,-778) scale(1,1)"><path fill="#ffffff" stroke="none" d="M 242 904 L 309 904 Q 319 904 319 914 L 319 933 Q 319 943 309 943 L 242 943 Q 232 943 232 933 L 232 914 Q 232 904 242 904 Z"/></g><g transform="translate(-102,-778) scale(1,1)"><path fill="none" stroke="#000000" d="M 242 904 L 309 904 Q 319 904 319 914 L 319 933 Q 319 943 309 943 L 242 943 Q 232 943 232 933 L 232 914 Q 232 904 242 904 Z" stroke-miterlimit="10"/></g><g transform="translate(-102,-778) scale(1,1)"><g><path fill="none" stroke="none"/><text fill="#000000" stroke="none" font-family="Arial" font-size="13px" font-style="normal" font-weight="bold" text-decoration="none" x="236.5" y="923.5">转卖失效状态</text></g></g><g transform="translate(-102,-778) scale(1,1)"><path fill="#C0C0C0" stroke="none" d="M 271 995.5 C 271 988.59644 276.59644 983 283.5 983 C 290.40356 983 296 988.59644 296 995.5 C 296 1002.40356 290.40356 1008 283.5 1008 C 276.59644 1008 271 1002.40356 271 995.5 Z" opacity="0.2"/></g><g transform="translate(-102,-778) scale(1,1)"><path fill="none" stroke="#000000" d="M 264 988.5 C 264 981.59644 269.59644 976 276.5 976 C 283.40356 976 289 981.59644 289 988.5 C 289 995.40356 283.40356 1001 276.5 1001 C 269.59644 1001 264 995.40356 264 988.5 Z" stroke-miterlimit="10"/></g><g transform="translate(-102,-778) scale(1,1)"><path fill="#000000" stroke="none" d="M 269 988.5 C 269 984.357864 272.357864 981 276.5 981 C 280.642136 981 284 984.357864 284 988.5 C 284 992.642136 280.642136 996 276.5 996 C 272.357864 996 269 992.642136 269 988.5 Z"/></g><g transform="translate(-102,-778) scale(1,1)"><path fill="#C0C0C0" stroke="none" d="M 615 843.5 C 615 836.59644 620.59644 831 627.5 831 C 634.40356 831 640 836.59644 640 843.5 C 640 850.40356 634.40356 856 627.5 856 C 620.59644 856 615 850.40356 615 843.5 Z" opacity="0.2"/></g><g transform="translate(-102,-778) scale(1,1)"><path fill="none" stroke="#000000" d="M 608 836.5 C 608 829.59644 613.59644 824 620.5 824 C 627.40356 824 633 829.59644 633 836.5 C 633 843.40356 627.40356 849 620.5 849 C 613.59644 849 608 843.40356 608 836.5 Z" stroke-miterlimit="10"/></g><g transform="translate(-102,-778) scale(1,1)"><path fill="#000000" stroke="none" d="M 613 836.5 C 613 832.357864 616.357864 829 620.5 829 C 624.642136 829 628 832.357864 628 836.5 C 628 840.642136 624.642136 844 620.5 844 C 616.357864 844 613 840.642136 613 836.5 Z"/></g><g transform="translate(-102,-778) scale(1,1)"><path fill="none" stroke="#000000" d="M 131 834 L 232 834" stroke-miterlimit="10"/></g><g transform="translate(-102,-778) scale(1,1)"><path fill="none" stroke="#000000" d="M 221.83732514237585 838.209517756016 L 232 834 L 221.83732514237585 829.790482243984" stroke-miterlimit="10"/></g><g transform="translate(-102,-778) scale(1,1)"><g><path fill="none" stroke="none"/><text fill="#000000" stroke="none" font-family="Arial" font-size="13px" font-style="normal" font-weight="normal" text-decoration="none" x="154.5" y="825.5">创建转卖</text></g></g><g transform="translate(-102,-778) scale(1,1)"><path fill="none" stroke="#000000" d="M 319 835 L 416 835" stroke-miterlimit="10"/></g><g transform="translate(-102,-778) scale(1,1)"><path fill="none" stroke="#000000" d="M 405.83732514237585 839.209517756016 L 416 835 L 405.83732514237585 830.790482243984" stroke-miterlimit="10"/></g><g transform="translate(-102,-778) scale(1,1)"><g><path fill="none" stroke="none"/><text fill="#000000" stroke="none" font-family="Arial" font-size="13px" font-style="normal" font-weight="normal" text-decoration="none" x="327.5" y="826.5">用户购买转卖</text></g></g><g transform="translate(-102,-778) scale(1,1)"><path fill="none" stroke="#000000" d="M 275 816 L 275 795 L 348 795 L 348 835 L 319 835" stroke-miterlimit="10"/></g><g transform="translate(-102,-778) scale(1,1)"><path fill="none" stroke="#000000" d="M 329.16267485762415 830.790482243984 L 319 835 L 329.16267485762415 839.209517756016" stroke-miterlimit="10"/></g><g transform="translate(-102,-778) scale(1,1)"><g><path fill="none" stroke="none"/><text fill="#000000" stroke="none" font-family="Arial" font-size="13px" font-style="normal" font-weight="normal" text-decoration="none" x="335.5" y="800.5">修改转卖</text></g></g><g transform="translate(-102,-778) scale(1,1)"><path fill="none" stroke="#000000" d="M 275 856 L 275 903" stroke-miterlimit="10"/></g><g transform="translate(-102,-778) scale(1,1)"><path fill="none" stroke="#000000" d="M 270.790482243984 892.8373251423759 L 275 903 L 279.209517756016 892.8373251423759" stroke-miterlimit="10"/></g><g transform="translate(-102,-778) scale(1,1)"><g><path fill="none" stroke="none"/><text fill="#000000" stroke="none" font-family="Arial" font-size="13px" font-style="normal" font-weight="normal" text-decoration="none" x="230.5" y="884.5">取消转卖或转卖超时</text></g></g><g transform="translate(-102,-778) scale(1,1)"><path fill="none" stroke="#000000" d="M 503 836 L 608 836" stroke-miterlimit="10"/></g><g transform="translate(-102,-778) scale(1,1)"><path fill="none" stroke="#000000" d="M 597.8373251423759 840.209517756016 L 608 836 L 597.8373251423758 831.790482243984" stroke-miterlimit="10"/></g><g transform="translate(-102,-778) scale(1,1)"><g><path fill="none" stroke="none"/><text fill="#000000" stroke="none" font-family="Arial" font-size="13px" font-style="normal" font-weight="normal" text-decoration="none" x="528.5" y="827.5">转卖结束</text></g></g><g transform="translate(-102,-778) scale(1,1)"><path fill="none" stroke="#000000" d="M 273 943 L 273 976" stroke-miterlimit="10"/></g><g transform="translate(-102,-778) scale(1,1)"><path fill="none" stroke="#000000" d="M 268.790482243984 965.8373251423759 L 273 976 L 277.209517756016 965.8373251423759" stroke-miterlimit="10"/></g></g></svg>