<svg version="1.1" xmlns="http://www.w3.org/2000/svg" xmlns:xlink="http://www.w3.org/1999/xlink" width="436" height="525"><defs/><g><g transform="translate(-45,-758) scale(1,1)"><path fill="#C0C0C0" stroke="none" d="M 303 784.5 C 303 779.2532944 307.2532944 775 312.5 775 C 317.7467056 775 322 779.2532944 322 784.5 C 322 789.7467056 317.7467056 794 312.5 794 C 307.2532944 794 303 789.7467056 303 784.5 Z" opacity="0.2"/></g><g transform="translate(-45,-758) scale(1,1)"><path fill="#000000" stroke="none" d="M 296 777.5 C 296 772.2532944 300.2532944 768 305.5 768 C 310.7467056 768 315 772.2532944 315 777.5 C 315 782.7467056 310.7467056 787 305.5 787 C 300.2532944 787 296 782.7467056 296 777.5 Z"/></g><g transform="translate(-45,-758) scale(1,1)"><path fill="#C0C0C0" stroke="none" d="M 289 823 L 330 823 Q 340 823 340 833 L 340 852 Q 340 862 330 862 L 289 862 Q 279 862 279 852 L 279 833 Q 279 823 289 823 Z" opacity="0.2"/></g><g transform="translate(-45,-758) scale(1,1)"><path fill="#ffffff" stroke="none" d="M 282 816 L 323 816 Q 333 816 333 826 L 333 845 Q 333 855 323 855 L 282 855 Q 272 855 272 845 L 272 826 Q 272 816 282 816 Z"/></g><g transform="translate(-45,-758) scale(1,1)"><path fill="none" stroke="#000000" d="M 282 816 L 323 816 Q 333 816 333 826 L 333 845 Q 333 855 323 855 L 282 855 Q 272 855 272 845 L 272 826 Q 272 816 282 816 Z" stroke-miterlimit="10"/></g><g transform="translate(-45,-758) scale(1,1)"><g><path fill="none" stroke="none"/><text fill="#000000" stroke="none" font-family="Arial" font-size="13px" font-style="normal" font-weight="bold" text-decoration="none" x="276.5" y="835.5">选座状态</text></g></g><g transform="translate(-45,-758) scale(1,1)"><path fill="none" stroke="#000000" d="M 303 787 L 303 816" stroke-miterlimit="10"/></g><g transform="translate(-45,-758) scale(1,1)"><path fill="none" stroke="#000000" d="M 298.790482243984 805.8373251423759 L 303 816 L 307.209517756016 805.8373251423759" stroke-miterlimit="10"/></g><g transform="translate(-45,-758) scale(1,1)"><g><path fill="none" stroke="none"/><text fill="#000000" stroke="none" font-family="Arial" font-size="13px" font-style="normal" font-weight="normal" text-decoration="none" x="312.5" y="802.5">点击选座</text></g></g><g transform="translate(-45,-758) scale(1,1)"><path fill="#C0C0C0" stroke="none" d="M 295 896.5 L 306.5 887 L 317 896.5 L 306.5 905 L 295 896.5" opacity="0.2"/></g><g transform="translate(-45,-758) scale(1,1)"><path fill="#ffffff" stroke="none" d="M 288 889 L 299 880 L 310 889 L 299 898 L 288 889"/></g><g transform="translate(-45,-758) scale(1,1)"><path fill="none" stroke="#000000" d="M 288 889 L 299 880 L 310 889 L 299 898 L 288 889 L 288 889" stroke-miterlimit="10"/></g><g transform="translate(-45,-758) scale(1,1)"><path fill="none" stroke="#000000" d="M 301 855 L 301 880" stroke-miterlimit="10"/></g><g transform="translate(-45,-758) scale(1,1)"><path fill="none" stroke="#000000" d="M 296.790482243984 869.8373251423759 L 301 880 L 305.209517756016 869.8373251423759" stroke-miterlimit="10"/></g><g transform="translate(-45,-758) scale(1,1)"><path fill="none" stroke="#000000" d="M 310 888 L 362 888 L 362 835 L 333 835" stroke-miterlimit="10"/></g><g transform="translate(-45,-758) scale(1,1)"><path fill="none" stroke="#000000" d="M 343.16267485762415 830.790482243984 L 333 835 L 343.16267485762415 839.209517756016" stroke-miterlimit="10"/></g><g transform="translate(-45,-758) scale(1,1)"><g><path fill="none" stroke="none"/><text fill="#000000" stroke="none" font-family="Arial" font-size="13px" font-style="normal" font-weight="normal" text-decoration="none" x="382.5" y="867.5">座位已被选择</text></g></g><g transform="translate(-45,-758) scale(1,1)"><path fill="#C0C0C0" stroke="none" d="M 233 943 L 378 943 Q 388 943 388 953 L 388 972 Q 388 982 378 982 L 233 982 Q 223 982 223 972 L 223 953 Q 223 943 233 943 Z" opacity="0.2"/></g><g transform="translate(-45,-758) scale(1,1)"><path fill="#ffffff" stroke="none" d="M 226 936 L 371 936 Q 381 936 381 946 L 381 965 Q 381 975 371 975 L 226 975 Q 216 975 216 965 L 216 946 Q 216 936 226 936 Z"/></g><g transform="translate(-45,-758) scale(1,1)"><path fill="none" stroke="#000000" d="M 226 936 L 371 936 Q 381 936 381 946 L 381 965 Q 381 975 371 975 L 226 975 Q 216 975 216 965 L 216 946 Q 216 936 226 936 Z" stroke-miterlimit="10"/></g><g transform="translate(-45,-758) scale(1,1)"><g><path fill="none" stroke="none"/><text fill="#000000" stroke="none" font-family="Arial" font-size="13px" font-style="normal" font-weight="bold" text-decoration="none" x="220.5" y="955.5">选择观影人、支付方式状态</text></g></g><g transform="translate(-45,-758) scale(1,1)"><path fill="none" stroke="#000000" d="M 299 899 L 298 935" stroke-miterlimit="10"/></g><g transform="translate(-45,-758) scale(1,1)"><path fill="none" stroke="#000000" d="M 294.0742930232062 924.7243576973333 L 298 935 L 302.49008232902077 924.9581296224949" stroke-miterlimit="10"/></g><g transform="translate(-45,-758) scale(1,1)"><g><path fill="none" stroke="none"/><text fill="#000000" stroke="none" font-family="Arial" font-size="13px" font-style="normal" font-weight="normal" text-decoration="none" x="316.5" y="925.5">座位未被选择</text></g></g><g transform="translate(-45,-758) scale(1,1)"><path fill="#C0C0C0" stroke="none" d="M 257 1015 L 350 1015 Q 360 1015 360 1025 L 360 1044 Q 360 1054 350 1054 L 257 1054 Q 247 1054 247 1044 L 247 1025 Q 247 1015 257 1015 Z" opacity="0.2"/></g><g transform="translate(-45,-758) scale(1,1)"><path fill="#ffffff" stroke="none" d="M 250 1008 L 343 1008 Q 353 1008 353 1018 L 353 1037 Q 353 1047 343 1047 L 250 1047 Q 240 1047 240 1037 L 240 1018 Q 240 1008 250 1008 Z"/></g><g transform="translate(-45,-758) scale(1,1)"><path fill="none" stroke="#000000" d="M 250 1008 L 343 1008 Q 353 1008 353 1018 L 353 1037 Q 353 1047 343 1047 L 250 1047 Q 240 1047 240 1037 L 240 1018 Q 240 1008 250 1008 Z" stroke-miterlimit="10"/></g><g transform="translate(-45,-758) scale(1,1)"><g><path fill="none" stroke="none"/><text fill="#000000" stroke="none" font-family="Arial" font-size="13px" font-style="normal" font-weight="bold" text-decoration="none" x="244.5" y="1027.5">同意《协议状态》</text></g></g><g transform="translate(-45,-758) scale(1,1)"><path fill="none" stroke="#000000" d="M 297 976 L 297 1007" stroke-miterlimit="10"/></g><g transform="translate(-45,-758) scale(1,1)"><path fill="none" stroke="#000000" d="M 292.790482243984 996.8373251423759 L 297 1007 L 301.209517756016 996.8373251423759" stroke-miterlimit="10"/></g><g transform="translate(-45,-758) scale(1,1)"><g><path fill="none" stroke="none"/><text fill="#000000" stroke="none" font-family="Arial" font-size="13px" font-style="normal" font-weight="normal" text-decoration="none" x="303.5" y="996.5">已选择</text></g></g><g transform="translate(-45,-758) scale(1,1)"><path fill="#C0C0C0" stroke="none" d="M 265 1079 L 332 1079 Q 342 1079 342 1089 L 342 1108 Q 342 1118 332 1118 L 265 1118 Q 255 1118 255 1108 L 255 1089 Q 255 1079 265 1079 Z" opacity="0.2"/></g><g transform="translate(-45,-758) scale(1,1)"><path fill="#ffffff" stroke="none" d="M 258 1072 L 325 1072 Q 335 1072 335 1082 L 335 1101 Q 335 1111 325 1111 L 258 1111 Q 248 1111 248 1101 L 248 1082 Q 248 1072 258 1072 Z"/></g><g transform="translate(-45,-758) scale(1,1)"><path fill="none" stroke="#000000" d="M 258 1072 L 325 1072 Q 335 1072 335 1082 L 335 1101 Q 335 1111 325 1111 L 258 1111 Q 248 1111 248 1101 L 248 1082 Q 248 1072 258 1072 Z" stroke-miterlimit="10"/></g><g transform="translate(-45,-758) scale(1,1)"><g><path fill="none" stroke="none"/><text fill="#000000" stroke="none" font-family="Arial" font-size="13px" font-style="normal" font-weight="bold" text-decoration="none" x="252.5" y="1091.5">提交订单状态</text></g></g><g transform="translate(-45,-758) scale(1,1)"><path fill="none" stroke="#000000" d="M 294 1048 L 293 1071" stroke-miterlimit="10"/></g><g transform="translate(-45,-758) scale(1,1)"><path fill="none" stroke="#000000" d="M 289.23589374918504 1060.6640673312672 L 293 1071 L 297.6469830248906 1061.0297668649937" stroke-miterlimit="10"/></g><g transform="translate(-45,-758) scale(1,1)"><path fill="#C0C0C0" stroke="none" d="M 287 1152.5 L 298.5 1143 L 309 1152.5 L 298.5 1161 L 287 1152.5" opacity="0.2"/></g><g transform="translate(-45,-758) scale(1,1)"><path fill="#ffffff" stroke="none" d="M 280 1145 L 291 1136 L 302 1145 L 291 1154 L 280 1145"/></g><g transform="translate(-45,-758) scale(1,1)"><path fill="none" stroke="#000000" d="M 280 1145 L 291 1136 L 302 1145 L 291 1154 L 280 1145 L 280 1145" stroke-miterlimit="10"/></g><g transform="translate(-45,-758) scale(1,1)"><path fill="none" stroke="#000000" d="M 291 1112 L 291 1135" stroke-miterlimit="10"/></g><g transform="translate(-45,-758) scale(1,1)"><path fill="none" stroke="#000000" d="M 286.790482243984 1124.837325142376 L 291 1135 L 295.209517756016 1124.837325142376" stroke-miterlimit="10"/></g><g transform="translate(-45,-758) scale(1,1)"><path fill="#C0C0C0" stroke="none" d="M 281 1191 L 322 1191 Q 332 1191 332 1201 L 332 1220 Q 332 1230 322 1230 L 281 1230 Q 271 1230 271 1220 L 271 1201 Q 271 1191 281 1191 Z" opacity="0.2"/></g><g transform="translate(-45,-758) scale(1,1)"><path fill="#ffffff" stroke="none" d="M 274 1184 L 315 1184 Q 325 1184 325 1194 L 325 1213 Q 325 1223 315 1223 L 274 1223 Q 264 1223 264 1213 L 264 1194 Q 264 1184 274 1184 Z"/></g><g transform="translate(-45,-758) scale(1,1)"><path fill="none" stroke="#000000" d="M 274 1184 L 315 1184 Q 325 1184 325 1194 L 325 1213 Q 325 1223 315 1223 L 274 1223 Q 264 1223 264 1213 L 264 1194 Q 264 1184 274 1184 Z" stroke-miterlimit="10"/></g><g transform="translate(-45,-758) scale(1,1)"><g><path fill="none" stroke="none"/><text fill="#000000" stroke="none" font-family="Arial" font-size="13px" font-style="normal" font-weight="bold" text-decoration="none" x="268.5" y="1203.5">创建订单</text></g></g><g transform="translate(-45,-758) scale(1,1)"><path fill="none" stroke="#000000" d="M 292 1155 L 293 1183" stroke-miterlimit="10"/></g><g transform="translate(-45,-758) scale(1,1)"><path fill="none" stroke="#000000" d="M 288.43044290015257 1172.99404437791 L 293 1183 L 296.8441142603102 1172.6935561150472" stroke-miterlimit="10"/></g><g transform="translate(-45,-758) scale(1,1)"><g><path fill="none" stroke="none"/><text fill="#000000" stroke="none" font-family="Arial" font-size="13px" font-style="normal" font-weight="normal" text-decoration="none" x="198.5" y="1179.5">信誉分达标</text></g></g><g transform="translate(-45,-758) scale(1,1)"><path fill="#C0C0C0" stroke="none" d="M 401 1135 L 468 1135 Q 478 1135 478 1145 L 478 1164 Q 478 1174 468 1174 L 401 1174 Q 391 1174 391 1164 L 391 1145 Q 391 1135 401 1135 Z" opacity="0.2"/></g><g transform="translate(-45,-758) scale(1,1)"><path fill="#ffffff" stroke="none" d="M 394 1128 L 461 1128 Q 471 1128 471 1138 L 471 1157 Q 471 1167 461 1167 L 394 1167 Q 384 1167 384 1157 L 384 1138 Q 384 1128 394 1128 Z"/></g><g transform="translate(-45,-758) scale(1,1)"><path fill="none" stroke="#000000" d="M 394 1128 L 461 1128 Q 471 1128 471 1138 L 471 1157 Q 471 1167 461 1167 L 394 1167 Q 384 1167 384 1157 L 384 1138 Q 384 1128 394 1128 Z" stroke-miterlimit="10"/></g><g transform="translate(-45,-758) scale(1,1)"><g><path fill="none" stroke="none"/><text fill="#000000" stroke="none" font-family="Arial" font-size="13px" font-style="normal" font-weight="bold" text-decoration="none" x="388.5" y="1147.5">创建失败状态</text></g></g><g transform="translate(-45,-758) scale(1,1)"><path fill="none" stroke="#000000" d="M 302 1146 L 384 1146" stroke-miterlimit="10"/></g><g transform="translate(-45,-758) scale(1,1)"><path fill="none" stroke="#000000" d="M 373.83732514237585 1150.2095177560159 L 384 1146 L 373.83732514237585 1141.7904822439841" stroke-miterlimit="10"/></g><g transform="translate(-45,-758) scale(1,1)"><g><path fill="none" stroke="none"/><text fill="#000000" stroke="none" font-family="Arial" font-size="13px" font-style="normal" font-weight="normal" text-decoration="none" x="303.5" y="1137.5">信誉分未达标</text></g></g><g transform="translate(-45,-758) scale(1,1)"><path fill="#C0C0C0" stroke="none" d="M 287 1267.5 C 287 1260.59644 292.59644 1255 299.5 1255 C 306.40356 1255 312 1260.59644 312 1267.5 C 312 1274.40356 306.40356 1280 299.5 1280 C 292.59644 1280 287 1274.40356 287 1267.5 Z" opacity="0.2"/></g><g transform="translate(-45,-758) scale(1,1)"><path fill="none" stroke="#000000" d="M 280 1260.5 C 280 1253.59644 285.59644 1248 292.5 1248 C 299.40356 1248 305 1253.59644 305 1260.5 C 305 1267.40356 299.40356 1273 292.5 1273 C 285.59644 1273 280 1267.40356 280 1260.5 Z" stroke-miterlimit="10"/></g><g transform="translate(-45,-758) scale(1,1)"><path fill="#000000" stroke="none" d="M 285 1260.5 C 285 1256.357864 288.357864 1253 292.5 1253 C 296.642136 1253 300 1256.357864 300 1260.5 C 300 1264.642136 296.642136 1268 292.5 1268 C 288.357864 1268 285 1264.642136 285 1260.5 Z"/></g><g transform="translate(-45,-758) scale(1,1)"><path fill="none" stroke="#000000" d="M 293 1224 L 292 1247" stroke-miterlimit="10"/></g><g transform="translate(-45,-758) scale(1,1)"><path fill="none" stroke="#000000" d="M 288.23589374918504 1236.6640673312672 L 292 1247 L 296.6469830248906 1237.0297668649937" stroke-miterlimit="10"/></g><g transform="translate(-45,-758) scale(1,1)"><path fill="none" stroke="#000000" d="M 248 1072 L 152 1072 L 152 832 L 272 832" stroke-miterlimit="10"/></g><g transform="translate(-45,-758) scale(1,1)"><path fill="none" stroke="#000000" d="M 261.83732514237585 836.209517756016 L 272 832 L 261.83732514237585 827.790482243984" stroke-miterlimit="10"/></g><g transform="translate(-45,-758) scale(1,1)"><g><path fill="none" stroke="none"/><text fill="#000000" stroke="none" font-family="Arial" font-size="13px" font-style="normal" font-weight="normal" text-decoration="none" x="54.5" y="964.5">取消创建订单</text></g></g></g></svg>