<svg version="1.1" xmlns="http://www.w3.org/2000/svg" xmlns:xlink="http://www.w3.org/1999/xlink" width="744" height="347"><defs/><g><g transform="translate(-182,-214) scale(1,1)"><rect fill="#C0C0C0" stroke="none" x="311" y="231" width="479" height="327" opacity="0.2"/></g><g transform="translate(-182,-214) scale(1,1)"><rect fill="#ffffff" stroke="none" x="304" y="224" width="479" height="327"/></g><g transform="translate(-182,-214) scale(1,1)"><path fill="none" stroke="#000000" d="M 304 224 L 783 224 L 783 551 L 304 551 L 304 224 Z Z" stroke-miterlimit="10"/></g><g transform="translate(-182,-214) scale(1,1)"><g><path fill="none" stroke="none"/><text fill="#000000" stroke="none" font-family="Arial" font-size="13px" font-style="normal" font-weight="bold" text-decoration="none" x="498" y="243.5">注册与登录系统</text></g></g><g transform="translate(-182,-214) scale(1,1)"><path fill="#ffffff" stroke="none" d="M 216.46327272727274 333.76 C 216.46327272727274 326.712845952 222.0761560855273 321 229 321 C 235.9238439144727 321 241.53672727272726 326.712845952 241.53672727272726 333.76 C 241.53672727272726 340.807154048 235.9238439144727 346.52 229 346.52 C 222.0761560855273 346.52 216.46327272727274 340.807154048 216.46327272727274 333.76 Z"/></g><g transform="translate(-182,-214) scale(1,1)"><path fill="none" stroke="#000000" d="M 216.46327272727274 333.76 C 216.46327272727274 326.712845952 222.0761560855273 321 229 321 C 235.9238439144727 321 241.53672727272726 326.712845952 241.53672727272726 333.76 C 241.53672727272726 340.807154048 235.9238439144727 346.52 229 346.52 C 222.0761560855273 346.52 216.46327272727274 340.807154048 216.46327272727274 333.76 Z" stroke-miterlimit="10"/></g><g transform="translate(-182,-214) scale(1,1)"><path fill="none" stroke="#000000" d="M 229 346.52 L 229 371.48" stroke-miterlimit="10"/></g><g transform="translate(-182,-214) scale(1,1)"><path fill="none" stroke="#000000" d="M 215.72581818181817 355.88 L 242.27418181818183 355.88" stroke-miterlimit="10"/></g><g transform="translate(-182,-214) scale(1,1)"><path fill="none" stroke="#000000" d="M 229 371.48 L 210.56363636363636 397" stroke-miterlimit="10"/></g><g transform="translate(-182,-214) scale(1,1)"><path fill="none" stroke="#000000" d="M 229 371.48 L 247.43636363636364 397" stroke-miterlimit="10"/></g><g transform="translate(-182,-214) scale(1,1)"><g><path fill="none" stroke="none"/><text fill="#000000" stroke="none" font-family="Arial" font-size="13px" font-style="normal" font-weight="bold" text-decoration="none" x="216" y="417.5">游客</text></g></g><g transform="translate(-182,-214) scale(1,1)"><path fill="#C0C0C0" stroke="none" d="M 431 304 C 431 294.6111584 453.6096176 287 481.5 287 C 509.3903824 287 532 294.6111584 532 304 C 532 313.3888416 509.3903824 321 481.5 321 C 453.6096176 321 431 313.3888416 431 304 Z" opacity="0.2"/></g><g transform="translate(-182,-214) scale(1,1)"><path fill="#ffffff" stroke="none" d="M 424 297 C 424 287.6111584 446.6096176 280 474.5 280 C 502.3903824 280 525 287.6111584 525 297 C 525 306.3888416 502.3903824 314 474.5 314 C 446.6096176 314 424 306.3888416 424 297 Z"/></g><g transform="translate(-182,-214) scale(1,1)"><path fill="none" stroke="#000000" d="M 424 297 C 424 287.6111584 446.6096176 280 474.5 280 C 502.3903824 280 525 287.6111584 525 297 C 525 306.3888416 502.3903824 314 474.5 314 C 446.6096176 314 424 306.3888416 424 297 Z" stroke-miterlimit="10"/></g><g transform="translate(-182,-214) scale(1,1)"><g><path fill="none" stroke="none"/><text fill="#000000" stroke="none" font-family="Arial" font-size="13px" font-style="normal" font-weight="bold" text-decoration="none" x="461.5" y="304">注册</text></g></g><g transform="translate(-182,-214) scale(1,1)"><path fill="#C0C0C0" stroke="none" d="M 623 355 C 623 343.954304 654.5639216 335 693.5 335 C 732.4360784 335 764 343.954304 764 355 C 764 366.045696 732.4360784 375 693.5 375 C 654.5639216 375 623 366.045696 623 355 Z" opacity="0.2"/></g><g transform="translate(-182,-214) scale(1,1)"><path fill="#ffffff" stroke="none" d="M 616 348 C 616 336.954304 647.5639216 328 686.5 328 C 725.4360784 328 757 336.954304 757 348 C 757 359.045696 725.4360784 368 686.5 368 C 647.5639216 368 616 359.045696 616 348 Z"/></g><g transform="translate(-182,-214) scale(1,1)"><path fill="none" stroke="#000000" d="M 616 348 C 616 336.954304 647.5639216 328 686.5 328 C 725.4360784 328 757 336.954304 757 348 C 757 359.045696 725.4360784 368 686.5 368 C 647.5639216 368 616 359.045696 616 348 Z" stroke-miterlimit="10"/></g><g transform="translate(-182,-214) scale(1,1)"><g><path fill="none" stroke="none"/><text fill="#000000" stroke="none" font-family="Arial" font-size="13px" font-style="normal" font-weight="bold" text-decoration="none" x="641" y="355">短信验证码验证</text></g></g><g transform="translate(-182,-214) scale(1,1)"><path fill="#C0C0C0" stroke="none" d="M 359 416 C 359 406.6111584 381.6096176 399 409.5 399 C 437.3903824 399 460 406.6111584 460 416 C 460 425.3888416 437.3903824 433 409.5 433 C 381.6096176 433 359 425.3888416 359 416 Z" opacity="0.2"/></g><g transform="translate(-182,-214) scale(1,1)"><path fill="#ffffff" stroke="none" d="M 352 409 C 352 399.6111584 374.6096176 392 402.5 392 C 430.3903824 392 453 399.6111584 453 409 C 453 418.3888416 430.3903824 426 402.5 426 C 374.6096176 426 352 418.3888416 352 409 Z"/></g><g transform="translate(-182,-214) scale(1,1)"><path fill="none" stroke="#000000" d="M 352 409 C 352 399.6111584 374.6096176 392 402.5 392 C 430.3903824 392 453 399.6111584 453 409 C 453 418.3888416 430.3903824 426 402.5 426 C 374.6096176 426 352 418.3888416 352 409 Z" stroke-miterlimit="10"/></g><g transform="translate(-182,-214) scale(1,1)"><g><path fill="none" stroke="none"/><text fill="#000000" stroke="none" font-family="Arial" font-size="13px" font-style="normal" font-weight="bold" text-decoration="none" x="389.5" y="416">登录</text></g></g><g transform="translate(-182,-214) scale(1,1)"><path fill="#C0C0C0" stroke="none" d="M 615 472 C 615 462.6111584 637.6096176 455 665.5 455 C 693.3903824 455 716 462.6111584 716 472 C 716 481.3888416 693.3903824 489 665.5 489 C 637.6096176 489 615 481.3888416 615 472 Z" opacity="0.2"/></g><g transform="translate(-182,-214) scale(1,1)"><path fill="#ffffff" stroke="none" d="M 608 465 C 608 455.6111584 630.6096176 448 658.5 448 C 686.3903824 448 709 455.6111584 709 465 C 709 474.3888416 686.3903824 482 658.5 482 C 630.6096176 482 608 474.3888416 608 465 Z"/></g><g transform="translate(-182,-214) scale(1,1)"><path fill="none" stroke="#000000" d="M 608 465 C 608 455.6111584 630.6096176 448 658.5 448 C 686.3903824 448 709 455.6111584 709 465 C 709 474.3888416 686.3903824 482 658.5 482 C 630.6096176 482 608 474.3888416 608 465 Z" stroke-miterlimit="10"/></g><g transform="translate(-182,-214) scale(1,1)"><g><path fill="none" stroke="none"/><text fill="#000000" stroke="none" font-family="Arial" font-size="13px" font-style="normal" font-weight="bold" text-decoration="none" x="632.5" y="472">找回密码</text></g></g><g transform="translate(-182,-214) scale(1,1)"><path fill="none" stroke="#000000" d="M 267 379 L 351 398" stroke-miterlimit="10"/></g><g transform="translate(-182,-214) scale(1,1)"><path fill="none" stroke="#000000" d="M 340.15903653927944 399.8637358298112 L 351 398 L 342.01642097872906 391.65214146592876" stroke-miterlimit="10"/></g><g transform="translate(-182,-214) scale(1,1)"><path fill="none" stroke="#000000" d="M 607 454 L 454 420" stroke-miterlimit="10" stroke-dasharray="3"/></g><g transform="translate(-182,-214) scale(1,1)"><path fill="none" stroke="#000000" d="M 464.8338443068778 418.09531694648916 L 454 420 L 463.0074990788612 426.31387047256396" stroke-miterlimit="10"/></g><g transform="translate(-182,-214) scale(1,1)"><g><path fill="none" stroke="none"/><text fill="#000000" stroke="none" font-family="Arial" font-size="13px" font-style="normal" font-weight="normal" text-decoration="none" x="496.23291015625" y="472.5">«extend»</text></g></g><g transform="translate(-182,-214) scale(1,1)"><path fill="none" stroke="#000000" d="M 526 310 L 615 331" stroke-miterlimit="10" stroke-dasharray="3"/></g><g transform="translate(-182,-214) scale(1,1)"><path fill="none" stroke="#000000" d="M 604.142226497953 332.76316606655325 L 615 331 L 606.0756480460971 324.5691414101327" stroke-miterlimit="10"/></g><g transform="translate(-182,-214) scale(1,1)"><g><path fill="none" stroke="none"/><text fill="#000000" stroke="none" font-family="Arial" font-size="13px" font-style="normal" font-weight="normal" text-decoration="none" x="548.470947265625" y="294.5">«include»</text></g></g><g transform="translate(-182,-214) scale(1,1)"><path fill="none" stroke="#000000" d="M 662 447 L 681 369" stroke-miterlimit="10" stroke-dasharray="3"/></g><g transform="translate(-182,-214) scale(1,1)"><path fill="none" stroke="#000000" d="M 682.6847320222948 379.8702197775875 L 681 369 L 674.5048793197266 377.877691555167" stroke-miterlimit="10"/></g><g transform="translate(-182,-214) scale(1,1)"><g><path fill="none" stroke="none"/><text fill="#000000" stroke="none" font-family="Arial" font-size="13px" font-style="normal" font-weight="normal" text-decoration="none" x="613.470947265625" y="406.5">«include»</text></g></g><g transform="translate(-182,-214) scale(1,1)"><path fill="#ffffff" stroke="none" d="M 854.5883636363636 316.57 C 854.5883636363636 310.180064864 859.6975266932363 305 866 305 C 872.3024733067637 305 877.4116363636364 310.180064864 877.4116363636364 316.57 C 877.4116363636364 322.959935136 872.3024733067637 328.14 866 328.14 C 859.6975266932363 328.14 854.5883636363636 322.959935136 854.5883636363636 316.57 Z"/></g><g transform="translate(-182,-214) scale(1,1)"><path fill="none" stroke="#000000" d="M 854.5883636363636 316.57 C 854.5883636363636 310.180064864 859.6975266932363 305 866 305 C 872.3024733067637 305 877.4116363636364 310.180064864 877.4116363636364 316.57 C 877.4116363636364 322.959935136 872.3024733067637 328.14 866 328.14 C 859.6975266932363 328.14 854.5883636363636 322.959935136 854.5883636363636 316.57 Z" stroke-miterlimit="10"/></g><g transform="translate(-182,-214) scale(1,1)"><path fill="none" stroke="#000000" d="M 866 328.14 L 866 350.86" stroke-miterlimit="10"/></g><g transform="translate(-182,-214) scale(1,1)"><path fill="none" stroke="#000000" d="M 853.9170909090909 336.65999999999997 L 878.0829090909091 336.65999999999997" stroke-miterlimit="10"/></g><g transform="translate(-182,-214) scale(1,1)"><path fill="none" stroke="#000000" d="M 866 350.86 L 849.2181818181818 374" stroke-miterlimit="10"/></g><g transform="translate(-182,-214) scale(1,1)"><path fill="none" stroke="#000000" d="M 866 350.86 L 882.7818181818182 374" stroke-miterlimit="10"/></g><g transform="translate(-182,-214) scale(1,1)"><g><path fill="none" stroke="none"/><text fill="#000000" stroke="none" font-family="Arial" font-size="13px" font-style="normal" font-weight="bold" text-decoration="none" x="820.5" y="394.5">第三方认证平台</text></g></g><g transform="translate(-182,-214) scale(1,1)"><path fill="none" stroke="#000000" d="M 757 351 L 816 351" stroke-miterlimit="10"/></g><g transform="translate(-182,-214) scale(1,1)"><path fill="none" stroke="#000000" d="M 454 398 L 615 363" stroke-miterlimit="10" stroke-dasharray="3"/></g><g transform="translate(-182,-214) scale(1,1)"><path fill="none" stroke="#000000" d="M 605.9635006946129 369.2722946601493 L 615 363 L 604.1750479751814 361.04541215076495" stroke-miterlimit="10"/></g><g transform="translate(-182,-214) scale(1,1)"><g><path fill="none" stroke="none"/><text fill="#000000" stroke="none" font-family="Arial" font-size="13px" font-style="normal" font-weight="normal" text-decoration="none" x="499.470947265625" y="356.5">«include»</text></g></g><g transform="translate(-182,-214) scale(1,1)"><path fill="none" stroke="#000000" d="M 462 315 L 414 391" stroke-miterlimit="10" stroke-dasharray="3"/></g><g transform="translate(-182,-214) scale(1,1)"><path fill="none" stroke="#000000" d="M 415.8676965979028 380.1597182039311 L 414 391 L 422.9858976975495 384.6554241616027" stroke-miterlimit="10"/></g><g transform="translate(-182,-214) scale(1,1)"><g><path fill="none" stroke="none"/><text fill="#000000" stroke="none" font-family="Arial" font-size="13px" font-style="normal" font-weight="normal" text-decoration="none" x="436.5" y="375.5">«extend»</text></g></g></g></svg>