<svg version="1.1" xmlns="http://www.w3.org/2000/svg" xmlns:xlink="http://www.w3.org/1999/xlink" width="716" height="452"><defs/><g><g transform="translate(-134,-6) scale(1,1)"><rect fill="#C0C0C0" stroke="none" x="263" y="23" width="584" height="432" opacity="0.2"/></g><g transform="translate(-134,-6) scale(1,1)"><rect fill="#ffffff" stroke="none" x="256" y="16" width="584" height="432"/></g><g transform="translate(-134,-6) scale(1,1)"><path fill="none" stroke="#000000" d="M 256 16 L 840 16 L 840 448 L 256 448 L 256 16 Z Z" stroke-miterlimit="10"/></g><g transform="translate(-134,-6) scale(1,1)"><g><path fill="none" stroke="none"/><text fill="#000000" stroke="none" font-family="Arial" font-size="18px" font-style="normal" font-weight="bold" text-decoration="none" x="494" y="40.5">用户信息系统</text></g></g><g transform="translate(-134,-6) scale(1,1)"><path fill="#ffffff" stroke="none" d="M 168.30254545454545 197.93 C 168.30254545454545 190.788957536 173.98738885585453 185 181 185 C 188.01261114414547 185 193.69745454545455 190.788957536 193.69745454545455 197.93 C 193.69745454545455 205.07104246400002 188.01261114414547 210.86 181 210.86 C 173.98738885585453 210.86 168.30254545454545 205.07104246400002 168.30254545454545 197.93 Z"/></g><g transform="translate(-134,-6) scale(1,1)"><path fill="none" stroke="#000000" d="M 168.30254545454545 197.93 C 168.30254545454545 190.788957536 173.98738885585453 185 181 185 C 188.01261114414547 185 193.69745454545455 190.788957536 193.69745454545455 197.93 C 193.69745454545455 205.07104246400002 188.01261114414547 210.86 181 210.86 C 173.98738885585453 210.86 168.30254545454545 205.07104246400002 168.30254545454545 197.93 Z" stroke-miterlimit="10"/></g><g transform="translate(-134,-6) scale(1,1)"><path fill="none" stroke="#000000" d="M 181 210.86 L 181 236.14" stroke-miterlimit="10"/></g><g transform="translate(-134,-6) scale(1,1)"><path fill="none" stroke="#000000" d="M 167.55563636363635 220.34 L 194.44436363636365 220.34" stroke-miterlimit="10"/></g><g transform="translate(-134,-6) scale(1,1)"><path fill="none" stroke="#000000" d="M 181 236.14 L 162.3272727272727 262" stroke-miterlimit="10"/></g><g transform="translate(-134,-6) scale(1,1)"><path fill="none" stroke="#000000" d="M 181 236.14 L 199.6727272727273 262" stroke-miterlimit="10"/></g><g transform="translate(-134,-6) scale(1,1)"><g><path fill="none" stroke="none"/><text fill="#000000" stroke="none" font-family="Arial" font-size="13px" font-style="normal" font-weight="bold" text-decoration="none" x="168" y="282.5">用户</text></g></g><g transform="translate(-134,-6) scale(1,1)"><path fill="#C0C0C0" stroke="none" d="M 335 240 C 335 230.6111584 362.5344848 223 396.5 223 C 430.4655152 223 458 230.6111584 458 240 C 458 249.3888416 430.4655152 257 396.5 257 C 362.5344848 257 335 249.3888416 335 240 Z" opacity="0.2"/></g><g transform="translate(-134,-6) scale(1,1)"><path fill="#ffffff" stroke="none" d="M 328 233 C 328 223.6111584 355.5344848 216 389.5 216 C 423.4655152 216 451 223.6111584 451 233 C 451 242.3888416 423.4655152 250 389.5 250 C 355.5344848 250 328 242.3888416 328 233 Z"/></g><g transform="translate(-134,-6) scale(1,1)"><path fill="none" stroke="#000000" d="M 328 233 C 328 223.6111584 355.5344848 216 389.5 216 C 423.4655152 216 451 223.6111584 451 233 C 451 242.3888416 423.4655152 250 389.5 250 C 355.5344848 250 328 242.3888416 328 233 Z" stroke-miterlimit="10"/></g><g transform="translate(-134,-6) scale(1,1)"><g><path fill="none" stroke="none"/><text fill="#000000" stroke="none" font-family="Arial" font-size="13px" font-style="normal" font-weight="bold" text-decoration="none" x="350.5" y="240">查看用户信息</text></g></g><g transform="translate(-134,-6) scale(1,1)"><path fill="#C0C0C0" stroke="none" d="M 583 128 C 583 118.6111584 610.5344848 111 644.5 111 C 678.4655152 111 706 118.6111584 706 128 C 706 137.3888416 678.4655152 145 644.5 145 C 610.5344848 145 583 137.3888416 583 128 Z" opacity="0.2"/></g><g transform="translate(-134,-6) scale(1,1)"><path fill="#ffffff" stroke="none" d="M 576 121 C 576 111.6111584 603.5344848 104 637.5 104 C 671.4655152 104 699 111.6111584 699 121 C 699 130.3888416 671.4655152 138 637.5 138 C 603.5344848 138 576 130.3888416 576 121 Z"/></g><g transform="translate(-134,-6) scale(1,1)"><path fill="none" stroke="#000000" d="M 576 121 C 576 111.6111584 603.5344848 104 637.5 104 C 671.4655152 104 699 111.6111584 699 121 C 699 130.3888416 671.4655152 138 637.5 138 C 603.5344848 138 576 130.3888416 576 121 Z" stroke-miterlimit="10"/></g><g transform="translate(-134,-6) scale(1,1)"><g><path fill="none" stroke="none"/><text fill="#000000" stroke="none" font-family="Arial" font-size="13px" font-style="normal" font-weight="bold" text-decoration="none" x="598.5" y="128">修改用户信息</text></g></g><g transform="translate(-134,-6) scale(1,1)"><path fill="none" stroke="#000000" d="M 597 139 L 429 215" stroke-miterlimit="10" stroke-dasharray="3"/></g><g transform="translate(-134,-6) scale(1,1)"><path fill="none" stroke="#000000" d="M 436.52426561339576 206.97594697306465 L 429 215 L 439.9943215466273 214.64659693073446" stroke-miterlimit="10"/></g><g transform="translate(-134,-6) scale(1,1)"><g><path fill="none" stroke="none"/><text fill="#000000" stroke="none" font-family="Arial" font-size="13px" font-style="normal" font-weight="normal" text-decoration="none" x="471.23291015625" y="167.5">«extend»</text></g></g><g transform="translate(-134,-6) scale(1,1)"><path fill="#C0C0C0" stroke="none" d="M 591 232 C 591 222.6111584 618.5344848 215 652.5 215 C 686.4655152 215 714 222.6111584 714 232 C 714 241.3888416 686.4655152 249 652.5 249 C 618.5344848 249 591 241.3888416 591 232 Z" opacity="0.2"/></g><g transform="translate(-134,-6) scale(1,1)"><path fill="#ffffff" stroke="none" d="M 584 225 C 584 215.6111584 611.5344848 208 645.5 208 C 679.4655152 208 707 215.6111584 707 225 C 707 234.3888416 679.4655152 242 645.5 242 C 611.5344848 242 584 234.3888416 584 225 Z"/></g><g transform="translate(-134,-6) scale(1,1)"><path fill="none" stroke="#000000" d="M 584 225 C 584 215.6111584 611.5344848 208 645.5 208 C 679.4655152 208 707 215.6111584 707 225 C 707 234.3888416 679.4655152 242 645.5 242 C 611.5344848 242 584 234.3888416 584 225 Z" stroke-miterlimit="10"/></g><g transform="translate(-134,-6) scale(1,1)"><g><path fill="none" stroke="none"/><text fill="#000000" stroke="none" font-family="Arial" font-size="13px" font-style="normal" font-weight="bold" text-decoration="none" x="606.5" y="232">查看我的订单</text></g></g><g transform="translate(-134,-6) scale(1,1)"><path fill="none" stroke="#000000" d="M 583 227 L 452 231" stroke-miterlimit="10" stroke-dasharray="3"/></g><g transform="translate(-134,-6) scale(1,1)"><path fill="none" stroke="#000000" d="M 462.02946558452436 226.4822771124336 L 452 231 L 462.2864156158142 234.8973906371744" stroke-miterlimit="10"/></g><g transform="translate(-134,-6) scale(1,1)"><g><path fill="none" stroke="none"/><text fill="#000000" stroke="none" font-family="Arial" font-size="13px" font-style="normal" font-weight="normal" text-decoration="none" x="490.23291015625" y="264.5">«extend»</text></g></g><g transform="translate(-134,-6) scale(1,1)"><path fill="#C0C0C0" stroke="none" d="M 503 336 C 503 326.6111584 530.5344848 319 564.5 319 C 598.4655152 319 626 326.6111584 626 336 C 626 345.3888416 598.4655152 353 564.5 353 C 530.5344848 353 503 345.3888416 503 336 Z" opacity="0.2"/></g><g transform="translate(-134,-6) scale(1,1)"><path fill="#ffffff" stroke="none" d="M 496 329 C 496 319.6111584 523.5344848 312 557.5 312 C 591.4655152 312 619 319.6111584 619 329 C 619 338.3888416 591.4655152 346 557.5 346 C 523.5344848 346 496 338.3888416 496 329 Z"/></g><g transform="translate(-134,-6) scale(1,1)"><path fill="none" stroke="#000000" d="M 496 329 C 496 319.6111584 523.5344848 312 557.5 312 C 591.4655152 312 619 319.6111584 619 329 C 619 338.3888416 591.4655152 346 557.5 346 C 523.5344848 346 496 338.3888416 496 329 Z" stroke-miterlimit="10"/></g><g transform="translate(-134,-6) scale(1,1)"><g><path fill="none" stroke="none"/><text fill="#000000" stroke="none" font-family="Arial" font-size="13px" font-style="normal" font-weight="bold" text-decoration="none" x="525" y="336">管理观演人</text></g></g><g transform="translate(-134,-6) scale(1,1)"><path fill="none" stroke="#000000" d="M 526 311 L 421 251" stroke-miterlimit="10" stroke-dasharray="3"/></g><g transform="translate(-134,-6) scale(1,1)"><path fill="none" stroke="#000000" d="M 431.91217842123683 252.38721379141532 L 421 251 L 427.7351670803088 259.69698363803934" stroke-miterlimit="10"/></g><g transform="translate(-134,-6) scale(1,1)"><g><path fill="none" stroke="none"/><text fill="#000000" stroke="none" font-family="Arial" font-size="13px" font-style="normal" font-weight="normal" text-decoration="none" x="435.23291015625" y="319.5">«extend»</text></g></g><g transform="translate(-134,-6) scale(1,1)"><path fill="#C0C0C0" stroke="none" d="M 695 288 C 695 278.6111584 722.5344848 271 756.5 271 C 790.4655152 271 818 278.6111584 818 288 C 818 297.3888416 790.4655152 305 756.5 305 C 722.5344848 305 695 297.3888416 695 288 Z" opacity="0.2"/></g><g transform="translate(-134,-6) scale(1,1)"><path fill="#ffffff" stroke="none" d="M 688 281 C 688 271.6111584 715.5344848 264 749.5 264 C 783.4655152 264 811 271.6111584 811 281 C 811 290.3888416 783.4655152 298 749.5 298 C 715.5344848 298 688 290.3888416 688 281 Z"/></g><g transform="translate(-134,-6) scale(1,1)"><path fill="none" stroke="#000000" d="M 688 281 C 688 271.6111584 715.5344848 264 749.5 264 C 783.4655152 264 811 271.6111584 811 281 C 811 290.3888416 783.4655152 298 749.5 298 C 715.5344848 298 688 290.3888416 688 281 Z" stroke-miterlimit="10"/></g><g transform="translate(-134,-6) scale(1,1)"><g><path fill="none" stroke="none"/><text fill="#000000" stroke="none" font-family="Arial" font-size="13px" font-style="normal" font-weight="bold" text-decoration="none" x="717" y="288">增添观演人</text></g></g><g transform="translate(-134,-6) scale(1,1)"><path fill="#C0C0C0" stroke="none" d="M 671 384 C 671 374.6111584 698.5344848 367 732.5 367 C 766.4655152 367 794 374.6111584 794 384 C 794 393.3888416 766.4655152 401 732.5 401 C 698.5344848 401 671 393.3888416 671 384 Z" opacity="0.2"/></g><g transform="translate(-134,-6) scale(1,1)"><path fill="#ffffff" stroke="none" d="M 664 377 C 664 367.6111584 691.5344848 360 725.5 360 C 759.4655152 360 787 367.6111584 787 377 C 787 386.3888416 759.4655152 394 725.5 394 C 691.5344848 394 664 386.3888416 664 377 Z"/></g><g transform="translate(-134,-6) scale(1,1)"><path fill="none" stroke="#000000" d="M 664 377 C 664 367.6111584 691.5344848 360 725.5 360 C 759.4655152 360 787 367.6111584 787 377 C 787 386.3888416 759.4655152 394 725.5 394 C 691.5344848 394 664 386.3888416 664 377 Z" stroke-miterlimit="10"/></g><g transform="translate(-134,-6) scale(1,1)"><g><path fill="none" stroke="none"/><text fill="#000000" stroke="none" font-family="Arial" font-size="13px" font-style="normal" font-weight="bold" text-decoration="none" x="693" y="384">删除观演人</text></g></g><g transform="translate(-134,-6) scale(1,1)"><path fill="none" stroke="#000000" d="M 620 313 L 687 297" stroke-miterlimit="10" stroke-dasharray="3"/></g><g transform="translate(-134,-6) scale(1,1)"><path fill="none" stroke="#000000" d="M 678.0930363494359 303.45492048963655 L 687 297 L 676.137507552662 295.26614365314606" stroke-miterlimit="10"/></g><g transform="translate(-134,-6) scale(1,1)"><g><path fill="none" stroke="none"/><text fill="#000000" stroke="none" font-family="Arial" font-size="13px" font-style="normal" font-weight="normal" text-decoration="none" x="607.470947265625" y="292.5">«include»</text></g></g><g transform="translate(-134,-6) scale(1,1)"><path fill="none" stroke="#000000" d="M 620 347 L 663 359" stroke-miterlimit="10" stroke-dasharray="3"/></g><g transform="translate(-134,-6) scale(1,1)"><path fill="none" stroke="#000000" d="M 652.0798351376719 360.32287542103336 L 663 359 L 654.342863193295 352.21369155505045" stroke-miterlimit="10"/></g><g transform="translate(-134,-6) scale(1,1)"><g><path fill="none" stroke="none"/><text fill="#000000" stroke="none" font-family="Arial" font-size="13px" font-style="normal" font-weight="normal" text-decoration="none" x="639.470947265625" y="340.5">«include»</text></g></g><g transform="translate(-134,-6) scale(1,1)"><path fill="none" stroke="#000000" d="M 218 234 L 328 234" stroke-miterlimit="10"/></g><g transform="translate(-134,-6) scale(1,1)"><path fill="none" stroke="#000000" d="M 317.83732514237585 238.209517756016 L 328 234 L 317.83732514237585 229.790482243984" stroke-miterlimit="10"/></g></g></svg>