<svg version="1.1" xmlns="http://www.w3.org/2000/svg" xmlns:xlink="http://www.w3.org/1999/xlink" width="716" height="332"><defs/><g><g transform="translate(-46,-174) scale(1,1)"><rect fill="#C0C0C0" stroke="none" x="167" y="191" width="592" height="312" opacity="0.2"/></g><g transform="translate(-46,-174) scale(1,1)"><rect fill="#ffffff" stroke="none" x="160" y="184" width="592" height="312"/></g><g transform="translate(-46,-174) scale(1,1)"><path fill="none" stroke="#000000" d="M 160 184 L 752 184 L 752 496 L 160 496 L 160 184 Z Z" stroke-miterlimit="10"/></g><g transform="translate(-46,-174) scale(1,1)"><g><path fill="none" stroke="none"/><text fill="#000000" stroke="none" font-family="Arial" font-size="13px" font-style="normal" font-weight="bold" text-decoration="none" x="417" y="203.5">票务查询系统</text></g></g><g transform="translate(-46,-174) scale(1,1)"><path fill="#ffffff" stroke="none" d="M 72.40935031960227 225.68 C 72.40935031960227 220.886167936 76.29519264454773 217 81.088623046875 217 C 85.88205344920227 217 89.76789577414773 220.886167936 89.76789577414773 225.68 C 89.76789577414773 230.47383206400002 85.88205344920227 234.36 81.088623046875 234.36 C 76.29519264454773 234.36 72.40935031960227 230.47383206400002 72.40935031960227 225.68 Z"/></g><g transform="translate(-46,-174) scale(1,1)"><path fill="none" stroke="#000000" d="M 72.40935031960227 225.68 C 72.40935031960227 220.886167936 76.29519264454773 217 81.088623046875 217 C 85.88205344920227 217 89.76789577414773 220.886167936 89.76789577414773 225.68 C 89.76789577414773 230.47383206400002 85.88205344920227 234.36 81.088623046875 234.36 C 76.29519264454773 234.36 72.40935031960227 230.47383206400002 72.40935031960227 225.68 Z" stroke-miterlimit="10"/></g><g transform="translate(-46,-174) scale(1,1)"><path fill="none" stroke="#000000" d="M 81.088623046875 234.36 L 81.088623046875 251.64" stroke-miterlimit="10"/></g><g transform="translate(-46,-174) scale(1,1)"><path fill="none" stroke="#000000" d="M 71.89880486505682 240.84 L 90.27844122869318 240.84" stroke-miterlimit="10"/></g><g transform="translate(-46,-174) scale(1,1)"><path fill="none" stroke="#000000" d="M 81.088623046875 251.64 L 68.32498668323863 269" stroke-miterlimit="10"/></g><g transform="translate(-46,-174) scale(1,1)"><path fill="none" stroke="#000000" d="M 81.088623046875 251.64 L 93.85225941051137 269" stroke-miterlimit="10"/></g><g transform="translate(-46,-174) scale(1,1)"><g><path fill="none" stroke="none"/><text fill="#000000" stroke="none" font-family="Arial" font-size="13px" font-style="normal" font-weight="bold" text-decoration="none" x="68.088623046875" y="289.5">游客</text></g></g><g transform="translate(-46,-174) scale(1,1)"><path fill="#C0C0C0" stroke="none" d="M 271 248 C 271 238.6111584 298.5344848 231 332.5 231 C 366.4655152 231 394 238.6111584 394 248 C 394 257.3888416 366.4655152 265 332.5 265 C 298.5344848 265 271 257.3888416 271 248 Z" opacity="0.2"/></g><g transform="translate(-46,-174) scale(1,1)"><path fill="#ffffff" stroke="none" d="M 264 241 C 264 231.6111584 291.5344848 224 325.5 224 C 359.4655152 224 387 231.6111584 387 241 C 387 250.3888416 359.4655152 258 325.5 258 C 291.5344848 258 264 250.3888416 264 241 Z"/></g><g transform="translate(-46,-174) scale(1,1)"><path fill="none" stroke="#000000" d="M 264 241 C 264 231.6111584 291.5344848 224 325.5 224 C 359.4655152 224 387 231.6111584 387 241 C 387 250.3888416 359.4655152 258 325.5 258 C 291.5344848 258 264 250.3888416 264 241 Z" stroke-miterlimit="10"/></g><g transform="translate(-46,-174) scale(1,1)"><g><path fill="none" stroke="none"/><text fill="#000000" stroke="none" font-family="Arial" font-size="13px" font-style="normal" font-weight="bold" text-decoration="none" x="286.5" y="248">浏览首页内容</text></g></g><g transform="translate(-46,-174) scale(1,1)"><path fill="#C0C0C0" stroke="none" d="M 295 344 C 295 334.6111584 322.5344848 327 356.5 327 C 390.4655152 327 418 334.6111584 418 344 C 418 353.3888416 390.4655152 361 356.5 361 C 322.5344848 361 295 353.3888416 295 344 Z" opacity="0.2"/></g><g transform="translate(-46,-174) scale(1,1)"><path fill="#ffffff" stroke="none" d="M 288 337 C 288 327.6111584 315.5344848 320 349.5 320 C 383.4655152 320 411 327.6111584 411 337 C 411 346.3888416 383.4655152 354 349.5 354 C 315.5344848 354 288 346.3888416 288 337 Z"/></g><g transform="translate(-46,-174) scale(1,1)"><path fill="none" stroke="#000000" d="M 288 337 C 288 327.6111584 315.5344848 320 349.5 320 C 383.4655152 320 411 327.6111584 411 337 C 411 346.3888416 383.4655152 354 349.5 354 C 315.5344848 354 288 346.3888416 288 337 Z" stroke-miterlimit="10"/></g><g transform="translate(-46,-174) scale(1,1)"><g><path fill="none" stroke="none"/><text fill="#000000" stroke="none" font-family="Arial" font-size="13px" font-style="normal" font-weight="bold" text-decoration="none" x="310.5" y="344">筛选浏览信息</text></g></g><g transform="translate(-46,-174) scale(1,1)"><path fill="#C0C0C0" stroke="none" d="M 479 272 C 479 262.6111584 506.5344848 255 540.5 255 C 574.4655152 255 602 262.6111584 602 272 C 602 281.3888416 574.4655152 289 540.5 289 C 506.5344848 289 479 281.3888416 479 272 Z" opacity="0.2"/></g><g transform="translate(-46,-174) scale(1,1)"><path fill="#ffffff" stroke="none" d="M 472 265 C 472 255.6111584 499.5344848 248 533.5 248 C 567.4655152 248 595 255.6111584 595 265 C 595 274.3888416 567.4655152 282 533.5 282 C 499.5344848 282 472 274.3888416 472 265 Z"/></g><g transform="translate(-46,-174) scale(1,1)"><path fill="none" stroke="#000000" d="M 472 265 C 472 255.6111584 499.5344848 248 533.5 248 C 567.4655152 248 595 255.6111584 595 265 C 595 274.3888416 567.4655152 282 533.5 282 C 499.5344848 282 472 274.3888416 472 265 Z" stroke-miterlimit="10"/></g><g transform="translate(-46,-174) scale(1,1)"><g><path fill="none" stroke="none"/><text fill="#000000" stroke="none" font-family="Arial" font-size="13px" font-style="normal" font-weight="bold" text-decoration="none" x="507.5" y="272">选择城市</text></g></g><g transform="translate(-46,-174) scale(1,1)"><path fill="#C0C0C0" stroke="none" d="M 479 392 C 479 382.6111584 509.4446336 375 547 375 C 584.5553664 375 615 382.6111584 615 392 C 615 401.3888416 584.5553664 409 547 409 C 509.4446336 409 479 401.3888416 479 392 Z" opacity="0.2"/></g><g transform="translate(-46,-174) scale(1,1)"><path fill="#ffffff" stroke="none" d="M 472 385 C 472 375.6111584 502.4446336 368 540 368 C 577.5553664 368 608 375.6111584 608 385 C 608 394.3888416 577.5553664 402 540 402 C 502.4446336 402 472 394.3888416 472 385 Z"/></g><g transform="translate(-46,-174) scale(1,1)"><path fill="none" stroke="#000000" d="M 472 385 C 472 375.6111584 502.4446336 368 540 368 C 577.5553664 368 608 375.6111584 608 385 C 608 394.3888416 577.5553664 402 540 402 C 502.4446336 402 472 394.3888416 472 385 Z" stroke-miterlimit="10"/></g><g transform="translate(-46,-174) scale(1,1)"><g><path fill="none" stroke="none"/><text fill="#000000" stroke="none" font-family="Arial" font-size="13px" font-style="normal" font-weight="bold" text-decoration="none" x="501" y="392">选择演出类型</text></g></g><g transform="translate(-46,-174) scale(1,1)"><path fill="#C0C0C0" stroke="none" d="M 255 440 C 255 430.6111584 277.6096176 423 305.5 423 C 333.3903824 423 356 430.6111584 356 440 C 356 449.3888416 333.3903824 457 305.5 457 C 277.6096176 457 255 449.3888416 255 440 Z" opacity="0.2"/></g><g transform="translate(-46,-174) scale(1,1)"><path fill="#ffffff" stroke="none" d="M 248 433 C 248 423.6111584 270.6096176 416 298.5 416 C 326.3903824 416 349 423.6111584 349 433 C 349 442.3888416 326.3903824 450 298.5 450 C 270.6096176 450 248 442.3888416 248 433 Z"/></g><g transform="translate(-46,-174) scale(1,1)"><path fill="none" stroke="#000000" d="M 248 433 C 248 423.6111584 270.6096176 416 298.5 416 C 326.3903824 416 349 423.6111584 349 433 C 349 442.3888416 326.3903824 450 298.5 450 C 270.6096176 450 248 442.3888416 248 433 Z" stroke-miterlimit="10"/></g><g transform="translate(-46,-174) scale(1,1)"><g><path fill="none" stroke="none"/><text fill="#000000" stroke="none" font-family="Arial" font-size="13px" font-style="normal" font-weight="bold" text-decoration="none" x="272.5" y="440">搜索演出</text></g></g><g transform="translate(-46,-174) scale(1,1)"><path fill="#ffffff" stroke="none" d="M 72.40935031960227 377.68 C 72.40935031960227 372.886167936 76.29519264454773 369 81.088623046875 369 C 85.88205344920227 369 89.76789577414773 372.886167936 89.76789577414773 377.68 C 89.76789577414773 382.473832064 85.88205344920227 386.36 81.088623046875 386.36 C 76.29519264454773 386.36 72.40935031960227 382.473832064 72.40935031960227 377.68 Z"/></g><g transform="translate(-46,-174) scale(1,1)"><path fill="none" stroke="#000000" d="M 72.40935031960227 377.68 C 72.40935031960227 372.886167936 76.29519264454773 369 81.088623046875 369 C 85.88205344920227 369 89.76789577414773 372.886167936 89.76789577414773 377.68 C 89.76789577414773 382.473832064 85.88205344920227 386.36 81.088623046875 386.36 C 76.29519264454773 386.36 72.40935031960227 382.473832064 72.40935031960227 377.68 Z" stroke-miterlimit="10"/></g><g transform="translate(-46,-174) scale(1,1)"><path fill="none" stroke="#000000" d="M 81.088623046875 386.36 L 81.088623046875 403.64" stroke-miterlimit="10"/></g><g transform="translate(-46,-174) scale(1,1)"><path fill="none" stroke="#000000" d="M 71.89880486505682 392.84 L 90.27844122869318 392.84" stroke-miterlimit="10"/></g><g transform="translate(-46,-174) scale(1,1)"><path fill="none" stroke="#000000" d="M 81.088623046875 403.64 L 68.32498668323863 421" stroke-miterlimit="10"/></g><g transform="translate(-46,-174) scale(1,1)"><path fill="none" stroke="#000000" d="M 81.088623046875 403.64 L 93.85225941051137 421" stroke-miterlimit="10"/></g><g transform="translate(-46,-174) scale(1,1)"><g><path fill="none" stroke="none"/><text fill="#000000" stroke="none" font-family="Arial" font-size="13px" font-style="normal" font-weight="bold" text-decoration="none" x="68.088623046875" y="441.5">用户</text></g></g><g transform="translate(-46,-174) scale(1,1)"><path fill="none" stroke="#000000" d="M 107 253 L 263 245" stroke-miterlimit="10"/></g><g transform="translate(-46,-174) scale(1,1)"><path fill="none" stroke="#000000" d="M 253.06625139956802 249.7244723243359 L 263 245 L 252.6350725839661 241.31648542009825" stroke-miterlimit="10"/></g><g transform="translate(-46,-174) scale(1,1)"><path fill="none" stroke="#000000" d="M 107 263 L 290 319" stroke-miterlimit="10"/></g><g transform="translate(-46,-174) scale(1,1)"><path fill="none" stroke="#000000" d="M 279.0503719896102 320.05149723446476 L 290 319 L 281.5139229574943 312.0009646072721" stroke-miterlimit="10"/></g><g transform="translate(-46,-174) scale(1,1)"><path fill="none" stroke="#000000" d="M 107 276 L 276 415" stroke-miterlimit="10"/></g><g transform="translate(-46,-174) scale(1,1)"><path fill="none" stroke="#000000" d="M 265.47710609077296 411.79551817368974 L 276 415 L 270.82510118865196 405.2932795295059" stroke-miterlimit="10"/></g><g transform="translate(-46,-174) scale(1,1)"><path fill="none" stroke="#000000" d="M 81 368 L 81 295" stroke-miterlimit="10"/></g><g transform="translate(-46,-174) scale(1,1)"><path fill="#FFFFFF" stroke="none" d="M 89.41903551203198 315.3253497152483 L 81 295 L 72.58096448796803 315.3253497152483"/></g><g transform="translate(-46,-174) scale(1,1)"><path fill="none" stroke="#000000" d="M 89.41903551203198 315.3253497152483 L 81 295 L 72.58096448796803 315.3253497152483 L 89.41903551203198 315.3253497152483" stroke-miterlimit="10"/></g><g transform="translate(-46,-174) scale(1,1)"><path fill="none" stroke="#000000" d="M 107 389 L 299 259" stroke-miterlimit="10"/></g><g transform="translate(-46,-174) scale(1,1)"><path fill="none" stroke="#000000" d="M 292.94491608750354 268.18346115648274 L 299 259 L 288.224721446308 261.2120967633324" stroke-miterlimit="10"/></g><g transform="translate(-46,-174) scale(1,1)"><path fill="none" stroke="#000000" d="M 107 400 L 287 353" stroke-miterlimit="10"/></g><g transform="translate(-46,-174) scale(1,1)"><path fill="none" stroke="#000000" d="M 278.23049619640227 359.6404670798585 L 287 353 L 276.1035050904208 351.4945436952488" stroke-miterlimit="10"/></g><g transform="translate(-46,-174) scale(1,1)"><path fill="none" stroke="#000000" d="M 107 410 L 247 427" stroke-miterlimit="10"/></g><g transform="translate(-46,-174) scale(1,1)"><path fill="none" stroke="#000000" d="M 236.4040020108835 429.95378174796963 L 247 427 L 237.4188588643223 421.5961370725911" stroke-miterlimit="10"/></g><g transform="translate(-46,-174) scale(1,1)"><path fill="none" stroke="#000000" d="M 395 319 L 487 283" stroke-miterlimit="10" stroke-dasharray="3"/></g><g transform="translate(-46,-174) scale(1,1)"><path fill="none" stroke="#000000" d="M 479.0700279444706 290.6233551142868 L 487 283 L 476.00213688821 282.7831890816207" stroke-miterlimit="10"/></g><g transform="translate(-46,-174) scale(1,1)"><g><path fill="none" stroke="none"/><text fill="#000000" stroke="none" font-family="Arial" font-size="13px" font-style="normal" font-weight="normal" text-decoration="none" x="402.5" y="279.5">«include»</text></g></g><g transform="translate(-46,-174) scale(1,1)"><path fill="none" stroke="#000000" d="M 412 353 L 471 368" stroke-miterlimit="10" stroke-dasharray="3"/></g><g transform="translate(-46,-174) scale(1,1)"><path fill="none" stroke="#000000" d="M 460.1134353006076 369.57566146298706 L 471 368 L 462.18787537190104 361.416197182566" stroke-miterlimit="10"/></g><g transform="translate(-46,-174) scale(1,1)"><g><path fill="none" stroke="none"/><text fill="#000000" stroke="none" font-family="Arial" font-size="13px" font-style="normal" font-weight="normal" text-decoration="none" x="420.5" y="337.5">«include»</text></g></g></g></svg>