<svg version="1.1" xmlns="http://www.w3.org/2000/svg" xmlns:xlink="http://www.w3.org/1999/xlink" width="752.3505859375" height="361"><defs/><g><g transform="translate(-86,-118) scale(1,1)"><rect fill="#C0C0C0" stroke="none" x="103" y="295" width="188.47998046875" height="160" opacity="0.2"/></g><g transform="translate(-86,-118) scale(1,1)"><rect fill="#ffffff" stroke="none" x="96" y="288" width="188.47998046875" height="160"/></g><g transform="translate(-86,-118) scale(1,1)"><path fill="none" stroke="#000000" d="M 96 288 L 284.47998046875 288 L 284.47998046875 448 L 96 448 L 96 288 Z Z" stroke-miterlimit="10"/></g><g transform="translate(-86,-118) scale(1,1)"><path fill="none" stroke="#000000" d="M 96 313 L 284.47998046875 313" stroke-miterlimit="10"/></g><g transform="translate(-86,-118) scale(1,1)"><path fill="none" stroke="#000000" d="M 96 411 L 284.47998046875 411" stroke-miterlimit="10"/></g><g transform="translate(-86,-118) scale(1,1)"><g><path fill="none" stroke="none"/><text fill="#000000" stroke="none" font-family="Arial" font-size="13px" font-style="normal" font-weight="bold" text-decoration="none" x="176.516357421875" y="307.5">User</text></g></g><g transform="translate(-86,-118) scale(1,1)"><g><path fill="none" stroke="none"/><text fill="#000000" stroke="none" font-family="Arial" font-size="13px" font-style="normal" font-weight="normal" text-decoration="none" x="101" y="330.5">#user_id: int</text></g></g><g transform="translate(-86,-118) scale(1,1)"><g><path fill="none" stroke="none"/><text fill="#000000" stroke="none" font-family="Arial" font-size="13px" font-style="normal" font-weight="normal" text-decoration="none" x="101" y="345.5">+user_name: varchar(255)</text></g></g><g transform="translate(-86,-118) scale(1,1)"><g><path fill="none" stroke="none"/><text fill="#000000" stroke="none" font-family="Arial" font-size="13px" font-style="normal" font-weight="normal" text-decoration="none" x="101" y="360.5">+user_type: tinyint(1)</text></g></g><g transform="translate(-86,-118) scale(1,1)"><g><path fill="none" stroke="none"/><text fill="#000000" stroke="none" font-family="Arial" font-size="13px" font-style="normal" font-weight="normal" text-decoration="none" x="101" y="375.5">#phone_number: varchar(11)</text></g></g><g transform="translate(-86,-118) scale(1,1)"><g><path fill="none" stroke="none"/><text fill="#000000" stroke="none" font-family="Arial" font-size="13px" font-style="normal" font-weight="normal" text-decoration="none" x="101" y="390.5">+city: 	varchar(255)</text></g></g><g transform="translate(-86,-118) scale(1,1)"><g><path fill="none" stroke="none"/><text fill="#000000" stroke="none" font-family="Arial" font-size="13px" font-style="normal" font-weight="normal" text-decoration="none" x="101" y="405.5">+credit: int</text></g></g><g transform="translate(-86,-118) scale(1,1)"><g><path fill="none" stroke="none"/><text fill="#000000" stroke="none" font-family="Arial" font-size="13px" font-style="normal" font-weight="normal" text-decoration="none" x="101" y="428.5">+selectShow()</text></g></g><g transform="translate(-86,-118) scale(1,1)"><rect fill="#C0C0C0" stroke="none" x="151" y="135" width="89.57080078125" height="65" opacity="0.2"/></g><g transform="translate(-86,-118) scale(1,1)"><rect fill="#ffffff" stroke="none" x="144" y="128" width="89.57080078125" height="65"/></g><g transform="translate(-86,-118) scale(1,1)"><path fill="none" stroke="#000000" d="M 144 128 L 233.57080078125 128 L 233.57080078125 193 L 144 193 L 144 128 Z Z" stroke-miterlimit="10"/></g><g transform="translate(-86,-118) scale(1,1)"><path fill="none" stroke="#000000" d="M 144 153 L 233.57080078125 153" stroke-miterlimit="10"/></g><g transform="translate(-86,-118) scale(1,1)"><path fill="none" stroke="#000000" d="M 144 163 L 233.57080078125 163" stroke-miterlimit="10"/></g><g transform="translate(-86,-118) scale(1,1)"><g><path fill="none" stroke="none"/><text fill="#000000" stroke="none" font-family="Arial" font-size="13px" font-style="normal" font-weight="bold" text-decoration="none" x="170.84375" y="147.5">Visitor</text></g></g><g transform="translate(-86,-118) scale(1,1)"><g><path fill="none" stroke="none"/><text fill="#000000" stroke="none" font-family="Arial" font-size="13px" font-style="normal" font-weight="normal" text-decoration="none" x="149" y="180.5">+register()</text></g></g><g transform="translate(-86,-118) scale(1,1)"><path fill="none" stroke="#000000" d="M 188 194 L 189 287" stroke-miterlimit="10"/></g><g transform="translate(-86,-118) scale(1,1)"><path fill="#FFFFFF" stroke="none" d="M 180.36291163744687 266.76634722504485 L 189 287 L 197.20000933447605 266.5853031637865"/></g><g transform="translate(-86,-118) scale(1,1)"><path fill="none" stroke="#000000" d="M 180.36291163744687 266.76634722504485 L 189 287 L 197.20000933447605 266.5853031637865 L 180.36291163744687 266.76634722504485" stroke-miterlimit="10"/></g><g transform="translate(-86,-118) scale(1,1)"><rect fill="#C0C0C0" stroke="none" x="399" y="271" width="172.3505859375" height="205" opacity="0.2"/></g><g transform="translate(-86,-118) scale(1,1)"><rect fill="#ffffff" stroke="none" x="392" y="264" width="172.3505859375" height="205"/></g><g transform="translate(-86,-118) scale(1,1)"><path fill="none" stroke="#000000" d="M 392 264 L 564.3505859375 264 L 564.3505859375 469 L 392 469 L 392 264 Z Z" stroke-miterlimit="10"/></g><g transform="translate(-86,-118) scale(1,1)"><path fill="none" stroke="#000000" d="M 392 289 L 564.3505859375 289" stroke-miterlimit="10"/></g><g transform="translate(-86,-118) scale(1,1)"><path fill="none" stroke="#000000" d="M 392 342 L 564.3505859375 342" stroke-miterlimit="10"/></g><g transform="translate(-86,-118) scale(1,1)"><g><path fill="none" stroke="none"/><text fill="#000000" stroke="none" font-family="Arial" font-size="13px" font-style="normal" font-weight="bold" text-decoration="none" x="461.915771484375" y="283.5">Show</text></g></g><g transform="translate(-86,-118) scale(1,1)"><g><path fill="none" stroke="none"/><text fill="#000000" stroke="none" font-family="Arial" font-size="13px" font-style="normal" font-weight="normal" text-decoration="none" x="397" y="306.5">+title: varchar(255)</text></g></g><g transform="translate(-86,-118) scale(1,1)"><g><path fill="none" stroke="none"/><text fill="#000000" stroke="none" font-family="Arial" font-size="13px" font-style="normal" font-weight="normal" text-decoration="none" x="397" y="321.5">+description: varchar(255)</text></g></g><g transform="translate(-86,-118) scale(1,1)"><g><path fill="none" stroke="none"/><text fill="#000000" stroke="none" font-family="Arial" font-size="13px" font-style="normal" font-weight="normal" text-decoration="none" x="397" y="336.5">+image_url: varchar(255)</text></g></g><g transform="translate(-86,-118) scale(1,1)"><g><path fill="none" stroke="none"/><text fill="#000000" stroke="none" font-family="Arial" font-size="13px" font-style="normal" font-weight="normal" text-decoration="none" x="397" y="359.5">+showInfo()</text></g></g><g transform="translate(-86,-118) scale(1,1)"><g><path fill="none" stroke="none"/><text fill="#000000" stroke="none" font-family="Arial" font-size="13px" font-style="normal" font-weight="normal" text-decoration="none" x="397" y="374.5">+chooseHis()</text></g></g><g transform="translate(-86,-118) scale(1,1)"><g><path fill="none" stroke="none"/><text fill="#000000" stroke="none" font-family="Arial" font-size="13px" font-style="normal" font-weight="normal" text-decoration="none" x="397" y="389.5">+choosePrice()</text></g></g><g transform="translate(-86,-118) scale(1,1)"><g><path fill="none" stroke="none"/><text fill="#000000" stroke="none" font-family="Arial" font-size="13px" font-style="normal" font-weight="normal" text-decoration="none" x="397" y="404.5">+chooseSeat()</text></g></g><g transform="translate(-86,-118) scale(1,1)"><g><path fill="none" stroke="none"/><text fill="#000000" stroke="none" font-family="Arial" font-size="13px" font-style="normal" font-weight="normal" text-decoration="none" x="397" y="419.5">+readAssignment()</text></g></g><g transform="translate(-86,-118) scale(1,1)"><g><path fill="none" stroke="none"/><text fill="#000000" stroke="none" font-family="Arial" font-size="13px" font-style="normal" font-weight="normal" text-decoration="none" x="397" y="434.5">+creditExam()</text></g></g><g transform="translate(-86,-118) scale(1,1)"><g><path fill="none" stroke="none"/><text fill="#000000" stroke="none" font-family="Arial" font-size="13px" font-style="normal" font-weight="normal" text-decoration="none" x="397" y="449.5">+pay()</text></g></g><g transform="translate(-86,-118) scale(1,1)"><g><path fill="none" stroke="none"/><text fill="#000000" stroke="none" font-family="Arial" font-size="13px" font-style="normal" font-weight="normal" text-decoration="none" x="397" y="464.5">+createOrder()</text></g></g><g transform="translate(-86,-118) scale(1,1)"><rect fill="#C0C0C0" stroke="none" x="663" y="287" width="172.3505859375" height="160" opacity="0.2"/></g><g transform="translate(-86,-118) scale(1,1)"><rect fill="#ffffff" stroke="none" x="656" y="280" width="172.3505859375" height="160"/></g><g transform="translate(-86,-118) scale(1,1)"><path fill="none" stroke="#000000" d="M 656 280 L 828.3505859375 280 L 828.3505859375 440 L 656 440 L 656 280 Z Z" stroke-miterlimit="10"/></g><g transform="translate(-86,-118) scale(1,1)"><path fill="none" stroke="#000000" d="M 656 305 L 828.3505859375 305" stroke-miterlimit="10"/></g><g transform="translate(-86,-118) scale(1,1)"><path fill="none" stroke="#000000" d="M 656 418 L 828.3505859375 418" stroke-miterlimit="10"/></g><g transform="translate(-86,-118) scale(1,1)"><g><path fill="none" stroke="none"/><text fill="#000000" stroke="none" font-family="Arial" font-size="13px" font-style="normal" font-weight="bold" text-decoration="none" x="712.198486328125" y="299.5">Histrionics</text></g></g><g transform="translate(-86,-118) scale(1,1)"><g><path fill="none" stroke="none"/><text fill="#000000" stroke="none" font-family="Arial" font-size="13px" font-style="normal" font-weight="normal" text-decoration="none" x="661" y="322.5">+description: varchar(255)</text></g></g><g transform="translate(-86,-118) scale(1,1)"><g><path fill="none" stroke="none"/><text fill="#000000" stroke="none" font-family="Arial" font-size="13px" font-style="normal" font-weight="normal" text-decoration="none" x="661" y="337.5">+detail_url: varchar(255)</text></g></g><g transform="translate(-86,-118) scale(1,1)"><g><path fill="none" stroke="none"/><text fill="#000000" stroke="none" font-family="Arial" font-size="13px" font-style="normal" font-weight="normal" text-decoration="none" x="661" y="352.5">+start_time: datetime</text></g></g><g transform="translate(-86,-118) scale(1,1)"><g><path fill="none" stroke="none"/><text fill="#000000" stroke="none" font-family="Arial" font-size="13px" font-style="normal" font-weight="normal" text-decoration="none" x="661" y="367.5">+duration: time</text></g></g><g transform="translate(-86,-118) scale(1,1)"><g><path fill="none" stroke="none"/><text fill="#000000" stroke="none" font-family="Arial" font-size="13px" font-style="normal" font-weight="normal" text-decoration="none" x="661" y="382.5">+location: varchar(255)</text></g></g><g transform="translate(-86,-118) scale(1,1)"><g><path fill="none" stroke="none"/><text fill="#000000" stroke="none" font-family="Arial" font-size="13px" font-style="normal" font-weight="normal" text-decoration="none" x="661" y="397.5">+price: int</text></g></g><g transform="translate(-86,-118) scale(1,1)"><g><path fill="none" stroke="none"/><text fill="#000000" stroke="none" font-family="Arial" font-size="13px" font-style="normal" font-weight="normal" text-decoration="none" x="661" y="412.5">+capacity: int</text></g></g><g transform="translate(-86,-118) scale(1,1)"><path fill="none" stroke="#000000" d="M 656 364 L 564 364" stroke-miterlimit="10" stroke-dasharray="3"/></g><g transform="translate(-86,-118) scale(1,1)"><path fill="none" stroke="#000000" d="M 574.1626748576241 359.790482243984 L 564 364 L 574.1626748576241 368.209517756016" stroke-miterlimit="10"/></g><g transform="translate(-86,-118) scale(1,1)"><path fill="none" stroke="#000000" d="M 285 367 L 391 367" stroke-miterlimit="10"/></g><g transform="translate(-86,-118) scale(1,1)"><g><path fill="none" stroke="none"/><text fill="#000000" stroke="none" font-family="Arial" font-size="13px" font-style="normal" font-weight="normal" text-decoration="none" x="302.69677734375" y="385.5">1</text></g></g><g transform="translate(-86,-118) scale(1,1)"><g><path fill="none" stroke="none"/><text fill="#000000" stroke="none" font-family="Arial" font-size="13px" font-style="normal" font-weight="normal" text-decoration="none" x="359.642822265625" y="385.5">0..*</text></g></g></g></svg>