<svg version="1.1" xmlns="http://www.w3.org/2000/svg" xmlns:xlink="http://www.w3.org/1999/xlink" width="492" height="399"><defs/><g><g transform="translate(-310,-1030) scale(1,1)"><rect fill="#C0C0C0" stroke="none" x="327" y="1055" width="169.24658203125" height="192" opacity="0.2"/></g><g transform="translate(-310,-1030) scale(1,1)"><rect fill="#ffffff" stroke="none" x="320" y="1048" width="169.24658203125" height="192"/></g><g transform="translate(-310,-1030) scale(1,1)"><path fill="none" stroke="#000000" d="M 320 1048 L 489.24658203125 1048 L 489.24658203125 1240 L 320 1240 L 320 1048 Z Z" stroke-miterlimit="10"/></g><g transform="translate(-310,-1030) scale(1,1)"><path fill="none" stroke="#000000" d="M 320 1073 L 489.24658203125 1073" stroke-miterlimit="10"/></g><g transform="translate(-310,-1030) scale(1,1)"><path fill="none" stroke="#000000" d="M 320 1186 L 489.24658203125 1186" stroke-miterlimit="10"/></g><g transform="translate(-310,-1030) scale(1,1)"><g><path fill="none" stroke="none"/><text fill="#000000" stroke="none" font-family="Arial" font-size="13px" font-style="normal" font-weight="bold" text-decoration="none" x="390.899658203125" y="1067.5">User</text></g></g><g transform="translate(-310,-1030) scale(1,1)"><g><path fill="none" stroke="none"/><text fill="#000000" stroke="none" font-family="Arial" font-size="13px" font-style="normal" font-weight="normal" text-decoration="none" x="325" y="1090.5">+id</text></g></g><g transform="translate(-310,-1030) scale(1,1)"><g><path fill="none" stroke="none"/><text fill="#000000" stroke="none" font-family="Arial" font-size="13px" font-style="normal" font-weight="normal" text-decoration="none" x="325" y="1105.5">+nickname</text></g></g><g transform="translate(-310,-1030) scale(1,1)"><g><path fill="none" stroke="none"/><text fill="#000000" stroke="none" font-family="Arial" font-size="13px" font-style="normal" font-weight="normal" text-decoration="none" x="325" y="1120.5">+phone</text></g></g><g transform="translate(-310,-1030) scale(1,1)"><g><path fill="none" stroke="none"/><text fill="#000000" stroke="none" font-family="Arial" font-size="13px" font-style="normal" font-weight="normal" text-decoration="none" x="325" y="1135.5">+city</text></g></g><g transform="translate(-310,-1030) scale(1,1)"><g><path fill="none" stroke="none"/><text fill="#000000" stroke="none" font-family="Arial" font-size="13px" font-style="normal" font-weight="normal" text-decoration="none" x="325" y="1150.5">+password</text></g></g><g transform="translate(-310,-1030) scale(1,1)"><g><path fill="none" stroke="none"/><text fill="#000000" stroke="none" font-family="Arial" font-size="13px" font-style="normal" font-weight="normal" text-decoration="none" x="325" y="1165.5">+creditscore</text></g></g><g transform="translate(-310,-1030) scale(1,1)"><g><path fill="none" stroke="none"/><text fill="#000000" stroke="none" font-family="Arial" font-size="13px" font-style="normal" font-weight="normal" text-decoration="none" x="325" y="1180.5">+headimage</text></g></g><g transform="translate(-310,-1030) scale(1,1)"><g><path fill="none" stroke="none"/><text fill="#000000" stroke="none" font-family="Arial" font-size="13px" font-style="normal" font-weight="normal" text-decoration="none" x="325" y="1203.5">+SetNickname(nickname)</text></g></g><g transform="translate(-310,-1030) scale(1,1)"><g><path fill="none" stroke="none"/><text fill="#000000" stroke="none" font-family="Arial" font-size="13px" font-style="normal" font-weight="normal" text-decoration="none" x="325" y="1218.5">+SetCity(city)</text></g></g><g transform="translate(-310,-1030) scale(1,1)"><g><path fill="none" stroke="none"/><text fill="#000000" stroke="none" font-family="Arial" font-size="13px" font-style="normal" font-weight="normal" text-decoration="none" x="325" y="1233.5">+SetHeadimage(image)</text></g></g><g transform="translate(-310,-1030) scale(1,1)"><rect fill="#C0C0C0" stroke="none" x="655" y="1047" width="144" height="115" opacity="0.2"/></g><g transform="translate(-310,-1030) scale(1,1)"><rect fill="#ffffff" stroke="none" x="648" y="1040" width="144" height="115"/></g><g transform="translate(-310,-1030) scale(1,1)"><path fill="none" stroke="#000000" d="M 648 1040 L 792 1040 L 792 1155 L 648 1155 L 648 1040 Z Z" stroke-miterlimit="10"/></g><g transform="translate(-310,-1030) scale(1,1)"><path fill="none" stroke="#000000" d="M 648 1065 L 792 1065" stroke-miterlimit="10"/></g><g transform="translate(-310,-1030) scale(1,1)"><path fill="none" stroke="#000000" d="M 648 1133 L 792 1133" stroke-miterlimit="10"/></g><g transform="translate(-310,-1030) scale(1,1)"><g><path fill="none" stroke="none"/><text fill="#000000" stroke="none" font-family="Arial" font-size="13px" font-style="normal" font-weight="bold" text-decoration="none" x="677.721435546875" y="1059.5">LoginMessage</text></g></g><g transform="translate(-310,-1030) scale(1,1)"><g><path fill="none" stroke="none"/><text fill="#000000" stroke="none" font-family="Arial" font-size="13px" font-style="normal" font-weight="normal" text-decoration="none" x="653" y="1082.5">+loginID</text></g></g><g transform="translate(-310,-1030) scale(1,1)"><g><path fill="none" stroke="none"/><text fill="#000000" stroke="none" font-family="Arial" font-size="13px" font-style="normal" font-weight="normal" text-decoration="none" x="653" y="1097.5">+password</text></g></g><g transform="translate(-310,-1030) scale(1,1)"><g><path fill="none" stroke="none"/><text fill="#000000" stroke="none" font-family="Arial" font-size="13px" font-style="normal" font-weight="normal" text-decoration="none" x="653" y="1112.5">+loginTime</text></g></g><g transform="translate(-310,-1030) scale(1,1)"><g><path fill="none" stroke="none"/><text fill="#000000" stroke="none" font-family="Arial" font-size="13px" font-style="normal" font-weight="normal" text-decoration="none" x="653" y="1127.5">+IP</text></g></g><g transform="translate(-310,-1030) scale(1,1)"><g><path fill="none" stroke="none"/><text fill="#000000" stroke="none" font-family="Arial" font-size="13px" font-style="normal" font-weight="normal" text-decoration="none" x="653" y="1150.5">+Login()</text></g></g><g transform="translate(-310,-1030) scale(1,1)"><rect fill="#C0C0C0" stroke="none" x="335" y="1311" width="152" height="115" opacity="0.2"/></g><g transform="translate(-310,-1030) scale(1,1)"><rect fill="#ffffff" stroke="none" x="328" y="1304" width="152" height="115"/></g><g transform="translate(-310,-1030) scale(1,1)"><path fill="none" stroke="#000000" d="M 328 1304 L 480 1304 L 480 1419 L 328 1419 L 328 1304 Z Z" stroke-miterlimit="10"/></g><g transform="translate(-310,-1030) scale(1,1)"><path fill="none" stroke="#000000" d="M 328 1329 L 480 1329" stroke-miterlimit="10"/></g><g transform="translate(-310,-1030) scale(1,1)"><path fill="none" stroke="#000000" d="M 328 1382 L 480 1382" stroke-miterlimit="10"/></g><g transform="translate(-310,-1030) scale(1,1)"><g><path fill="none" stroke="none"/><text fill="#000000" stroke="none" font-family="Arial" font-size="13px" font-style="normal" font-weight="bold" text-decoration="none" x="365.7109375" y="1323.5">Administrator</text></g></g><g transform="translate(-310,-1030) scale(1,1)"><g><path fill="none" stroke="none"/><text fill="#000000" stroke="none" font-family="Arial" font-size="13px" font-style="normal" font-weight="normal" text-decoration="none" x="333" y="1346.5">+id</text></g></g><g transform="translate(-310,-1030) scale(1,1)"><g><path fill="none" stroke="none"/><text fill="#000000" stroke="none" font-family="Arial" font-size="13px" font-style="normal" font-weight="normal" text-decoration="none" x="333" y="1361.5">+secondpwd</text></g></g><g transform="translate(-310,-1030) scale(1,1)"><g><path fill="none" stroke="none"/><text fill="#000000" stroke="none" font-family="Arial" font-size="13px" font-style="normal" font-weight="normal" text-decoration="none" x="333" y="1376.5">+position</text></g></g><g transform="translate(-310,-1030) scale(1,1)"><g><path fill="none" stroke="none"/><text fill="#000000" stroke="none" font-family="Arial" font-size="13px" font-style="normal" font-weight="normal" text-decoration="none" x="333" y="1399.5">+SetUp()</text></g></g><g transform="translate(-310,-1030) scale(1,1)"><path fill="none" stroke="#000000" d="M 404 1304 L 404 1240" stroke-miterlimit="10"/></g><g transform="translate(-310,-1030) scale(1,1)"><path fill="#FFFFFF" stroke="none" d="M 412.419035512032 1260.3253497152482 L 404 1240 L 395.580964487968 1260.3253497152482"/></g><g transform="translate(-310,-1030) scale(1,1)"><path fill="none" stroke="#000000" d="M 412.419035512032 1260.3253497152482 L 404 1240 L 395.580964487968 1260.3253497152482 L 412.419035512032 1260.3253497152482" stroke-miterlimit="10"/></g><g transform="translate(-310,-1030) scale(1,1)"><path fill="none" stroke="#000000" d="M 648 1088 L 489 1088" stroke-miterlimit="10"/></g><g transform="translate(-310,-1030) scale(1,1)"><g><path fill="none" stroke="none"/><text fill="#000000" stroke="none" font-family="Arial" font-size="13px" font-style="normal" font-weight="normal" text-decoration="none" x="616.5" y="1081.5">1..*</text></g></g><g transform="translate(-310,-1030) scale(1,1)"><g><path fill="none" stroke="none"/><text fill="#000000" stroke="none" font-family="Arial" font-size="13px" font-style="normal" font-weight="normal" text-decoration="none" x="506.641357421875" y="1081.5">1</text></g></g><g transform="translate(-310,-1030) scale(1,1)"><rect fill="#C0C0C0" stroke="none" x="655" y="1191" width="144" height="115" opacity="0.2"/></g><g transform="translate(-310,-1030) scale(1,1)"><rect fill="#ffffff" stroke="none" x="648" y="1184" width="144" height="115"/></g><g transform="translate(-310,-1030) scale(1,1)"><path fill="none" stroke="#000000" d="M 648 1184 L 792 1184 L 792 1299 L 648 1299 L 648 1184 Z Z" stroke-miterlimit="10"/></g><g transform="translate(-310,-1030) scale(1,1)"><path fill="none" stroke="#000000" d="M 648 1209 L 792 1209" stroke-miterlimit="10"/></g><g transform="translate(-310,-1030) scale(1,1)"><path fill="none" stroke="#000000" d="M 648 1262 L 792 1262" stroke-miterlimit="10"/></g><g transform="translate(-310,-1030) scale(1,1)"><g><path fill="none" stroke="none"/><text fill="#000000" stroke="none" font-family="Arial" font-size="13px" font-style="normal" font-weight="bold" text-decoration="none" x="669.421875" y="1203.5">RegisterMessage</text></g></g><g transform="translate(-310,-1030) scale(1,1)"><g><path fill="none" stroke="none"/><text fill="#000000" stroke="none" font-family="Arial" font-size="13px" font-style="normal" font-weight="normal" text-decoration="none" x="653" y="1226.5">+RegisterInfo</text></g></g><g transform="translate(-310,-1030) scale(1,1)"><g><path fill="none" stroke="none"/><text fill="#000000" stroke="none" font-family="Arial" font-size="13px" font-style="normal" font-weight="normal" text-decoration="none" x="653" y="1241.5">+RegisterTime</text></g></g><g transform="translate(-310,-1030) scale(1,1)"><g><path fill="none" stroke="none"/><text fill="#000000" stroke="none" font-family="Arial" font-size="13px" font-style="normal" font-weight="normal" text-decoration="none" x="653" y="1256.5">+IP</text></g></g><g transform="translate(-310,-1030) scale(1,1)"><g><path fill="none" stroke="none"/><text fill="#000000" stroke="none" font-family="Arial" font-size="13px" font-style="normal" font-weight="normal" text-decoration="none" x="653" y="1279.5">+AuthenticateInfo()</text></g></g><g transform="translate(-310,-1030) scale(1,1)"><g><path fill="none" stroke="none"/><text fill="#000000" stroke="none" font-family="Arial" font-size="13px" font-style="normal" font-weight="normal" text-decoration="none" x="653" y="1294.5">+Register()</text></g></g><g transform="translate(-310,-1030) scale(1,1)"><path fill="none" stroke="#000000" d="M 647 1219 L 490 1170" stroke-miterlimit="10"/></g><g transform="translate(-310,-1030) scale(1,1)"><g><path fill="none" stroke="none"/><text fill="#000000" stroke="none" font-family="Arial" font-size="13px" font-style="normal" font-weight="normal" text-decoration="none" x="626.641357421875" y="1206.5">1</text></g></g><g transform="translate(-310,-1030) scale(1,1)"><g><path fill="none" stroke="none"/><text fill="#000000" stroke="none" font-family="Arial" font-size="13px" font-style="normal" font-weight="normal" text-decoration="none" x="510.5" y="1170.5">1</text></g></g></g></svg>