<svg version="1.1" xmlns="http://www.w3.org/2000/svg" xmlns:xlink="http://www.w3.org/1999/xlink" width="1067.6689453125" height="865"><defs/><g><g transform="translate(-94,-150) scale(1,1)"><rect fill="#C0C0C0" stroke="none" x="383" y="623" width="169.24658203125" height="250" opacity="0.2"/></g><g transform="translate(-94,-150) scale(1,1)"><rect fill="#ffffff" stroke="none" x="376" y="616" width="169.24658203125" height="250"/></g><g transform="translate(-94,-150) scale(1,1)"><path fill="none" stroke="#000000" d="M 376 616 L 545.24658203125 616 L 545.24658203125 866 L 376 866 L 376 616 Z Z" stroke-miterlimit="10"/></g><g transform="translate(-94,-150) scale(1,1)"><path fill="none" stroke="#000000" d="M 376 641 L 545.24658203125 641" stroke-miterlimit="10"/></g><g transform="translate(-94,-150) scale(1,1)"><path fill="none" stroke="#000000" d="M 376 769 L 545.24658203125 769" stroke-miterlimit="10"/></g><g transform="translate(-94,-150) scale(1,1)"><g><path fill="none" stroke="none"/><text fill="#000000" stroke="none" font-family="Arial" font-size="13px" font-style="normal" font-weight="bold" text-decoration="none" x="446.899658203125" y="635.5">User</text></g></g><g transform="translate(-94,-150) scale(1,1)"><g><path fill="none" stroke="none"/><text fill="#000000" stroke="none" font-family="Arial" font-size="13px" font-style="normal" font-weight="normal" text-decoration="none" x="381" y="658.5">+id</text></g></g><g transform="translate(-94,-150) scale(1,1)"><g><path fill="none" stroke="none"/><text fill="#000000" stroke="none" font-family="Arial" font-size="13px" font-style="normal" font-weight="normal" text-decoration="none" x="381" y="673.5">+nickname</text></g></g><g transform="translate(-94,-150) scale(1,1)"><g><path fill="none" stroke="none"/><text fill="#000000" stroke="none" font-family="Arial" font-size="13px" font-style="normal" font-weight="normal" text-decoration="none" x="381" y="688.5">+realname</text></g></g><g transform="translate(-94,-150) scale(1,1)"><g><path fill="none" stroke="none"/><text fill="#000000" stroke="none" font-family="Arial" font-size="13px" font-style="normal" font-weight="normal" text-decoration="none" x="381" y="703.5">+phone</text></g></g><g transform="translate(-94,-150) scale(1,1)"><g><path fill="none" stroke="none"/><text fill="#000000" stroke="none" font-family="Arial" font-size="13px" font-style="normal" font-weight="normal" text-decoration="none" x="381" y="718.5">+city</text></g></g><g transform="translate(-94,-150) scale(1,1)"><g><path fill="none" stroke="none"/><text fill="#000000" stroke="none" font-family="Arial" font-size="13px" font-style="normal" font-weight="normal" text-decoration="none" x="381" y="733.5">+password</text></g></g><g transform="translate(-94,-150) scale(1,1)"><g><path fill="none" stroke="none"/><text fill="#000000" stroke="none" font-family="Arial" font-size="13px" font-style="normal" font-weight="normal" text-decoration="none" x="381" y="748.5">+creditscore</text></g></g><g transform="translate(-94,-150) scale(1,1)"><g><path fill="none" stroke="none"/><text fill="#000000" stroke="none" font-family="Arial" font-size="13px" font-style="normal" font-weight="normal" text-decoration="none" x="381" y="763.5">+headimage</text></g></g><g transform="translate(-94,-150) scale(1,1)"><g><path fill="none" stroke="none"/><text fill="#000000" stroke="none" font-family="Arial" font-size="13px" font-style="normal" font-weight="normal" text-decoration="none" x="381" y="786.5">+SetNickname(nickname)</text></g></g><g transform="translate(-94,-150) scale(1,1)"><g><path fill="none" stroke="none"/><text fill="#000000" stroke="none" font-family="Arial" font-size="13px" font-style="normal" font-weight="normal" text-decoration="none" x="381" y="801.5">+SetCity(city)</text></g></g><g transform="translate(-94,-150) scale(1,1)"><g><path fill="none" stroke="none"/><text fill="#000000" stroke="none" font-family="Arial" font-size="13px" font-style="normal" font-weight="normal" text-decoration="none" x="381" y="816.5">+SetHeadimage(image)</text></g></g><g transform="translate(-94,-150) scale(1,1)"><g><path fill="none" stroke="none"/><text fill="#000000" stroke="none" font-family="Arial" font-size="13px" font-style="normal" font-weight="normal" text-decoration="none" x="381" y="831.5">+AddViewer(viewer)</text></g></g><g transform="translate(-94,-150) scale(1,1)"><g><path fill="none" stroke="none"/><text fill="#000000" stroke="none" font-family="Arial" font-size="13px" font-style="normal" font-weight="normal" text-decoration="none" x="381" y="846.5">+DeleteViewer(id)</text></g></g><g transform="translate(-94,-150) scale(1,1)"><g><path fill="none" stroke="none"/><text fill="#000000" stroke="none" font-family="Arial" font-size="13px" font-style="normal" font-weight="normal" text-decoration="none" x="381" y="861.5">+AddOrder(order)</text></g></g><g transform="translate(-94,-150) scale(1,1)"><rect fill="#C0C0C0" stroke="none" x="111" y="671" width="152" height="72" opacity="0.2"/></g><g transform="translate(-94,-150) scale(1,1)"><rect fill="#ffffff" stroke="none" x="104" y="664" width="152" height="72"/></g><g transform="translate(-94,-150) scale(1,1)"><path fill="none" stroke="#000000" d="M 104 664 L 256 664 L 256 736 L 104 736 L 104 664 Z Z" stroke-miterlimit="10"/></g><g transform="translate(-94,-150) scale(1,1)"><path fill="none" stroke="#000000" d="M 104 689 L 256 689" stroke-miterlimit="10"/></g><g transform="translate(-94,-150) scale(1,1)"><path fill="none" stroke="#000000" d="M 104 727 L 256 727" stroke-miterlimit="10"/></g><g transform="translate(-94,-150) scale(1,1)"><g><path fill="none" stroke="none"/><text fill="#000000" stroke="none" font-family="Arial" font-size="13px" font-style="normal" font-weight="bold" text-decoration="none" x="160.249267578125" y="683.5">Viewer</text></g></g><g transform="translate(-94,-150) scale(1,1)"><g><path fill="none" stroke="none"/><text fill="#000000" stroke="none" font-family="Arial" font-size="13px" font-style="normal" font-weight="normal" text-decoration="none" x="109" y="706.5">+id</text></g></g><g transform="translate(-94,-150) scale(1,1)"><g><path fill="none" stroke="none"/><text fill="#000000" stroke="none" font-family="Arial" font-size="13px" font-style="normal" font-weight="normal" text-decoration="none" x="109" y="721.5">+realname</text></g></g><g transform="translate(-94,-150) scale(1,1)"><rect fill="#C0C0C0" stroke="none" x="639" y="807" width="151" height="205" opacity="0.2"/></g><g transform="translate(-94,-150) scale(1,1)"><rect fill="#ffffff" stroke="none" x="632" y="800" width="151" height="205"/></g><g transform="translate(-94,-150) scale(1,1)"><path fill="none" stroke="#000000" d="M 632 800 L 783 800 L 783 1005 L 632 1005 L 632 800 Z Z" stroke-miterlimit="10"/></g><g transform="translate(-94,-150) scale(1,1)"><path fill="none" stroke="#000000" d="M 632 825 L 783 825" stroke-miterlimit="10"/></g><g transform="translate(-94,-150) scale(1,1)"><path fill="none" stroke="#000000" d="M 632 968 L 783 968" stroke-miterlimit="10"/></g><g transform="translate(-94,-150) scale(1,1)"><g><path fill="none" stroke="none"/><text fill="#000000" stroke="none" font-family="Arial" font-size="13px" font-style="normal" font-weight="bold" text-decoration="none" x="690.885009765625" y="819.5">Order</text></g></g><g transform="translate(-94,-150) scale(1,1)"><g><path fill="none" stroke="none"/><text fill="#000000" stroke="none" font-family="Arial" font-size="13px" font-style="normal" font-weight="normal" text-decoration="none" x="637" y="842.5">+id</text></g></g><g transform="translate(-94,-150) scale(1,1)"><g><path fill="none" stroke="none"/><text fill="#000000" stroke="none" font-family="Arial" font-size="13px" font-style="normal" font-weight="normal" text-decoration="none" x="637" y="857.5">+buyer</text></g></g><g transform="translate(-94,-150) scale(1,1)"><g><path fill="none" stroke="none"/><text fill="#000000" stroke="none" font-family="Arial" font-size="13px" font-style="normal" font-weight="normal" text-decoration="none" x="637" y="872.5">+viewer</text></g></g><g transform="translate(-94,-150) scale(1,1)"><g><path fill="none" stroke="none"/><text fill="#000000" stroke="none" font-family="Arial" font-size="13px" font-style="normal" font-weight="normal" text-decoration="none" x="637" y="887.5">+boughttime</text></g></g><g transform="translate(-94,-150) scale(1,1)"><g><path fill="none" stroke="none"/><text fill="#000000" stroke="none" font-family="Arial" font-size="13px" font-style="normal" font-weight="normal" text-decoration="none" x="637" y="902.5">+starttime</text></g></g><g transform="translate(-94,-150) scale(1,1)"><g><path fill="none" stroke="none"/><text fill="#000000" stroke="none" font-family="Arial" font-size="13px" font-style="normal" font-weight="normal" text-decoration="none" x="637" y="917.5">+endtime</text></g></g><g transform="translate(-94,-150) scale(1,1)"><g><path fill="none" stroke="none"/><text fill="#000000" stroke="none" font-family="Arial" font-size="13px" font-style="normal" font-weight="normal" text-decoration="none" x="637" y="932.5">+cost</text></g></g><g transform="translate(-94,-150) scale(1,1)"><g><path fill="none" stroke="none"/><text fill="#000000" stroke="none" font-family="Arial" font-size="13px" font-style="normal" font-weight="normal" text-decoration="none" x="637" y="947.5">+city</text></g></g><g transform="translate(-94,-150) scale(1,1)"><g><path fill="none" stroke="none"/><text fill="#000000" stroke="none" font-family="Arial" font-size="13px" font-style="normal" font-weight="normal" text-decoration="none" x="637" y="962.5">+state</text></g></g><g transform="translate(-94,-150) scale(1,1)"><g><path fill="none" stroke="none"/><text fill="#000000" stroke="none" font-family="Arial" font-size="13px" font-style="normal" font-weight="normal" text-decoration="none" x="637" y="985.5">+GetState()</text></g></g><g transform="translate(-94,-150) scale(1,1)"><g><path fill="none" stroke="none"/><text fill="#000000" stroke="none" font-family="Arial" font-size="13px" font-style="normal" font-weight="normal" text-decoration="none" x="637" y="1000.5">+ChangeState(state)</text></g></g><g transform="translate(-94,-150) scale(1,1)"><path fill="none" stroke="#000000" d="M 256 704 L 376 704" stroke-miterlimit="10"/></g><g transform="translate(-94,-150) scale(1,1)"><path fill="none" stroke="#000000" d="M 632 920 L 408 920 L 408 866" stroke-miterlimit="10"/></g><g transform="translate(-94,-150) scale(1,1)"><g><path fill="none" stroke="none"/><text fill="#000000" stroke="none" font-family="Arial" font-size="13px" font-style="normal" font-weight="normal" text-decoration="none" x="357" y="698">1</text></g></g><g transform="translate(-94,-150) scale(1,1)"><g><path fill="none" stroke="none"/><text fill="#000000" stroke="none" font-family="Arial" font-size="13px" font-style="normal" font-weight="normal" text-decoration="none" x="261" y="698">1..*</text></g></g><g transform="translate(-94,-150) scale(1,1)"><g><path fill="none" stroke="none"/><text fill="#000000" stroke="none" font-family="Arial" font-size="13px" font-style="normal" font-weight="normal" text-decoration="none" x="413" y="890">1</text></g></g><g transform="translate(-94,-150) scale(1,1)"><g><path fill="none" stroke="none"/><text fill="#000000" stroke="none" font-family="Arial" font-size="13px" font-style="normal" font-weight="normal" text-decoration="none" x="589" y="914">0..*</text></g></g><g transform="translate(-94,-150) scale(1,1)"><rect fill="#C0C0C0" stroke="none" x="495" y="167" width="191" height="220" opacity="0.2"/></g><g transform="translate(-94,-150) scale(1,1)"><rect fill="#ffffff" stroke="none" x="488" y="160" width="191" height="220"/></g><g transform="translate(-94,-150) scale(1,1)"><path fill="none" stroke="#000000" d="M 488 160 L 679 160 L 679 380 L 488 380 L 488 160 Z Z" stroke-miterlimit="10"/></g><g transform="translate(-94,-150) scale(1,1)"><path fill="none" stroke="#000000" d="M 488 185 L 679 185" stroke-miterlimit="10"/></g><g transform="translate(-94,-150) scale(1,1)"><path fill="none" stroke="#000000" d="M 488 283 L 679 283" stroke-miterlimit="10"/></g><g transform="translate(-94,-150) scale(1,1)"><g><path fill="none" stroke="none"/><text fill="#000000" stroke="none" font-family="Arial" font-size="13px" font-style="normal" font-weight="bold" text-decoration="none" x="567.240478515625" y="179.5">Show</text></g></g><g transform="translate(-94,-150) scale(1,1)"><g><path fill="none" stroke="none"/><text fill="#000000" stroke="none" font-family="Arial" font-size="13px" font-style="normal" font-weight="normal" text-decoration="none" x="493" y="202.5">+id</text></g></g><g transform="translate(-94,-150) scale(1,1)"><g><path fill="none" stroke="none"/><text fill="#000000" stroke="none" font-family="Arial" font-size="13px" font-style="normal" font-weight="normal" text-decoration="none" x="493" y="217.5">+theater</text></g></g><g transform="translate(-94,-150) scale(1,1)"><g><path fill="none" stroke="none"/><text fill="#000000" stroke="none" font-family="Arial" font-size="13px" font-style="normal" font-weight="normal" text-decoration="none" x="493" y="232.5">+begintime</text></g></g><g transform="translate(-94,-150) scale(1,1)"><g><path fill="none" stroke="none"/><text fill="#000000" stroke="none" font-family="Arial" font-size="13px" font-style="normal" font-weight="normal" text-decoration="none" x="493" y="247.5">+endtime</text></g></g><g transform="translate(-94,-150) scale(1,1)"><g><path fill="none" stroke="none"/><text fill="#000000" stroke="none" font-family="Arial" font-size="13px" font-style="normal" font-weight="normal" text-decoration="none" x="493" y="262.5">+actorlist</text></g></g><g transform="translate(-94,-150) scale(1,1)"><g><path fill="none" stroke="none"/><text fill="#000000" stroke="none" font-family="Arial" font-size="13px" font-style="normal" font-weight="normal" text-decoration="none" x="493" y="277.5">+state</text></g></g><g transform="translate(-94,-150) scale(1,1)"><g><path fill="none" stroke="none"/><text fill="#000000" stroke="none" font-family="Arial" font-size="13px" font-style="normal" font-weight="normal" text-decoration="none" x="493" y="300.5">+SetTheater(theater)</text></g></g><g transform="translate(-94,-150) scale(1,1)"><g><path fill="none" stroke="none"/><text fill="#000000" stroke="none" font-family="Arial" font-size="13px" font-style="normal" font-weight="normal" text-decoration="none" x="493" y="315.5">+SetBeginTime(begintime)</text></g></g><g transform="translate(-94,-150) scale(1,1)"><g><path fill="none" stroke="none"/><text fill="#000000" stroke="none" font-family="Arial" font-size="13px" font-style="normal" font-weight="normal" text-decoration="none" x="493" y="330.5">+SetEndTime(endTime)</text></g></g><g transform="translate(-94,-150) scale(1,1)"><g><path fill="none" stroke="none"/><text fill="#000000" stroke="none" font-family="Arial" font-size="13px" font-style="normal" font-weight="normal" text-decoration="none" x="493" y="345.5">+SetActorList(actorlist)</text></g></g><g transform="translate(-94,-150) scale(1,1)"><g><path fill="none" stroke="none"/><text fill="#000000" stroke="none" font-family="Arial" font-size="13px" font-style="normal" font-weight="normal" text-decoration="none" x="493" y="360.5">+SetState(state)</text></g></g><g transform="translate(-94,-150) scale(1,1)"><rect fill="#C0C0C0" stroke="none" x="767" y="167" width="152" height="112" opacity="0.2"/></g><g transform="translate(-94,-150) scale(1,1)"><rect fill="#ffffff" stroke="none" x="760" y="160" width="152" height="112"/></g><g transform="translate(-94,-150) scale(1,1)"><path fill="none" stroke="#000000" d="M 760 160 L 912 160 L 912 272 L 760 272 L 760 160 Z Z" stroke-miterlimit="10"/></g><g transform="translate(-94,-150) scale(1,1)"><path fill="none" stroke="#000000" d="M 760 185 L 912 185" stroke-miterlimit="10"/></g><g transform="translate(-94,-150) scale(1,1)"><path fill="none" stroke="#000000" d="M 760 253 L 912 253" stroke-miterlimit="10"/></g><g transform="translate(-94,-150) scale(1,1)"><g><path fill="none" stroke="none"/><text fill="#000000" stroke="none" font-family="Arial" font-size="13px" font-style="normal" font-weight="bold" text-decoration="none" x="813.59912109375" y="179.5">Theater</text></g></g><g transform="translate(-94,-150) scale(1,1)"><g><path fill="none" stroke="none"/><text fill="#000000" stroke="none" font-family="Arial" font-size="13px" font-style="normal" font-weight="normal" text-decoration="none" x="765" y="202.5">+id</text></g></g><g transform="translate(-94,-150) scale(1,1)"><g><path fill="none" stroke="none"/><text fill="#000000" stroke="none" font-family="Arial" font-size="13px" font-style="normal" font-weight="normal" text-decoration="none" x="765" y="217.5">+theatername</text></g></g><g transform="translate(-94,-150) scale(1,1)"><g><path fill="none" stroke="none"/><text fill="#000000" stroke="none" font-family="Arial" font-size="13px" font-style="normal" font-weight="normal" text-decoration="none" x="765" y="232.5">+city</text></g></g><g transform="translate(-94,-150) scale(1,1)"><g><path fill="none" stroke="none"/><text fill="#000000" stroke="none" font-family="Arial" font-size="13px" font-style="normal" font-weight="normal" text-decoration="none" x="765" y="247.5">+position</text></g></g><g transform="translate(-94,-150) scale(1,1)"><rect fill="#C0C0C0" stroke="none" x="231" y="199" width="191" height="152" opacity="0.2"/></g><g transform="translate(-94,-150) scale(1,1)"><rect fill="#ffffff" stroke="none" x="224" y="192" width="191" height="152"/></g><g transform="translate(-94,-150) scale(1,1)"><path fill="none" stroke="#000000" d="M 224 192 L 415 192 L 415 344 L 224 344 L 224 192 Z Z" stroke-miterlimit="10"/></g><g transform="translate(-94,-150) scale(1,1)"><path fill="none" stroke="#000000" d="M 224 217 L 415 217" stroke-miterlimit="10"/></g><g transform="translate(-94,-150) scale(1,1)"><path fill="none" stroke="#000000" d="M 224 285 L 415 285" stroke-miterlimit="10"/></g><g transform="translate(-94,-150) scale(1,1)"><g><path fill="none" stroke="none"/><text fill="#000000" stroke="none" font-family="Arial" font-size="13px" font-style="normal" font-weight="bold" text-decoration="none" x="285.53369140625" y="211.5">Introduction</text></g></g><g transform="translate(-94,-150) scale(1,1)"><g><path fill="none" stroke="none"/><text fill="#000000" stroke="none" font-family="Arial" font-size="13px" font-style="normal" font-weight="normal" text-decoration="none" x="229" y="234.5">+id</text></g></g><g transform="translate(-94,-150) scale(1,1)"><g><path fill="none" stroke="none"/><text fill="#000000" stroke="none" font-family="Arial" font-size="13px" font-style="normal" font-weight="normal" text-decoration="none" x="229" y="249.5">+showid</text></g></g><g transform="translate(-94,-150) scale(1,1)"><g><path fill="none" stroke="none"/><text fill="#000000" stroke="none" font-family="Arial" font-size="13px" font-style="normal" font-weight="normal" text-decoration="none" x="229" y="264.5">+content</text></g></g><g transform="translate(-94,-150) scale(1,1)"><g><path fill="none" stroke="none"/><text fill="#000000" stroke="none" font-family="Arial" font-size="13px" font-style="normal" font-weight="normal" text-decoration="none" x="229" y="279.5">+ImageList</text></g></g><g transform="translate(-94,-150) scale(1,1)"><g><path fill="none" stroke="none"/><text fill="#000000" stroke="none" font-family="Arial" font-size="13px" font-style="normal" font-weight="normal" text-decoration="none" x="229" y="302.5">+SetShowid(showid)</text></g></g><g transform="translate(-94,-150) scale(1,1)"><g><path fill="none" stroke="none"/><text fill="#000000" stroke="none" font-family="Arial" font-size="13px" font-style="normal" font-weight="normal" text-decoration="none" x="229" y="317.5">+SetContent(content)</text></g></g><g transform="translate(-94,-150) scale(1,1)"><g><path fill="none" stroke="none"/><text fill="#000000" stroke="none" font-family="Arial" font-size="13px" font-style="normal" font-weight="normal" text-decoration="none" x="229" y="332.5">+SetImagelist(imagelist)</text></g></g><g transform="translate(-94,-150) scale(1,1)"><rect fill="#C0C0C0" stroke="none" x="767" y="319" width="152" height="104" opacity="0.2"/></g><g transform="translate(-94,-150) scale(1,1)"><rect fill="#ffffff" stroke="none" x="760" y="312" width="152" height="104"/></g><g transform="translate(-94,-150) scale(1,1)"><path fill="none" stroke="#000000" d="M 760 312 L 912 312 L 912 416 L 760 416 L 760 312 Z Z" stroke-miterlimit="10"/></g><g transform="translate(-94,-150) scale(1,1)"><path fill="none" stroke="#000000" d="M 760 337 L 912 337" stroke-miterlimit="10"/></g><g transform="translate(-94,-150) scale(1,1)"><path fill="none" stroke="#000000" d="M 760 405 L 912 405" stroke-miterlimit="10"/></g><g transform="translate(-94,-150) scale(1,1)"><g><path fill="none" stroke="none"/><text fill="#000000" stroke="none" font-family="Arial" font-size="13px" font-style="normal" font-weight="bold" text-decoration="none" x="820.8291015625" y="331.5">Actor</text></g></g><g transform="translate(-94,-150) scale(1,1)"><g><path fill="none" stroke="none"/><text fill="#000000" stroke="none" font-family="Arial" font-size="13px" font-style="normal" font-weight="normal" text-decoration="none" x="765" y="354.5">+id</text></g></g><g transform="translate(-94,-150) scale(1,1)"><g><path fill="none" stroke="none"/><text fill="#000000" stroke="none" font-family="Arial" font-size="13px" font-style="normal" font-weight="normal" text-decoration="none" x="765" y="369.5">+name</text></g></g><g transform="translate(-94,-150) scale(1,1)"><g><path fill="none" stroke="none"/><text fill="#000000" stroke="none" font-family="Arial" font-size="13px" font-style="normal" font-weight="normal" text-decoration="none" x="765" y="384.5">+headImage</text></g></g><g transform="translate(-94,-150) scale(1,1)"><g><path fill="none" stroke="none"/><text fill="#000000" stroke="none" font-family="Arial" font-size="13px" font-style="normal" font-weight="normal" text-decoration="none" x="765" y="399.5">+introduction</text></g></g><g transform="translate(-94,-150) scale(1,1)"><rect fill="#C0C0C0" stroke="none" x="343" y="447" width="231" height="120" opacity="0.2"/></g><g transform="translate(-94,-150) scale(1,1)"><rect fill="#ffffff" stroke="none" x="336" y="440" width="231" height="120"/></g><g transform="translate(-94,-150) scale(1,1)"><path fill="none" stroke="#000000" d="M 336 440 L 567 440 L 567 560 L 336 560 L 336 440 Z Z" stroke-miterlimit="10"/></g><g transform="translate(-94,-150) scale(1,1)"><path fill="none" stroke="#000000" d="M 336 465 L 567 465" stroke-miterlimit="10"/></g><g transform="translate(-94,-150) scale(1,1)"><path fill="none" stroke="#000000" d="M 336 503 L 567 503" stroke-miterlimit="10"/></g><g transform="translate(-94,-150) scale(1,1)"><g><path fill="none" stroke="none"/><text fill="#000000" stroke="none" font-family="Arial" font-size="13px" font-style="normal" font-weight="bold" text-decoration="none" x="413.2109375" y="459.5">Administrator</text></g></g><g transform="translate(-94,-150) scale(1,1)"><g><path fill="none" stroke="none"/><text fill="#000000" stroke="none" font-family="Arial" font-size="13px" font-style="normal" font-weight="normal" text-decoration="none" x="341" y="482.5">+id</text></g></g><g transform="translate(-94,-150) scale(1,1)"><g><path fill="none" stroke="none"/><text fill="#000000" stroke="none" font-family="Arial" font-size="13px" font-style="normal" font-weight="normal" text-decoration="none" x="341" y="497.5">+name</text></g></g><g transform="translate(-94,-150) scale(1,1)"><g><path fill="none" stroke="none"/><text fill="#000000" stroke="none" font-family="Arial" font-size="13px" font-style="normal" font-weight="normal" text-decoration="none" x="341" y="520.5">+AddShow(show)</text></g></g><g transform="translate(-94,-150) scale(1,1)"><g><path fill="none" stroke="none"/><text fill="#000000" stroke="none" font-family="Arial" font-size="13px" font-style="normal" font-weight="normal" text-decoration="none" x="341" y="535.5">+AddIntroduction(introduction)</text></g></g><g transform="translate(-94,-150) scale(1,1)"><g><path fill="none" stroke="none"/><text fill="#000000" stroke="none" font-family="Arial" font-size="13px" font-style="normal" font-weight="normal" text-decoration="none" x="341" y="550.5">+ChangeShow(id, showcontent)</text></g></g><g transform="translate(-94,-150) scale(1,1)"><path fill="none" stroke="#000000" d="M 760 216 L 679 216" stroke-miterlimit="10" stroke-dasharray="3"/></g><g transform="translate(-94,-150) scale(1,1)"><path fill="none" stroke="#000000" d="M 689.1626748576241 211.790482243984 L 679 216 L 689.1626748576241 220.209517756016" stroke-miterlimit="10"/></g><g transform="translate(-94,-150) scale(1,1)"><path fill="none" stroke="#000000" d="M 760 360 L 679 360" stroke-miterlimit="10" stroke-dasharray="3"/></g><g transform="translate(-94,-150) scale(1,1)"><path fill="none" stroke="#000000" d="M 689.1626748576241 355.790482243984 L 679 360 L 689.1626748576241 364.209517756016" stroke-miterlimit="10"/></g><g transform="translate(-94,-150) scale(1,1)"><path fill="none" stroke="#000000" d="M 415 269 L 488 269" stroke-miterlimit="10"/></g><g transform="translate(-94,-150) scale(1,1)"><path fill="none" stroke="#000000" d="M 354 440 L 354 344" stroke-miterlimit="10"/></g><g transform="translate(-94,-150) scale(1,1)"><path fill="none" stroke="#000000" d="M 519 440 L 519 380" stroke-miterlimit="10"/></g><g transform="translate(-94,-150) scale(1,1)"><g><path fill="none" stroke="none"/><text fill="#000000" stroke="none" font-family="Arial" font-size="13px" font-style="normal" font-weight="normal" text-decoration="none" x="357" y="434">1</text></g></g><g transform="translate(-94,-150) scale(1,1)"><g><path fill="none" stroke="none"/><text fill="#000000" stroke="none" font-family="Arial" font-size="13px" font-style="normal" font-weight="normal" text-decoration="none" x="357" y="370">0..*</text></g></g><g transform="translate(-94,-150) scale(1,1)"><g><path fill="none" stroke="none"/><text fill="#000000" stroke="none" font-family="Arial" font-size="13px" font-style="normal" font-weight="normal" text-decoration="none" x="525" y="434">1</text></g></g><g transform="translate(-94,-150) scale(1,1)"><g><path fill="none" stroke="none"/><text fill="#000000" stroke="none" font-family="Arial" font-size="13px" font-style="normal" font-weight="normal" text-decoration="none" x="525" y="402">0..*</text></g></g><g transform="translate(-94,-150) scale(1,1)"><g><path fill="none" stroke="none"/><text fill="#000000" stroke="none" font-family="Arial" font-size="13px" font-style="normal" font-weight="normal" text-decoration="none" x="469" y="266">1</text></g></g><g transform="translate(-94,-150) scale(1,1)"><g><path fill="none" stroke="none"/><text fill="#000000" stroke="none" font-family="Arial" font-size="13px" font-style="normal" font-weight="normal" text-decoration="none" x="421" y="266">1</text></g></g><g transform="translate(-94,-150) scale(1,1)"><rect fill="#C0C0C0" stroke="none" x="999" y="855" width="159.6689453125" height="130" opacity="0.2"/></g><g transform="translate(-94,-150) scale(1,1)"><rect fill="#ffffff" stroke="none" x="992" y="848" width="159.6689453125" height="130"/></g><g transform="translate(-94,-150) scale(1,1)"><path fill="none" stroke="#000000" d="M 992 848 L 1151.6689453125 848 L 1151.6689453125 978 L 992 978 L 992 848 Z Z" stroke-miterlimit="10"/></g><g transform="translate(-94,-150) scale(1,1)"><path fill="none" stroke="#000000" d="M 992 873 L 1151.6689453125 873" stroke-miterlimit="10"/></g><g transform="translate(-94,-150) scale(1,1)"><path fill="none" stroke="#000000" d="M 992 956 L 1151.6689453125 956" stroke-miterlimit="10"/></g><g transform="translate(-94,-150) scale(1,1)"><g><path fill="none" stroke="none"/><text fill="#000000" stroke="none" font-family="Arial" font-size="13px" font-style="normal" font-weight="bold" text-decoration="none" x="1045.1044921875" y="867.5">comment</text></g></g><g transform="translate(-94,-150) scale(1,1)"><g><path fill="none" stroke="none"/><text fill="#000000" stroke="none" font-family="Arial" font-size="13px" font-style="normal" font-weight="normal" text-decoration="none" x="997" y="890.5">-comment_id: int</text></g></g><g transform="translate(-94,-150) scale(1,1)"><g><path fill="none" stroke="none"/><text fill="#000000" stroke="none" font-family="Arial" font-size="13px" font-style="normal" font-weight="normal" text-decoration="none" x="997" y="905.5">+sharing_id: int</text></g></g><g transform="translate(-94,-150) scale(1,1)"><g><path fill="none" stroke="none"/><text fill="#000000" stroke="none" font-family="Arial" font-size="13px" font-style="normal" font-weight="normal" text-decoration="none" x="997" y="920.5">+user_id: int</text></g></g><g transform="translate(-94,-150) scale(1,1)"><g><path fill="none" stroke="none"/><text fill="#000000" stroke="none" font-family="Arial" font-size="13px" font-style="normal" font-weight="normal" text-decoration="none" x="997" y="935.5">+context: varchar</text></g></g><g transform="translate(-94,-150) scale(1,1)"><g><path fill="none" stroke="none"/><text fill="#000000" stroke="none" font-family="Arial" font-size="13px" font-style="normal" font-weight="normal" text-decoration="none" x="997" y="950.5">+likes: int</text></g></g><g transform="translate(-94,-150) scale(1,1)"><g><path fill="none" stroke="none"/><text fill="#000000" stroke="none" font-family="Arial" font-size="13px" font-style="normal" font-weight="normal" text-decoration="none" x="997" y="973.5">+addLike()</text></g></g><g transform="translate(-94,-150) scale(1,1)"><rect fill="#C0C0C0" stroke="none" x="831" y="639" width="132.04296875" height="205" opacity="0.2"/></g><g transform="translate(-94,-150) scale(1,1)"><rect fill="#ffffff" stroke="none" x="824" y="632" width="132.04296875" height="205"/></g><g transform="translate(-94,-150) scale(1,1)"><path fill="none" stroke="#000000" d="M 824 632 L 956.04296875 632 L 956.04296875 837 L 824 837 L 824 632 Z Z" stroke-miterlimit="10"/></g><g transform="translate(-94,-150) scale(1,1)"><path fill="none" stroke="#000000" d="M 824 657 L 956.04296875 657" stroke-miterlimit="10"/></g><g transform="translate(-94,-150) scale(1,1)"><path fill="none" stroke="#000000" d="M 824 770 L 956.04296875 770" stroke-miterlimit="10"/></g><g transform="translate(-94,-150) scale(1,1)"><g><path fill="none" stroke="none"/><text fill="#000000" stroke="none" font-family="Arial" font-size="13px" font-style="normal" font-weight="bold" text-decoration="none" x="868.702880859375" y="651.5">sharing</text></g></g><g transform="translate(-94,-150) scale(1,1)"><g><path fill="none" stroke="none"/><text fill="#000000" stroke="none" font-family="Arial" font-size="13px" font-style="normal" font-weight="normal" text-decoration="none" x="829" y="674.5">+sharing_id: int</text></g></g><g transform="translate(-94,-150) scale(1,1)"><g><path fill="none" stroke="none"/><text fill="#000000" stroke="none" font-family="Arial" font-size="13px" font-style="normal" font-weight="normal" text-decoration="none" x="829" y="689.5">+user_id: int</text></g></g><g transform="translate(-94,-150) scale(1,1)"><g><path fill="none" stroke="none"/><text fill="#000000" stroke="none" font-family="Arial" font-size="13px" font-style="normal" font-weight="normal" text-decoration="none" x="829" y="704.5">+histrionics_id: int</text></g></g><g transform="translate(-94,-150) scale(1,1)"><g><path fill="none" stroke="none"/><text fill="#000000" stroke="none" font-family="Arial" font-size="13px" font-style="normal" font-weight="normal" text-decoration="none" x="829" y="719.5">+context: varchar</text></g></g><g transform="translate(-94,-150) scale(1,1)"><g><path fill="none" stroke="none"/><text fill="#000000" stroke="none" font-family="Arial" font-size="13px" font-style="normal" font-weight="normal" text-decoration="none" x="829" y="734.5">+image_url: varchar</text></g></g><g transform="translate(-94,-150) scale(1,1)"><g><path fill="none" stroke="none"/><text fill="#000000" stroke="none" font-family="Arial" font-size="13px" font-style="normal" font-weight="normal" text-decoration="none" x="829" y="749.5">+stars: int</text></g></g><g transform="translate(-94,-150) scale(1,1)"><g><path fill="none" stroke="none"/><text fill="#000000" stroke="none" font-family="Arial" font-size="13px" font-style="normal" font-weight="normal" text-decoration="none" x="829" y="764.5">+likes: int</text></g></g><g transform="translate(-94,-150) scale(1,1)"><g><path fill="none" stroke="none"/><text fill="#000000" stroke="none" font-family="Arial" font-size="13px" font-style="normal" font-weight="normal" text-decoration="none" x="829" y="787.5">+addContext()</text></g></g><g transform="translate(-94,-150) scale(1,1)"><g><path fill="none" stroke="none"/><text fill="#000000" stroke="none" font-family="Arial" font-size="13px" font-style="normal" font-weight="normal" text-decoration="none" x="829" y="802.5">+addImage()</text></g></g><g transform="translate(-94,-150) scale(1,1)"><g><path fill="none" stroke="none"/><text fill="#000000" stroke="none" font-family="Arial" font-size="13px" font-style="normal" font-weight="normal" text-decoration="none" x="829" y="817.5">+setStars()</text></g></g><g transform="translate(-94,-150) scale(1,1)"><g><path fill="none" stroke="none"/><text fill="#000000" stroke="none" font-family="Arial" font-size="13px" font-style="normal" font-weight="normal" text-decoration="none" x="829" y="832.5">+addLike()</text></g></g><g transform="translate(-94,-150) scale(1,1)"><path fill="none" stroke="#000000" d="M 1072 848 L 1072 752 L 956 752" stroke-miterlimit="10"/></g><g transform="translate(-94,-150) scale(1,1)"><g><path fill="none" stroke="none"/><text fill="#000000" stroke="none" font-family="Arial" font-size="13px" font-style="normal" font-weight="normal" text-decoration="none" x="1074.5" y="832.5">0..*</text></g></g><g transform="translate(-94,-150) scale(1,1)"><g><path fill="none" stroke="none"/><text fill="#000000" stroke="none" font-family="Arial" font-size="13px" font-style="normal" font-weight="normal" text-decoration="none" x="973.5" y="745.5">1</text></g></g><g transform="translate(-94,-150) scale(1,1)"><rect fill="#C0C0C0" stroke="none" x="695" y="455" width="172.3505859375" height="160" opacity="0.2"/></g><g transform="translate(-94,-150) scale(1,1)"><rect fill="#ffffff" stroke="none" x="688" y="448" width="172.3505859375" height="160"/></g><g transform="translate(-94,-150) scale(1,1)"><path fill="none" stroke="#000000" d="M 688 448 L 860.3505859375 448 L 860.3505859375 608 L 688 608 L 688 448 Z Z" stroke-miterlimit="10"/></g><g transform="translate(-94,-150) scale(1,1)"><path fill="none" stroke="#000000" d="M 688 473 L 860.3505859375 473" stroke-miterlimit="10"/></g><g transform="translate(-94,-150) scale(1,1)"><path fill="none" stroke="#000000" d="M 688 586 L 860.3505859375 586" stroke-miterlimit="10"/></g><g transform="translate(-94,-150) scale(1,1)"><g><path fill="none" stroke="none"/><text fill="#000000" stroke="none" font-family="Arial" font-size="13px" font-style="normal" font-weight="bold" text-decoration="none" x="744.198486328125" y="467.5">Histrionics</text></g></g><g transform="translate(-94,-150) scale(1,1)"><g><path fill="none" stroke="none"/><text fill="#000000" stroke="none" font-family="Arial" font-size="13px" font-style="normal" font-weight="normal" text-decoration="none" x="693" y="490.5">+description: varchar(255)</text></g></g><g transform="translate(-94,-150) scale(1,1)"><g><path fill="none" stroke="none"/><text fill="#000000" stroke="none" font-family="Arial" font-size="13px" font-style="normal" font-weight="normal" text-decoration="none" x="693" y="505.5">+detail_url: varchar(255)</text></g></g><g transform="translate(-94,-150) scale(1,1)"><g><path fill="none" stroke="none"/><text fill="#000000" stroke="none" font-family="Arial" font-size="13px" font-style="normal" font-weight="normal" text-decoration="none" x="693" y="520.5">+start_time: datetime</text></g></g><g transform="translate(-94,-150) scale(1,1)"><g><path fill="none" stroke="none"/><text fill="#000000" stroke="none" font-family="Arial" font-size="13px" font-style="normal" font-weight="normal" text-decoration="none" x="693" y="535.5">+duration: time</text></g></g><g transform="translate(-94,-150) scale(1,1)"><g><path fill="none" stroke="none"/><text fill="#000000" stroke="none" font-family="Arial" font-size="13px" font-style="normal" font-weight="normal" text-decoration="none" x="693" y="550.5">+location: varchar(255)</text></g></g><g transform="translate(-94,-150) scale(1,1)"><g><path fill="none" stroke="none"/><text fill="#000000" stroke="none" font-family="Arial" font-size="13px" font-style="normal" font-weight="normal" text-decoration="none" x="693" y="565.5">+price: int</text></g></g><g transform="translate(-94,-150) scale(1,1)"><g><path fill="none" stroke="none"/><text fill="#000000" stroke="none" font-family="Arial" font-size="13px" font-style="normal" font-weight="normal" text-decoration="none" x="693" y="580.5">+capacity: int</text></g></g><g transform="translate(-94,-150) scale(1,1)"><path fill="none" stroke="#000000" d="M 688 528 L 640 528 L 640 380" stroke-miterlimit="10"/></g><g transform="translate(-94,-150) scale(1,1)"><g><path fill="none" stroke="none"/><text fill="#000000" stroke="none" font-family="Arial" font-size="13px" font-style="normal" font-weight="normal" text-decoration="none" x="656.58544921875" y="521.5">0..*</text></g></g><g transform="translate(-94,-150) scale(1,1)"><g><path fill="none" stroke="none"/><text fill="#000000" stroke="none" font-family="Arial" font-size="13px" font-style="normal" font-weight="normal" text-decoration="none" x="648.5" y="407.5">1</text></g></g><g transform="translate(-94,-150) scale(1,1)"><path fill="none" stroke="#000000" d="M 774 608 L 774 688 L 824 688" stroke-miterlimit="10"/></g><g transform="translate(-94,-150) scale(1,1)"><g><path fill="none" stroke="none"/><text fill="#000000" stroke="none" font-family="Arial" font-size="13px" font-style="normal" font-weight="normal" text-decoration="none" x="757.5" y="635.5">1</text></g></g><g transform="translate(-94,-150) scale(1,1)"><g><path fill="none" stroke="none"/><text fill="#000000" stroke="none" font-family="Arial" font-size="13px" font-style="normal" font-weight="normal" text-decoration="none" x="792.5" y="706.5">0..*</text></g></g><g transform="translate(-94,-150) scale(1,1)"><path fill="none" stroke="#000000" d="M 720 608 L 720 800" stroke-miterlimit="10"/></g><g transform="translate(-94,-150) scale(1,1)"><g><path fill="none" stroke="none"/><text fill="#000000" stroke="none" font-family="Arial" font-size="13px" font-style="normal" font-weight="normal" text-decoration="none" x="703.5" y="635.5">1</text></g></g><g transform="translate(-94,-150) scale(1,1)"><g><path fill="none" stroke="none"/><text fill="#000000" stroke="none" font-family="Arial" font-size="13px" font-style="normal" font-weight="normal" text-decoration="none" x="697.5" y="784.5">1..*</text></g></g><g transform="translate(-94,-150) scale(1,1)"><path fill="none" stroke="#000000" d="M 545 740 L 824 740" stroke-miterlimit="10"/></g><g transform="translate(-94,-150) scale(1,1)"><g><path fill="none" stroke="none"/><text fill="#000000" stroke="none" font-family="Arial" font-size="13px" font-style="normal" font-weight="normal" text-decoration="none" x="562.5" y="758.5">1</text></g></g><g transform="translate(-94,-150) scale(1,1)"><g><path fill="none" stroke="none"/><text fill="#000000" stroke="none" font-family="Arial" font-size="13px" font-style="normal" font-weight="normal" text-decoration="none" x="792.5" y="758.5">0..*</text></g></g><g transform="translate(-94,-150) scale(1,1)"><path fill="none" stroke="#000000" d="M 180 736 L 180 960 L 632 960" stroke-miterlimit="10"/></g><g transform="translate(-94,-150) scale(1,1)"><g><path fill="none" stroke="none"/><text fill="#000000" stroke="none" font-family="Arial" font-size="13px" font-style="normal" font-weight="normal" text-decoration="none" x="163.5" y="763.5">1</text></g></g><g transform="translate(-94,-150) scale(1,1)"><g><path fill="none" stroke="none"/><text fill="#000000" stroke="none" font-family="Arial" font-size="13px" font-style="normal" font-weight="normal" text-decoration="none" x="606.5" y="978.5">1</text></g></g><g transform="translate(-94,-150) scale(1,1)"><rect fill="#C0C0C0" stroke="none" x="111" y="463" width="184" height="175" opacity="0.2"/></g><g transform="translate(-94,-150) scale(1,1)"><rect fill="#ffffff" stroke="none" x="104" y="456" width="184" height="175"/></g><g transform="translate(-94,-150) scale(1,1)"><path fill="none" stroke="#000000" d="M 104 456 L 288 456 L 288 631 L 104 631 L 104 456 Z Z" stroke-miterlimit="10"/></g><g transform="translate(-94,-150) scale(1,1)"><path fill="none" stroke="#000000" d="M 104 481 L 288 481" stroke-miterlimit="10"/></g><g transform="translate(-94,-150) scale(1,1)"><path fill="none" stroke="#000000" d="M 104 579 L 288 579" stroke-miterlimit="10"/></g><g transform="translate(-94,-150) scale(1,1)"><g><path fill="none" stroke="none"/><text fill="#000000" stroke="none" font-family="Arial" font-size="13px" font-style="normal" font-weight="bold" text-decoration="none" x="175.766845703125" y="475.5">Resale</text></g></g><g transform="translate(-94,-150) scale(1,1)"><g><path fill="none" stroke="none"/><text fill="#000000" stroke="none" font-family="Arial" font-size="13px" font-style="normal" font-weight="normal" text-decoration="none" x="109" y="498.5">+resale_id</text></g></g><g transform="translate(-94,-150) scale(1,1)"><g><path fill="none" stroke="none"/><text fill="#000000" stroke="none" font-family="Arial" font-size="13px" font-style="normal" font-weight="normal" text-decoration="none" x="109" y="513.5">+seller</text></g></g><g transform="translate(-94,-150) scale(1,1)"><g><path fill="none" stroke="none"/><text fill="#000000" stroke="none" font-family="Arial" font-size="13px" font-style="normal" font-weight="normal" text-decoration="none" x="109" y="528.5">+buyer</text></g></g><g transform="translate(-94,-150) scale(1,1)"><g><path fill="none" stroke="none"/><text fill="#000000" stroke="none" font-family="Arial" font-size="13px" font-style="normal" font-weight="normal" text-decoration="none" x="109" y="543.5">+publish_time</text></g></g><g transform="translate(-94,-150) scale(1,1)"><g><path fill="none" stroke="none"/><text fill="#000000" stroke="none" font-family="Arial" font-size="13px" font-style="normal" font-weight="normal" text-decoration="none" x="109" y="558.5">+order_id</text></g></g><g transform="translate(-94,-150) scale(1,1)"><g><path fill="none" stroke="none"/><text fill="#000000" stroke="none" font-family="Arial" font-size="13px" font-style="normal" font-weight="normal" text-decoration="none" x="109" y="573.5">+status</text></g></g><g transform="translate(-94,-150) scale(1,1)"><g><path fill="none" stroke="none"/><text fill="#000000" stroke="none" font-family="Arial" font-size="13px" font-style="normal" font-weight="normal" text-decoration="none" x="109" y="596.5">+PublishResale()</text></g></g><g transform="translate(-94,-150) scale(1,1)"><g><path fill="none" stroke="none"/><text fill="#000000" stroke="none" font-family="Arial" font-size="13px" font-style="normal" font-weight="normal" text-decoration="none" x="109" y="611.5">+PurchaseResale()</text></g></g><g transform="translate(-94,-150) scale(1,1)"><g><path fill="none" stroke="none"/><text fill="#000000" stroke="none" font-family="Arial" font-size="13px" font-style="normal" font-weight="normal" text-decoration="none" x="109" y="626.5">+ModifyResale()</text></g></g><g transform="translate(-94,-150) scale(1,1)"><path fill="none" stroke="#000000" d="M 272 631 L 272 888 L 632 888" stroke-miterlimit="10"/></g><g transform="translate(-94,-150) scale(1,1)"><g><path fill="none" stroke="none"/><text fill="#000000" stroke="none" font-family="Arial" font-size="13px" font-style="normal" font-weight="normal" text-decoration="none" x="248.5" y="658.5">0..1</text></g></g><g transform="translate(-94,-150) scale(1,1)"><g><path fill="none" stroke="none"/><text fill="#000000" stroke="none" font-family="Arial" font-size="13px" font-style="normal" font-weight="normal" text-decoration="none" x="606.5" y="906.5">1</text></g></g><g transform="translate(-94,-150) scale(1,1)"><path fill="none" stroke="#000000" d="M 289 613 L 375 677" stroke-miterlimit="10"/></g><g transform="translate(-94,-150) scale(1,1)"><g><path fill="none" stroke="none"/><text fill="#000000" stroke="none" font-family="Arial" font-size="13px" font-style="normal" font-weight="normal" text-decoration="none" x="287.5" y="641.5">0..1</text></g></g><g transform="translate(-94,-150) scale(1,1)"><g><path fill="none" stroke="none"/><text fill="#000000" stroke="none" font-family="Arial" font-size="13px" font-style="normal" font-weight="normal" text-decoration="none" x="340.5" y="680.5">1..*</text></g></g><g transform="translate(-94,-150) scale(1,1)"><path fill="none" stroke="#000000" d="M 453 616 L 453 560" stroke-miterlimit="10"/></g><g transform="translate(-94,-150) scale(1,1)"><path fill="#FFFFFF" stroke="none" d="M 461.419035512032 580.3253497152483 L 453 560 L 444.580964487968 580.3253497152483"/></g><g transform="translate(-94,-150) scale(1,1)"><path fill="none" stroke="#000000" d="M 461.419035512032 580.3253497152483 L 453 560 L 444.580964487968 580.3253497152483 L 461.419035512032 580.3253497152483" stroke-miterlimit="10"/></g></g></svg>