<svg version="1.1" xmlns="http://www.w3.org/2000/svg" xmlns:xlink="http://www.w3.org/1999/xlink" width="704.04296875" height="406"><defs/><g><g transform="translate(-14,-110) scale(1,1)"><rect fill="#C0C0C0" stroke="none" x="31" y="207" width="165.89501953125" height="190" opacity="0.2"/></g><g transform="translate(-14,-110) scale(1,1)"><rect fill="#ffffff" stroke="none" x="24" y="200" width="165.89501953125" height="190"/></g><g transform="translate(-14,-110) scale(1,1)"><path fill="none" stroke="#000000" d="M 24 200 L 189.89501953125 200 L 189.89501953125 390 L 24 390 L 24 200 Z Z" stroke-miterlimit="10"/></g><g transform="translate(-14,-110) scale(1,1)"><path fill="none" stroke="#000000" d="M 24 225 L 189.89501953125 225" stroke-miterlimit="10"/></g><g transform="translate(-14,-110) scale(1,1)"><path fill="none" stroke="#000000" d="M 24 338 L 189.89501953125 338" stroke-miterlimit="10"/></g><g transform="translate(-14,-110) scale(1,1)"><g><path fill="none" stroke="none"/><text fill="#000000" stroke="none" font-family="Arial" font-size="13px" font-style="normal" font-weight="bold" text-decoration="none" x="93.223876953125" y="219.5">User</text></g></g><g transform="translate(-14,-110) scale(1,1)"><g><path fill="none" stroke="none"/><text fill="#000000" stroke="none" font-family="Arial" font-size="13px" font-style="normal" font-weight="normal" text-decoration="none" x="29" y="242.5">-user_id: int</text></g></g><g transform="translate(-14,-110) scale(1,1)"><g><path fill="none" stroke="none"/><text fill="#000000" stroke="none" font-family="Arial" font-size="13px" font-style="normal" font-weight="normal" text-decoration="none" x="29" y="257.5">+user_name: varchar</text></g></g><g transform="translate(-14,-110) scale(1,1)"><g><path fill="none" stroke="none"/><text fill="#000000" stroke="none" font-family="Arial" font-size="13px" font-style="normal" font-weight="normal" text-decoration="none" x="29" y="272.5">+user_type: tinyint</text></g></g><g transform="translate(-14,-110) scale(1,1)"><g><path fill="none" stroke="none"/><text fill="#000000" stroke="none" font-family="Arial" font-size="13px" font-style="normal" font-weight="normal" text-decoration="none" x="29" y="287.5">+password: varchar</text></g></g><g transform="translate(-14,-110) scale(1,1)"><g><path fill="none" stroke="none"/><text fill="#000000" stroke="none" font-family="Arial" font-size="13px" font-style="normal" font-weight="normal" text-decoration="none" x="29" y="302.5">+phone_number: varchar</text></g></g><g transform="translate(-14,-110) scale(1,1)"><g><path fill="none" stroke="none"/><text fill="#000000" stroke="none" font-family="Arial" font-size="13px" font-style="normal" font-weight="normal" text-decoration="none" x="29" y="317.5">+register: datetime</text></g></g><g transform="translate(-14,-110) scale(1,1)"><g><path fill="none" stroke="none"/><text fill="#000000" stroke="none" font-family="Arial" font-size="13px" font-style="normal" font-weight="normal" text-decoration="none" x="29" y="332.5">+city: varchar</text></g></g><g transform="translate(-14,-110) scale(1,1)"><g><path fill="none" stroke="none"/><text fill="#000000" stroke="none" font-family="Arial" font-size="13px" font-style="normal" font-weight="normal" text-decoration="none" x="29" y="355.5">+getUserID()</text></g></g><g transform="translate(-14,-110) scale(1,1)"><g><path fill="none" stroke="none"/><text fill="#000000" stroke="none" font-family="Arial" font-size="13px" font-style="normal" font-weight="normal" text-decoration="none" x="29" y="370.5">+addSharing()</text></g></g><g transform="translate(-14,-110) scale(1,1)"><g><path fill="none" stroke="none"/><text fill="#000000" stroke="none" font-family="Arial" font-size="13px" font-style="normal" font-weight="normal" text-decoration="none" x="29" y="385.5">+addSharingComment()</text></g></g><g transform="translate(-14,-110) scale(1,1)"><rect fill="#C0C0C0" stroke="none" x="583" y="127" width="132.04296875" height="145" opacity="0.2"/></g><g transform="translate(-14,-110) scale(1,1)"><rect fill="#ffffff" stroke="none" x="576" y="120" width="132.04296875" height="145"/></g><g transform="translate(-14,-110) scale(1,1)"><path fill="none" stroke="#000000" d="M 576 120 L 708.04296875 120 L 708.04296875 265 L 576 265 L 576 120 Z Z" stroke-miterlimit="10"/></g><g transform="translate(-14,-110) scale(1,1)"><path fill="none" stroke="#000000" d="M 576 145 L 708.04296875 145" stroke-miterlimit="10"/></g><g transform="translate(-14,-110) scale(1,1)"><path fill="none" stroke="#000000" d="M 576 213 L 708.04296875 213" stroke-miterlimit="10"/></g><g transform="translate(-14,-110) scale(1,1)"><g><path fill="none" stroke="none"/><text fill="#000000" stroke="none" font-family="Arial" font-size="13px" font-style="normal" font-weight="bold" text-decoration="none" x="626.847412109375" y="139.5">show</text></g></g><g transform="translate(-14,-110) scale(1,1)"><g><path fill="none" stroke="none"/><text fill="#000000" stroke="none" font-family="Arial" font-size="13px" font-style="normal" font-weight="normal" text-decoration="none" x="581" y="162.5">-show_id: int</text></g></g><g transform="translate(-14,-110) scale(1,1)"><g><path fill="none" stroke="none"/><text fill="#000000" stroke="none" font-family="Arial" font-size="13px" font-style="normal" font-weight="normal" text-decoration="none" x="581" y="177.5">+title: varchar</text></g></g><g transform="translate(-14,-110) scale(1,1)"><g><path fill="none" stroke="none"/><text fill="#000000" stroke="none" font-family="Arial" font-size="13px" font-style="normal" font-weight="normal" text-decoration="none" x="581" y="192.5">+description</text></g></g><g transform="translate(-14,-110) scale(1,1)"><g><path fill="none" stroke="none"/><text fill="#000000" stroke="none" font-family="Arial" font-size="13px" font-style="normal" font-weight="normal" text-decoration="none" x="581" y="207.5">+image_url: varchar</text></g></g><g transform="translate(-14,-110) scale(1,1)"><g><path fill="none" stroke="none"/><text fill="#000000" stroke="none" font-family="Arial" font-size="13px" font-style="normal" font-weight="normal" text-decoration="none" x="581" y="230.5">+getShowID()</text></g></g><g transform="translate(-14,-110) scale(1,1)"><g><path fill="none" stroke="none"/><text fill="#000000" stroke="none" font-family="Arial" font-size="13px" font-style="normal" font-weight="normal" text-decoration="none" x="581" y="245.5">+getShowTitle()</text></g></g><g transform="translate(-14,-110) scale(1,1)"><g><path fill="none" stroke="none"/><text fill="#000000" stroke="none" font-family="Arial" font-size="13px" font-style="normal" font-weight="normal" text-decoration="none" x="581" y="260.5">+getImageURL()</text></g></g><g transform="translate(-14,-110) scale(1,1)"><rect fill="#C0C0C0" stroke="none" x="423" y="383" width="159.6689453125" height="130" opacity="0.2"/></g><g transform="translate(-14,-110) scale(1,1)"><rect fill="#ffffff" stroke="none" x="416" y="376" width="159.6689453125" height="130"/></g><g transform="translate(-14,-110) scale(1,1)"><path fill="none" stroke="#000000" d="M 416 376 L 575.6689453125 376 L 575.6689453125 506 L 416 506 L 416 376 Z Z" stroke-miterlimit="10"/></g><g transform="translate(-14,-110) scale(1,1)"><path fill="none" stroke="#000000" d="M 416 401 L 575.6689453125 401" stroke-miterlimit="10"/></g><g transform="translate(-14,-110) scale(1,1)"><path fill="none" stroke="#000000" d="M 416 484 L 575.6689453125 484" stroke-miterlimit="10"/></g><g transform="translate(-14,-110) scale(1,1)"><g><path fill="none" stroke="none"/><text fill="#000000" stroke="none" font-family="Arial" font-size="13px" font-style="normal" font-weight="bold" text-decoration="none" x="469.1044921875" y="395.5">comment</text></g></g><g transform="translate(-14,-110) scale(1,1)"><g><path fill="none" stroke="none"/><text fill="#000000" stroke="none" font-family="Arial" font-size="13px" font-style="normal" font-weight="normal" text-decoration="none" x="421" y="418.5">-comment_id: int</text></g></g><g transform="translate(-14,-110) scale(1,1)"><g><path fill="none" stroke="none"/><text fill="#000000" stroke="none" font-family="Arial" font-size="13px" font-style="normal" font-weight="normal" text-decoration="none" x="421" y="433.5">+sharing_id: int</text></g></g><g transform="translate(-14,-110) scale(1,1)"><g><path fill="none" stroke="none"/><text fill="#000000" stroke="none" font-family="Arial" font-size="13px" font-style="normal" font-weight="normal" text-decoration="none" x="421" y="448.5">+user_id: int</text></g></g><g transform="translate(-14,-110) scale(1,1)"><g><path fill="none" stroke="none"/><text fill="#000000" stroke="none" font-family="Arial" font-size="13px" font-style="normal" font-weight="normal" text-decoration="none" x="421" y="463.5">+context: varchar</text></g></g><g transform="translate(-14,-110) scale(1,1)"><g><path fill="none" stroke="none"/><text fill="#000000" stroke="none" font-family="Arial" font-size="13px" font-style="normal" font-weight="normal" text-decoration="none" x="421" y="478.5">+likes: int</text></g></g><g transform="translate(-14,-110) scale(1,1)"><g><path fill="none" stroke="none"/><text fill="#000000" stroke="none" font-family="Arial" font-size="13px" font-style="normal" font-weight="normal" text-decoration="none" x="421" y="501.5">+addLike()</text></g></g><g transform="translate(-14,-110) scale(1,1)"><rect fill="#C0C0C0" stroke="none" x="247" y="199" width="132.04296875" height="205" opacity="0.2"/></g><g transform="translate(-14,-110) scale(1,1)"><rect fill="#ffffff" stroke="none" x="240" y="192" width="132.04296875" height="205"/></g><g transform="translate(-14,-110) scale(1,1)"><path fill="none" stroke="#000000" d="M 240 192 L 372.04296875 192 L 372.04296875 397 L 240 397 L 240 192 Z Z" stroke-miterlimit="10"/></g><g transform="translate(-14,-110) scale(1,1)"><path fill="none" stroke="#000000" d="M 240 217 L 372.04296875 217" stroke-miterlimit="10"/></g><g transform="translate(-14,-110) scale(1,1)"><path fill="none" stroke="#000000" d="M 240 330 L 372.04296875 330" stroke-miterlimit="10"/></g><g transform="translate(-14,-110) scale(1,1)"><g><path fill="none" stroke="none"/><text fill="#000000" stroke="none" font-family="Arial" font-size="13px" font-style="normal" font-weight="bold" text-decoration="none" x="284.702880859375" y="211.5">sharing</text></g></g><g transform="translate(-14,-110) scale(1,1)"><g><path fill="none" stroke="none"/><text fill="#000000" stroke="none" font-family="Arial" font-size="13px" font-style="normal" font-weight="normal" text-decoration="none" x="245" y="234.5">+sharing_id: int</text></g></g><g transform="translate(-14,-110) scale(1,1)"><g><path fill="none" stroke="none"/><text fill="#000000" stroke="none" font-family="Arial" font-size="13px" font-style="normal" font-weight="normal" text-decoration="none" x="245" y="249.5">+user_id: int</text></g></g><g transform="translate(-14,-110) scale(1,1)"><g><path fill="none" stroke="none"/><text fill="#000000" stroke="none" font-family="Arial" font-size="13px" font-style="normal" font-weight="normal" text-decoration="none" x="245" y="264.5">+histrionics_id: int</text></g></g><g transform="translate(-14,-110) scale(1,1)"><g><path fill="none" stroke="none"/><text fill="#000000" stroke="none" font-family="Arial" font-size="13px" font-style="normal" font-weight="normal" text-decoration="none" x="245" y="279.5">+context: varchar</text></g></g><g transform="translate(-14,-110) scale(1,1)"><g><path fill="none" stroke="none"/><text fill="#000000" stroke="none" font-family="Arial" font-size="13px" font-style="normal" font-weight="normal" text-decoration="none" x="245" y="294.5">+image_url: varchar</text></g></g><g transform="translate(-14,-110) scale(1,1)"><g><path fill="none" stroke="none"/><text fill="#000000" stroke="none" font-family="Arial" font-size="13px" font-style="normal" font-weight="normal" text-decoration="none" x="245" y="309.5">+stars: int</text></g></g><g transform="translate(-14,-110) scale(1,1)"><g><path fill="none" stroke="none"/><text fill="#000000" stroke="none" font-family="Arial" font-size="13px" font-style="normal" font-weight="normal" text-decoration="none" x="245" y="324.5">+likes: int</text></g></g><g transform="translate(-14,-110) scale(1,1)"><g><path fill="none" stroke="none"/><text fill="#000000" stroke="none" font-family="Arial" font-size="13px" font-style="normal" font-weight="normal" text-decoration="none" x="245" y="347.5">+addContext()</text></g></g><g transform="translate(-14,-110) scale(1,1)"><g><path fill="none" stroke="none"/><text fill="#000000" stroke="none" font-family="Arial" font-size="13px" font-style="normal" font-weight="normal" text-decoration="none" x="245" y="362.5">+addImage()</text></g></g><g transform="translate(-14,-110) scale(1,1)"><g><path fill="none" stroke="none"/><text fill="#000000" stroke="none" font-family="Arial" font-size="13px" font-style="normal" font-weight="normal" text-decoration="none" x="245" y="377.5">+setStars()</text></g></g><g transform="translate(-14,-110) scale(1,1)"><g><path fill="none" stroke="none"/><text fill="#000000" stroke="none" font-family="Arial" font-size="13px" font-style="normal" font-weight="normal" text-decoration="none" x="245" y="392.5">+addLike()</text></g></g><g transform="translate(-14,-110) scale(1,1)"><rect fill="#C0C0C0" stroke="none" x="423" y="151" width="99.263671875" height="85" opacity="0.2"/></g><g transform="translate(-14,-110) scale(1,1)"><rect fill="#ffffff" stroke="none" x="416" y="144" width="99.263671875" height="85"/></g><g transform="translate(-14,-110) scale(1,1)"><path fill="none" stroke="#000000" d="M 416 144 L 515.263671875 144 L 515.263671875 229 L 416 229 L 416 144 Z Z" stroke-miterlimit="10"/></g><g transform="translate(-14,-110) scale(1,1)"><path fill="none" stroke="#000000" d="M 416 169 L 515.263671875 169" stroke-miterlimit="10"/></g><g transform="translate(-14,-110) scale(1,1)"><path fill="none" stroke="#000000" d="M 416 207 L 515.263671875 207" stroke-miterlimit="10"/></g><g transform="translate(-14,-110) scale(1,1)"><g><path fill="none" stroke="none"/><text fill="#000000" stroke="none" font-family="Arial" font-size="13px" font-style="normal" font-weight="bold" text-decoration="none" x="436.734130859375" y="163.5">histrionics</text></g></g><g transform="translate(-14,-110) scale(1,1)"><g><path fill="none" stroke="none"/><text fill="#000000" stroke="none" font-family="Arial" font-size="13px" font-style="normal" font-weight="normal" text-decoration="none" x="421" y="186.5">+histrionics_id</text></g></g><g transform="translate(-14,-110) scale(1,1)"><g><path fill="none" stroke="none"/><text fill="#000000" stroke="none" font-family="Arial" font-size="13px" font-style="normal" font-weight="normal" text-decoration="none" x="421" y="201.5">+show_id</text></g></g><g transform="translate(-14,-110) scale(1,1)"><g><path fill="none" stroke="none"/><text fill="#000000" stroke="none" font-family="Arial" font-size="13px" font-style="normal" font-weight="normal" text-decoration="none" x="421" y="224.5">+getShowID()</text></g></g><g transform="translate(-14,-110) scale(1,1)"><path fill="none" stroke="#000000" d="M 515 190 L 576 190" stroke-miterlimit="10"/></g><g transform="translate(-14,-110) scale(1,1)"><path fill="#FFFFFF" stroke="none" d="M 555.6746502847517 198.41903551203197 L 576 190 L 555.6746502847517 181.58096448796803"/></g><g transform="translate(-14,-110) scale(1,1)"><path fill="none" stroke="#000000" d="M 555.6746502847517 198.41903551203197 L 576 190 L 555.6746502847517 181.58096448796803 L 555.6746502847517 198.41903551203197" stroke-miterlimit="10"/></g><g transform="translate(-14,-110) scale(1,1)"><path fill="none" stroke="#000000" d="M 190 295 L 240 295" stroke-miterlimit="10" stroke-dasharray="3"/></g><g transform="translate(-14,-110) scale(1,1)"><path fill="none" stroke="#000000" d="M 229.83732514237585 299.209517756016 L 240 295 L 229.83732514237585 290.790482243984" stroke-miterlimit="10"/></g><g transform="translate(-14,-110) scale(1,1)"><path fill="none" stroke="#000000" d="M 373 248 L 415 220" stroke-miterlimit="10"/></g><g transform="translate(-14,-110) scale(1,1)"><path fill="none" stroke="#000000" d="M 415 379 L 373 346" stroke-miterlimit="10"/></g><g transform="translate(-14,-110) scale(1,1)"><path fill="#000000" stroke="none" d="M 383.5918284049461 348.9686985431627 L 373 346 L 378.39036681913274 355.5887405614707 L 390.2990034540933 359.5920741425019"/></g><g transform="translate(-14,-110) scale(1,1)"><path fill="none" stroke="#000000" d="M 383.5918284049461 348.9686985431627 L 373 346 L 378.39036681913274 355.5887405614707 L 390.2990034540933 359.5920741425019 L 383.5918284049461 348.9686985431627" stroke-miterlimit="10"/></g></g></svg>