<svg version="1.1" xmlns="http://www.w3.org/2000/svg" xmlns:xlink="http://www.w3.org/1999/xlink" width="424.04296875" height="195"><defs/><g><g transform="translate(-110,-198) scale(1,1)"><rect fill="#C0C0C0" stroke="none" x="127" y="215" width="165.89501953125" height="175" opacity="0.2"/></g><g transform="translate(-110,-198) scale(1,1)"><rect fill="#ffffff" stroke="none" x="120" y="208" width="165.89501953125" height="175"/></g><g transform="translate(-110,-198) scale(1,1)"><path fill="none" stroke="#000000" d="M 120 208 L 285.89501953125 208 L 285.89501953125 383 L 120 383 L 120 208 Z Z" stroke-miterlimit="10"/></g><g transform="translate(-110,-198) scale(1,1)"><path fill="none" stroke="#000000" d="M 120 233 L 285.89501953125 233" stroke-miterlimit="10"/></g><g transform="translate(-110,-198) scale(1,1)"><path fill="none" stroke="#000000" d="M 120 346 L 285.89501953125 346" stroke-miterlimit="10"/></g><g transform="translate(-110,-198) scale(1,1)"><g><path fill="none" stroke="none"/><text fill="#000000" stroke="none" font-family="Arial" font-size="13px" font-style="normal" font-weight="bold" text-decoration="none" x="189.223876953125" y="227.5">User</text></g></g><g transform="translate(-110,-198) scale(1,1)"><g><path fill="none" stroke="none"/><text fill="#000000" stroke="none" font-family="Arial" font-size="13px" font-style="normal" font-weight="normal" text-decoration="none" x="125" y="250.5">+user_id: int</text></g></g><g transform="translate(-110,-198) scale(1,1)"><g><path fill="none" stroke="none"/><text fill="#000000" stroke="none" font-family="Arial" font-size="13px" font-style="normal" font-weight="normal" text-decoration="none" x="125" y="265.5">+user_name: varchar</text></g></g><g transform="translate(-110,-198) scale(1,1)"><g><path fill="none" stroke="none"/><text fill="#000000" stroke="none" font-family="Arial" font-size="13px" font-style="normal" font-weight="normal" text-decoration="none" x="125" y="280.5">+user_type: tinyint</text></g></g><g transform="translate(-110,-198) scale(1,1)"><g><path fill="none" stroke="none"/><text fill="#000000" stroke="none" font-family="Arial" font-size="13px" font-style="normal" font-weight="normal" text-decoration="none" x="125" y="295.5">+password: varchar</text></g></g><g transform="translate(-110,-198) scale(1,1)"><g><path fill="none" stroke="none"/><text fill="#000000" stroke="none" font-family="Arial" font-size="13px" font-style="normal" font-weight="normal" text-decoration="none" x="125" y="310.5">+phone_number: varchar</text></g></g><g transform="translate(-110,-198) scale(1,1)"><g><path fill="none" stroke="none"/><text fill="#000000" stroke="none" font-family="Arial" font-size="13px" font-style="normal" font-weight="normal" text-decoration="none" x="125" y="325.5">+register: datetime</text></g></g><g transform="translate(-110,-198) scale(1,1)"><g><path fill="none" stroke="none"/><text fill="#000000" stroke="none" font-family="Arial" font-size="13px" font-style="normal" font-weight="normal" text-decoration="none" x="125" y="340.5">+city: varchar</text></g></g><g transform="translate(-110,-198) scale(1,1)"><g><path fill="none" stroke="none"/><text fill="#000000" stroke="none" font-family="Arial" font-size="13px" font-style="normal" font-weight="normal" text-decoration="none" x="125" y="363.5">+viewShow()</text></g></g><g transform="translate(-110,-198) scale(1,1)"><g><path fill="none" stroke="none"/><text fill="#000000" stroke="none" font-family="Arial" font-size="13px" font-style="normal" font-weight="normal" text-decoration="none" x="125" y="378.5">+searchShow()</text></g></g><g transform="translate(-110,-198) scale(1,1)"><rect fill="#C0C0C0" stroke="none" x="399" y="231" width="132.04296875" height="130" opacity="0.2"/></g><g transform="translate(-110,-198) scale(1,1)"><rect fill="#ffffff" stroke="none" x="392" y="224" width="132.04296875" height="130"/></g><g transform="translate(-110,-198) scale(1,1)"><path fill="none" stroke="#000000" d="M 392 224 L 524.04296875 224 L 524.04296875 354 L 392 354 L 392 224 Z Z" stroke-miterlimit="10"/></g><g transform="translate(-110,-198) scale(1,1)"><path fill="none" stroke="#000000" d="M 392 249 L 524.04296875 249" stroke-miterlimit="10"/></g><g transform="translate(-110,-198) scale(1,1)"><path fill="none" stroke="#000000" d="M 392 317 L 524.04296875 317" stroke-miterlimit="10"/></g><g transform="translate(-110,-198) scale(1,1)"><g><path fill="none" stroke="none"/><text fill="#000000" stroke="none" font-family="Arial" font-size="13px" font-style="normal" font-weight="bold" text-decoration="none" x="441.761962890625" y="243.5">Show</text></g></g><g transform="translate(-110,-198) scale(1,1)"><g><path fill="none" stroke="none"/><text fill="#000000" stroke="none" font-family="Arial" font-size="13px" font-style="normal" font-weight="normal" text-decoration="none" x="397" y="266.5">+show_id: int</text></g></g><g transform="translate(-110,-198) scale(1,1)"><g><path fill="none" stroke="none"/><text fill="#000000" stroke="none" font-family="Arial" font-size="13px" font-style="normal" font-weight="normal" text-decoration="none" x="397" y="281.5">+title: varchar</text></g></g><g transform="translate(-110,-198) scale(1,1)"><g><path fill="none" stroke="none"/><text fill="#000000" stroke="none" font-family="Arial" font-size="13px" font-style="normal" font-weight="normal" text-decoration="none" x="397" y="296.5">+description</text></g></g><g transform="translate(-110,-198) scale(1,1)"><g><path fill="none" stroke="none"/><text fill="#000000" stroke="none" font-family="Arial" font-size="13px" font-style="normal" font-weight="normal" text-decoration="none" x="397" y="311.5">+image_url: varchar</text></g></g><g transform="translate(-110,-198) scale(1,1)"><g><path fill="none" stroke="none"/><text fill="#000000" stroke="none" font-family="Arial" font-size="13px" font-style="normal" font-weight="normal" text-decoration="none" x="397" y="334.5">+showSummary()</text></g></g><g transform="translate(-110,-198) scale(1,1)"><g><path fill="none" stroke="none"/><text fill="#000000" stroke="none" font-family="Arial" font-size="13px" font-style="normal" font-weight="normal" text-decoration="none" x="397" y="349.5">+showDetail()</text></g></g><g transform="translate(-110,-198) scale(1,1)"><path fill="none" stroke="#000000" d="M 286 293 L 392 293" stroke-miterlimit="10" stroke-dasharray="3"/></g><g transform="translate(-110,-198) scale(1,1)"><path fill="none" stroke="#000000" d="M 381.83732514237585 297.209517756016 L 392 293 L 381.83732514237585 288.790482243984" stroke-miterlimit="10"/></g></g></svg>