<svg version="1.1" xmlns="http://www.w3.org/2000/svg" xmlns:xlink="http://www.w3.org/1999/xlink" width="539" height="308"><defs/><g><g transform="translate(-246,-854) scale(1,1)"><rect fill="#C0C0C0" stroke="none" x="263" y="871" width="169.24658203125" height="240" opacity="0.2"/></g><g transform="translate(-246,-854) scale(1,1)"><rect fill="#ffffff" stroke="none" x="256" y="864" width="169.24658203125" height="240"/></g><g transform="translate(-246,-854) scale(1,1)"><path fill="none" stroke="#000000" d="M 256 864 L 425.24658203125 864 L 425.24658203125 1104 L 256 1104 L 256 864 Z Z" stroke-miterlimit="10"/></g><g transform="translate(-246,-854) scale(1,1)"><path fill="none" stroke="#000000" d="M 256 889 L 425.24658203125 889" stroke-miterlimit="10"/></g><g transform="translate(-246,-854) scale(1,1)"><path fill="none" stroke="#000000" d="M 256 1002 L 425.24658203125 1002" stroke-miterlimit="10"/></g><g transform="translate(-246,-854) scale(1,1)"><g><path fill="none" stroke="none"/><text fill="#000000" stroke="none" font-family="Arial" font-size="13px" font-style="normal" font-weight="bold" text-decoration="none" x="326.899658203125" y="883.5">User</text></g></g><g transform="translate(-246,-854) scale(1,1)"><g><path fill="none" stroke="none"/><text fill="#000000" stroke="none" font-family="Arial" font-size="13px" font-style="normal" font-weight="normal" text-decoration="none" x="261" y="906.5">+id</text></g></g><g transform="translate(-246,-854) scale(1,1)"><g><path fill="none" stroke="none"/><text fill="#000000" stroke="none" font-family="Arial" font-size="13px" font-style="normal" font-weight="normal" text-decoration="none" x="261" y="921.5">+nickname</text></g></g><g transform="translate(-246,-854) scale(1,1)"><g><path fill="none" stroke="none"/><text fill="#000000" stroke="none" font-family="Arial" font-size="13px" font-style="normal" font-weight="normal" text-decoration="none" x="261" y="936.5">+phone</text></g></g><g transform="translate(-246,-854) scale(1,1)"><g><path fill="none" stroke="none"/><text fill="#000000" stroke="none" font-family="Arial" font-size="13px" font-style="normal" font-weight="normal" text-decoration="none" x="261" y="951.5">+city</text></g></g><g transform="translate(-246,-854) scale(1,1)"><g><path fill="none" stroke="none"/><text fill="#000000" stroke="none" font-family="Arial" font-size="13px" font-style="normal" font-weight="normal" text-decoration="none" x="261" y="966.5">+password</text></g></g><g transform="translate(-246,-854) scale(1,1)"><g><path fill="none" stroke="none"/><text fill="#000000" stroke="none" font-family="Arial" font-size="13px" font-style="normal" font-weight="normal" text-decoration="none" x="261" y="981.5">+creditscore</text></g></g><g transform="translate(-246,-854) scale(1,1)"><g><path fill="none" stroke="none"/><text fill="#000000" stroke="none" font-family="Arial" font-size="13px" font-style="normal" font-weight="normal" text-decoration="none" x="261" y="996.5">+headimage</text></g></g><g transform="translate(-246,-854) scale(1,1)"><g><path fill="none" stroke="none"/><text fill="#000000" stroke="none" font-family="Arial" font-size="13px" font-style="normal" font-weight="normal" text-decoration="none" x="261" y="1019.5">+SetNickname(nickname)</text></g></g><g transform="translate(-246,-854) scale(1,1)"><g><path fill="none" stroke="none"/><text fill="#000000" stroke="none" font-family="Arial" font-size="13px" font-style="normal" font-weight="normal" text-decoration="none" x="261" y="1034.5">+SetCity(city)</text></g></g><g transform="translate(-246,-854) scale(1,1)"><g><path fill="none" stroke="none"/><text fill="#000000" stroke="none" font-family="Arial" font-size="13px" font-style="normal" font-weight="normal" text-decoration="none" x="261" y="1049.5">+SetHeadimage(image)</text></g></g><g transform="translate(-246,-854) scale(1,1)"><g><path fill="none" stroke="none"/><text fill="#000000" stroke="none" font-family="Arial" font-size="13px" font-style="normal" font-weight="normal" text-decoration="none" x="261" y="1064.5">+AddViewer(viewer)</text></g></g><g transform="translate(-246,-854) scale(1,1)"><g><path fill="none" stroke="none"/><text fill="#000000" stroke="none" font-family="Arial" font-size="13px" font-style="normal" font-weight="normal" text-decoration="none" x="261" y="1079.5">+DeleteViewer(id)</text></g></g><g transform="translate(-246,-854) scale(1,1)"><g><path fill="none" stroke="none"/><text fill="#000000" stroke="none" font-family="Arial" font-size="13px" font-style="normal" font-weight="normal" text-decoration="none" x="261" y="1094.5">+AddOrder(order)</text></g></g><g transform="translate(-246,-854) scale(1,1)"><rect fill="#C0C0C0" stroke="none" x="567" y="911" width="152" height="72" opacity="0.2"/></g><g transform="translate(-246,-854) scale(1,1)"><rect fill="#ffffff" stroke="none" x="560" y="904" width="152" height="72"/></g><g transform="translate(-246,-854) scale(1,1)"><path fill="none" stroke="#000000" d="M 560 904 L 712 904 L 712 976 L 560 976 L 560 904 Z Z" stroke-miterlimit="10"/></g><g transform="translate(-246,-854) scale(1,1)"><path fill="none" stroke="#000000" d="M 560 929 L 712 929" stroke-miterlimit="10"/></g><g transform="translate(-246,-854) scale(1,1)"><path fill="none" stroke="#000000" d="M 560 967 L 712 967" stroke-miterlimit="10"/></g><g transform="translate(-246,-854) scale(1,1)"><g><path fill="none" stroke="none"/><text fill="#000000" stroke="none" font-family="Arial" font-size="13px" font-style="normal" font-weight="bold" text-decoration="none" x="616.249267578125" y="923.5">Viewer</text></g></g><g transform="translate(-246,-854) scale(1,1)"><g><path fill="none" stroke="none"/><text fill="#000000" stroke="none" font-family="Arial" font-size="13px" font-style="normal" font-weight="normal" text-decoration="none" x="565" y="946.5">+id</text></g></g><g transform="translate(-246,-854) scale(1,1)"><g><path fill="none" stroke="none"/><text fill="#000000" stroke="none" font-family="Arial" font-size="13px" font-style="normal" font-weight="normal" text-decoration="none" x="565" y="961.5">+realname</text></g></g><g transform="translate(-246,-854) scale(1,1)"><path fill="none" stroke="#000000" d="M 560 960 L 425 960" stroke-miterlimit="10"/></g><g transform="translate(-246,-854) scale(1,1)"><g><path fill="none" stroke="none"/><text fill="#000000" stroke="none" font-family="Arial" font-size="13px" font-style="normal" font-weight="normal" text-decoration="none" x="437" y="954">1</text></g></g><g transform="translate(-246,-854) scale(1,1)"><g><path fill="none" stroke="none"/><text fill="#000000" stroke="none" font-family="Arial" font-size="13px" font-style="normal" font-weight="normal" text-decoration="none" x="525" y="954">1..*</text></g></g><g transform="translate(-246,-854) scale(1,1)"><rect fill="#C0C0C0" stroke="none" x="551" y="1039" width="231" height="120" opacity="0.2"/></g><g transform="translate(-246,-854) scale(1,1)"><rect fill="#ffffff" stroke="none" x="544" y="1032" width="231" height="120"/></g><g transform="translate(-246,-854) scale(1,1)"><path fill="none" stroke="#000000" d="M 544 1032 L 775 1032 L 775 1152 L 544 1152 L 544 1032 Z Z" stroke-miterlimit="10"/></g><g transform="translate(-246,-854) scale(1,1)"><path fill="none" stroke="#000000" d="M 544 1057 L 775 1057" stroke-miterlimit="10"/></g><g transform="translate(-246,-854) scale(1,1)"><path fill="none" stroke="#000000" d="M 544 1095 L 775 1095" stroke-miterlimit="10"/></g><g transform="translate(-246,-854) scale(1,1)"><g><path fill="none" stroke="none"/><text fill="#000000" stroke="none" font-family="Arial" font-size="13px" font-style="normal" font-weight="bold" text-decoration="none" x="621.2109375" y="1051.5">Administrator</text></g></g><g transform="translate(-246,-854) scale(1,1)"><g><path fill="none" stroke="none"/><text fill="#000000" stroke="none" font-family="Arial" font-size="13px" font-style="normal" font-weight="normal" text-decoration="none" x="549" y="1074.5">+id</text></g></g><g transform="translate(-246,-854) scale(1,1)"><g><path fill="none" stroke="none"/><text fill="#000000" stroke="none" font-family="Arial" font-size="13px" font-style="normal" font-weight="normal" text-decoration="none" x="549" y="1089.5">+name</text></g></g><g transform="translate(-246,-854) scale(1,1)"><g><path fill="none" stroke="none"/><text fill="#000000" stroke="none" font-family="Arial" font-size="13px" font-style="normal" font-weight="normal" text-decoration="none" x="549" y="1112.5">+AddShow(show)</text></g></g><g transform="translate(-246,-854) scale(1,1)"><g><path fill="none" stroke="none"/><text fill="#000000" stroke="none" font-family="Arial" font-size="13px" font-style="normal" font-weight="normal" text-decoration="none" x="549" y="1127.5">+AddIntroduction(introduction)</text></g></g><g transform="translate(-246,-854) scale(1,1)"><g><path fill="none" stroke="none"/><text fill="#000000" stroke="none" font-family="Arial" font-size="13px" font-style="normal" font-weight="normal" text-decoration="none" x="549" y="1142.5">+ChangeShow(id, showcontent)</text></g></g><g transform="translate(-246,-854) scale(1,1)"><path fill="none" stroke="#000000" d="M 425 1053 L 544 1053" stroke-miterlimit="10"/></g><g transform="translate(-246,-854) scale(1,1)"><path fill="#FFFFFF" stroke="none" d="M 523.6746502847517 1061.419035512032 L 544 1053 L 523.6746502847517 1044.580964487968"/></g><g transform="translate(-246,-854) scale(1,1)"><path fill="none" stroke="#000000" d="M 523.6746502847517 1061.419035512032 L 544 1053 L 523.6746502847517 1044.580964487968 L 523.6746502847517 1061.419035512032" stroke-miterlimit="10"/></g></g></svg>