<svg version="1.1" xmlns="http://www.w3.org/2000/svg" xmlns:xlink="http://www.w3.org/1999/xlink" width="741" height="465"><defs/><g><g transform="translate(-181,-574) scale(1,1)"><rect fill="#C0C0C0" stroke="none" x="463" y="591" width="169.24658203125" height="250" opacity="0.2"/></g><g transform="translate(-181,-574) scale(1,1)"><rect fill="#ffffff" stroke="none" x="456" y="584" width="169.24658203125" height="250"/></g><g transform="translate(-181,-574) scale(1,1)"><path fill="none" stroke="#000000" d="M 456 584 L 625.24658203125 584 L 625.24658203125 834 L 456 834 L 456 584 Z Z" stroke-miterlimit="10"/></g><g transform="translate(-181,-574) scale(1,1)"><path fill="none" stroke="#000000" d="M 456 609 L 625.24658203125 609" stroke-miterlimit="10"/></g><g transform="translate(-181,-574) scale(1,1)"><path fill="none" stroke="#000000" d="M 456 737 L 625.24658203125 737" stroke-miterlimit="10"/></g><g transform="translate(-181,-574) scale(1,1)"><g><path fill="none" stroke="none"/><text fill="#000000" stroke="none" font-family="Arial" font-size="13px" font-style="normal" font-weight="bold" text-decoration="none" x="526.899658203125" y="603.5">User</text></g></g><g transform="translate(-181,-574) scale(1,1)"><g><path fill="none" stroke="none"/><text fill="#000000" stroke="none" font-family="Arial" font-size="13px" font-style="normal" font-weight="normal" text-decoration="none" x="461" y="626.5">+id</text></g></g><g transform="translate(-181,-574) scale(1,1)"><g><path fill="none" stroke="none"/><text fill="#000000" stroke="none" font-family="Arial" font-size="13px" font-style="normal" font-weight="normal" text-decoration="none" x="461" y="641.5">+nickname</text></g></g><g transform="translate(-181,-574) scale(1,1)"><g><path fill="none" stroke="none"/><text fill="#000000" stroke="none" font-family="Arial" font-size="13px" font-style="normal" font-weight="normal" text-decoration="none" x="461" y="656.5">+realname</text></g></g><g transform="translate(-181,-574) scale(1,1)"><g><path fill="none" stroke="none"/><text fill="#000000" stroke="none" font-family="Arial" font-size="13px" font-style="normal" font-weight="normal" text-decoration="none" x="461" y="671.5">+phone</text></g></g><g transform="translate(-181,-574) scale(1,1)"><g><path fill="none" stroke="none"/><text fill="#000000" stroke="none" font-family="Arial" font-size="13px" font-style="normal" font-weight="normal" text-decoration="none" x="461" y="686.5">+city</text></g></g><g transform="translate(-181,-574) scale(1,1)"><g><path fill="none" stroke="none"/><text fill="#000000" stroke="none" font-family="Arial" font-size="13px" font-style="normal" font-weight="normal" text-decoration="none" x="461" y="701.5">+password</text></g></g><g transform="translate(-181,-574) scale(1,1)"><g><path fill="none" stroke="none"/><text fill="#000000" stroke="none" font-family="Arial" font-size="13px" font-style="normal" font-weight="normal" text-decoration="none" x="461" y="716.5">+creditscore</text></g></g><g transform="translate(-181,-574) scale(1,1)"><g><path fill="none" stroke="none"/><text fill="#000000" stroke="none" font-family="Arial" font-size="13px" font-style="normal" font-weight="normal" text-decoration="none" x="461" y="731.5">+headimage</text></g></g><g transform="translate(-181,-574) scale(1,1)"><g><path fill="none" stroke="none"/><text fill="#000000" stroke="none" font-family="Arial" font-size="13px" font-style="normal" font-weight="normal" text-decoration="none" x="461" y="754.5">+SetNickname(nickname)</text></g></g><g transform="translate(-181,-574) scale(1,1)"><g><path fill="none" stroke="none"/><text fill="#000000" stroke="none" font-family="Arial" font-size="13px" font-style="normal" font-weight="normal" text-decoration="none" x="461" y="769.5">+SetCity(city)</text></g></g><g transform="translate(-181,-574) scale(1,1)"><g><path fill="none" stroke="none"/><text fill="#000000" stroke="none" font-family="Arial" font-size="13px" font-style="normal" font-weight="normal" text-decoration="none" x="461" y="784.5">+SetHeadimage(image)</text></g></g><g transform="translate(-181,-574) scale(1,1)"><g><path fill="none" stroke="none"/><text fill="#000000" stroke="none" font-family="Arial" font-size="13px" font-style="normal" font-weight="normal" text-decoration="none" x="461" y="799.5">+AddViewer(viewer)</text></g></g><g transform="translate(-181,-574) scale(1,1)"><g><path fill="none" stroke="none"/><text fill="#000000" stroke="none" font-family="Arial" font-size="13px" font-style="normal" font-weight="normal" text-decoration="none" x="461" y="814.5">+DeleteViewer(id)</text></g></g><g transform="translate(-181,-574) scale(1,1)"><g><path fill="none" stroke="none"/><text fill="#000000" stroke="none" font-family="Arial" font-size="13px" font-style="normal" font-weight="normal" text-decoration="none" x="461" y="829.5">+AddOrder(order)</text></g></g><g transform="translate(-181,-574) scale(1,1)"><rect fill="#C0C0C0" stroke="none" x="198" y="656" width="152" height="72" opacity="0.2"/></g><g transform="translate(-181,-574) scale(1,1)"><rect fill="#ffffff" stroke="none" x="191" y="649" width="152" height="72"/></g><g transform="translate(-181,-574) scale(1,1)"><path fill="none" stroke="#000000" d="M 191 649 L 343 649 L 343 721 L 191 721 L 191 649 Z Z" stroke-miterlimit="10"/></g><g transform="translate(-181,-574) scale(1,1)"><path fill="none" stroke="#000000" d="M 191 674 L 343 674" stroke-miterlimit="10"/></g><g transform="translate(-181,-574) scale(1,1)"><path fill="none" stroke="#000000" d="M 191 712 L 343 712" stroke-miterlimit="10"/></g><g transform="translate(-181,-574) scale(1,1)"><g><path fill="none" stroke="none"/><text fill="#000000" stroke="none" font-family="Arial" font-size="13px" font-style="normal" font-weight="bold" text-decoration="none" x="247.249267578125" y="668.5">Viewer</text></g></g><g transform="translate(-181,-574) scale(1,1)"><g><path fill="none" stroke="none"/><text fill="#000000" stroke="none" font-family="Arial" font-size="13px" font-style="normal" font-weight="normal" text-decoration="none" x="196" y="691.5">+id</text></g></g><g transform="translate(-181,-574) scale(1,1)"><g><path fill="none" stroke="none"/><text fill="#000000" stroke="none" font-family="Arial" font-size="13px" font-style="normal" font-weight="normal" text-decoration="none" x="196" y="706.5">+realname</text></g></g><g transform="translate(-181,-574) scale(1,1)"><rect fill="#C0C0C0" stroke="none" x="735" y="831" width="151" height="205" opacity="0.2"/></g><g transform="translate(-181,-574) scale(1,1)"><rect fill="#ffffff" stroke="none" x="728" y="824" width="151" height="205"/></g><g transform="translate(-181,-574) scale(1,1)"><path fill="none" stroke="#000000" d="M 728 824 L 879 824 L 879 1029 L 728 1029 L 728 824 Z Z" stroke-miterlimit="10"/></g><g transform="translate(-181,-574) scale(1,1)"><path fill="none" stroke="#000000" d="M 728 849 L 879 849" stroke-miterlimit="10"/></g><g transform="translate(-181,-574) scale(1,1)"><path fill="none" stroke="#000000" d="M 728 992 L 879 992" stroke-miterlimit="10"/></g><g transform="translate(-181,-574) scale(1,1)"><g><path fill="none" stroke="none"/><text fill="#000000" stroke="none" font-family="Arial" font-size="13px" font-style="normal" font-weight="bold" text-decoration="none" x="786.885009765625" y="843.5">Order</text></g></g><g transform="translate(-181,-574) scale(1,1)"><g><path fill="none" stroke="none"/><text fill="#000000" stroke="none" font-family="Arial" font-size="13px" font-style="normal" font-weight="normal" text-decoration="none" x="733" y="866.5">+id</text></g></g><g transform="translate(-181,-574) scale(1,1)"><g><path fill="none" stroke="none"/><text fill="#000000" stroke="none" font-family="Arial" font-size="13px" font-style="normal" font-weight="normal" text-decoration="none" x="733" y="881.5">+buyer</text></g></g><g transform="translate(-181,-574) scale(1,1)"><g><path fill="none" stroke="none"/><text fill="#000000" stroke="none" font-family="Arial" font-size="13px" font-style="normal" font-weight="normal" text-decoration="none" x="733" y="896.5">+viewer</text></g></g><g transform="translate(-181,-574) scale(1,1)"><g><path fill="none" stroke="none"/><text fill="#000000" stroke="none" font-family="Arial" font-size="13px" font-style="normal" font-weight="normal" text-decoration="none" x="733" y="911.5">+boughttime</text></g></g><g transform="translate(-181,-574) scale(1,1)"><g><path fill="none" stroke="none"/><text fill="#000000" stroke="none" font-family="Arial" font-size="13px" font-style="normal" font-weight="normal" text-decoration="none" x="733" y="926.5">+starttime</text></g></g><g transform="translate(-181,-574) scale(1,1)"><g><path fill="none" stroke="none"/><text fill="#000000" stroke="none" font-family="Arial" font-size="13px" font-style="normal" font-weight="normal" text-decoration="none" x="733" y="941.5">+endtime</text></g></g><g transform="translate(-181,-574) scale(1,1)"><g><path fill="none" stroke="none"/><text fill="#000000" stroke="none" font-family="Arial" font-size="13px" font-style="normal" font-weight="normal" text-decoration="none" x="733" y="956.5">+cost</text></g></g><g transform="translate(-181,-574) scale(1,1)"><g><path fill="none" stroke="none"/><text fill="#000000" stroke="none" font-family="Arial" font-size="13px" font-style="normal" font-weight="normal" text-decoration="none" x="733" y="971.5">+city</text></g></g><g transform="translate(-181,-574) scale(1,1)"><g><path fill="none" stroke="none"/><text fill="#000000" stroke="none" font-family="Arial" font-size="13px" font-style="normal" font-weight="normal" text-decoration="none" x="733" y="986.5">+state</text></g></g><g transform="translate(-181,-574) scale(1,1)"><g><path fill="none" stroke="none"/><text fill="#000000" stroke="none" font-family="Arial" font-size="13px" font-style="normal" font-weight="normal" text-decoration="none" x="733" y="1009.5">+GetState()</text></g></g><g transform="translate(-181,-574) scale(1,1)"><g><path fill="none" stroke="none"/><text fill="#000000" stroke="none" font-family="Arial" font-size="13px" font-style="normal" font-weight="normal" text-decoration="none" x="733" y="1024.5">+ChangeState(state)</text></g></g><g transform="translate(-181,-574) scale(1,1)"><path fill="none" stroke="#000000" d="M 343 689 L 456 689" stroke-miterlimit="10"/></g><g transform="translate(-181,-574) scale(1,1)"><path fill="none" stroke="#000000" d="M 728 905 L 495 905 L 495 834" stroke-miterlimit="10"/></g><g transform="translate(-181,-574) scale(1,1)"><g><path fill="none" stroke="none"/><text fill="#000000" stroke="none" font-family="Arial" font-size="13px" font-style="normal" font-weight="normal" text-decoration="none" x="444" y="683">1</text></g></g><g transform="translate(-181,-574) scale(1,1)"><g><path fill="none" stroke="none"/><text fill="#000000" stroke="none" font-family="Arial" font-size="13px" font-style="normal" font-weight="normal" text-decoration="none" x="348" y="683">1..*</text></g></g><g transform="translate(-181,-574) scale(1,1)"><g><path fill="none" stroke="none"/><text fill="#000000" stroke="none" font-family="Arial" font-size="13px" font-style="normal" font-weight="normal" text-decoration="none" x="500" y="875">1</text></g></g><g transform="translate(-181,-574) scale(1,1)"><g><path fill="none" stroke="none"/><text fill="#000000" stroke="none" font-family="Arial" font-size="13px" font-style="normal" font-weight="normal" text-decoration="none" x="676" y="899">0..*</text></g></g><g transform="translate(-181,-574) scale(1,1)"><path fill="none" stroke="#000000" d="M 267 721 L 267 945 L 728 945" stroke-miterlimit="10"/></g><g transform="translate(-181,-574) scale(1,1)"><g><path fill="none" stroke="none"/><text fill="#000000" stroke="none" font-family="Arial" font-size="13px" font-style="normal" font-weight="normal" text-decoration="none" x="250.5" y="748.5">1</text></g></g><g transform="translate(-181,-574) scale(1,1)"><g><path fill="none" stroke="none"/><text fill="#000000" stroke="none" font-family="Arial" font-size="13px" font-style="normal" font-weight="normal" text-decoration="none" x="702.5" y="963.5">1</text></g></g><g transform="translate(-181,-574) scale(1,1)"><rect fill="#C0C0C0" stroke="none" x="735" y="591" width="184" height="175" opacity="0.2"/></g><g transform="translate(-181,-574) scale(1,1)"><rect fill="#ffffff" stroke="none" x="728" y="584" width="184" height="175"/></g><g transform="translate(-181,-574) scale(1,1)"><path fill="none" stroke="#000000" d="M 728 584 L 912 584 L 912 759 L 728 759 L 728 584 Z Z" stroke-miterlimit="10"/></g><g transform="translate(-181,-574) scale(1,1)"><path fill="none" stroke="#000000" d="M 728 609 L 912 609" stroke-miterlimit="10"/></g><g transform="translate(-181,-574) scale(1,1)"><path fill="none" stroke="#000000" d="M 728 707 L 912 707" stroke-miterlimit="10"/></g><g transform="translate(-181,-574) scale(1,1)"><g><path fill="none" stroke="none"/><text fill="#000000" stroke="none" font-family="Arial" font-size="13px" font-style="normal" font-weight="bold" text-decoration="none" x="799.766845703125" y="603.5">Resale</text></g></g><g transform="translate(-181,-574) scale(1,1)"><g><path fill="none" stroke="none"/><text fill="#000000" stroke="none" font-family="Arial" font-size="13px" font-style="normal" font-weight="normal" text-decoration="none" x="733" y="626.5">+resale_id</text></g></g><g transform="translate(-181,-574) scale(1,1)"><g><path fill="none" stroke="none"/><text fill="#000000" stroke="none" font-family="Arial" font-size="13px" font-style="normal" font-weight="normal" text-decoration="none" x="733" y="641.5">+seller</text></g></g><g transform="translate(-181,-574) scale(1,1)"><g><path fill="none" stroke="none"/><text fill="#000000" stroke="none" font-family="Arial" font-size="13px" font-style="normal" font-weight="normal" text-decoration="none" x="733" y="656.5">+buyer</text></g></g><g transform="translate(-181,-574) scale(1,1)"><g><path fill="none" stroke="none"/><text fill="#000000" stroke="none" font-family="Arial" font-size="13px" font-style="normal" font-weight="normal" text-decoration="none" x="733" y="671.5">+publish_time</text></g></g><g transform="translate(-181,-574) scale(1,1)"><g><path fill="none" stroke="none"/><text fill="#000000" stroke="none" font-family="Arial" font-size="13px" font-style="normal" font-weight="normal" text-decoration="none" x="733" y="686.5">+order_id</text></g></g><g transform="translate(-181,-574) scale(1,1)"><g><path fill="none" stroke="none"/><text fill="#000000" stroke="none" font-family="Arial" font-size="13px" font-style="normal" font-weight="normal" text-decoration="none" x="733" y="701.5">+status</text></g></g><g transform="translate(-181,-574) scale(1,1)"><g><path fill="none" stroke="none"/><text fill="#000000" stroke="none" font-family="Arial" font-size="13px" font-style="normal" font-weight="normal" text-decoration="none" x="733" y="724.5">+PublishResale()</text></g></g><g transform="translate(-181,-574) scale(1,1)"><g><path fill="none" stroke="none"/><text fill="#000000" stroke="none" font-family="Arial" font-size="13px" font-style="normal" font-weight="normal" text-decoration="none" x="733" y="739.5">+PurchaseResale()</text></g></g><g transform="translate(-181,-574) scale(1,1)"><g><path fill="none" stroke="none"/><text fill="#000000" stroke="none" font-family="Arial" font-size="13px" font-style="normal" font-weight="normal" text-decoration="none" x="733" y="754.5">+ModifyResale()</text></g></g><g transform="translate(-181,-574) scale(1,1)"><path fill="none" stroke="#000000" d="M 625 714 L 728 714" stroke-miterlimit="10"/></g><g transform="translate(-181,-574) scale(1,1)"><g><path fill="none" stroke="none"/><text fill="#000000" stroke="none" font-family="Arial" font-size="13px" font-style="normal" font-weight="normal" text-decoration="none" x="636.5" y="732.5">1..*</text></g></g><g transform="translate(-181,-574) scale(1,1)"><g><path fill="none" stroke="none"/><text fill="#000000" stroke="none" font-family="Arial" font-size="13px" font-style="normal" font-weight="normal" text-decoration="none" x="696.5" y="732.5">0..*</text></g></g><g transform="translate(-181,-574) scale(1,1)"><path fill="none" stroke="#000000" d="M 814 759 L 814 824" stroke-miterlimit="10"/></g><g transform="translate(-181,-574) scale(1,1)"><g><path fill="none" stroke="none"/><text fill="#000000" stroke="none" font-family="Arial" font-size="13px" font-style="normal" font-weight="normal" text-decoration="none" x="816.5" y="779.5">0..1</text></g></g><g transform="translate(-181,-574) scale(1,1)"><g><path fill="none" stroke="none"/><text fill="#000000" stroke="none" font-family="Arial" font-size="13px" font-style="normal" font-weight="normal" text-decoration="none" x="797.5" y="808.5">1</text></g></g></g></svg>