<svg version="1.1" xmlns="http://www.w3.org/2000/svg" xmlns:xlink="http://www.w3.org/1999/xlink" width="924" height="932"><defs/><g><g transform="translate(-62,-126) scale(1,1)"><rect fill="#ffffff" stroke="none" x="72" y="136" width="416" height="21"/></g><g transform="translate(-62,-126) scale(1,1)"><path fill="none" stroke="#000000" d="M 72 136 L 488 136 L 488 157 L 72 157 L 72 136 Z Z" stroke-miterlimit="10" stroke-width="2"/></g><g transform="translate(-62,-126) scale(1,1)"><path fill="none" stroke="#000000" d="M 72 1048 L 72 136 L 488 136 L 488 1048" stroke-miterlimit="10" stroke-width="2"/></g><g transform="translate(-62,-126) scale(1,1)"><g><path fill="none" stroke="none"/><text fill="#000000" stroke="none" font-family="Arial" font-size="13px" font-style="normal" font-weight="normal" text-decoration="none" x="267" y="153">游客</text></g></g><g transform="translate(-62,-126) scale(1,1)"><rect fill="#ffffff" stroke="none" x="488" y="136" width="488" height="21"/></g><g transform="translate(-62,-126) scale(1,1)"><path fill="none" stroke="#000000" d="M 488 136 L 976 136 L 976 157 L 488 157 L 488 136 Z Z" stroke-miterlimit="10" stroke-width="2"/></g><g transform="translate(-62,-126) scale(1,1)"><path fill="none" stroke="#000000" d="M 488 1048 L 488 136 L 976 136 L 976 1048" stroke-miterlimit="10" stroke-width="2"/></g><g transform="translate(-62,-126) scale(1,1)"><g><path fill="none" stroke="none"/><text fill="#000000" stroke="none" font-family="Arial" font-size="13px" font-style="normal" font-weight="normal" text-decoration="none" x="719" y="153">系统</text></g></g><g transform="translate(-62,-126) scale(1,1)"><path fill="#C0C0C0" stroke="none" d="M 367 200.5 C 367 195.2532944 371.2532944 191 376.5 191 C 381.7467056 191 386 195.2532944 386 200.5 C 386 205.7467056 381.7467056 210 376.5 210 C 371.2532944 210 367 205.7467056 367 200.5 Z" opacity="0.2"/></g><g transform="translate(-62,-126) scale(1,1)"><path fill="#000000" stroke="none" d="M 360 193.5 C 360 188.2532944 364.2532944 184 369.5 184 C 374.7467056 184 379 188.2532944 379 193.5 C 379 198.7467056 374.7467056 203 369.5 203 C 364.2532944 203 360 198.7467056 360 193.5 Z"/></g><g transform="translate(-62,-126) scale(1,1)"><path fill="#C0C0C0" stroke="none" d="M 337 247 L 430 247 Q 440 247 440 257 L 440 277 Q 440 287 430 287 L 337 287 Q 327 287 327 277 L 327 257 Q 327 247 337 247 Z" opacity="0.2"/></g><g transform="translate(-62,-126) scale(1,1)"><path fill="#ffffff" stroke="none" d="M 330 240 L 423 240 Q 433 240 433 250 L 433 270 Q 433 280 423 280 L 330 280 Q 320 280 320 270 L 320 250 Q 320 240 330 240 Z"/></g><g transform="translate(-62,-126) scale(1,1)"><path fill="none" stroke="#000000" d="M 330 240 L 423 240 Q 433 240 433 250 L 433 270 Q 433 280 423 280 L 330 280 Q 320 280 320 270 L 320 250 Q 320 240 330 240 Z" stroke-miterlimit="10"/></g><g transform="translate(-62,-126) scale(1,1)"><g><path fill="none" stroke="none"/><text fill="#000000" stroke="none" font-family="Arial" font-size="13px" font-style="normal" font-weight="bold" text-decoration="none" x="337.5" y="259.5">进入注册页面</text></g></g><g transform="translate(-62,-126) scale(1,1)"><path fill="#C0C0C0" stroke="none" d="M 345 319 L 412 319 Q 422 319 422 329 L 422 349 Q 422 359 412 359 L 345 359 Q 335 359 335 349 L 335 329 Q 335 319 345 319 Z" opacity="0.2"/></g><g transform="translate(-62,-126) scale(1,1)"><path fill="#ffffff" stroke="none" d="M 338 312 L 405 312 Q 415 312 415 322 L 415 342 Q 415 352 405 352 L 338 352 Q 328 352 328 342 L 328 322 Q 328 312 338 312 Z"/></g><g transform="translate(-62,-126) scale(1,1)"><path fill="none" stroke="#000000" d="M 338 312 L 405 312 Q 415 312 415 322 L 415 342 Q 415 352 405 352 L 338 352 Q 328 352 328 342 L 328 322 Q 328 312 338 312 Z" stroke-miterlimit="10"/></g><g transform="translate(-62,-126) scale(1,1)"><g><path fill="none" stroke="none"/><text fill="#000000" stroke="none" font-family="Arial" font-size="13px" font-style="normal" font-weight="bold" text-decoration="none" x="332.5" y="331.5">填写注册信息</text></g></g><g transform="translate(-62,-126) scale(1,1)"><path fill="#C0C0C0" stroke="none" d="M 817 607 L 949 607 Q 959 607 959 617 L 959 637 Q 959 647 949 647 L 817 647 Q 807 647 807 637 L 807 617 Q 807 607 817 607 Z" opacity="0.2"/></g><g transform="translate(-62,-126) scale(1,1)"><path fill="#ffffff" stroke="none" d="M 810 600 L 942 600 Q 952 600 952 610 L 952 630 Q 952 640 942 640 L 810 640 Q 800 640 800 630 L 800 610 Q 800 600 810 600 Z"/></g><g transform="translate(-62,-126) scale(1,1)"><path fill="none" stroke="#000000" d="M 810 600 L 942 600 Q 952 600 952 610 L 952 630 Q 952 640 942 640 L 810 640 Q 800 640 800 630 L 800 610 Q 800 600 810 600 Z" stroke-miterlimit="10"/></g><g transform="translate(-62,-126) scale(1,1)"><g><path fill="none" stroke="none"/><text fill="#000000" stroke="none" font-family="Arial" font-size="13px" font-style="normal" font-weight="bold" text-decoration="none" x="811" y="619.5">要求用户重新输入信息</text></g></g><g transform="translate(-62,-126) scale(1,1)"><path fill="none" stroke="#000000" d="M 370 203 L 370 240" stroke-miterlimit="10"/></g><g transform="translate(-62,-126) scale(1,1)"><path fill="none" stroke="#000000" d="M 365.790482243984 229.83732514237585 L 370 240 L 374.209517756016 229.83732514237585" stroke-miterlimit="10"/></g><g transform="translate(-62,-126) scale(1,1)"><path fill="none" stroke="#000000" d="M 375 280 L 375 312" stroke-miterlimit="10"/></g><g transform="translate(-62,-126) scale(1,1)"><path fill="none" stroke="#000000" d="M 370.790482243984 301.83732514237585 L 375 312 L 379.209517756016 301.83732514237585" stroke-miterlimit="10"/></g><g transform="translate(-62,-126) scale(1,1)"><path fill="#C0C0C0" stroke="none" d="M 849 519 L 916 519 Q 926 519 926 529 L 926 549 Q 926 559 916 559 L 849 559 Q 839 559 839 549 L 839 529 Q 839 519 849 519 Z" opacity="0.2"/></g><g transform="translate(-62,-126) scale(1,1)"><path fill="#ffffff" stroke="none" d="M 842 512 L 909 512 Q 919 512 919 522 L 919 542 Q 919 552 909 552 L 842 552 Q 832 552 832 542 L 832 522 Q 832 512 842 512 Z"/></g><g transform="translate(-62,-126) scale(1,1)"><path fill="none" stroke="#000000" d="M 842 512 L 909 512 Q 919 512 919 522 L 919 542 Q 919 552 909 552 L 842 552 Q 832 552 832 542 L 832 522 Q 832 512 842 512 Z" stroke-miterlimit="10"/></g><g transform="translate(-62,-126) scale(1,1)"><g><path fill="none" stroke="none"/><text fill="#000000" stroke="none" font-family="Arial" font-size="13px" font-style="normal" font-weight="bold" text-decoration="none" x="836.5" y="531.5">显示错误信息</text></g></g><g transform="translate(-62,-126) scale(1,1)"><path fill="#C0C0C0" stroke="none" d="M 607 539.5 L 639.5 527 L 671 539.5 L 639.5 551 L 607 539.5" opacity="0.2"/></g><g transform="translate(-62,-126) scale(1,1)"><path fill="#ffffff" stroke="none" d="M 600 532 L 632 520 L 664 532 L 632 544 L 600 532"/></g><g transform="translate(-62,-126) scale(1,1)"><path fill="none" stroke="#000000" d="M 600 532 L 632 520 L 664 532 L 632 544 L 600 532 L 600 532" stroke-miterlimit="10"/></g><g transform="translate(-62,-126) scale(1,1)"><path fill="#C0C0C0" stroke="none" d="M 577 391 L 645 391 Q 655 391 655 401 L 655 421 Q 655 431 645 431 L 577 431 Q 567 431 567 421 L 567 401 Q 567 391 577 391 Z" opacity="0.2"/></g><g transform="translate(-62,-126) scale(1,1)"><path fill="#ffffff" stroke="none" d="M 570 384 L 638 384 Q 648 384 648 394 L 648 414 Q 648 424 638 424 L 570 424 Q 560 424 560 414 L 560 394 Q 560 384 570 384 Z"/></g><g transform="translate(-62,-126) scale(1,1)"><path fill="none" stroke="#000000" d="M 570 384 L 638 384 Q 648 384 648 394 L 648 414 Q 648 424 638 424 L 570 424 Q 560 424 560 414 L 560 394 Q 560 384 570 384 Z" stroke-miterlimit="10"/></g><g transform="translate(-62,-126) scale(1,1)"><g><path fill="none" stroke="none"/><text fill="#000000" stroke="none" font-family="Arial" font-size="13px" font-style="normal" font-weight="bold" text-decoration="none" x="571.5" y="403.5">验证手机号</text></g></g><g transform="translate(-62,-126) scale(1,1)"><path fill="none" stroke="#000000" d="M 664 532 L 832 532" stroke-miterlimit="10"/></g><g transform="translate(-62,-126) scale(1,1)"><path fill="none" stroke="#000000" d="M 821.8373251423759 536.209517756016 L 832 532 L 821.8373251423758 527.790482243984" stroke-miterlimit="10"/></g><g transform="translate(-62,-126) scale(1,1)"><g><path fill="none" stroke="none"/><text fill="#000000" stroke="none" font-family="Arial" font-size="13px" font-style="normal" font-weight="normal" text-decoration="none" x="708.5" y="523.5">存在非法信息</text></g></g><g transform="translate(-62,-126) scale(1,1)"><path fill="none" stroke="#000000" d="M 875 552 L 875 600" stroke-miterlimit="10"/></g><g transform="translate(-62,-126) scale(1,1)"><path fill="none" stroke="#000000" d="M 870.790482243984 589.8373251423759 L 875 600 L 879.209517756016 589.8373251423759" stroke-miterlimit="10"/></g><g transform="translate(-62,-126) scale(1,1)"><path fill="#C0C0C0" stroke="none" d="M 513 575 L 589 575 Q 599 575 599 585 L 599 605 Q 599 615 589 615 L 513 615 Q 503 615 503 605 L 503 585 Q 503 575 513 575 Z" opacity="0.2"/></g><g transform="translate(-62,-126) scale(1,1)"><path fill="#ffffff" stroke="none" d="M 506 568 L 582 568 Q 592 568 592 578 L 592 598 Q 592 608 582 608 L 506 608 Q 496 608 496 598 L 496 578 Q 496 568 506 568 Z"/></g><g transform="translate(-62,-126) scale(1,1)"><path fill="none" stroke="#000000" d="M 506 568 L 582 568 Q 592 568 592 578 L 592 598 Q 592 608 582 608 L 506 608 Q 496 608 496 598 L 496 578 Q 496 568 506 568 Z" stroke-miterlimit="10"/></g><g transform="translate(-62,-126) scale(1,1)"><g><path fill="none" stroke="none"/><text fill="#000000" stroke="none" font-family="Arial" font-size="13px" font-style="normal" font-weight="bold" text-decoration="none" x="511.5" y="587.5">发送验证码</text></g></g><g transform="translate(-62,-126) scale(1,1)"><path fill="none" stroke="#000000" d="M 600 531 L 544 531 L 544 568" stroke-miterlimit="10"/></g><g transform="translate(-62,-126) scale(1,1)"><path fill="none" stroke="#000000" d="M 539.790482243984 557.8373251423759 L 544 568 L 548.209517756016 557.8373251423759" stroke-miterlimit="10"/></g><g transform="translate(-62,-126) scale(1,1)"><g><path fill="none" stroke="none"/><text fill="#000000" stroke="none" font-family="Arial" font-size="13px" font-style="normal" font-weight="normal" text-decoration="none" x="526.5" y="527.5">全部正确</text></g></g><g transform="translate(-62,-126) scale(1,1)"><path fill="none" stroke="#000000" d="M 496 588 L 322 588" stroke-miterlimit="10"/></g><g transform="translate(-62,-126) scale(1,1)"><path fill="none" stroke="#000000" d="M 332.16267485762415 583.790482243984 L 322 588 L 332.16267485762415 592.209517756016" stroke-miterlimit="10"/></g><g transform="translate(-62,-126) scale(1,1)"><path fill="#C0C0C0" stroke="none" d="M 265 575 L 319 575 Q 329 575 329 585 L 329 605 Q 329 615 319 615 L 265 615 Q 255 615 255 605 L 255 585 Q 255 575 265 575 Z" opacity="0.2"/></g><g transform="translate(-62,-126) scale(1,1)"><path fill="#ffffff" stroke="none" d="M 258 568 L 312 568 Q 322 568 322 578 L 322 598 Q 322 608 312 608 L 258 608 Q 248 608 248 598 L 248 578 Q 248 568 258 568 Z"/></g><g transform="translate(-62,-126) scale(1,1)"><path fill="none" stroke="#000000" d="M 258 568 L 312 568 Q 322 568 322 578 L 322 598 Q 322 608 312 608 L 258 608 Q 248 608 248 598 L 248 578 Q 248 568 258 568 Z" stroke-miterlimit="10"/></g><g transform="translate(-62,-126) scale(1,1)"><g><path fill="none" stroke="none"/><text fill="#000000" stroke="none" font-family="Arial" font-size="13px" font-style="normal" font-weight="bold" text-decoration="none" x="252.5" y="587.5">接收验证码</text></g></g><g transform="translate(-62,-126) scale(1,1)"><path fill="#ffffff" stroke="none" d="M 393.225830078125 696 L 416.225830078125 696 L 393.225830078125 719 L 416.225830078125 719 L 393.225830078125 696"/></g><g transform="translate(-62,-126) scale(1,1)"><path fill="none" stroke="#000000" d="M 393.225830078125 696 L 416.225830078125 696 L 393.225830078125 719 L 416.225830078125 719 L 393.225830078125 696 L 393.225830078125 696" stroke-miterlimit="10"/></g><g transform="translate(-62,-126) scale(1,1)"><g><path fill="none" stroke="none"/><text fill="#000000" stroke="none" font-family="Arial" font-size="13px" font-style="normal" font-weight="bold" text-decoration="none" x="381.245849609375" y="738.5">等待30s</text></g></g><g transform="translate(-62,-126) scale(1,1)"><path fill="#C0C0C0" stroke="none" d="M 345 775 L 477 775 Q 487 775 487 785 L 487 805 Q 487 815 477 815 L 345 815 Q 335 815 335 805 L 335 785 Q 335 775 345 775 Z" opacity="0.2"/></g><g transform="translate(-62,-126) scale(1,1)"><path fill="#ffffff" stroke="none" d="M 338 768 L 470 768 Q 480 768 480 778 L 480 798 Q 480 808 470 808 L 338 808 Q 328 808 328 798 L 328 778 Q 328 768 338 768 Z"/></g><g transform="translate(-62,-126) scale(1,1)"><path fill="none" stroke="#000000" d="M 338 768 L 470 768 Q 480 768 480 778 L 480 798 Q 480 808 470 808 L 338 808 Q 328 808 328 798 L 328 778 Q 328 768 338 768 Z" stroke-miterlimit="10"/></g><g transform="translate(-62,-126) scale(1,1)"><g><path fill="none" stroke="none"/><text fill="#000000" stroke="none" font-family="Arial" font-size="13px" font-style="normal" font-weight="bold" text-decoration="none" x="332.5" y="787.5">请求系统再次发送验证码</text></g></g><g transform="translate(-62,-126) scale(1,1)"><path fill="none" stroke="#000000" d="M 404 745 L 404 767" stroke-miterlimit="10"/></g><g transform="translate(-62,-126) scale(1,1)"><path fill="none" stroke="#000000" d="M 399.790482243984 756.8373251423759 L 404 767 L 408.209517756016 756.8373251423759" stroke-miterlimit="10"/></g><g transform="translate(-62,-126) scale(1,1)"><path fill="none" stroke="#000000" d="M 480 786 L 544 786 L 544 608" stroke-miterlimit="10"/></g><g transform="translate(-62,-126) scale(1,1)"><path fill="none" stroke="#000000" d="M 548.209517756016 618.1626748576241 L 544 608 L 539.790482243984 618.1626748576241" stroke-miterlimit="10"/></g><g transform="translate(-62,-126) scale(1,1)"><path fill="#C0C0C0" stroke="none" d="M 265 831 L 319 831 Q 329 831 329 841 L 329 861 Q 329 871 319 871 L 265 871 Q 255 871 255 861 L 255 841 Q 255 831 265 831 Z" opacity="0.2"/></g><g transform="translate(-62,-126) scale(1,1)"><path fill="#ffffff" stroke="none" d="M 258 824 L 312 824 Q 322 824 322 834 L 322 854 Q 322 864 312 864 L 258 864 Q 248 864 248 854 L 248 834 Q 248 824 258 824 Z"/></g><g transform="translate(-62,-126) scale(1,1)"><path fill="none" stroke="#000000" d="M 258 824 L 312 824 Q 322 824 322 834 L 322 854 Q 322 864 312 864 L 258 864 Q 248 864 248 854 L 248 834 Q 248 824 258 824 Z" stroke-miterlimit="10"/></g><g transform="translate(-62,-126) scale(1,1)"><g><path fill="none" stroke="none"/><text fill="#000000" stroke="none" font-family="Arial" font-size="13px" font-style="normal" font-weight="bold" text-decoration="none" x="252.5" y="843.5">输入验证码</text></g></g><g transform="translate(-62,-126) scale(1,1)"><path fill="#C0C0C0" stroke="none" d="M 641 711 L 747 711 Q 757 711 757 721 L 757 741 Q 757 751 747 751 L 641 751 Q 631 751 631 741 L 631 721 Q 631 711 641 711 Z" opacity="0.2"/></g><g transform="translate(-62,-126) scale(1,1)"><path fill="#ffffff" stroke="none" d="M 634 704 L 740 704 Q 750 704 750 714 L 750 734 Q 750 744 740 744 L 634 744 Q 624 744 624 734 L 624 714 Q 624 704 634 704 Z"/></g><g transform="translate(-62,-126) scale(1,1)"><path fill="none" stroke="#000000" d="M 634 704 L 740 704 Q 750 704 750 714 L 750 734 Q 750 744 740 744 L 634 744 Q 624 744 624 734 L 624 714 Q 624 704 634 704 Z" stroke-miterlimit="10"/></g><g transform="translate(-62,-126) scale(1,1)"><g><path fill="none" stroke="none"/><text fill="#000000" stroke="none" font-family="Arial" font-size="13px" font-style="normal" font-weight="bold" text-decoration="none" x="628.5" y="723.5">验证验证码是否正确</text></g></g><g transform="translate(-62,-126) scale(1,1)"><path fill="none" stroke="#000000" d="M 322 848 L 576 848 L 576 744 L 624 744" stroke-miterlimit="10"/></g><g transform="translate(-62,-126) scale(1,1)"><path fill="none" stroke="#000000" d="M 613.8373251423759 748.209517756016 L 624 744 L 613.8373251423758 739.790482243984" stroke-miterlimit="10"/></g><g transform="translate(-62,-126) scale(1,1)"><path fill="#C0C0C0" stroke="none" d="M 663 792.5 L 695.5 783 L 727 792.5 L 695.5 801 L 663 792.5" opacity="0.2"/></g><g transform="translate(-62,-126) scale(1,1)"><path fill="#ffffff" stroke="none" d="M 656 785 L 688 776 L 720 785 L 688 794 L 656 785"/></g><g transform="translate(-62,-126) scale(1,1)"><path fill="none" stroke="#000000" d="M 656 785 L 688 776 L 720 785 L 688 794 L 656 785 L 656 785" stroke-miterlimit="10"/></g><g transform="translate(-62,-126) scale(1,1)"><path fill="none" stroke="#000000" d="M 687 745 L 688 775" stroke-miterlimit="10"/></g><g transform="translate(-62,-126) scale(1,1)"><path fill="none" stroke="#000000" d="M 683.4542511303202 764.9832057416654 L 688 775 L 691.8686132944972 764.7027270028594" stroke-miterlimit="10"/></g><g transform="translate(-62,-126) scale(1,1)"><path fill="none" stroke="#000000" d="M 720 785 L 792 785 L 792 592 L 592 592" stroke-miterlimit="10"/></g><g transform="translate(-62,-126) scale(1,1)"><path fill="none" stroke="#000000" d="M 602.1626748576241 587.790482243984 L 592 592 L 602.1626748576241 596.209517756016" stroke-miterlimit="10"/></g><g transform="translate(-62,-126) scale(1,1)"><g><path fill="none" stroke="none"/><text fill="#000000" stroke="none" font-family="Arial" font-size="13px" font-style="normal" font-weight="normal" text-decoration="none" x="735.5" y="780.5">不正确</text></g></g><g transform="translate(-62,-126) scale(1,1)"><path fill="#C0C0C0" stroke="none" d="M 649 871 L 742 871 Q 752 871 752 881 L 752 901 Q 752 911 742 911 L 649 911 Q 639 911 639 901 L 639 881 Q 639 871 649 871 Z" opacity="0.2"/></g><g transform="translate(-62,-126) scale(1,1)"><path fill="#ffffff" stroke="none" d="M 642 864 L 735 864 Q 745 864 745 874 L 745 894 Q 745 904 735 904 L 642 904 Q 632 904 632 894 L 632 874 Q 632 864 642 864 Z"/></g><g transform="translate(-62,-126) scale(1,1)"><path fill="none" stroke="#000000" d="M 642 864 L 735 864 Q 745 864 745 874 L 745 894 Q 745 904 735 904 L 642 904 Q 632 904 632 894 L 632 874 Q 632 864 642 864 Z" stroke-miterlimit="10"/></g><g transform="translate(-62,-126) scale(1,1)"><g><path fill="none" stroke="none"/><text fill="#000000" stroke="none" font-family="Arial" font-size="13px" font-style="normal" font-weight="bold" text-decoration="none" x="636.5" y="883.5">保存用户注册信息</text></g></g><g transform="translate(-62,-126) scale(1,1)"><path fill="none" stroke="#000000" d="M 688 795 L 688 863" stroke-miterlimit="10"/></g><g transform="translate(-62,-126) scale(1,1)"><path fill="none" stroke="#000000" d="M 683.790482243984 852.8373251423759 L 688 863 L 692.209517756016 852.8373251423759" stroke-miterlimit="10"/></g><g transform="translate(-62,-126) scale(1,1)"><g><path fill="none" stroke="none"/><text fill="#000000" stroke="none" font-family="Arial" font-size="13px" font-style="normal" font-weight="normal" text-decoration="none" x="688.5" y="834.5">正确</text></g></g><g transform="translate(-62,-126) scale(1,1)"><path fill="#C0C0C0" stroke="none" d="M 250 647 L 329 647 Q 332 647 332 650 L 332 649 Q 332 652 329 652 L 250 652 Q 247 652 247 649 L 247 650 Q 247 647 250 647 Z" opacity="0.2"/></g><g transform="translate(-62,-126) scale(1,1)"><path fill="#000000" stroke="none" d="M 243 640 L 322 640 Q 325 640 325 643 L 325 643 Q 325 646 322 646 L 243 646 Q 240 646 240 643 L 240 643 Q 240 640 243 640 Z"/></g><g transform="translate(-62,-126) scale(1,1)"><path fill="none" stroke="#000000" d="M 284 608 L 284 640" stroke-miterlimit="10"/></g><g transform="translate(-62,-126) scale(1,1)"><path fill="none" stroke="#000000" d="M 279.790482243984 629.8373251423759 L 284 640 L 288.209517756016 629.8373251423759" stroke-miterlimit="10"/></g><g transform="translate(-62,-126) scale(1,1)"><path fill="none" stroke="#000000" d="M 282 645 L 282 824" stroke-miterlimit="10"/></g><g transform="translate(-62,-126) scale(1,1)"><path fill="none" stroke="#000000" d="M 277.790482243984 813.8373251423759 L 282 824 L 286.209517756016 813.8373251423759" stroke-miterlimit="10"/></g><g transform="translate(-62,-126) scale(1,1)"><path fill="none" stroke="#000000" d="M 288 646 L 375 701" stroke-miterlimit="10"/></g><g transform="translate(-62,-126) scale(1,1)"><path fill="none" stroke="#000000" d="M 364.16052669496486 699.1276169009973 L 375 701 L 368.659309707803 692.0113601352352" stroke-miterlimit="10"/></g><g transform="translate(-62,-126) scale(1,1)"><path fill="none" stroke="#000000" d="M 936 600 L 936 264 L 433 264" stroke-miterlimit="10"/></g><g transform="translate(-62,-126) scale(1,1)"><path fill="none" stroke="#000000" d="M 443.16267485762415 259.790482243984 L 433 264 L 443.16267485762415 268.209517756016" stroke-miterlimit="10"/></g><g transform="translate(-62,-126) scale(1,1)"><path fill="#C0C0C0" stroke="none" d="M 130 383 L 468 383 Q 471 383 471 386 L 471 385 Q 471 388 468 388 L 130 388 Q 127 388 127 385 L 127 386 Q 127 383 130 383 Z" opacity="0.2"/></g><g transform="translate(-62,-126) scale(1,1)"><path fill="#000000" stroke="none" d="M 123 376 L 461 376 Q 464 376 464 379 L 464 379 Q 464 382 461 382 L 123 382 Q 120 382 120 379 L 120 379 Q 120 376 123 376 Z"/></g><g transform="translate(-62,-126) scale(1,1)"><path fill="#C0C0C0" stroke="none" d="M 137 415 L 191 415 Q 201 415 201 425 L 201 445 Q 201 455 191 455 L 137 455 Q 127 455 127 445 L 127 425 Q 127 415 137 415 Z" opacity="0.2"/></g><g transform="translate(-62,-126) scale(1,1)"><path fill="#ffffff" stroke="none" d="M 130 408 L 184 408 Q 194 408 194 418 L 194 438 Q 194 448 184 448 L 130 448 Q 120 448 120 438 L 120 418 Q 120 408 130 408 Z"/></g><g transform="translate(-62,-126) scale(1,1)"><path fill="none" stroke="#000000" d="M 130 408 L 184 408 Q 194 408 194 418 L 194 438 Q 194 448 184 448 L 130 448 Q 120 448 120 438 L 120 418 Q 120 408 130 408 Z" stroke-miterlimit="10"/></g><g transform="translate(-62,-126) scale(1,1)"><g><path fill="none" stroke="none"/><text fill="#000000" stroke="none" font-family="Arial" font-size="13px" font-style="normal" font-weight="bold" text-decoration="none" x="124.5" y="427.5">填写手机号</text></g></g><g transform="translate(-62,-126) scale(1,1)"><path fill="#C0C0C0" stroke="none" d="M 329 415 L 370 415 Q 380 415 380 425 L 380 445 Q 380 455 370 455 L 329 455 Q 319 455 319 445 L 319 425 Q 319 415 329 415 Z" opacity="0.2"/></g><g transform="translate(-62,-126) scale(1,1)"><path fill="#ffffff" stroke="none" d="M 322 408 L 363 408 Q 373 408 373 418 L 373 438 Q 373 448 363 448 L 322 448 Q 312 448 312 438 L 312 418 Q 312 408 322 408 Z"/></g><g transform="translate(-62,-126) scale(1,1)"><path fill="none" stroke="#000000" d="M 322 408 L 363 408 Q 373 408 373 418 L 373 438 Q 373 448 363 448 L 322 448 Q 312 448 312 438 L 312 418 Q 312 408 322 408 Z" stroke-miterlimit="10"/></g><g transform="translate(-62,-126) scale(1,1)"><g><path fill="none" stroke="none"/><text fill="#000000" stroke="none" font-family="Arial" font-size="13px" font-style="normal" font-weight="bold" text-decoration="none" x="316.5" y="427.5">选择城市</text></g></g><g transform="translate(-62,-126) scale(1,1)"><path fill="#C0C0C0" stroke="none" d="M 233 415 L 287 415 Q 297 415 297 425 L 297 445 Q 297 455 287 455 L 233 455 Q 223 455 223 445 L 223 425 Q 223 415 233 415 Z" opacity="0.2"/></g><g transform="translate(-62,-126) scale(1,1)"><path fill="#ffffff" stroke="none" d="M 226 408 L 280 408 Q 290 408 290 418 L 290 438 Q 290 448 280 448 L 226 448 Q 216 448 216 438 L 216 418 Q 216 408 226 408 Z"/></g><g transform="translate(-62,-126) scale(1,1)"><path fill="none" stroke="#000000" d="M 226 408 L 280 408 Q 290 408 290 418 L 290 438 Q 290 448 280 448 L 226 448 Q 216 448 216 438 L 216 418 Q 216 408 226 408 Z" stroke-miterlimit="10"/></g><g transform="translate(-62,-126) scale(1,1)"><g><path fill="none" stroke="none"/><text fill="#000000" stroke="none" font-family="Arial" font-size="13px" font-style="normal" font-weight="bold" text-decoration="none" x="220.5" y="427.5">填写用户名</text></g></g><g transform="translate(-62,-126) scale(1,1)"><path fill="#C0C0C0" stroke="none" d="M 409 415 L 450 415 Q 460 415 460 425 L 460 445 Q 460 455 450 455 L 409 455 Q 399 455 399 445 L 399 425 Q 399 415 409 415 Z" opacity="0.2"/></g><g transform="translate(-62,-126) scale(1,1)"><path fill="#ffffff" stroke="none" d="M 402 408 L 443 408 Q 453 408 453 418 L 453 438 Q 453 448 443 448 L 402 448 Q 392 448 392 438 L 392 418 Q 392 408 402 408 Z"/></g><g transform="translate(-62,-126) scale(1,1)"><path fill="none" stroke="#000000" d="M 402 408 L 443 408 Q 453 408 453 418 L 453 438 Q 453 448 443 448 L 402 448 Q 392 448 392 438 L 392 418 Q 392 408 402 408 Z" stroke-miterlimit="10"/></g><g transform="translate(-62,-126) scale(1,1)"><g><path fill="none" stroke="none"/><text fill="#000000" stroke="none" font-family="Arial" font-size="13px" font-style="normal" font-weight="bold" text-decoration="none" x="396.5" y="427.5">上传头像</text></g></g><g transform="translate(-62,-126) scale(1,1)"><path fill="#C0C0C0" stroke="none" d="M 697 391 L 764 391 Q 774 391 774 401 L 774 421 Q 774 431 764 431 L 697 431 Q 687 431 687 421 L 687 401 Q 687 391 697 391 Z" opacity="0.2"/></g><g transform="translate(-62,-126) scale(1,1)"><path fill="#ffffff" stroke="none" d="M 690 384 L 757 384 Q 767 384 767 394 L 767 414 Q 767 424 757 424 L 690 424 Q 680 424 680 414 L 680 394 Q 680 384 690 384 Z"/></g><g transform="translate(-62,-126) scale(1,1)"><path fill="none" stroke="#000000" d="M 690 384 L 757 384 Q 767 384 767 394 L 767 414 Q 767 424 757 424 L 690 424 Q 680 424 680 414 L 680 394 Q 680 384 690 384 Z" stroke-miterlimit="10"/></g><g transform="translate(-62,-126) scale(1,1)"><g><path fill="none" stroke="none"/><text fill="#000000" stroke="none" font-family="Arial" font-size="13px" font-style="normal" font-weight="bold" text-decoration="none" x="684.5" y="403.5">检查密码强度</text></g></g><g transform="translate(-62,-126) scale(1,1)"><path fill="#C0C0C0" stroke="none" d="M 130 495 L 468 495 Q 471 495 471 498 L 471 497 Q 471 500 468 500 L 130 500 Q 127 500 127 497 L 127 498 Q 127 495 130 495 Z" opacity="0.2"/></g><g transform="translate(-62,-126) scale(1,1)"><path fill="#000000" stroke="none" d="M 123 488 L 461 488 Q 464 488 464 491 L 464 491 Q 464 494 461 494 L 123 494 Q 120 494 120 491 L 120 491 Q 120 488 123 488 Z"/></g><g transform="translate(-62,-126) scale(1,1)"><path fill="none" stroke="#000000" d="M 160 381 L 160 408" stroke-miterlimit="10"/></g><g transform="translate(-62,-126) scale(1,1)"><path fill="none" stroke="#000000" d="M 155.790482243984 397.83732514237585 L 160 408 L 164.209517756016 397.83732514237585" stroke-miterlimit="10"/></g><g transform="translate(-62,-126) scale(1,1)"><path fill="none" stroke="#000000" d="M 264 381 L 264 408" stroke-miterlimit="10"/></g><g transform="translate(-62,-126) scale(1,1)"><path fill="none" stroke="#000000" d="M 259.790482243984 397.83732514237585 L 264 408 L 268.209517756016 397.83732514237585" stroke-miterlimit="10"/></g><g transform="translate(-62,-126) scale(1,1)"><path fill="none" stroke="#000000" d="M 328 381 L 328 408" stroke-miterlimit="10"/></g><g transform="translate(-62,-126) scale(1,1)"><path fill="none" stroke="#000000" d="M 323.790482243984 397.83732514237585 L 328 408 L 332.209517756016 397.83732514237585" stroke-miterlimit="10"/></g><g transform="translate(-62,-126) scale(1,1)"><path fill="none" stroke="#000000" d="M 424 381 L 424 408" stroke-miterlimit="10"/></g><g transform="translate(-62,-126) scale(1,1)"><path fill="none" stroke="#000000" d="M 419.790482243984 397.83732514237585 L 424 408 L 428.209517756016 397.83732514237585" stroke-miterlimit="10"/></g><g transform="translate(-62,-126) scale(1,1)"><path fill="none" stroke="#000000" d="M 157 448 L 157 488" stroke-miterlimit="10"/></g><g transform="translate(-62,-126) scale(1,1)"><path fill="none" stroke="#000000" d="M 152.790482243984 477.83732514237585 L 157 488 L 161.209517756016 477.83732514237585" stroke-miterlimit="10"/></g><g transform="translate(-62,-126) scale(1,1)"><path fill="none" stroke="#000000" d="M 266 448 L 266 488" stroke-miterlimit="10"/></g><g transform="translate(-62,-126) scale(1,1)"><path fill="none" stroke="#000000" d="M 261.790482243984 477.83732514237585 L 266 488 L 270.209517756016 477.83732514237585" stroke-miterlimit="10"/></g><g transform="translate(-62,-126) scale(1,1)"><path fill="none" stroke="#000000" d="M 325 448 L 325 488" stroke-miterlimit="10"/></g><g transform="translate(-62,-126) scale(1,1)"><path fill="none" stroke="#000000" d="M 320.790482243984 477.83732514237585 L 325 488 L 329.209517756016 477.83732514237585" stroke-miterlimit="10"/></g><g transform="translate(-62,-126) scale(1,1)"><path fill="none" stroke="#000000" d="M 422 448 L 422 488" stroke-miterlimit="10"/></g><g transform="translate(-62,-126) scale(1,1)"><path fill="none" stroke="#000000" d="M 417.790482243984 477.83732514237585 L 422 488 L 426.209517756016 477.83732514237585" stroke-miterlimit="10"/></g><g transform="translate(-62,-126) scale(1,1)"><path fill="none" stroke="#000000" d="M 376 352 L 376 376" stroke-miterlimit="10"/></g><g transform="translate(-62,-126) scale(1,1)"><path fill="none" stroke="#000000" d="M 371.790482243984 365.83732514237585 L 376 376 L 380.209517756016 365.83732514237585" stroke-miterlimit="10"/></g><g transform="translate(-62,-126) scale(1,1)"><path fill="#C0C0C0" stroke="none" d="M 538 343 L 795 343 Q 798 343 798 346 L 798 345 Q 798 348 795 348 L 538 348 Q 535 348 535 345 L 535 346 Q 535 343 538 343 Z" opacity="0.2"/></g><g transform="translate(-62,-126) scale(1,1)"><path fill="#000000" stroke="none" d="M 531 336 L 788 336 Q 791 336 791 339 L 791 339 Q 791 342 788 342 L 531 342 Q 528 342 528 339 L 528 339 Q 528 336 531 336 Z"/></g><g transform="translate(-62,-126) scale(1,1)"><path fill="#C0C0C0" stroke="none" d="M 530 455 L 795 455 Q 798 455 798 458 L 798 457 Q 798 460 795 460 L 530 460 Q 527 460 527 457 L 527 458 Q 527 455 530 455 Z" opacity="0.2"/></g><g transform="translate(-62,-126) scale(1,1)"><path fill="#000000" stroke="none" d="M 523 448 L 788 448 Q 791 448 791 451 L 791 451 Q 791 454 788 454 L 523 454 Q 520 454 520 451 L 520 451 Q 520 448 523 448 Z"/></g><g transform="translate(-62,-126) scale(1,1)"><path fill="none" stroke="#000000" d="M 376 493 L 376 552 L 504 552 L 504 288 L 624 288 L 624 336" stroke-miterlimit="10"/></g><g transform="translate(-62,-126) scale(1,1)"><path fill="none" stroke="#000000" d="M 619.790482243984 325.83732514237585 L 624 336 L 628.209517756016 325.83732514237585" stroke-miterlimit="10"/></g><g transform="translate(-62,-126) scale(1,1)"><path fill="none" stroke="#000000" d="M 632 453 L 632 520" stroke-miterlimit="10"/></g><g transform="translate(-62,-126) scale(1,1)"><path fill="none" stroke="#000000" d="M 627.790482243984 509.83732514237585 L 632 520 L 636.209517756016 509.83732514237585" stroke-miterlimit="10"/></g><g transform="translate(-62,-126) scale(1,1)"><path fill="none" stroke="#000000" d="M 592 341 L 592 384" stroke-miterlimit="10"/></g><g transform="translate(-62,-126) scale(1,1)"><path fill="none" stroke="#000000" d="M 587.790482243984 373.83732514237585 L 592 384 L 596.209517756016 373.83732514237585" stroke-miterlimit="10"/></g><g transform="translate(-62,-126) scale(1,1)"><path fill="none" stroke="#000000" d="M 728 341 L 728 384" stroke-miterlimit="10"/></g><g transform="translate(-62,-126) scale(1,1)"><path fill="none" stroke="#000000" d="M 723.790482243984 373.83732514237585 L 728 384 L 732.209517756016 373.83732514237585" stroke-miterlimit="10"/></g><g transform="translate(-62,-126) scale(1,1)"><path fill="none" stroke="#000000" d="M 592 424 L 592 448" stroke-miterlimit="10"/></g><g transform="translate(-62,-126) scale(1,1)"><path fill="none" stroke="#000000" d="M 587.790482243984 437.83732514237585 L 592 448 L 596.209517756016 437.83732514237585" stroke-miterlimit="10"/></g><g transform="translate(-62,-126) scale(1,1)"><path fill="none" stroke="#000000" d="M 728 424 L 728 448" stroke-miterlimit="10"/></g><g transform="translate(-62,-126) scale(1,1)"><path fill="none" stroke="#000000" d="M 723.790482243984 437.83732514237585 L 728 448 L 732.209517756016 437.83732514237585" stroke-miterlimit="10"/></g><g transform="translate(-62,-126) scale(1,1)"><path fill="#C0C0C0" stroke="none" d="M 679 963.5 C 679 956.59644 684.59644 951 691.5 951 C 698.40356 951 704 956.59644 704 963.5 C 704 970.40356 698.40356 976 691.5 976 C 684.59644 976 679 970.40356 679 963.5 Z" opacity="0.2"/></g><g transform="translate(-62,-126) scale(1,1)"><path fill="none" stroke="#000000" d="M 672 956.5 C 672 949.59644 677.59644 944 684.5 944 C 691.40356 944 697 949.59644 697 956.5 C 697 963.40356 691.40356 969 684.5 969 C 677.59644 969 672 963.40356 672 956.5 Z" stroke-miterlimit="10"/></g><g transform="translate(-62,-126) scale(1,1)"><path fill="#000000" stroke="none" d="M 677 956.5 C 677 952.357864 680.357864 949 684.5 949 C 688.642136 949 692 952.357864 692 956.5 C 692 960.642136 688.642136 964 684.5 964 C 680.357864 964 677 960.642136 677 956.5 Z"/></g><g transform="translate(-62,-126) scale(1,1)"><path fill="none" stroke="#000000" d="M 687 904 L 687 944" stroke-miterlimit="10"/></g><g transform="translate(-62,-126) scale(1,1)"><path fill="none" stroke="#000000" d="M 682.790482243984 933.8373251423759 L 687 944 L 691.209517756016 933.8373251423759" stroke-miterlimit="10"/></g></g></svg>