<svg version="1.1" xmlns="http://www.w3.org/2000/svg" xmlns:xlink="http://www.w3.org/1999/xlink" width="805" height="297"><defs/><g><g transform="translate(-222,-126) scale(1,1)"><path fill="#C0C0C0" stroke="none" d="M 239 296.5 C 239 291.2532944 243.2532944 287 248.5 287 C 253.7467056 287 258 291.2532944 258 296.5 C 258 301.7467056 253.7467056 306 248.5 306 C 243.2532944 306 239 301.7467056 239 296.5 Z" opacity="0.2"/></g><g transform="translate(-222,-126) scale(1,1)"><path fill="#000000" stroke="none" d="M 232 289.5 C 232 284.2532944 236.2532944 280 241.5 280 C 246.7467056 280 251 284.2532944 251 289.5 C 251 294.7467056 246.7467056 299 241.5 299 C 236.2532944 299 232 294.7467056 232 289.5 Z"/></g><g transform="translate(-222,-126) scale(1,1)"><path fill="#C0C0C0" stroke="none" d="M 319 296.5 L 330.5 287 L 341 296.5 L 330.5 305 L 319 296.5" opacity="0.2"/></g><g transform="translate(-222,-126) scale(1,1)"><path fill="#ffffff" stroke="none" d="M 312 289 L 323 280 L 334 289 L 323 298 L 312 289"/></g><g transform="translate(-222,-126) scale(1,1)"><path fill="none" stroke="#000000" d="M 312 289 L 323 280 L 334 289 L 323 298 L 312 289 L 312 289" stroke-miterlimit="10"/></g><g transform="translate(-222,-126) scale(1,1)"><path fill="#C0C0C0" stroke="none" d="M 465 191 L 571 191 Q 581 191 581 201 L 581 220 Q 581 230 571 230 L 465 230 Q 455 230 455 220 L 455 201 Q 455 191 465 191 Z" opacity="0.2"/></g><g transform="translate(-222,-126) scale(1,1)"><path fill="#ffffff" stroke="none" d="M 458 184 L 564 184 Q 574 184 574 194 L 574 213 Q 574 223 564 223 L 458 223 Q 448 223 448 213 L 448 194 Q 448 184 458 184 Z"/></g><g transform="translate(-222,-126) scale(1,1)"><path fill="none" stroke="#000000" d="M 458 184 L 564 184 Q 574 184 574 194 L 574 213 Q 574 223 564 223 L 458 223 Q 448 223 448 213 L 448 194 Q 448 184 458 184 Z" stroke-miterlimit="10"/></g><g transform="translate(-222,-126) scale(1,1)"><g><path fill="none" stroke="none"/><text fill="#000000" stroke="none" font-family="Arial" font-size="13px" font-style="normal" font-weight="bold" text-decoration="none" x="472" y="203.5">等待删除状态</text></g></g><g transform="translate(-222,-126) scale(1,1)"><path fill="#C0C0C0" stroke="none" d="M 457 279 L 572 279 Q 582 279 582 289 L 582 308 Q 582 318 572 318 L 457 318 Q 447 318 447 308 L 447 289 Q 447 279 457 279 Z" opacity="0.2"/></g><g transform="translate(-222,-126) scale(1,1)"><path fill="#ffffff" stroke="none" d="M 450 272 L 565 272 Q 575 272 575 282 L 575 301 Q 575 311 565 311 L 450 311 Q 440 311 440 301 L 440 282 Q 440 272 450 272 Z"/></g><g transform="translate(-222,-126) scale(1,1)"><path fill="none" stroke="#000000" d="M 450 272 L 565 272 Q 575 272 575 282 L 575 301 Q 575 311 565 311 L 450 311 Q 440 311 440 301 L 440 282 Q 440 272 450 272 Z" stroke-miterlimit="10"/></g><g transform="translate(-222,-126) scale(1,1)"><g><path fill="none" stroke="none"/><text fill="#000000" stroke="none" font-family="Arial" font-size="13px" font-style="normal" font-weight="bold" text-decoration="none" x="468.5" y="291.5">等待添加状态</text></g></g><g transform="translate(-222,-126) scale(1,1)"><path fill="#C0C0C0" stroke="none" d="M 647 216.5 L 658.5 207 L 669 216.5 L 658.5 225 L 647 216.5" opacity="0.2"/></g><g transform="translate(-222,-126) scale(1,1)"><path fill="#ffffff" stroke="none" d="M 640 209 L 651 200 L 662 209 L 651 218 L 640 209"/></g><g transform="translate(-222,-126) scale(1,1)"><path fill="none" stroke="#000000" d="M 640 209 L 651 200 L 662 209 L 651 218 L 640 209 L 640 209" stroke-miterlimit="10"/></g><g transform="translate(-222,-126) scale(1,1)"><path fill="#C0C0C0" stroke="none" d="M 935 219.5 C 935 212.59644 940.59644 207 947.5 207 C 954.40356 207 960 212.59644 960 219.5 C 960 226.40356 954.40356 232 947.5 232 C 940.59644 232 935 226.40356 935 219.5 Z" opacity="0.2"/></g><g transform="translate(-222,-126) scale(1,1)"><path fill="none" stroke="#000000" d="M 928 212.5 C 928 205.59644 933.59644 200 940.5 200 C 947.40356 200 953 205.59644 953 212.5 C 953 219.40356 947.40356 225 940.5 225 C 933.59644 225 928 219.40356 928 212.5 Z" stroke-miterlimit="10"/></g><g transform="translate(-222,-126) scale(1,1)"><path fill="#000000" stroke="none" d="M 933 212.5 C 933 208.357864 936.357864 205 940.5 205 C 944.642136 205 948 208.357864 948 212.5 C 948 216.642136 944.642136 220 940.5 220 C 936.357864 220 933 216.642136 933 212.5 Z"/></g><g transform="translate(-222,-126) scale(1,1)"><path fill="#C0C0C0" stroke="none" d="M 999 299.5 C 999 292.59644 1004.59644 287 1011.5 287 C 1018.40356 287 1024 292.59644 1024 299.5 C 1024 306.40356 1018.40356 312 1011.5 312 C 1004.59644 312 999 306.40356 999 299.5 Z" opacity="0.2"/></g><g transform="translate(-222,-126) scale(1,1)"><path fill="none" stroke="#000000" d="M 992 292.5 C 992 285.59644 997.59644 280 1004.5 280 C 1011.40356 280 1017 285.59644 1017 292.5 C 1017 299.40356 1011.40356 305 1004.5 305 C 997.59644 305 992 299.40356 992 292.5 Z" stroke-miterlimit="10"/></g><g transform="translate(-222,-126) scale(1,1)"><path fill="#000000" stroke="none" d="M 997 292.5 C 997 288.357864 1000.357864 285 1004.5 285 C 1008.642136 285 1012 288.357864 1012 292.5 C 1012 296.642136 1008.642136 300 1004.5 300 C 1000.357864 300 997 296.642136 997 292.5 Z"/></g><g transform="translate(-222,-126) scale(1,1)"><path fill="#C0C0C0" stroke="none" d="M 623 296.5 L 634.5 287 L 645 296.5 L 634.5 305 L 623 296.5" opacity="0.2"/></g><g transform="translate(-222,-126) scale(1,1)"><path fill="#ffffff" stroke="none" d="M 616 289 L 627 280 L 638 289 L 627 298 L 616 289"/></g><g transform="translate(-222,-126) scale(1,1)"><path fill="none" stroke="#000000" d="M 616 289 L 627 280 L 638 289 L 627 298 L 616 289 L 616 289" stroke-miterlimit="10"/></g><g transform="translate(-222,-126) scale(1,1)"><path fill="#C0C0C0" stroke="none" d="M 793 199 L 860 199 Q 870 199 870 209 L 870 228 Q 870 238 860 238 L 793 238 Q 783 238 783 228 L 783 209 Q 783 199 793 199 Z" opacity="0.2"/></g><g transform="translate(-222,-126) scale(1,1)"><path fill="#ffffff" stroke="none" d="M 786 192 L 853 192 Q 863 192 863 202 L 863 221 Q 863 231 853 231 L 786 231 Q 776 231 776 221 L 776 202 Q 776 192 786 192 Z"/></g><g transform="translate(-222,-126) scale(1,1)"><path fill="none" stroke="#000000" d="M 786 192 L 853 192 Q 863 192 863 202 L 863 221 Q 863 231 853 231 L 786 231 Q 776 231 776 221 L 776 202 Q 776 192 786 192 Z" stroke-miterlimit="10"/></g><g transform="translate(-222,-126) scale(1,1)"><g><path fill="none" stroke="none"/><text fill="#000000" stroke="none" font-family="Arial" font-size="13px" font-style="normal" font-weight="bold" text-decoration="none" x="793.5" y="211.5">完成删除</text></g></g><g transform="translate(-222,-126) scale(1,1)"><path fill="#C0C0C0" stroke="none" d="M 849 279 L 908 279 Q 918 279 918 289 L 918 308 Q 918 318 908 318 L 849 318 Q 839 318 839 308 L 839 289 Q 839 279 849 279 Z" opacity="0.2"/></g><g transform="translate(-222,-126) scale(1,1)"><path fill="#ffffff" stroke="none" d="M 842 272 L 901 272 Q 911 272 911 282 L 911 301 Q 911 311 901 311 L 842 311 Q 832 311 832 301 L 832 282 Q 832 272 842 272 Z"/></g><g transform="translate(-222,-126) scale(1,1)"><path fill="none" stroke="#000000" d="M 842 272 L 901 272 Q 911 272 911 282 L 911 301 Q 911 311 901 311 L 842 311 Q 832 311 832 301 L 832 282 Q 832 272 842 272 Z" stroke-miterlimit="10"/></g><g transform="translate(-222,-126) scale(1,1)"><g><path fill="none" stroke="none"/><text fill="#000000" stroke="none" font-family="Arial" font-size="13px" font-style="normal" font-weight="bold" text-decoration="none" x="845.5" y="291.5">完成添加</text></g></g><g transform="translate(-222,-126) scale(1,1)"><path fill="none" stroke="#000000" d="M 252 289 L 311 289" stroke-miterlimit="10"/></g><g transform="translate(-222,-126) scale(1,1)"><path fill="none" stroke="#000000" d="M 300.83732514237585 293.209517756016 L 311 289 L 300.83732514237585 284.790482243984" stroke-miterlimit="10"/></g><g transform="translate(-222,-126) scale(1,1)"><path fill="none" stroke="#000000" d="M 574 209 L 640 209" stroke-miterlimit="10"/></g><g transform="translate(-222,-126) scale(1,1)"><path fill="none" stroke="#000000" d="M 629.8373251423759 213.209517756016 L 640 209 L 629.8373251423758 204.790482243984" stroke-miterlimit="10"/></g><g transform="translate(-222,-126) scale(1,1)"><path fill="none" stroke="#000000" d="M 334 282 L 424 282 L 424 208 L 448 208" stroke-miterlimit="10"/></g><g transform="translate(-222,-126) scale(1,1)"><path fill="none" stroke="#000000" d="M 437.83732514237585 212.209517756016 L 448 208 L 437.83732514237585 203.790482243984" stroke-miterlimit="10"/></g><g transform="translate(-222,-126) scale(1,1)"><g><path fill="none" stroke="none"/><text fill="#000000" stroke="none" font-family="Arial" font-size="13px" font-style="normal" font-weight="normal" text-decoration="none" x="327.5" y="276.5">选择删除观演人</text></g></g><g transform="translate(-222,-126) scale(1,1)"><path fill="none" stroke="#000000" d="M 334 296 L 440 296" stroke-miterlimit="10"/></g><g transform="translate(-222,-126) scale(1,1)"><path fill="none" stroke="#000000" d="M 429.83732514237585 300.209517756016 L 440 296 L 429.83732514237585 291.790482243984" stroke-miterlimit="10"/></g><g transform="translate(-222,-126) scale(1,1)"><g><path fill="none" stroke="none"/><text fill="#000000" stroke="none" font-family="Arial" font-size="13px" font-style="normal" font-weight="normal" text-decoration="none" x="335.5" y="316.5">选择增添观演人</text></g></g><g transform="translate(-222,-126) scale(1,1)"><path fill="none" stroke="#000000" d="M 575 290 L 616 290" stroke-miterlimit="10"/></g><g transform="translate(-222,-126) scale(1,1)"><path fill="none" stroke="#000000" d="M 605.8373251423759 294.209517756016 L 616 290 L 605.8373251423758 285.790482243984" stroke-miterlimit="10"/></g><g transform="translate(-222,-126) scale(1,1)"><path fill="none" stroke="#000000" d="M 662 210 L 776 210" stroke-miterlimit="10"/></g><g transform="translate(-222,-126) scale(1,1)"><path fill="none" stroke="#000000" d="M 765.8373251423759 214.209517756016 L 776 210 L 765.8373251423758 205.790482243984" stroke-miterlimit="10"/></g><g transform="translate(-222,-126) scale(1,1)"><g><path fill="none" stroke="none"/><text fill="#000000" stroke="none" font-family="Arial" font-size="13px" font-style="normal" font-weight="normal" text-decoration="none" x="692.5" y="201.5">确认删除</text></g></g><g transform="translate(-222,-126) scale(1,1)"><path fill="none" stroke="#000000" d="M 911 292 L 992 292" stroke-miterlimit="10"/></g><g transform="translate(-222,-126) scale(1,1)"><path fill="none" stroke="#000000" d="M 981.8373251423759 296.209517756016 L 992 292 L 981.8373251423758 287.790482243984" stroke-miterlimit="10"/></g><g transform="translate(-222,-126) scale(1,1)"><path fill="none" stroke="#000000" d="M 864 211 L 927 212" stroke-miterlimit="10"/></g><g transform="translate(-222,-126) scale(1,1)"><path fill="none" stroke="#000000" d="M 916.7717958305514 216.04769557502445 L 927 212 L 916.9054144831438 207.62972046170088" stroke-miterlimit="10"/></g><g transform="translate(-222,-126) scale(1,1)"><path fill="#C0C0C0" stroke="none" d="M 727 296.5 L 738.5 287 L 749 296.5 L 738.5 305 L 727 296.5" opacity="0.2"/></g><g transform="translate(-222,-126) scale(1,1)"><path fill="#ffffff" stroke="none" d="M 720 289 L 731 280 L 742 289 L 731 298 L 720 289"/></g><g transform="translate(-222,-126) scale(1,1)"><path fill="none" stroke="#000000" d="M 720 289 L 731 280 L 742 289 L 731 298 L 720 289 L 720 289" stroke-miterlimit="10"/></g><g transform="translate(-222,-126) scale(1,1)"><path fill="none" stroke="#000000" d="M 638 288 L 720 288" stroke-miterlimit="10"/></g><g transform="translate(-222,-126) scale(1,1)"><path fill="none" stroke="#000000" d="M 709.8373251423759 292.209517756016 L 720 288 L 709.8373251423758 283.790482243984" stroke-miterlimit="10"/></g><g transform="translate(-222,-126) scale(1,1)"><g><path fill="none" stroke="none"/><text fill="#000000" stroke="none" font-family="Arial" font-size="13px" font-style="normal" font-weight="normal" text-decoration="none" x="574.5" y="275.5">填写观演人信息并确认增添</text></g></g><g transform="translate(-222,-126) scale(1,1)"><path fill="none" stroke="#000000" d="M 742 286 L 832 286" stroke-miterlimit="10"/></g><g transform="translate(-222,-126) scale(1,1)"><path fill="none" stroke="#000000" d="M 821.8373251423759 290.209517756016 L 832 286 L 821.8373251423758 281.790482243984" stroke-miterlimit="10"/></g><g transform="translate(-222,-126) scale(1,1)"><g><path fill="none" stroke="none"/><text fill="#000000" stroke="none" font-family="Arial" font-size="13px" font-style="normal" font-weight="normal" text-decoration="none" x="742.5" y="275.5">实名信息正确</text></g></g><g transform="translate(-222,-126) scale(1,1)"><path fill="none" stroke="#000000" d="M 720 298 L 720 352 L 488 352 L 488 311" stroke-miterlimit="10"/></g><g transform="translate(-222,-126) scale(1,1)"><path fill="none" stroke="#000000" d="M 492.209517756016 321.16267485762415 L 488 311 L 483.790482243984 321.16267485762415" stroke-miterlimit="10"/></g><g transform="translate(-222,-126) scale(1,1)"><g><path fill="none" stroke="none"/><text fill="#000000" stroke="none" font-family="Arial" font-size="13px" font-style="normal" font-weight="normal" text-decoration="none" x="622.5" y="372.5">实名信息错误</text></g></g><g transform="translate(-222,-126) scale(1,1)"><path fill="none" stroke="#000000" d="M 616 298 L 616 392 L 320 392 L 320 298" stroke-miterlimit="10"/></g><g transform="translate(-222,-126) scale(1,1)"><path fill="none" stroke="#000000" d="M 324.209517756016 308.16267485762415 L 320 298 L 315.790482243984 308.16267485762415" stroke-miterlimit="10"/></g><g transform="translate(-222,-126) scale(1,1)"><g><path fill="none" stroke="none"/><text fill="#000000" stroke="none" font-family="Arial" font-size="13px" font-style="normal" font-weight="normal" text-decoration="none" x="440.5" y="413.5">取消操作</text></g></g><g transform="translate(-222,-126) scale(1,1)"><path fill="none" stroke="#000000" d="M 648 200 L 648 136 L 320 136 L 320 280" stroke-miterlimit="10"/></g><g transform="translate(-222,-126) scale(1,1)"><path fill="none" stroke="#000000" d="M 315.790482243984 269.83732514237585 L 320 280 L 324.209517756016 269.83732514237585" stroke-miterlimit="10"/></g><g transform="translate(-222,-126) scale(1,1)"><g><path fill="none" stroke="none"/><text fill="#000000" stroke="none" font-family="Arial" font-size="13px" font-style="normal" font-weight="normal" text-decoration="none" x="590.5" y="163.5">取消操作</text></g></g></g></svg>