<svg version="1.1" xmlns="http://www.w3.org/2000/svg" xmlns:xlink="http://www.w3.org/1999/xlink" width="532" height="692"><defs/><g><g transform="translate(-238,-446) scale(1,1)"><rect fill="#ffffff" stroke="none" x="248" y="456" width="263" height="21"/></g><g transform="translate(-238,-446) scale(1,1)"><path fill="none" stroke="#000000" d="M 248 456 L 511 456 L 511 477 L 248 477 L 248 456 Z Z" stroke-miterlimit="10" stroke-width="2"/></g><g transform="translate(-238,-446) scale(1,1)"><path fill="none" stroke="#000000" d="M 248 1128 L 248 456 L 511 456 L 511 1128" stroke-miterlimit="10" stroke-width="2"/></g><g transform="translate(-238,-446) scale(1,1)"><g><path fill="none" stroke="none"/><text fill="#000000" stroke="none" font-family="Arial" font-size="13px" font-style="normal" font-weight="normal" text-decoration="none" x="366.5" y="473">用户</text></g></g><g transform="translate(-238,-446) scale(1,1)"><rect fill="#ffffff" stroke="none" x="512" y="456" width="248" height="21"/></g><g transform="translate(-238,-446) scale(1,1)"><path fill="none" stroke="#000000" d="M 512 456 L 760 456 L 760 477 L 512 477 L 512 456 Z Z" stroke-miterlimit="10" stroke-width="2"/></g><g transform="translate(-238,-446) scale(1,1)"><path fill="none" stroke="#000000" d="M 512 1128 L 512 456 L 760 456 L 760 1128" stroke-miterlimit="10" stroke-width="2"/></g><g transform="translate(-238,-446) scale(1,1)"><g><path fill="none" stroke="none"/><text fill="#000000" stroke="none" font-family="Arial" font-size="13px" font-style="normal" font-weight="normal" text-decoration="none" x="623" y="473">系统</text></g></g><g transform="translate(-238,-446) scale(1,1)"><path fill="#C0C0C0" stroke="none" d="M 367 528.5 C 367 523.2532944 371.2532944 519 376.5 519 C 381.7467056 519 386 523.2532944 386 528.5 C 386 533.7467056 381.7467056 538 376.5 538 C 371.2532944 538 367 533.7467056 367 528.5 Z" opacity="0.2"/></g><g transform="translate(-238,-446) scale(1,1)"><path fill="#000000" stroke="none" d="M 360 521.5 C 360 516.2532944 364.2532944 512 369.5 512 C 374.7467056 512 379 516.2532944 379 521.5 C 379 526.7467056 374.7467056 531 369.5 531 C 364.2532944 531 360 526.7467056 360 521.5 Z"/></g><g transform="translate(-238,-446) scale(1,1)"><path fill="#C0C0C0" stroke="none" d="M 329 575 L 421 575 Q 431 575 431 585 L 431 605 Q 431 615 421 615 L 329 615 Q 319 615 319 605 L 319 585 Q 319 575 329 575 Z" opacity="0.2"/></g><g transform="translate(-238,-446) scale(1,1)"><path fill="#ffffff" stroke="none" d="M 322 568 L 414 568 Q 424 568 424 578 L 424 598 Q 424 608 414 608 L 322 608 Q 312 608 312 598 L 312 578 Q 312 568 322 568 Z"/></g><g transform="translate(-238,-446) scale(1,1)"><path fill="none" stroke="#000000" d="M 322 568 L 414 568 Q 424 568 424 578 L 424 598 Q 424 608 414 608 L 322 608 Q 312 608 312 598 L 312 578 Q 312 568 322 568 Z" stroke-miterlimit="10"/></g><g transform="translate(-238,-446) scale(1,1)"><g><path fill="none" stroke="none"/><text fill="#000000" stroke="none" font-family="Arial" font-size="13px" font-style="normal" font-weight="bold" text-decoration="none" x="329" y="587.5">选择查看订单</text></g></g><g transform="translate(-238,-446) scale(1,1)"><path fill="#C0C0C0" stroke="none" d="M 585 631 L 693 631 Q 703 631 703 641 L 703 661 Q 703 671 693 671 L 585 671 Q 575 671 575 661 L 575 641 Q 575 631 585 631 Z" opacity="0.2"/></g><g transform="translate(-238,-446) scale(1,1)"><path fill="#ffffff" stroke="none" d="M 578 624 L 686 624 Q 696 624 696 634 L 696 654 Q 696 664 686 664 L 578 664 Q 568 664 568 654 L 568 634 Q 568 624 578 624 Z"/></g><g transform="translate(-238,-446) scale(1,1)"><path fill="none" stroke="#000000" d="M 578 624 L 686 624 Q 696 624 696 634 L 696 654 Q 696 664 686 664 L 578 664 Q 568 664 568 654 L 568 634 Q 568 624 578 624 Z" stroke-miterlimit="10"/></g><g transform="translate(-238,-446) scale(1,1)"><g><path fill="none" stroke="none"/><text fill="#000000" stroke="none" font-family="Arial" font-size="13px" font-style="normal" font-weight="bold" text-decoration="none" x="580" y="643.5">获取用户订单列表</text></g></g><g transform="translate(-238,-446) scale(1,1)"><path fill="#C0C0C0" stroke="none" d="M 593 743 L 686 743 Q 696 743 696 753 L 696 773 Q 696 783 686 783 L 593 783 Q 583 783 583 773 L 583 753 Q 583 743 593 743 Z" opacity="0.2"/></g><g transform="translate(-238,-446) scale(1,1)"><path fill="#ffffff" stroke="none" d="M 586 736 L 679 736 Q 689 736 689 746 L 689 766 Q 689 776 679 776 L 586 776 Q 576 776 576 766 L 576 746 Q 576 736 586 736 Z"/></g><g transform="translate(-238,-446) scale(1,1)"><path fill="none" stroke="#000000" d="M 586 736 L 679 736 Q 689 736 689 746 L 689 766 Q 689 776 679 776 L 586 776 Q 576 776 576 766 L 576 746 Q 576 736 586 736 Z" stroke-miterlimit="10"/></g><g transform="translate(-238,-446) scale(1,1)"><g><path fill="none" stroke="none"/><text fill="#000000" stroke="none" font-family="Arial" font-size="13px" font-style="normal" font-weight="bold" text-decoration="none" x="580.5" y="755.5">提示用户没有订单</text></g></g><g transform="translate(-238,-446) scale(1,1)"><path fill="#C0C0C0" stroke="none" d="M 631 712.5 L 642.5 703 L 653 712.5 L 642.5 721 L 631 712.5" opacity="0.2"/></g><g transform="translate(-238,-446) scale(1,1)"><path fill="#ffffff" stroke="none" d="M 624 705 L 635 696 L 646 705 L 635 714 L 624 705"/></g><g transform="translate(-238,-446) scale(1,1)"><path fill="none" stroke="#000000" d="M 624 705 L 635 696 L 646 705 L 635 714 L 624 705 L 624 705" stroke-miterlimit="10"/></g><g transform="translate(-238,-446) scale(1,1)"><path fill="#C0C0C0" stroke="none" d="M 631 819.5 C 631 812.59644 636.59644 807 643.5 807 C 650.40356 807 656 812.59644 656 819.5 C 656 826.40356 650.40356 832 643.5 832 C 636.59644 832 631 826.40356 631 819.5 Z" opacity="0.2"/></g><g transform="translate(-238,-446) scale(1,1)"><path fill="none" stroke="#000000" d="M 624 812.5 C 624 805.59644 629.59644 800 636.5 800 C 643.40356 800 649 805.59644 649 812.5 C 649 819.40356 643.40356 825 636.5 825 C 629.59644 825 624 819.40356 624 812.5 Z" stroke-miterlimit="10"/></g><g transform="translate(-238,-446) scale(1,1)"><path fill="#000000" stroke="none" d="M 629 812.5 C 629 808.357864 632.357864 805 636.5 805 C 640.642136 805 644 808.357864 644 812.5 C 644 816.642136 640.642136 820 636.5 820 C 632.357864 820 629 816.642136 629 812.5 Z"/></g><g transform="translate(-238,-446) scale(1,1)"><path fill="#C0C0C0" stroke="none" d="M 313 855 L 432 855 Q 442 855 442 865 L 442 885 Q 442 895 432 895 L 313 895 Q 303 895 303 885 L 303 865 Q 303 855 313 855 Z" opacity="0.2"/></g><g transform="translate(-238,-446) scale(1,1)"><path fill="#ffffff" stroke="none" d="M 306 848 L 425 848 Q 435 848 435 858 L 435 878 Q 435 888 425 888 L 306 888 Q 296 888 296 878 L 296 858 Q 296 848 306 848 Z"/></g><g transform="translate(-238,-446) scale(1,1)"><path fill="none" stroke="#000000" d="M 306 848 L 425 848 Q 435 848 435 858 L 435 878 Q 435 888 425 888 L 306 888 Q 296 888 296 878 L 296 858 Q 296 848 306 848 Z" stroke-miterlimit="10"/></g><g transform="translate(-238,-446) scale(1,1)"><g><path fill="none" stroke="none"/><text fill="#000000" stroke="none" font-family="Arial" font-size="13px" font-style="normal" font-weight="bold" text-decoration="none" x="300.5" y="867.5">点击某一订单查看详情</text></g></g><g transform="translate(-238,-446) scale(1,1)"><path fill="none" stroke="#000000" d="M 369 531 L 369 568" stroke-miterlimit="10"/></g><g transform="translate(-238,-446) scale(1,1)"><path fill="none" stroke="#000000" d="M 364.790482243984 557.8373251423759 L 369 568 L 373.209517756016 557.8373251423759" stroke-miterlimit="10"/></g><g transform="translate(-238,-446) scale(1,1)"><path fill="none" stroke="#000000" d="M 424 592 L 632 592 L 632 624" stroke-miterlimit="10"/></g><g transform="translate(-238,-446) scale(1,1)"><path fill="none" stroke="#000000" d="M 627.790482243984 613.8373251423759 L 632 624 L 636.209517756016 613.8373251423759" stroke-miterlimit="10"/></g><g transform="translate(-238,-446) scale(1,1)"><path fill="none" stroke="#000000" d="M 633 664 L 633 696" stroke-miterlimit="10"/></g><g transform="translate(-238,-446) scale(1,1)"><path fill="none" stroke="#000000" d="M 628.790482243984 685.8373251423759 L 633 696 L 637.209517756016 685.8373251423759" stroke-miterlimit="10"/></g><g transform="translate(-238,-446) scale(1,1)"><path fill="none" stroke="#000000" d="M 635 714 L 635 736" stroke-miterlimit="10"/></g><g transform="translate(-238,-446) scale(1,1)"><path fill="none" stroke="#000000" d="M 630.790482243984 725.8373251423759 L 635 736 L 639.209517756016 725.8373251423759" stroke-miterlimit="10"/></g><g transform="translate(-238,-446) scale(1,1)"><g><path fill="none" stroke="none"/><text fill="#000000" stroke="none" font-family="Arial" font-size="13px" font-style="normal" font-weight="normal" text-decoration="none" x="638.5" y="730.5">用户没有订单</text></g></g><g transform="translate(-238,-446) scale(1,1)"><path fill="none" stroke="#000000" d="M 624 704 L 360 704 L 360 848" stroke-miterlimit="10"/></g><g transform="translate(-238,-446) scale(1,1)"><path fill="none" stroke="#000000" d="M 355.790482243984 837.8373251423759 L 360 848 L 364.209517756016 837.8373251423759" stroke-miterlimit="10"/></g><g transform="translate(-238,-446) scale(1,1)"><g><path fill="none" stroke="none"/><text fill="#000000" stroke="none" font-family="Arial" font-size="13px" font-style="normal" font-weight="normal" text-decoration="none" x="534.5" y="700.5">用户拥有订单</text></g></g><g transform="translate(-238,-446) scale(1,1)"><path fill="none" stroke="#000000" d="M 634 776 L 634 800" stroke-miterlimit="10"/></g><g transform="translate(-238,-446) scale(1,1)"><path fill="none" stroke="#000000" d="M 629.790482243984 789.8373251423759 L 634 800 L 638.209517756016 789.8373251423759" stroke-miterlimit="10"/></g><g transform="translate(-238,-446) scale(1,1)"><path fill="#C0C0C0" stroke="none" d="M 601 911 L 694 911 Q 704 911 704 921 L 704 941 Q 704 951 694 951 L 601 951 Q 591 951 591 941 L 591 921 Q 591 911 601 911 Z" opacity="0.2"/></g><g transform="translate(-238,-446) scale(1,1)"><path fill="#ffffff" stroke="none" d="M 594 904 L 687 904 Q 697 904 697 914 L 697 934 Q 697 944 687 944 L 594 944 Q 584 944 584 934 L 584 914 Q 584 904 594 904 Z"/></g><g transform="translate(-238,-446) scale(1,1)"><path fill="none" stroke="#000000" d="M 594 904 L 687 904 Q 697 904 697 914 L 697 934 Q 697 944 687 944 L 594 944 Q 584 944 584 934 L 584 914 Q 584 904 594 904 Z" stroke-miterlimit="10"/></g><g transform="translate(-238,-446) scale(1,1)"><g><path fill="none" stroke="none"/><text fill="#000000" stroke="none" font-family="Arial" font-size="13px" font-style="normal" font-weight="bold" text-decoration="none" x="588.5" y="923.5">获取订单详细信息</text></g></g><g transform="translate(-238,-446) scale(1,1)"><path fill="none" stroke="#000000" d="M 435 864 L 640 864 L 640 904" stroke-miterlimit="10"/></g><g transform="translate(-238,-446) scale(1,1)"><path fill="none" stroke="#000000" d="M 635.790482243984 893.8373251423759 L 640 904 L 644.209517756016 893.8373251423759" stroke-miterlimit="10"/></g><g transform="translate(-238,-446) scale(1,1)"><path fill="#C0C0C0" stroke="none" d="M 359 1067.5 C 359 1060.59644 364.59644 1055 371.5 1055 C 378.40356 1055 384 1060.59644 384 1067.5 C 384 1074.40356 378.40356 1080 371.5 1080 C 364.59644 1080 359 1074.40356 359 1067.5 Z" opacity="0.2"/></g><g transform="translate(-238,-446) scale(1,1)"><path fill="none" stroke="#000000" d="M 352 1060.5 C 352 1053.59644 357.59644 1048 364.5 1048 C 371.40356 1048 377 1053.59644 377 1060.5 C 377 1067.40356 371.40356 1073 364.5 1073 C 357.59644 1073 352 1067.40356 352 1060.5 Z" stroke-miterlimit="10"/></g><g transform="translate(-238,-446) scale(1,1)"><path fill="#000000" stroke="none" d="M 357 1060.5 C 357 1056.357864 360.357864 1053 364.5 1053 C 368.642136 1053 372 1056.357864 372 1060.5 C 372 1064.642136 368.642136 1068 364.5 1068 C 360.357864 1068 357 1064.642136 357 1060.5 Z"/></g><g transform="translate(-238,-446) scale(1,1)"><path fill="#C0C0C0" stroke="none" d="M 313 975 L 428 975 Q 438 975 438 985 L 438 1005 Q 438 1015 428 1015 L 313 1015 Q 303 1015 303 1005 L 303 985 Q 303 975 313 975 Z" opacity="0.2"/></g><g transform="translate(-238,-446) scale(1,1)"><path fill="#ffffff" stroke="none" d="M 306 968 L 421 968 Q 431 968 431 978 L 431 998 Q 431 1008 421 1008 L 306 1008 Q 296 1008 296 998 L 296 978 Q 296 968 306 968 Z"/></g><g transform="translate(-238,-446) scale(1,1)"><path fill="none" stroke="#000000" d="M 306 968 L 421 968 Q 431 968 431 978 L 431 998 Q 431 1008 421 1008 L 306 1008 Q 296 1008 296 998 L 296 978 Q 296 968 306 968 Z" stroke-miterlimit="10"/></g><g transform="translate(-238,-446) scale(1,1)"><g><path fill="none" stroke="none"/><text fill="#000000" stroke="none" font-family="Arial" font-size="13px" font-style="normal" font-weight="bold" text-decoration="none" x="324.5" y="987.5">查看订单详情</text></g></g><g transform="translate(-238,-446) scale(1,1)"><path fill="none" stroke="#000000" d="M 639 944 L 639 988 L 431 988" stroke-miterlimit="10"/></g><g transform="translate(-238,-446) scale(1,1)"><path fill="none" stroke="#000000" d="M 441.16267485762415 983.790482243984 L 431 988 L 441.16267485762415 992.209517756016" stroke-miterlimit="10"/></g><g transform="translate(-238,-446) scale(1,1)"><path fill="none" stroke="#000000" d="M 363 1008 L 363 1048" stroke-miterlimit="10"/></g><g transform="translate(-238,-446) scale(1,1)"><path fill="none" stroke="#000000" d="M 358.790482243984 1037.837325142376 L 363 1048 L 367.209517756016 1037.837325142376" stroke-miterlimit="10"/></g></g></svg>