<svg version="1.1" xmlns="http://www.w3.org/2000/svg" xmlns:xlink="http://www.w3.org/1999/xlink" width="685" height="116"><defs/><g><g transform="translate(-158,-133) scale(1,1)"><path fill="#C0C0C0" stroke="none" d="M 249 207 L 316 207 Q 326 207 326 217 L 326 236 Q 326 246 316 246 L 249 246 Q 239 246 239 236 L 239 217 Q 239 207 249 207 Z" opacity="0.2"/></g><g transform="translate(-158,-133) scale(1,1)"><path fill="#ffffff" stroke="none" d="M 242 200 L 309 200 Q 319 200 319 210 L 319 229 Q 319 239 309 239 L 242 239 Q 232 239 232 229 L 232 210 Q 232 200 242 200 Z"/></g><g transform="translate(-158,-133) scale(1,1)"><path fill="none" stroke="#000000" d="M 242 200 L 309 200 Q 319 200 319 210 L 319 229 Q 319 239 309 239 L 242 239 Q 232 239 232 229 L 232 210 Q 232 200 242 200 Z" stroke-miterlimit="10"/></g><g transform="translate(-158,-133) scale(1,1)"><g><path fill="none" stroke="none"/><text fill="#000000" stroke="none" font-family="Arial" font-size="13px" font-style="normal" font-weight="bold" text-decoration="none" x="236.5" y="219.5">等待修改状态</text></g></g><g transform="translate(-158,-133) scale(1,1)"><path fill="#C0C0C0" stroke="none" d="M 175 224.5 C 175 219.2532944 179.2532944 215 184.5 215 C 189.7467056 215 194 219.2532944 194 224.5 C 194 229.7467056 189.7467056 234 184.5 234 C 179.2532944 234 175 229.7467056 175 224.5 Z" opacity="0.2"/></g><g transform="translate(-158,-133) scale(1,1)"><path fill="#000000" stroke="none" d="M 168 217.5 C 168 212.2532944 172.2532944 208 177.5 208 C 182.7467056 208 187 212.2532944 187 217.5 C 187 222.7467056 182.7467056 227 177.5 227 C 172.2532944 227 168 222.7467056 168 217.5 Z"/></g><g transform="translate(-158,-133) scale(1,1)"><path fill="#C0C0C0" stroke="none" d="M 433 207 L 526 207 Q 536 207 536 217 L 536 236 Q 536 246 526 246 L 433 246 Q 423 246 423 236 L 423 217 Q 423 207 433 207 Z" opacity="0.2"/></g><g transform="translate(-158,-133) scale(1,1)"><path fill="#ffffff" stroke="none" d="M 426 200 L 519 200 Q 529 200 529 210 L 529 229 Q 529 239 519 239 L 426 239 Q 416 239 416 229 L 416 210 Q 416 200 426 200 Z"/></g><g transform="translate(-158,-133) scale(1,1)"><path fill="none" stroke="#000000" d="M 426 200 L 519 200 Q 529 200 529 210 L 529 229 Q 529 239 519 239 L 426 239 Q 416 239 416 229 L 416 210 Q 416 200 426 200 Z" stroke-miterlimit="10"/></g><g transform="translate(-158,-133) scale(1,1)"><g><path fill="none" stroke="none"/><text fill="#000000" stroke="none" font-family="Arial" font-size="13px" font-style="normal" font-weight="bold" text-decoration="none" x="433.5" y="219.5">正在修改状态</text></g></g><g transform="translate(-158,-133) scale(1,1)"><path fill="#C0C0C0" stroke="none" d="M 575 224.5 L 586.5 215 L 597 224.5 L 586.5 233 L 575 224.5" opacity="0.2"/></g><g transform="translate(-158,-133) scale(1,1)"><path fill="#ffffff" stroke="none" d="M 568 217 L 579 208 L 590 217 L 579 226 L 568 217"/></g><g transform="translate(-158,-133) scale(1,1)"><path fill="none" stroke="#000000" d="M 568 217 L 579 208 L 590 217 L 579 226 L 568 217 L 568 217" stroke-miterlimit="10"/></g><g transform="translate(-158,-133) scale(1,1)"><path fill="#C0C0C0" stroke="none" d="M 681 207 L 732 207 Q 742 207 742 217 L 742 236 Q 742 246 732 246 L 681 246 Q 671 246 671 236 L 671 217 Q 671 207 681 207 Z" opacity="0.2"/></g><g transform="translate(-158,-133) scale(1,1)"><path fill="#ffffff" stroke="none" d="M 674 200 L 725 200 Q 735 200 735 210 L 735 229 Q 735 239 725 239 L 674 239 Q 664 239 664 229 L 664 210 Q 664 200 674 200 Z"/></g><g transform="translate(-158,-133) scale(1,1)"><path fill="none" stroke="#000000" d="M 674 200 L 725 200 Q 735 200 735 210 L 735 229 Q 735 239 725 239 L 674 239 Q 664 239 664 229 L 664 210 Q 664 200 674 200 Z" stroke-miterlimit="10"/></g><g transform="translate(-158,-133) scale(1,1)"><g><path fill="none" stroke="none"/><text fill="#000000" stroke="none" font-family="Arial" font-size="13px" font-style="normal" font-weight="bold" text-decoration="none" x="673.5" y="219.5">修改成功</text></g></g><g transform="translate(-158,-133) scale(1,1)"><path fill="#C0C0C0" stroke="none" d="M 815 227.5 C 815 220.59644 820.59644 215 827.5 215 C 834.40356 215 840 220.59644 840 227.5 C 840 234.40356 834.40356 240 827.5 240 C 820.59644 240 815 234.40356 815 227.5 Z" opacity="0.2"/></g><g transform="translate(-158,-133) scale(1,1)"><path fill="none" stroke="#000000" d="M 808 220.5 C 808 213.59644 813.59644 208 820.5 208 C 827.40356 208 833 213.59644 833 220.5 C 833 227.40356 827.40356 233 820.5 233 C 813.59644 233 808 227.40356 808 220.5 Z" stroke-miterlimit="10"/></g><g transform="translate(-158,-133) scale(1,1)"><path fill="#000000" stroke="none" d="M 813 220.5 C 813 216.357864 816.357864 213 820.5 213 C 824.642136 213 828 216.357864 828 220.5 C 828 224.642136 824.642136 228 820.5 228 C 816.357864 228 813 224.642136 813 220.5 Z"/></g><g transform="translate(-158,-133) scale(1,1)"><path fill="none" stroke="#000000" d="M 187 218 L 232 218" stroke-miterlimit="10"/></g><g transform="translate(-158,-133) scale(1,1)"><path fill="none" stroke="#000000" d="M 221.83732514237585 222.209517756016 L 232 218 L 221.83732514237585 213.790482243984" stroke-miterlimit="10"/></g><g transform="translate(-158,-133) scale(1,1)"><path fill="none" stroke="#000000" d="M 319 219 L 416 219" stroke-miterlimit="10"/></g><g transform="translate(-158,-133) scale(1,1)"><path fill="none" stroke="#000000" d="M 405.83732514237585 223.209517756016 L 416 219 L 405.83732514237585 214.790482243984" stroke-miterlimit="10"/></g><g transform="translate(-158,-133) scale(1,1)"><g><path fill="none" stroke="none"/><text fill="#000000" stroke="none" font-family="Arial" font-size="13px" font-style="normal" font-weight="normal" text-decoration="none" x="327.5" y="210.5">选择修改信息</text></g></g><g transform="translate(-158,-133) scale(1,1)"><path fill="none" stroke="#000000" d="M 529 218 L 568 218" stroke-miterlimit="10"/></g><g transform="translate(-158,-133) scale(1,1)"><path fill="none" stroke="#000000" d="M 557.8373251423759 222.209517756016 L 568 218 L 557.8373251423758 213.790482243984" stroke-miterlimit="10"/></g><g transform="translate(-158,-133) scale(1,1)"><path fill="none" stroke="#000000" d="M 579 208 L 579 160 L 275 160 L 275 200" stroke-miterlimit="10"/></g><g transform="translate(-158,-133) scale(1,1)"><path fill="none" stroke="#000000" d="M 270.790482243984 189.83732514237585 L 275 200 L 279.209517756016 189.83732514237585" stroke-miterlimit="10"/></g><g transform="translate(-158,-133) scale(1,1)"><g><path fill="none" stroke="none"/><text fill="#000000" stroke="none" font-family="Arial" font-size="13px" font-style="normal" font-weight="normal" text-decoration="none" x="398.5" y="155.5">取消修改</text></g></g><g transform="translate(-158,-133) scale(1,1)"><path fill="none" stroke="#000000" d="M 590 218 L 664 218" stroke-miterlimit="10"/></g><g transform="translate(-158,-133) scale(1,1)"><path fill="none" stroke="#000000" d="M 653.8373251423759 222.209517756016 L 664 218 L 653.8373251423758 213.790482243984" stroke-miterlimit="10"/></g><g transform="translate(-158,-133) scale(1,1)"><g><path fill="none" stroke="none"/><text fill="#000000" stroke="none" font-family="Arial" font-size="13px" font-style="normal" font-weight="normal" text-decoration="none" x="598.5" y="210.5">确认修改</text></g></g><g transform="translate(-158,-133) scale(1,1)"><path fill="none" stroke="#000000" d="M 735 220 L 808 220" stroke-miterlimit="10"/></g><g transform="translate(-158,-133) scale(1,1)"><path fill="none" stroke="#000000" d="M 797.8373251423759 224.209517756016 L 808 220 L 797.8373251423758 215.790482243984" stroke-miterlimit="10"/></g></g></svg>