<svg version="1.1" xmlns="http://www.w3.org/2000/svg" xmlns:xlink="http://www.w3.org/1999/xlink" width="731" height="764"><defs/><g><g transform="translate(-30,-38) scale(1,1)"><rect fill="#ffffff" stroke="none" x="40" y="48" width="367" height="21"/></g><g transform="translate(-30,-38) scale(1,1)"><path fill="none" stroke="#000000" d="M 40 48 L 407 48 L 407 69 L 40 69 L 40 48 Z Z" stroke-miterlimit="10" stroke-width="2"/></g><g transform="translate(-30,-38) scale(1,1)"><path fill="none" stroke="#000000" d="M 40 792 L 40 48 L 407 48 L 407 792" stroke-miterlimit="10" stroke-width="2"/></g><g transform="translate(-30,-38) scale(1,1)"><g><path fill="none" stroke="none"/><text fill="#000000" stroke="none" font-family="Arial" font-size="13px" font-style="normal" font-weight="normal" text-decoration="none" x="210.5" y="65">用户</text></g></g><g transform="translate(-30,-38) scale(1,1)"><rect fill="#ffffff" stroke="none" x="408" y="48" width="343" height="21"/></g><g transform="translate(-30,-38) scale(1,1)"><path fill="none" stroke="#000000" d="M 408 48 L 751 48 L 751 69 L 408 69 L 408 48 Z Z" stroke-miterlimit="10" stroke-width="2"/></g><g transform="translate(-30,-38) scale(1,1)"><path fill="none" stroke="#000000" d="M 408 792 L 408 48 L 751 48 L 751 792" stroke-miterlimit="10" stroke-width="2"/></g><g transform="translate(-30,-38) scale(1,1)"><g><path fill="none" stroke="none"/><text fill="#000000" stroke="none" font-family="Arial" font-size="13px" font-style="normal" font-weight="normal" text-decoration="none" x="566.5" y="65">系统</text></g></g><g transform="translate(-30,-38) scale(1,1)"><path fill="#C0C0C0" stroke="none" d="M 271 128.5 C 271 123.2532944 275.2532944 119 280.5 119 C 285.7467056 119 290 123.2532944 290 128.5 C 290 133.7467056 285.7467056 138 280.5 138 C 275.2532944 138 271 133.7467056 271 128.5 Z" opacity="0.2"/></g><g transform="translate(-30,-38) scale(1,1)"><path fill="#000000" stroke="none" d="M 264 121.5 C 264 116.2532944 268.2532944 112 273.5 112 C 278.7467056 112 283 116.2532944 283 121.5 C 283 126.7467056 278.7467056 131 273.5 131 C 268.2532944 131 264 126.7467056 264 121.5 Z"/></g><g transform="translate(-30,-38) scale(1,1)"><path fill="#C0C0C0" stroke="none" d="M 529 103 L 635 103 Q 645 103 645 113 L 645 141 Q 645 151 635 151 L 529 151 Q 519 151 519 141 L 519 113 Q 519 103 529 103 Z" opacity="0.2"/></g><g transform="translate(-30,-38) scale(1,1)"><path fill="#ffffff" stroke="none" d="M 522 96 L 628 96 Q 638 96 638 106 L 638 134 Q 638 144 628 144 L 522 144 Q 512 144 512 134 L 512 106 Q 512 96 522 96 Z"/></g><g transform="translate(-30,-38) scale(1,1)"><path fill="none" stroke="#000000" d="M 522 96 L 628 96 Q 638 96 638 106 L 638 134 Q 638 144 628 144 L 522 144 Q 512 144 512 134 L 512 106 Q 512 96 522 96 Z" stroke-miterlimit="10"/></g><g transform="translate(-30,-38) scale(1,1)"><g><path fill="none" stroke="none"/><text fill="#000000" stroke="none" font-family="Arial" font-size="13px" font-style="normal" font-weight="bold" text-decoration="none" x="516.5" y="115.5">检测用户是否已登录</text></g></g><g transform="translate(-30,-38) scale(1,1)"><path fill="none" stroke="#000000" d="M 283 121 L 512 121" stroke-miterlimit="10"/></g><g transform="translate(-30,-38) scale(1,1)"><path fill="none" stroke="#000000" d="M 501.83732514237585 125.20951775601598 L 512 121 L 501.83732514237585 116.79048224398402" stroke-miterlimit="10"/></g><g transform="translate(-30,-38) scale(1,1)"><path fill="#C0C0C0" stroke="none" d="M 567 192.5 L 578.5 183 L 589 192.5 L 578.5 201 L 567 192.5" opacity="0.2"/></g><g transform="translate(-30,-38) scale(1,1)"><path fill="#ffffff" stroke="none" d="M 560 185 L 571 176 L 582 185 L 571 194 L 560 185"/></g><g transform="translate(-30,-38) scale(1,1)"><path fill="none" stroke="#000000" d="M 560 185 L 571 176 L 582 185 L 571 194 L 560 185 L 560 185" stroke-miterlimit="10"/></g><g transform="translate(-30,-38) scale(1,1)"><path fill="none" stroke="#000000" d="M 573 144 L 573 176" stroke-miterlimit="10"/></g><g transform="translate(-30,-38) scale(1,1)"><path fill="none" stroke="#000000" d="M 568.790482243984 165.83732514237585 L 573 176 L 577.209517756016 165.83732514237585" stroke-miterlimit="10"/></g><g transform="translate(-30,-38) scale(1,1)"><path fill="#C0C0C0" stroke="none" d="M 457 231 L 549 231 Q 559 231 559 241 L 559 261 Q 559 271 549 271 L 457 271 Q 447 271 447 261 L 447 241 Q 447 231 457 231 Z" opacity="0.2"/></g><g transform="translate(-30,-38) scale(1,1)"><path fill="#ffffff" stroke="none" d="M 450 224 L 542 224 Q 552 224 552 234 L 552 254 Q 552 264 542 264 L 450 264 Q 440 264 440 254 L 440 234 Q 440 224 450 224 Z"/></g><g transform="translate(-30,-38) scale(1,1)"><path fill="none" stroke="#000000" d="M 450 224 L 542 224 Q 552 224 552 234 L 552 254 Q 552 264 542 264 L 450 264 Q 440 264 440 254 L 440 234 Q 440 224 450 224 Z" stroke-miterlimit="10"/></g><g transform="translate(-30,-38) scale(1,1)"><g><path fill="none" stroke="none"/><text fill="#000000" stroke="none" font-family="Arial" font-size="13px" font-style="normal" font-weight="bold" text-decoration="none" x="457" y="243.5">返回用户信息</text></g></g><g transform="translate(-30,-38) scale(1,1)"><path fill="#C0C0C0" stroke="none" d="M 617 231 L 709 231 Q 719 231 719 241 L 719 261 Q 719 271 709 271 L 617 271 Q 607 271 607 261 L 607 241 Q 607 231 617 231 Z" opacity="0.2"/></g><g transform="translate(-30,-38) scale(1,1)"><path fill="#ffffff" stroke="none" d="M 610 224 L 702 224 Q 712 224 712 234 L 712 254 Q 712 264 702 264 L 610 264 Q 600 264 600 254 L 600 234 Q 600 224 610 224 Z"/></g><g transform="translate(-30,-38) scale(1,1)"><path fill="none" stroke="#000000" d="M 610 224 L 702 224 Q 712 224 712 234 L 712 254 Q 712 264 702 264 L 610 264 Q 600 264 600 254 L 600 234 Q 600 224 610 224 Z" stroke-miterlimit="10"/></g><g transform="translate(-30,-38) scale(1,1)"><g><path fill="none" stroke="none"/><text fill="#000000" stroke="none" font-family="Arial" font-size="13px" font-style="normal" font-weight="bold" text-decoration="none" x="617" y="243.5">转至登录界面</text></g></g><g transform="translate(-30,-38) scale(1,1)"><path fill="none" stroke="#000000" d="M 560 184 L 496 184 L 496 224" stroke-miterlimit="10"/></g><g transform="translate(-30,-38) scale(1,1)"><path fill="none" stroke="#000000" d="M 491.790482243984 213.83732514237585 L 496 224 L 500.209517756016 213.83732514237585" stroke-miterlimit="10"/></g><g transform="translate(-30,-38) scale(1,1)"><g><path fill="none" stroke="none"/><text fill="#000000" stroke="none" font-family="Arial" font-size="13px" font-style="normal" font-weight="normal" text-decoration="none" x="481.5" y="192.5">是</text></g></g><g transform="translate(-30,-38) scale(1,1)"><path fill="none" stroke="#000000" d="M 582 184 L 656 184 L 656 224" stroke-miterlimit="10"/></g><g transform="translate(-30,-38) scale(1,1)"><path fill="none" stroke="#000000" d="M 651.790482243984 213.83732514237585 L 656 224 L 660.209517756016 213.83732514237585" stroke-miterlimit="10"/></g><g transform="translate(-30,-38) scale(1,1)"><g><path fill="none" stroke="none"/><text fill="#000000" stroke="none" font-family="Arial" font-size="13px" font-style="normal" font-weight="normal" text-decoration="none" x="663.5" y="189.5">否</text></g></g><g transform="translate(-30,-38) scale(1,1)"><path fill="#C0C0C0" stroke="none" d="M 655 323.5 C 655 316.59644 660.59644 311 667.5 311 C 674.40356 311 680 316.59644 680 323.5 C 680 330.40356 674.40356 336 667.5 336 C 660.59644 336 655 330.40356 655 323.5 Z" opacity="0.2"/></g><g transform="translate(-30,-38) scale(1,1)"><path fill="none" stroke="#000000" d="M 648 316.5 C 648 309.59644 653.59644 304 660.5 304 C 667.40356 304 673 309.59644 673 316.5 C 673 323.40356 667.40356 329 660.5 329 C 653.59644 329 648 323.40356 648 316.5 Z" stroke-miterlimit="10"/></g><g transform="translate(-30,-38) scale(1,1)"><path fill="#000000" stroke="none" d="M 653 316.5 C 653 312.357864 656.357864 309 660.5 309 C 664.642136 309 668 312.357864 668 316.5 C 668 320.642136 664.642136 324 660.5 324 C 656.357864 324 653 320.642136 653 316.5 Z"/></g><g transform="translate(-30,-38) scale(1,1)"><path fill="none" stroke="#000000" d="M 660 264 L 660 304" stroke-miterlimit="10"/></g><g transform="translate(-30,-38) scale(1,1)"><path fill="none" stroke="#000000" d="M 655.790482243984 293.83732514237585 L 660 304 L 664.209517756016 293.83732514237585" stroke-miterlimit="10"/></g><g transform="translate(-30,-38) scale(1,1)"><path fill="#C0C0C0" stroke="none" d="M 209 303 L 293 303 Q 303 303 303 313 L 303 333 Q 303 343 293 343 L 209 343 Q 199 343 199 333 L 199 313 Q 199 303 209 303 Z" opacity="0.2"/></g><g transform="translate(-30,-38) scale(1,1)"><path fill="#ffffff" stroke="none" d="M 202 296 L 286 296 Q 296 296 296 306 L 296 326 Q 296 336 286 336 L 202 336 Q 192 336 192 326 L 192 306 Q 192 296 202 296 Z"/></g><g transform="translate(-30,-38) scale(1,1)"><path fill="none" stroke="#000000" d="M 202 296 L 286 296 Q 296 296 296 306 L 296 326 Q 296 336 286 336 L 202 336 Q 192 336 192 326 L 192 306 Q 192 296 202 296 Z" stroke-miterlimit="10"/></g><g transform="translate(-30,-38) scale(1,1)"><g><path fill="none" stroke="none"/><text fill="#000000" stroke="none" font-family="Arial" font-size="13px" font-style="normal" font-weight="bold" text-decoration="none" x="205" y="315.5">查看个人信息</text></g></g><g transform="translate(-30,-38) scale(1,1)"><path fill="none" stroke="#000000" d="M 440 240 L 248 240 L 248 296" stroke-miterlimit="10"/></g><g transform="translate(-30,-38) scale(1,1)"><path fill="none" stroke="#000000" d="M 243.790482243984 285.83732514237585 L 248 296 L 252.209517756016 285.83732514237585" stroke-miterlimit="10"/></g><g transform="translate(-30,-38) scale(1,1)"><path fill="#C0C0C0" stroke="none" d="M 98 383 L 388 383 Q 391 383 391 386 L 391 385 Q 391 388 388 388 L 98 388 Q 95 388 95 385 L 95 386 Q 95 383 98 383 Z" opacity="0.2"/></g><g transform="translate(-30,-38) scale(1,1)"><path fill="#000000" stroke="none" d="M 91 376 L 381 376 Q 384 376 384 379 L 384 379 Q 384 382 381 382 L 91 382 Q 88 382 88 379 L 88 379 Q 88 376 91 376 Z"/></g><g transform="translate(-30,-38) scale(1,1)"><path fill="#C0C0C0" stroke="none" d="M 113 439 L 165 439 Q 175 439 175 449 L 175 469 Q 175 479 165 479 L 113 479 Q 103 479 103 469 L 103 449 Q 103 439 113 439 Z" opacity="0.2"/></g><g transform="translate(-30,-38) scale(1,1)"><path fill="#ffffff" stroke="none" d="M 106 432 L 158 432 Q 168 432 168 442 L 168 462 Q 168 472 158 472 L 106 472 Q 96 472 96 462 L 96 442 Q 96 432 106 432 Z"/></g><g transform="translate(-30,-38) scale(1,1)"><path fill="none" stroke="#000000" d="M 106 432 L 158 432 Q 168 432 168 442 L 168 462 Q 168 472 158 472 L 106 472 Q 96 472 96 462 L 96 442 Q 96 432 106 432 Z" stroke-miterlimit="10"/></g><g transform="translate(-30,-38) scale(1,1)"><g><path fill="none" stroke="none"/><text fill="#000000" stroke="none" font-family="Arial" font-size="13px" font-style="normal" font-weight="bold" text-decoration="none" x="106" y="451.5">上传头像</text></g></g><g transform="translate(-30,-38) scale(1,1)"><path fill="#C0C0C0" stroke="none" d="M 321 439 L 373 439 Q 383 439 383 449 L 383 469 Q 383 479 373 479 L 321 479 Q 311 479 311 469 L 311 449 Q 311 439 321 439 Z" opacity="0.2"/></g><g transform="translate(-30,-38) scale(1,1)"><path fill="#ffffff" stroke="none" d="M 314 432 L 366 432 Q 376 432 376 442 L 376 462 Q 376 472 366 472 L 314 472 Q 304 472 304 462 L 304 442 Q 304 432 314 432 Z"/></g><g transform="translate(-30,-38) scale(1,1)"><path fill="none" stroke="#000000" d="M 314 432 L 366 432 Q 376 432 376 442 L 376 462 Q 376 472 366 472 L 314 472 Q 304 472 304 462 L 304 442 Q 304 432 314 432 Z" stroke-miterlimit="10"/></g><g transform="translate(-30,-38) scale(1,1)"><g><path fill="none" stroke="none"/><text fill="#000000" stroke="none" font-family="Arial" font-size="13px" font-style="normal" font-weight="bold" text-decoration="none" x="314" y="451.5">输入城市</text></g></g><g transform="translate(-30,-38) scale(1,1)"><path fill="#C0C0C0" stroke="none" d="M 217 439 L 268 439 Q 278 439 278 449 L 278 469 Q 278 479 268 479 L 217 479 Q 207 479 207 469 L 207 449 Q 207 439 217 439 Z" opacity="0.2"/></g><g transform="translate(-30,-38) scale(1,1)"><path fill="#ffffff" stroke="none" d="M 210 432 L 261 432 Q 271 432 271 442 L 271 462 Q 271 472 261 472 L 210 472 Q 200 472 200 462 L 200 442 Q 200 432 210 432 Z"/></g><g transform="translate(-30,-38) scale(1,1)"><path fill="none" stroke="#000000" d="M 210 432 L 261 432 Q 271 432 271 442 L 271 462 Q 271 472 261 472 L 210 472 Q 200 472 200 462 L 200 442 Q 200 432 210 432 Z" stroke-miterlimit="10"/></g><g transform="translate(-30,-38) scale(1,1)"><g><path fill="none" stroke="none"/><text fill="#000000" stroke="none" font-family="Arial" font-size="13px" font-style="normal" font-weight="bold" text-decoration="none" x="209.5" y="451.5">输入昵称</text></g></g><g transform="translate(-30,-38) scale(1,1)"><path fill="none" stroke="#000000" d="M 128 381 L 128 432" stroke-miterlimit="10"/></g><g transform="translate(-30,-38) scale(1,1)"><path fill="none" stroke="#000000" d="M 123.79048224398402 421.83732514237585 L 128 432 L 132.209517756016 421.83732514237585" stroke-miterlimit="10"/></g><g transform="translate(-30,-38) scale(1,1)"><path fill="none" stroke="#000000" d="M 236 381 L 236 432" stroke-miterlimit="10"/></g><g transform="translate(-30,-38) scale(1,1)"><path fill="none" stroke="#000000" d="M 231.790482243984 421.83732514237585 L 236 432 L 240.209517756016 421.83732514237585" stroke-miterlimit="10"/></g><g transform="translate(-30,-38) scale(1,1)"><path fill="none" stroke="#000000" d="M 336 381 L 336 432" stroke-miterlimit="10"/></g><g transform="translate(-30,-38) scale(1,1)"><path fill="none" stroke="#000000" d="M 331.790482243984 421.83732514237585 L 336 432 L 340.209517756016 421.83732514237585" stroke-miterlimit="10"/></g><g transform="translate(-30,-38) scale(1,1)"><path fill="none" stroke="#000000" d="M 241 336 L 241 376" stroke-miterlimit="10"/></g><g transform="translate(-30,-38) scale(1,1)"><path fill="none" stroke="#000000" d="M 236.790482243984 365.83732514237585 L 241 376 L 245.209517756016 365.83732514237585" stroke-miterlimit="10"/></g><g transform="translate(-30,-38) scale(1,1)"><path fill="#C0C0C0" stroke="none" d="M 98 519 L 387 519 Q 390 519 390 522 L 390 521 Q 390 524 387 524 L 98 524 Q 95 524 95 521 L 95 522 Q 95 519 98 519 Z" opacity="0.2"/></g><g transform="translate(-30,-38) scale(1,1)"><path fill="#000000" stroke="none" d="M 91 512 L 380 512 Q 383 512 383 515 L 383 515 Q 383 518 380 518 L 91 518 Q 88 518 88 515 L 88 515 Q 88 512 91 512 Z"/></g><g transform="translate(-30,-38) scale(1,1)"><path fill="none" stroke="#000000" d="M 128 472 L 128 512" stroke-miterlimit="10"/></g><g transform="translate(-30,-38) scale(1,1)"><path fill="none" stroke="#000000" d="M 123.79048224398402 501.83732514237585 L 128 512 L 132.209517756016 501.83732514237585" stroke-miterlimit="10"/></g><g transform="translate(-30,-38) scale(1,1)"><path fill="none" stroke="#000000" d="M 235 472 L 235 512" stroke-miterlimit="10"/></g><g transform="translate(-30,-38) scale(1,1)"><path fill="none" stroke="#000000" d="M 230.790482243984 501.83732514237585 L 235 512 L 239.209517756016 501.83732514237585" stroke-miterlimit="10"/></g><g transform="translate(-30,-38) scale(1,1)"><path fill="none" stroke="#000000" d="M 336 472 L 336 512" stroke-miterlimit="10"/></g><g transform="translate(-30,-38) scale(1,1)"><path fill="none" stroke="#000000" d="M 331.790482243984 501.83732514237585 L 336 512 L 340.209517756016 501.83732514237585" stroke-miterlimit="10"/></g><g transform="translate(-30,-38) scale(1,1)"><path fill="#C0C0C0" stroke="none" d="M 193 575 L 276 575 Q 286 575 286 585 L 286 605 Q 286 615 276 615 L 193 615 Q 183 615 183 605 L 183 585 Q 183 575 193 575 Z" opacity="0.2"/></g><g transform="translate(-30,-38) scale(1,1)"><path fill="#ffffff" stroke="none" d="M 186 568 L 269 568 Q 279 568 279 578 L 279 598 Q 279 608 269 608 L 186 608 Q 176 608 176 598 L 176 578 Q 176 568 186 568 Z"/></g><g transform="translate(-30,-38) scale(1,1)"><path fill="none" stroke="#000000" d="M 186 568 L 269 568 Q 279 568 279 578 L 279 598 Q 279 608 269 608 L 186 608 Q 176 608 176 598 L 176 578 Q 176 568 186 568 Z" stroke-miterlimit="10"/></g><g transform="translate(-30,-38) scale(1,1)"><g><path fill="none" stroke="none"/><text fill="#000000" stroke="none" font-family="Arial" font-size="13px" font-style="normal" font-weight="bold" text-decoration="none" x="201.5" y="587.5">确认更改</text></g></g><g transform="translate(-30,-38) scale(1,1)"><path fill="#C0C0C0" stroke="none" d="M 223 668.5 L 237.5 655 L 251 668.5 L 237.5 681 L 223 668.5" opacity="0.2"/></g><g transform="translate(-30,-38) scale(1,1)"><path fill="#ffffff" stroke="none" d="M 216 661 L 230 648 L 244 661 L 230 674 L 216 661"/></g><g transform="translate(-30,-38) scale(1,1)"><path fill="none" stroke="#000000" d="M 216 661 L 230 648 L 244 661 L 230 674 L 216 661 L 216 661" stroke-miterlimit="10"/></g><g transform="translate(-30,-38) scale(1,1)"><path fill="#C0C0C0" stroke="none" d="M 545 647 L 636 647 Q 646 647 646 657 L 646 677 Q 646 687 636 687 L 545 687 Q 535 687 535 677 L 535 657 Q 535 647 545 647 Z" opacity="0.2"/></g><g transform="translate(-30,-38) scale(1,1)"><path fill="#ffffff" stroke="none" d="M 538 640 L 629 640 Q 639 640 639 650 L 639 670 Q 639 680 629 680 L 538 680 Q 528 680 528 670 L 528 650 Q 528 640 538 640 Z"/></g><g transform="translate(-30,-38) scale(1,1)"><path fill="none" stroke="#000000" d="M 538 640 L 629 640 Q 639 640 639 650 L 639 670 Q 639 680 629 680 L 538 680 Q 528 680 528 670 L 528 650 Q 528 640 538 640 Z" stroke-miterlimit="10"/></g><g transform="translate(-30,-38) scale(1,1)"><g><path fill="none" stroke="none"/><text fill="#000000" stroke="none" font-family="Arial" font-size="13px" font-style="normal" font-weight="bold" text-decoration="none" x="544.5" y="659.5">更改用户信息</text></g></g><g transform="translate(-30,-38) scale(1,1)"><path fill="#C0C0C0" stroke="none" d="M 583 747.5 C 583 740.59644 588.59644 735 595.5 735 C 602.40356 735 608 740.59644 608 747.5 C 608 754.40356 602.40356 760 595.5 760 C 588.59644 760 583 754.40356 583 747.5 Z" opacity="0.2"/></g><g transform="translate(-30,-38) scale(1,1)"><path fill="none" stroke="#000000" d="M 576 740.5 C 576 733.59644 581.59644 728 588.5 728 C 595.40356 728 601 733.59644 601 740.5 C 601 747.40356 595.40356 753 588.5 753 C 581.59644 753 576 747.40356 576 740.5 Z" stroke-miterlimit="10"/></g><g transform="translate(-30,-38) scale(1,1)"><path fill="#000000" stroke="none" d="M 581 740.5 C 581 736.357864 584.357864 733 588.5 733 C 592.642136 733 596 736.357864 596 740.5 C 596 744.642136 592.642136 748 588.5 748 C 584.357864 748 581 744.642136 581 740.5 Z"/></g><g transform="translate(-30,-38) scale(1,1)"><path fill="#C0C0C0" stroke="none" d="M 167 739.5 C 167 732.59644 172.59644 727 179.5 727 C 186.40356 727 192 732.59644 192 739.5 C 192 746.40356 186.40356 752 179.5 752 C 172.59644 752 167 746.40356 167 739.5 Z" opacity="0.2"/></g><g transform="translate(-30,-38) scale(1,1)"><path fill="none" stroke="#000000" d="M 160 732.5 C 160 725.59644 165.59644 720 172.5 720 C 179.40356 720 185 725.59644 185 732.5 C 185 739.40356 179.40356 745 172.5 745 C 165.59644 745 160 739.40356 160 732.5 Z" stroke-miterlimit="10"/></g><g transform="translate(-30,-38) scale(1,1)"><path fill="#000000" stroke="none" d="M 165 732.5 C 165 728.357864 168.357864 725 172.5 725 C 176.642136 725 180 728.357864 180 732.5 C 180 736.642136 176.642136 740 172.5 740 C 168.357864 740 165 736.642136 165 732.5 Z"/></g><g transform="translate(-30,-38) scale(1,1)"><path fill="none" stroke="#000000" d="M 235 517 L 235 568" stroke-miterlimit="10"/></g><g transform="translate(-30,-38) scale(1,1)"><path fill="none" stroke="#000000" d="M 230.790482243984 557.8373251423759 L 235 568 L 239.209517756016 557.8373251423759" stroke-miterlimit="10"/></g><g transform="translate(-30,-38) scale(1,1)"><path fill="none" stroke="#000000" d="M 228 608 L 228 648" stroke-miterlimit="10"/></g><g transform="translate(-30,-38) scale(1,1)"><path fill="none" stroke="#000000" d="M 223.790482243984 637.8373251423759 L 228 648 L 232.209517756016 637.8373251423759" stroke-miterlimit="10"/></g><g transform="translate(-30,-38) scale(1,1)"><path fill="none" stroke="#000000" d="M 216 664 L 169 664 L 169 720" stroke-miterlimit="10"/></g><g transform="translate(-30,-38) scale(1,1)"><path fill="none" stroke="#000000" d="M 164.790482243984 709.8373251423759 L 169 720 L 173.209517756016 709.8373251423759" stroke-miterlimit="10"/></g><g transform="translate(-30,-38) scale(1,1)"><g><path fill="none" stroke="none"/><text fill="#000000" stroke="none" font-family="Arial" font-size="13px" font-style="normal" font-weight="normal" text-decoration="none" x="191.5" y="660.5">否</text></g></g><g transform="translate(-30,-38) scale(1,1)"><path fill="none" stroke="#000000" d="M 244 661 L 528 661" stroke-miterlimit="10"/></g><g transform="translate(-30,-38) scale(1,1)"><path fill="none" stroke="#000000" d="M 517.8373251423759 665.209517756016 L 528 661 L 517.8373251423758 656.790482243984" stroke-miterlimit="10"/></g><g transform="translate(-30,-38) scale(1,1)"><g><path fill="none" stroke="none"/><text fill="#000000" stroke="none" font-family="Arial" font-size="13px" font-style="normal" font-weight="normal" text-decoration="none" x="263.5" y="660.5">是</text></g></g><g transform="translate(-30,-38) scale(1,1)"><path fill="none" stroke="#000000" d="M 584 680 L 584 728" stroke-miterlimit="10"/></g><g transform="translate(-30,-38) scale(1,1)"><path fill="none" stroke="#000000" d="M 579.790482243984 717.8373251423759 L 584 728 L 588.209517756016 717.8373251423759" stroke-miterlimit="10"/></g></g></svg>