<svg version="1.1" xmlns="http://www.w3.org/2000/svg" xmlns:xlink="http://www.w3.org/1999/xlink" width="476" height="417"><defs/><g><g transform="translate(-246,-854) scale(1,1)"><rect fill="#C0C0C0" stroke="none" x="263" y="871" width="169.24658203125" height="240" opacity="0.2"/></g><g transform="translate(-246,-854) scale(1,1)"><rect fill="#ffffff" stroke="none" x="256" y="864" width="169.24658203125" height="240"/></g><g transform="translate(-246,-854) scale(1,1)"><path fill="none" stroke="#000000" d="M 256 864 L 425.24658203125 864 L 425.24658203125 1104 L 256 1104 L 256 864 Z Z" stroke-miterlimit="10"/></g><g transform="translate(-246,-854) scale(1,1)"><path fill="none" stroke="#000000" d="M 256 889 L 425.24658203125 889" stroke-miterlimit="10"/></g><g transform="translate(-246,-854) scale(1,1)"><path fill="none" stroke="#000000" d="M 256 1002 L 425.24658203125 1002" stroke-miterlimit="10"/></g><g transform="translate(-246,-854) scale(1,1)"><g><path fill="none" stroke="none"/><text fill="#000000" stroke="none" font-family="Arial" font-size="13px" font-style="normal" font-weight="bold" text-decoration="none" x="326.899658203125" y="883.5">User</text></g></g><g transform="translate(-246,-854) scale(1,1)"><g><path fill="none" stroke="none"/><text fill="#000000" stroke="none" font-family="Arial" font-size="13px" font-style="normal" font-weight="normal" text-decoration="none" x="261" y="906.5">+id</text></g></g><g transform="translate(-246,-854) scale(1,1)"><g><path fill="none" stroke="none"/><text fill="#000000" stroke="none" font-family="Arial" font-size="13px" font-style="normal" font-weight="normal" text-decoration="none" x="261" y="921.5">+nickname</text></g></g><g transform="translate(-246,-854) scale(1,1)"><g><path fill="none" stroke="none"/><text fill="#000000" stroke="none" font-family="Arial" font-size="13px" font-style="normal" font-weight="normal" text-decoration="none" x="261" y="936.5">+phone</text></g></g><g transform="translate(-246,-854) scale(1,1)"><g><path fill="none" stroke="none"/><text fill="#000000" stroke="none" font-family="Arial" font-size="13px" font-style="normal" font-weight="normal" text-decoration="none" x="261" y="951.5">+city</text></g></g><g transform="translate(-246,-854) scale(1,1)"><g><path fill="none" stroke="none"/><text fill="#000000" stroke="none" font-family="Arial" font-size="13px" font-style="normal" font-weight="normal" text-decoration="none" x="261" y="966.5">+password</text></g></g><g transform="translate(-246,-854) scale(1,1)"><g><path fill="none" stroke="none"/><text fill="#000000" stroke="none" font-family="Arial" font-size="13px" font-style="normal" font-weight="normal" text-decoration="none" x="261" y="981.5">+creditscore</text></g></g><g transform="translate(-246,-854) scale(1,1)"><g><path fill="none" stroke="none"/><text fill="#000000" stroke="none" font-family="Arial" font-size="13px" font-style="normal" font-weight="normal" text-decoration="none" x="261" y="996.5">+headimage</text></g></g><g transform="translate(-246,-854) scale(1,1)"><g><path fill="none" stroke="none"/><text fill="#000000" stroke="none" font-family="Arial" font-size="13px" font-style="normal" font-weight="normal" text-decoration="none" x="261" y="1019.5">+SetNickname(nickname)</text></g></g><g transform="translate(-246,-854) scale(1,1)"><g><path fill="none" stroke="none"/><text fill="#000000" stroke="none" font-family="Arial" font-size="13px" font-style="normal" font-weight="normal" text-decoration="none" x="261" y="1034.5">+SetCity(city)</text></g></g><g transform="translate(-246,-854) scale(1,1)"><g><path fill="none" stroke="none"/><text fill="#000000" stroke="none" font-family="Arial" font-size="13px" font-style="normal" font-weight="normal" text-decoration="none" x="261" y="1049.5">+SetHeadimage(image)</text></g></g><g transform="translate(-246,-854) scale(1,1)"><g><path fill="none" stroke="none"/><text fill="#000000" stroke="none" font-family="Arial" font-size="13px" font-style="normal" font-weight="normal" text-decoration="none" x="261" y="1064.5">+AddViewer(viewer)</text></g></g><g transform="translate(-246,-854) scale(1,1)"><g><path fill="none" stroke="none"/><text fill="#000000" stroke="none" font-family="Arial" font-size="13px" font-style="normal" font-weight="normal" text-decoration="none" x="261" y="1079.5">+DeleteViewer(id)</text></g></g><g transform="translate(-246,-854) scale(1,1)"><g><path fill="none" stroke="none"/><text fill="#000000" stroke="none" font-family="Arial" font-size="13px" font-style="normal" font-weight="normal" text-decoration="none" x="261" y="1094.5">+AddOrder(order)</text></g></g><g transform="translate(-246,-854) scale(1,1)"><rect fill="#C0C0C0" stroke="none" x="567" y="911" width="152" height="72" opacity="0.2"/></g><g transform="translate(-246,-854) scale(1,1)"><rect fill="#ffffff" stroke="none" x="560" y="904" width="152" height="72"/></g><g transform="translate(-246,-854) scale(1,1)"><path fill="none" stroke="#000000" d="M 560 904 L 712 904 L 712 976 L 560 976 L 560 904 Z Z" stroke-miterlimit="10"/></g><g transform="translate(-246,-854) scale(1,1)"><path fill="none" stroke="#000000" d="M 560 929 L 712 929" stroke-miterlimit="10"/></g><g transform="translate(-246,-854) scale(1,1)"><path fill="none" stroke="#000000" d="M 560 967 L 712 967" stroke-miterlimit="10"/></g><g transform="translate(-246,-854) scale(1,1)"><g><path fill="none" stroke="none"/><text fill="#000000" stroke="none" font-family="Arial" font-size="13px" font-style="normal" font-weight="bold" text-decoration="none" x="616.249267578125" y="923.5">Viewer</text></g></g><g transform="translate(-246,-854) scale(1,1)"><g><path fill="none" stroke="none"/><text fill="#000000" stroke="none" font-family="Arial" font-size="13px" font-style="normal" font-weight="normal" text-decoration="none" x="565" y="946.5">+id</text></g></g><g transform="translate(-246,-854) scale(1,1)"><g><path fill="none" stroke="none"/><text fill="#000000" stroke="none" font-family="Arial" font-size="13px" font-style="normal" font-weight="normal" text-decoration="none" x="565" y="961.5">+realname</text></g></g><g transform="translate(-246,-854) scale(1,1)"><rect fill="#C0C0C0" stroke="none" x="567" y="1063" width="151" height="205" opacity="0.2"/></g><g transform="translate(-246,-854) scale(1,1)"><rect fill="#ffffff" stroke="none" x="560" y="1056" width="151" height="205"/></g><g transform="translate(-246,-854) scale(1,1)"><path fill="none" stroke="#000000" d="M 560 1056 L 711 1056 L 711 1261 L 560 1261 L 560 1056 Z Z" stroke-miterlimit="10"/></g><g transform="translate(-246,-854) scale(1,1)"><path fill="none" stroke="#000000" d="M 560 1081 L 711 1081" stroke-miterlimit="10"/></g><g transform="translate(-246,-854) scale(1,1)"><path fill="none" stroke="#000000" d="M 560 1224 L 711 1224" stroke-miterlimit="10"/></g><g transform="translate(-246,-854) scale(1,1)"><g><path fill="none" stroke="none"/><text fill="#000000" stroke="none" font-family="Arial" font-size="13px" font-style="normal" font-weight="bold" text-decoration="none" x="618.885009765625" y="1075.5">Order</text></g></g><g transform="translate(-246,-854) scale(1,1)"><g><path fill="none" stroke="none"/><text fill="#000000" stroke="none" font-family="Arial" font-size="13px" font-style="normal" font-weight="normal" text-decoration="none" x="565" y="1098.5">+id</text></g></g><g transform="translate(-246,-854) scale(1,1)"><g><path fill="none" stroke="none"/><text fill="#000000" stroke="none" font-family="Arial" font-size="13px" font-style="normal" font-weight="normal" text-decoration="none" x="565" y="1113.5">+buyer</text></g></g><g transform="translate(-246,-854) scale(1,1)"><g><path fill="none" stroke="none"/><text fill="#000000" stroke="none" font-family="Arial" font-size="13px" font-style="normal" font-weight="normal" text-decoration="none" x="565" y="1128.5">+viewer</text></g></g><g transform="translate(-246,-854) scale(1,1)"><g><path fill="none" stroke="none"/><text fill="#000000" stroke="none" font-family="Arial" font-size="13px" font-style="normal" font-weight="normal" text-decoration="none" x="565" y="1143.5">+boughttime</text></g></g><g transform="translate(-246,-854) scale(1,1)"><g><path fill="none" stroke="none"/><text fill="#000000" stroke="none" font-family="Arial" font-size="13px" font-style="normal" font-weight="normal" text-decoration="none" x="565" y="1158.5">+starttime</text></g></g><g transform="translate(-246,-854) scale(1,1)"><g><path fill="none" stroke="none"/><text fill="#000000" stroke="none" font-family="Arial" font-size="13px" font-style="normal" font-weight="normal" text-decoration="none" x="565" y="1173.5">+endtime</text></g></g><g transform="translate(-246,-854) scale(1,1)"><g><path fill="none" stroke="none"/><text fill="#000000" stroke="none" font-family="Arial" font-size="13px" font-style="normal" font-weight="normal" text-decoration="none" x="565" y="1188.5">+cost</text></g></g><g transform="translate(-246,-854) scale(1,1)"><g><path fill="none" stroke="none"/><text fill="#000000" stroke="none" font-family="Arial" font-size="13px" font-style="normal" font-weight="normal" text-decoration="none" x="565" y="1203.5">+city</text></g></g><g transform="translate(-246,-854) scale(1,1)"><g><path fill="none" stroke="none"/><text fill="#000000" stroke="none" font-family="Arial" font-size="13px" font-style="normal" font-weight="normal" text-decoration="none" x="565" y="1218.5">+state</text></g></g><g transform="translate(-246,-854) scale(1,1)"><g><path fill="none" stroke="none"/><text fill="#000000" stroke="none" font-family="Arial" font-size="13px" font-style="normal" font-weight="normal" text-decoration="none" x="565" y="1241.5">+GetState()</text></g></g><g transform="translate(-246,-854) scale(1,1)"><g><path fill="none" stroke="none"/><text fill="#000000" stroke="none" font-family="Arial" font-size="13px" font-style="normal" font-weight="normal" text-decoration="none" x="565" y="1256.5">+ChangeState(state)</text></g></g><g transform="translate(-246,-854) scale(1,1)"><path fill="none" stroke="#000000" d="M 560 960 L 425 960" stroke-miterlimit="10"/></g><g transform="translate(-246,-854) scale(1,1)"><path fill="#000000" stroke="none" d="M 435.16267485762415 955.790482243984 L 425 960 L 435.16267485762415 964.209517756016 L 447 960"/></g><g transform="translate(-246,-854) scale(1,1)"><path fill="none" stroke="#000000" d="M 435.16267485762415 955.790482243984 L 425 960 L 435.16267485762415 964.209517756016 L 447 960 L 435.16267485762415 955.790482243984" stroke-miterlimit="10"/></g><g transform="translate(-246,-854) scale(1,1)"><path fill="none" stroke="#000000" d="M 560 1176 L 336 1176 L 336 1104" stroke-miterlimit="10"/></g><g transform="translate(-246,-854) scale(1,1)"><path fill="#000000" stroke="none" d="M 340.209517756016 1114.162674857624 L 336 1104 L 331.790482243984 1114.162674857624 L 336 1126"/></g><g transform="translate(-246,-854) scale(1,1)"><path fill="none" stroke="#000000" d="M 340.209517756016 1114.162674857624 L 336 1104 L 331.790482243984 1114.162674857624 L 336 1126 L 340.209517756016 1114.162674857624" stroke-miterlimit="10"/></g><g transform="translate(-246,-854) scale(1,1)"><g><path fill="none" stroke="none"/><text fill="#000000" stroke="none" font-family="Arial" font-size="13px" font-style="normal" font-weight="normal" text-decoration="none" x="437" y="954">1</text></g></g><g transform="translate(-246,-854) scale(1,1)"><g><path fill="none" stroke="none"/><text fill="#000000" stroke="none" font-family="Arial" font-size="13px" font-style="normal" font-weight="normal" text-decoration="none" x="525" y="954">1..*</text></g></g><g transform="translate(-246,-854) scale(1,1)"><g><path fill="none" stroke="none"/><text fill="#000000" stroke="none" font-family="Arial" font-size="13px" font-style="normal" font-weight="normal" text-decoration="none" x="341" y="1146">1</text></g></g><g transform="translate(-246,-854) scale(1,1)"><g><path fill="none" stroke="none"/><text fill="#000000" stroke="none" font-family="Arial" font-size="13px" font-style="normal" font-weight="normal" text-decoration="none" x="517" y="1170">0..*</text></g></g></g></svg>