<svg version="1.1" xmlns="http://www.w3.org/2000/svg" xmlns:xlink="http://www.w3.org/1999/xlink" width="221" height="373"><defs/><g><g transform="translate(-390,-54) scale(1,1)"><path fill="#C0C0C0" stroke="none" d="M 495 80.5 C 495 75.2532944 499.2532944 71 504.5 71 C 509.7467056 71 514 75.2532944 514 80.5 C 514 85.7467056 509.7467056 90 504.5 90 C 499.2532944 90 495 85.7467056 495 80.5 Z" opacity="0.2"/></g><g transform="translate(-390,-54) scale(1,1)"><path fill="#000000" stroke="none" d="M 488 73.5 C 488 68.2532944 492.2532944 64 497.5 64 C 502.7467056 64 507 68.2532944 507 73.5 C 507 78.7467056 502.7467056 83 497.5 83 C 492.2532944 83 488 78.7467056 488 73.5 Z"/></g><g transform="translate(-390,-54) scale(1,1)"><path fill="#C0C0C0" stroke="none" d="M 481 135 L 522 135 Q 532 135 532 145 L 532 164 Q 532 174 522 174 L 481 174 Q 471 174 471 164 L 471 145 Q 471 135 481 135 Z" opacity="0.2"/></g><g transform="translate(-390,-54) scale(1,1)"><path fill="#ffffff" stroke="none" d="M 474 128 L 515 128 Q 525 128 525 138 L 525 157 Q 525 167 515 167 L 474 167 Q 464 167 464 157 L 464 138 Q 464 128 474 128 Z"/></g><g transform="translate(-390,-54) scale(1,1)"><path fill="none" stroke="#000000" d="M 474 128 L 515 128 Q 525 128 525 138 L 525 157 Q 525 167 515 167 L 474 167 Q 464 167 464 157 L 464 138 Q 464 128 474 128 Z" stroke-miterlimit="10"/></g><g transform="translate(-390,-54) scale(1,1)"><g><path fill="none" stroke="none"/><text fill="#000000" stroke="none" font-family="Arial" font-size="13px" font-style="normal" font-weight="bold" text-decoration="none" x="468.5" y="147.5">选择状态</text></g></g><g transform="translate(-390,-54) scale(1,1)"><path fill="none" stroke="#000000" d="M 497 83 L 497 128" stroke-miterlimit="10"/></g><g transform="translate(-390,-54) scale(1,1)"><path fill="none" stroke="#000000" d="M 492.790482243984 117.83732514237585 L 497 128 L 501.209517756016 117.83732514237585" stroke-miterlimit="10"/></g><g transform="translate(-390,-54) scale(1,1)"><g><path fill="none" stroke="none"/><text fill="#000000" stroke="none" font-family="Arial" font-size="13px" font-style="normal" font-weight="normal" text-decoration="none" x="518.5" y="108.5">点击选择按钮</text></g></g><g transform="translate(-390,-54) scale(1,1)"><path fill="#C0C0C0" stroke="none" d="M 465 215 L 532 215 Q 542 215 542 225 L 542 244 Q 542 254 532 254 L 465 254 Q 455 254 455 244 L 455 225 Q 455 215 465 215 Z" opacity="0.2"/></g><g transform="translate(-390,-54) scale(1,1)"><path fill="#ffffff" stroke="none" d="M 458 208 L 525 208 Q 535 208 535 218 L 535 237 Q 535 247 525 247 L 458 247 Q 448 247 448 237 L 448 218 Q 448 208 458 208 Z"/></g><g transform="translate(-390,-54) scale(1,1)"><path fill="none" stroke="#000000" d="M 458 208 L 525 208 Q 535 208 535 218 L 535 237 Q 535 247 525 247 L 458 247 Q 448 247 448 237 L 448 218 Q 448 208 458 208 Z" stroke-miterlimit="10"/></g><g transform="translate(-390,-54) scale(1,1)"><g><path fill="none" stroke="none"/><text fill="#000000" stroke="none" font-family="Arial" font-size="13px" font-style="normal" font-weight="bold" text-decoration="none" x="452.5" y="227.5">余票查询状态</text></g></g><g transform="translate(-390,-54) scale(1,1)"><path fill="none" stroke="#000000" d="M 493 167 L 493 208" stroke-miterlimit="10"/></g><g transform="translate(-390,-54) scale(1,1)"><path fill="none" stroke="#000000" d="M 488.790482243984 197.83732514237585 L 493 208 L 497.209517756016 197.83732514237585" stroke-miterlimit="10"/></g><g transform="translate(-390,-54) scale(1,1)"><g><path fill="none" stroke="none"/><text fill="#000000" stroke="none" font-family="Arial" font-size="13px" font-style="normal" font-weight="normal" text-decoration="none" x="399.5" y="191.5">选择场次与票档</text></g></g><g transform="translate(-390,-54) scale(1,1)"><path fill="#C0C0C0" stroke="none" d="M 466 287 L 529 287 Q 532 287 532 290 L 532 289 Q 532 292 529 292 L 466 292 Q 463 292 463 289 L 463 290 Q 463 287 466 287 Z" opacity="0.2"/></g><g transform="translate(-390,-54) scale(1,1)"><path fill="#000000" stroke="none" d="M 459 280 L 522 280 Q 525 280 525 283 L 525 283 Q 525 286 522 286 L 459 286 Q 456 286 456 283 L 456 283 Q 456 280 459 280 Z"/></g><g transform="translate(-390,-54) scale(1,1)"><path fill="none" stroke="#000000" d="M 491 248 L 490 279" stroke-miterlimit="10"/></g><g transform="translate(-390,-54) scale(1,1)"><path fill="none" stroke="#000000" d="M 486.1203284999246 268.70688827168857 L 490 279 L 494.5349870761203 268.9783288709207" stroke-miterlimit="10"/></g><g transform="translate(-390,-54) scale(1,1)"><path fill="#C0C0C0" stroke="none" d="M 417 327 L 458 327 Q 468 327 468 337 L 468 356 Q 468 366 458 366 L 417 366 Q 407 366 407 356 L 407 337 Q 407 327 417 327 Z" opacity="0.2"/></g><g transform="translate(-390,-54) scale(1,1)"><path fill="#ffffff" stroke="none" d="M 410 320 L 451 320 Q 461 320 461 330 L 461 349 Q 461 359 451 359 L 410 359 Q 400 359 400 349 L 400 330 Q 400 320 410 320 Z"/></g><g transform="translate(-390,-54) scale(1,1)"><path fill="none" stroke="#000000" d="M 410 320 L 451 320 Q 461 320 461 330 L 461 349 Q 461 359 451 359 L 410 359 Q 400 359 400 349 L 400 330 Q 400 320 410 320 Z" stroke-miterlimit="10"/></g><g transform="translate(-390,-54) scale(1,1)"><g><path fill="none" stroke="none"/><text fill="#000000" stroke="none" font-family="Arial" font-size="13px" font-style="normal" font-weight="bold" text-decoration="none" x="404.5" y="339.5">选择成功</text></g></g><g transform="translate(-390,-54) scale(1,1)"><path fill="#C0C0C0" stroke="none" d="M 529 327 L 568 327 Q 578 327 578 337 L 578 356 Q 578 366 568 366 L 529 366 Q 519 366 519 356 L 519 337 Q 519 327 529 327 Z" opacity="0.2"/></g><g transform="translate(-390,-54) scale(1,1)"><path fill="#ffffff" stroke="none" d="M 522 320 L 561 320 Q 571 320 571 330 L 571 349 Q 571 359 561 359 L 522 359 Q 512 359 512 349 L 512 330 Q 512 320 522 320 Z"/></g><g transform="translate(-390,-54) scale(1,1)"><path fill="none" stroke="#000000" d="M 522 320 L 561 320 Q 571 320 571 330 L 571 349 Q 571 359 561 359 L 522 359 Q 512 359 512 349 L 512 330 Q 512 320 522 320 Z" stroke-miterlimit="10"/></g><g transform="translate(-390,-54) scale(1,1)"><g><path fill="none" stroke="none"/><text fill="#000000" stroke="none" font-family="Arial" font-size="13px" font-style="normal" font-weight="bold" text-decoration="none" x="522" y="339.5">无余票</text></g></g><g transform="translate(-390,-54) scale(1,1)"><path fill="none" stroke="#000000" d="M 486 286 L 451 319" stroke-miterlimit="10"/></g><g transform="translate(-390,-54) scale(1,1)"><path fill="none" stroke="#000000" d="M 455.5064712133113 308.96547374294147 L 451 319 L 461.2820379165149 315.0910747917938" stroke-miterlimit="10"/></g><g transform="translate(-390,-54) scale(1,1)"><g><path fill="none" stroke="none"/><text fill="#000000" stroke="none" font-family="Arial" font-size="13px" font-style="normal" font-weight="normal" text-decoration="none" x="415.5" y="307.5">有余票</text></g></g><g transform="translate(-390,-54) scale(1,1)"><path fill="none" stroke="#000000" d="M 494 286 L 523 319" stroke-miterlimit="10"/></g><g transform="translate(-390,-54) scale(1,1)"><path fill="none" stroke="#000000" d="M 513.1294278951647 314.14491953483304 L 523 319 L 519.453511850606 308.58739121035427" stroke-miterlimit="10"/></g><g transform="translate(-390,-54) scale(1,1)"><g><path fill="none" stroke="none"/><text fill="#000000" stroke="none" font-family="Arial" font-size="13px" font-style="normal" font-weight="normal" text-decoration="none" x="518.5" y="308.5">无余票</text></g></g><g transform="translate(-390,-54) scale(1,1)"><path fill="none" stroke="#000000" d="M 571 336 L 600 336 L 600 147 L 525 147" stroke-miterlimit="10"/></g><g transform="translate(-390,-54) scale(1,1)"><path fill="none" stroke="#000000" d="M 535.1626748576241 142.790482243984 L 525 147 L 535.1626748576241 151.209517756016" stroke-miterlimit="10"/></g><g transform="translate(-390,-54) scale(1,1)"><path fill="#C0C0C0" stroke="none" d="M 423 411.5 C 423 404.59644 428.59644 399 435.5 399 C 442.40356 399 448 404.59644 448 411.5 C 448 418.40356 442.40356 424 435.5 424 C 428.59644 424 423 418.40356 423 411.5 Z" opacity="0.2"/></g><g transform="translate(-390,-54) scale(1,1)"><path fill="none" stroke="#000000" d="M 416 404.5 C 416 397.59644 421.59644 392 428.5 392 C 435.40356 392 441 397.59644 441 404.5 C 441 411.40356 435.40356 417 428.5 417 C 421.59644 417 416 411.40356 416 404.5 Z" stroke-miterlimit="10"/></g><g transform="translate(-390,-54) scale(1,1)"><path fill="#000000" stroke="none" d="M 421 404.5 C 421 400.357864 424.357864 397 428.5 397 C 432.642136 397 436 400.357864 436 404.5 C 436 408.642136 432.642136 412 428.5 412 C 424.357864 412 421 408.642136 421 404.5 Z"/></g><g transform="translate(-390,-54) scale(1,1)"><path fill="none" stroke="#000000" d="M 432 359 L 432 392" stroke-miterlimit="10"/></g><g transform="translate(-390,-54) scale(1,1)"><path fill="none" stroke="#000000" d="M 427.790482243984 381.83732514237585 L 432 392 L 436.209517756016 381.83732514237585" stroke-miterlimit="10"/></g></g></svg>