<svg version="1.1" xmlns="http://www.w3.org/2000/svg" xmlns:xlink="http://www.w3.org/1999/xlink" width="346" height="309"><defs/><g><g transform="translate(-269,-118) scale(1,1)"><path fill="#C0C0C0" stroke="none" d="M 447 144.5 C 447 139.2532944 451.2532944 135 456.5 135 C 461.7467056 135 466 139.2532944 466 144.5 C 466 149.7467056 461.7467056 154 456.5 154 C 451.2532944 154 447 149.7467056 447 144.5 Z" opacity="0.2"/></g><g transform="translate(-269,-118) scale(1,1)"><path fill="#000000" stroke="none" d="M 440 137.5 C 440 132.2532944 444.2532944 128 449.5 128 C 454.7467056 128 459 132.2532944 459 137.5 C 459 142.7467056 454.7467056 147 449.5 147 C 444.2532944 147 440 142.7467056 440 137.5 Z"/></g><g transform="translate(-269,-118) scale(1,1)"><path fill="#C0C0C0" stroke="none" d="M 409 207 L 502 207 Q 512 207 512 217 L 512 236 Q 512 246 502 246 L 409 246 Q 399 246 399 236 L 399 217 Q 399 207 409 207 Z" opacity="0.2"/></g><g transform="translate(-269,-118) scale(1,1)"><path fill="#ffffff" stroke="none" d="M 402 200 L 495 200 Q 505 200 505 210 L 505 229 Q 505 239 495 239 L 402 239 Q 392 239 392 229 L 392 210 Q 392 200 402 200 Z"/></g><g transform="translate(-269,-118) scale(1,1)"><path fill="none" stroke="#000000" d="M 402 200 L 495 200 Q 505 200 505 210 L 505 229 Q 505 239 495 239 L 402 239 Q 392 239 392 229 L 392 210 Q 392 200 402 200 Z" stroke-miterlimit="10"/></g><g transform="translate(-269,-118) scale(1,1)"><g><path fill="none" stroke="none"/><text fill="#000000" stroke="none" font-family="Arial" font-size="13px" font-style="normal" font-weight="bold" text-decoration="none" x="396.5" y="219.5">获取演出信息状态</text></g></g><g transform="translate(-269,-118) scale(1,1)"><path fill="none" stroke="#000000" d="M 448 147 L 448 200" stroke-miterlimit="10"/></g><g transform="translate(-269,-118) scale(1,1)"><path fill="none" stroke="#000000" d="M 443.790482243984 189.83732514237585 L 448 200 L 452.209517756016 189.83732514237585" stroke-miterlimit="10"/></g><g transform="translate(-269,-118) scale(1,1)"><g><path fill="none" stroke="none"/><text fill="#000000" stroke="none" font-family="Arial" font-size="13px" font-style="normal" font-weight="normal" text-decoration="none" x="468.5" y="172.5">点击演出查看详情</text></g></g><g transform="translate(-269,-118) scale(1,1)"><path fill="#C0C0C0" stroke="none" d="M 345 287 L 412 287 Q 422 287 422 297 L 422 316 Q 422 326 412 326 L 345 326 Q 335 326 335 316 L 335 297 Q 335 287 345 287 Z" opacity="0.2"/></g><g transform="translate(-269,-118) scale(1,1)"><path fill="#ffffff" stroke="none" d="M 338 280 L 405 280 Q 415 280 415 290 L 415 309 Q 415 319 405 319 L 338 319 Q 328 319 328 309 L 328 290 Q 328 280 338 280 Z"/></g><g transform="translate(-269,-118) scale(1,1)"><path fill="none" stroke="#000000" d="M 338 280 L 405 280 Q 415 280 415 290 L 415 309 Q 415 319 405 319 L 338 319 Q 328 319 328 309 L 328 290 Q 328 280 338 280 Z" stroke-miterlimit="10"/></g><g transform="translate(-269,-118) scale(1,1)"><g><path fill="none" stroke="none"/><text fill="#000000" stroke="none" font-family="Arial" font-size="13px" font-style="normal" font-weight="bold" text-decoration="none" x="332.5" y="299.5">获取成功状态</text></g></g><g transform="translate(-269,-118) scale(1,1)"><path fill="#C0C0C0" stroke="none" d="M 505 287 L 572 287 Q 582 287 582 297 L 582 316 Q 582 326 572 326 L 505 326 Q 495 326 495 316 L 495 297 Q 495 287 505 287 Z" opacity="0.2"/></g><g transform="translate(-269,-118) scale(1,1)"><path fill="#ffffff" stroke="none" d="M 498 280 L 565 280 Q 575 280 575 290 L 575 309 Q 575 319 565 319 L 498 319 Q 488 319 488 309 L 488 290 Q 488 280 498 280 Z"/></g><g transform="translate(-269,-118) scale(1,1)"><path fill="none" stroke="#000000" d="M 498 280 L 565 280 Q 575 280 575 290 L 575 309 Q 575 319 565 319 L 498 319 Q 488 319 488 309 L 488 290 Q 488 280 498 280 Z" stroke-miterlimit="10"/></g><g transform="translate(-269,-118) scale(1,1)"><g><path fill="none" stroke="none"/><text fill="#000000" stroke="none" font-family="Arial" font-size="13px" font-style="normal" font-weight="bold" text-decoration="none" x="492.5" y="299.5">获取失败状态</text></g></g><g transform="translate(-269,-118) scale(1,1)"><path fill="#C0C0C0" stroke="none" d="M 367 411.5 C 367 404.59644 372.59644 399 379.5 399 C 386.40356 399 392 404.59644 392 411.5 C 392 418.40356 386.40356 424 379.5 424 C 372.59644 424 367 418.40356 367 411.5 Z" opacity="0.2"/></g><g transform="translate(-269,-118) scale(1,1)"><path fill="none" stroke="#000000" d="M 360 404.5 C 360 397.59644 365.59644 392 372.5 392 C 379.40356 392 385 397.59644 385 404.5 C 385 411.40356 379.40356 417 372.5 417 C 365.59644 417 360 411.40356 360 404.5 Z" stroke-miterlimit="10"/></g><g transform="translate(-269,-118) scale(1,1)"><path fill="#000000" stroke="none" d="M 365 404.5 C 365 400.357864 368.357864 397 372.5 397 C 376.642136 397 380 400.357864 380 404.5 C 380 408.642136 376.642136 412 372.5 412 C 368.357864 412 365 408.642136 365 404.5 Z"/></g><g transform="translate(-269,-118) scale(1,1)"><path fill="none" stroke="#000000" d="M 371 319 L 371 392" stroke-miterlimit="10"/></g><g transform="translate(-269,-118) scale(1,1)"><path fill="none" stroke="#000000" d="M 366.790482243984 381.83732514237585 L 371 392 L 375.209517756016 381.83732514237585" stroke-miterlimit="10"/></g><g transform="translate(-269,-118) scale(1,1)"><g><path fill="none" stroke="none"/><text fill="#000000" stroke="none" font-family="Arial" font-size="13px" font-style="normal" font-weight="normal" text-decoration="none" x="278.5" y="358.5">显示演出详情</text></g></g><g transform="translate(-269,-118) scale(1,1)"><path fill="none" stroke="#000000" d="M 428 240 L 390 279" stroke-miterlimit="10"/></g><g transform="translate(-269,-118) scale(1,1)"><path fill="none" stroke="#000000" d="M 394.0771911455153 268.78351761304646 L 390 279 L 400.1071534828754 274.6588655314999" stroke-miterlimit="10"/></g><g transform="translate(-269,-118) scale(1,1)"><path fill="none" stroke="#000000" d="M 470 240 L 510 279" stroke-miterlimit="10"/></g><g transform="translate(-269,-118) scale(1,1)"><path fill="none" stroke="#000000" d="M 499.78485846451355 274.9194505994928 L 510 279 L 505.6621883015425 268.89141999741184" stroke-miterlimit="10"/></g><g transform="translate(-269,-118) scale(1,1)"><path fill="none" stroke="#000000" d="M 575 280 L 604 280 L 604 224 L 505 224" stroke-miterlimit="10"/></g><g transform="translate(-269,-118) scale(1,1)"><path fill="none" stroke="#000000" d="M 515.1626748576241 219.790482243984 L 505 224 L 515.1626748576241 228.209517756016" stroke-miterlimit="10"/></g></g></svg>