<svg version="1.1" xmlns="http://www.w3.org/2000/svg" xmlns:xlink="http://www.w3.org/1999/xlink" width="3348" height="3337"><defs/><g><g transform="translate(-118,-110) scale(1,1)"><rect fill="#C0C0C0" stroke="none" x="3007" y="3047" width="169.24658203125" height="250" opacity="0.2"/></g><g transform="translate(-118,-110) scale(1,1)"><rect fill="#ffffff" stroke="none" x="3000" y="3040" width="169.24658203125" height="250"/></g><g transform="translate(-118,-110) scale(1,1)"><path fill="none" stroke="#000000" d="M 3000 3040 L 3169.24658203125 3040 L 3169.24658203125 3290 L 3000 3290 L 3000 3040 Z Z" stroke-miterlimit="10"/></g><g transform="translate(-118,-110) scale(1,1)"><path fill="none" stroke="#000000" d="M 3000 3065 L 3169.24658203125 3065" stroke-miterlimit="10"/></g><g transform="translate(-118,-110) scale(1,1)"><path fill="none" stroke="#000000" d="M 3000 3193 L 3169.24658203125 3193" stroke-miterlimit="10"/></g><g transform="translate(-118,-110) scale(1,1)"><g><path fill="none" stroke="none"/><text fill="#000000" stroke="none" font-family="Arial" font-size="13px" font-style="normal" font-weight="bold" text-decoration="none" x="3070.899658203125" y="3059.5">User</text></g></g><g transform="translate(-118,-110) scale(1,1)"><g><path fill="none" stroke="none"/><text fill="#000000" stroke="none" font-family="Arial" font-size="13px" font-style="normal" font-weight="normal" text-decoration="none" x="3005" y="3082.5">+id</text></g></g><g transform="translate(-118,-110) scale(1,1)"><g><path fill="none" stroke="none"/><text fill="#000000" stroke="none" font-family="Arial" font-size="13px" font-style="normal" font-weight="normal" text-decoration="none" x="3005" y="3097.5">+nickname</text></g></g><g transform="translate(-118,-110) scale(1,1)"><g><path fill="none" stroke="none"/><text fill="#000000" stroke="none" font-family="Arial" font-size="13px" font-style="normal" font-weight="normal" text-decoration="none" x="3005" y="3112.5">+realname</text></g></g><g transform="translate(-118,-110) scale(1,1)"><g><path fill="none" stroke="none"/><text fill="#000000" stroke="none" font-family="Arial" font-size="13px" font-style="normal" font-weight="normal" text-decoration="none" x="3005" y="3127.5">+phone</text></g></g><g transform="translate(-118,-110) scale(1,1)"><g><path fill="none" stroke="none"/><text fill="#000000" stroke="none" font-family="Arial" font-size="13px" font-style="normal" font-weight="normal" text-decoration="none" x="3005" y="3142.5">+city</text></g></g><g transform="translate(-118,-110) scale(1,1)"><g><path fill="none" stroke="none"/><text fill="#000000" stroke="none" font-family="Arial" font-size="13px" font-style="normal" font-weight="normal" text-decoration="none" x="3005" y="3157.5">+password</text></g></g><g transform="translate(-118,-110) scale(1,1)"><g><path fill="none" stroke="none"/><text fill="#000000" stroke="none" font-family="Arial" font-size="13px" font-style="normal" font-weight="normal" text-decoration="none" x="3005" y="3172.5">+creditscore</text></g></g><g transform="translate(-118,-110) scale(1,1)"><g><path fill="none" stroke="none"/><text fill="#000000" stroke="none" font-family="Arial" font-size="13px" font-style="normal" font-weight="normal" text-decoration="none" x="3005" y="3187.5">+headimage</text></g></g><g transform="translate(-118,-110) scale(1,1)"><g><path fill="none" stroke="none"/><text fill="#000000" stroke="none" font-family="Arial" font-size="13px" font-style="normal" font-weight="normal" text-decoration="none" x="3005" y="3210.5">+SetNickname(nickname)</text></g></g><g transform="translate(-118,-110) scale(1,1)"><g><path fill="none" stroke="none"/><text fill="#000000" stroke="none" font-family="Arial" font-size="13px" font-style="normal" font-weight="normal" text-decoration="none" x="3005" y="3225.5">+SetCity(city)</text></g></g><g transform="translate(-118,-110) scale(1,1)"><g><path fill="none" stroke="none"/><text fill="#000000" stroke="none" font-family="Arial" font-size="13px" font-style="normal" font-weight="normal" text-decoration="none" x="3005" y="3240.5">+SetHeadimage(image)</text></g></g><g transform="translate(-118,-110) scale(1,1)"><g><path fill="none" stroke="none"/><text fill="#000000" stroke="none" font-family="Arial" font-size="13px" font-style="normal" font-weight="normal" text-decoration="none" x="3005" y="3255.5">+AddViewer(viewer)</text></g></g><g transform="translate(-118,-110) scale(1,1)"><g><path fill="none" stroke="none"/><text fill="#000000" stroke="none" font-family="Arial" font-size="13px" font-style="normal" font-weight="normal" text-decoration="none" x="3005" y="3270.5">+DeleteViewer(id)</text></g></g><g transform="translate(-118,-110) scale(1,1)"><g><path fill="none" stroke="none"/><text fill="#000000" stroke="none" font-family="Arial" font-size="13px" font-style="normal" font-weight="normal" text-decoration="none" x="3005" y="3285.5">+AddOrder(order)</text></g></g><g transform="translate(-118,-110) scale(1,1)"><rect fill="#C0C0C0" stroke="none" x="3311" y="3087" width="152" height="72" opacity="0.2"/></g><g transform="translate(-118,-110) scale(1,1)"><rect fill="#ffffff" stroke="none" x="3304" y="3080" width="152" height="72"/></g><g transform="translate(-118,-110) scale(1,1)"><path fill="none" stroke="#000000" d="M 3304 3080 L 3456 3080 L 3456 3152 L 3304 3152 L 3304 3080 Z Z" stroke-miterlimit="10"/></g><g transform="translate(-118,-110) scale(1,1)"><path fill="none" stroke="#000000" d="M 3304 3105 L 3456 3105" stroke-miterlimit="10"/></g><g transform="translate(-118,-110) scale(1,1)"><path fill="none" stroke="#000000" d="M 3304 3143 L 3456 3143" stroke-miterlimit="10"/></g><g transform="translate(-118,-110) scale(1,1)"><g><path fill="none" stroke="none"/><text fill="#000000" stroke="none" font-family="Arial" font-size="13px" font-style="normal" font-weight="bold" text-decoration="none" x="3360.249267578125" y="3099.5">Viewer</text></g></g><g transform="translate(-118,-110) scale(1,1)"><g><path fill="none" stroke="none"/><text fill="#000000" stroke="none" font-family="Arial" font-size="13px" font-style="normal" font-weight="normal" text-decoration="none" x="3309" y="3122.5">+id</text></g></g><g transform="translate(-118,-110) scale(1,1)"><g><path fill="none" stroke="none"/><text fill="#000000" stroke="none" font-family="Arial" font-size="13px" font-style="normal" font-weight="normal" text-decoration="none" x="3309" y="3137.5">+realname</text></g></g><g transform="translate(-118,-110) scale(1,1)"><rect fill="#C0C0C0" stroke="none" x="3311" y="3239" width="151" height="205" opacity="0.2"/></g><g transform="translate(-118,-110) scale(1,1)"><rect fill="#ffffff" stroke="none" x="3304" y="3232" width="151" height="205"/></g><g transform="translate(-118,-110) scale(1,1)"><path fill="none" stroke="#000000" d="M 3304 3232 L 3455 3232 L 3455 3437 L 3304 3437 L 3304 3232 Z Z" stroke-miterlimit="10"/></g><g transform="translate(-118,-110) scale(1,1)"><path fill="none" stroke="#000000" d="M 3304 3257 L 3455 3257" stroke-miterlimit="10"/></g><g transform="translate(-118,-110) scale(1,1)"><path fill="none" stroke="#000000" d="M 3304 3400 L 3455 3400" stroke-miterlimit="10"/></g><g transform="translate(-118,-110) scale(1,1)"><g><path fill="none" stroke="none"/><text fill="#000000" stroke="none" font-family="Arial" font-size="13px" font-style="normal" font-weight="bold" text-decoration="none" x="3362.885009765625" y="3251.5">Order</text></g></g><g transform="translate(-118,-110) scale(1,1)"><g><path fill="none" stroke="none"/><text fill="#000000" stroke="none" font-family="Arial" font-size="13px" font-style="normal" font-weight="normal" text-decoration="none" x="3309" y="3274.5">+id</text></g></g><g transform="translate(-118,-110) scale(1,1)"><g><path fill="none" stroke="none"/><text fill="#000000" stroke="none" font-family="Arial" font-size="13px" font-style="normal" font-weight="normal" text-decoration="none" x="3309" y="3289.5">+buyer</text></g></g><g transform="translate(-118,-110) scale(1,1)"><g><path fill="none" stroke="none"/><text fill="#000000" stroke="none" font-family="Arial" font-size="13px" font-style="normal" font-weight="normal" text-decoration="none" x="3309" y="3304.5">+viewer</text></g></g><g transform="translate(-118,-110) scale(1,1)"><g><path fill="none" stroke="none"/><text fill="#000000" stroke="none" font-family="Arial" font-size="13px" font-style="normal" font-weight="normal" text-decoration="none" x="3309" y="3319.5">+boughttime</text></g></g><g transform="translate(-118,-110) scale(1,1)"><g><path fill="none" stroke="none"/><text fill="#000000" stroke="none" font-family="Arial" font-size="13px" font-style="normal" font-weight="normal" text-decoration="none" x="3309" y="3334.5">+starttime</text></g></g><g transform="translate(-118,-110) scale(1,1)"><g><path fill="none" stroke="none"/><text fill="#000000" stroke="none" font-family="Arial" font-size="13px" font-style="normal" font-weight="normal" text-decoration="none" x="3309" y="3349.5">+endtime</text></g></g><g transform="translate(-118,-110) scale(1,1)"><g><path fill="none" stroke="none"/><text fill="#000000" stroke="none" font-family="Arial" font-size="13px" font-style="normal" font-weight="normal" text-decoration="none" x="3309" y="3364.5">+cost</text></g></g><g transform="translate(-118,-110) scale(1,1)"><g><path fill="none" stroke="none"/><text fill="#000000" stroke="none" font-family="Arial" font-size="13px" font-style="normal" font-weight="normal" text-decoration="none" x="3309" y="3379.5">+city</text></g></g><g transform="translate(-118,-110) scale(1,1)"><g><path fill="none" stroke="none"/><text fill="#000000" stroke="none" font-family="Arial" font-size="13px" font-style="normal" font-weight="normal" text-decoration="none" x="3309" y="3394.5">+state</text></g></g><g transform="translate(-118,-110) scale(1,1)"><g><path fill="none" stroke="none"/><text fill="#000000" stroke="none" font-family="Arial" font-size="13px" font-style="normal" font-weight="normal" text-decoration="none" x="3309" y="3417.5">+GetState()</text></g></g><g transform="translate(-118,-110) scale(1,1)"><g><path fill="none" stroke="none"/><text fill="#000000" stroke="none" font-family="Arial" font-size="13px" font-style="normal" font-weight="normal" text-decoration="none" x="3309" y="3432.5">+ChangeState(state)</text></g></g><g transform="translate(-118,-110) scale(1,1)"><path fill="none" stroke="#000000" d="M 3304 3136 L 3169 3136" stroke-miterlimit="10"/></g><g transform="translate(-118,-110) scale(1,1)"><path fill="#000000" stroke="none" d="M 3179.162674857624 3131.790482243984 L 3169 3136 L 3179.162674857624 3140.209517756016 L 3191 3136"/></g><g transform="translate(-118,-110) scale(1,1)"><path fill="none" stroke="#000000" d="M 3179.162674857624 3131.790482243984 L 3169 3136 L 3179.162674857624 3140.209517756016 L 3191 3136 L 3179.162674857624 3131.790482243984" stroke-miterlimit="10"/></g><g transform="translate(-118,-110) scale(1,1)"><path fill="none" stroke="#000000" d="M 3304 3352 L 3080 3352 L 3080 3290" stroke-miterlimit="10"/></g><g transform="translate(-118,-110) scale(1,1)"><path fill="#000000" stroke="none" d="M 3084.209517756016 3300.162674857624 L 3080 3290 L 3075.790482243984 3300.162674857624 L 3080 3312"/></g><g transform="translate(-118,-110) scale(1,1)"><path fill="none" stroke="#000000" d="M 3084.209517756016 3300.162674857624 L 3080 3290 L 3075.790482243984 3300.162674857624 L 3080 3312 L 3084.209517756016 3300.162674857624" stroke-miterlimit="10"/></g><g transform="translate(-118,-110) scale(1,1)"><g><path fill="none" stroke="none"/><text fill="#000000" stroke="none" font-family="Arial" font-size="13px" font-style="normal" font-weight="normal" text-decoration="none" x="3181" y="3130">1</text></g></g><g transform="translate(-118,-110) scale(1,1)"><g><path fill="none" stroke="none"/><text fill="#000000" stroke="none" font-family="Arial" font-size="13px" font-style="normal" font-weight="normal" text-decoration="none" x="3269" y="3130">1..*</text></g></g><g transform="translate(-118,-110) scale(1,1)"><g><path fill="none" stroke="none"/><text fill="#000000" stroke="none" font-family="Arial" font-size="13px" font-style="normal" font-weight="normal" text-decoration="none" x="3085" y="3322">1</text></g></g><g transform="translate(-118,-110) scale(1,1)"><g><path fill="none" stroke="none"/><text fill="#000000" stroke="none" font-family="Arial" font-size="13px" font-style="normal" font-weight="normal" text-decoration="none" x="3261" y="3346">0..*</text></g></g><g transform="translate(-118,-110) scale(1,1)"><rect fill="#C0C0C0" stroke="none" x="399" y="127" width="191" height="220" opacity="0.2"/></g><g transform="translate(-118,-110) scale(1,1)"><rect fill="#ffffff" stroke="none" x="392" y="120" width="191" height="220"/></g><g transform="translate(-118,-110) scale(1,1)"><path fill="none" stroke="#000000" d="M 392 120 L 583 120 L 583 340 L 392 340 L 392 120 Z Z" stroke-miterlimit="10"/></g><g transform="translate(-118,-110) scale(1,1)"><path fill="none" stroke="#000000" d="M 392 145 L 583 145" stroke-miterlimit="10"/></g><g transform="translate(-118,-110) scale(1,1)"><path fill="none" stroke="#000000" d="M 392 243 L 583 243" stroke-miterlimit="10"/></g><g transform="translate(-118,-110) scale(1,1)"><g><path fill="none" stroke="none"/><text fill="#000000" stroke="none" font-family="Arial" font-size="13px" font-style="normal" font-weight="bold" text-decoration="none" x="471.240478515625" y="139.5">Show</text></g></g><g transform="translate(-118,-110) scale(1,1)"><g><path fill="none" stroke="none"/><text fill="#000000" stroke="none" font-family="Arial" font-size="13px" font-style="normal" font-weight="normal" text-decoration="none" x="397" y="162.5">+id</text></g></g><g transform="translate(-118,-110) scale(1,1)"><g><path fill="none" stroke="none"/><text fill="#000000" stroke="none" font-family="Arial" font-size="13px" font-style="normal" font-weight="normal" text-decoration="none" x="397" y="177.5">+theater</text></g></g><g transform="translate(-118,-110) scale(1,1)"><g><path fill="none" stroke="none"/><text fill="#000000" stroke="none" font-family="Arial" font-size="13px" font-style="normal" font-weight="normal" text-decoration="none" x="397" y="192.5">+begintime</text></g></g><g transform="translate(-118,-110) scale(1,1)"><g><path fill="none" stroke="none"/><text fill="#000000" stroke="none" font-family="Arial" font-size="13px" font-style="normal" font-weight="normal" text-decoration="none" x="397" y="207.5">+endtime</text></g></g><g transform="translate(-118,-110) scale(1,1)"><g><path fill="none" stroke="none"/><text fill="#000000" stroke="none" font-family="Arial" font-size="13px" font-style="normal" font-weight="normal" text-decoration="none" x="397" y="222.5">+actorlist</text></g></g><g transform="translate(-118,-110) scale(1,1)"><g><path fill="none" stroke="none"/><text fill="#000000" stroke="none" font-family="Arial" font-size="13px" font-style="normal" font-weight="normal" text-decoration="none" x="397" y="237.5">+state</text></g></g><g transform="translate(-118,-110) scale(1,1)"><g><path fill="none" stroke="none"/><text fill="#000000" stroke="none" font-family="Arial" font-size="13px" font-style="normal" font-weight="normal" text-decoration="none" x="397" y="260.5">+SetTheater(theater)</text></g></g><g transform="translate(-118,-110) scale(1,1)"><g><path fill="none" stroke="none"/><text fill="#000000" stroke="none" font-family="Arial" font-size="13px" font-style="normal" font-weight="normal" text-decoration="none" x="397" y="275.5">+SetBeginTime(begintime)</text></g></g><g transform="translate(-118,-110) scale(1,1)"><g><path fill="none" stroke="none"/><text fill="#000000" stroke="none" font-family="Arial" font-size="13px" font-style="normal" font-weight="normal" text-decoration="none" x="397" y="290.5">+SetEndTime(endTime)</text></g></g><g transform="translate(-118,-110) scale(1,1)"><g><path fill="none" stroke="none"/><text fill="#000000" stroke="none" font-family="Arial" font-size="13px" font-style="normal" font-weight="normal" text-decoration="none" x="397" y="305.5">+SetActorList(actorlist)</text></g></g><g transform="translate(-118,-110) scale(1,1)"><g><path fill="none" stroke="none"/><text fill="#000000" stroke="none" font-family="Arial" font-size="13px" font-style="normal" font-weight="normal" text-decoration="none" x="397" y="320.5">+SetState(state)</text></g></g><g transform="translate(-118,-110) scale(1,1)"><rect fill="#C0C0C0" stroke="none" x="671" y="127" width="152" height="112" opacity="0.2"/></g><g transform="translate(-118,-110) scale(1,1)"><rect fill="#ffffff" stroke="none" x="664" y="120" width="152" height="112"/></g><g transform="translate(-118,-110) scale(1,1)"><path fill="none" stroke="#000000" d="M 664 120 L 816 120 L 816 232 L 664 232 L 664 120 Z Z" stroke-miterlimit="10"/></g><g transform="translate(-118,-110) scale(1,1)"><path fill="none" stroke="#000000" d="M 664 145 L 816 145" stroke-miterlimit="10"/></g><g transform="translate(-118,-110) scale(1,1)"><path fill="none" stroke="#000000" d="M 664 213 L 816 213" stroke-miterlimit="10"/></g><g transform="translate(-118,-110) scale(1,1)"><g><path fill="none" stroke="none"/><text fill="#000000" stroke="none" font-family="Arial" font-size="13px" font-style="normal" font-weight="bold" text-decoration="none" x="717.59912109375" y="139.5">Theater</text></g></g><g transform="translate(-118,-110) scale(1,1)"><g><path fill="none" stroke="none"/><text fill="#000000" stroke="none" font-family="Arial" font-size="13px" font-style="normal" font-weight="normal" text-decoration="none" x="669" y="162.5">+id</text></g></g><g transform="translate(-118,-110) scale(1,1)"><g><path fill="none" stroke="none"/><text fill="#000000" stroke="none" font-family="Arial" font-size="13px" font-style="normal" font-weight="normal" text-decoration="none" x="669" y="177.5">+theatername</text></g></g><g transform="translate(-118,-110) scale(1,1)"><g><path fill="none" stroke="none"/><text fill="#000000" stroke="none" font-family="Arial" font-size="13px" font-style="normal" font-weight="normal" text-decoration="none" x="669" y="192.5">+city</text></g></g><g transform="translate(-118,-110) scale(1,1)"><g><path fill="none" stroke="none"/><text fill="#000000" stroke="none" font-family="Arial" font-size="13px" font-style="normal" font-weight="normal" text-decoration="none" x="669" y="207.5">+position</text></g></g><g transform="translate(-118,-110) scale(1,1)"><rect fill="#C0C0C0" stroke="none" x="135" y="159" width="191" height="152" opacity="0.2"/></g><g transform="translate(-118,-110) scale(1,1)"><rect fill="#ffffff" stroke="none" x="128" y="152" width="191" height="152"/></g><g transform="translate(-118,-110) scale(1,1)"><path fill="none" stroke="#000000" d="M 128 152 L 319 152 L 319 304 L 128 304 L 128 152 Z Z" stroke-miterlimit="10"/></g><g transform="translate(-118,-110) scale(1,1)"><path fill="none" stroke="#000000" d="M 128 177 L 319 177" stroke-miterlimit="10"/></g><g transform="translate(-118,-110) scale(1,1)"><path fill="none" stroke="#000000" d="M 128 245 L 319 245" stroke-miterlimit="10"/></g><g transform="translate(-118,-110) scale(1,1)"><g><path fill="none" stroke="none"/><text fill="#000000" stroke="none" font-family="Arial" font-size="13px" font-style="normal" font-weight="bold" text-decoration="none" x="189.53369140625" y="171.5">Introduction</text></g></g><g transform="translate(-118,-110) scale(1,1)"><g><path fill="none" stroke="none"/><text fill="#000000" stroke="none" font-family="Arial" font-size="13px" font-style="normal" font-weight="normal" text-decoration="none" x="133" y="194.5">+id</text></g></g><g transform="translate(-118,-110) scale(1,1)"><g><path fill="none" stroke="none"/><text fill="#000000" stroke="none" font-family="Arial" font-size="13px" font-style="normal" font-weight="normal" text-decoration="none" x="133" y="209.5">+showid</text></g></g><g transform="translate(-118,-110) scale(1,1)"><g><path fill="none" stroke="none"/><text fill="#000000" stroke="none" font-family="Arial" font-size="13px" font-style="normal" font-weight="normal" text-decoration="none" x="133" y="224.5">+content</text></g></g><g transform="translate(-118,-110) scale(1,1)"><g><path fill="none" stroke="none"/><text fill="#000000" stroke="none" font-family="Arial" font-size="13px" font-style="normal" font-weight="normal" text-decoration="none" x="133" y="239.5">+ImageList</text></g></g><g transform="translate(-118,-110) scale(1,1)"><g><path fill="none" stroke="none"/><text fill="#000000" stroke="none" font-family="Arial" font-size="13px" font-style="normal" font-weight="normal" text-decoration="none" x="133" y="262.5">+SetShowid(showid)</text></g></g><g transform="translate(-118,-110) scale(1,1)"><g><path fill="none" stroke="none"/><text fill="#000000" stroke="none" font-family="Arial" font-size="13px" font-style="normal" font-weight="normal" text-decoration="none" x="133" y="277.5">+SetContent(content)</text></g></g><g transform="translate(-118,-110) scale(1,1)"><g><path fill="none" stroke="none"/><text fill="#000000" stroke="none" font-family="Arial" font-size="13px" font-style="normal" font-weight="normal" text-decoration="none" x="133" y="292.5">+SetImagelist(imagelist)</text></g></g><g transform="translate(-118,-110) scale(1,1)"><rect fill="#C0C0C0" stroke="none" x="671" y="279" width="152" height="104" opacity="0.2"/></g><g transform="translate(-118,-110) scale(1,1)"><rect fill="#ffffff" stroke="none" x="664" y="272" width="152" height="104"/></g><g transform="translate(-118,-110) scale(1,1)"><path fill="none" stroke="#000000" d="M 664 272 L 816 272 L 816 376 L 664 376 L 664 272 Z Z" stroke-miterlimit="10"/></g><g transform="translate(-118,-110) scale(1,1)"><path fill="none" stroke="#000000" d="M 664 297 L 816 297" stroke-miterlimit="10"/></g><g transform="translate(-118,-110) scale(1,1)"><path fill="none" stroke="#000000" d="M 664 365 L 816 365" stroke-miterlimit="10"/></g><g transform="translate(-118,-110) scale(1,1)"><g><path fill="none" stroke="none"/><text fill="#000000" stroke="none" font-family="Arial" font-size="13px" font-style="normal" font-weight="bold" text-decoration="none" x="724.8291015625" y="291.5">Actor</text></g></g><g transform="translate(-118,-110) scale(1,1)"><g><path fill="none" stroke="none"/><text fill="#000000" stroke="none" font-family="Arial" font-size="13px" font-style="normal" font-weight="normal" text-decoration="none" x="669" y="314.5">+id</text></g></g><g transform="translate(-118,-110) scale(1,1)"><g><path fill="none" stroke="none"/><text fill="#000000" stroke="none" font-family="Arial" font-size="13px" font-style="normal" font-weight="normal" text-decoration="none" x="669" y="329.5">+name</text></g></g><g transform="translate(-118,-110) scale(1,1)"><g><path fill="none" stroke="none"/><text fill="#000000" stroke="none" font-family="Arial" font-size="13px" font-style="normal" font-weight="normal" text-decoration="none" x="669" y="344.5">+headImage</text></g></g><g transform="translate(-118,-110) scale(1,1)"><g><path fill="none" stroke="none"/><text fill="#000000" stroke="none" font-family="Arial" font-size="13px" font-style="normal" font-weight="normal" text-decoration="none" x="669" y="359.5">+introduction</text></g></g><g transform="translate(-118,-110) scale(1,1)"><rect fill="#C0C0C0" stroke="none" x="247" y="407" width="231" height="120" opacity="0.2"/></g><g transform="translate(-118,-110) scale(1,1)"><rect fill="#ffffff" stroke="none" x="240" y="400" width="231" height="120"/></g><g transform="translate(-118,-110) scale(1,1)"><path fill="none" stroke="#000000" d="M 240 400 L 471 400 L 471 520 L 240 520 L 240 400 Z Z" stroke-miterlimit="10"/></g><g transform="translate(-118,-110) scale(1,1)"><path fill="none" stroke="#000000" d="M 240 425 L 471 425" stroke-miterlimit="10"/></g><g transform="translate(-118,-110) scale(1,1)"><path fill="none" stroke="#000000" d="M 240 463 L 471 463" stroke-miterlimit="10"/></g><g transform="translate(-118,-110) scale(1,1)"><g><path fill="none" stroke="none"/><text fill="#000000" stroke="none" font-family="Arial" font-size="13px" font-style="normal" font-weight="bold" text-decoration="none" x="317.2109375" y="419.5">Administrator</text></g></g><g transform="translate(-118,-110) scale(1,1)"><g><path fill="none" stroke="none"/><text fill="#000000" stroke="none" font-family="Arial" font-size="13px" font-style="normal" font-weight="normal" text-decoration="none" x="245" y="442.5">+id</text></g></g><g transform="translate(-118,-110) scale(1,1)"><g><path fill="none" stroke="none"/><text fill="#000000" stroke="none" font-family="Arial" font-size="13px" font-style="normal" font-weight="normal" text-decoration="none" x="245" y="457.5">+name</text></g></g><g transform="translate(-118,-110) scale(1,1)"><g><path fill="none" stroke="none"/><text fill="#000000" stroke="none" font-family="Arial" font-size="13px" font-style="normal" font-weight="normal" text-decoration="none" x="245" y="480.5">+AddShow(show)</text></g></g><g transform="translate(-118,-110) scale(1,1)"><g><path fill="none" stroke="none"/><text fill="#000000" stroke="none" font-family="Arial" font-size="13px" font-style="normal" font-weight="normal" text-decoration="none" x="245" y="495.5">+AddIntroduction(introduction)</text></g></g><g transform="translate(-118,-110) scale(1,1)"><g><path fill="none" stroke="none"/><text fill="#000000" stroke="none" font-family="Arial" font-size="13px" font-style="normal" font-weight="normal" text-decoration="none" x="245" y="510.5">+ChangeShow(id, showcontent)</text></g></g><g transform="translate(-118,-110) scale(1,1)"><path fill="none" stroke="#000000" d="M 664 176 L 583 176" stroke-miterlimit="10" stroke-dasharray="3"/></g><g transform="translate(-118,-110) scale(1,1)"><path fill="none" stroke="#000000" d="M 593.1626748576241 171.790482243984 L 583 176 L 593.1626748576241 180.209517756016" stroke-miterlimit="10"/></g><g transform="translate(-118,-110) scale(1,1)"><path fill="none" stroke="#000000" d="M 664 320 L 583 320" stroke-miterlimit="10" stroke-dasharray="3"/></g><g transform="translate(-118,-110) scale(1,1)"><path fill="none" stroke="#000000" d="M 593.1626748576241 315.790482243984 L 583 320 L 593.1626748576241 324.209517756016" stroke-miterlimit="10"/></g><g transform="translate(-118,-110) scale(1,1)"><path fill="none" stroke="#000000" d="M 319 229 L 392 229" stroke-miterlimit="10"/></g><g transform="translate(-118,-110) scale(1,1)"><path fill="none" stroke="#000000" d="M 258 400 L 258 304" stroke-miterlimit="10"/></g><g transform="translate(-118,-110) scale(1,1)"><path fill="none" stroke="#000000" d="M 423 400 L 423 340" stroke-miterlimit="10"/></g><g transform="translate(-118,-110) scale(1,1)"><g><path fill="none" stroke="none"/><text fill="#000000" stroke="none" font-family="Arial" font-size="13px" font-style="normal" font-weight="normal" text-decoration="none" x="261" y="394">1</text></g></g><g transform="translate(-118,-110) scale(1,1)"><g><path fill="none" stroke="none"/><text fill="#000000" stroke="none" font-family="Arial" font-size="13px" font-style="normal" font-weight="normal" text-decoration="none" x="261" y="330">0..*</text></g></g><g transform="translate(-118,-110) scale(1,1)"><g><path fill="none" stroke="none"/><text fill="#000000" stroke="none" font-family="Arial" font-size="13px" font-style="normal" font-weight="normal" text-decoration="none" x="429" y="394">1</text></g></g><g transform="translate(-118,-110) scale(1,1)"><g><path fill="none" stroke="none"/><text fill="#000000" stroke="none" font-family="Arial" font-size="13px" font-style="normal" font-weight="normal" text-decoration="none" x="429" y="362">0..*</text></g></g><g transform="translate(-118,-110) scale(1,1)"><g><path fill="none" stroke="none"/><text fill="#000000" stroke="none" font-family="Arial" font-size="13px" font-style="normal" font-weight="normal" text-decoration="none" x="373" y="226">1</text></g></g><g transform="translate(-118,-110) scale(1,1)"><g><path fill="none" stroke="none"/><text fill="#000000" stroke="none" font-family="Arial" font-size="13px" font-style="normal" font-weight="normal" text-decoration="none" x="325" y="226">1</text></g></g></g></svg>