<svg version="1.1" xmlns="http://www.w3.org/2000/svg" xmlns:xlink="http://www.w3.org/1999/xlink" width="851" height="193"><defs/><g><g transform="translate(-144,-198) scale(1,1)"><path fill="#C0C0C0" stroke="none" d="M 161 288.5 C 161 283.2532944 165.2532944 279 170.5 279 C 175.7467056 279 180 283.2532944 180 288.5 C 180 293.7467056 175.7467056 298 170.5 298 C 165.2532944 298 161 293.7467056 161 288.5 Z" opacity="0.2"/></g><g transform="translate(-144,-198) scale(1,1)"><path fill="#000000" stroke="none" d="M 154 281.5 C 154 276.2532944 158.2532944 272 163.5 272 C 168.7467056 272 173 276.2532944 173 281.5 C 173 286.7467056 168.7467056 291 163.5 291 C 158.2532944 291 154 286.7467056 154 281.5 Z"/></g><g transform="translate(-144,-198) scale(1,1)"><path fill="#C0C0C0" stroke="none" d="M 265 271 L 349 271 Q 359 271 359 281 L 359 300 Q 359 310 349 310 L 265 310 Q 255 310 255 300 L 255 281 Q 255 271 265 271 Z" opacity="0.2"/></g><g transform="translate(-144,-198) scale(1,1)"><path fill="#ffffff" stroke="none" d="M 258 264 L 342 264 Q 352 264 352 274 L 352 293 Q 352 303 342 303 L 258 303 Q 248 303 248 293 L 248 274 Q 248 264 258 264 Z"/></g><g transform="translate(-144,-198) scale(1,1)"><path fill="none" stroke="#000000" d="M 258 264 L 342 264 Q 352 264 352 274 L 352 293 Q 352 303 342 303 L 258 303 Q 248 303 248 293 L 248 274 Q 248 264 258 264 Z" stroke-miterlimit="10"/></g><g transform="translate(-144,-198) scale(1,1)"><g><path fill="none" stroke="none"/><text fill="#000000" stroke="none" font-family="Arial" font-size="13px" font-style="normal" font-weight="bold" text-decoration="none" x="261" y="283.5">等待上架状态</text></g></g><g transform="translate(-144,-198) scale(1,1)"><path fill="#C0C0C0" stroke="none" d="M 433 271 L 525 271 Q 535 271 535 281 L 535 300 Q 535 310 525 310 L 433 310 Q 423 310 423 300 L 423 281 Q 423 271 433 271 Z" opacity="0.2"/></g><g transform="translate(-144,-198) scale(1,1)"><path fill="#ffffff" stroke="none" d="M 426 264 L 518 264 Q 528 264 528 274 L 528 293 Q 528 303 518 303 L 426 303 Q 416 303 416 293 L 416 274 Q 416 264 426 264 Z"/></g><g transform="translate(-144,-198) scale(1,1)"><path fill="none" stroke="#000000" d="M 426 264 L 518 264 Q 528 264 528 274 L 528 293 Q 528 303 518 303 L 426 303 Q 416 303 416 293 L 416 274 Q 416 264 426 264 Z" stroke-miterlimit="10"/></g><g transform="translate(-144,-198) scale(1,1)"><g><path fill="none" stroke="none"/><text fill="#000000" stroke="none" font-family="Arial" font-size="13px" font-style="normal" font-weight="bold" text-decoration="none" x="426.5" y="283.5">信息未完善状态</text></g></g><g transform="translate(-144,-198) scale(1,1)"><path fill="#C0C0C0" stroke="none" d="M 817 271 L 900 271 Q 910 271 910 281 L 910 300 Q 910 310 900 310 L 817 310 Q 807 310 807 300 L 807 281 Q 807 271 817 271 Z" opacity="0.2"/></g><g transform="translate(-144,-198) scale(1,1)"><path fill="#ffffff" stroke="none" d="M 810 264 L 893 264 Q 903 264 903 274 L 903 293 Q 903 303 893 303 L 810 303 Q 800 303 800 293 L 800 274 Q 800 264 810 264 Z"/></g><g transform="translate(-144,-198) scale(1,1)"><path fill="none" stroke="#000000" d="M 810 264 L 893 264 Q 903 264 903 274 L 903 293 Q 903 303 893 303 L 810 303 Q 800 303 800 293 L 800 274 Q 800 264 810 264 Z" stroke-miterlimit="10"/></g><g transform="translate(-144,-198) scale(1,1)"><g><path fill="none" stroke="none"/><text fill="#000000" stroke="none" font-family="Arial" font-size="13px" font-style="normal" font-weight="bold" text-decoration="none" x="825.5" y="283.5">上架成功</text></g></g><g transform="translate(-144,-198) scale(1,1)"><path fill="#C0C0C0" stroke="none" d="M 967 291.5 C 967 284.59644 972.59644 279 979.5 279 C 986.40356 279 992 284.59644 992 291.5 C 992 298.40356 986.40356 304 979.5 304 C 972.59644 304 967 298.40356 967 291.5 Z" opacity="0.2"/></g><g transform="translate(-144,-198) scale(1,1)"><path fill="none" stroke="#000000" d="M 960 284.5 C 960 277.59644 965.59644 272 972.5 272 C 979.40356 272 985 277.59644 985 284.5 C 985 291.40356 979.40356 297 972.5 297 C 965.59644 297 960 291.40356 960 284.5 Z" stroke-miterlimit="10"/></g><g transform="translate(-144,-198) scale(1,1)"><path fill="#000000" stroke="none" d="M 965 284.5 C 965 280.357864 968.357864 277 972.5 277 C 976.642136 277 980 280.357864 980 284.5 C 980 288.642136 976.642136 292 972.5 292 C 968.357864 292 965 288.642136 965 284.5 Z"/></g><g transform="translate(-144,-198) scale(1,1)"><path fill="#C0C0C0" stroke="none" d="M 711 296.5 L 722.5 287 L 733 296.5 L 722.5 305 L 711 296.5" opacity="0.2"/></g><g transform="translate(-144,-198) scale(1,1)"><path fill="#ffffff" stroke="none" d="M 704 289 L 715 280 L 726 289 L 715 298 L 704 289"/></g><g transform="translate(-144,-198) scale(1,1)"><path fill="none" stroke="#000000" d="M 704 289 L 715 280 L 726 289 L 715 298 L 704 289 L 704 289" stroke-miterlimit="10"/></g><g transform="translate(-144,-198) scale(1,1)"><path fill="#C0C0C0" stroke="none" d="M 599 296.5 L 610.5 287 L 621 296.5 L 610.5 305 L 599 296.5" opacity="0.2"/></g><g transform="translate(-144,-198) scale(1,1)"><path fill="#ffffff" stroke="none" d="M 592 289 L 603 280 L 614 289 L 603 298 L 592 289"/></g><g transform="translate(-144,-198) scale(1,1)"><path fill="none" stroke="#000000" d="M 592 289 L 603 280 L 614 289 L 603 298 L 592 289 L 592 289" stroke-miterlimit="10"/></g><g transform="translate(-144,-198) scale(1,1)"><path fill="none" stroke="#000000" d="M 173 281 L 248 281" stroke-miterlimit="10"/></g><g transform="translate(-144,-198) scale(1,1)"><path fill="none" stroke="#000000" d="M 237.83732514237585 285.209517756016 L 248 281 L 237.83732514237585 276.790482243984" stroke-miterlimit="10"/></g><g transform="translate(-144,-198) scale(1,1)"><path fill="none" stroke="#000000" d="M 352 283 L 416 283" stroke-miterlimit="10"/></g><g transform="translate(-144,-198) scale(1,1)"><path fill="none" stroke="#000000" d="M 405.83732514237585 287.209517756016 L 416 283 L 405.83732514237585 278.790482243984" stroke-miterlimit="10"/></g><g transform="translate(-144,-198) scale(1,1)"><path fill="none" stroke="#000000" d="M 528 289 L 592 289" stroke-miterlimit="10"/></g><g transform="translate(-144,-198) scale(1,1)"><path fill="none" stroke="#000000" d="M 581.8373251423759 293.209517756016 L 592 289 L 581.8373251423758 284.790482243984" stroke-miterlimit="10"/></g><g transform="translate(-144,-198) scale(1,1)"><path fill="none" stroke="#000000" d="M 614 289 L 704 289" stroke-miterlimit="10"/></g><g transform="translate(-144,-198) scale(1,1)"><path fill="none" stroke="#000000" d="M 693.8373251423759 293.209517756016 L 704 289 L 693.8373251423758 284.790482243984" stroke-miterlimit="10"/></g><g transform="translate(-144,-198) scale(1,1)"><g><path fill="none" stroke="none"/><text fill="#000000" stroke="none" font-family="Arial" font-size="13px" font-style="normal" font-weight="normal" text-decoration="none" x="600.5" y="280.5">完善信息并确认发布</text></g></g><g transform="translate(-144,-198) scale(1,1)"><path fill="none" stroke="#000000" d="M 726 288 L 800 288" stroke-miterlimit="10"/></g><g transform="translate(-144,-198) scale(1,1)"><path fill="none" stroke="#000000" d="M 789.8373251423759 292.209517756016 L 800 288 L 789.8373251423758 283.790482243984" stroke-miterlimit="10"/></g><g transform="translate(-144,-198) scale(1,1)"><g><path fill="none" stroke="none"/><text fill="#000000" stroke="none" font-family="Arial" font-size="13px" font-style="normal" font-weight="normal" text-decoration="none" x="736.5" y="279.5">信息完整</text></g></g><g transform="translate(-144,-198) scale(1,1)"><path fill="none" stroke="#000000" d="M 903 284 L 960 284" stroke-miterlimit="10"/></g><g transform="translate(-144,-198) scale(1,1)"><path fill="none" stroke="#000000" d="M 949.8373251423759 288.209517756016 L 960 284 L 949.8373251423758 279.790482243984" stroke-miterlimit="10"/></g><g transform="translate(-144,-198) scale(1,1)"><path fill="none" stroke="#000000" d="M 600 280 L 600 208 L 300 208 L 300 264" stroke-miterlimit="10"/></g><g transform="translate(-144,-198) scale(1,1)"><path fill="none" stroke="#000000" d="M 295.790482243984 253.83732514237585 L 300 264 L 304.209517756016 253.83732514237585" stroke-miterlimit="10"/></g><g transform="translate(-144,-198) scale(1,1)"><g><path fill="none" stroke="none"/><text fill="#000000" stroke="none" font-family="Arial" font-size="13px" font-style="normal" font-weight="normal" text-decoration="none" x="546.5" y="228.5">取消操作</text></g></g><g transform="translate(-144,-198) scale(1,1)"><path fill="none" stroke="#000000" d="M 704 298 L 704 360 L 488 360 L 488 303" stroke-miterlimit="10"/></g><g transform="translate(-144,-198) scale(1,1)"><path fill="none" stroke="#000000" d="M 492.209517756016 313.16267485762415 L 488 303 L 483.790482243984 313.16267485762415" stroke-miterlimit="10"/></g><g transform="translate(-144,-198) scale(1,1)"><g><path fill="none" stroke="none"/><text fill="#000000" stroke="none" font-family="Arial" font-size="13px" font-style="normal" font-weight="normal" text-decoration="none" x="562.5" y="381.5">信息不完整</text></g></g></g></svg>