<svg version="1.1" xmlns="http://www.w3.org/2000/svg" xmlns:xlink="http://www.w3.org/1999/xlink" width="813" height="119"><defs/><g><g transform="translate(-126,-226) scale(1,1)"><path fill="#C0C0C0" stroke="none" d="M 143 328.5 C 143 323.2532944 147.2532944 319 152.5 319 C 157.7467056 319 162 323.2532944 162 328.5 C 162 333.7467056 157.7467056 338 152.5 338 C 147.2532944 338 143 333.7467056 143 328.5 Z" opacity="0.2"/></g><g transform="translate(-126,-226) scale(1,1)"><path fill="#000000" stroke="none" d="M 136 321.5 C 136 316.2532944 140.2532944 312 145.5 312 C 150.7467056 312 155 316.2532944 155 321.5 C 155 326.7467056 150.7467056 331 145.5 331 C 140.2532944 331 136 326.7467056 136 321.5 Z"/></g><g transform="translate(-126,-226) scale(1,1)"><path fill="#C0C0C0" stroke="none" d="M 233 303 L 332 303 Q 342 303 342 313 L 342 332 Q 342 342 332 342 L 233 342 Q 223 342 223 332 L 223 313 Q 223 303 233 303 Z" opacity="0.2"/></g><g transform="translate(-126,-226) scale(1,1)"><path fill="#ffffff" stroke="none" d="M 226 296 L 325 296 Q 335 296 335 306 L 335 325 Q 335 335 325 335 L 226 335 Q 216 335 216 325 L 216 306 Q 216 296 226 296 Z"/></g><g transform="translate(-126,-226) scale(1,1)"><path fill="none" stroke="#000000" d="M 226 296 L 325 296 Q 335 296 335 306 L 335 325 Q 335 335 325 335 L 226 335 Q 216 335 216 325 L 216 306 Q 216 296 226 296 Z" stroke-miterlimit="10"/></g><g transform="translate(-126,-226) scale(1,1)"><g><path fill="none" stroke="none"/><text fill="#000000" stroke="none" font-family="Arial" font-size="13px" font-style="normal" font-weight="bold" text-decoration="none" x="243" y="315.5">待修改状态</text></g></g><g transform="translate(-126,-226) scale(1,1)"><path fill="#C0C0C0" stroke="none" d="M 409 303 L 532 303 Q 542 303 542 313 L 542 332 Q 542 342 532 342 L 409 342 Q 399 342 399 332 L 399 313 Q 399 303 409 303 Z" opacity="0.2"/></g><g transform="translate(-126,-226) scale(1,1)"><path fill="#ffffff" stroke="none" d="M 402 296 L 525 296 Q 535 296 535 306 L 535 325 Q 535 335 525 335 L 402 335 Q 392 335 392 325 L 392 306 Q 392 296 402 296 Z"/></g><g transform="translate(-126,-226) scale(1,1)"><path fill="none" stroke="#000000" d="M 402 296 L 525 296 Q 535 296 535 306 L 535 325 Q 535 335 525 335 L 402 335 Q 392 335 392 325 L 392 306 Q 392 296 402 296 Z" stroke-miterlimit="10"/></g><g transform="translate(-126,-226) scale(1,1)"><g><path fill="none" stroke="none"/><text fill="#000000" stroke="none" font-family="Arial" font-size="13px" font-style="normal" font-weight="bold" text-decoration="none" x="418" y="315.5">信息未完善状态</text></g></g><g transform="translate(-126,-226) scale(1,1)"><path fill="#C0C0C0" stroke="none" d="M 753 303 L 837 303 Q 847 303 847 313 L 847 332 Q 847 342 837 342 L 753 342 Q 743 342 743 332 L 743 313 Q 743 303 753 303 Z" opacity="0.2"/></g><g transform="translate(-126,-226) scale(1,1)"><path fill="#ffffff" stroke="none" d="M 746 296 L 830 296 Q 840 296 840 306 L 840 325 Q 840 335 830 335 L 746 335 Q 736 335 736 325 L 736 306 Q 736 296 746 296 Z"/></g><g transform="translate(-126,-226) scale(1,1)"><path fill="none" stroke="#000000" d="M 746 296 L 830 296 Q 840 296 840 306 L 840 325 Q 840 335 830 335 L 746 335 Q 736 335 736 325 L 736 306 Q 736 296 746 296 Z" stroke-miterlimit="10"/></g><g transform="translate(-126,-226) scale(1,1)"><g><path fill="none" stroke="none"/><text fill="#000000" stroke="none" font-family="Arial" font-size="13px" font-style="normal" font-weight="bold" text-decoration="none" x="762" y="315.5">修改成功</text></g></g><g transform="translate(-126,-226) scale(1,1)"><path fill="#C0C0C0" stroke="none" d="M 591 328.5 L 602.5 319 L 613 328.5 L 602.5 337 L 591 328.5" opacity="0.2"/></g><g transform="translate(-126,-226) scale(1,1)"><path fill="#ffffff" stroke="none" d="M 584 321 L 595 312 L 606 321 L 595 330 L 584 321"/></g><g transform="translate(-126,-226) scale(1,1)"><path fill="none" stroke="#000000" d="M 584 321 L 595 312 L 606 321 L 595 330 L 584 321 L 584 321" stroke-miterlimit="10"/></g><g transform="translate(-126,-226) scale(1,1)"><path fill="none" stroke="#000000" d="M 155 320 L 216 320" stroke-miterlimit="10"/></g><g transform="translate(-126,-226) scale(1,1)"><path fill="none" stroke="#000000" d="M 205.83732514237585 324.209517756016 L 216 320 L 205.83732514237585 315.790482243984" stroke-miterlimit="10"/></g><g transform="translate(-126,-226) scale(1,1)"><path fill="#C0C0C0" stroke="none" d="M 911 323.5 C 911 316.59644 916.59644 311 923.5 311 C 930.40356 311 936 316.59644 936 323.5 C 936 330.40356 930.40356 336 923.5 336 C 916.59644 336 911 330.40356 911 323.5 Z" opacity="0.2"/></g><g transform="translate(-126,-226) scale(1,1)"><path fill="none" stroke="#000000" d="M 904 316.5 C 904 309.59644 909.59644 304 916.5 304 C 923.40356 304 929 309.59644 929 316.5 C 929 323.40356 923.40356 329 916.5 329 C 909.59644 329 904 323.40356 904 316.5 Z" stroke-miterlimit="10"/></g><g transform="translate(-126,-226) scale(1,1)"><path fill="#000000" stroke="none" d="M 909 316.5 C 909 312.357864 912.357864 309 916.5 309 C 920.642136 309 924 312.357864 924 316.5 C 924 320.642136 920.642136 324 916.5 324 C 912.357864 324 909 320.642136 909 316.5 Z"/></g><g transform="translate(-126,-226) scale(1,1)"><path fill="#C0C0C0" stroke="none" d="M 775 259.5 C 775 252.59644 780.59644 247 787.5 247 C 794.40356 247 800 252.59644 800 259.5 C 800 266.40356 794.40356 272 787.5 272 C 780.59644 272 775 266.40356 775 259.5 Z" opacity="0.2"/></g><g transform="translate(-126,-226) scale(1,1)"><path fill="none" stroke="#000000" d="M 768 252.5 C 768 245.59644 773.59644 240 780.5 240 C 787.40356 240 793 245.59644 793 252.5 C 793 259.40356 787.40356 265 780.5 265 C 773.59644 265 768 259.40356 768 252.5 Z" stroke-miterlimit="10"/></g><g transform="translate(-126,-226) scale(1,1)"><path fill="#000000" stroke="none" d="M 773 252.5 C 773 248.357864 776.357864 245 780.5 245 C 784.642136 245 788 248.357864 788 252.5 C 788 256.642136 784.642136 260 780.5 260 C 776.357864 260 773 256.642136 773 252.5 Z"/></g><g transform="translate(-126,-226) scale(1,1)"><path fill="none" stroke="#000000" d="M 335 315 L 392 315" stroke-miterlimit="10"/></g><g transform="translate(-126,-226) scale(1,1)"><path fill="none" stroke="#000000" d="M 381.83732514237585 319.209517756016 L 392 315 L 381.83732514237585 310.790482243984" stroke-miterlimit="10"/></g><g transform="translate(-126,-226) scale(1,1)"><path fill="none" stroke="#000000" d="M 535 320 L 584 320" stroke-miterlimit="10"/></g><g transform="translate(-126,-226) scale(1,1)"><path fill="none" stroke="#000000" d="M 573.8373251423759 324.209517756016 L 584 320 L 573.8373251423758 315.790482243984" stroke-miterlimit="10"/></g><g transform="translate(-126,-226) scale(1,1)"><path fill="none" stroke="#000000" d="M 606 321 L 736 321" stroke-miterlimit="10"/></g><g transform="translate(-126,-226) scale(1,1)"><path fill="none" stroke="#000000" d="M 725.8373251423759 325.209517756016 L 736 321 L 725.8373251423758 316.790482243984" stroke-miterlimit="10"/></g><g transform="translate(-126,-226) scale(1,1)"><g><path fill="none" stroke="none"/><text fill="#000000" stroke="none" font-family="Arial" font-size="13px" font-style="normal" font-weight="normal" text-decoration="none" x="612.5" y="312.5">确认修改且信息完善</text></g></g><g transform="translate(-126,-226) scale(1,1)"><path fill="none" stroke="#000000" d="M 840 320 L 904 320" stroke-miterlimit="10"/></g><g transform="translate(-126,-226) scale(1,1)"><path fill="none" stroke="#000000" d="M 893.8373251423759 324.209517756016 L 904 320 L 893.8373251423758 315.790482243984" stroke-miterlimit="10"/></g><g transform="translate(-126,-226) scale(1,1)"><path fill="none" stroke="#000000" d="M 592 312 L 592 257 L 768 257" stroke-miterlimit="10"/></g><g transform="translate(-126,-226) scale(1,1)"><path fill="none" stroke="#000000" d="M 757.8373251423759 261.209517756016 L 768 257 L 757.8373251423758 252.790482243984" stroke-miterlimit="10"/></g><g transform="translate(-126,-226) scale(1,1)"><g><path fill="none" stroke="none"/><text fill="#000000" stroke="none" font-family="Arial" font-size="13px" font-style="normal" font-weight="normal" text-decoration="none" x="598.5" y="248.5">取消修改或信息不完善</text></g></g></g></svg>