<svg version="1.1" xmlns="http://www.w3.org/2000/svg" xmlns:xlink="http://www.w3.org/1999/xlink" width="476" height="468"><defs/><g><g transform="translate(-174,-126) scale(1,1)"><rect fill="#ffffff" stroke="none" x="184" y="136" width="200" height="21"/></g><g transform="translate(-174,-126) scale(1,1)"><path fill="none" stroke="#000000" d="M 184 136 L 384 136 L 384 157 L 184 157 L 184 136 Z Z" stroke-miterlimit="10" stroke-width="2"/></g><g transform="translate(-174,-126) scale(1,1)"><path fill="none" stroke="#000000" d="M 184 584 L 184 136 L 384 136 L 384 584" stroke-miterlimit="10" stroke-width="2"/></g><g transform="translate(-174,-126) scale(1,1)"><g><path fill="none" stroke="none"/><text fill="#000000" stroke="none" font-family="Arial" font-size="13px" font-style="normal" font-weight="normal" text-decoration="none" x="251.5" y="153">游客、用户</text></g></g><g transform="translate(-174,-126) scale(1,1)"><rect fill="#ffffff" stroke="none" x="384" y="136" width="256" height="21"/></g><g transform="translate(-174,-126) scale(1,1)"><path fill="none" stroke="#000000" d="M 384 136 L 640 136 L 640 157 L 384 157 L 384 136 Z Z" stroke-miterlimit="10" stroke-width="2"/></g><g transform="translate(-174,-126) scale(1,1)"><path fill="none" stroke="#000000" d="M 384 584 L 384 136 L 640 136 L 640 584" stroke-miterlimit="10" stroke-width="2"/></g><g transform="translate(-174,-126) scale(1,1)"><g><path fill="none" stroke="none"/><text fill="#000000" stroke="none" font-family="Arial" font-size="13px" font-style="normal" font-weight="normal" text-decoration="none" x="499" y="153">系统</text></g></g><g transform="translate(-174,-126) scale(1,1)"><path fill="#C0C0C0" stroke="none" d="M 241 231 L 334 231 Q 344 231 344 241 L 344 261 Q 344 271 334 271 L 241 271 Q 231 271 231 261 L 231 241 Q 231 231 241 231 Z" opacity="0.2"/></g><g transform="translate(-174,-126) scale(1,1)"><path fill="#ffffff" stroke="none" d="M 234 224 L 327 224 Q 337 224 337 234 L 337 254 Q 337 264 327 264 L 234 264 Q 224 264 224 254 L 224 234 Q 224 224 234 224 Z"/></g><g transform="translate(-174,-126) scale(1,1)"><path fill="none" stroke="#000000" d="M 234 224 L 327 224 Q 337 224 337 234 L 337 254 Q 337 264 327 264 L 234 264 Q 224 264 224 254 L 224 234 Q 224 224 234 224 Z" stroke-miterlimit="10"/></g><g transform="translate(-174,-126) scale(1,1)"><g><path fill="none" stroke="none"/><text fill="#000000" stroke="none" font-family="Arial" font-size="13px" font-style="normal" font-weight="bold" text-decoration="none" x="228.5" y="243.5">点击查看演出详情</text></g></g><g transform="translate(-174,-126) scale(1,1)"><path fill="#C0C0C0" stroke="none" d="M 473 231 L 553 231 Q 563 231 563 241 L 563 261 Q 563 271 553 271 L 473 271 Q 463 271 463 261 L 463 241 Q 463 231 473 231 Z" opacity="0.2"/></g><g transform="translate(-174,-126) scale(1,1)"><path fill="#ffffff" stroke="none" d="M 466 224 L 546 224 Q 556 224 556 234 L 556 254 Q 556 264 546 264 L 466 264 Q 456 264 456 254 L 456 234 Q 456 224 466 224 Z"/></g><g transform="translate(-174,-126) scale(1,1)"><path fill="none" stroke="#000000" d="M 466 224 L 546 224 Q 556 224 556 234 L 556 254 Q 556 264 546 264 L 466 264 Q 456 264 456 254 L 456 234 Q 456 224 466 224 Z" stroke-miterlimit="10"/></g><g transform="translate(-174,-126) scale(1,1)"><g><path fill="none" stroke="none"/><text fill="#000000" stroke="none" font-family="Arial" font-size="13px" font-style="normal" font-weight="bold" text-decoration="none" x="460.5" y="243.5">获取该演出信息</text></g></g><g transform="translate(-174,-126) scale(1,1)"><path fill="none" stroke="#000000" d="M 338 244 L 455 244" stroke-miterlimit="10"/></g><g transform="translate(-174,-126) scale(1,1)"><path fill="none" stroke="#000000" d="M 444.83732514237585 248.209517756016 L 455 244 L 444.83732514237585 239.790482243984" stroke-miterlimit="10"/></g><g transform="translate(-174,-126) scale(1,1)"><path fill="#C0C0C0" stroke="none" d="M 503 312.5 L 514.5 303 L 525 312.5 L 514.5 321 L 503 312.5" opacity="0.2"/></g><g transform="translate(-174,-126) scale(1,1)"><path fill="#ffffff" stroke="none" d="M 496 305 L 507 296 L 518 305 L 507 314 L 496 305"/></g><g transform="translate(-174,-126) scale(1,1)"><path fill="none" stroke="#000000" d="M 496 305 L 507 296 L 518 305 L 507 314 L 496 305 L 496 305" stroke-miterlimit="10"/></g><g transform="translate(-174,-126) scale(1,1)"><path fill="none" stroke="#000000" d="M 506 264 L 506 296" stroke-miterlimit="10"/></g><g transform="translate(-174,-126) scale(1,1)"><path fill="none" stroke="#000000" d="M 501.790482243984 285.83732514237585 L 506 296 L 510.209517756016 285.83732514237585" stroke-miterlimit="10"/></g><g transform="translate(-174,-126) scale(1,1)"><path fill="#C0C0C0" stroke="none" d="M 585 367 L 626 367 Q 636 367 636 377 L 636 397 Q 636 407 626 407 L 585 407 Q 575 407 575 397 L 575 377 Q 575 367 585 367 Z" opacity="0.2"/></g><g transform="translate(-174,-126) scale(1,1)"><path fill="#ffffff" stroke="none" d="M 578 360 L 619 360 Q 629 360 629 370 L 629 390 Q 629 400 619 400 L 578 400 Q 568 400 568 390 L 568 370 Q 568 360 578 360 Z"/></g><g transform="translate(-174,-126) scale(1,1)"><path fill="none" stroke="#000000" d="M 578 360 L 619 360 Q 629 360 629 370 L 629 390 Q 629 400 619 400 L 578 400 Q 568 400 568 390 L 568 370 Q 568 360 578 360 Z" stroke-miterlimit="10"/></g><g transform="translate(-174,-126) scale(1,1)"><g><path fill="none" stroke="none"/><text fill="#000000" stroke="none" font-family="Arial" font-size="13px" font-style="normal" font-weight="bold" text-decoration="none" x="572.5" y="379.5">获取成功</text></g></g><g transform="translate(-174,-126) scale(1,1)"><path fill="#C0C0C0" stroke="none" d="M 433 343 L 474 343 Q 484 343 484 353 L 484 373 Q 484 383 474 383 L 433 383 Q 423 383 423 373 L 423 353 Q 423 343 433 343 Z" opacity="0.2"/></g><g transform="translate(-174,-126) scale(1,1)"><path fill="#ffffff" stroke="none" d="M 426 336 L 467 336 Q 477 336 477 346 L 477 366 Q 477 376 467 376 L 426 376 Q 416 376 416 366 L 416 346 Q 416 336 426 336 Z"/></g><g transform="translate(-174,-126) scale(1,1)"><path fill="none" stroke="#000000" d="M 426 336 L 467 336 Q 477 336 477 346 L 477 366 Q 477 376 467 376 L 426 376 Q 416 376 416 366 L 416 346 Q 416 336 426 336 Z" stroke-miterlimit="10"/></g><g transform="translate(-174,-126) scale(1,1)"><g><path fill="none" stroke="none"/><text fill="#000000" stroke="none" font-family="Arial" font-size="13px" font-style="normal" font-weight="bold" text-decoration="none" x="420.5" y="355.5">获取失败</text></g></g><g transform="translate(-174,-126) scale(1,1)"><path fill="none" stroke="#000000" d="M 518 304 L 592 304 L 592 360" stroke-miterlimit="10"/></g><g transform="translate(-174,-126) scale(1,1)"><path fill="none" stroke="#000000" d="M 587.790482243984 349.83732514237585 L 592 360 L 596.209517756016 349.83732514237585" stroke-miterlimit="10"/></g><g transform="translate(-174,-126) scale(1,1)"><path fill="none" stroke="#000000" d="M 496 304 L 448 304 L 448 336" stroke-miterlimit="10"/></g><g transform="translate(-174,-126) scale(1,1)"><path fill="none" stroke="#000000" d="M 443.790482243984 325.83732514237585 L 448 336 L 452.209517756016 325.83732514237585" stroke-miterlimit="10"/></g><g transform="translate(-174,-126) scale(1,1)"><path fill="none" stroke="#000000" d="M 598 400 L 598 476 L 329 476" stroke-miterlimit="10"/></g><g transform="translate(-174,-126) scale(1,1)"><path fill="none" stroke="#000000" d="M 339.16267485762415 471.790482243984 L 329 476 L 339.16267485762415 480.209517756016" stroke-miterlimit="10"/></g><g transform="translate(-174,-126) scale(1,1)"><path fill="#C0C0C0" stroke="none" d="M 271 184.5 C 271 179.2532944 275.2532944 175 280.5 175 C 285.7467056 175 290 179.2532944 290 184.5 C 290 189.7467056 285.7467056 194 280.5 194 C 275.2532944 194 271 189.7467056 271 184.5 Z" opacity="0.2"/></g><g transform="translate(-174,-126) scale(1,1)"><path fill="#000000" stroke="none" d="M 264 177.5 C 264 172.2532944 268.2532944 168 273.5 168 C 278.7467056 168 283 172.2532944 283 177.5 C 283 182.7467056 278.7467056 187 273.5 187 C 268.2532944 187 264 182.7467056 264 177.5 Z"/></g><g transform="translate(-174,-126) scale(1,1)"><path fill="none" stroke="#000000" d="M 415 356 L 340 356" stroke-miterlimit="10"/></g><g transform="translate(-174,-126) scale(1,1)"><path fill="none" stroke="#000000" d="M 350.16267485762415 351.790482243984 L 340 356 L 350.16267485762415 360.209517756016" stroke-miterlimit="10"/></g><g transform="translate(-174,-126) scale(1,1)"><path fill="#C0C0C0" stroke="none" d="M 217 343 L 336 343 Q 346 343 346 353 L 346 373 Q 346 383 336 383 L 217 383 Q 207 383 207 373 L 207 353 Q 207 343 217 343 Z" opacity="0.2"/></g><g transform="translate(-174,-126) scale(1,1)"><path fill="#ffffff" stroke="none" d="M 210 336 L 329 336 Q 339 336 339 346 L 339 366 Q 339 376 329 376 L 210 376 Q 200 376 200 366 L 200 346 Q 200 336 210 336 Z"/></g><g transform="translate(-174,-126) scale(1,1)"><path fill="none" stroke="#000000" d="M 210 336 L 329 336 Q 339 336 339 346 L 339 366 Q 339 376 329 376 L 210 376 Q 200 376 200 366 L 200 346 Q 200 336 210 336 Z" stroke-miterlimit="10"/></g><g transform="translate(-174,-126) scale(1,1)"><g><path fill="none" stroke="none"/><text fill="#000000" stroke="none" font-family="Arial" font-size="13px" font-style="normal" font-weight="bold" text-decoration="none" x="204.5" y="355.5">显示获取演出信息失败</text></g></g><g transform="translate(-174,-126) scale(1,1)"><path fill="#C0C0C0" stroke="none" d="M 233 463 L 326 463 Q 336 463 336 473 L 336 493 Q 336 503 326 503 L 233 503 Q 223 503 223 493 L 223 473 Q 223 463 233 463 Z" opacity="0.2"/></g><g transform="translate(-174,-126) scale(1,1)"><path fill="#ffffff" stroke="none" d="M 226 456 L 319 456 Q 329 456 329 466 L 329 486 Q 329 496 319 496 L 226 496 Q 216 496 216 486 L 216 466 Q 216 456 226 456 Z"/></g><g transform="translate(-174,-126) scale(1,1)"><path fill="none" stroke="#000000" d="M 226 456 L 319 456 Q 329 456 329 466 L 329 486 Q 329 496 319 496 L 226 496 Q 216 496 216 486 L 216 466 Q 216 456 226 456 Z" stroke-miterlimit="10"/></g><g transform="translate(-174,-126) scale(1,1)"><g><path fill="none" stroke="none"/><text fill="#000000" stroke="none" font-family="Arial" font-size="13px" font-style="normal" font-weight="bold" text-decoration="none" x="220.5" y="475.5">显示演出详细信息</text></g></g><g transform="translate(-174,-126) scale(1,1)"><path fill="none" stroke="#000000" d="M 268 496 L 268 520" stroke-miterlimit="10"/></g><g transform="translate(-174,-126) scale(1,1)"><path fill="none" stroke="#000000" d="M 263.790482243984 509.83732514237585 L 268 520 L 272.209517756016 509.83732514237585" stroke-miterlimit="10"/></g><g transform="translate(-174,-126) scale(1,1)"><path fill="none" stroke="#000000" d="M 274 187 L 274 224" stroke-miterlimit="10"/></g><g transform="translate(-174,-126) scale(1,1)"><path fill="none" stroke="#000000" d="M 269.790482243984 213.83732514237585 L 274 224 L 278.209517756016 213.83732514237585" stroke-miterlimit="10"/></g><g transform="translate(-174,-126) scale(1,1)"><path fill="#C0C0C0" stroke="none" d="M 263 539.5 C 263 532.59644 268.59644 527 275.5 527 C 282.40356 527 288 532.59644 288 539.5 C 288 546.40356 282.40356 552 275.5 552 C 268.59644 552 263 546.40356 263 539.5 Z" opacity="0.2"/></g><g transform="translate(-174,-126) scale(1,1)"><path fill="none" stroke="#000000" d="M 256 532.5 C 256 525.59644 261.59644 520 268.5 520 C 275.40356 520 281 525.59644 281 532.5 C 281 539.40356 275.40356 545 268.5 545 C 261.59644 545 256 539.40356 256 532.5 Z" stroke-miterlimit="10"/></g><g transform="translate(-174,-126) scale(1,1)"><path fill="#000000" stroke="none" d="M 261 532.5 C 261 528.357864 264.357864 525 268.5 525 C 272.642136 525 276 528.357864 276 532.5 C 276 536.642136 272.642136 540 268.5 540 C 264.357864 540 261 536.642136 261 532.5 Z"/></g><g transform="translate(-174,-126) scale(1,1)"><path fill="#C0C0C0" stroke="none" d="M 263 427.5 C 263 420.59644 268.59644 415 275.5 415 C 282.40356 415 288 420.59644 288 427.5 C 288 434.40356 282.40356 440 275.5 440 C 268.59644 440 263 434.40356 263 427.5 Z" opacity="0.2"/></g><g transform="translate(-174,-126) scale(1,1)"><path fill="none" stroke="#000000" d="M 256 420.5 C 256 413.59644 261.59644 408 268.5 408 C 275.40356 408 281 413.59644 281 420.5 C 281 427.40356 275.40356 433 268.5 433 C 261.59644 433 256 427.40356 256 420.5 Z" stroke-miterlimit="10"/></g><g transform="translate(-174,-126) scale(1,1)"><path fill="#000000" stroke="none" d="M 261 420.5 C 261 416.357864 264.357864 413 268.5 413 C 272.642136 413 276 416.357864 276 420.5 C 276 424.642136 272.642136 428 268.5 428 C 264.357864 428 261 424.642136 261 420.5 Z"/></g><g transform="translate(-174,-126) scale(1,1)"><path fill="none" stroke="#000000" d="M 269 376 L 269 408" stroke-miterlimit="10"/></g><g transform="translate(-174,-126) scale(1,1)"><path fill="none" stroke="#000000" d="M 264.790482243984 397.83732514237585 L 269 408 L 273.209517756016 397.83732514237585" stroke-miterlimit="10"/></g></g></svg>