<svg version="1.1" xmlns="http://www.w3.org/2000/svg" xmlns:xlink="http://www.w3.org/1999/xlink" width="572" height="372"><defs/><g><g transform="translate(-174,-158) scale(1,1)"><rect fill="#ffffff" stroke="none" x="184" y="168" width="176" height="21"/></g><g transform="translate(-174,-158) scale(1,1)"><path fill="none" stroke="#000000" d="M 184 168 L 360 168 L 360 189 L 184 189 L 184 168 Z Z" stroke-miterlimit="10" stroke-width="2"/></g><g transform="translate(-174,-158) scale(1,1)"><path fill="none" stroke="#000000" d="M 184 520 L 184 168 L 360 168 L 360 520" stroke-miterlimit="10" stroke-width="2"/></g><g transform="translate(-174,-158) scale(1,1)"><g><path fill="none" stroke="none"/><text fill="#000000" stroke="none" font-family="Arial" font-size="13px" font-style="normal" font-weight="normal" text-decoration="none" x="259" y="185">游客</text></g></g><g transform="translate(-174,-158) scale(1,1)"><rect fill="#ffffff" stroke="none" x="360" y="168" width="176" height="21"/></g><g transform="translate(-174,-158) scale(1,1)"><path fill="none" stroke="#000000" d="M 360 168 L 536 168 L 536 189 L 360 189 L 360 168 Z Z" stroke-miterlimit="10" stroke-width="2"/></g><g transform="translate(-174,-158) scale(1,1)"><path fill="none" stroke="#000000" d="M 360 520 L 360 168 L 536 168 L 536 520" stroke-miterlimit="10" stroke-width="2"/></g><g transform="translate(-174,-158) scale(1,1)"><g><path fill="none" stroke="none"/><text fill="#000000" stroke="none" font-family="Arial" font-size="13px" font-style="normal" font-weight="normal" text-decoration="none" x="435" y="185">用户</text></g></g><g transform="translate(-174,-158) scale(1,1)"><rect fill="#ffffff" stroke="none" x="536" y="168" width="200" height="21"/></g><g transform="translate(-174,-158) scale(1,1)"><path fill="none" stroke="#000000" d="M 536 168 L 736 168 L 736 189 L 536 189 L 536 168 Z Z" stroke-miterlimit="10" stroke-width="2"/></g><g transform="translate(-174,-158) scale(1,1)"><path fill="none" stroke="#000000" d="M 536 520 L 536 168 L 736 168 L 736 520" stroke-miterlimit="10" stroke-width="2"/></g><g transform="translate(-174,-158) scale(1,1)"><g><path fill="none" stroke="none"/><text fill="#000000" stroke="none" font-family="Arial" font-size="13px" font-style="normal" font-weight="normal" text-decoration="none" x="623" y="185">系统</text></g></g><g transform="translate(-174,-158) scale(1,1)"><path fill="#C0C0C0" stroke="none" d="M 263 216.5 C 263 211.2532944 267.2532944 207 272.5 207 C 277.7467056 207 282 211.2532944 282 216.5 C 282 221.7467056 277.7467056 226 272.5 226 C 267.2532944 226 263 221.7467056 263 216.5 Z" opacity="0.2"/></g><g transform="translate(-174,-158) scale(1,1)"><path fill="#000000" stroke="none" d="M 256 209.5 C 256 204.2532944 260.2532944 200 265.5 200 C 270.7467056 200 275 204.2532944 275 209.5 C 275 214.7467056 270.7467056 219 265.5 219 C 260.2532944 219 256 214.7467056 256 209.5 Z"/></g><g transform="translate(-174,-158) scale(1,1)"><path fill="#C0C0C0" stroke="none" d="M 447 216.5 C 447 211.2532944 451.2532944 207 456.5 207 C 461.7467056 207 466 211.2532944 466 216.5 C 466 221.7467056 461.7467056 226 456.5 226 C 451.2532944 226 447 221.7467056 447 216.5 Z" opacity="0.2"/></g><g transform="translate(-174,-158) scale(1,1)"><path fill="#000000" stroke="none" d="M 440 209.5 C 440 204.2532944 444.2532944 200 449.5 200 C 454.7467056 200 459 204.2532944 459 209.5 C 459 214.7467056 454.7467056 219 449.5 219 C 444.2532944 219 440 214.7467056 440 209.5 Z"/></g><g transform="translate(-174,-158) scale(1,1)"><path fill="#C0C0C0" stroke="none" d="M 249 255 L 296.14453125 255 Q 306.14453125 255 306.14453125 265 L 306.14453125 285 Q 306.14453125 295 296.14453125 295 L 249 295 Q 239 295 239 285 L 239 265 Q 239 255 249 255 Z" opacity="0.2"/></g><g transform="translate(-174,-158) scale(1,1)"><path fill="#ffffff" stroke="none" d="M 242 248 L 289.14453125 248 Q 299.14453125 248 299.14453125 258 L 299.14453125 278 Q 299.14453125 288 289.14453125 288 L 242 288 Q 232 288 232 278 L 232 258 Q 232 248 242 248 Z"/></g><g transform="translate(-174,-158) scale(1,1)"><path fill="none" stroke="#000000" d="M 242 248 L 289.14453125 248 Q 299.14453125 248 299.14453125 258 L 299.14453125 278 Q 299.14453125 288 289.14453125 288 L 242 288 Q 232 288 232 278 L 232 258 Q 232 248 242 248 Z" stroke-miterlimit="10"/></g><g transform="translate(-174,-158) scale(1,1)"><g><path fill="none" stroke="none"/><text fill="#000000" stroke="none" font-family="Arial" font-size="13px" font-style="normal" font-weight="bold" text-decoration="none" x="237.766357421875" y="267.5">注册/登录</text></g></g><g transform="translate(-174,-158) scale(1,1)"><path fill="none" stroke="#000000" d="M 265 219 L 265 248" stroke-miterlimit="10"/></g><g transform="translate(-174,-158) scale(1,1)"><path fill="none" stroke="#000000" d="M 260.790482243984 237.83732514237585 L 265 248 L 269.209517756016 237.83732514237585" stroke-miterlimit="10"/></g><g transform="translate(-174,-158) scale(1,1)"><path fill="#C0C0C0" stroke="none" d="M 417 255 L 497 255 Q 507 255 507 265 L 507 285 Q 507 295 497 295 L 417 295 Q 407 295 407 285 L 407 265 Q 407 255 417 255 Z" opacity="0.2"/></g><g transform="translate(-174,-158) scale(1,1)"><path fill="#ffffff" stroke="none" d="M 410 248 L 490 248 Q 500 248 500 258 L 500 278 Q 500 288 490 288 L 410 288 Q 400 288 400 278 L 400 258 Q 400 248 410 248 Z"/></g><g transform="translate(-174,-158) scale(1,1)"><path fill="none" stroke="#000000" d="M 410 248 L 490 248 Q 500 248 500 258 L 500 278 Q 500 288 490 288 L 410 288 Q 400 288 400 278 L 400 258 Q 400 248 410 248 Z" stroke-miterlimit="10"/></g><g transform="translate(-174,-158) scale(1,1)"><g><path fill="none" stroke="none"/><text fill="#000000" stroke="none" font-family="Arial" font-size="13px" font-style="normal" font-weight="bold" text-decoration="none" x="404.5" y="267.5">选择场次与票档</text></g></g><g transform="translate(-174,-158) scale(1,1)"><path fill="none" stroke="#000000" d="M 300 268 L 399 268" stroke-miterlimit="10"/></g><g transform="translate(-174,-158) scale(1,1)"><path fill="none" stroke="#000000" d="M 388.83732514237585 272.209517756016 L 399 268 L 388.83732514237585 263.790482243984" stroke-miterlimit="10"/></g><g transform="translate(-174,-158) scale(1,1)"><path fill="none" stroke="#000000" d="M 449 220 L 450 247" stroke-miterlimit="10"/></g><g transform="translate(-174,-158) scale(1,1)"><path fill="none" stroke="#000000" d="M 445.41722899170594 237.0000895061236 L 450 247 L 453.8304960648887 236.68848702193162" stroke-miterlimit="10"/></g><g transform="translate(-174,-158) scale(1,1)"><path fill="#C0C0C0" stroke="none" d="M 593 255 L 686 255 Q 696 255 696 265 L 696 285 Q 696 295 686 295 L 593 295 Q 583 295 583 285 L 583 265 Q 583 255 593 255 Z" opacity="0.2"/></g><g transform="translate(-174,-158) scale(1,1)"><path fill="#ffffff" stroke="none" d="M 586 248 L 679 248 Q 689 248 689 258 L 689 278 Q 689 288 679 288 L 586 288 Q 576 288 576 278 L 576 258 Q 576 248 586 248 Z"/></g><g transform="translate(-174,-158) scale(1,1)"><path fill="none" stroke="#000000" d="M 586 248 L 679 248 Q 689 248 689 258 L 689 278 Q 689 288 679 288 L 586 288 Q 576 288 576 278 L 576 258 Q 576 248 586 248 Z" stroke-miterlimit="10"/></g><g transform="translate(-174,-158) scale(1,1)"><g><path fill="none" stroke="none"/><text fill="#000000" stroke="none" font-family="Arial" font-size="13px" font-style="normal" font-weight="bold" text-decoration="none" x="580.5" y="267.5">查询该场次与票档</text></g></g><g transform="translate(-174,-158) scale(1,1)"><path fill="none" stroke="#000000" d="M 501 268 L 575 268" stroke-miterlimit="10"/></g><g transform="translate(-174,-158) scale(1,1)"><path fill="none" stroke="#000000" d="M 564.8373251423759 272.209517756016 L 575 268 L 564.8373251423758 263.790482243984" stroke-miterlimit="10"/></g><g transform="translate(-174,-158) scale(1,1)"><path fill="#C0C0C0" stroke="none" d="M 623 352.5 L 634.5 343 L 645 352.5 L 634.5 361 L 623 352.5" opacity="0.2"/></g><g transform="translate(-174,-158) scale(1,1)"><path fill="#ffffff" stroke="none" d="M 616 345 L 627 336 L 638 345 L 627 354 L 616 345"/></g><g transform="translate(-174,-158) scale(1,1)"><path fill="none" stroke="#000000" d="M 616 345 L 627 336 L 638 345 L 627 354 L 616 345 L 616 345" stroke-miterlimit="10"/></g><g transform="translate(-174,-158) scale(1,1)"><path fill="none" stroke="#000000" d="M 630 288 L 630 336" stroke-miterlimit="10"/></g><g transform="translate(-174,-158) scale(1,1)"><path fill="none" stroke="#000000" d="M 625.790482243984 325.83732514237585 L 630 336 L 634.209517756016 325.83732514237585" stroke-miterlimit="10"/></g><g transform="translate(-174,-158) scale(1,1)"><path fill="#C0C0C0" stroke="none" d="M 417 407 L 510 407 Q 520 407 520 417 L 520 437 Q 520 447 510 447 L 417 447 Q 407 447 407 437 L 407 417 Q 407 407 417 407 Z" opacity="0.2"/></g><g transform="translate(-174,-158) scale(1,1)"><path fill="#ffffff" stroke="none" d="M 410 400 L 503 400 Q 513 400 513 410 L 513 430 Q 513 440 503 440 L 410 440 Q 400 440 400 430 L 400 410 Q 400 400 410 400 Z"/></g><g transform="translate(-174,-158) scale(1,1)"><path fill="none" stroke="#000000" d="M 410 400 L 503 400 Q 513 400 513 410 L 513 430 Q 513 440 503 440 L 410 440 Q 400 440 400 430 L 400 410 Q 400 400 410 400 Z" stroke-miterlimit="10"/></g><g transform="translate(-174,-158) scale(1,1)"><g><path fill="none" stroke="none"/><text fill="#000000" stroke="none" font-family="Arial" font-size="13px" font-style="normal" font-weight="bold" text-decoration="none" x="413.1708984375" y="419.5">显示“选择成功”</text></g></g><g transform="translate(-174,-158) scale(1,1)"><path fill="#C0C0C0" stroke="none" d="M 425 335 L 505 335 Q 515 335 515 345 L 515 365 Q 515 375 505 375 L 425 375 Q 415 375 415 365 L 415 345 Q 415 335 425 335 Z" opacity="0.2"/></g><g transform="translate(-174,-158) scale(1,1)"><path fill="#ffffff" stroke="none" d="M 418 328 L 498 328 Q 508 328 508 338 L 508 358 Q 508 368 498 368 L 418 368 Q 408 368 408 358 L 408 338 Q 408 328 418 328 Z"/></g><g transform="translate(-174,-158) scale(1,1)"><path fill="none" stroke="#000000" d="M 418 328 L 498 328 Q 508 328 508 338 L 508 358 Q 508 368 498 368 L 418 368 Q 408 368 408 358 L 408 338 Q 408 328 418 328 Z" stroke-miterlimit="10"/></g><g transform="translate(-174,-158) scale(1,1)"><g><path fill="none" stroke="none"/><text fill="#000000" stroke="none" font-family="Arial" font-size="13px" font-style="normal" font-weight="bold" text-decoration="none" x="421.1708984375" y="347.5">显示“无余票”</text></g></g><g transform="translate(-174,-158) scale(1,1)"><path fill="none" stroke="#000000" d="M 615 350 L 504 399" stroke-miterlimit="10"/></g><g transform="translate(-174,-158) scale(1,1)"><path fill="none" stroke="#000000" d="M 511.59711743497667 391.04488801592504 L 504 399 L 514.9970868847804 398.74685962670475" stroke-miterlimit="10"/></g><g transform="translate(-174,-158) scale(1,1)"><g><path fill="none" stroke="none"/><text fill="#000000" stroke="none" font-family="Arial" font-size="13px" font-style="normal" font-weight="normal" text-decoration="none" x="545.5" y="393.5">有余票</text></g></g><g transform="translate(-174,-158) scale(1,1)"><path fill="none" stroke="#000000" d="M 615 345 L 509 347" stroke-miterlimit="10"/></g><g transform="translate(-174,-158) scale(1,1)"><path fill="none" stroke="#000000" d="M 519.0814556620539 342.5995168749283 L 509 347 L 519.240277121105 351.0170542046347" stroke-miterlimit="10"/></g><g transform="translate(-174,-158) scale(1,1)"><g><path fill="none" stroke="none"/><text fill="#000000" stroke="none" font-family="Arial" font-size="13px" font-style="normal" font-weight="normal" text-decoration="none" x="542.5" y="366.5">无余票</text></g></g><g transform="translate(-174,-158) scale(1,1)"><path fill="#C0C0C0" stroke="none" d="M 439 499.5 C 439 492.59644 444.59644 487 451.5 487 C 458.40356 487 464 492.59644 464 499.5 C 464 506.40356 458.40356 512 451.5 512 C 444.59644 512 439 506.40356 439 499.5 Z" opacity="0.2"/></g><g transform="translate(-174,-158) scale(1,1)"><path fill="none" stroke="#000000" d="M 432 492.5 C 432 485.59644 437.59644 480 444.5 480 C 451.40356 480 457 485.59644 457 492.5 C 457 499.40356 451.40356 505 444.5 505 C 437.59644 505 432 499.40356 432 492.5 Z" stroke-miterlimit="10"/></g><g transform="translate(-174,-158) scale(1,1)"><path fill="#000000" stroke="none" d="M 437 492.5 C 437 488.357864 440.357864 485 444.5 485 C 448.642136 485 452 488.357864 452 492.5 C 452 496.642136 448.642136 500 444.5 500 C 440.357864 500 437 496.642136 437 492.5 Z"/></g><g transform="translate(-174,-158) scale(1,1)"><path fill="none" stroke="#000000" d="M 448 440 L 448 480" stroke-miterlimit="10"/></g><g transform="translate(-174,-158) scale(1,1)"><path fill="none" stroke="#000000" d="M 443.790482243984 469.83732514237585 L 448 480 L 452.209517756016 469.83732514237585" stroke-miterlimit="10"/></g></g></svg>