<svg version="1.1" xmlns="http://www.w3.org/2000/svg" xmlns:xlink="http://www.w3.org/1999/xlink" width="981" height="324"><defs/><g><g transform="translate(-150,-230) scale(1,1)"><path fill="#C0C0C0" stroke="none" d="M 167 400.5 C 167 395.2532944 171.2532944 391 176.5 391 C 181.7467056 391 186 395.2532944 186 400.5 C 186 405.7467056 181.7467056 410 176.5 410 C 171.2532944 410 167 405.7467056 167 400.5 Z" opacity="0.2"/></g><g transform="translate(-150,-230) scale(1,1)"><path fill="#000000" stroke="none" d="M 160 393.5 C 160 388.2532944 164.2532944 384 169.5 384 C 174.7467056 384 179 388.2532944 179 393.5 C 179 398.7467056 174.7467056 403 169.5 403 C 164.2532944 403 160 398.7467056 160 393.5 Z"/></g><g transform="translate(-150,-230) scale(1,1)"><path fill="#C0C0C0" stroke="none" d="M 769 383 L 849 383 Q 859 383 859 393 L 859 412 Q 859 422 849 422 L 769 422 Q 759 422 759 412 L 759 393 Q 759 383 769 383 Z" opacity="0.2"/></g><g transform="translate(-150,-230) scale(1,1)"><path fill="#ffffff" stroke="none" d="M 762 376 L 842 376 Q 852 376 852 386 L 852 405 Q 852 415 842 415 L 762 415 Q 752 415 752 405 L 752 386 Q 752 376 762 376 Z"/></g><g transform="translate(-150,-230) scale(1,1)"><path fill="none" stroke="#000000" d="M 762 376 L 842 376 Q 852 376 852 386 L 852 405 Q 852 415 842 415 L 762 415 Q 752 415 752 405 L 752 386 Q 752 376 762 376 Z" stroke-miterlimit="10"/></g><g transform="translate(-150,-230) scale(1,1)"><g><path fill="none" stroke="none"/><text fill="#000000" stroke="none" font-family="Arial" font-size="13px" font-style="normal" font-weight="bold" text-decoration="none" x="756.5" y="395.5">现场可发布状态</text></g></g><g transform="translate(-150,-230) scale(1,1)"><path fill="#C0C0C0" stroke="none" d="M 969 383 L 1049 383 Q 1059 383 1059 393 L 1059 412 Q 1059 422 1049 422 L 969 422 Q 959 422 959 412 L 959 393 Q 959 383 969 383 Z" opacity="0.2"/></g><g transform="translate(-150,-230) scale(1,1)"><path fill="#ffffff" stroke="none" d="M 962 376 L 1042 376 Q 1052 376 1052 386 L 1052 405 Q 1052 415 1042 415 L 962 415 Q 952 415 952 405 L 952 386 Q 952 376 962 376 Z"/></g><g transform="translate(-150,-230) scale(1,1)"><path fill="none" stroke="#000000" d="M 962 376 L 1042 376 Q 1052 376 1052 386 L 1052 405 Q 1052 415 1042 415 L 962 415 Q 952 415 952 405 L 952 386 Q 952 376 962 376 Z" stroke-miterlimit="10"/></g><g transform="translate(-150,-230) scale(1,1)"><g><path fill="none" stroke="none"/><text fill="#000000" stroke="none" font-family="Arial" font-size="13px" font-style="normal" font-weight="bold" text-decoration="none" x="956.5" y="395.5">现场已发布状态</text></g></g><g transform="translate(-150,-230) scale(1,1)"><path fill="none" stroke="#000000" d="M 853 395 L 951 395" stroke-miterlimit="10"/></g><g transform="translate(-150,-230) scale(1,1)"><path fill="none" stroke="#000000" d="M 940.8373251423759 399.209517756016 L 951 395 L 940.8373251423758 390.790482243984" stroke-miterlimit="10"/></g><g transform="translate(-150,-230) scale(1,1)"><g><path fill="none" stroke="none"/><text fill="#000000" stroke="none" font-family="Arial" font-size="13px" font-style="normal" font-weight="normal" text-decoration="none" x="862.5" y="386.5">点击发布按钮</text></g></g><g transform="translate(-150,-230) scale(1,1)"><path fill="#C0C0C0" stroke="none" d="M 1103 403.5 C 1103 396.59644 1108.59644 391 1115.5 391 C 1122.40356 391 1128 396.59644 1128 403.5 C 1128 410.40356 1122.40356 416 1115.5 416 C 1108.59644 416 1103 410.40356 1103 403.5 Z" opacity="0.2"/></g><g transform="translate(-150,-230) scale(1,1)"><path fill="none" stroke="#000000" d="M 1096 396.5 C 1096 389.59644 1101.59644 384 1108.5 384 C 1115.40356 384 1121 389.59644 1121 396.5 C 1121 403.40356 1115.40356 409 1108.5 409 C 1101.59644 409 1096 403.40356 1096 396.5 Z" stroke-miterlimit="10"/></g><g transform="translate(-150,-230) scale(1,1)"><path fill="#000000" stroke="none" d="M 1101 396.5 C 1101 392.357864 1104.357864 389 1108.5 389 C 1112.642136 389 1116 392.357864 1116 396.5 C 1116 400.642136 1112.642136 404 1108.5 404 C 1104.357864 404 1101 400.642136 1101 396.5 Z"/></g><g transform="translate(-150,-230) scale(1,1)"><path fill="#C0C0C0" stroke="none" d="M 887 315.5 C 887 308.59644 892.59644 303 899.5 303 C 906.40356 303 912 308.59644 912 315.5 C 912 322.40356 906.40356 328 899.5 328 C 892.59644 328 887 322.40356 887 315.5 Z" opacity="0.2"/></g><g transform="translate(-150,-230) scale(1,1)"><path fill="none" stroke="#000000" d="M 880 308.5 C 880 301.59644 885.59644 296 892.5 296 C 899.40356 296 905 301.59644 905 308.5 C 905 315.40356 899.40356 321 892.5 321 C 885.59644 321 880 315.40356 880 308.5 Z" stroke-miterlimit="10"/></g><g transform="translate(-150,-230) scale(1,1)"><path fill="#000000" stroke="none" d="M 885 308.5 C 885 304.357864 888.357864 301 892.5 301 C 896.642136 301 900 304.357864 900 308.5 C 900 312.642136 896.642136 316 892.5 316 C 888.357864 316 885 312.642136 885 308.5 Z"/></g><g transform="translate(-150,-230) scale(1,1)"><path fill="none" stroke="#000000" d="M 1053 395 L 1095 396" stroke-miterlimit="10"/></g><g transform="translate(-150,-230) scale(1,1)"><path fill="none" stroke="#000000" d="M 1084.7400062785855 399.9664251961348 L 1095 396 L 1084.9404027114003 391.54977501791245" stroke-miterlimit="10"/></g><g transform="translate(-150,-230) scale(1,1)"><path fill="#C0C0C0" stroke="none" d="M 305 247 L 613 247 Q 623 247 623 257 L 623 541 Q 623 551 613 551 L 305 551 Q 295 551 295 541 L 295 257 Q 295 247 305 247 Z" opacity="0.2"/></g><g transform="translate(-150,-230) scale(1,1)"><path fill="#ffffff" stroke="none" d="M 298 240 L 606 240 Q 616 240 616 250 L 616 534 Q 616 544 606 544 L 298 544 Q 288 544 288 534 L 288 250 Q 288 240 298 240 Z"/></g><g transform="translate(-150,-230) scale(1,1)"><path fill="none" stroke="#000000" d="M 298 240 L 606 240 Q 616 240 616 250 L 616 534 Q 616 544 606 544 L 298 544 Q 288 544 288 534 L 288 250 Q 288 240 298 240 Z" stroke-miterlimit="10"/></g><g transform="translate(-150,-230) scale(1,1)"><path fill="none" stroke="#000000" d="M 288 265 L 616 265" stroke-miterlimit="10"/></g><g transform="translate(-150,-230) scale(1,1)"><g><path fill="none" stroke="none"/><text fill="#000000" stroke="none" font-family="Arial" font-size="13px" font-style="normal" font-weight="bold" text-decoration="none" x="413" y="259.5">现场编辑状态</text></g></g><g transform="translate(-150,-230) scale(1,1)"><path fill="#C0C0C0" stroke="none" d="M 505 303 L 585 303 Q 595 303 595 313 L 595 332 Q 595 342 585 342 L 505 342 Q 495 342 495 332 L 495 313 Q 495 303 505 303 Z" opacity="0.2"/></g><g transform="translate(-150,-230) scale(1,1)"><path fill="#ffffff" stroke="none" d="M 498 296 L 578 296 Q 588 296 588 306 L 588 325 Q 588 335 578 335 L 498 335 Q 488 335 488 325 L 488 306 Q 488 296 498 296 Z"/></g><g transform="translate(-150,-230) scale(1,1)"><path fill="none" stroke="#000000" d="M 498 296 L 578 296 Q 588 296 588 306 L 588 325 Q 588 335 578 335 L 498 335 Q 488 335 488 325 L 488 306 Q 488 296 498 296 Z" stroke-miterlimit="10"/></g><g transform="translate(-150,-230) scale(1,1)"><g><path fill="none" stroke="none"/><text fill="#000000" stroke="none" font-family="Arial" font-size="13px" font-style="normal" font-weight="bold" text-decoration="none" x="492.5" y="315.5">内容已添加状态</text></g></g><g transform="translate(-150,-230) scale(1,1)"><path fill="#C0C0C0" stroke="none" d="M 505 383 L 585 383 Q 595 383 595 393 L 595 412 Q 595 422 585 422 L 505 422 Q 495 422 495 412 L 495 393 Q 495 383 505 383 Z" opacity="0.2"/></g><g transform="translate(-150,-230) scale(1,1)"><path fill="#ffffff" stroke="none" d="M 498 376 L 578 376 Q 588 376 588 386 L 588 405 Q 588 415 578 415 L 498 415 Q 488 415 488 405 L 488 386 Q 488 376 498 376 Z"/></g><g transform="translate(-150,-230) scale(1,1)"><path fill="none" stroke="#000000" d="M 498 376 L 578 376 Q 588 376 588 386 L 588 405 Q 588 415 578 415 L 498 415 Q 488 415 488 405 L 488 386 Q 488 376 498 376 Z" stroke-miterlimit="10"/></g><g transform="translate(-150,-230) scale(1,1)"><g><path fill="none" stroke="none"/><text fill="#000000" stroke="none" font-family="Arial" font-size="13px" font-style="normal" font-weight="bold" text-decoration="none" x="492.5" y="395.5">演出已关联状态</text></g></g><g transform="translate(-150,-230) scale(1,1)"><path fill="#C0C0C0" stroke="none" d="M 521 455 L 575 455 Q 585 455 585 465 L 585 484 Q 585 494 575 494 L 521 494 Q 511 494 511 484 L 511 465 Q 511 455 521 455 Z" opacity="0.2"/></g><g transform="translate(-150,-230) scale(1,1)"><path fill="#ffffff" stroke="none" d="M 514 448 L 568 448 Q 578 448 578 458 L 578 477 Q 578 487 568 487 L 514 487 Q 504 487 504 477 L 504 458 Q 504 448 514 448 Z"/></g><g transform="translate(-150,-230) scale(1,1)"><path fill="none" stroke="#000000" d="M 514 448 L 568 448 Q 578 448 578 458 L 578 477 Q 578 487 568 487 L 514 487 Q 504 487 504 477 L 504 458 Q 504 448 514 448 Z" stroke-miterlimit="10"/></g><g transform="translate(-150,-230) scale(1,1)"><g><path fill="none" stroke="none"/><text fill="#000000" stroke="none" font-family="Arial" font-size="13px" font-style="normal" font-weight="bold" text-decoration="none" x="508.5" y="467.5">已评分状态</text></g></g><g transform="translate(-150,-230) scale(1,1)"><path fill="none" stroke="#000000" d="M 180 393 L 287 393" stroke-miterlimit="10"/></g><g transform="translate(-150,-230) scale(1,1)"><path fill="none" stroke="#000000" d="M 276.83732514237585 397.209517756016 L 287 393 L 276.83732514237585 388.790482243984" stroke-miterlimit="10"/></g><g transform="translate(-150,-230) scale(1,1)"><g><path fill="none" stroke="none"/><text fill="#000000" stroke="none" font-family="Arial" font-size="13px" font-style="normal" font-weight="normal" text-decoration="none" x="180.5" y="384.5">点击创建现场按钮</text></g></g><g transform="translate(-150,-230) scale(1,1)"><path fill="none" stroke="#000000" d="M 617 393 L 751 395" stroke-miterlimit="10"/></g><g transform="translate(-150,-230) scale(1,1)"><path fill="none" stroke="#000000" d="M 740.7756352800529 399.0573841417226 L 751 395 L 740.9012785327101 390.6392862136918" stroke-miterlimit="10"/></g><g transform="translate(-150,-230) scale(1,1)"><g><path fill="none" stroke="none"/><text fill="#000000" stroke="none" font-family="Arial" font-size="13px" font-style="normal" font-weight="normal" text-decoration="none" x="631.5" y="385.5">所有内容成功添加</text></g></g><g transform="translate(-150,-230) scale(1,1)"><path fill="#C0C0C0" stroke="none" d="M 337 303 L 417 303 Q 427 303 427 313 L 427 332 Q 427 342 417 342 L 337 342 Q 327 342 327 332 L 327 313 Q 327 303 337 303 Z" opacity="0.2"/></g><g transform="translate(-150,-230) scale(1,1)"><path fill="#ffffff" stroke="none" d="M 330 296 L 410 296 Q 420 296 420 306 L 420 325 Q 420 335 410 335 L 330 335 Q 320 335 320 325 L 320 306 Q 320 296 330 296 Z"/></g><g transform="translate(-150,-230) scale(1,1)"><path fill="none" stroke="#000000" d="M 330 296 L 410 296 Q 420 296 420 306 L 420 325 Q 420 335 410 335 L 330 335 Q 320 335 320 325 L 320 306 Q 320 296 330 296 Z" stroke-miterlimit="10"/></g><g transform="translate(-150,-230) scale(1,1)"><g><path fill="none" stroke="none"/><text fill="#000000" stroke="none" font-family="Arial" font-size="13px" font-style="normal" font-weight="bold" text-decoration="none" x="324.5" y="315.5">内容未添加状态</text></g></g><g transform="translate(-150,-230) scale(1,1)"><path fill="#C0C0C0" stroke="none" d="M 337 383 L 417 383 Q 427 383 427 393 L 427 412 Q 427 422 417 422 L 337 422 Q 327 422 327 412 L 327 393 Q 327 383 337 383 Z" opacity="0.2"/></g><g transform="translate(-150,-230) scale(1,1)"><path fill="#ffffff" stroke="none" d="M 330 376 L 410 376 Q 420 376 420 386 L 420 405 Q 420 415 410 415 L 330 415 Q 320 415 320 405 L 320 386 Q 320 376 330 376 Z"/></g><g transform="translate(-150,-230) scale(1,1)"><path fill="none" stroke="#000000" d="M 330 376 L 410 376 Q 420 376 420 386 L 420 405 Q 420 415 410 415 L 330 415 Q 320 415 320 405 L 320 386 Q 320 376 330 376 Z" stroke-miterlimit="10"/></g><g transform="translate(-150,-230) scale(1,1)"><g><path fill="none" stroke="none"/><text fill="#000000" stroke="none" font-family="Arial" font-size="13px" font-style="normal" font-weight="bold" text-decoration="none" x="324.5" y="395.5">演出未添加状态</text></g></g><g transform="translate(-150,-230) scale(1,1)"><path fill="#C0C0C0" stroke="none" d="M 345 455 L 399 455 Q 409 455 409 465 L 409 484 Q 409 494 399 494 L 345 494 Q 335 494 335 484 L 335 465 Q 335 455 345 455 Z" opacity="0.2"/></g><g transform="translate(-150,-230) scale(1,1)"><path fill="#ffffff" stroke="none" d="M 338 448 L 392 448 Q 402 448 402 458 L 402 477 Q 402 487 392 487 L 338 487 Q 328 487 328 477 L 328 458 Q 328 448 338 448 Z"/></g><g transform="translate(-150,-230) scale(1,1)"><path fill="none" stroke="#000000" d="M 338 448 L 392 448 Q 402 448 402 458 L 402 477 Q 402 487 392 487 L 338 487 Q 328 487 328 477 L 328 458 Q 328 448 338 448 Z" stroke-miterlimit="10"/></g><g transform="translate(-150,-230) scale(1,1)"><g><path fill="none" stroke="none"/><text fill="#000000" stroke="none" font-family="Arial" font-size="13px" font-style="normal" font-weight="bold" text-decoration="none" x="332.5" y="467.5">未评分状态</text></g></g><g transform="translate(-150,-230) scale(1,1)"><path fill="none" stroke="#000000" d="M 421 315 L 487 315" stroke-miterlimit="10"/></g><g transform="translate(-150,-230) scale(1,1)"><path fill="none" stroke="#000000" d="M 476.83732514237585 319.209517756016 L 487 315 L 476.83732514237585 310.790482243984" stroke-miterlimit="10"/></g><g transform="translate(-150,-230) scale(1,1)"><g><path fill="none" stroke="none"/><text fill="#000000" stroke="none" font-family="Arial" font-size="10px" font-style="normal" font-weight="normal" text-decoration="none" x="433.5" y="304.5">编辑内容</text></g></g><g transform="translate(-150,-230) scale(1,1)"><path fill="none" stroke="#000000" d="M 487 331 L 472 336 L 440 336 L 421 330" stroke-miterlimit="10"/></g><g transform="translate(-150,-230) scale(1,1)"><path fill="none" stroke="#000000" d="M 431.9585684158496 329.0461770210651 L 421 330 L 429.4233327354004 337.07442334248753" stroke-miterlimit="10"/></g><g transform="translate(-150,-230) scale(1,1)"><g><path fill="none" stroke="none"/><text fill="#000000" stroke="none" font-family="Arial" font-size="10px" font-style="normal" font-weight="normal" text-decoration="none" x="434.5" y="355.5">清空内容</text></g></g><g transform="translate(-150,-230) scale(1,1)"><path fill="none" stroke="#000000" d="M 421 395 L 487 395" stroke-miterlimit="10"/></g><g transform="translate(-150,-230) scale(1,1)"><path fill="none" stroke="#000000" d="M 476.83732514237585 399.209517756016 L 487 395 L 476.83732514237585 390.790482243984" stroke-miterlimit="10"/></g><g transform="translate(-150,-230) scale(1,1)"><g><path fill="none" stroke="none"/><text fill="#000000" stroke="none" font-family="Arial" font-size="10px" font-style="normal" font-weight="normal" text-decoration="none" x="433.5" y="384.5">选择演出</text></g></g><g transform="translate(-150,-230) scale(1,1)"><path fill="none" stroke="#000000" d="M 538 376 L 538 368 L 600 368 L 600 395 L 588 395" stroke-miterlimit="10"/></g><g transform="translate(-150,-230) scale(1,1)"><path fill="none" stroke="#000000" d="M 598.1626748576241 390.790482243984 L 588 395 L 598.1626748576241 399.209517756016" stroke-miterlimit="10"/></g><g transform="translate(-150,-230) scale(1,1)"><g><path fill="none" stroke="none"/><text fill="#000000" stroke="none" font-family="Arial" font-size="10px" font-style="normal" font-weight="normal" text-decoration="none" x="535.5" y="359.5">修改关联演出</text></g></g><g transform="translate(-150,-230) scale(1,1)"><path fill="none" stroke="#000000" d="M 403 467 L 503 467" stroke-miterlimit="10"/></g><g transform="translate(-150,-230) scale(1,1)"><path fill="none" stroke="#000000" d="M 492.83732514237585 471.209517756016 L 503 467 L 492.83732514237585 462.790482243984" stroke-miterlimit="10"/></g><g transform="translate(-150,-230) scale(1,1)"><g><path fill="none" stroke="none"/><text fill="#000000" stroke="none" font-family="Arial" font-size="10px" font-style="normal" font-weight="normal" text-decoration="none" x="433.5" y="455.5">评分</text></g></g><g transform="translate(-150,-230) scale(1,1)"><path fill="none" stroke="#000000" d="M 792 376 L 792 307 L 880 307" stroke-miterlimit="10"/></g><g transform="translate(-150,-230) scale(1,1)"><path fill="none" stroke="#000000" d="M 869.8373251423759 311.209517756016 L 880 307 L 869.8373251423758 302.790482243984" stroke-miterlimit="10"/></g><g transform="translate(-150,-230) scale(1,1)"><g><path fill="none" stroke="none"/><text fill="#000000" stroke="none" font-family="Arial" font-size="13px" font-style="normal" font-weight="normal" text-decoration="none" x="806.5" y="299.5">取消发布</text></g></g><g transform="translate(-150,-230) scale(1,1)"><path fill="#C0C0C0" stroke="none" d="M 719 315.5 C 719 308.59644 724.59644 303 731.5 303 C 738.40356 303 744 308.59644 744 315.5 C 744 322.40356 738.40356 328 731.5 328 C 724.59644 328 719 322.40356 719 315.5 Z" opacity="0.2"/></g><g transform="translate(-150,-230) scale(1,1)"><path fill="none" stroke="#000000" d="M 712 308.5 C 712 301.59644 717.59644 296 724.5 296 C 731.40356 296 737 301.59644 737 308.5 C 737 315.40356 731.40356 321 724.5 321 C 717.59644 321 712 315.40356 712 308.5 Z" stroke-miterlimit="10"/></g><g transform="translate(-150,-230) scale(1,1)"><path fill="#000000" stroke="none" d="M 717 308.5 C 717 304.357864 720.357864 301 724.5 301 C 728.642136 301 732 304.357864 732 308.5 C 732 312.642136 728.642136 316 724.5 316 C 720.357864 316 717 312.642136 717 308.5 Z"/></g><g transform="translate(-150,-230) scale(1,1)"><path fill="none" stroke="#000000" d="M 616 341 L 724 341 L 724 321" stroke-miterlimit="10"/></g><g transform="translate(-150,-230) scale(1,1)"><path fill="none" stroke="#000000" d="M 728.209517756016 331.16267485762415 L 724 321 L 719.790482243984 331.16267485762415" stroke-miterlimit="10"/></g><g transform="translate(-150,-230) scale(1,1)"><g><path fill="none" stroke="none"/><text fill="#000000" stroke="none" font-family="Arial" font-size="13px" font-style="normal" font-weight="normal" text-decoration="none" x="637.5" y="332.5">退出编辑页面</text></g></g></g></svg>