<svg version="1.1" xmlns="http://www.w3.org/2000/svg" xmlns:xlink="http://www.w3.org/1999/xlink" width="598" height="190"><defs/><g><g transform="translate(-118,-397) scale(1,1)"><path fill="#C0C0C0" stroke="none" d="M 135 480.5 C 135 475.2532944 139.2532944 471 144.5 471 C 149.7467056 471 154 475.2532944 154 480.5 C 154 485.7467056 149.7467056 490 144.5 490 C 139.2532944 490 135 485.7467056 135 480.5 Z" opacity="0.2"/></g><g transform="translate(-118,-397) scale(1,1)"><path fill="#000000" stroke="none" d="M 128 473.5 C 128 468.2532944 132.2532944 464 137.5 464 C 142.7467056 464 147 468.2532944 147 473.5 C 147 478.7467056 142.7467056 483 137.5 483 C 132.2532944 483 128 478.7467056 128 473.5 Z"/></g><g transform="translate(-118,-397) scale(1,1)"><path fill="#C0C0C0" stroke="none" d="M 273 463 L 340 463 Q 350 463 350 473 L 350 492 Q 350 502 340 502 L 273 502 Q 263 502 263 492 L 263 473 Q 263 463 273 463 Z" opacity="0.2"/></g><g transform="translate(-118,-397) scale(1,1)"><path fill="#ffffff" stroke="none" d="M 266 456 L 333 456 Q 343 456 343 466 L 343 485 Q 343 495 333 495 L 266 495 Q 256 495 256 485 L 256 466 Q 256 456 266 456 Z"/></g><g transform="translate(-118,-397) scale(1,1)"><path fill="none" stroke="#000000" d="M 266 456 L 333 456 Q 343 456 343 466 L 343 485 Q 343 495 333 495 L 266 495 Q 256 495 256 485 L 256 466 Q 256 456 266 456 Z" stroke-miterlimit="10"/></g><g transform="translate(-118,-397) scale(1,1)"><g><path fill="none" stroke="none"/><text fill="#000000" stroke="none" font-family="Arial" font-size="13px" font-style="normal" font-weight="bold" text-decoration="none" x="260.5" y="475.5">详情展示状态</text></g></g><g transform="translate(-118,-397) scale(1,1)"><path fill="none" stroke="#000000" d="M 148 473 L 255 474" stroke-miterlimit="10"/></g><g transform="translate(-118,-397) scale(1,1)"><path fill="none" stroke="#000000" d="M 244.79842936755244 478.11435980818203 L 255 474 L 244.87710850643592 469.69569194764966" stroke-miterlimit="10"/></g><g transform="translate(-118,-397) scale(1,1)"><g><path fill="none" stroke="none"/><text fill="#000000" stroke="none" font-family="Arial" font-size="13px" font-style="normal" font-weight="normal" text-decoration="none" x="161.5" y="464.5">点击查看现场</text></g></g><g transform="translate(-118,-397) scale(1,1)"><path fill="#C0C0C0" stroke="none" d="M 295 571.5 C 295 564.59644 300.59644 559 307.5 559 C 314.40356 559 320 564.59644 320 571.5 C 320 578.40356 314.40356 584 307.5 584 C 300.59644 584 295 578.40356 295 571.5 Z" opacity="0.2"/></g><g transform="translate(-118,-397) scale(1,1)"><path fill="none" stroke="#000000" d="M 288 564.5 C 288 557.59644 293.59644 552 300.5 552 C 307.40356 552 313 557.59644 313 564.5 C 313 571.40356 307.40356 577 300.5 577 C 293.59644 577 288 571.40356 288 564.5 Z" stroke-miterlimit="10"/></g><g transform="translate(-118,-397) scale(1,1)"><path fill="#000000" stroke="none" d="M 293 564.5 C 293 560.357864 296.357864 557 300.5 557 C 304.642136 557 308 560.357864 308 564.5 C 308 568.642136 304.642136 572 300.5 572 C 296.357864 572 293 568.642136 293 564.5 Z"/></g><g transform="translate(-118,-397) scale(1,1)"><path fill="none" stroke="#000000" d="M 299 496 L 300 551" stroke-miterlimit="10"/></g><g transform="translate(-118,-397) scale(1,1)"><path fill="none" stroke="#000000" d="M 295.6064324869806 540.9155285459009 L 300 551 L 304.02407676781877 540.7624804680675" stroke-miterlimit="10"/></g><g transform="translate(-118,-397) scale(1,1)"><g><path fill="none" stroke="none"/><text fill="#000000" stroke="none" font-family="Arial" font-size="13px" font-style="normal" font-weight="normal" text-decoration="none" x="273.5" y="528.5">返回现场广场</text></g></g><g transform="translate(-118,-397) scale(1,1)"><path fill="#C0C0C0" stroke="none" d="M 465 463 L 532 463 Q 542 463 542 473 L 542 492 Q 542 502 532 502 L 465 502 Q 455 502 455 492 L 455 473 Q 455 463 465 463 Z" opacity="0.2"/></g><g transform="translate(-118,-397) scale(1,1)"><path fill="#ffffff" stroke="none" d="M 458 456 L 525 456 Q 535 456 535 466 L 535 485 Q 535 495 525 495 L 458 495 Q 448 495 448 485 L 448 466 Q 448 456 458 456 Z"/></g><g transform="translate(-118,-397) scale(1,1)"><path fill="none" stroke="#000000" d="M 458 456 L 525 456 Q 535 456 535 466 L 535 485 Q 535 495 525 495 L 458 495 Q 448 495 448 485 L 448 466 Q 448 456 458 456 Z" stroke-miterlimit="10"/></g><g transform="translate(-118,-397) scale(1,1)"><g><path fill="none" stroke="none"/><text fill="#000000" stroke="none" font-family="Arial" font-size="13px" font-style="normal" font-weight="bold" text-decoration="none" x="452.5" y="475.5">编辑评论状态</text></g></g><g transform="translate(-118,-397) scale(1,1)"><path fill="none" stroke="#000000" d="M 344 475 L 447 475" stroke-miterlimit="10"/></g><g transform="translate(-118,-397) scale(1,1)"><path fill="none" stroke="#000000" d="M 436.83732514237585 479.209517756016 L 447 475 L 436.83732514237585 470.790482243984" stroke-miterlimit="10"/></g><g transform="translate(-118,-397) scale(1,1)"><g><path fill="none" stroke="none"/><text fill="#000000" stroke="none" font-family="Arial" font-size="13px" font-style="normal" font-weight="normal" text-decoration="none" x="355.5" y="466.5">点击评论按钮</text></g></g><g transform="translate(-118,-397) scale(1,1)"><path fill="#C0C0C0" stroke="none" d="M 649 463 L 703 463 Q 713 463 713 473 L 713 492 Q 713 502 703 502 L 649 502 Q 639 502 639 492 L 639 473 Q 639 463 649 463 Z" opacity="0.2"/></g><g transform="translate(-118,-397) scale(1,1)"><path fill="#ffffff" stroke="none" d="M 642 456 L 696 456 Q 706 456 706 466 L 706 485 Q 706 495 696 495 L 642 495 Q 632 495 632 485 L 632 466 Q 632 456 642 456 Z"/></g><g transform="translate(-118,-397) scale(1,1)"><path fill="none" stroke="#000000" d="M 642 456 L 696 456 Q 706 456 706 466 L 706 485 Q 706 495 696 495 L 642 495 Q 632 495 632 485 L 632 466 Q 632 456 642 456 Z" stroke-miterlimit="10"/></g><g transform="translate(-118,-397) scale(1,1)"><g><path fill="none" stroke="none"/><text fill="#000000" stroke="none" font-family="Arial" font-size="13px" font-style="normal" font-weight="bold" text-decoration="none" x="636.5" y="475.5">评论已发送</text></g></g><g transform="translate(-118,-397) scale(1,1)"><path fill="none" stroke="#000000" d="M 536 475 L 631 475" stroke-miterlimit="10"/></g><g transform="translate(-118,-397) scale(1,1)"><path fill="none" stroke="#000000" d="M 620.8373251423759 479.209517756016 L 631 475 L 620.8373251423758 470.790482243984" stroke-miterlimit="10"/></g><g transform="translate(-118,-397) scale(1,1)"><g><path fill="none" stroke="none"/><text fill="#000000" stroke="none" font-family="Arial" font-size="13px" font-style="normal" font-weight="normal" text-decoration="none" x="543.5" y="466.5">点击发送按钮</text></g></g><g transform="translate(-118,-397) scale(1,1)"><path fill="none" stroke="#000000" d="M 664 456 L 664 424 L 336 424 L 336 456" stroke-miterlimit="10"/></g><g transform="translate(-118,-397) scale(1,1)"><path fill="none" stroke="#000000" d="M 331.790482243984 445.83732514237585 L 336 456 L 340.209517756016 445.83732514237585" stroke-miterlimit="10"/></g><g transform="translate(-118,-397) scale(1,1)"><path fill="none" stroke="#000000" d="M 299 456 L 299 424 L 272 424 L 272 456" stroke-miterlimit="10"/></g><g transform="translate(-118,-397) scale(1,1)"><path fill="none" stroke="#000000" d="M 267.790482243984 445.83732514237585 L 272 456 L 276.209517756016 445.83732514237585" stroke-miterlimit="10"/></g><g transform="translate(-118,-397) scale(1,1)"><g><path fill="none" stroke="none"/><text fill="#000000" stroke="none" font-family="Arial" font-size="13px" font-style="normal" font-weight="normal" text-decoration="none" x="270.5" y="419.5">点赞</text></g></g></g></svg>