<svg version="1.1" xmlns="http://www.w3.org/2000/svg" xmlns:xlink="http://www.w3.org/1999/xlink" width="423.0908203125" height="564"><defs/><g><g transform="translate(-78,-126) scale(1,1)"><rect fill="#ffffff" stroke="none" x="88" y="136" width="248" height="21"/></g><g transform="translate(-78,-126) scale(1,1)"><path fill="none" stroke="#000000" d="M 88 136 L 336 136 L 336 157 L 88 157 L 88 136 Z Z" stroke-miterlimit="10" stroke-width="2"/></g><g transform="translate(-78,-126) scale(1,1)"><path fill="none" stroke="#000000" d="M 88 680 L 88 136 L 336 136 L 336 680" stroke-miterlimit="10" stroke-width="2"/></g><g transform="translate(-78,-126) scale(1,1)"><g><path fill="none" stroke="none"/><text fill="#000000" stroke="none" font-family="Arial" font-size="13px" font-style="normal" font-weight="normal" text-decoration="none" x="199" y="153">用户</text></g></g><g transform="translate(-78,-126) scale(1,1)"><rect fill="#ffffff" stroke="none" x="336" y="136" width="155.0908203125" height="21"/></g><g transform="translate(-78,-126) scale(1,1)"><path fill="none" stroke="#000000" d="M 336 136 L 491.0908203125 136 L 491.0908203125 157 L 336 157 L 336 136 Z Z" stroke-miterlimit="10" stroke-width="2"/></g><g transform="translate(-78,-126) scale(1,1)"><path fill="none" stroke="#000000" d="M 336 680 L 336 136 L 491.0908203125 136 L 491.0908203125 680" stroke-miterlimit="10" stroke-width="2"/></g><g transform="translate(-78,-126) scale(1,1)"><g><path fill="none" stroke="none"/><text fill="#000000" stroke="none" font-family="Arial" font-size="13px" font-style="normal" font-weight="normal" text-decoration="none" x="394.04541015625" y="153">数据库</text></g></g><g transform="translate(-78,-126) scale(1,1)"><path fill="#C0C0C0" stroke="none" d="M 185 215 L 252 215 Q 262 215 262 225 L 262 245 Q 262 255 252 255 L 185 255 Q 175 255 175 245 L 175 225 Q 175 215 185 215 Z" opacity="0.2"/></g><g transform="translate(-78,-126) scale(1,1)"><path fill="#ffffff" stroke="none" d="M 178 208 L 245 208 Q 255 208 255 218 L 255 238 Q 255 248 245 248 L 178 248 Q 168 248 168 238 L 168 218 Q 168 208 178 208 Z"/></g><g transform="translate(-78,-126) scale(1,1)"><path fill="none" stroke="#000000" d="M 178 208 L 245 208 Q 255 208 255 218 L 255 238 Q 255 248 245 248 L 178 248 Q 168 248 168 238 L 168 218 Q 168 208 178 208 Z" stroke-miterlimit="10"/></g><g transform="translate(-78,-126) scale(1,1)"><g><path fill="none" stroke="none"/><text fill="#000000" stroke="none" font-family="Arial" font-size="13px" font-style="normal" font-weight="bold" text-decoration="none" x="172.5" y="227.5">查看现场内容</text></g></g><g transform="translate(-78,-126) scale(1,1)"><path fill="#C0C0C0" stroke="none" d="M 281 359 L 322 359 Q 332 359 332 369 L 332 389 Q 332 399 322 399 L 281 399 Q 271 399 271 389 L 271 369 Q 271 359 281 359 Z" opacity="0.2"/></g><g transform="translate(-78,-126) scale(1,1)"><path fill="#ffffff" stroke="none" d="M 274 352 L 315 352 Q 325 352 325 362 L 325 382 Q 325 392 315 392 L 274 392 Q 264 392 264 382 L 264 362 Q 264 352 274 352 Z"/></g><g transform="translate(-78,-126) scale(1,1)"><path fill="none" stroke="#000000" d="M 274 352 L 315 352 Q 325 352 325 362 L 325 382 Q 325 392 315 392 L 274 392 Q 264 392 264 382 L 264 362 Q 264 352 274 352 Z" stroke-miterlimit="10"/></g><g transform="translate(-78,-126) scale(1,1)"><g><path fill="none" stroke="none"/><text fill="#000000" stroke="none" font-family="Arial" font-size="13px" font-style="normal" font-weight="bold" text-decoration="none" x="268.5" y="371.5">发布评论</text></g></g><g transform="translate(-78,-126) scale(1,1)"><path fill="#C0C0C0" stroke="none" d="M 201 359 L 240 359 Q 250 359 250 369 L 250 389 Q 250 399 240 399 L 201 399 Q 191 399 191 389 L 191 369 Q 191 359 201 359 Z" opacity="0.2"/></g><g transform="translate(-78,-126) scale(1,1)"><path fill="#ffffff" stroke="none" d="M 194 352 L 233 352 Q 243 352 243 362 L 243 382 Q 243 392 233 392 L 194 392 Q 184 392 184 382 L 184 362 Q 184 352 194 352 Z"/></g><g transform="translate(-78,-126) scale(1,1)"><path fill="none" stroke="#000000" d="M 194 352 L 233 352 Q 243 352 243 362 L 243 382 Q 243 392 233 392 L 194 392 Q 184 392 184 382 L 184 362 Q 184 352 194 352 Z" stroke-miterlimit="10"/></g><g transform="translate(-78,-126) scale(1,1)"><g><path fill="none" stroke="none"/><text fill="#000000" stroke="none" font-family="Arial" font-size="13px" font-style="normal" font-weight="bold" text-decoration="none" x="200.5" y="371.5">点赞</text></g></g><g transform="translate(-78,-126) scale(1,1)"><path fill="#C0C0C0" stroke="none" d="M 186 295 L 249 295 Q 252 295 252 298 L 252 297 Q 252 300 249 300 L 186 300 Q 183 300 183 297 L 183 298 Q 183 295 186 295 Z" opacity="0.2"/></g><g transform="translate(-78,-126) scale(1,1)"><path fill="#000000" stroke="none" d="M 179 288 L 242 288 Q 245 288 245 291 L 245 291 Q 245 294 242 294 L 179 294 Q 176 294 176 291 L 176 291 Q 176 288 179 288 Z"/></g><g transform="translate(-78,-126) scale(1,1)"><path fill="#C0C0C0" stroke="none" d="M 186 599 L 249 599 Q 252 599 252 602 L 252 601 Q 252 604 249 604 L 186 604 Q 183 604 183 601 L 183 602 Q 183 599 186 599 Z" opacity="0.2"/></g><g transform="translate(-78,-126) scale(1,1)"><path fill="#000000" stroke="none" d="M 179 592 L 242 592 Q 245 592 245 595 L 245 595 Q 245 598 242 598 L 179 598 Q 176 598 176 595 L 176 595 Q 176 592 179 592 Z"/></g><g transform="translate(-78,-126) scale(1,1)"><path fill="none" stroke="#000000" d="M 209 187 L 209 208" stroke-miterlimit="10"/></g><g transform="translate(-78,-126) scale(1,1)"><path fill="none" stroke="#000000" d="M 204.790482243984 197.83732514237585 L 209 208 L 213.209517756016 197.83732514237585" stroke-miterlimit="10"/></g><g transform="translate(-78,-126) scale(1,1)"><path fill="#C0C0C0" stroke="none" d="M 207 184.5 C 207 179.2532944 211.2532944 175 216.5 175 C 221.7467056 175 226 179.2532944 226 184.5 C 226 189.7467056 221.7467056 194 216.5 194 C 211.2532944 194 207 189.7467056 207 184.5 Z" opacity="0.2"/></g><g transform="translate(-78,-126) scale(1,1)"><path fill="#000000" stroke="none" d="M 200 177.5 C 200 172.2532944 204.2532944 168 209.5 168 C 214.7467056 168 219 172.2532944 219 177.5 C 219 182.7467056 214.7467056 187 209.5 187 C 204.2532944 187 200 182.7467056 200 177.5 Z"/></g><g transform="translate(-78,-126) scale(1,1)"><path fill="none" stroke="#000000" d="M 211 248 L 211 288" stroke-miterlimit="10"/></g><g transform="translate(-78,-126) scale(1,1)"><path fill="none" stroke="#000000" d="M 206.790482243984 277.83732514237585 L 211 288 L 215.209517756016 277.83732514237585" stroke-miterlimit="10"/></g><g transform="translate(-78,-126) scale(1,1)"><path fill="none" stroke="#000000" d="M 208 293 L 208 352" stroke-miterlimit="10"/></g><g transform="translate(-78,-126) scale(1,1)"><path fill="none" stroke="#000000" d="M 203.790482243984 341.83732514237585 L 208 352 L 212.209517756016 341.83732514237585" stroke-miterlimit="10"/></g><g transform="translate(-78,-126) scale(1,1)"><path fill="none" stroke="#000000" d="M 208 293 L 208 328 L 296 328 L 296 352" stroke-miterlimit="10"/></g><g transform="translate(-78,-126) scale(1,1)"><path fill="none" stroke="#000000" d="M 291.790482243984 341.83732514237585 L 296 352 L 300.209517756016 341.83732514237585" stroke-miterlimit="10"/></g><g transform="translate(-78,-126) scale(1,1)"><path fill="none" stroke="#000000" d="M 208 392 L 208 592" stroke-miterlimit="10"/></g><g transform="translate(-78,-126) scale(1,1)"><path fill="none" stroke="#000000" d="M 203.790482243984 581.8373251423759 L 208 592 L 212.209517756016 581.8373251423759" stroke-miterlimit="10"/></g><g transform="translate(-78,-126) scale(1,1)"><path fill="none" stroke="#000000" d="M 272 392 L 272 416 L 208 416 L 208 592" stroke-miterlimit="10"/></g><g transform="translate(-78,-126) scale(1,1)"><path fill="none" stroke="#000000" d="M 203.790482243984 581.8373251423759 L 208 592 L 212.209517756016 581.8373251423759" stroke-miterlimit="10"/></g><g transform="translate(-78,-126) scale(1,1)"><path fill="none" stroke="#000000" d="M 208 293 L 208 328 L 152 328 L 152 416 L 208 416 L 208 592" stroke-miterlimit="10"/></g><g transform="translate(-78,-126) scale(1,1)"><path fill="none" stroke="#000000" d="M 203.790482243984 581.8373251423759 L 208 592 L 212.209517756016 581.8373251423759" stroke-miterlimit="10"/></g><g transform="translate(-78,-126) scale(1,1)"><path fill="none" stroke="#000000" d="M 209 597 L 209 632" stroke-miterlimit="10"/></g><g transform="translate(-78,-126) scale(1,1)"><path fill="none" stroke="#000000" d="M 204.790482243984 621.8373251423759 L 209 632 L 213.209517756016 621.8373251423759" stroke-miterlimit="10"/></g><g transform="translate(-78,-126) scale(1,1)"><path fill="none" stroke="#000000" d="M 241 393 L 377 495" stroke-miterlimit="10"/></g><g transform="translate(-78,-126) scale(1,1)"><path fill="none" stroke="#000000" d="M 366.3441494602911 492.2700092902383 L 377 495 L 371.39557076751026 485.53478088061274" stroke-miterlimit="10"/></g><g transform="translate(-78,-126) scale(1,1)"><path fill="none" stroke="#000000" d="M 326 388 L 375 413" stroke-miterlimit="10"/></g><g transform="translate(-78,-126) scale(1,1)"><path fill="none" stroke="#000000" d="M 364.0343757696681 412.1310435919116 L 375 413 L 367.8605777155036 404.63168777807397" stroke-miterlimit="10"/></g><g transform="translate(-78,-126) scale(1,1)"><path fill="none" stroke="#000000" d="M 381 449 L 214 591" stroke-miterlimit="10"/></g><g transform="translate(-78,-126) scale(1,1)"><path fill="none" stroke="#000000" d="M 219.0153526552782 581.2098908206704 L 214 591 L 224.4690424618498 587.6237372833285" stroke-miterlimit="10"/></g><g transform="translate(-78,-126) scale(1,1)"><path fill="none" stroke="#000000" d="M 367 531 L 218 591" stroke-miterlimit="10"/></g><g transform="translate(-78,-126) scale(1,1)"><path fill="none" stroke="#000000" d="M 225.85464646932286 583.2990566264934 L 218 591 L 228.99946306322124 591.1086845013411" stroke-miterlimit="10"/></g><g transform="translate(-78,-126) scale(1,1)"><path fill="#C0C0C0" stroke="none" d="M 199 651.5 C 199 644.59644 204.59644 639 211.5 639 C 218.40356 639 224 644.59644 224 651.5 C 224 658.40356 218.40356 664 211.5 664 C 204.59644 664 199 658.40356 199 651.5 Z" opacity="0.2"/></g><g transform="translate(-78,-126) scale(1,1)"><path fill="none" stroke="#000000" d="M 192 644.5 C 192 637.59644 197.59644 632 204.5 632 C 211.40356 632 217 637.59644 217 644.5 C 217 651.40356 211.40356 657 204.5 657 C 197.59644 657 192 651.40356 192 644.5 Z" stroke-miterlimit="10"/></g><g transform="translate(-78,-126) scale(1,1)"><path fill="#000000" stroke="none" d="M 197 644.5 C 197 640.357864 200.357864 637 204.5 637 C 208.642136 637 212 640.357864 212 644.5 C 212 648.642136 208.642136 652 204.5 652 C 200.357864 652 197 648.642136 197 644.5 Z"/></g><g transform="translate(-78,-126) scale(1,1)"><path fill="#C0C0C0" stroke="none" d="M 393 415 L 434 415 Q 444 415 444 425 L 444 445 Q 444 455 434 455 L 393 455 Q 383 455 383 445 L 383 425 Q 383 415 393 415 Z" opacity="0.2"/></g><g transform="translate(-78,-126) scale(1,1)"><path fill="#ffffff" stroke="none" d="M 386 408 L 427 408 Q 437 408 437 418 L 437 438 Q 437 448 427 448 L 386 448 Q 376 448 376 438 L 376 418 Q 376 408 386 408 Z"/></g><g transform="translate(-78,-126) scale(1,1)"><path fill="none" stroke="#000000" d="M 386 408 L 427 408 Q 437 408 437 418 L 437 438 Q 437 448 427 448 L 386 448 Q 376 448 376 438 L 376 418 Q 376 408 386 408 Z" stroke-miterlimit="10"/></g><g transform="translate(-78,-126) scale(1,1)"><g><path fill="none" stroke="none"/><text fill="#000000" stroke="none" font-family="Arial" font-size="13px" font-style="normal" font-weight="bold" text-decoration="none" x="380.5" y="427.5">新增评论</text></g></g><g transform="translate(-78,-126) scale(1,1)"><path fill="#C0C0C0" stroke="none" d="M 385 503 L 439 503 Q 449 503 449 513 L 449 533 Q 449 543 439 543 L 385 543 Q 375 543 375 533 L 375 513 Q 375 503 385 503 Z" opacity="0.2"/></g><g transform="translate(-78,-126) scale(1,1)"><path fill="#ffffff" stroke="none" d="M 378 496 L 432 496 Q 442 496 442 506 L 442 526 Q 442 536 432 536 L 378 536 Q 368 536 368 526 L 368 506 Q 368 496 378 496 Z"/></g><g transform="translate(-78,-126) scale(1,1)"><path fill="none" stroke="#000000" d="M 378 496 L 432 496 Q 442 496 442 506 L 442 526 Q 442 536 432 536 L 378 536 Q 368 536 368 526 L 368 506 Q 368 496 378 496 Z" stroke-miterlimit="10"/></g><g transform="translate(-78,-126) scale(1,1)"><g><path fill="none" stroke="none"/><text fill="#000000" stroke="none" font-family="Arial" font-size="13px" font-style="normal" font-weight="bold" text-decoration="none" x="372.5" y="515.5">更新点赞数</text></g></g></g></svg>