<svg version="1.1" xmlns="http://www.w3.org/2000/svg" xmlns:xlink="http://www.w3.org/1999/xlink" width="533" height="267"><defs/><g><g transform="translate(-30,-142) scale(1,1)"><path fill="#C0C0C0" stroke="none" d="M 47 304.5 C 47 299.2532944 51.2532944 295 56.5 295 C 61.7467056 295 66 299.2532944 66 304.5 C 66 309.7467056 61.7467056 314 56.5 314 C 51.2532944 314 47 309.7467056 47 304.5 Z" opacity="0.2"/></g><g transform="translate(-30,-142) scale(1,1)"><path fill="#000000" stroke="none" d="M 40 297.5 C 40 292.2532944 44.2532944 288 49.5 288 C 54.7467056 288 59 292.2532944 59 297.5 C 59 302.7467056 54.7467056 307 49.5 307 C 44.2532944 307 40 302.7467056 40 297.5 Z"/></g><g transform="translate(-30,-142) scale(1,1)"><path fill="#C0C0C0" stroke="none" d="M 265 287 L 306 287 Q 316 287 316 297 L 316 316 Q 316 326 306 326 L 265 326 Q 255 326 255 316 L 255 297 Q 255 287 265 287 Z" opacity="0.2"/></g><g transform="translate(-30,-142) scale(1,1)"><path fill="#ffffff" stroke="none" d="M 258 280 L 299 280 Q 309 280 309 290 L 309 309 Q 309 319 299 319 L 258 319 Q 248 319 248 309 L 248 290 Q 248 280 258 280 Z"/></g><g transform="translate(-30,-142) scale(1,1)"><path fill="none" stroke="#000000" d="M 258 280 L 299 280 Q 309 280 309 290 L 309 309 Q 309 319 299 319 L 258 319 Q 248 319 248 309 L 248 290 Q 248 280 258 280 Z" stroke-miterlimit="10"/></g><g transform="translate(-30,-142) scale(1,1)"><g><path fill="none" stroke="none"/><text fill="#000000" stroke="none" font-family="Arial" font-size="13px" font-style="normal" font-weight="bold" text-decoration="none" x="252.5" y="299.5">创建状态</text></g></g><g transform="translate(-30,-142) scale(1,1)"><path fill="#C0C0C0" stroke="none" d="M 377 159 L 444 159 Q 454 159 454 169 L 454 188 Q 454 198 444 198 L 377 198 Q 367 198 367 188 L 367 169 Q 367 159 377 159 Z" opacity="0.2"/></g><g transform="translate(-30,-142) scale(1,1)"><path fill="#ffffff" stroke="none" d="M 370 152 L 437 152 Q 447 152 447 162 L 447 181 Q 447 191 437 191 L 370 191 Q 360 191 360 181 L 360 162 Q 360 152 370 152 Z"/></g><g transform="translate(-30,-142) scale(1,1)"><path fill="none" stroke="#000000" d="M 370 152 L 437 152 Q 447 152 447 162 L 447 181 Q 447 191 437 191 L 370 191 Q 360 191 360 181 L 360 162 Q 360 152 370 152 Z" stroke-miterlimit="10"/></g><g transform="translate(-30,-142) scale(1,1)"><g><path fill="none" stroke="none"/><text fill="#000000" stroke="none" font-family="Arial" font-size="13px" font-style="normal" font-weight="bold" text-decoration="none" x="364.5" y="171.5">创建成功状态</text></g></g><g transform="translate(-30,-142) scale(1,1)"><path fill="#C0C0C0" stroke="none" d="M 377 367 L 444 367 Q 454 367 454 377 L 454 396 Q 454 406 444 406 L 377 406 Q 367 406 367 396 L 367 377 Q 367 367 377 367 Z" opacity="0.2"/></g><g transform="translate(-30,-142) scale(1,1)"><path fill="#ffffff" stroke="none" d="M 370 360 L 437 360 Q 447 360 447 370 L 447 389 Q 447 399 437 399 L 370 399 Q 360 399 360 389 L 360 370 Q 360 360 370 360 Z"/></g><g transform="translate(-30,-142) scale(1,1)"><path fill="none" stroke="#000000" d="M 370 360 L 437 360 Q 447 360 447 370 L 447 389 Q 447 399 437 399 L 370 399 Q 360 399 360 389 L 360 370 Q 360 360 370 360 Z" stroke-miterlimit="10"/></g><g transform="translate(-30,-142) scale(1,1)"><g><path fill="none" stroke="none"/><text fill="#000000" stroke="none" font-family="Arial" font-size="13px" font-style="normal" font-weight="bold" text-decoration="none" x="364.5" y="379.5">创建失败状态</text></g></g><g transform="translate(-30,-142) scale(1,1)"><path fill="#C0C0C0" stroke="none" d="M 535 307.5 C 535 300.59644 540.59644 295 547.5 295 C 554.40356 295 560 300.59644 560 307.5 C 560 314.40356 554.40356 320 547.5 320 C 540.59644 320 535 314.40356 535 307.5 Z" opacity="0.2"/></g><g transform="translate(-30,-142) scale(1,1)"><path fill="none" stroke="#000000" d="M 528 300.5 C 528 293.59644 533.59644 288 540.5 288 C 547.40356 288 553 293.59644 553 300.5 C 553 307.40356 547.40356 313 540.5 313 C 533.59644 313 528 307.40356 528 300.5 Z" stroke-miterlimit="10"/></g><g transform="translate(-30,-142) scale(1,1)"><path fill="#000000" stroke="none" d="M 533 300.5 C 533 296.357864 536.357864 293 540.5 293 C 544.642136 293 548 296.357864 548 300.5 C 548 304.642136 544.642136 308 540.5 308 C 536.357864 308 533 304.642136 533 300.5 Z"/></g><g transform="translate(-30,-142) scale(1,1)"><path fill="none" stroke="#000000" d="M 60 297 L 247 299" stroke-miterlimit="10"/></g><g transform="translate(-30,-142) scale(1,1)"><path fill="none" stroke="#000000" d="M 236.79288732604854 303.10059152577526 L 247 299 L 236.88292533716202 294.68203748666554" stroke-miterlimit="10"/></g><g transform="translate(-30,-142) scale(1,1)"><g><path fill="none" stroke="none"/><text fill="#000000" stroke="none" font-family="Arial" font-size="13px" font-style="normal" font-weight="normal" text-decoration="none" x="61.260498046875" y="289.5">输入sharingId，userId，context</text></g></g><g transform="translate(-30,-142) scale(1,1)"><path fill="none" stroke="#000000" d="M 298 279 L 382 192" stroke-miterlimit="10"/></g><g transform="translate(-30,-142) scale(1,1)"><path fill="none" stroke="#000000" d="M 377.96939502155453 202.23495107500426 L 382 192 L 371.9127285772089 196.38713519770502" stroke-miterlimit="10"/></g><g transform="translate(-30,-142) scale(1,1)"><g><path fill="none" stroke="none"/><text fill="#000000" stroke="none" font-family="Arial" font-size="13px" font-style="normal" font-weight="normal" text-decoration="none" x="192.5" y="230.5">输入数据合法，初始化评论，自动获取创建时间</text></g></g><g transform="translate(-30,-142) scale(1,1)"><path fill="none" stroke="#000000" d="M 310 319 L 372 359" stroke-miterlimit="10"/></g><g transform="translate(-30,-142) scale(1,1)"><path fill="none" stroke="#000000" d="M 361.17824569561617 357.0277845514372 L 372 359 L 365.7424310646751 349.95329722939584" stroke-miterlimit="10"/></g><g transform="translate(-30,-142) scale(1,1)"><g><path fill="none" stroke="none"/><text fill="#000000" stroke="none" font-family="Arial" font-size="13px" font-style="normal" font-weight="normal" text-decoration="none" x="303.5" y="340.5">输入数据不合法</text></g></g><g transform="translate(-30,-142) scale(1,1)"><path fill="none" stroke="#000000" d="M 425 192 L 527 288" stroke-miterlimit="10"/></g><g transform="translate(-30,-142) scale(1,1)"><path fill="none" stroke="#000000" d="M 516.7144853731307 284.1002322042899 L 527 288 L 522.4845951127468 277.9694906059478" stroke-miterlimit="10"/></g><g transform="translate(-30,-142) scale(1,1)"><g><path fill="none" stroke="none"/><text fill="#000000" stroke="none" font-family="Arial" font-size="13px" font-style="normal" font-weight="normal" text-decoration="none" x="427.5" y="267.5">评论数据存入数据库</text></g></g><g transform="translate(-30,-142) scale(1,1)"><path fill="none" stroke="#000000" d="M 438 359 L 527 307" stroke-miterlimit="10"/></g><g transform="translate(-30,-142) scale(1,1)"><path fill="none" stroke="#000000" d="M 520.3488665945781 315.7614168045631 L 527 307 L 516.1016812311415 308.49219570175813" stroke-miterlimit="10"/></g><g transform="translate(-30,-142) scale(1,1)"><g><path fill="none" stroke="none"/><text fill="#000000" stroke="none" font-family="Arial" font-size="13px" font-style="normal" font-weight="normal" text-decoration="none" x="434.5" y="326.5">返回失败信息</text></g></g></g></svg>