<svg version="1.1" xmlns="http://www.w3.org/2000/svg" xmlns:xlink="http://www.w3.org/1999/xlink" width="501" height="179"><defs/><g><g transform="translate(-174,-278) scale(1,1)"><path fill="#C0C0C0" stroke="none" d="M 191 368.5 C 191 363.2532944 195.2532944 359 200.5 359 C 205.7467056 359 210 363.2532944 210 368.5 C 210 373.7467056 205.7467056 378 200.5 378 C 195.2532944 378 191 373.7467056 191 368.5 Z" opacity="0.2"/></g><g transform="translate(-174,-278) scale(1,1)"><path fill="#000000" stroke="none" d="M 184 361.5 C 184 356.2532944 188.2532944 352 193.5 352 C 198.7467056 352 203 356.2532944 203 361.5 C 203 366.7467056 198.7467056 371 193.5 371 C 188.2532944 371 184 366.7467056 184 361.5 Z"/></g><g transform="translate(-174,-278) scale(1,1)"><path fill="#C0C0C0" stroke="none" d="M 305 351 L 346 351 Q 356 351 356 361 L 356 380 Q 356 390 346 390 L 305 390 Q 295 390 295 380 L 295 361 Q 295 351 305 351 Z" opacity="0.2"/></g><g transform="translate(-174,-278) scale(1,1)"><path fill="#ffffff" stroke="none" d="M 298 344 L 339 344 Q 349 344 349 354 L 349 373 Q 349 383 339 383 L 298 383 Q 288 383 288 373 L 288 354 Q 288 344 298 344 Z"/></g><g transform="translate(-174,-278) scale(1,1)"><path fill="none" stroke="#000000" d="M 298 344 L 339 344 Q 349 344 349 354 L 349 373 Q 349 383 339 383 L 298 383 Q 288 383 288 373 L 288 354 Q 288 344 298 344 Z" stroke-miterlimit="10"/></g><g transform="translate(-174,-278) scale(1,1)"><g><path fill="none" stroke="none"/><text fill="#000000" stroke="none" font-family="Arial" font-size="13px" font-style="normal" font-weight="bold" text-decoration="none" x="292.5" y="363.5">查询状态</text></g></g><g transform="translate(-174,-278) scale(1,1)"><path fill="#C0C0C0" stroke="none" d="M 473 295 L 540 295 Q 550 295 550 305 L 550 324 Q 550 334 540 334 L 473 334 Q 463 334 463 324 L 463 305 Q 463 295 473 295 Z" opacity="0.2"/></g><g transform="translate(-174,-278) scale(1,1)"><path fill="#ffffff" stroke="none" d="M 466 288 L 533 288 Q 543 288 543 298 L 543 317 Q 543 327 533 327 L 466 327 Q 456 327 456 317 L 456 298 Q 456 288 466 288 Z"/></g><g transform="translate(-174,-278) scale(1,1)"><path fill="none" stroke="#000000" d="M 466 288 L 533 288 Q 543 288 543 298 L 543 317 Q 543 327 533 327 L 466 327 Q 456 327 456 317 L 456 298 Q 456 288 466 288 Z" stroke-miterlimit="10"/></g><g transform="translate(-174,-278) scale(1,1)"><g><path fill="none" stroke="none"/><text fill="#000000" stroke="none" font-family="Arial" font-size="13px" font-style="normal" font-weight="bold" text-decoration="none" x="460.5" y="307.5">查询成功状态</text></g></g><g transform="translate(-174,-278) scale(1,1)"><path fill="#C0C0C0" stroke="none" d="M 473 415 L 540 415 Q 550 415 550 425 L 550 444 Q 550 454 540 454 L 473 454 Q 463 454 463 444 L 463 425 Q 463 415 473 415 Z" opacity="0.2"/></g><g transform="translate(-174,-278) scale(1,1)"><path fill="#ffffff" stroke="none" d="M 466 408 L 533 408 Q 543 408 543 418 L 543 437 Q 543 447 533 447 L 466 447 Q 456 447 456 437 L 456 418 Q 456 408 466 408 Z"/></g><g transform="translate(-174,-278) scale(1,1)"><path fill="none" stroke="#000000" d="M 466 408 L 533 408 Q 543 408 543 418 L 543 437 Q 543 447 533 447 L 466 447 Q 456 447 456 437 L 456 418 Q 456 408 466 408 Z" stroke-miterlimit="10"/></g><g transform="translate(-174,-278) scale(1,1)"><g><path fill="none" stroke="none"/><text fill="#000000" stroke="none" font-family="Arial" font-size="13px" font-style="normal" font-weight="bold" text-decoration="none" x="460.5" y="427.5">查询失败状态</text></g></g><g transform="translate(-174,-278) scale(1,1)"><path fill="#C0C0C0" stroke="none" d="M 647 379.5 C 647 372.59644 652.59644 367 659.5 367 C 666.40356 367 672 372.59644 672 379.5 C 672 386.40356 666.40356 392 659.5 392 C 652.59644 392 647 386.40356 647 379.5 Z" opacity="0.2"/></g><g transform="translate(-174,-278) scale(1,1)"><path fill="none" stroke="#000000" d="M 640 372.5 C 640 365.59644 645.59644 360 652.5 360 C 659.40356 360 665 365.59644 665 372.5 C 665 379.40356 659.40356 385 652.5 385 C 645.59644 385 640 379.40356 640 372.5 Z" stroke-miterlimit="10"/></g><g transform="translate(-174,-278) scale(1,1)"><path fill="#000000" stroke="none" d="M 645 372.5 C 645 368.357864 648.357864 365 652.5 365 C 656.642136 365 660 368.357864 660 372.5 C 660 376.642136 656.642136 380 652.5 380 C 648.357864 380 645 376.642136 645 372.5 Z"/></g><g transform="translate(-174,-278) scale(1,1)"><path fill="none" stroke="#000000" d="M 204 361 L 287 363" stroke-miterlimit="10"/></g><g transform="translate(-174,-278) scale(1,1)"><path fill="none" stroke="#000000" d="M 276.73886953710684 366.96348352128354 L 287 363 L 276.9416789920277 358.5468911420691" stroke-miterlimit="10"/></g><g transform="translate(-174,-278) scale(1,1)"><g><path fill="none" stroke="none"/><text fill="#000000" stroke="none" font-family="Arial" font-size="13px" font-style="normal" font-weight="normal" text-decoration="none" x="213.68701171875" y="353.5">输入userId</text></g></g><g transform="translate(-174,-278) scale(1,1)"><path fill="none" stroke="#000000" d="M 350 353 L 455 321" stroke-miterlimit="10"/></g><g transform="translate(-174,-278) scale(1,1)"><path fill="none" stroke="#000000" d="M 446.5059322687615 327.9893356892578 L 455 321 L 444.0515804455201 319.9359937692468" stroke-miterlimit="10"/></g><g transform="translate(-174,-278) scale(1,1)"><g><path fill="none" stroke="none"/><text fill="#000000" stroke="none" font-family="Arial" font-size="13px" font-style="normal" font-weight="normal" text-decoration="none" x="357.5" y="328.5">存在合法数据</text></g></g><g transform="translate(-174,-278) scale(1,1)"><path fill="none" stroke="#000000" d="M 350 374 L 455 411" stroke-miterlimit="10"/></g><g transform="translate(-174,-278) scale(1,1)"><path fill="none" stroke="#000000" d="M 444.0159775861444 411.5926648394483 L 455 411 L 446.814045939513 403.6522005934024" stroke-miterlimit="10"/></g><g transform="translate(-174,-278) scale(1,1)"><g><path fill="none" stroke="none"/><text fill="#000000" stroke="none" font-family="Arial" font-size="13px" font-style="normal" font-weight="normal" text-decoration="none" x="366.5" y="383.5">数据为空或不合法</text></g></g><g transform="translate(-174,-278) scale(1,1)"><path fill="none" stroke="#000000" d="M 544 326 L 639 366" stroke-miterlimit="10"/></g><g transform="translate(-174,-278) scale(1,1)"><path fill="none" stroke="#000000" d="M 628.0001865130964 365.9359433584003 L 639 366 L 631.2672521772784 358.17666240596805" stroke-miterlimit="10"/></g><g transform="translate(-174,-278) scale(1,1)"><g><path fill="none" stroke="none"/><text fill="#000000" stroke="none" font-family="Arial" font-size="13px" font-style="normal" font-weight="normal" text-decoration="none" x="559.5" y="338.5">返回应返回的值</text></g></g><g transform="translate(-174,-278) scale(1,1)"><path fill="none" stroke="#000000" d="M 544 411 L 639 377" stroke-miterlimit="10"/></g><g transform="translate(-174,-278) scale(1,1)"><path fill="none" stroke="#000000" d="M 630.8501205700692 384.3877916373968 L 639 377 L 628.0132074244466 376.46112255403966" stroke-miterlimit="10"/></g><g transform="translate(-174,-278) scale(1,1)"><g><path fill="none" stroke="none"/><text fill="#000000" stroke="none" font-family="Arial" font-size="13px" font-style="normal" font-weight="normal" text-decoration="none" x="534.5" y="387.5">返回异常信息</text></g></g></g></svg>