<svg version="1.1" xmlns="http://www.w3.org/2000/svg" xmlns:xlink="http://www.w3.org/1999/xlink" width="558.6962890625" height="267"><defs/><g><g transform="translate(-38,-134) scale(1,1)"><path fill="#C0C0C0" stroke="none" d="M 55 288.5 C 55 283.2532944 59.2532944 279 64.5 279 C 69.7467056 279 74 283.2532944 74 288.5 C 74 293.7467056 69.7467056 298 64.5 298 C 59.2532944 298 55 293.7467056 55 288.5 Z" opacity="0.2"/></g><g transform="translate(-38,-134) scale(1,1)"><path fill="#000000" stroke="none" d="M 48 281.5 C 48 276.2532944 52.2532944 272 57.5 272 C 62.7467056 272 67 276.2532944 67 281.5 C 67 286.7467056 62.7467056 291 57.5 291 C 52.2532944 291 48 286.7467056 48 281.5 Z"/></g><g transform="translate(-38,-134) scale(1,1)"><path fill="#C0C0C0" stroke="none" d="M 185 271 L 265 271 Q 275 271 275 281 L 275 300 Q 275 310 265 310 L 185 310 Q 175 310 175 300 L 175 281 Q 175 271 185 271 Z" opacity="0.2"/></g><g transform="translate(-38,-134) scale(1,1)"><path fill="#ffffff" stroke="none" d="M 178 264 L 258 264 Q 268 264 268 274 L 268 293 Q 268 303 258 303 L 178 303 Q 168 303 168 293 L 168 274 Q 168 264 178 264 Z"/></g><g transform="translate(-38,-134) scale(1,1)"><path fill="none" stroke="#000000" d="M 178 264 L 258 264 Q 268 264 268 274 L 268 293 Q 268 303 258 303 L 178 303 Q 168 303 168 293 L 168 274 Q 168 264 178 264 Z" stroke-miterlimit="10"/></g><g transform="translate(-38,-134) scale(1,1)"><g><path fill="none" stroke="none"/><text fill="#000000" stroke="none" font-family="Arial" font-size="13px" font-style="normal" font-weight="bold" text-decoration="none" x="172.5" y="283.5">转卖未卖出状态</text></g></g><g transform="translate(-38,-134) scale(1,1)"><path fill="#C0C0C0" stroke="none" d="M 369 151 L 449 151 Q 459 151 459 161 L 459 180 Q 459 190 449 190 L 369 190 Q 359 190 359 180 L 359 161 Q 359 151 369 151 Z" opacity="0.2"/></g><g transform="translate(-38,-134) scale(1,1)"><path fill="#ffffff" stroke="none" d="M 362 144 L 442 144 Q 452 144 452 154 L 452 173 Q 452 183 442 183 L 362 183 Q 352 183 352 173 L 352 154 Q 352 144 362 144 Z"/></g><g transform="translate(-38,-134) scale(1,1)"><path fill="none" stroke="#000000" d="M 362 144 L 442 144 Q 452 144 452 154 L 452 173 Q 452 183 442 183 L 362 183 Q 352 183 352 173 L 352 154 Q 352 144 362 144 Z" stroke-miterlimit="10"/></g><g transform="translate(-38,-134) scale(1,1)"><g><path fill="none" stroke="none"/><text fill="#000000" stroke="none" font-family="Arial" font-size="13px" font-style="normal" font-weight="bold" text-decoration="none" x="356.5" y="163.5">转卖已购买状态</text></g></g><g transform="translate(-38,-134) scale(1,1)"><path fill="#C0C0C0" stroke="none" d="M 361 359 L 454 359 Q 464 359 464 369 L 464 388 Q 464 398 454 398 L 361 398 Q 351 398 351 388 L 351 369 Q 351 359 361 359 Z" opacity="0.2"/></g><g transform="translate(-38,-134) scale(1,1)"><path fill="#ffffff" stroke="none" d="M 354 352 L 447 352 Q 457 352 457 362 L 457 381 Q 457 391 447 391 L 354 391 Q 344 391 344 381 L 344 362 Q 344 352 354 352 Z"/></g><g transform="translate(-38,-134) scale(1,1)"><path fill="none" stroke="#000000" d="M 354 352 L 447 352 Q 457 352 457 362 L 457 381 Q 457 391 447 391 L 354 391 Q 344 391 344 381 L 344 362 Q 344 352 354 352 Z" stroke-miterlimit="10"/></g><g transform="translate(-38,-134) scale(1,1)"><g><path fill="none" stroke="none"/><text fill="#000000" stroke="none" font-family="Arial" font-size="13px" font-style="normal" font-weight="bold" text-decoration="none" x="348.5" y="371.5">转卖购买失败状态</text></g></g><g transform="translate(-38,-134) scale(1,1)"><path fill="#C0C0C0" stroke="none" d="M 551 299.5 C 551 292.59644 556.59644 287 563.5 287 C 570.40356 287 576 292.59644 576 299.5 C 576 306.40356 570.40356 312 563.5 312 C 556.59644 312 551 306.40356 551 299.5 Z" opacity="0.2"/></g><g transform="translate(-38,-134) scale(1,1)"><path fill="none" stroke="#000000" d="M 544 292.5 C 544 285.59644 549.59644 280 556.5 280 C 563.40356 280 569 285.59644 569 292.5 C 569 299.40356 563.40356 305 556.5 305 C 549.59644 305 544 299.40356 544 292.5 Z" stroke-miterlimit="10"/></g><g transform="translate(-38,-134) scale(1,1)"><path fill="#000000" stroke="none" d="M 549 292.5 C 549 288.357864 552.357864 285 556.5 285 C 560.642136 285 564 288.357864 564 292.5 C 564 296.642136 560.642136 300 556.5 300 C 552.357864 300 549 296.642136 549 292.5 Z"/></g><g transform="translate(-38,-134) scale(1,1)"><path fill="none" stroke="#000000" d="M 68 281 L 167 282" stroke-miterlimit="10"/></g><g transform="translate(-38,-134) scale(1,1)"><path fill="none" stroke="#000000" d="M 156.795325341268 286.10665497813403 L 167 282 L 156.88036176597603 277.68804893204015" stroke-miterlimit="10"/></g><g transform="translate(-38,-134) scale(1,1)"><g><path fill="none" stroke="none"/><text fill="#000000" stroke="none" font-family="Arial" font-size="13px" font-style="normal" font-weight="normal" text-decoration="none" x="84.86181640625" y="272.5">输入买家ID</text></g></g><g transform="translate(-38,-134) scale(1,1)"><path fill="none" stroke="#000000" d="M 249 263 L 370 184" stroke-miterlimit="10"/></g><g transform="translate(-38,-134) scale(1,1)"><path fill="none" stroke="#000000" d="M 363.7917358993759 193.08060883734686 L 370 184 L 359.1891342688612 186.03105444124213" stroke-miterlimit="10"/></g><g transform="translate(-38,-134) scale(1,1)"><g><path fill="none" stroke="none"/><text fill="#000000" stroke="none" font-family="Arial" font-size="13px" font-style="normal" font-weight="normal" text-decoration="none" x="247.84814453125" y="220.5">买家状态合法</text></g></g><g transform="translate(-38,-134) scale(1,1)"><path fill="none" stroke="#000000" d="M 261 304 L 359 351" stroke-miterlimit="10"/></g><g transform="translate(-38,-134) scale(1,1)"><path fill="none" stroke="#000000" d="M 348.0163258062167 350.40091636241823 L 359 351 L 351.6569855978641 342.80975339260016" stroke-miterlimit="10"/></g><g transform="translate(-38,-134) scale(1,1)"><g><path fill="none" stroke="none"/><text fill="#000000" stroke="none" font-family="Arial" font-size="13px" font-style="normal" font-weight="normal" text-decoration="none" x="269.5" y="325.5">买家状态不合法</text></g></g><g transform="translate(-38,-134) scale(1,1)"><path fill="none" stroke="#000000" d="M 427 184 L 543 281" stroke-miterlimit="10"/></g><g transform="translate(-38,-134) scale(1,1)"><path fill="none" stroke="#000000" d="M 532.5035056826213 277.7100749179904 L 543 281 L 537.9041860245801 271.25152935441076" stroke-miterlimit="10"/></g><g transform="translate(-38,-134) scale(1,1)"><g><path fill="none" stroke="none"/><text fill="#000000" stroke="none" font-family="Arial" font-size="13px" font-style="normal" font-weight="normal" text-decoration="none" x="419.772216796875" y="239.5">更新转卖status、buyerId</text></g></g><g transform="translate(-38,-134) scale(1,1)"><path fill="none" stroke="#000000" d="M 439 351 L 543 299" stroke-miterlimit="10"/></g><g transform="translate(-38,-134) scale(1,1)"><path fill="none" stroke="#000000" d="M 535.7927808450386 307.3099935049528 L 543 299 L 532.0276737030609 299.77977922099745" stroke-miterlimit="10"/></g><g transform="translate(-38,-134) scale(1,1)"><g><path fill="none" stroke="none"/><text fill="#000000" stroke="none" font-family="Arial" font-size="13px" font-style="normal" font-weight="normal" text-decoration="none" x="407.34814453125" y="328.5">不更新状态，返回失败信息</text></g></g></g></svg>