<svg version="1.1" xmlns="http://www.w3.org/2000/svg" xmlns:xlink="http://www.w3.org/1999/xlink" width="724" height="356"><defs/><g><g transform="translate(-46,-142) scale(1,1)"><rect fill="#C0C0C0" stroke="none" x="175" y="159" width="592" height="336" opacity="0.2"/></g><g transform="translate(-46,-142) scale(1,1)"><rect fill="#ffffff" stroke="none" x="168" y="152" width="592" height="336"/></g><g transform="translate(-46,-142) scale(1,1)"><path fill="none" stroke="#000000" d="M 168 152 L 760 152 L 760 488 L 168 488 L 168 152 Z Z" stroke-miterlimit="10"/></g><g transform="translate(-46,-142) scale(1,1)"><g><path fill="none" stroke="none"/><text fill="#000000" stroke="none" font-family="Arial" font-size="13px" font-style="normal" font-weight="bold" text-decoration="none" x="425" y="171.5">票务查询系统</text></g></g><g transform="translate(-46,-142) scale(1,1)"><path fill="#ffffff" stroke="none" d="M 72.40935031960227 225.68 C 72.40935031960227 220.886167936 76.29519264454773 217 81.088623046875 217 C 85.88205344920227 217 89.76789577414773 220.886167936 89.76789577414773 225.68 C 89.76789577414773 230.47383206400002 85.88205344920227 234.36 81.088623046875 234.36 C 76.29519264454773 234.36 72.40935031960227 230.47383206400002 72.40935031960227 225.68 Z"/></g><g transform="translate(-46,-142) scale(1,1)"><path fill="none" stroke="#000000" d="M 72.40935031960227 225.68 C 72.40935031960227 220.886167936 76.29519264454773 217 81.088623046875 217 C 85.88205344920227 217 89.76789577414773 220.886167936 89.76789577414773 225.68 C 89.76789577414773 230.47383206400002 85.88205344920227 234.36 81.088623046875 234.36 C 76.29519264454773 234.36 72.40935031960227 230.47383206400002 72.40935031960227 225.68 Z" stroke-miterlimit="10"/></g><g transform="translate(-46,-142) scale(1,1)"><path fill="none" stroke="#000000" d="M 81.088623046875 234.36 L 81.088623046875 251.64" stroke-miterlimit="10"/></g><g transform="translate(-46,-142) scale(1,1)"><path fill="none" stroke="#000000" d="M 71.89880486505682 240.84 L 90.27844122869318 240.84" stroke-miterlimit="10"/></g><g transform="translate(-46,-142) scale(1,1)"><path fill="none" stroke="#000000" d="M 81.088623046875 251.64 L 68.32498668323863 269" stroke-miterlimit="10"/></g><g transform="translate(-46,-142) scale(1,1)"><path fill="none" stroke="#000000" d="M 81.088623046875 251.64 L 93.85225941051137 269" stroke-miterlimit="10"/></g><g transform="translate(-46,-142) scale(1,1)"><g><path fill="none" stroke="none"/><text fill="#000000" stroke="none" font-family="Arial" font-size="13px" font-style="normal" font-weight="bold" text-decoration="none" x="68.088623046875" y="289.5">游客</text></g></g><g transform="translate(-46,-142) scale(1,1)"><path fill="#C0C0C0" stroke="none" d="M 263 232 C 263 222.6111584 285.6096176 215 313.5 215 C 341.3903824 215 364 222.6111584 364 232 C 364 241.3888416 341.3903824 249 313.5 249 C 285.6096176 249 263 241.3888416 263 232 Z" opacity="0.2"/></g><g transform="translate(-46,-142) scale(1,1)"><path fill="#ffffff" stroke="none" d="M 256 225 C 256 215.6111584 278.6096176 208 306.5 208 C 334.3903824 208 357 215.6111584 357 225 C 357 234.3888416 334.3903824 242 306.5 242 C 278.6096176 242 256 234.3888416 256 225 Z"/></g><g transform="translate(-46,-142) scale(1,1)"><path fill="none" stroke="#000000" d="M 256 225 C 256 215.6111584 278.6096176 208 306.5 208 C 334.3903824 208 357 215.6111584 357 225 C 357 234.3888416 334.3903824 242 306.5 242 C 278.6096176 242 256 234.3888416 256 225 Z" stroke-miterlimit="10"/></g><g transform="translate(-46,-142) scale(1,1)"><g><path fill="none" stroke="none"/><text fill="#000000" stroke="none" font-family="Arial" font-size="13px" font-style="normal" font-weight="bold" text-decoration="none" x="280.5" y="232">选择城市</text></g></g><g transform="translate(-46,-142) scale(1,1)"><path fill="#C0C0C0" stroke="none" d="M 255 320 C 255 310.6111584 282.5344848 303 316.5 303 C 350.4655152 303 378 310.6111584 378 320 C 378 329.3888416 350.4655152 337 316.5 337 C 282.5344848 337 255 329.3888416 255 320 Z" opacity="0.2"/></g><g transform="translate(-46,-142) scale(1,1)"><path fill="#ffffff" stroke="none" d="M 248 313 C 248 303.6111584 275.5344848 296 309.5 296 C 343.4655152 296 371 303.6111584 371 313 C 371 322.3888416 343.4655152 330 309.5 330 C 275.5344848 330 248 322.3888416 248 313 Z"/></g><g transform="translate(-46,-142) scale(1,1)"><path fill="none" stroke="#000000" d="M 248 313 C 248 303.6111584 275.5344848 296 309.5 296 C 343.4655152 296 371 303.6111584 371 313 C 371 322.3888416 343.4655152 330 309.5 330 C 275.5344848 330 248 322.3888416 248 313 Z" stroke-miterlimit="10"/></g><g transform="translate(-46,-142) scale(1,1)"><g><path fill="none" stroke="none"/><text fill="#000000" stroke="none" font-family="Arial" font-size="13px" font-style="normal" font-weight="bold" text-decoration="none" x="270.5" y="320">选择演出类型</text></g></g><g transform="translate(-46,-142) scale(1,1)"><path fill="#C0C0C0" stroke="none" d="M 447 320 C 447 310.6111584 474.5344848 303 508.5 303 C 542.4655152 303 570 310.6111584 570 320 C 570 329.3888416 542.4655152 337 508.5 337 C 474.5344848 337 447 329.3888416 447 320 Z" opacity="0.2"/></g><g transform="translate(-46,-142) scale(1,1)"><path fill="#ffffff" stroke="none" d="M 440 313 C 440 303.6111584 467.5344848 296 501.5 296 C 535.4655152 296 563 303.6111584 563 313 C 563 322.3888416 535.4655152 330 501.5 330 C 467.5344848 330 440 322.3888416 440 313 Z"/></g><g transform="translate(-46,-142) scale(1,1)"><path fill="none" stroke="#000000" d="M 440 313 C 440 303.6111584 467.5344848 296 501.5 296 C 535.4655152 296 563 303.6111584 563 313 C 563 322.3888416 535.4655152 330 501.5 330 C 467.5344848 330 440 322.3888416 440 313 Z" stroke-miterlimit="10"/></g><g transform="translate(-46,-142) scale(1,1)"><g><path fill="none" stroke="none"/><text fill="#000000" stroke="none" font-family="Arial" font-size="13px" font-style="normal" font-weight="bold" text-decoration="none" x="462.5" y="320">跳转筛查页面</text></g></g><g transform="translate(-46,-142) scale(1,1)"><path fill="none" stroke="#000000" d="M 372 313 L 439 313" stroke-miterlimit="10"/></g><g transform="translate(-46,-142) scale(1,1)"><path fill="#C0C0C0" stroke="none" d="M 559 224 C 559 214.6111584 598.8466528 207 648 207 C 697.1533472 207 737 214.6111584 737 224 C 737 233.3888416 697.1533472 241 648 241 C 598.8466528 241 559 233.3888416 559 224 Z" opacity="0.2"/></g><g transform="translate(-46,-142) scale(1,1)"><path fill="#ffffff" stroke="none" d="M 552 217 C 552 207.6111584 591.8466528 200 641 200 C 690.1533472 200 730 207.6111584 730 217 C 730 226.3888416 690.1533472 234 641 234 C 591.8466528 234 552 226.3888416 552 217 Z"/></g><g transform="translate(-46,-142) scale(1,1)"><path fill="none" stroke="#000000" d="M 552 217 C 552 207.6111584 591.8466528 200 641 200 C 690.1533472 200 730 207.6111584 730 217 C 730 226.3888416 690.1533472 234 641 234 C 591.8466528 234 552 226.3888416 552 217 Z" stroke-miterlimit="10"/></g><g transform="translate(-46,-142) scale(1,1)"><g><path fill="none" stroke="none"/><text fill="#000000" stroke="none" font-family="Arial" font-size="13px" font-style="normal" font-weight="bold" text-decoration="none" x="582.5" y="224">改变所选城市及类型</text></g></g><g transform="translate(-46,-142) scale(1,1)"><path fill="none" stroke="#000000" d="M 527 295 L 615 235" stroke-miterlimit="10" stroke-dasharray="3"/></g><g transform="translate(-46,-142) scale(1,1)"><path fill="none" stroke="#000000" d="M 608.9746965225143 244.20302765421238 L 615 235 L 604.231943790622 237.2469903141038" stroke-miterlimit="10"/></g><g transform="translate(-46,-142) scale(1,1)"><g><path fill="none" stroke="none"/><text fill="#000000" stroke="none" font-family="Arial" font-size="13px" font-style="normal" font-weight="normal" text-decoration="none" x="527.23291015625" y="246.5">«extend»</text></g></g><g transform="translate(-46,-142) scale(1,1)"><path fill="#C0C0C0" stroke="none" d="M 271 440 C 271 430.6111584 293.6096176 423 321.5 423 C 349.3903824 423 372 430.6111584 372 440 C 372 449.3888416 349.3903824 457 321.5 457 C 293.6096176 457 271 449.3888416 271 440 Z" opacity="0.2"/></g><g transform="translate(-46,-142) scale(1,1)"><path fill="#ffffff" stroke="none" d="M 264 433 C 264 423.6111584 286.6096176 416 314.5 416 C 342.3903824 416 365 423.6111584 365 433 C 365 442.3888416 342.3903824 450 314.5 450 C 286.6096176 450 264 442.3888416 264 433 Z"/></g><g transform="translate(-46,-142) scale(1,1)"><path fill="none" stroke="#000000" d="M 264 433 C 264 423.6111584 286.6096176 416 314.5 416 C 342.3903824 416 365 423.6111584 365 433 C 365 442.3888416 342.3903824 450 314.5 450 C 286.6096176 450 264 442.3888416 264 433 Z" stroke-miterlimit="10"/></g><g transform="translate(-46,-142) scale(1,1)"><g><path fill="none" stroke="none"/><text fill="#000000" stroke="none" font-family="Arial" font-size="13px" font-style="normal" font-weight="bold" text-decoration="none" x="288.5" y="440">搜索演出</text></g></g><g transform="translate(-46,-142) scale(1,1)"><path fill="#ffffff" stroke="none" d="M 72.40935031960227 377.68 C 72.40935031960227 372.886167936 76.29519264454773 369 81.088623046875 369 C 85.88205344920227 369 89.76789577414773 372.886167936 89.76789577414773 377.68 C 89.76789577414773 382.473832064 85.88205344920227 386.36 81.088623046875 386.36 C 76.29519264454773 386.36 72.40935031960227 382.473832064 72.40935031960227 377.68 Z"/></g><g transform="translate(-46,-142) scale(1,1)"><path fill="none" stroke="#000000" d="M 72.40935031960227 377.68 C 72.40935031960227 372.886167936 76.29519264454773 369 81.088623046875 369 C 85.88205344920227 369 89.76789577414773 372.886167936 89.76789577414773 377.68 C 89.76789577414773 382.473832064 85.88205344920227 386.36 81.088623046875 386.36 C 76.29519264454773 386.36 72.40935031960227 382.473832064 72.40935031960227 377.68 Z" stroke-miterlimit="10"/></g><g transform="translate(-46,-142) scale(1,1)"><path fill="none" stroke="#000000" d="M 81.088623046875 386.36 L 81.088623046875 403.64" stroke-miterlimit="10"/></g><g transform="translate(-46,-142) scale(1,1)"><path fill="none" stroke="#000000" d="M 71.89880486505682 392.84 L 90.27844122869318 392.84" stroke-miterlimit="10"/></g><g transform="translate(-46,-142) scale(1,1)"><path fill="none" stroke="#000000" d="M 81.088623046875 403.64 L 68.32498668323863 421" stroke-miterlimit="10"/></g><g transform="translate(-46,-142) scale(1,1)"><path fill="none" stroke="#000000" d="M 81.088623046875 403.64 L 93.85225941051137 421" stroke-miterlimit="10"/></g><g transform="translate(-46,-142) scale(1,1)"><g><path fill="none" stroke="none"/><text fill="#000000" stroke="none" font-family="Arial" font-size="13px" font-style="normal" font-weight="bold" text-decoration="none" x="68.088623046875" y="441.5">用户</text></g></g><g transform="translate(-46,-142) scale(1,1)"><path fill="none" stroke="#000000" d="M 107 252 L 255 232" stroke-miterlimit="10"/></g><g transform="translate(-46,-142) scale(1,1)"><path fill="none" stroke="#000000" d="M 245.49259590443933 237.532564266569 L 255 232 L 244.36513638230699 229.18936380278961" stroke-miterlimit="10"/></g><g transform="translate(-46,-142) scale(1,1)"><path fill="none" stroke="#000000" d="M 107 262 L 247 297" stroke-miterlimit="10"/></g><g transform="translate(-46,-142) scale(1,1)"><path fill="none" stroke="#000000" d="M 236.1197991854035 298.61902138159263 L 247 297 L 238.16171522551727 290.4513572211376" stroke-miterlimit="10"/></g><g transform="translate(-46,-142) scale(1,1)"><path fill="none" stroke="#000000" d="M 107 275 L 290 415" stroke-miterlimit="10"/></g><g transform="translate(-46,-142) scale(1,1)"><path fill="none" stroke="#000000" d="M 279.3707016371872 412.1683898018433 L 290 415 L 284.48620182119356 405.48170027560644" stroke-miterlimit="10"/></g><g transform="translate(-46,-142) scale(1,1)"><path fill="none" stroke="#000000" d="M 81 368 L 81 295" stroke-miterlimit="10"/></g><g transform="translate(-46,-142) scale(1,1)"><path fill="#FFFFFF" stroke="none" d="M 89.41903551203198 315.3253497152483 L 81 295 L 72.58096448796803 315.3253497152483"/></g><g transform="translate(-46,-142) scale(1,1)"><path fill="none" stroke="#000000" d="M 89.41903551203198 315.3253497152483 L 81 295 L 72.58096448796803 315.3253497152483 L 89.41903551203198 315.3253497152483" stroke-miterlimit="10"/></g></g></svg>