<svg version="1.1" xmlns="http://www.w3.org/2000/svg" xmlns:xlink="http://www.w3.org/1999/xlink" width="676" height="420"><defs/><g><g transform="translate(-78,-342) scale(1,1)"><rect fill="#C0C0C0" stroke="none" x="215" y="359" width="536" height="400" opacity="0.2"/></g><g transform="translate(-78,-342) scale(1,1)"><rect fill="#ffffff" stroke="none" x="208" y="352" width="536" height="400"/></g><g transform="translate(-78,-342) scale(1,1)"><path fill="none" stroke="#000000" d="M 208 352 L 744 352 L 744 752 L 208 752 L 208 352 Z Z" stroke-miterlimit="10"/></g><g transform="translate(-78,-342) scale(1,1)"><g><path fill="none" stroke="none"/><text fill="#000000" stroke="none" font-family="Arial" font-size="13px" font-style="normal" font-weight="bold" text-decoration="none" x="450" y="371.5">转卖系统</text></g></g><g transform="translate(-78,-342) scale(1,1)"><path fill="#ffffff" stroke="none" d="M 113.7490909090909 524.4 C 113.7490909090909 518.10395328 118.78629392290908 513 125 513 C 131.2137060770909 513 136.2509090909091 518.10395328 136.2509090909091 524.4 C 136.2509090909091 530.6960467199999 131.2137060770909 535.8 125 535.8 C 118.78629392290908 535.8 113.7490909090909 530.6960467199999 113.7490909090909 524.4 Z"/></g><g transform="translate(-78,-342) scale(1,1)"><path fill="none" stroke="#000000" d="M 113.7490909090909 524.4 C 113.7490909090909 518.10395328 118.78629392290908 513 125 513 C 131.2137060770909 513 136.2509090909091 518.10395328 136.2509090909091 524.4 C 136.2509090909091 530.6960467199999 131.2137060770909 535.8 125 535.8 C 118.78629392290908 535.8 113.7490909090909 530.6960467199999 113.7490909090909 524.4 Z" stroke-miterlimit="10"/></g><g transform="translate(-78,-342) scale(1,1)"><path fill="none" stroke="#000000" d="M 125 535.8 L 125 558.2" stroke-miterlimit="10"/></g><g transform="translate(-78,-342) scale(1,1)"><path fill="none" stroke="#000000" d="M 113.08727272727272 544.2 L 136.9127272727273 544.2" stroke-miterlimit="10"/></g><g transform="translate(-78,-342) scale(1,1)"><path fill="none" stroke="#000000" d="M 125 558.2 L 108.45454545454544 581" stroke-miterlimit="10"/></g><g transform="translate(-78,-342) scale(1,1)"><path fill="none" stroke="#000000" d="M 125 558.2 L 141.54545454545456 581" stroke-miterlimit="10"/></g><g transform="translate(-78,-342) scale(1,1)"><g><path fill="none" stroke="none"/><text fill="#000000" stroke="none" font-family="Arial" font-size="13px" font-style="normal" font-weight="bold" text-decoration="none" x="112" y="601.5">用户</text></g></g><g transform="translate(-78,-342) scale(1,1)"><path fill="#C0C0C0" stroke="none" d="M 239 504 C 239 494.6111584 266.5344848 487 300.5 487 C 334.4655152 487 362 494.6111584 362 504 C 362 513.3888416 334.4655152 521 300.5 521 C 266.5344848 521 239 513.3888416 239 504 Z" opacity="0.2"/></g><g transform="translate(-78,-342) scale(1,1)"><path fill="#ffffff" stroke="none" d="M 232 497 C 232 487.6111584 259.5344848 480 293.5 480 C 327.4655152 480 355 487.6111584 355 497 C 355 506.3888416 327.4655152 514 293.5 514 C 259.5344848 514 232 506.3888416 232 497 Z"/></g><g transform="translate(-78,-342) scale(1,1)"><path fill="none" stroke="#000000" d="M 232 497 C 232 487.6111584 259.5344848 480 293.5 480 C 327.4655152 480 355 487.6111584 355 497 C 355 506.3888416 327.4655152 514 293.5 514 C 259.5344848 514 232 506.3888416 232 497 Z" stroke-miterlimit="10"/></g><g transform="translate(-78,-342) scale(1,1)"><g><path fill="none" stroke="none"/><text fill="#000000" stroke="none" font-family="Arial" font-size="13px" font-style="normal" font-weight="bold" text-decoration="none" x="254.5" y="504">管理转卖信息</text></g></g><g transform="translate(-78,-342) scale(1,1)"><path fill="#C0C0C0" stroke="none" d="M 447 424 C 447 414.6111584 469.6096176 407 497.5 407 C 525.3903824 407 548 414.6111584 548 424 C 548 433.3888416 525.3903824 441 497.5 441 C 469.6096176 441 447 433.3888416 447 424 Z" opacity="0.2"/></g><g transform="translate(-78,-342) scale(1,1)"><path fill="#ffffff" stroke="none" d="M 440 417 C 440 407.6111584 462.6096176 400 490.5 400 C 518.3903824 400 541 407.6111584 541 417 C 541 426.3888416 518.3903824 434 490.5 434 C 462.6096176 434 440 426.3888416 440 417 Z"/></g><g transform="translate(-78,-342) scale(1,1)"><path fill="none" stroke="#000000" d="M 440 417 C 440 407.6111584 462.6096176 400 490.5 400 C 518.3903824 400 541 407.6111584 541 417 C 541 426.3888416 518.3903824 434 490.5 434 C 462.6096176 434 440 426.3888416 440 417 Z" stroke-miterlimit="10"/></g><g transform="translate(-78,-342) scale(1,1)"><g><path fill="none" stroke="none"/><text fill="#000000" stroke="none" font-family="Arial" font-size="13px" font-style="normal" font-weight="bold" text-decoration="none" x="464.5" y="424">创建转卖</text></g></g><g transform="translate(-78,-342) scale(1,1)"><path fill="#C0C0C0" stroke="none" d="M 591 520 C 591 510.6111584 613.6096176 503 641.5 503 C 669.3903824 503 692 510.6111584 692 520 C 692 529.3888416 669.3903824 537 641.5 537 C 613.6096176 537 591 529.3888416 591 520 Z" opacity="0.2"/></g><g transform="translate(-78,-342) scale(1,1)"><path fill="#ffffff" stroke="none" d="M 584 513 C 584 503.6111584 606.6096176 496 634.5 496 C 662.3903824 496 685 503.6111584 685 513 C 685 522.3888416 662.3903824 530 634.5 530 C 606.6096176 530 584 522.3888416 584 513 Z"/></g><g transform="translate(-78,-342) scale(1,1)"><path fill="none" stroke="#000000" d="M 584 513 C 584 503.6111584 606.6096176 496 634.5 496 C 662.3903824 496 685 503.6111584 685 513 C 685 522.3888416 662.3903824 530 634.5 530 C 606.6096176 530 584 522.3888416 584 513 Z" stroke-miterlimit="10"/></g><g transform="translate(-78,-342) scale(1,1)"><g><path fill="none" stroke="none"/><text fill="#000000" stroke="none" font-family="Arial" font-size="13px" font-style="normal" font-weight="bold" text-decoration="none" x="608.5" y="520">删除转卖</text></g></g><g transform="translate(-78,-342) scale(1,1)"><path fill="#C0C0C0" stroke="none" d="M 399 592 C 399 582.6111584 426.5344848 575 460.5 575 C 494.4655152 575 522 582.6111584 522 592 C 522 601.3888416 494.4655152 609 460.5 609 C 426.5344848 609 399 601.3888416 399 592 Z" opacity="0.2"/></g><g transform="translate(-78,-342) scale(1,1)"><path fill="#ffffff" stroke="none" d="M 392 585 C 392 575.6111584 419.5344848 568 453.5 568 C 487.4655152 568 515 575.6111584 515 585 C 515 594.3888416 487.4655152 602 453.5 602 C 419.5344848 602 392 594.3888416 392 585 Z"/></g><g transform="translate(-78,-342) scale(1,1)"><path fill="none" stroke="#000000" d="M 392 585 C 392 575.6111584 419.5344848 568 453.5 568 C 487.4655152 568 515 575.6111584 515 585 C 515 594.3888416 487.4655152 602 453.5 602 C 419.5344848 602 392 594.3888416 392 585 Z" stroke-miterlimit="10"/></g><g transform="translate(-78,-342) scale(1,1)"><g><path fill="none" stroke="none"/><text fill="#000000" stroke="none" font-family="Arial" font-size="13px" font-style="normal" font-weight="bold" text-decoration="none" x="414.5" y="592">更新转卖信息</text></g></g><g transform="translate(-78,-342) scale(1,1)"><path fill="#C0C0C0" stroke="none" d="M 303 688 C 303 678.6111584 330.5344848 671 364.5 671 C 398.4655152 671 426 678.6111584 426 688 C 426 697.3888416 398.4655152 705 364.5 705 C 330.5344848 705 303 697.3888416 303 688 Z" opacity="0.2"/></g><g transform="translate(-78,-342) scale(1,1)"><path fill="#ffffff" stroke="none" d="M 296 681 C 296 671.6111584 323.5344848 664 357.5 664 C 391.4655152 664 419 671.6111584 419 681 C 419 690.3888416 391.4655152 698 357.5 698 C 323.5344848 698 296 690.3888416 296 681 Z"/></g><g transform="translate(-78,-342) scale(1,1)"><path fill="none" stroke="#000000" d="M 296 681 C 296 671.6111584 323.5344848 664 357.5 664 C 391.4655152 664 419 671.6111584 419 681 C 419 690.3888416 391.4655152 698 357.5 698 C 323.5344848 698 296 690.3888416 296 681 Z" stroke-miterlimit="10"/></g><g transform="translate(-78,-342) scale(1,1)"><g><path fill="none" stroke="none"/><text fill="#000000" stroke="none" font-family="Arial" font-size="13px" font-style="normal" font-weight="bold" text-decoration="none" x="318.5" y="688">浏览转卖信息</text></g></g><g transform="translate(-78,-342) scale(1,1)"><path fill="#C0C0C0" stroke="none" d="M 551 688 C 551 678.6111584 578.5344848 671 612.5 671 C 646.4655152 671 674 678.6111584 674 688 C 674 697.3888416 646.4655152 705 612.5 705 C 578.5344848 705 551 697.3888416 551 688 Z" opacity="0.2"/></g><g transform="translate(-78,-342) scale(1,1)"><path fill="#ffffff" stroke="none" d="M 544 681 C 544 671.6111584 571.5344848 664 605.5 664 C 639.4655152 664 667 671.6111584 667 681 C 667 690.3888416 639.4655152 698 605.5 698 C 571.5344848 698 544 690.3888416 544 681 Z"/></g><g transform="translate(-78,-342) scale(1,1)"><path fill="none" stroke="#000000" d="M 544 681 C 544 671.6111584 571.5344848 664 605.5 664 C 639.4655152 664 667 671.6111584 667 681 C 667 690.3888416 639.4655152 698 605.5 698 C 571.5344848 698 544 690.3888416 544 681 Z" stroke-miterlimit="10"/></g><g transform="translate(-78,-342) scale(1,1)"><g><path fill="none" stroke="none"/><text fill="#000000" stroke="none" font-family="Arial" font-size="13px" font-style="normal" font-weight="bold" text-decoration="none" x="566.5" y="688">购买转卖票卷</text></g></g><g transform="translate(-78,-342) scale(1,1)"><path fill="none" stroke="#000000" d="M 163 545 L 244 515" stroke-miterlimit="10"/></g><g transform="translate(-78,-342) scale(1,1)"><path fill="none" stroke="#000000" d="M 235.93199019438367 522.4771129305688 L 244 515 L 233.00793829886635 514.582172812672" stroke-miterlimit="10"/></g><g transform="translate(-78,-342) scale(1,1)"><path fill="none" stroke="#000000" d="M 163 579 L 323 663" stroke-miterlimit="10"/></g><g transform="translate(-78,-342) scale(1,1)"><path fill="none" stroke="#000000" d="M 312.0452624424395 662.0031424148993 L 323 663 L 315.9587155452319 654.548946028628" stroke-miterlimit="10"/></g><g transform="translate(-78,-342) scale(1,1)"><path fill="none" stroke="#000000" d="M 337 479 L 446 435" stroke-miterlimit="10" stroke-dasharray="3"/></g><g transform="translate(-78,-342) scale(1,1)"><path fill="none" stroke="#000000" d="M 438.1518822261237 442.70759673357185 L 446 435 L 435.0004487855815 434.9006366195013" stroke-miterlimit="10"/></g><g transform="translate(-78,-342) scale(1,1)"><g><path fill="none" stroke="none"/><text fill="#000000" stroke="none" font-family="Arial" font-size="13px" font-style="normal" font-weight="normal" text-decoration="none" x="351.5" y="435.5">«include»</text></g></g><g transform="translate(-78,-342) scale(1,1)"><path fill="none" stroke="#000000" d="M 356 500 L 583 511" stroke-miterlimit="10" stroke-dasharray="3"/></g><g transform="translate(-78,-342) scale(1,1)"><path fill="none" stroke="#000000" d="M 572.6454897624681 514.7126968285664 L 583 511 L 573.0529824912065 506.30352869914475" stroke-miterlimit="10"/></g><g transform="translate(-78,-342) scale(1,1)"><g><path fill="none" stroke="none"/><text fill="#000000" stroke="none" font-family="Arial" font-size="13px" font-style="normal" font-weight="normal" text-decoration="none" x="503.5" y="508.5">«include»</text></g></g><g transform="translate(-78,-342) scale(1,1)"><path fill="none" stroke="#000000" d="M 326 515 L 420 567" stroke-miterlimit="10" stroke-dasharray="3"/></g><g transform="translate(-78,-342) scale(1,1)"><path fill="none" stroke="#000000" d="M 409.06964854169263 565.7641128700899 L 420 567 L 413.1449785334192 558.3971701927379" stroke-miterlimit="10"/></g><g transform="translate(-78,-342) scale(1,1)"><g><path fill="none" stroke="none"/><text fill="#000000" stroke="none" font-family="Arial" font-size="13px" font-style="normal" font-weight="normal" text-decoration="none" x="359.5" y="520.5">«include»</text></g></g><g transform="translate(-78,-342) scale(1,1)"><path fill="none" stroke="#000000" d="M 544 681 L 419 681" stroke-miterlimit="10" stroke-dasharray="3"/></g><g transform="translate(-78,-342) scale(1,1)"><path fill="none" stroke="#000000" d="M 429.16267485762415 676.790482243984 L 419 681 L 429.16267485762415 685.209517756016" stroke-miterlimit="10"/></g><g transform="translate(-78,-342) scale(1,1)"><g><path fill="none" stroke="none"/><text fill="#000000" stroke="none" font-family="Arial" font-size="13px" font-style="normal" font-weight="normal" text-decoration="none" x="453.5" y="717.5">«extend»</text></g></g><g transform="translate(-78,-342) scale(1,1)"><path fill="none" stroke="#000000" d="M 607 495 L 517 435" stroke-miterlimit="10" stroke-dasharray="3"/></g><g transform="translate(-78,-342) scale(1,1)"><path fill="none" stroke="#000000" d="M 527.7908769318217 437.13470724978384 L 517 435 L 523.1208362812703 444.1397682256108" stroke-miterlimit="10"/></g><g transform="translate(-78,-342) scale(1,1)"><g><path fill="none" stroke="none"/><text fill="#000000" stroke="none" font-family="Arial" font-size="13px" font-style="normal" font-weight="normal" text-decoration="none" x="551.5" y="460.5">«extend»</text></g></g><g transform="translate(-78,-342) scale(1,1)"><path fill="none" stroke="#000000" d="M 457 567 L 486 435" stroke-miterlimit="10" stroke-dasharray="3"/></g><g transform="translate(-78,-342) scale(1,1)"><path fill="none" stroke="#000000" d="M 487.93076215453266 445.82922700392896 L 486 435 L 479.7078351628418 444.02267486181506" stroke-miterlimit="10"/></g><g transform="translate(-78,-342) scale(1,1)"><g><path fill="none" stroke="none"/><text fill="#000000" stroke="none" font-family="Arial" font-size="13px" font-style="normal" font-weight="normal" text-decoration="none" x="439.5" y="475.5">«extend»</text></g></g></g></svg>