<svg version="1.1" xmlns="http://www.w3.org/2000/svg" xmlns:xlink="http://www.w3.org/1999/xlink" width="644" height="420"><defs/><g><g transform="translate(-334,-94) scale(1,1)"><rect fill="#C0C0C0" stroke="none" x="431" y="111" width="544" height="400" opacity="0.2"/></g><g transform="translate(-334,-94) scale(1,1)"><rect fill="#ffffff" stroke="none" x="424" y="104" width="544" height="400"/></g><g transform="translate(-334,-94) scale(1,1)"><path fill="none" stroke="#000000" d="M 424 104 L 968 104 L 968 504 L 424 504 L 424 104 Z Z" stroke-miterlimit="10"/></g><g transform="translate(-334,-94) scale(1,1)"><g><path fill="none" stroke="none"/><text fill="#000000" stroke="none" font-family="Arial" font-size="16px" font-style="normal" font-weight="bold" text-decoration="none" x="648" y="126.5">票务信息系统</text></g></g><g transform="translate(-334,-94) scale(1,1)"><path fill="#ffffff" stroke="none" d="M 360.40935031960225 153.68 C 360.40935031960225 148.886167936 364.29519264454774 145 369.088623046875 145 C 373.88205344920226 145 377.76789577414775 148.886167936 377.76789577414775 153.68 C 377.76789577414775 158.47383206400002 373.88205344920226 162.36 369.088623046875 162.36 C 364.29519264454774 162.36 360.40935031960225 158.47383206400002 360.40935031960225 153.68 Z"/></g><g transform="translate(-334,-94) scale(1,1)"><path fill="none" stroke="#000000" d="M 360.40935031960225 153.68 C 360.40935031960225 148.886167936 364.29519264454774 145 369.088623046875 145 C 373.88205344920226 145 377.76789577414775 148.886167936 377.76789577414775 153.68 C 377.76789577414775 158.47383206400002 373.88205344920226 162.36 369.088623046875 162.36 C 364.29519264454774 162.36 360.40935031960225 158.47383206400002 360.40935031960225 153.68 Z" stroke-miterlimit="10"/></g><g transform="translate(-334,-94) scale(1,1)"><path fill="none" stroke="#000000" d="M 369.088623046875 162.36 L 369.088623046875 179.64" stroke-miterlimit="10"/></g><g transform="translate(-334,-94) scale(1,1)"><path fill="none" stroke="#000000" d="M 359.89880486505683 168.84 L 378.27844122869317 168.84" stroke-miterlimit="10"/></g><g transform="translate(-334,-94) scale(1,1)"><path fill="none" stroke="#000000" d="M 369.088623046875 179.64 L 356.32498668323865 197" stroke-miterlimit="10"/></g><g transform="translate(-334,-94) scale(1,1)"><path fill="none" stroke="#000000" d="M 369.088623046875 179.64 L 381.85225941051135 197" stroke-miterlimit="10"/></g><g transform="translate(-334,-94) scale(1,1)"><g><path fill="none" stroke="none"/><text fill="#000000" stroke="none" font-family="Arial" font-size="13px" font-style="normal" font-weight="bold" text-decoration="none" x="356.088623046875" y="217.5">游客</text></g></g><g transform="translate(-334,-94) scale(1,1)"><path fill="#ffffff" stroke="none" d="M 360.40935031960225 329.68 C 360.40935031960225 324.886167936 364.29519264454774 321 369.088623046875 321 C 373.88205344920226 321 377.76789577414775 324.886167936 377.76789577414775 329.68 C 377.76789577414775 334.473832064 373.88205344920226 338.36 369.088623046875 338.36 C 364.29519264454774 338.36 360.40935031960225 334.473832064 360.40935031960225 329.68 Z"/></g><g transform="translate(-334,-94) scale(1,1)"><path fill="none" stroke="#000000" d="M 360.40935031960225 329.68 C 360.40935031960225 324.886167936 364.29519264454774 321 369.088623046875 321 C 373.88205344920226 321 377.76789577414775 324.886167936 377.76789577414775 329.68 C 377.76789577414775 334.473832064 373.88205344920226 338.36 369.088623046875 338.36 C 364.29519264454774 338.36 360.40935031960225 334.473832064 360.40935031960225 329.68 Z" stroke-miterlimit="10"/></g><g transform="translate(-334,-94) scale(1,1)"><path fill="none" stroke="#000000" d="M 369.088623046875 338.36 L 369.088623046875 355.64" stroke-miterlimit="10"/></g><g transform="translate(-334,-94) scale(1,1)"><path fill="none" stroke="#000000" d="M 359.89880486505683 344.84 L 378.27844122869317 344.84" stroke-miterlimit="10"/></g><g transform="translate(-334,-94) scale(1,1)"><path fill="none" stroke="#000000" d="M 369.088623046875 355.64 L 356.32498668323865 373" stroke-miterlimit="10"/></g><g transform="translate(-334,-94) scale(1,1)"><path fill="none" stroke="#000000" d="M 369.088623046875 355.64 L 381.85225941051135 373" stroke-miterlimit="10"/></g><g transform="translate(-334,-94) scale(1,1)"><g><path fill="none" stroke="none"/><text fill="#000000" stroke="none" font-family="Arial" font-size="13px" font-style="normal" font-weight="bold" text-decoration="none" x="356.088623046875" y="393.5">用户</text></g></g><g transform="translate(-334,-94) scale(1,1)"><path fill="none" stroke="#000000" d="M 369 319 L 369 224" stroke-miterlimit="10"/></g><g transform="translate(-334,-94) scale(1,1)"><path fill="#FFFFFF" stroke="none" d="M 377.419035512032 244.3253497152483 L 369 224 L 360.580964487968 244.3253497152483"/></g><g transform="translate(-334,-94) scale(1,1)"><path fill="none" stroke="#000000" d="M 377.419035512032 244.3253497152483 L 369 224 L 360.580964487968 244.3253497152483 L 377.419035512032 244.3253497152483" stroke-miterlimit="10"/></g><g transform="translate(-334,-94) scale(1,1)"><path fill="#C0C0C0" stroke="none" d="M 471 264 C 471 254.6111584 498.5344848 247 532.5 247 C 566.4655152 247 594 254.6111584 594 264 C 594 273.3888416 566.4655152 281 532.5 281 C 498.5344848 281 471 273.3888416 471 264 Z" opacity="0.2"/></g><g transform="translate(-334,-94) scale(1,1)"><path fill="#ffffff" stroke="none" d="M 464 257 C 464 247.6111584 491.5344848 240 525.5 240 C 559.4655152 240 587 247.6111584 587 257 C 587 266.3888416 559.4655152 274 525.5 274 C 491.5344848 274 464 266.3888416 464 257 Z"/></g><g transform="translate(-334,-94) scale(1,1)"><path fill="none" stroke="#000000" d="M 464 257 C 464 247.6111584 491.5344848 240 525.5 240 C 559.4655152 240 587 247.6111584 587 257 C 587 266.3888416 559.4655152 274 525.5 274 C 491.5344848 274 464 266.3888416 464 257 Z" stroke-miterlimit="10"/></g><g transform="translate(-334,-94) scale(1,1)"><g><path fill="none" stroke="none"/><text fill="#000000" stroke="none" font-family="Arial" font-size="13px" font-style="normal" font-weight="bold" text-decoration="none" x="486.5" y="264">查看演出详情</text></g></g><g transform="translate(-334,-94) scale(1,1)"><path fill="none" stroke="#000000" d="M 395 195 L 487 239" stroke-miterlimit="10"/></g><g transform="translate(-334,-94) scale(1,1)"><path fill="none" stroke="#000000" d="M 476.01568365074917 238.4128080896498 L 487 239 L 479.648122804413 230.81770804107995" stroke-miterlimit="10"/></g><g transform="translate(-334,-94) scale(1,1)"><path fill="none" stroke="#000000" d="M 395 342 L 497 275" stroke-miterlimit="10"/></g><g transform="translate(-334,-94) scale(1,1)"><path fill="none" stroke="#000000" d="M 490.8169908321599 284.09782378541183 L 497 275 L 486.1948193965767 277.06108518198664" stroke-miterlimit="10"/></g><g transform="translate(-334,-94) scale(1,1)"><path fill="#C0C0C0" stroke="none" d="M 631 208 C 631 198.6111584 662.5639216 191 701.5 191 C 740.4360784 191 772 198.6111584 772 208 C 772 217.3888416 740.4360784 225 701.5 225 C 662.5639216 225 631 217.3888416 631 208 Z" opacity="0.2"/></g><g transform="translate(-334,-94) scale(1,1)"><path fill="#ffffff" stroke="none" d="M 624 201 C 624 191.6111584 655.5639216 184 694.5 184 C 733.4360784 184 765 191.6111584 765 201 C 765 210.3888416 733.4360784 218 694.5 218 C 655.5639216 218 624 210.3888416 624 201 Z"/></g><g transform="translate(-334,-94) scale(1,1)"><path fill="none" stroke="#000000" d="M 624 201 C 624 191.6111584 655.5639216 184 694.5 184 C 733.4360784 184 765 191.6111584 765 201 C 765 210.3888416 733.4360784 218 694.5 218 C 655.5639216 218 624 210.3888416 624 201 Z" stroke-miterlimit="10"/></g><g transform="translate(-334,-94) scale(1,1)"><g><path fill="none" stroke="none"/><text fill="#000000" stroke="none" font-family="Arial" font-size="13px" font-style="normal" font-weight="bold" text-decoration="none" x="649" y="208">选择场次与票档</text></g></g><g transform="translate(-334,-94) scale(1,1)"><path fill="none" stroke="#000000" d="M 640 219 L 579 239" stroke-miterlimit="10" stroke-dasharray="3"/></g><g transform="translate(-334,-94) scale(1,1)"><path fill="none" stroke="#000000" d="M 587.3453957912465 231.83380372251455 L 579 239 L 589.9683519387997 239.83381997255228" stroke-miterlimit="10"/></g><g transform="translate(-334,-94) scale(1,1)"><g><path fill="none" stroke="none"/><text fill="#000000" stroke="none" font-family="Arial" font-size="13px" font-style="normal" font-weight="normal" text-decoration="none" x="570.23291015625" y="213.5">«extend»</text></g></g><g transform="translate(-334,-94) scale(1,1)"><path fill="#C0C0C0" stroke="none" d="M 647 320 C 647 310.6111584 669.6096176 303 697.5 303 C 725.3903824 303 748 310.6111584 748 320 C 748 329.3888416 725.3903824 337 697.5 337 C 669.6096176 337 647 329.3888416 647 320 Z" opacity="0.2"/></g><g transform="translate(-334,-94) scale(1,1)"><path fill="#ffffff" stroke="none" d="M 640 313 C 640 303.6111584 662.6096176 296 690.5 296 C 718.3903824 296 741 303.6111584 741 313 C 741 322.3888416 718.3903824 330 690.5 330 C 662.6096176 330 640 322.3888416 640 313 Z"/></g><g transform="translate(-334,-94) scale(1,1)"><path fill="none" stroke="#000000" d="M 640 313 C 640 303.6111584 662.6096176 296 690.5 296 C 718.3903824 296 741 303.6111584 741 313 C 741 322.3888416 718.3903824 330 690.5 330 C 662.6096176 330 640 322.3888416 640 313 Z" stroke-miterlimit="10"/></g><g transform="translate(-334,-94) scale(1,1)"><g><path fill="none" stroke="none"/><text fill="#000000" stroke="none" font-family="Arial" font-size="13px" font-style="normal" font-weight="bold" text-decoration="none" x="664.5" y="320">创建订单</text></g></g><g transform="translate(-334,-94) scale(1,1)"><path fill="none" stroke="#000000" d="M 693 219 L 691 295" stroke-miterlimit="10" stroke-dasharray="3"/></g><g transform="translate(-334,-94) scale(1,1)"><path fill="none" stroke="#000000" d="M 687.0592853332588 284.7301038021151 L 691 295 L 695.4754071800323 284.9515806928197" stroke-miterlimit="10"/></g><g transform="translate(-334,-94) scale(1,1)"><g><path fill="none" stroke="none"/><text fill="#000000" stroke="none" font-family="Arial" font-size="13px" font-style="normal" font-weight="normal" text-decoration="none" x="694.23291015625" y="263.5">«extend»</text></g></g><g transform="translate(-334,-94) scale(1,1)"><path fill="#C0C0C0" stroke="none" d="M 783 248 C 783 238.6111584 805.6096176 231 833.5 231 C 861.3903824 231 884 238.6111584 884 248 C 884 257.3888416 861.3903824 265 833.5 265 C 805.6096176 265 783 257.3888416 783 248 Z" opacity="0.2"/></g><g transform="translate(-334,-94) scale(1,1)"><path fill="#ffffff" stroke="none" d="M 776 241 C 776 231.6111584 798.6096176 224 826.5 224 C 854.3903824 224 877 231.6111584 877 241 C 877 250.3888416 854.3903824 258 826.5 258 C 798.6096176 258 776 250.3888416 776 241 Z"/></g><g transform="translate(-334,-94) scale(1,1)"><path fill="none" stroke="#000000" d="M 776 241 C 776 231.6111584 798.6096176 224 826.5 224 C 854.3903824 224 877 231.6111584 877 241 C 877 250.3888416 854.3903824 258 826.5 258 C 798.6096176 258 776 250.3888416 776 241 Z" stroke-miterlimit="10"/></g><g transform="translate(-334,-94) scale(1,1)"><g><path fill="none" stroke="none"/><text fill="#000000" stroke="none" font-family="Arial" font-size="13px" font-style="normal" font-weight="bold" text-decoration="none" x="800.5" y="248">取消选择</text></g></g><g transform="translate(-334,-94) scale(1,1)"><path fill="none" stroke="#000000" d="M 753 219 L 775 226" stroke-miterlimit="10" stroke-dasharray="3"/></g><g transform="translate(-334,-94) scale(1,1)"><path fill="none" stroke="#000000" d="M 764.0393839552811 226.9299978065831 L 775 226 L 766.5920663132737 218.90728182432068" stroke-miterlimit="10"/></g><g transform="translate(-334,-94) scale(1,1)"><g><path fill="none" stroke="none"/><text fill="#000000" stroke="none" font-family="Arial" font-size="13px" font-style="normal" font-weight="normal" text-decoration="none" x="767.23291015625" y="212.5">«extend»</text></g></g><g transform="translate(-334,-94) scale(1,1)"><path fill="#C0C0C0" stroke="none" d="M 511 392 C 511 382.6111584 533.6096176 375 561.5 375 C 589.3903824 375 612 382.6111584 612 392 C 612 401.3888416 589.3903824 409 561.5 409 C 533.6096176 409 511 401.3888416 511 392 Z" opacity="0.2"/></g><g transform="translate(-334,-94) scale(1,1)"><path fill="#ffffff" stroke="none" d="M 504 385 C 504 375.6111584 526.6096176 368 554.5 368 C 582.3903824 368 605 375.6111584 605 385 C 605 394.3888416 582.3903824 402 554.5 402 C 526.6096176 402 504 394.3888416 504 385 Z"/></g><g transform="translate(-334,-94) scale(1,1)"><path fill="none" stroke="#000000" d="M 504 385 C 504 375.6111584 526.6096176 368 554.5 368 C 582.3903824 368 605 375.6111584 605 385 C 605 394.3888416 582.3903824 402 554.5 402 C 526.6096176 402 504 394.3888416 504 385 Z" stroke-miterlimit="10"/></g><g transform="translate(-334,-94) scale(1,1)"><g><path fill="none" stroke="none"/><text fill="#000000" stroke="none" font-family="Arial" font-size="13px" font-style="normal" font-weight="bold" text-decoration="none" x="528.5" y="392">选择座位</text></g></g><g transform="translate(-334,-94) scale(1,1)"><path fill="#C0C0C0" stroke="none" d="M 495 480 C 495 470.6111584 555.2176944 463 629.5 463 C 703.7823056 463 764 470.6111584 764 480 C 764 489.3888416 703.7823056 497 629.5 497 C 555.2176944 497 495 489.3888416 495 480 Z" opacity="0.2"/></g><g transform="translate(-334,-94) scale(1,1)"><path fill="#ffffff" stroke="none" d="M 488 473 C 488 463.6111584 548.2176944 456 622.5 456 C 696.7823056 456 757 463.6111584 757 473 C 757 482.3888416 696.7823056 490 622.5 490 C 548.2176944 490 488 482.3888416 488 473 Z"/></g><g transform="translate(-334,-94) scale(1,1)"><path fill="none" stroke="#000000" d="M 488 473 C 488 463.6111584 548.2176944 456 622.5 456 C 696.7823056 456 757 463.6111584 757 473 C 757 482.3888416 696.7823056 490 622.5 490 C 548.2176944 490 488 482.3888416 488 473 Z" stroke-miterlimit="10"/></g><g transform="translate(-334,-94) scale(1,1)"><g><path fill="none" stroke="none"/><text fill="#000000" stroke="none" font-family="Arial" font-size="13px" font-style="normal" font-weight="bold" text-decoration="none" x="534.38818359375" y="480">选择观演人/配送方式/支付方式</text></g></g><g transform="translate(-334,-94) scale(1,1)"><path fill="#C0C0C0" stroke="none" d="M 743 416 C 743 406.6111584 791.129384 399 850.5 399 C 909.870616 399 958 406.6111584 958 416 C 958 425.3888416 909.870616 433 850.5 433 C 791.129384 433 743 425.3888416 743 416 Z" opacity="0.2"/></g><g transform="translate(-334,-94) scale(1,1)"><path fill="#ffffff" stroke="none" d="M 736 409 C 736 399.6111584 784.129384 392 843.5 392 C 902.870616 392 951 399.6111584 951 409 C 951 418.3888416 902.870616 426 843.5 426 C 784.129384 426 736 418.3888416 736 409 Z"/></g><g transform="translate(-334,-94) scale(1,1)"><path fill="none" stroke="#000000" d="M 736 409 C 736 399.6111584 784.129384 392 843.5 392 C 902.870616 392 951 399.6111584 951 409 C 951 418.3888416 902.870616 426 843.5 426 C 784.129384 426 736 418.3888416 736 409 Z" stroke-miterlimit="10"/></g><g transform="translate(-334,-94) scale(1,1)"><g><path fill="none" stroke="none"/><text fill="#000000" stroke="none" font-family="Arial" font-size="13px" font-style="normal" font-weight="bold" text-decoration="none" x="772" y="416">同意订票协议并提交订单</text></g></g><g transform="translate(-334,-94) scale(1,1)"><path fill="none" stroke="#000000" d="M 656 331 L 588 367" stroke-miterlimit="10" stroke-dasharray="3"/></g><g transform="translate(-334,-94) scale(1,1)"><path fill="none" stroke="#000000" d="M 595.0120675700066 358.5246883010911 L 588 367 L 598.9512309038581 365.96533015392174" stroke-miterlimit="10"/></g><g transform="translate(-334,-94) scale(1,1)"><g><path fill="none" stroke="none"/><text fill="#000000" stroke="none" font-family="Arial" font-size="13px" font-style="normal" font-weight="normal" text-decoration="none" x="564.470947265625" y="337.5">«include»</text></g></g><g transform="translate(-334,-94) scale(1,1)"><path fill="none" stroke="#000000" d="M 682 331 L 630 455" stroke-miterlimit="10" stroke-dasharray="3"/></g><g transform="translate(-334,-94) scale(1,1)"><path fill="none" stroke="#000000" d="M 630.0481838446999 444.0001055315467 L 630 455 L 637.8121710943107 447.2559711523512" stroke-miterlimit="10"/></g><g transform="translate(-334,-94) scale(1,1)"><g><path fill="none" stroke="none"/><text fill="#000000" stroke="none" font-family="Arial" font-size="13px" font-style="normal" font-weight="normal" text-decoration="none" x="655.470947265625" y="410.5">«include»</text></g></g><g transform="translate(-334,-94) scale(1,1)"><path fill="none" stroke="#000000" d="M 719 331 L 814 391" stroke-miterlimit="10" stroke-dasharray="3"/></g><g transform="translate(-334,-94) scale(1,1)"><path fill="none" stroke="#000000" d="M 803.1597182039311 389.1323034020972 L 814 391 L 807.6554241616027 382.0141023024505" stroke-miterlimit="10"/></g><g transform="translate(-334,-94) scale(1,1)"><g><path fill="none" stroke="none"/><text fill="#000000" stroke="none" font-family="Arial" font-size="13px" font-style="normal" font-weight="normal" text-decoration="none" x="753.470947265625" y="341.5">«include»</text></g></g><g transform="translate(-334,-94) scale(1,1)"><path fill="none" stroke="#000000" d="M 568 403 L 608 455" stroke-miterlimit="10" stroke-dasharray="3"/></g><g transform="translate(-334,-94) scale(1,1)"><path fill="none" stroke="#000000" d="M 598.4671430243098 449.5114083882077 L 608 455 L 605.14027253627 444.3782318405461" stroke-miterlimit="10"/></g><g transform="translate(-334,-94) scale(1,1)"><g><path fill="none" stroke="none"/><text fill="#000000" stroke="none" font-family="Arial" font-size="13px" font-style="normal" font-weight="normal" text-decoration="none" x="513.23291015625" y="427.5">«extend»</text></g></g><g transform="translate(-334,-94) scale(1,1)"><path fill="none" stroke="#000000" d="M 684 455 L 781 427" stroke-miterlimit="10" stroke-dasharray="3"/></g><g transform="translate(-334,-94) scale(1,1)"><path fill="none" stroke="#000000" d="M 772.4034308021455 433.8628709755102 L 781 427 L 770.0685250200661 425.7740902304493" stroke-miterlimit="10"/></g><g transform="translate(-334,-94) scale(1,1)"><g><path fill="none" stroke="none"/><text fill="#000000" stroke="none" font-family="Arial" font-size="13px" font-style="normal" font-weight="normal" text-decoration="none" x="736.23291015625" y="451.5">«extend»</text></g></g></g></svg>