<svg version="1.1" xmlns="http://www.w3.org/2000/svg" xmlns:xlink="http://www.w3.org/1999/xlink" width="612" height="340"><defs/><g><g transform="translate(-150,-6) scale(1,1)"><rect fill="#C0C0C0" stroke="none" x="263" y="23" width="496" height="320" opacity="0.2"/></g><g transform="translate(-150,-6) scale(1,1)"><rect fill="#ffffff" stroke="none" x="256" y="16" width="496" height="320"/></g><g transform="translate(-150,-6) scale(1,1)"><path fill="none" stroke="#000000" d="M 256 16 L 752 16 L 752 336 L 256 336 L 256 16 Z Z" stroke-miterlimit="10"/></g><g transform="translate(-150,-6) scale(1,1)"><g><path fill="none" stroke="none"/><text fill="#000000" stroke="none" font-family="Arial" font-size="18px" font-style="normal" font-weight="bold" text-decoration="none" x="450" y="40.5">票务管理系统</text></g></g><g transform="translate(-150,-6) scale(1,1)"><path fill="#C0C0C0" stroke="none" d="M 319 272 C 319 262.6111584 358.8466528 255 408 255 C 457.1533472 255 497 262.6111584 497 272 C 497 281.3888416 457.1533472 289 408 289 C 358.8466528 289 319 281.3888416 319 272 Z" opacity="0.2"/></g><g transform="translate(-150,-6) scale(1,1)"><path fill="#ffffff" stroke="none" d="M 312 265 C 312 255.6111584 351.8466528 248 401 248 C 450.1533472 248 490 255.6111584 490 265 C 490 274.3888416 450.1533472 282 401 282 C 351.8466528 282 312 274.3888416 312 265 Z"/></g><g transform="translate(-150,-6) scale(1,1)"><path fill="none" stroke="#000000" d="M 312 265 C 312 255.6111584 351.8466528 248 401 248 C 450.1533472 248 490 255.6111584 490 265 C 490 274.3888416 450.1533472 282 401 282 C 351.8466528 282 312 274.3888416 312 265 Z" stroke-miterlimit="10"/></g><g transform="translate(-150,-6) scale(1,1)"><g><path fill="none" stroke="none"/><text fill="#000000" stroke="none" font-family="Arial" font-size="13px" font-style="normal" font-weight="bold" text-decoration="none" x="362" y="272">查看售票情况</text></g></g><g transform="translate(-150,-6) scale(1,1)"><path fill="#C0C0C0" stroke="none" d="M 591 112 C 591 102.6111584 613.6096176 95 641.5 95 C 669.3903824 95 692 102.6111584 692 112 C 692 121.3888416 669.3903824 129 641.5 129 C 613.6096176 129 591 121.3888416 591 112 Z" opacity="0.2"/></g><g transform="translate(-150,-6) scale(1,1)"><path fill="#ffffff" stroke="none" d="M 584 105 C 584 95.6111584 606.6096176 88 634.5 88 C 662.3903824 88 685 95.6111584 685 105 C 685 114.3888416 662.3903824 122 634.5 122 C 606.6096176 122 584 114.3888416 584 105 Z"/></g><g transform="translate(-150,-6) scale(1,1)"><path fill="none" stroke="#000000" d="M 584 105 C 584 95.6111584 606.6096176 88 634.5 88 C 662.3903824 88 685 95.6111584 685 105 C 685 114.3888416 662.3903824 122 634.5 122 C 606.6096176 122 584 114.3888416 584 105 Z" stroke-miterlimit="10"/></g><g transform="translate(-150,-6) scale(1,1)"><g><path fill="none" stroke="none"/><text fill="#000000" stroke="none" font-family="Arial" font-size="13px" font-style="normal" font-weight="bold" text-decoration="none" x="608.5" y="112">上架演出</text></g></g><g transform="translate(-150,-6) scale(1,1)"><path fill="#C0C0C0" stroke="none" d="M 567 224 C 567 214.6111584 594.5344848 207 628.5 207 C 662.4655152 207 690 214.6111584 690 224 C 690 233.3888416 662.4655152 241 628.5 241 C 594.5344848 241 567 233.3888416 567 224 Z" opacity="0.2"/></g><g transform="translate(-150,-6) scale(1,1)"><path fill="#ffffff" stroke="none" d="M 560 217 C 560 207.6111584 587.5344848 200 621.5 200 C 655.4655152 200 683 207.6111584 683 217 C 683 226.3888416 655.4655152 234 621.5 234 C 587.5344848 234 560 226.3888416 560 217 Z"/></g><g transform="translate(-150,-6) scale(1,1)"><path fill="none" stroke="#000000" d="M 560 217 C 560 207.6111584 587.5344848 200 621.5 200 C 655.4655152 200 683 207.6111584 683 217 C 683 226.3888416 655.4655152 234 621.5 234 C 587.5344848 234 560 226.3888416 560 217 Z" stroke-miterlimit="10"/></g><g transform="translate(-150,-6) scale(1,1)"><g><path fill="none" stroke="none"/><text fill="#000000" stroke="none" font-family="Arial" font-size="13px" font-style="normal" font-weight="bold" text-decoration="none" x="582.5" y="224">修改演出信息</text></g></g><g transform="translate(-150,-6) scale(1,1)"><path fill="#ffffff" stroke="none" d="M 184.30254545454545 149.93 C 184.30254545454545 142.788957536 189.98738885585453 137 197 137 C 204.01261114414547 137 209.69745454545455 142.788957536 209.69745454545455 149.93 C 209.69745454545455 157.07104246400002 204.01261114414547 162.86 197 162.86 C 189.98738885585453 162.86 184.30254545454545 157.07104246400002 184.30254545454545 149.93 Z"/></g><g transform="translate(-150,-6) scale(1,1)"><path fill="none" stroke="#000000" d="M 184.30254545454545 149.93 C 184.30254545454545 142.788957536 189.98738885585453 137 197 137 C 204.01261114414547 137 209.69745454545455 142.788957536 209.69745454545455 149.93 C 209.69745454545455 157.07104246400002 204.01261114414547 162.86 197 162.86 C 189.98738885585453 162.86 184.30254545454545 157.07104246400002 184.30254545454545 149.93 Z" stroke-miterlimit="10"/></g><g transform="translate(-150,-6) scale(1,1)"><path fill="none" stroke="#000000" d="M 197 162.86 L 197 188.14" stroke-miterlimit="10"/></g><g transform="translate(-150,-6) scale(1,1)"><path fill="none" stroke="#000000" d="M 183.55563636363635 172.34 L 210.44436363636365 172.34" stroke-miterlimit="10"/></g><g transform="translate(-150,-6) scale(1,1)"><path fill="none" stroke="#000000" d="M 197 188.14 L 178.3272727272727 214" stroke-miterlimit="10"/></g><g transform="translate(-150,-6) scale(1,1)"><path fill="none" stroke="#000000" d="M 197 188.14 L 215.6727272727273 214" stroke-miterlimit="10"/></g><g transform="translate(-150,-6) scale(1,1)"><g><path fill="none" stroke="none"/><text fill="#000000" stroke="none" font-family="Arial" font-size="13px" font-style="normal" font-weight="bold" text-decoration="none" x="177.5" y="234.5">管理员</text></g></g><g transform="translate(-150,-6) scale(1,1)"><path fill="#C0C0C0" stroke="none" d="M 335 152 C 335 142.6111584 362.5344848 135 396.5 135 C 430.4655152 135 458 142.6111584 458 152 C 458 161.3888416 430.4655152 169 396.5 169 C 362.5344848 169 335 161.3888416 335 152 Z" opacity="0.2"/></g><g transform="translate(-150,-6) scale(1,1)"><path fill="#ffffff" stroke="none" d="M 328 145 C 328 135.6111584 355.5344848 128 389.5 128 C 423.4655152 128 451 135.6111584 451 145 C 451 154.3888416 423.4655152 162 389.5 162 C 355.5344848 162 328 154.3888416 328 145 Z"/></g><g transform="translate(-150,-6) scale(1,1)"><path fill="none" stroke="#000000" d="M 328 145 C 328 135.6111584 355.5344848 128 389.5 128 C 423.4655152 128 451 135.6111584 451 145 C 451 154.3888416 423.4655152 162 389.5 162 C 355.5344848 162 328 154.3888416 328 145 Z" stroke-miterlimit="10"/></g><g transform="translate(-150,-6) scale(1,1)"><g><path fill="none" stroke="none"/><text fill="#000000" stroke="none" font-family="Arial" font-size="13px" font-style="normal" font-weight="bold" text-decoration="none" x="350.5" y="152">管理票务信息</text></g></g><g transform="translate(-150,-6) scale(1,1)"><path fill="none" stroke="#000000" d="M 452 135 L 583 113" stroke-miterlimit="10" stroke-dasharray="3"/></g><g transform="translate(-150,-6) scale(1,1)"><path fill="none" stroke="#000000" d="M 573.6748535221127 118.83452167413462 L 583 113 L 572.2804958491676 110.53175553068854" stroke-miterlimit="10"/></g><g transform="translate(-150,-6) scale(1,1)"><g><path fill="none" stroke="none"/><text fill="#000000" stroke="none" font-family="Arial" font-size="13px" font-style="normal" font-weight="normal" text-decoration="none" x="471.470947265625" y="111.5">«include»</text></g></g><g transform="translate(-150,-6) scale(1,1)"><path fill="none" stroke="#000000" d="M 447 163 L 563 199" stroke-miterlimit="10" stroke-dasharray="3"/></g><g transform="translate(-150,-6) scale(1,1)"><path fill="none" stroke="#000000" d="M 552.0462959515352 200.00815059323716 L 563 199 L 554.5416914672847 191.9674317091552" stroke-miterlimit="10"/></g><g transform="translate(-150,-6) scale(1,1)"><g><path fill="none" stroke="none"/><text fill="#000000" stroke="none" font-family="Arial" font-size="13px" font-style="normal" font-weight="normal" text-decoration="none" x="484.470947265625" y="168.5">«include»</text></g></g><g transform="translate(-150,-6) scale(1,1)"><path fill="none" stroke="#000000" d="M 235 179 L 327 159" stroke-miterlimit="10"/></g><g transform="translate(-150,-6) scale(1,1)"><path fill="none" stroke="#000000" d="M 317.96350069461283 165.2722946601493 L 327 159 L 316.1750479751815 157.04541215076497" stroke-miterlimit="10"/></g><g transform="translate(-150,-6) scale(1,1)"><path fill="none" stroke="#000000" d="M 235 202 L 353 247" stroke-miterlimit="10"/></g><g transform="translate(-150,-6) scale(1,1)"><path fill="none" stroke="#000000" d="M 342.00442571850516 247.31200355787882 L 353 247 L 345.0043350309841 239.44557469404504" stroke-miterlimit="10"/></g></g></svg>