<svg version="1.1" xmlns="http://www.w3.org/2000/svg" xmlns:xlink="http://www.w3.org/1999/xlink" width="862.17724609375" height="372"><defs/><g><g transform="translate(-110,-174) scale(1,1)"><rect fill="#C0C0C0" stroke="none" x="247" y="191" width="647" height="352" opacity="0.2"/></g><g transform="translate(-110,-174) scale(1,1)"><rect fill="#ffffff" stroke="none" x="240" y="184" width="647" height="352"/></g><g transform="translate(-110,-174) scale(1,1)"><path fill="none" stroke="#000000" d="M 240 184 L 887 184 L 887 536 L 240 536 L 240 184 Z Z" stroke-miterlimit="10"/></g><g transform="translate(-110,-174) scale(1,1)"><g><path fill="none" stroke="none"/><text fill="#000000" stroke="none" font-family="Arial" font-size="13px" font-style="normal" font-weight="bold" text-decoration="none" x="524.5" y="203.5">现场分享系统</text></g></g><g transform="translate(-110,-174) scale(1,1)"><path fill="#ffffff" stroke="none" d="M 136.40935031960228 345.68 C 136.40935031960228 340.886167936 140.29519264454774 337 145.088623046875 337 C 149.88205344920226 337 153.76789577414772 340.886167936 153.76789577414772 345.68 C 153.76789577414772 350.473832064 149.88205344920226 354.36 145.088623046875 354.36 C 140.29519264454774 354.36 136.40935031960228 350.473832064 136.40935031960228 345.68 Z"/></g><g transform="translate(-110,-174) scale(1,1)"><path fill="none" stroke="#000000" d="M 136.40935031960228 345.68 C 136.40935031960228 340.886167936 140.29519264454774 337 145.088623046875 337 C 149.88205344920226 337 153.76789577414772 340.886167936 153.76789577414772 345.68 C 153.76789577414772 350.473832064 149.88205344920226 354.36 145.088623046875 354.36 C 140.29519264454774 354.36 136.40935031960228 350.473832064 136.40935031960228 345.68 Z" stroke-miterlimit="10"/></g><g transform="translate(-110,-174) scale(1,1)"><path fill="none" stroke="#000000" d="M 145.088623046875 354.36 L 145.088623046875 371.64" stroke-miterlimit="10"/></g><g transform="translate(-110,-174) scale(1,1)"><path fill="none" stroke="#000000" d="M 135.89880486505683 360.84 L 154.27844122869317 360.84" stroke-miterlimit="10"/></g><g transform="translate(-110,-174) scale(1,1)"><path fill="none" stroke="#000000" d="M 145.088623046875 371.64 L 132.32498668323865 389" stroke-miterlimit="10"/></g><g transform="translate(-110,-174) scale(1,1)"><path fill="none" stroke="#000000" d="M 145.088623046875 371.64 L 157.85225941051135 389" stroke-miterlimit="10"/></g><g transform="translate(-110,-174) scale(1,1)"><g><path fill="none" stroke="none"/><text fill="#000000" stroke="none" font-family="Arial" font-size="13px" font-style="normal" font-weight="bold" text-decoration="none" x="132.088623046875" y="409.5">用户</text></g></g><g transform="translate(-110,-174) scale(1,1)"><path fill="#C0C0C0" stroke="none" d="M 279 288 C 279 278.6111584 306.5344848 271 340.5 271 C 374.4655152 271 402 278.6111584 402 288 C 402 297.3888416 374.4655152 305 340.5 305 C 306.5344848 305 279 297.3888416 279 288 Z" opacity="0.2"/></g><g transform="translate(-110,-174) scale(1,1)"><path fill="#ffffff" stroke="none" d="M 272 281 C 272 271.6111584 299.5344848 264 333.5 264 C 367.4655152 264 395 271.6111584 395 281 C 395 290.3888416 367.4655152 298 333.5 298 C 299.5344848 298 272 290.3888416 272 281 Z"/></g><g transform="translate(-110,-174) scale(1,1)"><path fill="none" stroke="#000000" d="M 272 281 C 272 271.6111584 299.5344848 264 333.5 264 C 367.4655152 264 395 271.6111584 395 281 C 395 290.3888416 367.4655152 298 333.5 298 C 299.5344848 298 272 290.3888416 272 281 Z" stroke-miterlimit="10"/></g><g transform="translate(-110,-174) scale(1,1)"><g><path fill="none" stroke="none"/><text fill="#000000" stroke="none" font-family="Arial" font-size="13px" font-style="normal" font-weight="bold" text-decoration="none" x="294.5" y="288">发布现场分享</text></g></g><g transform="translate(-110,-174) scale(1,1)"><path fill="#C0C0C0" stroke="none" d="M 279 480 C 279 470.6111584 322.8760896 463 377 463 C 431.1239104 463 475 470.6111584 475 480 C 475 489.3888416 431.1239104 497 377 497 C 322.8760896 497 279 489.3888416 279 480 Z" opacity="0.2"/></g><g transform="translate(-110,-174) scale(1,1)"><path fill="#ffffff" stroke="none" d="M 272 473 C 272 463.6111584 315.8760896 456 370 456 C 424.1239104 456 468 463.6111584 468 473 C 468 482.3888416 424.1239104 490 370 490 C 315.8760896 490 272 482.3888416 272 473 Z"/></g><g transform="translate(-110,-174) scale(1,1)"><path fill="none" stroke="#000000" d="M 272 473 C 272 463.6111584 315.8760896 456 370 456 C 424.1239104 456 468 463.6111584 468 473 C 468 482.3888416 424.1239104 490 370 490 C 315.8760896 490 272 482.3888416 272 473 Z" stroke-miterlimit="10"/></g><g transform="translate(-110,-174) scale(1,1)"><g><path fill="none" stroke="none"/><text fill="#000000" stroke="none" font-family="Arial" font-size="13px" font-style="normal" font-weight="bold" text-decoration="none" x="318" y="480">浏览已发布的分享</text></g></g><g transform="translate(-110,-174) scale(1,1)"><path fill="#C0C0C0" stroke="none" d="M 519 480 C 519 470.6111584 546.5344848 463 580.5 463 C 614.4655152 463 642 470.6111584 642 480 C 642 489.3888416 614.4655152 497 580.5 497 C 546.5344848 497 519 489.3888416 519 480 Z" opacity="0.2"/></g><g transform="translate(-110,-174) scale(1,1)"><path fill="#ffffff" stroke="none" d="M 512 473 C 512 463.6111584 539.5344848 456 573.5 456 C 607.4655152 456 635 463.6111584 635 473 C 635 482.3888416 607.4655152 490 573.5 490 C 539.5344848 490 512 482.3888416 512 473 Z"/></g><g transform="translate(-110,-174) scale(1,1)"><path fill="none" stroke="#000000" d="M 512 473 C 512 463.6111584 539.5344848 456 573.5 456 C 607.4655152 456 635 463.6111584 635 473 C 635 482.3888416 607.4655152 490 573.5 490 C 539.5344848 490 512 482.3888416 512 473 Z" stroke-miterlimit="10"/></g><g transform="translate(-110,-174) scale(1,1)"><g><path fill="none" stroke="none"/><text fill="#000000" stroke="none" font-family="Arial" font-size="13px" font-style="normal" font-weight="bold" text-decoration="none" x="534.5" y="480">查看现场分享</text></g></g><g transform="translate(-110,-174) scale(1,1)"><path fill="#C0C0C0" stroke="none" d="M 695 480 C 695 470.6111584 722.5344848 463 756.5 463 C 790.4655152 463 818 470.6111584 818 480 C 818 489.3888416 790.4655152 497 756.5 497 C 722.5344848 497 695 489.3888416 695 480 Z" opacity="0.2"/></g><g transform="translate(-110,-174) scale(1,1)"><path fill="#ffffff" stroke="none" d="M 688 473 C 688 463.6111584 715.5344848 456 749.5 456 C 783.4655152 456 811 463.6111584 811 473 C 811 482.3888416 783.4655152 490 749.5 490 C 715.5344848 490 688 482.3888416 688 473 Z"/></g><g transform="translate(-110,-174) scale(1,1)"><path fill="none" stroke="#000000" d="M 688 473 C 688 463.6111584 715.5344848 456 749.5 456 C 783.4655152 456 811 463.6111584 811 473 C 811 482.3888416 783.4655152 490 749.5 490 C 715.5344848 490 688 482.3888416 688 473 Z" stroke-miterlimit="10"/></g><g transform="translate(-110,-174) scale(1,1)"><g><path fill="none" stroke="none"/><text fill="#000000" stroke="none" font-family="Arial" font-size="13px" font-style="normal" font-weight="bold" text-decoration="none" x="710.5" y="480">评论现场分享</text></g></g><g transform="translate(-110,-174) scale(1,1)"><path fill="#C0C0C0" stroke="none" d="M 527 248 C 527 238.6111584 550.505048 231 579.5 231 C 608.494952 231 632 238.6111584 632 248 C 632 257.3888416 608.494952 265 579.5 265 C 550.505048 265 527 257.3888416 527 248 Z" opacity="0.2"/></g><g transform="translate(-110,-174) scale(1,1)"><path fill="#ffffff" stroke="none" d="M 520 241 C 520 231.6111584 543.505048 224 572.5 224 C 601.494952 224 625 231.6111584 625 241 C 625 250.3888416 601.494952 258 572.5 258 C 543.505048 258 520 250.3888416 520 241 Z"/></g><g transform="translate(-110,-174) scale(1,1)"><path fill="none" stroke="#000000" d="M 520 241 C 520 231.6111584 543.505048 224 572.5 224 C 601.494952 224 625 231.6111584 625 241 C 625 250.3888416 601.494952 258 572.5 258 C 543.505048 258 520 250.3888416 520 241 Z" stroke-miterlimit="10"/></g><g transform="translate(-110,-174) scale(1,1)"><g><path fill="none" stroke="none"/><text fill="#000000" stroke="none" font-family="Arial" font-size="13px" font-style="normal" font-weight="bold" text-decoration="none" x="540" y="248">对演出打分</text></g></g><g transform="translate(-110,-174) scale(1,1)"><path fill="#C0C0C0" stroke="none" d="M 487 384 C 487 374.6111584 514.5344848 367 548.5 367 C 582.4655152 367 610 374.6111584 610 384 C 610 393.3888416 582.4655152 401 548.5 401 C 514.5344848 401 487 393.3888416 487 384 Z" opacity="0.2"/></g><g transform="translate(-110,-174) scale(1,1)"><path fill="#ffffff" stroke="none" d="M 480 377 C 480 367.6111584 507.5344848 360 541.5 360 C 575.4655152 360 603 367.6111584 603 377 C 603 386.3888416 575.4655152 394 541.5 394 C 507.5344848 394 480 386.3888416 480 377 Z"/></g><g transform="translate(-110,-174) scale(1,1)"><path fill="none" stroke="#000000" d="M 480 377 C 480 367.6111584 507.5344848 360 541.5 360 C 575.4655152 360 603 367.6111584 603 377 C 603 386.3888416 575.4655152 394 541.5 394 C 507.5344848 394 480 386.3888416 480 377 Z" stroke-miterlimit="10"/></g><g transform="translate(-110,-174) scale(1,1)"><g><path fill="none" stroke="none"/><text fill="#000000" stroke="none" font-family="Arial" font-size="13px" font-style="normal" font-weight="bold" text-decoration="none" x="502.5" y="384">关联演出信息</text></g></g><g transform="translate(-110,-174) scale(1,1)"><path fill="#C0C0C0" stroke="none" d="M 599 320 C 599 310.6111584 621.6096176 303 649.5 303 C 677.3903824 303 700 310.6111584 700 320 C 700 329.3888416 677.3903824 337 649.5 337 C 621.6096176 337 599 329.3888416 599 320 Z" opacity="0.2"/></g><g transform="translate(-110,-174) scale(1,1)"><path fill="#ffffff" stroke="none" d="M 592 313 C 592 303.6111584 614.6096176 296 642.5 296 C 670.3903824 296 693 303.6111584 693 313 C 693 322.3888416 670.3903824 330 642.5 330 C 614.6096176 330 592 322.3888416 592 313 Z"/></g><g transform="translate(-110,-174) scale(1,1)"><path fill="none" stroke="#000000" d="M 592 313 C 592 303.6111584 614.6096176 296 642.5 296 C 670.3903824 296 693 303.6111584 693 313 C 693 322.3888416 670.3903824 330 642.5 330 C 614.6096176 330 592 322.3888416 592 313 Z" stroke-miterlimit="10"/></g><g transform="translate(-110,-174) scale(1,1)"><g><path fill="none" stroke="none"/><text fill="#000000" stroke="none" font-family="Arial" font-size="13px" font-style="normal" font-weight="bold" text-decoration="none" x="616.5" y="320">上传内容</text></g></g><g transform="translate(-110,-174) scale(1,1)"><path fill="none" stroke="#000000" d="M 396 270 L 519 250" stroke-miterlimit="10" stroke-dasharray="3"/></g><g transform="translate(-110,-174) scale(1,1)"><path fill="none" stroke="#000000" d="M 509.6446669176984 255.78599541299442 L 519 250 L 508.293463944803 247.47609712968827" stroke-miterlimit="10"/></g><g transform="translate(-110,-174) scale(1,1)"><g><path fill="none" stroke="none"/><text fill="#000000" stroke="none" font-family="Arial" font-size="13px" font-style="normal" font-weight="normal" text-decoration="none" x="424.470947265625" y="236.5">«include»</text></g></g><g transform="translate(-110,-174) scale(1,1)"><path fill="none" stroke="#000000" d="M 372 299 L 502 359" stroke-miterlimit="10" stroke-dasharray="3"/></g><g transform="translate(-110,-174) scale(1,1)"><path fill="none" stroke="#000000" d="M 491.00867115256443 358.5633191468237 L 502 359 L 494.53673683022225 350.91917684523173" stroke-miterlimit="10"/></g><g transform="translate(-110,-174) scale(1,1)"><g><path fill="none" stroke="none"/><text fill="#000000" stroke="none" font-family="Arial" font-size="13px" font-style="normal" font-weight="normal" text-decoration="none" x="421.470947265625" y="307.5">«include»</text></g></g><g transform="translate(-110,-174) scale(1,1)"><path fill="none" stroke="#000000" d="M 396 288 L 591 308" stroke-miterlimit="10" stroke-dasharray="3"/></g><g transform="translate(-110,-174) scale(1,1)"><path fill="none" stroke="#000000" d="M 580.4608673640539 311.15066394303415 L 591 308 L 581.3198520059386 302.7755636846574" stroke-miterlimit="10"/></g><g transform="translate(-110,-174) scale(1,1)"><g><path fill="none" stroke="none"/><text fill="#000000" stroke="none" font-family="Arial" font-size="13px" font-style="normal" font-weight="normal" text-decoration="none" x="468.470947265625" y="274.5">«include»</text></g></g><g transform="translate(-110,-174) scale(1,1)"><path fill="none" stroke="#000000" d="M 636 473 L 687 473" stroke-miterlimit="10" stroke-dasharray="3"/></g><g transform="translate(-110,-174) scale(1,1)"><path fill="none" stroke="#000000" d="M 676.8373251423759 477.209517756016 L 687 473 L 676.8373251423758 468.790482243984" stroke-miterlimit="10"/></g><g transform="translate(-110,-174) scale(1,1)"><g><path fill="none" stroke="none"/><text fill="#000000" stroke="none" font-family="Arial" font-size="13px" font-style="normal" font-weight="normal" text-decoration="none" x="634.23291015625" y="449.5">«extend»</text></g></g><g transform="translate(-110,-174) scale(1,1)"><path fill="none" stroke="#000000" d="M 469 473 L 511 473" stroke-miterlimit="10" stroke-dasharray="3"/></g><g transform="translate(-110,-174) scale(1,1)"><path fill="none" stroke="#000000" d="M 500.83732514237585 477.209517756016 L 511 473 L 500.83732514237585 468.790482243984" stroke-miterlimit="10"/></g><g transform="translate(-110,-174) scale(1,1)"><g><path fill="none" stroke="none"/><text fill="#000000" stroke="none" font-family="Arial" font-size="13px" font-style="normal" font-weight="normal" text-decoration="none" x="463.23291015625" y="449.5">«extend»</text></g></g><g transform="translate(-110,-174) scale(1,1)"><path fill="#ffffff" stroke="none" d="M 928.4093503196023 353.68 C 928.4093503196023 348.886167936 932.2951926445477 345 937.088623046875 345 C 941.8820534492023 345 945.7678957741477 348.886167936 945.7678957741477 353.68 C 945.7678957741477 358.473832064 941.8820534492023 362.36 937.088623046875 362.36 C 932.2951926445477 362.36 928.4093503196023 358.473832064 928.4093503196023 353.68 Z"/></g><g transform="translate(-110,-174) scale(1,1)"><path fill="none" stroke="#000000" d="M 928.4093503196023 353.68 C 928.4093503196023 348.886167936 932.2951926445477 345 937.088623046875 345 C 941.8820534492023 345 945.7678957741477 348.886167936 945.7678957741477 353.68 C 945.7678957741477 358.473832064 941.8820534492023 362.36 937.088623046875 362.36 C 932.2951926445477 362.36 928.4093503196023 358.473832064 928.4093503196023 353.68 Z" stroke-miterlimit="10"/></g><g transform="translate(-110,-174) scale(1,1)"><path fill="none" stroke="#000000" d="M 937.088623046875 362.36 L 937.088623046875 379.64" stroke-miterlimit="10"/></g><g transform="translate(-110,-174) scale(1,1)"><path fill="none" stroke="#000000" d="M 927.8988048650568 368.84 L 946.2784412286932 368.84" stroke-miterlimit="10"/></g><g transform="translate(-110,-174) scale(1,1)"><path fill="none" stroke="#000000" d="M 937.088623046875 379.64 L 924.3249866832386 397" stroke-miterlimit="10"/></g><g transform="translate(-110,-174) scale(1,1)"><path fill="none" stroke="#000000" d="M 937.088623046875 379.64 L 949.8522594105114 397" stroke-miterlimit="10"/></g><g transform="translate(-110,-174) scale(1,1)"><g><path fill="none" stroke="none"/><text fill="#000000" stroke="none" font-family="Arial" font-size="13px" font-style="normal" font-weight="bold" text-decoration="none" x="917.588623046875" y="417.5">管理员</text></g></g><g transform="translate(-110,-174) scale(1,1)"><path fill="#C0C0C0" stroke="none" d="M 719 400 C 719 390.6111584 746.5344848 383 780.5 383 C 814.4655152 383 842 390.6111584 842 400 C 842 409.3888416 814.4655152 417 780.5 417 C 746.5344848 417 719 409.3888416 719 400 Z" opacity="0.2"/></g><g transform="translate(-110,-174) scale(1,1)"><path fill="#ffffff" stroke="none" d="M 712 393 C 712 383.6111584 739.5344848 376 773.5 376 C 807.4655152 376 835 383.6111584 835 393 C 835 402.3888416 807.4655152 410 773.5 410 C 739.5344848 410 712 402.3888416 712 393 Z"/></g><g transform="translate(-110,-174) scale(1,1)"><path fill="none" stroke="#000000" d="M 712 393 C 712 383.6111584 739.5344848 376 773.5 376 C 807.4655152 376 835 383.6111584 835 393 C 835 402.3888416 807.4655152 410 773.5 410 C 739.5344848 410 712 402.3888416 712 393 Z" stroke-miterlimit="10"/></g><g transform="translate(-110,-174) scale(1,1)"><g><path fill="none" stroke="none"/><text fill="#000000" stroke="none" font-family="Arial" font-size="13px" font-style="normal" font-weight="bold" text-decoration="none" x="734.5" y="400">审核现场分享</text></g></g><g transform="translate(-110,-174) scale(1,1)"><path fill="none" stroke="#000000" d="M 171 362 L 297 299" stroke-miterlimit="10"/></g><g transform="translate(-110,-174) scale(1,1)"><path fill="none" stroke="#000000" d="M 289.7927808450386 307.3099935049528 L 297 299 L 286.02767370306094 299.77977922099745" stroke-miterlimit="10"/></g><g transform="translate(-110,-174) scale(1,1)"><path fill="none" stroke="#000000" d="M 171 386 L 329 455" stroke-miterlimit="10"/></g><g transform="translate(-110,-174) scale(1,1)"><path fill="none" stroke="#000000" d="M 318.00199530182 454.79049425112714 L 329 455 L 321.371379234121 447.07509336266986" stroke-miterlimit="10"/></g><g transform="translate(-110,-174) scale(1,1)"><path fill="none" stroke="#000000" d="M 912 392 L 835 392" stroke-miterlimit="10"/></g><g transform="translate(-110,-174) scale(1,1)"><path fill="none" stroke="#000000" d="M 845.1626748576241 387.790482243984 L 835 392 L 845.1626748576241 396.209517756016" stroke-miterlimit="10"/></g></g></svg>