<svg version="1.1" xmlns="http://www.w3.org/2000/svg" xmlns:xlink="http://www.w3.org/1999/xlink" width="744" height="347"><defs/><g><g transform="translate(-182,-214) scale(1,1)"><rect fill="#C0C0C0" stroke="none" x="311" y="231" width="479" height="327" opacity="0.2"/></g><g transform="translate(-182,-214) scale(1,1)"><rect fill="#ffffff" stroke="none" x="304" y="224" width="479" height="327"/></g><g transform="translate(-182,-214) scale(1,1)"><path fill="none" stroke="#000000" d="M 304 224 L 783 224 L 783 551 L 304 551 L 304 224 Z Z" stroke-miterlimit="10"/></g><g transform="translate(-182,-214) scale(1,1)"><g><path fill="none" stroke="none"/><text fill="#000000" stroke="none" font-family="Arial" font-size="13px" font-style="normal" font-weight="bold" text-decoration="none" x="498" y="243.5">注册与登录系统</text></g></g><g transform="translate(-182,-214) scale(1,1)"><path fill="#ffffff" stroke="none" d="M 216.46327272727274 333.76 C 216.46327272727274 326.712845952 222.0761560855273 321 229 321 C 235.9238439144727 321 241.53672727272726 326.712845952 241.53672727272726 333.76 C 241.53672727272726 340.807154048 235.9238439144727 346.52 229 346.52 C 222.0761560855273 346.52 216.46327272727274 340.807154048 216.46327272727274 333.76 Z"/></g><g transform="translate(-182,-214) scale(1,1)"><path fill="none" stroke="#000000" d="M 216.46327272727274 333.76 C 216.46327272727274 326.712845952 222.0761560855273 321 229 321 C 235.9238439144727 321 241.53672727272726 326.712845952 241.53672727272726 333.76 C 241.53672727272726 340.807154048 235.9238439144727 346.52 229 346.52 C 222.0761560855273 346.52 216.46327272727274 340.807154048 216.46327272727274 333.76 Z" stroke-miterlimit="10"/></g><g transform="translate(-182,-214) scale(1,1)"><path fill="none" stroke="#000000" d="M 229 346.52 L 229 371.48" stroke-miterlimit="10"/></g><g transform="translate(-182,-214) scale(1,1)"><path fill="none" stroke="#000000" d="M 215.72581818181817 355.88 L 242.27418181818183 355.88" stroke-miterlimit="10"/></g><g transform="translate(-182,-214) scale(1,1)"><path fill="none" stroke="#000000" d="M 229 371.48 L 210.56363636363636 397" stroke-miterlimit="10"/></g><g transform="translate(-182,-214) scale(1,1)"><path fill="none" stroke="#000000" d="M 229 371.48 L 247.43636363636364 397" stroke-miterlimit="10"/></g><g transform="translate(-182,-214) scale(1,1)"><g><path fill="none" stroke="none"/><text fill="#000000" stroke="none" font-family="Arial" font-size="13px" font-style="normal" font-weight="bold" text-decoration="none" x="216" y="417.5">游客</text></g></g><g transform="translate(-182,-214) scale(1,1)"><path fill="#C0C0C0" stroke="none" d="M 383 296 C 383 286.6111584 405.6096176 279 433.5 279 C 461.3903824 279 484 286.6111584 484 296 C 484 305.3888416 461.3903824 313 433.5 313 C 405.6096176 313 383 305.3888416 383 296 Z" opacity="0.2"/></g><g transform="translate(-182,-214) scale(1,1)"><path fill="#ffffff" stroke="none" d="M 376 289 C 376 279.6111584 398.6096176 272 426.5 272 C 454.3903824 272 477 279.6111584 477 289 C 477 298.3888416 454.3903824 306 426.5 306 C 398.6096176 306 376 298.3888416 376 289 Z"/></g><g transform="translate(-182,-214) scale(1,1)"><path fill="none" stroke="#000000" d="M 376 289 C 376 279.6111584 398.6096176 272 426.5 272 C 454.3903824 272 477 279.6111584 477 289 C 477 298.3888416 454.3903824 306 426.5 306 C 398.6096176 306 376 298.3888416 376 289 Z" stroke-miterlimit="10"/></g><g transform="translate(-182,-214) scale(1,1)"><g><path fill="none" stroke="none"/><text fill="#000000" stroke="none" font-family="Arial" font-size="13px" font-style="normal" font-weight="bold" text-decoration="none" x="413.5" y="296">注册</text></g></g><g transform="translate(-182,-214) scale(1,1)"><path fill="#C0C0C0" stroke="none" d="M 623 355 C 623 343.954304 654.5639216 335 693.5 335 C 732.4360784 335 764 343.954304 764 355 C 764 366.045696 732.4360784 375 693.5 375 C 654.5639216 375 623 366.045696 623 355 Z" opacity="0.2"/></g><g transform="translate(-182,-214) scale(1,1)"><path fill="#ffffff" stroke="none" d="M 616 348 C 616 336.954304 647.5639216 328 686.5 328 C 725.4360784 328 757 336.954304 757 348 C 757 359.045696 725.4360784 368 686.5 368 C 647.5639216 368 616 359.045696 616 348 Z"/></g><g transform="translate(-182,-214) scale(1,1)"><path fill="none" stroke="#000000" d="M 616 348 C 616 336.954304 647.5639216 328 686.5 328 C 725.4360784 328 757 336.954304 757 348 C 757 359.045696 725.4360784 368 686.5 368 C 647.5639216 368 616 359.045696 616 348 Z" stroke-miterlimit="10"/></g><g transform="translate(-182,-214) scale(1,1)"><g><path fill="none" stroke="none"/><text fill="#000000" stroke="none" font-family="Arial" font-size="13px" font-style="normal" font-weight="bold" text-decoration="none" x="641" y="355">短信验证码验证</text></g></g><g transform="translate(-182,-214) scale(1,1)"><path fill="#C0C0C0" stroke="none" d="M 383 464 C 383 454.6111584 405.6096176 447 433.5 447 C 461.3903824 447 484 454.6111584 484 464 C 484 473.3888416 461.3903824 481 433.5 481 C 405.6096176 481 383 473.3888416 383 464 Z" opacity="0.2"/></g><g transform="translate(-182,-214) scale(1,1)"><path fill="#ffffff" stroke="none" d="M 376 457 C 376 447.6111584 398.6096176 440 426.5 440 C 454.3903824 440 477 447.6111584 477 457 C 477 466.3888416 454.3903824 474 426.5 474 C 398.6096176 474 376 466.3888416 376 457 Z"/></g><g transform="translate(-182,-214) scale(1,1)"><path fill="none" stroke="#000000" d="M 376 457 C 376 447.6111584 398.6096176 440 426.5 440 C 454.3903824 440 477 447.6111584 477 457 C 477 466.3888416 454.3903824 474 426.5 474 C 398.6096176 474 376 466.3888416 376 457 Z" stroke-miterlimit="10"/></g><g transform="translate(-182,-214) scale(1,1)"><g><path fill="none" stroke="none"/><text fill="#000000" stroke="none" font-family="Arial" font-size="13px" font-style="normal" font-weight="bold" text-decoration="none" x="413.5" y="464">登录</text></g></g><g transform="translate(-182,-214) scale(1,1)"><path fill="#C0C0C0" stroke="none" d="M 615 472 C 615 462.6111584 637.6096176 455 665.5 455 C 693.3903824 455 716 462.6111584 716 472 C 716 481.3888416 693.3903824 489 665.5 489 C 637.6096176 489 615 481.3888416 615 472 Z" opacity="0.2"/></g><g transform="translate(-182,-214) scale(1,1)"><path fill="#ffffff" stroke="none" d="M 608 465 C 608 455.6111584 630.6096176 448 658.5 448 C 686.3903824 448 709 455.6111584 709 465 C 709 474.3888416 686.3903824 482 658.5 482 C 630.6096176 482 608 474.3888416 608 465 Z"/></g><g transform="translate(-182,-214) scale(1,1)"><path fill="none" stroke="#000000" d="M 608 465 C 608 455.6111584 630.6096176 448 658.5 448 C 686.3903824 448 709 455.6111584 709 465 C 709 474.3888416 686.3903824 482 658.5 482 C 630.6096176 482 608 474.3888416 608 465 Z" stroke-miterlimit="10"/></g><g transform="translate(-182,-214) scale(1,1)"><g><path fill="none" stroke="none"/><text fill="#000000" stroke="none" font-family="Arial" font-size="13px" font-style="normal" font-weight="bold" text-decoration="none" x="632.5" y="472">找回密码</text></g></g><g transform="translate(-182,-214) scale(1,1)"><path fill="none" stroke="#000000" d="M 267 355 L 383 307" stroke-miterlimit="10"/></g><g transform="translate(-182,-214) scale(1,1)"><path fill="none" stroke="#000000" d="M 375.21903402965046 314.77538221364466 L 383 307 L 372.00000070859863 306.99605168776947" stroke-miterlimit="10"/></g><g transform="translate(-182,-214) scale(1,1)"><path fill="none" stroke="#000000" d="M 267 388 L 385 439" stroke-miterlimit="10"/></g><g transform="translate(-182,-214) scale(1,1)"><path fill="none" stroke="#000000" d="M 374.0012802512175 438.83217900089056 L 385 439 L 377.3413980477613 431.10406331476975" stroke-miterlimit="10"/></g><g transform="translate(-182,-214) scale(1,1)"><path fill="none" stroke="#000000" d="M 607 463 L 478 459" stroke-miterlimit="10" stroke-dasharray="3"/></g><g transform="translate(-182,-214) scale(1,1)"><path fill="none" stroke="#000000" d="M 488.2882577477473 455.1074747893022 L 478 459 L 488.02732779245116 463.52246584760314" stroke-miterlimit="10"/></g><g transform="translate(-182,-214) scale(1,1)"><g><path fill="none" stroke="none"/><text fill="#000000" stroke="none" font-family="Arial" font-size="13px" font-style="normal" font-weight="normal" text-decoration="none" x="514.23291015625" y="496.5">«extend»</text></g></g><g transform="translate(-182,-214) scale(1,1)"><path fill="none" stroke="#000000" d="M 478 301 L 615 332" stroke-miterlimit="10" stroke-dasharray="3"/></g><g transform="translate(-182,-214) scale(1,1)"><path fill="none" stroke="#000000" d="M 604.1588825103682 333.8628396538621 L 615 332 L 606.0169457559323 325.6513988589504" stroke-miterlimit="10"/></g><g transform="translate(-182,-214) scale(1,1)"><g><path fill="none" stroke="none"/><text fill="#000000" stroke="none" font-family="Arial" font-size="13px" font-style="normal" font-weight="normal" text-decoration="none" x="524.470947265625" y="290.5">«include»</text></g></g><g transform="translate(-182,-214) scale(1,1)"><path fill="none" stroke="#000000" d="M 662 447 L 681 369" stroke-miterlimit="10" stroke-dasharray="3"/></g><g transform="translate(-182,-214) scale(1,1)"><path fill="none" stroke="#000000" d="M 682.6847320222948 379.8702197775875 L 681 369 L 674.5048793197266 377.877691555167" stroke-miterlimit="10"/></g><g transform="translate(-182,-214) scale(1,1)"><g><path fill="none" stroke="none"/><text fill="#000000" stroke="none" font-family="Arial" font-size="13px" font-style="normal" font-weight="normal" text-decoration="none" x="613.470947265625" y="406.5">«include»</text></g></g><g transform="translate(-182,-214) scale(1,1)"><path fill="#ffffff" stroke="none" d="M 854.5883636363636 316.57 C 854.5883636363636 310.180064864 859.6975266932363 305 866 305 C 872.3024733067637 305 877.4116363636364 310.180064864 877.4116363636364 316.57 C 877.4116363636364 322.959935136 872.3024733067637 328.14 866 328.14 C 859.6975266932363 328.14 854.5883636363636 322.959935136 854.5883636363636 316.57 Z"/></g><g transform="translate(-182,-214) scale(1,1)"><path fill="none" stroke="#000000" d="M 854.5883636363636 316.57 C 854.5883636363636 310.180064864 859.6975266932363 305 866 305 C 872.3024733067637 305 877.4116363636364 310.180064864 877.4116363636364 316.57 C 877.4116363636364 322.959935136 872.3024733067637 328.14 866 328.14 C 859.6975266932363 328.14 854.5883636363636 322.959935136 854.5883636363636 316.57 Z" stroke-miterlimit="10"/></g><g transform="translate(-182,-214) scale(1,1)"><path fill="none" stroke="#000000" d="M 866 328.14 L 866 350.86" stroke-miterlimit="10"/></g><g transform="translate(-182,-214) scale(1,1)"><path fill="none" stroke="#000000" d="M 853.9170909090909 336.65999999999997 L 878.0829090909091 336.65999999999997" stroke-miterlimit="10"/></g><g transform="translate(-182,-214) scale(1,1)"><path fill="none" stroke="#000000" d="M 866 350.86 L 849.2181818181818 374" stroke-miterlimit="10"/></g><g transform="translate(-182,-214) scale(1,1)"><path fill="none" stroke="#000000" d="M 866 350.86 L 882.7818181818182 374" stroke-miterlimit="10"/></g><g transform="translate(-182,-214) scale(1,1)"><g><path fill="none" stroke="none"/><text fill="#000000" stroke="none" font-family="Arial" font-size="13px" font-style="normal" font-weight="bold" text-decoration="none" x="820.5" y="394.5">第三方认证平台</text></g></g><g transform="translate(-182,-214) scale(1,1)"><path fill="none" stroke="#000000" d="M 757 351 L 816 351" stroke-miterlimit="10"/></g><g transform="translate(-182,-214) scale(1,1)"><path fill="none" stroke="#000000" d="M 469 439 L 636 369" stroke-miterlimit="10" stroke-dasharray="3"/></g><g transform="translate(-182,-214) scale(1,1)"><path fill="none" stroke="#000000" d="M 628.2546878379309 376.81089876468155 L 636 369 L 625.0000977641263 369.0463767314622" stroke-miterlimit="10"/></g><g transform="translate(-182,-214) scale(1,1)"><g><path fill="none" stroke="none"/><text fill="#000000" stroke="none" font-family="Arial" font-size="13px" font-style="normal" font-weight="normal" text-decoration="none" x="512.5" y="382.5">«include»</text></g></g></g></svg>