<svg version="1.1" xmlns="http://www.w3.org/2000/svg" xmlns:xlink="http://www.w3.org/1999/xlink" width="1068" height="1708"><defs/><g><g transform="translate(-238,-70) scale(1,1)"><rect fill="#C0C0C0" stroke="none" x="255" y="87" width="1048" height="1688" opacity="0.2"/></g><g transform="translate(-238,-70) scale(1,1)"><rect fill="#ffffff" stroke="none" x="248" y="80" width="1048" height="1688"/></g><g transform="translate(-238,-70) scale(1,1)"><path fill="none" stroke="#000000" d="M 248 80 L 1296 80 L 1296 1768 L 248 1768 L 248 80 Z Z" stroke-miterlimit="10"/></g><g transform="translate(-238,-70) scale(1,1)"><g><path fill="none" stroke="none"/><text fill="#000000" stroke="none" font-family="Arial" font-size="13px" font-style="normal" font-weight="bold" text-decoration="none" x="746" y="99.5">一排一座</text></g></g><g transform="translate(-238,-70) scale(1,1)"><rect fill="#C0C0C0" stroke="none" x="375" y="340" width="776" height="232" opacity="0.2"/></g><g transform="translate(-238,-70) scale(1,1)"><rect fill="#ffffff" stroke="none" x="368" y="333" width="776" height="232"/></g><g transform="translate(-238,-70) scale(1,1)"><path fill="none" stroke="#000000" d="M 368 333 L 1144 333 L 1144 565 L 368 565 L 368 333 Z Z" stroke-miterlimit="10"/></g><g transform="translate(-238,-70) scale(1,1)"><g><path fill="none" stroke="none"/><text fill="#000000" stroke="none" font-family="Arial" font-size="13px" font-style="normal" font-weight="bold" text-decoration="none" x="717" y="352.5">用户信息系统</text></g></g><g transform="translate(-238,-70) scale(1,1)"><rect fill="#C0C0C0" stroke="none" x="375" y="159" width="776" height="160" opacity="0.2"/></g><g transform="translate(-238,-70) scale(1,1)"><rect fill="#ffffff" stroke="none" x="368" y="152" width="776" height="160"/></g><g transform="translate(-238,-70) scale(1,1)"><path fill="none" stroke="#000000" d="M 368 152 L 1144 152 L 1144 312 L 368 312 L 368 152 Z Z" stroke-miterlimit="10"/></g><g transform="translate(-238,-70) scale(1,1)"><g><path fill="none" stroke="none"/><text fill="#000000" stroke="none" font-family="Arial" font-size="13px" font-style="normal" font-weight="bold" text-decoration="none" x="710.5" y="171.5">注册与登录系统</text></g></g><g transform="translate(-238,-70) scale(1,1)"><rect fill="#C0C0C0" stroke="none" x="375" y="593" width="776" height="176" opacity="0.2"/></g><g transform="translate(-238,-70) scale(1,1)"><rect fill="#ffffff" stroke="none" x="368" y="586" width="776" height="176"/></g><g transform="translate(-238,-70) scale(1,1)"><path fill="none" stroke="#000000" d="M 368 586 L 1144 586 L 1144 762 L 368 762 L 368 586 Z Z" stroke-miterlimit="10"/></g><g transform="translate(-238,-70) scale(1,1)"><g><path fill="none" stroke="none"/><text fill="#000000" stroke="none" font-family="Arial" font-size="13px" font-style="normal" font-weight="bold" text-decoration="none" x="717" y="605.5">票务查询系统</text></g></g><g transform="translate(-238,-70) scale(1,1)"><rect fill="#C0C0C0" stroke="none" x="375" y="790" width="776" height="291" opacity="0.2"/></g><g transform="translate(-238,-70) scale(1,1)"><rect fill="#ffffff" stroke="none" x="368" y="783" width="776" height="291"/></g><g transform="translate(-238,-70) scale(1,1)"><path fill="none" stroke="#000000" d="M 368 783 L 1144 783 L 1144 1074 L 368 1074 L 368 783 Z Z" stroke-miterlimit="10"/></g><g transform="translate(-238,-70) scale(1,1)"><g><path fill="none" stroke="none"/><text fill="#000000" stroke="none" font-family="Arial" font-size="13px" font-style="normal" font-weight="bold" text-decoration="none" x="717" y="802.5">票务信息系统</text></g></g><g transform="translate(-238,-70) scale(1,1)"><rect fill="#C0C0C0" stroke="none" x="375" y="1102" width="776" height="234" opacity="0.2"/></g><g transform="translate(-238,-70) scale(1,1)"><rect fill="#ffffff" stroke="none" x="368" y="1095" width="776" height="234"/></g><g transform="translate(-238,-70) scale(1,1)"><path fill="none" stroke="#000000" d="M 368 1095 L 1144 1095 L 1144 1329 L 368 1329 L 368 1095 Z Z" stroke-miterlimit="10"/></g><g transform="translate(-238,-70) scale(1,1)"><g><path fill="none" stroke="none"/><text fill="#000000" stroke="none" font-family="Arial" font-size="13px" font-style="normal" font-weight="bold" text-decoration="none" x="730" y="1114.5">转卖系统</text></g></g><g transform="translate(-238,-70) scale(1,1)"><rect fill="#C0C0C0" stroke="none" x="375" y="1357" width="776" height="154" opacity="0.2"/></g><g transform="translate(-238,-70) scale(1,1)"><rect fill="#ffffff" stroke="none" x="368" y="1350" width="776" height="154"/></g><g transform="translate(-238,-70) scale(1,1)"><path fill="none" stroke="#000000" d="M 368 1350 L 1144 1350 L 1144 1504 L 368 1504 L 368 1350 Z Z" stroke-miterlimit="10"/></g><g transform="translate(-238,-70) scale(1,1)"><g><path fill="none" stroke="none"/><text fill="#000000" stroke="none" font-family="Arial" font-size="13px" font-style="normal" font-weight="bold" text-decoration="none" x="717" y="1369.5">票务管理系统</text></g></g><g transform="translate(-238,-70) scale(1,1)"><rect fill="#C0C0C0" stroke="none" x="375" y="1532" width="776" height="211" opacity="0.2"/></g><g transform="translate(-238,-70) scale(1,1)"><rect fill="#ffffff" stroke="none" x="368" y="1525" width="776" height="211"/></g><g transform="translate(-238,-70) scale(1,1)"><path fill="none" stroke="#000000" d="M 368 1525 L 1144 1525 L 1144 1736 L 368 1736 L 368 1525 Z Z" stroke-miterlimit="10"/></g><g transform="translate(-238,-70) scale(1,1)"><g><path fill="none" stroke="none"/><text fill="#000000" stroke="none" font-family="Arial" font-size="13px" font-style="normal" font-weight="bold" text-decoration="none" x="717" y="1544.5">现场分享系统</text></g></g><g transform="translate(-238,-70) scale(1,1)"><path fill="#ffffff" stroke="none" d="M 272.3025454545455 1045.9299999999998 C 272.3025454545455 1038.7889575359998 277.9873888558546 1033 285 1033 C 292.0126111441454 1033 297.6974545454545 1038.7889575359998 297.6974545454545 1045.9299999999998 C 297.6974545454545 1053.071042464 292.0126111441454 1058.86 285 1058.86 C 277.9873888558546 1058.86 272.3025454545455 1053.071042464 272.3025454545455 1045.9299999999998 Z"/></g><g transform="translate(-238,-70) scale(1,1)"><path fill="none" stroke="#000000" d="M 272.3025454545455 1045.9299999999998 C 272.3025454545455 1038.7889575359998 277.9873888558546 1033 285 1033 C 292.0126111441454 1033 297.6974545454545 1038.7889575359998 297.6974545454545 1045.9299999999998 C 297.6974545454545 1053.071042464 292.0126111441454 1058.86 285 1058.86 C 277.9873888558546 1058.86 272.3025454545455 1053.071042464 272.3025454545455 1045.9299999999998 Z" stroke-miterlimit="10"/></g><g transform="translate(-238,-70) scale(1,1)"><path fill="none" stroke="#000000" d="M 285 1058.86 L 285 1084.14" stroke-miterlimit="10"/></g><g transform="translate(-238,-70) scale(1,1)"><path fill="none" stroke="#000000" d="M 271.5556363636364 1068.34 L 298.4443636363636 1068.34" stroke-miterlimit="10"/></g><g transform="translate(-238,-70) scale(1,1)"><path fill="none" stroke="#000000" d="M 285 1084.14 L 266.32727272727277 1110" stroke-miterlimit="10"/></g><g transform="translate(-238,-70) scale(1,1)"><path fill="none" stroke="#000000" d="M 285 1084.14 L 303.67272727272723 1110" stroke-miterlimit="10"/></g><g transform="translate(-238,-70) scale(1,1)"><g><path fill="none" stroke="none"/><text fill="#000000" stroke="none" font-family="Arial" font-size="13px" font-style="normal" font-weight="bold" text-decoration="none" x="272" y="1130.5">用户</text></g></g><g transform="translate(-238,-70) scale(1,1)"><path fill="#C0C0C0" stroke="none" d="M 423 520 C 423 510.6111584 450.5344848 503 484.5 503 C 518.4655152 503 546 510.6111584 546 520 C 546 529.3888416 518.4655152 537 484.5 537 C 450.5344848 537 423 529.3888416 423 520 Z" opacity="0.2"/></g><g transform="translate(-238,-70) scale(1,1)"><path fill="#ffffff" stroke="none" d="M 416 513 C 416 503.6111584 443.5344848 496 477.5 496 C 511.4655152 496 539 503.6111584 539 513 C 539 522.3888416 511.4655152 530 477.5 530 C 443.5344848 530 416 522.3888416 416 513 Z"/></g><g transform="translate(-238,-70) scale(1,1)"><path fill="none" stroke="#000000" d="M 416 513 C 416 503.6111584 443.5344848 496 477.5 496 C 511.4655152 496 539 503.6111584 539 513 C 539 522.3888416 511.4655152 530 477.5 530 C 443.5344848 530 416 522.3888416 416 513 Z" stroke-miterlimit="10"/></g><g transform="translate(-238,-70) scale(1,1)"><g><path fill="none" stroke="none"/><text fill="#000000" stroke="none" font-family="Arial" font-size="13px" font-style="normal" font-weight="bold" text-decoration="none" x="438.5" y="520">查看用户信息</text></g></g><g transform="translate(-238,-70) scale(1,1)"><path fill="#C0C0C0" stroke="none" d="M 551 384 C 551 374.6111584 578.5344848 367 612.5 367 C 646.4655152 367 674 374.6111584 674 384 C 674 393.3888416 646.4655152 401 612.5 401 C 578.5344848 401 551 393.3888416 551 384 Z" opacity="0.2"/></g><g transform="translate(-238,-70) scale(1,1)"><path fill="#ffffff" stroke="none" d="M 544 377 C 544 367.6111584 571.5344848 360 605.5 360 C 639.4655152 360 667 367.6111584 667 377 C 667 386.3888416 639.4655152 394 605.5 394 C 571.5344848 394 544 386.3888416 544 377 Z"/></g><g transform="translate(-238,-70) scale(1,1)"><path fill="none" stroke="#000000" d="M 544 377 C 544 367.6111584 571.5344848 360 605.5 360 C 639.4655152 360 667 367.6111584 667 377 C 667 386.3888416 639.4655152 394 605.5 394 C 571.5344848 394 544 386.3888416 544 377 Z" stroke-miterlimit="10"/></g><g transform="translate(-238,-70) scale(1,1)"><g><path fill="none" stroke="none"/><text fill="#000000" stroke="none" font-family="Arial" font-size="13px" font-style="normal" font-weight="bold" text-decoration="none" x="566.5" y="384">更改用户信息</text></g></g><g transform="translate(-238,-70) scale(1,1)"><path fill="none" stroke="#000000" d="M 588 395 L 494 495" stroke-miterlimit="10" stroke-dasharray="3"/></g><g transform="translate(-238,-70) scale(1,1)"><path fill="none" stroke="#000000" d="M 497.893346616073 484.71205306549876 L 494 495 L 504.0276888356081 490.4783347518618" stroke-miterlimit="10"/></g><g transform="translate(-238,-70) scale(1,1)"><g><path fill="none" stroke="none"/><text fill="#000000" stroke="none" font-family="Arial" font-size="13px" font-style="normal" font-weight="normal" text-decoration="none" x="494.23291015625" y="442.5">«extend»</text></g></g><g transform="translate(-238,-70) scale(1,1)"><path fill="#C0C0C0" stroke="none" d="M 687 424 C 687 414.6111584 714.5344848 407 748.5 407 C 782.4655152 407 810 414.6111584 810 424 C 810 433.3888416 782.4655152 441 748.5 441 C 714.5344848 441 687 433.3888416 687 424 Z" opacity="0.2"/></g><g transform="translate(-238,-70) scale(1,1)"><path fill="#ffffff" stroke="none" d="M 680 417 C 680 407.6111584 707.5344848 400 741.5 400 C 775.4655152 400 803 407.6111584 803 417 C 803 426.3888416 775.4655152 434 741.5 434 C 707.5344848 434 680 426.3888416 680 417 Z"/></g><g transform="translate(-238,-70) scale(1,1)"><path fill="none" stroke="#000000" d="M 680 417 C 680 407.6111584 707.5344848 400 741.5 400 C 775.4655152 400 803 407.6111584 803 417 C 803 426.3888416 775.4655152 434 741.5 434 C 707.5344848 434 680 426.3888416 680 417 Z" stroke-miterlimit="10"/></g><g transform="translate(-238,-70) scale(1,1)"><g><path fill="none" stroke="none"/><text fill="#000000" stroke="none" font-family="Arial" font-size="13px" font-style="normal" font-weight="bold" text-decoration="none" x="702.5" y="424">管理我的订单</text></g></g><g transform="translate(-238,-70) scale(1,1)"><path fill="none" stroke="#000000" d="M 692 435 L 527 495" stroke-miterlimit="10" stroke-dasharray="3"/></g><g transform="translate(-238,-70) scale(1,1)"><path fill="none" stroke="#000000" d="M 535.1122415041878 487.57089926183966 L 527 495 L 537.9893884883053 495.4830534681629" stroke-miterlimit="10"/></g><g transform="translate(-238,-70) scale(1,1)"><g><path fill="none" stroke="none"/><text fill="#000000" stroke="none" font-family="Arial" font-size="13px" font-style="normal" font-weight="normal" text-decoration="none" x="592.23291015625" y="499.5">«extend»</text></g></g><g transform="translate(-238,-70) scale(1,1)"><path fill="#C0C0C0" stroke="none" d="M 687 512 C 687 502.6111584 714.5344848 495 748.5 495 C 782.4655152 495 810 502.6111584 810 512 C 810 521.3888416 782.4655152 529 748.5 529 C 714.5344848 529 687 521.3888416 687 512 Z" opacity="0.2"/></g><g transform="translate(-238,-70) scale(1,1)"><path fill="#ffffff" stroke="none" d="M 680 505 C 680 495.6111584 707.5344848 488 741.5 488 C 775.4655152 488 803 495.6111584 803 505 C 803 514.3888416 775.4655152 522 741.5 522 C 707.5344848 522 680 514.3888416 680 505 Z"/></g><g transform="translate(-238,-70) scale(1,1)"><path fill="none" stroke="#000000" d="M 680 505 C 680 495.6111584 707.5344848 488 741.5 488 C 775.4655152 488 803 495.6111584 803 505 C 803 514.3888416 775.4655152 522 741.5 522 C 707.5344848 522 680 514.3888416 680 505 Z" stroke-miterlimit="10"/></g><g transform="translate(-238,-70) scale(1,1)"><g><path fill="none" stroke="none"/><text fill="#000000" stroke="none" font-family="Arial" font-size="13px" font-style="normal" font-weight="bold" text-decoration="none" x="709" y="512">管理观影人</text></g></g><g transform="translate(-238,-70) scale(1,1)"><path fill="none" stroke="#000000" d="M 679 507 L 540 511" stroke-miterlimit="10" stroke-dasharray="3"/></g><g transform="translate(-238,-70) scale(1,1)"><path fill="none" stroke="#000000" d="M 550.037382465163 506.4998940847977 L 540 511 L 550.279556615177 514.9154457977825" stroke-miterlimit="10"/></g><g transform="translate(-238,-70) scale(1,1)"><g><path fill="none" stroke="none"/><text fill="#000000" stroke="none" font-family="Arial" font-size="13px" font-style="normal" font-weight="normal" text-decoration="none" x="590.23291015625" y="548.5">«extend»</text></g></g><g transform="translate(-238,-70) scale(1,1)"><path fill="#C0C0C0" stroke="none" d="M 943 432 C 943 422.6111584 970.5344848 415 1004.5 415 C 1038.4655152 415 1066 422.6111584 1066 432 C 1066 441.3888416 1038.4655152 449 1004.5 449 C 970.5344848 449 943 441.3888416 943 432 Z" opacity="0.2"/></g><g transform="translate(-238,-70) scale(1,1)"><path fill="#ffffff" stroke="none" d="M 936 425 C 936 415.6111584 963.5344848 408 997.5 408 C 1031.4655152 408 1059 415.6111584 1059 425 C 1059 434.3888416 1031.4655152 442 997.5 442 C 963.5344848 442 936 434.3888416 936 425 Z"/></g><g transform="translate(-238,-70) scale(1,1)"><path fill="none" stroke="#000000" d="M 936 425 C 936 415.6111584 963.5344848 408 997.5 408 C 1031.4655152 408 1059 415.6111584 1059 425 C 1059 434.3888416 1031.4655152 442 997.5 442 C 963.5344848 442 936 434.3888416 936 425 Z" stroke-miterlimit="10"/></g><g transform="translate(-238,-70) scale(1,1)"><g><path fill="none" stroke="none"/><text fill="#000000" stroke="none" font-family="Arial" font-size="13px" font-style="normal" font-weight="bold" text-decoration="none" x="965" y="432">增添观影人</text></g></g><g transform="translate(-238,-70) scale(1,1)"><path fill="#C0C0C0" stroke="none" d="M 943 528 C 943 518.6111584 970.5344848 511 1004.5 511 C 1038.4655152 511 1066 518.6111584 1066 528 C 1066 537.3888416 1038.4655152 545 1004.5 545 C 970.5344848 545 943 537.3888416 943 528 Z" opacity="0.2"/></g><g transform="translate(-238,-70) scale(1,1)"><path fill="#ffffff" stroke="none" d="M 936 521 C 936 511.6111584 963.5344848 504 997.5 504 C 1031.4655152 504 1059 511.6111584 1059 521 C 1059 530.3888416 1031.4655152 538 997.5 538 C 963.5344848 538 936 530.3888416 936 521 Z"/></g><g transform="translate(-238,-70) scale(1,1)"><path fill="none" stroke="#000000" d="M 936 521 C 936 511.6111584 963.5344848 504 997.5 504 C 1031.4655152 504 1059 511.6111584 1059 521 C 1059 530.3888416 1031.4655152 538 997.5 538 C 963.5344848 538 936 530.3888416 936 521 Z" stroke-miterlimit="10"/></g><g transform="translate(-238,-70) scale(1,1)"><g><path fill="none" stroke="none"/><text fill="#000000" stroke="none" font-family="Arial" font-size="13px" font-style="normal" font-weight="bold" text-decoration="none" x="965" y="528">删除观影人</text></g></g><g transform="translate(-238,-70) scale(1,1)"><path fill="none" stroke="#000000" d="M 799 487 L 939 443" stroke-miterlimit="10" stroke-dasharray="3"/></g><g transform="translate(-238,-70) scale(1,1)"><path fill="none" stroke="#000000" d="M 930.5669974216207 450.06289370676416 L 939 443 L 928.0427466562116 442.0311867259171" stroke-miterlimit="10"/></g><g transform="translate(-238,-70) scale(1,1)"><g><path fill="none" stroke="none"/><text fill="#000000" stroke="none" font-family="Arial" font-size="13px" font-style="normal" font-weight="normal" text-decoration="none" x="821.470947265625" y="454.5">«include»</text></g></g><g transform="translate(-238,-70) scale(1,1)"><path fill="none" stroke="#000000" d="M 804 509 L 935 517" stroke-miterlimit="10" stroke-dasharray="3"/></g><g transform="translate(-238,-70) scale(1,1)"><path fill="none" stroke="#000000" d="M 924.5996308056364 520.5822228603105 L 935 517 L 925.1128143395747 512.1788424920688" stroke-miterlimit="10"/></g><g transform="translate(-238,-70) scale(1,1)"><g><path fill="none" stroke="none"/><text fill="#000000" stroke="none" font-family="Arial" font-size="13px" font-style="normal" font-weight="normal" text-decoration="none" x="862.470947265625" y="495.5">«include»</text></g></g><g transform="translate(-238,-70) scale(1,1)"><path fill="none" stroke="#000000" d="M 303 1031 L 471 531" stroke-miterlimit="10"/></g><g transform="translate(-238,-70) scale(1,1)"><path fill="none" stroke="#000000" d="M 471.7534645214044 541.9741647160495 L 471 531 L 463.7728735838918 539.2926861610453" stroke-miterlimit="10"/></g><g transform="translate(-238,-70) scale(1,1)"><path fill="#ffffff" stroke="none" d="M 272.46327272727274 605.76 C 272.46327272727274 598.712845952 278.07615608552726 593 285 593 C 291.92384391447274 593 297.53672727272726 598.712845952 297.53672727272726 605.76 C 297.53672727272726 612.807154048 291.92384391447274 618.52 285 618.52 C 278.07615608552726 618.52 272.46327272727274 612.807154048 272.46327272727274 605.76 Z"/></g><g transform="translate(-238,-70) scale(1,1)"><path fill="none" stroke="#000000" d="M 272.46327272727274 605.76 C 272.46327272727274 598.712845952 278.07615608552726 593 285 593 C 291.92384391447274 593 297.53672727272726 598.712845952 297.53672727272726 605.76 C 297.53672727272726 612.807154048 291.92384391447274 618.52 285 618.52 C 278.07615608552726 618.52 272.46327272727274 612.807154048 272.46327272727274 605.76 Z" stroke-miterlimit="10"/></g><g transform="translate(-238,-70) scale(1,1)"><path fill="none" stroke="#000000" d="M 285 618.52 L 285 643.48" stroke-miterlimit="10"/></g><g transform="translate(-238,-70) scale(1,1)"><path fill="none" stroke="#000000" d="M 271.72581818181817 627.88 L 298.27418181818183 627.88" stroke-miterlimit="10"/></g><g transform="translate(-238,-70) scale(1,1)"><path fill="none" stroke="#000000" d="M 285 643.48 L 266.56363636363636 669" stroke-miterlimit="10"/></g><g transform="translate(-238,-70) scale(1,1)"><path fill="none" stroke="#000000" d="M 285 643.48 L 303.43636363636364 669" stroke-miterlimit="10"/></g><g transform="translate(-238,-70) scale(1,1)"><g><path fill="none" stroke="none"/><text fill="#000000" stroke="none" font-family="Arial" font-size="13px" font-style="normal" font-weight="bold" text-decoration="none" x="272" y="689.5">游客</text></g></g><g transform="translate(-238,-70) scale(1,1)"><path fill="#C0C0C0" stroke="none" d="M 551 200 C 551 190.6111584 573.6096176 183 601.5 183 C 629.3903824 183 652 190.6111584 652 200 C 652 209.3888416 629.3903824 217 601.5 217 C 573.6096176 217 551 209.3888416 551 200 Z" opacity="0.2"/></g><g transform="translate(-238,-70) scale(1,1)"><path fill="#ffffff" stroke="none" d="M 544 193 C 544 183.6111584 566.6096176 176 594.5 176 C 622.3903824 176 645 183.6111584 645 193 C 645 202.3888416 622.3903824 210 594.5 210 C 566.6096176 210 544 202.3888416 544 193 Z"/></g><g transform="translate(-238,-70) scale(1,1)"><path fill="none" stroke="#000000" d="M 544 193 C 544 183.6111584 566.6096176 176 594.5 176 C 622.3903824 176 645 183.6111584 645 193 C 645 202.3888416 622.3903824 210 594.5 210 C 566.6096176 210 544 202.3888416 544 193 Z" stroke-miterlimit="10"/></g><g transform="translate(-238,-70) scale(1,1)"><g><path fill="none" stroke="none"/><text fill="#000000" stroke="none" font-family="Arial" font-size="13px" font-style="normal" font-weight="bold" text-decoration="none" x="581.5" y="200">注册</text></g></g><g transform="translate(-238,-70) scale(1,1)"><path fill="#C0C0C0" stroke="none" d="M 975 227 C 975 215.954304 1006.5639216 207 1045.5 207 C 1084.4360784 207 1116 215.954304 1116 227 C 1116 238.045696 1084.4360784 247 1045.5 247 C 1006.5639216 247 975 238.045696 975 227 Z" opacity="0.2"/></g><g transform="translate(-238,-70) scale(1,1)"><path fill="#ffffff" stroke="none" d="M 968 220 C 968 208.954304 999.5639216 200 1038.5 200 C 1077.4360784 200 1109 208.954304 1109 220 C 1109 231.045696 1077.4360784 240 1038.5 240 C 999.5639216 240 968 231.045696 968 220 Z"/></g><g transform="translate(-238,-70) scale(1,1)"><path fill="none" stroke="#000000" d="M 968 220 C 968 208.954304 999.5639216 200 1038.5 200 C 1077.4360784 200 1109 208.954304 1109 220 C 1109 231.045696 1077.4360784 240 1038.5 240 C 999.5639216 240 968 231.045696 968 220 Z" stroke-miterlimit="10"/></g><g transform="translate(-238,-70) scale(1,1)"><g><path fill="none" stroke="none"/><text fill="#000000" stroke="none" font-family="Arial" font-size="13px" font-style="normal" font-weight="bold" text-decoration="none" x="993" y="227">短信验证码验证</text></g></g><g transform="translate(-238,-70) scale(1,1)"><path fill="#C0C0C0" stroke="none" d="M 399 272 C 399 262.6111584 421.6096176 255 449.5 255 C 477.3903824 255 500 262.6111584 500 272 C 500 281.3888416 477.3903824 289 449.5 289 C 421.6096176 289 399 281.3888416 399 272 Z" opacity="0.2"/></g><g transform="translate(-238,-70) scale(1,1)"><path fill="#ffffff" stroke="none" d="M 392 265 C 392 255.6111584 414.6096176 248 442.5 248 C 470.3903824 248 493 255.6111584 493 265 C 493 274.3888416 470.3903824 282 442.5 282 C 414.6096176 282 392 274.3888416 392 265 Z"/></g><g transform="translate(-238,-70) scale(1,1)"><path fill="none" stroke="#000000" d="M 392 265 C 392 255.6111584 414.6096176 248 442.5 248 C 470.3903824 248 493 255.6111584 493 265 C 493 274.3888416 470.3903824 282 442.5 282 C 414.6096176 282 392 274.3888416 392 265 Z" stroke-miterlimit="10"/></g><g transform="translate(-238,-70) scale(1,1)"><g><path fill="none" stroke="none"/><text fill="#000000" stroke="none" font-family="Arial" font-size="13px" font-style="normal" font-weight="bold" text-decoration="none" x="429.5" y="272">登录</text></g></g><g transform="translate(-238,-70) scale(1,1)"><path fill="#C0C0C0" stroke="none" d="M 871 288 C 871 278.6111584 893.6096176 271 921.5 271 C 949.3903824 271 972 278.6111584 972 288 C 972 297.3888416 949.3903824 305 921.5 305 C 893.6096176 305 871 297.3888416 871 288 Z" opacity="0.2"/></g><g transform="translate(-238,-70) scale(1,1)"><path fill="#ffffff" stroke="none" d="M 864 281 C 864 271.6111584 886.6096176 264 914.5 264 C 942.3903824 264 965 271.6111584 965 281 C 965 290.3888416 942.3903824 298 914.5 298 C 886.6096176 298 864 290.3888416 864 281 Z"/></g><g transform="translate(-238,-70) scale(1,1)"><path fill="none" stroke="#000000" d="M 864 281 C 864 271.6111584 886.6096176 264 914.5 264 C 942.3903824 264 965 271.6111584 965 281 C 965 290.3888416 942.3903824 298 914.5 298 C 886.6096176 298 864 290.3888416 864 281 Z" stroke-miterlimit="10"/></g><g transform="translate(-238,-70) scale(1,1)"><g><path fill="none" stroke="none"/><text fill="#000000" stroke="none" font-family="Arial" font-size="13px" font-style="normal" font-weight="bold" text-decoration="none" x="888.5" y="288">找回密码</text></g></g><g transform="translate(-238,-70) scale(1,1)"><path fill="none" stroke="#000000" d="M 307 591 L 435 283" stroke-miterlimit="10"/></g><g transform="translate(-238,-70) scale(1,1)"><path fill="none" stroke="#000000" d="M 434.9871351835187 293.99999247711094 L 435 283 L 427.2127339274612 290.76907247459354" stroke-miterlimit="10"/></g><g transform="translate(-238,-70) scale(1,1)"><path fill="none" stroke="#000000" d="M 863 279 L 494 267" stroke-miterlimit="10" stroke-dasharray="3"/></g><g transform="translate(-238,-70) scale(1,1)"><path fill="none" stroke="#000000" d="M 504.29412779408096 263.12302528262944 L 494 267 L 504.02048268273705 271.53761245645404" stroke-miterlimit="10"/></g><g transform="translate(-238,-70) scale(1,1)"><g><path fill="none" stroke="none"/><text fill="#000000" stroke="none" font-family="Arial" font-size="13px" font-style="normal" font-weight="normal" text-decoration="none" x="655.23291015625" y="292.5">«extend»</text></g></g><g transform="translate(-238,-70) scale(1,1)"><path fill="none" stroke="#000000" d="M 646 196 L 967 216" stroke-miterlimit="10" stroke-dasharray="3"/></g><g transform="translate(-238,-70) scale(1,1)"><path fill="none" stroke="#000000" d="M 956.5952257375626 219.56940787074268 L 967 216 L 957.1187610520925 211.16666607253802" stroke-miterlimit="10"/></g><g transform="translate(-238,-70) scale(1,1)"><g><path fill="none" stroke="none"/><text fill="#000000" stroke="none" font-family="Arial" font-size="13px" font-style="normal" font-weight="normal" text-decoration="none" x="817.470947265625" y="204.5">«include»</text></g></g><g transform="translate(-238,-70) scale(1,1)"><path fill="none" stroke="#000000" d="M 951 263 L 995 241" stroke-miterlimit="10" stroke-dasharray="3"/></g><g transform="translate(-238,-70) scale(1,1)"><path fill="none" stroke="#000000" d="M 987.7927808450386 249.30999350495279 L 995 241 L 984.0276737030609 241.77977922099748" stroke-miterlimit="10"/></g><g transform="translate(-238,-70) scale(1,1)"><g><path fill="none" stroke="none"/><text fill="#000000" stroke="none" font-family="Arial" font-size="13px" font-style="normal" font-weight="normal" text-decoration="none" x="985.470947265625" y="275.5">«include»</text></g></g><g transform="translate(-238,-70) scale(1,1)"><path fill="#ffffff" stroke="none" d="M 1225.5883636363637 204.57 C 1225.5883636363637 198.180064864 1230.6975266932363 193 1237 193 C 1243.3024733067637 193 1248.4116363636363 198.180064864 1248.4116363636363 204.57 C 1248.4116363636363 210.95993513599998 1243.3024733067637 216.14 1237 216.14 C 1230.6975266932363 216.14 1225.5883636363637 210.95993513599998 1225.5883636363637 204.57 Z"/></g><g transform="translate(-238,-70) scale(1,1)"><path fill="none" stroke="#000000" d="M 1225.5883636363637 204.57 C 1225.5883636363637 198.180064864 1230.6975266932363 193 1237 193 C 1243.3024733067637 193 1248.4116363636363 198.180064864 1248.4116363636363 204.57 C 1248.4116363636363 210.95993513599998 1243.3024733067637 216.14 1237 216.14 C 1230.6975266932363 216.14 1225.5883636363637 210.95993513599998 1225.5883636363637 204.57 Z" stroke-miterlimit="10"/></g><g transform="translate(-238,-70) scale(1,1)"><path fill="none" stroke="#000000" d="M 1237 216.14 L 1237 238.86" stroke-miterlimit="10"/></g><g transform="translate(-238,-70) scale(1,1)"><path fill="none" stroke="#000000" d="M 1224.917090909091 224.66 L 1249.082909090909 224.66" stroke-miterlimit="10"/></g><g transform="translate(-238,-70) scale(1,1)"><path fill="none" stroke="#000000" d="M 1237 238.86 L 1220.2181818181818 262" stroke-miterlimit="10"/></g><g transform="translate(-238,-70) scale(1,1)"><path fill="none" stroke="#000000" d="M 1237 238.86 L 1253.7818181818182 262" stroke-miterlimit="10"/></g><g transform="translate(-238,-70) scale(1,1)"><g><path fill="none" stroke="none"/><text fill="#000000" stroke="none" font-family="Arial" font-size="13px" font-style="normal" font-weight="bold" text-decoration="none" x="1191.5" y="282.5">第三方认证平台</text></g></g><g transform="translate(-238,-70) scale(1,1)"><path fill="none" stroke="#000000" d="M 1109 224 L 1187 224" stroke-miterlimit="10"/></g><g transform="translate(-238,-70) scale(1,1)"><path fill="none" stroke="#000000" d="M 494 261 L 967 225" stroke-miterlimit="10" stroke-dasharray="3"/></g><g transform="translate(-238,-70) scale(1,1)"><path fill="none" stroke="#000000" d="M 957.1860948409644 229.96862813354497 L 967 225 L 956.5471704657003 221.5738717585482" stroke-miterlimit="10"/></g><g transform="translate(-238,-70) scale(1,1)"><g><path fill="none" stroke="none"/><text fill="#000000" stroke="none" font-family="Arial" font-size="13px" font-style="normal" font-weight="normal" text-decoration="none" x="699.470947265625" y="235.5">«include»</text></g></g><g transform="translate(-238,-70) scale(1,1)"><path fill="#C0C0C0" stroke="none" d="M 407 640 C 407 630.6111584 434.5344848 623 468.5 623 C 502.4655152 623 530 630.6111584 530 640 C 530 649.3888416 502.4655152 657 468.5 657 C 434.5344848 657 407 649.3888416 407 640 Z" opacity="0.2"/></g><g transform="translate(-238,-70) scale(1,1)"><path fill="#ffffff" stroke="none" d="M 400 633 C 400 623.6111584 427.5344848 616 461.5 616 C 495.4655152 616 523 623.6111584 523 633 C 523 642.3888416 495.4655152 650 461.5 650 C 427.5344848 650 400 642.3888416 400 633 Z"/></g><g transform="translate(-238,-70) scale(1,1)"><path fill="none" stroke="#000000" d="M 400 633 C 400 623.6111584 427.5344848 616 461.5 616 C 495.4655152 616 523 623.6111584 523 633 C 523 642.3888416 495.4655152 650 461.5 650 C 427.5344848 650 400 642.3888416 400 633 Z" stroke-miterlimit="10"/></g><g transform="translate(-238,-70) scale(1,1)"><g><path fill="none" stroke="none"/><text fill="#000000" stroke="none" font-family="Arial" font-size="13px" font-style="normal" font-weight="bold" text-decoration="none" x="422.5" y="640">浏览首页内容</text></g></g><g transform="translate(-238,-70) scale(1,1)"><path fill="#C0C0C0" stroke="none" d="M 543 688 C 543 678.6111584 570.5344848 671 604.5 671 C 638.4655152 671 666 678.6111584 666 688 C 666 697.3888416 638.4655152 705 604.5 705 C 570.5344848 705 543 697.3888416 543 688 Z" opacity="0.2"/></g><g transform="translate(-238,-70) scale(1,1)"><path fill="#ffffff" stroke="none" d="M 536 681 C 536 671.6111584 563.5344848 664 597.5 664 C 631.4655152 664 659 671.6111584 659 681 C 659 690.3888416 631.4655152 698 597.5 698 C 563.5344848 698 536 690.3888416 536 681 Z"/></g><g transform="translate(-238,-70) scale(1,1)"><path fill="none" stroke="#000000" d="M 536 681 C 536 671.6111584 563.5344848 664 597.5 664 C 631.4655152 664 659 671.6111584 659 681 C 659 690.3888416 631.4655152 698 597.5 698 C 563.5344848 698 536 690.3888416 536 681 Z" stroke-miterlimit="10"/></g><g transform="translate(-238,-70) scale(1,1)"><g><path fill="none" stroke="none"/><text fill="#000000" stroke="none" font-family="Arial" font-size="13px" font-style="normal" font-weight="bold" text-decoration="none" x="558.5" y="688">筛选浏览信息</text></g></g><g transform="translate(-238,-70) scale(1,1)"><path fill="#C0C0C0" stroke="none" d="M 839 656 C 839 646.6111584 866.5344848 639 900.5 639 C 934.4655152 639 962 646.6111584 962 656 C 962 665.3888416 934.4655152 673 900.5 673 C 866.5344848 673 839 665.3888416 839 656 Z" opacity="0.2"/></g><g transform="translate(-238,-70) scale(1,1)"><path fill="#ffffff" stroke="none" d="M 832 649 C 832 639.6111584 859.5344848 632 893.5 632 C 927.4655152 632 955 639.6111584 955 649 C 955 658.3888416 927.4655152 666 893.5 666 C 859.5344848 666 832 658.3888416 832 649 Z"/></g><g transform="translate(-238,-70) scale(1,1)"><path fill="none" stroke="#000000" d="M 832 649 C 832 639.6111584 859.5344848 632 893.5 632 C 927.4655152 632 955 639.6111584 955 649 C 955 658.3888416 927.4655152 666 893.5 666 C 859.5344848 666 832 658.3888416 832 649 Z" stroke-miterlimit="10"/></g><g transform="translate(-238,-70) scale(1,1)"><g><path fill="none" stroke="none"/><text fill="#000000" stroke="none" font-family="Arial" font-size="13px" font-style="normal" font-weight="bold" text-decoration="none" x="867.5" y="656">选择城市</text></g></g><g transform="translate(-238,-70) scale(1,1)"><path fill="#C0C0C0" stroke="none" d="M 743 728 C 743 718.6111584 770.5344848 711 804.5 711 C 838.4655152 711 866 718.6111584 866 728 C 866 737.3888416 838.4655152 745 804.5 745 C 770.5344848 745 743 737.3888416 743 728 Z" opacity="0.2"/></g><g transform="translate(-238,-70) scale(1,1)"><path fill="#ffffff" stroke="none" d="M 736 721 C 736 711.6111584 763.5344848 704 797.5 704 C 831.4655152 704 859 711.6111584 859 721 C 859 730.3888416 831.4655152 738 797.5 738 C 763.5344848 738 736 730.3888416 736 721 Z"/></g><g transform="translate(-238,-70) scale(1,1)"><path fill="none" stroke="#000000" d="M 736 721 C 736 711.6111584 763.5344848 704 797.5 704 C 831.4655152 704 859 711.6111584 859 721 C 859 730.3888416 831.4655152 738 797.5 738 C 763.5344848 738 736 730.3888416 736 721 Z" stroke-miterlimit="10"/></g><g transform="translate(-238,-70) scale(1,1)"><g><path fill="none" stroke="none"/><text fill="#000000" stroke="none" font-family="Arial" font-size="13px" font-style="normal" font-weight="bold" text-decoration="none" x="758.5" y="728">选择演出类型</text></g></g><g transform="translate(-238,-70) scale(1,1)"><path fill="#C0C0C0" stroke="none" d="M 399 736 C 399 726.6111584 421.6096176 719 449.5 719 C 477.3903824 719 500 726.6111584 500 736 C 500 745.3888416 477.3903824 753 449.5 753 C 421.6096176 753 399 745.3888416 399 736 Z" opacity="0.2"/></g><g transform="translate(-238,-70) scale(1,1)"><path fill="#ffffff" stroke="none" d="M 392 729 C 392 719.6111584 414.6096176 712 442.5 712 C 470.3903824 712 493 719.6111584 493 729 C 493 738.3888416 470.3903824 746 442.5 746 C 414.6096176 746 392 738.3888416 392 729 Z"/></g><g transform="translate(-238,-70) scale(1,1)"><path fill="none" stroke="#000000" d="M 392 729 C 392 719.6111584 414.6096176 712 442.5 712 C 470.3903824 712 493 719.6111584 493 729 C 493 738.3888416 470.3903824 746 442.5 746 C 414.6096176 746 392 738.3888416 392 729 Z" stroke-miterlimit="10"/></g><g transform="translate(-238,-70) scale(1,1)"><g><path fill="none" stroke="none"/><text fill="#000000" stroke="none" font-family="Arial" font-size="13px" font-style="normal" font-weight="bold" text-decoration="none" x="416.5" y="736">搜索演出</text></g></g><g transform="translate(-238,-70) scale(1,1)"><path fill="none" stroke="#000000" d="M 306 1031 L 454 651" stroke-miterlimit="10"/></g><g transform="translate(-238,-70) scale(1,1)"><path fill="none" stroke="#000000" d="M 454.23428141405293 661.9975048178679 L 454 651 L 446.3892517437366 658.9420722094289" stroke-miterlimit="10"/></g><g transform="translate(-238,-70) scale(1,1)"><path fill="none" stroke="#000000" d="M 323 1035 L 583 699" stroke-miterlimit="10"/></g><g transform="translate(-238,-70) scale(1,1)"><path fill="none" stroke="#000000" d="M 580.1097971621444 709.6135162672911 L 583 699 L 573.4514286495125 704.461207299183" stroke-miterlimit="10"/></g><g transform="translate(-238,-70) scale(1,1)"><path fill="none" stroke="#000000" d="M 308 1031 L 434 747" stroke-miterlimit="10"/></g><g transform="translate(-238,-70) scale(1,1)"><path fill="none" stroke="#000000" d="M 433.72644002080426 757.9965978801529 L 434 747 L 426.03079495261176 754.5823328146872" stroke-miterlimit="10"/></g><g transform="translate(-238,-70) scale(1,1)"><path fill="#C0C0C0" stroke="none" d="M 447 880 C 447 870.6111584 474.5344848 863 508.5 863 C 542.4655152 863 570 870.6111584 570 880 C 570 889.3888416 542.4655152 897 508.5 897 C 474.5344848 897 447 889.3888416 447 880 Z" opacity="0.2"/></g><g transform="translate(-238,-70) scale(1,1)"><path fill="#ffffff" stroke="none" d="M 440 873 C 440 863.6111584 467.5344848 856 501.5 856 C 535.4655152 856 563 863.6111584 563 873 C 563 882.3888416 535.4655152 890 501.5 890 C 467.5344848 890 440 882.3888416 440 873 Z"/></g><g transform="translate(-238,-70) scale(1,1)"><path fill="none" stroke="#000000" d="M 440 873 C 440 863.6111584 467.5344848 856 501.5 856 C 535.4655152 856 563 863.6111584 563 873 C 563 882.3888416 535.4655152 890 501.5 890 C 467.5344848 890 440 882.3888416 440 873 Z" stroke-miterlimit="10"/></g><g transform="translate(-238,-70) scale(1,1)"><g><path fill="none" stroke="none"/><text fill="#000000" stroke="none" font-family="Arial" font-size="13px" font-style="normal" font-weight="bold" text-decoration="none" x="462.5" y="880">查看演出详情</text></g></g><g transform="translate(-238,-70) scale(1,1)"><path fill="#C0C0C0" stroke="none" d="M 639 880 C 639 870.6111584 670.5639216 863 709.5 863 C 748.4360784 863 780 870.6111584 780 880 C 780 889.3888416 748.4360784 897 709.5 897 C 670.5639216 897 639 889.3888416 639 880 Z" opacity="0.2"/></g><g transform="translate(-238,-70) scale(1,1)"><path fill="#ffffff" stroke="none" d="M 632 873 C 632 863.6111584 663.5639216 856 702.5 856 C 741.4360784 856 773 863.6111584 773 873 C 773 882.3888416 741.4360784 890 702.5 890 C 663.5639216 890 632 882.3888416 632 873 Z"/></g><g transform="translate(-238,-70) scale(1,1)"><path fill="none" stroke="#000000" d="M 632 873 C 632 863.6111584 663.5639216 856 702.5 856 C 741.4360784 856 773 863.6111584 773 873 C 773 882.3888416 741.4360784 890 702.5 890 C 663.5639216 890 632 882.3888416 632 873 Z" stroke-miterlimit="10"/></g><g transform="translate(-238,-70) scale(1,1)"><g><path fill="none" stroke="none"/><text fill="#000000" stroke="none" font-family="Arial" font-size="13px" font-style="normal" font-weight="bold" text-decoration="none" x="657" y="880">选择场次与票档</text></g></g><g transform="translate(-238,-70) scale(1,1)"><path fill="none" stroke="#000000" d="M 631 873 L 564 873" stroke-miterlimit="10" stroke-dasharray="3"/></g><g transform="translate(-238,-70) scale(1,1)"><path fill="none" stroke="#000000" d="M 574.1626748576241 868.790482243984 L 564 873 L 574.1626748576241 877.209517756016" stroke-miterlimit="10"/></g><g transform="translate(-238,-70) scale(1,1)"><g><path fill="none" stroke="none"/><text fill="#000000" stroke="none" font-family="Arial" font-size="13px" font-style="normal" font-weight="normal" text-decoration="none" x="566.23291015625" y="855.5">«extend»</text></g></g><g transform="translate(-238,-70) scale(1,1)"><path fill="#C0C0C0" stroke="none" d="M 671 968 C 671 958.6111584 693.6096176 951 721.5 951 C 749.3903824 951 772 958.6111584 772 968 C 772 977.3888416 749.3903824 985 721.5 985 C 693.6096176 985 671 977.3888416 671 968 Z" opacity="0.2"/></g><g transform="translate(-238,-70) scale(1,1)"><path fill="#ffffff" stroke="none" d="M 664 961 C 664 951.6111584 686.6096176 944 714.5 944 C 742.3903824 944 765 951.6111584 765 961 C 765 970.3888416 742.3903824 978 714.5 978 C 686.6096176 978 664 970.3888416 664 961 Z"/></g><g transform="translate(-238,-70) scale(1,1)"><path fill="none" stroke="#000000" d="M 664 961 C 664 951.6111584 686.6096176 944 714.5 944 C 742.3903824 944 765 951.6111584 765 961 C 765 970.3888416 742.3903824 978 714.5 978 C 686.6096176 978 664 970.3888416 664 961 Z" stroke-miterlimit="10"/></g><g transform="translate(-238,-70) scale(1,1)"><g><path fill="none" stroke="none"/><text fill="#000000" stroke="none" font-family="Arial" font-size="13px" font-style="normal" font-weight="bold" text-decoration="none" x="688.5" y="968">创建订单</text></g></g><g transform="translate(-238,-70) scale(1,1)"><path fill="none" stroke="#000000" d="M 704 891 L 712 943" stroke-miterlimit="10" stroke-dasharray="3"/></g><g transform="translate(-238,-70) scale(1,1)"><path fill="none" stroke="#000000" d="M 706.2941240658574 933.5955872153455 L 712 943 L 714.6152604874653 932.315412381252" stroke-miterlimit="10"/></g><g transform="translate(-238,-70) scale(1,1)"><g><path fill="none" stroke="none"/><text fill="#000000" stroke="none" font-family="Arial" font-size="13px" font-style="normal" font-weight="normal" text-decoration="none" x="710.23291015625" y="918.5">«extend»</text></g></g><g transform="translate(-238,-70) scale(1,1)"><path fill="#C0C0C0" stroke="none" d="M 999 864 C 999 854.6111584 1021.6096176 847 1049.5 847 C 1077.3903824 847 1100 854.6111584 1100 864 C 1100 873.3888416 1077.3903824 881 1049.5 881 C 1021.6096176 881 999 873.3888416 999 864 Z" opacity="0.2"/></g><g transform="translate(-238,-70) scale(1,1)"><path fill="#ffffff" stroke="none" d="M 992 857 C 992 847.6111584 1014.6096176 840 1042.5 840 C 1070.3903824 840 1093 847.6111584 1093 857 C 1093 866.3888416 1070.3903824 874 1042.5 874 C 1014.6096176 874 992 866.3888416 992 857 Z"/></g><g transform="translate(-238,-70) scale(1,1)"><path fill="none" stroke="#000000" d="M 992 857 C 992 847.6111584 1014.6096176 840 1042.5 840 C 1070.3903824 840 1093 847.6111584 1093 857 C 1093 866.3888416 1070.3903824 874 1042.5 874 C 1014.6096176 874 992 866.3888416 992 857 Z" stroke-miterlimit="10"/></g><g transform="translate(-238,-70) scale(1,1)"><g><path fill="none" stroke="none"/><text fill="#000000" stroke="none" font-family="Arial" font-size="13px" font-style="normal" font-weight="bold" text-decoration="none" x="1016.5" y="864">取消选择</text></g></g><g transform="translate(-238,-70) scale(1,1)"><path fill="none" stroke="#000000" d="M 774 870 L 991 859" stroke-miterlimit="10" stroke-dasharray="3"/></g><g transform="translate(-238,-70) scale(1,1)"><path fill="none" stroke="#000000" d="M 981.0634691104407 863.7186177934682 L 991 859 L 980.6372449869342 855.3103782661119" stroke-miterlimit="10"/></g><g transform="translate(-238,-70) scale(1,1)"><g><path fill="none" stroke="none"/><text fill="#000000" stroke="none" font-family="Arial" font-size="13px" font-style="normal" font-weight="normal" text-decoration="none" x="876.23291015625" y="843.5">«extend»</text></g></g><g transform="translate(-238,-70) scale(1,1)"><path fill="#C0C0C0" stroke="none" d="M 407 984 C 407 974.6111584 429.6096176 967 457.5 967 C 485.3903824 967 508 974.6111584 508 984 C 508 993.3888416 485.3903824 1001 457.5 1001 C 429.6096176 1001 407 993.3888416 407 984 Z" opacity="0.2"/></g><g transform="translate(-238,-70) scale(1,1)"><path fill="#ffffff" stroke="none" d="M 400 977 C 400 967.6111584 422.6096176 960 450.5 960 C 478.3903824 960 501 967.6111584 501 977 C 501 986.3888416 478.3903824 994 450.5 994 C 422.6096176 994 400 986.3888416 400 977 Z"/></g><g transform="translate(-238,-70) scale(1,1)"><path fill="none" stroke="#000000" d="M 400 977 C 400 967.6111584 422.6096176 960 450.5 960 C 478.3903824 960 501 967.6111584 501 977 C 501 986.3888416 478.3903824 994 450.5 994 C 422.6096176 994 400 986.3888416 400 977 Z" stroke-miterlimit="10"/></g><g transform="translate(-238,-70) scale(1,1)"><g><path fill="none" stroke="none"/><text fill="#000000" stroke="none" font-family="Arial" font-size="13px" font-style="normal" font-weight="bold" text-decoration="none" x="424.5" y="984">选择座位</text></g></g><g transform="translate(-238,-70) scale(1,1)"><path fill="#C0C0C0" stroke="none" d="M 591 1056 C 591 1046.6111584 651.2176944 1039 725.5 1039 C 799.7823056 1039 860 1046.6111584 860 1056 C 860 1065.3888416 799.7823056 1073 725.5 1073 C 651.2176944 1073 591 1065.3888416 591 1056 Z" opacity="0.2"/></g><g transform="translate(-238,-70) scale(1,1)"><path fill="#ffffff" stroke="none" d="M 584 1049 C 584 1039.6111584 644.2176944 1032 718.5 1032 C 792.7823056 1032 853 1039.6111584 853 1049 C 853 1058.3888416 792.7823056 1066 718.5 1066 C 644.2176944 1066 584 1058.3888416 584 1049 Z"/></g><g transform="translate(-238,-70) scale(1,1)"><path fill="none" stroke="#000000" d="M 584 1049 C 584 1039.6111584 644.2176944 1032 718.5 1032 C 792.7823056 1032 853 1039.6111584 853 1049 C 853 1058.3888416 792.7823056 1066 718.5 1066 C 644.2176944 1066 584 1058.3888416 584 1049 Z" stroke-miterlimit="10"/></g><g transform="translate(-238,-70) scale(1,1)"><g><path fill="none" stroke="none"/><text fill="#000000" stroke="none" font-family="Arial" font-size="13px" font-style="normal" font-weight="bold" text-decoration="none" x="658.194091796875" y="1056">选择观演人/支付方式</text></g></g><g transform="translate(-238,-70) scale(1,1)"><path fill="#C0C0C0" stroke="none" d="M 927 976 C 927 966.6111584 975.129384 959 1034.5 959 C 1093.870616 959 1142 966.6111584 1142 976 C 1142 985.3888416 1093.870616 993 1034.5 993 C 975.129384 993 927 985.3888416 927 976 Z" opacity="0.2"/></g><g transform="translate(-238,-70) scale(1,1)"><path fill="#ffffff" stroke="none" d="M 920 969 C 920 959.6111584 968.129384 952 1027.5 952 C 1086.870616 952 1135 959.6111584 1135 969 C 1135 978.3888416 1086.870616 986 1027.5 986 C 968.129384 986 920 978.3888416 920 969 Z"/></g><g transform="translate(-238,-70) scale(1,1)"><path fill="none" stroke="#000000" d="M 920 969 C 920 959.6111584 968.129384 952 1027.5 952 C 1086.870616 952 1135 959.6111584 1135 969 C 1135 978.3888416 1086.870616 986 1027.5 986 C 968.129384 986 920 978.3888416 920 969 Z" stroke-miterlimit="10"/></g><g transform="translate(-238,-70) scale(1,1)"><g><path fill="none" stroke="none"/><text fill="#000000" stroke="none" font-family="Arial" font-size="13px" font-style="normal" font-weight="bold" text-decoration="none" x="956" y="976">同意订票协议并提交订单</text></g></g><g transform="translate(-238,-70) scale(1,1)"><path fill="none" stroke="#000000" d="M 663 964 L 502 974" stroke-miterlimit="10" stroke-dasharray="3"/></g><g transform="translate(-238,-70) scale(1,1)"><path fill="none" stroke="#000000" d="M 511.8821703836045 969.1685707591428 L 502 974 L 512.4040860701207 977.5714133120545" stroke-miterlimit="10"/></g><g transform="translate(-238,-70) scale(1,1)"><g><path fill="none" stroke="none"/><text fill="#000000" stroke="none" font-family="Arial" font-size="13px" font-style="normal" font-weight="normal" text-decoration="none" x="534.470947265625" y="946.5">«include»</text></g></g><g transform="translate(-238,-70) scale(1,1)"><path fill="none" stroke="#000000" d="M 715 979 L 717 1031" stroke-miterlimit="10" stroke-dasharray="3"/></g><g transform="translate(-238,-70) scale(1,1)"><path fill="none" stroke="#000000" d="M 712.4030090188141 1021.0066184942785 L 717 1031 L 720.8158243338299 1020.6830486744702" stroke-miterlimit="10"/></g><g transform="translate(-238,-70) scale(1,1)"><g><path fill="none" stroke="none"/><text fill="#000000" stroke="none" font-family="Arial" font-size="13px" font-style="normal" font-weight="normal" text-decoration="none" x="717.470947265625" y="1009.5">«include»</text></g></g><g transform="translate(-238,-70) scale(1,1)"><path fill="none" stroke="#000000" d="M 766 962 L 919 966" stroke-miterlimit="10" stroke-dasharray="3"/></g><g transform="translate(-238,-70) scale(1,1)"><path fill="none" stroke="#000000" d="M 908.7307812853061 969.9424798020764 L 919 966 L 908.9508116066129 961.5263200120913" stroke-miterlimit="10"/></g><g transform="translate(-238,-70) scale(1,1)"><g><path fill="none" stroke="none"/><text fill="#000000" stroke="none" font-family="Arial" font-size="13px" font-style="normal" font-weight="normal" text-decoration="none" x="814.470947265625" y="940.5">«include»</text></g></g><g transform="translate(-238,-70) scale(1,1)"><path fill="none" stroke="#000000" d="M 502 991 L 651 1031" stroke-miterlimit="10" stroke-dasharray="3"/></g><g transform="translate(-238,-70) scale(1,1)"><path fill="none" stroke="#000000" d="M 640.0934284046219 1032.4306278463987 L 651 1031 L 642.2762826138687 1024.2994959169544" stroke-miterlimit="10"/></g><g transform="translate(-238,-70) scale(1,1)"><g><path fill="none" stroke="none"/><text fill="#000000" stroke="none" font-family="Arial" font-size="13px" font-style="normal" font-weight="normal" text-decoration="none" x="506.23291015625" y="1040.5">«extend»</text></g></g><g transform="translate(-238,-70) scale(1,1)"><path fill="none" stroke="#000000" d="M 788 1031 L 957 987" stroke-miterlimit="10" stroke-dasharray="3"/></g><g transform="translate(-238,-70) scale(1,1)"><path fill="none" stroke="#000000" d="M 948.2257972519317 993.6342570146016 L 957 987 L 946.104573614176 985.4868298604946" stroke-miterlimit="10"/></g><g transform="translate(-238,-70) scale(1,1)"><g><path fill="none" stroke="none"/><text fill="#000000" stroke="none" font-family="Arial" font-size="13px" font-style="normal" font-weight="normal" text-decoration="none" x="848.23291015625" y="1004.5">«extend»</text></g></g><g transform="translate(-238,-70) scale(1,1)"><path fill="none" stroke="#000000" d="M 285 1032 L 285 695" stroke-miterlimit="10"/></g><g transform="translate(-238,-70) scale(1,1)"><path fill="#FFFFFF" stroke="none" d="M 293.419035512032 715.3253497152483 L 285 695 L 276.580964487968 715.3253497152483"/></g><g transform="translate(-238,-70) scale(1,1)"><path fill="none" stroke="#000000" d="M 293.419035512032 715.3253497152483 L 285 695 L 276.580964487968 715.3253497152483 L 293.419035512032 715.3253497152483" stroke-miterlimit="10"/></g><g transform="translate(-238,-70) scale(1,1)"><path fill="none" stroke="#000000" d="M 323 641 L 399 637" stroke-miterlimit="10"/></g><g transform="translate(-238,-70) scale(1,1)"><path fill="none" stroke="#000000" d="M 389.07261903473307 641.7378378159722 L 399 637 L 388.63012435220156 633.3304388478734" stroke-miterlimit="10"/></g><g transform="translate(-238,-70) scale(1,1)"><path fill="none" stroke="#000000" d="M 323 648 L 535 673" stroke-miterlimit="10"/></g><g transform="translate(-238,-70) scale(1,1)"><path fill="none" stroke="#000000" d="M 524.4142692387499 675.9903685810152 L 535 673 L 525.4002480930219 667.6292678967881" stroke-miterlimit="10"/></g><g transform="translate(-238,-70) scale(1,1)"><path fill="none" stroke="#000000" d="M 323 664 L 409 711" stroke-miterlimit="10"/></g><g transform="translate(-238,-70) scale(1,1)"><path fill="none" stroke="#000000" d="M 398.0634533159871 709.820192122248 L 409 711 L 402.10094382782694 702.4324435261154" stroke-miterlimit="10"/></g><g transform="translate(-238,-70) scale(1,1)"><path fill="none" stroke="#000000" d="M 323 683 L 484 855" stroke-miterlimit="10"/></g><g transform="translate(-238,-70) scale(1,1)"><path fill="none" stroke="#000000" d="M 473.9818426040902 850.4572560725065 L 484 855 L 480.12829800668266 844.7038879340334" stroke-miterlimit="10"/></g><g transform="translate(-238,-70) scale(1,1)"><path fill="none" stroke="#000000" d="M 323 1047 L 483 891" stroke-miterlimit="10"/></g><g transform="translate(-238,-70) scale(1,1)"><path fill="none" stroke="#000000" d="M 478.6621883015425 901.1085800025882 L 483 891 L 472.78485846451355 895.0805494005072" stroke-miterlimit="10"/></g><g transform="translate(-238,-70) scale(1,1)"><path fill="#C0C0C0" stroke="none" d="M 399 1224 C 399 1214.6111584 426.5344848 1207 460.5 1207 C 494.4655152 1207 522 1214.6111584 522 1224 C 522 1233.3888416 494.4655152 1241 460.5 1241 C 426.5344848 1241 399 1233.3888416 399 1224 Z" opacity="0.2"/></g><g transform="translate(-238,-70) scale(1,1)"><path fill="#ffffff" stroke="none" d="M 392 1217 C 392 1207.6111584 419.5344848 1200 453.5 1200 C 487.4655152 1200 515 1207.6111584 515 1217 C 515 1226.3888416 487.4655152 1234 453.5 1234 C 419.5344848 1234 392 1226.3888416 392 1217 Z"/></g><g transform="translate(-238,-70) scale(1,1)"><path fill="none" stroke="#000000" d="M 392 1217 C 392 1207.6111584 419.5344848 1200 453.5 1200 C 487.4655152 1200 515 1207.6111584 515 1217 C 515 1226.3888416 487.4655152 1234 453.5 1234 C 419.5344848 1234 392 1226.3888416 392 1217 Z" stroke-miterlimit="10"/></g><g transform="translate(-238,-70) scale(1,1)"><g><path fill="none" stroke="none"/><text fill="#000000" stroke="none" font-family="Arial" font-size="13px" font-style="normal" font-weight="bold" text-decoration="none" x="414.5" y="1224">管理转卖信息</text></g></g><g transform="translate(-238,-70) scale(1,1)"><path fill="#C0C0C0" stroke="none" d="M 687 1168 C 687 1158.6111584 709.6096176 1151 737.5 1151 C 765.3903824 1151 788 1158.6111584 788 1168 C 788 1177.3888416 765.3903824 1185 737.5 1185 C 709.6096176 1185 687 1177.3888416 687 1168 Z" opacity="0.2"/></g><g transform="translate(-238,-70) scale(1,1)"><path fill="#ffffff" stroke="none" d="M 680 1161 C 680 1151.6111584 702.6096176 1144 730.5 1144 C 758.3903824 1144 781 1151.6111584 781 1161 C 781 1170.3888416 758.3903824 1178 730.5 1178 C 702.6096176 1178 680 1170.3888416 680 1161 Z"/></g><g transform="translate(-238,-70) scale(1,1)"><path fill="none" stroke="#000000" d="M 680 1161 C 680 1151.6111584 702.6096176 1144 730.5 1144 C 758.3903824 1144 781 1151.6111584 781 1161 C 781 1170.3888416 758.3903824 1178 730.5 1178 C 702.6096176 1178 680 1170.3888416 680 1161 Z" stroke-miterlimit="10"/></g><g transform="translate(-238,-70) scale(1,1)"><g><path fill="none" stroke="none"/><text fill="#000000" stroke="none" font-family="Arial" font-size="13px" font-style="normal" font-weight="bold" text-decoration="none" x="704.5" y="1168">创建转卖</text></g></g><g transform="translate(-238,-70) scale(1,1)"><path fill="#C0C0C0" stroke="none" d="M 927 1184 C 927 1174.6111584 949.6096176 1167 977.5 1167 C 1005.3903824 1167 1028 1174.6111584 1028 1184 C 1028 1193.3888416 1005.3903824 1201 977.5 1201 C 949.6096176 1201 927 1193.3888416 927 1184 Z" opacity="0.2"/></g><g transform="translate(-238,-70) scale(1,1)"><path fill="#ffffff" stroke="none" d="M 920 1177 C 920 1167.6111584 942.6096176 1160 970.5 1160 C 998.3903824 1160 1021 1167.6111584 1021 1177 C 1021 1186.3888416 998.3903824 1194 970.5 1194 C 942.6096176 1194 920 1186.3888416 920 1177 Z"/></g><g transform="translate(-238,-70) scale(1,1)"><path fill="none" stroke="#000000" d="M 920 1177 C 920 1167.6111584 942.6096176 1160 970.5 1160 C 998.3903824 1160 1021 1167.6111584 1021 1177 C 1021 1186.3888416 998.3903824 1194 970.5 1194 C 942.6096176 1194 920 1186.3888416 920 1177 Z" stroke-miterlimit="10"/></g><g transform="translate(-238,-70) scale(1,1)"><g><path fill="none" stroke="none"/><text fill="#000000" stroke="none" font-family="Arial" font-size="13px" font-style="normal" font-weight="bold" text-decoration="none" x="944.5" y="1184">删除转卖</text></g></g><g transform="translate(-238,-70) scale(1,1)"><path fill="#C0C0C0" stroke="none" d="M 663 1264 C 663 1254.6111584 690.5344848 1247 724.5 1247 C 758.4655152 1247 786 1254.6111584 786 1264 C 786 1273.3888416 758.4655152 1281 724.5 1281 C 690.5344848 1281 663 1273.3888416 663 1264 Z" opacity="0.2"/></g><g transform="translate(-238,-70) scale(1,1)"><path fill="#ffffff" stroke="none" d="M 656 1257 C 656 1247.6111584 683.5344848 1240 717.5 1240 C 751.4655152 1240 779 1247.6111584 779 1257 C 779 1266.3888416 751.4655152 1274 717.5 1274 C 683.5344848 1274 656 1266.3888416 656 1257 Z"/></g><g transform="translate(-238,-70) scale(1,1)"><path fill="none" stroke="#000000" d="M 656 1257 C 656 1247.6111584 683.5344848 1240 717.5 1240 C 751.4655152 1240 779 1247.6111584 779 1257 C 779 1266.3888416 751.4655152 1274 717.5 1274 C 683.5344848 1274 656 1266.3888416 656 1257 Z" stroke-miterlimit="10"/></g><g transform="translate(-238,-70) scale(1,1)"><g><path fill="none" stroke="none"/><text fill="#000000" stroke="none" font-family="Arial" font-size="13px" font-style="normal" font-weight="bold" text-decoration="none" x="678.5" y="1264">更新转卖信息</text></g></g><g transform="translate(-238,-70) scale(1,1)"><path fill="#C0C0C0" stroke="none" d="M 399 1312 C 399 1302.6111584 426.5344848 1295 460.5 1295 C 494.4655152 1295 522 1302.6111584 522 1312 C 522 1321.3888416 494.4655152 1329 460.5 1329 C 426.5344848 1329 399 1321.3888416 399 1312 Z" opacity="0.2"/></g><g transform="translate(-238,-70) scale(1,1)"><path fill="#ffffff" stroke="none" d="M 392 1305 C 392 1295.6111584 419.5344848 1288 453.5 1288 C 487.4655152 1288 515 1295.6111584 515 1305 C 515 1314.3888416 487.4655152 1322 453.5 1322 C 419.5344848 1322 392 1314.3888416 392 1305 Z"/></g><g transform="translate(-238,-70) scale(1,1)"><path fill="none" stroke="#000000" d="M 392 1305 C 392 1295.6111584 419.5344848 1288 453.5 1288 C 487.4655152 1288 515 1295.6111584 515 1305 C 515 1314.3888416 487.4655152 1322 453.5 1322 C 419.5344848 1322 392 1314.3888416 392 1305 Z" stroke-miterlimit="10"/></g><g transform="translate(-238,-70) scale(1,1)"><g><path fill="none" stroke="none"/><text fill="#000000" stroke="none" font-family="Arial" font-size="13px" font-style="normal" font-weight="bold" text-decoration="none" x="414.5" y="1312">浏览转卖信息</text></g></g><g transform="translate(-238,-70) scale(1,1)"><path fill="#C0C0C0" stroke="none" d="M 927 1272 C 927 1262.6111584 954.5344848 1255 988.5 1255 C 1022.4655152 1255 1050 1262.6111584 1050 1272 C 1050 1281.3888416 1022.4655152 1289 988.5 1289 C 954.5344848 1289 927 1281.3888416 927 1272 Z" opacity="0.2"/></g><g transform="translate(-238,-70) scale(1,1)"><path fill="#ffffff" stroke="none" d="M 920 1265 C 920 1255.6111584 947.5344848 1248 981.5 1248 C 1015.4655152 1248 1043 1255.6111584 1043 1265 C 1043 1274.3888416 1015.4655152 1282 981.5 1282 C 947.5344848 1282 920 1274.3888416 920 1265 Z"/></g><g transform="translate(-238,-70) scale(1,1)"><path fill="none" stroke="#000000" d="M 920 1265 C 920 1255.6111584 947.5344848 1248 981.5 1248 C 1015.4655152 1248 1043 1255.6111584 1043 1265 C 1043 1274.3888416 1015.4655152 1282 981.5 1282 C 947.5344848 1282 920 1274.3888416 920 1265 Z" stroke-miterlimit="10"/></g><g transform="translate(-238,-70) scale(1,1)"><g><path fill="none" stroke="none"/><text fill="#000000" stroke="none" font-family="Arial" font-size="13px" font-style="normal" font-weight="bold" text-decoration="none" x="942.5" y="1272">购买转卖票卷</text></g></g><g transform="translate(-238,-70) scale(1,1)"><path fill="none" stroke="#000000" d="M 516 1204 L 679 1171" stroke-miterlimit="10" stroke-dasharray="3"/></g><g transform="translate(-238,-70) scale(1,1)"><path fill="none" stroke="#000000" d="M 669.8746930886379 1177.1423752550172 L 679 1171 L 668.2041184071524 1168.8907487979825" stroke-miterlimit="10"/></g><g transform="translate(-238,-70) scale(1,1)"><g><path fill="none" stroke="none"/><text fill="#000000" stroke="none" font-family="Arial" font-size="13px" font-style="normal" font-weight="normal" text-decoration="none" x="563.470947265625" y="1163.5">«include»</text></g></g><g transform="translate(-238,-70) scale(1,1)"><path fill="none" stroke="#000000" d="M 516 1212 L 919 1181" stroke-miterlimit="10" stroke-dasharray="3"/></g><g transform="translate(-238,-70) scale(1,1)"><path fill="none" stroke="#000000" d="M 909.1901147223913 1185.976560141318 L 919 1181 L 908.5444041746322 1177.5823230204494" stroke-miterlimit="10"/></g><g transform="translate(-238,-70) scale(1,1)"><g><path fill="none" stroke="none"/><text fill="#000000" stroke="none" font-family="Arial" font-size="13px" font-style="normal" font-weight="normal" text-decoration="none" x="750.470947265625" y="1191.5">«include»</text></g></g><g transform="translate(-238,-70) scale(1,1)"><path fill="none" stroke="#000000" d="M 516 1227 L 655 1248" stroke-miterlimit="10" stroke-dasharray="3"/></g><g transform="translate(-238,-70) scale(1,1)"><path fill="none" stroke="#000000" d="M 644.3225235150732 1250.644143701434 L 655 1248 L 645.5801920298326 1242.319575913264" stroke-miterlimit="10"/></g><g transform="translate(-238,-70) scale(1,1)"><g><path fill="none" stroke="none"/><text fill="#000000" stroke="none" font-family="Arial" font-size="13px" font-style="normal" font-weight="normal" text-decoration="none" x="561.470947265625" y="1213.5">«include»</text></g></g><g transform="translate(-238,-70) scale(1,1)"><path fill="none" stroke="#000000" d="M 919 1270 L 516 1300" stroke-miterlimit="10" stroke-dasharray="3"/></g><g transform="translate(-238,-70) scale(1,1)"><path fill="none" stroke="#000000" d="M 525.8221338565734 1295.0476584827422 L 516 1300 L 526.4471317253096 1303.4434631861002" stroke-miterlimit="10"/></g><g transform="translate(-238,-70) scale(1,1)"><g><path fill="none" stroke="none"/><text fill="#000000" stroke="none" font-family="Arial" font-size="13px" font-style="normal" font-weight="normal" text-decoration="none" x="692.23291015625" y="1320.5">«extend»</text></g></g><g transform="translate(-238,-70) scale(1,1)"><path fill="none" stroke="#000000" d="M 919 1174 L 782 1164" stroke-miterlimit="10" stroke-dasharray="3"/></g><g transform="translate(-238,-70) scale(1,1)"><path fill="none" stroke="#000000" d="M 792.4421583145323 1160.5414844608933 L 782 1164 L 791.8292607449707 1168.938181163888" stroke-miterlimit="10"/></g><g transform="translate(-238,-70) scale(1,1)"><g><path fill="none" stroke="none"/><text fill="#000000" stroke="none" font-family="Arial" font-size="13px" font-style="normal" font-weight="normal" text-decoration="none" x="831.23291015625" y="1157.5">«extend»</text></g></g><g transform="translate(-238,-70) scale(1,1)"><path fill="none" stroke="#000000" d="M 719 1239 L 728 1179" stroke-miterlimit="10" stroke-dasharray="3"/></g><g transform="translate(-238,-70) scale(1,1)"><path fill="none" stroke="#000000" d="M 730.655409345606 1189.6746803796304 L 728 1179 L 722.3295190716684 1188.4257968385398" stroke-miterlimit="10"/></g><g transform="translate(-238,-70) scale(1,1)"><g><path fill="none" stroke="none"/><text fill="#000000" stroke="none" font-family="Arial" font-size="13px" font-style="normal" font-weight="normal" text-decoration="none" x="689.23291015625" y="1184.5">«extend»</text></g></g><g transform="translate(-238,-70) scale(1,1)"><path fill="#ffffff" stroke="none" d="M 1228.3207272727273 1057.6799999999998 C 1228.3207272727273 1052.8861679359998 1232.2065695976728 1049 1237 1049 C 1241.7934304023272 1049 1245.6792727272727 1052.8861679359998 1245.6792727272727 1057.6799999999998 C 1245.6792727272727 1062.473832064 1241.7934304023272 1066.36 1237 1066.36 C 1232.2065695976728 1066.36 1228.3207272727273 1062.473832064 1228.3207272727273 1057.6799999999998 Z"/></g><g transform="translate(-238,-70) scale(1,1)"><path fill="none" stroke="#000000" d="M 1228.3207272727273 1057.6799999999998 C 1228.3207272727273 1052.8861679359998 1232.2065695976728 1049 1237 1049 C 1241.7934304023272 1049 1245.6792727272727 1052.8861679359998 1245.6792727272727 1057.6799999999998 C 1245.6792727272727 1062.473832064 1241.7934304023272 1066.36 1237 1066.36 C 1232.2065695976728 1066.36 1228.3207272727273 1062.473832064 1228.3207272727273 1057.6799999999998 Z" stroke-miterlimit="10"/></g><g transform="translate(-238,-70) scale(1,1)"><path fill="none" stroke="#000000" d="M 1237 1066.36 L 1237 1083.64" stroke-miterlimit="10"/></g><g transform="translate(-238,-70) scale(1,1)"><path fill="none" stroke="#000000" d="M 1227.8101818181817 1072.84 L 1246.1898181818183 1072.84" stroke-miterlimit="10"/></g><g transform="translate(-238,-70) scale(1,1)"><path fill="none" stroke="#000000" d="M 1237 1083.64 L 1224.2363636363636 1101" stroke-miterlimit="10"/></g><g transform="translate(-238,-70) scale(1,1)"><path fill="none" stroke="#000000" d="M 1237 1083.64 L 1249.7636363636364 1101" stroke-miterlimit="10"/></g><g transform="translate(-238,-70) scale(1,1)"><g><path fill="none" stroke="none"/><text fill="#000000" stroke="none" font-family="Arial" font-size="13px" font-style="normal" font-weight="bold" text-decoration="none" x="1191.5" y="1121.5">第三方支付平台</text></g></g><g transform="translate(-238,-70) scale(1,1)"><path fill="none" stroke="#000000" d="M 1007 1247 L 1186 1122" stroke-miterlimit="10"/></g><g transform="translate(-238,-70) scale(1,1)"><path fill="none" stroke="#000000" d="M 323 1114 L 430 1199" stroke-miterlimit="10"/></g><g transform="translate(-238,-70) scale(1,1)"><path fill="none" stroke="#000000" d="M 419.42418490569924 1195.974750408452 L 430 1199 L 424.66094393121017 1189.3825949292795" stroke-miterlimit="10"/></g><g transform="translate(-238,-70) scale(1,1)"><path fill="none" stroke="#000000" d="M 323 1134 L 439 1287" stroke-miterlimit="10"/></g><g transform="translate(-238,-70) scale(1,1)"><path fill="none" stroke="#000000" d="M 429.50571991856873 1281.4449441285135 L 439 1287 L 436.2145478485338 1276.3585124953372" stroke-miterlimit="10"/></g><g transform="translate(-238,-70) scale(1,1)"><path fill="none" stroke="#000000" d="M 1059 987 L 1186 1058" stroke-miterlimit="10"/></g><g transform="translate(-238,-70) scale(1,1)"><path fill="#C0C0C0" stroke="none" d="M 799 1480 C 799 1470.6111584 838.8466528 1463 888 1463 C 937.1533472 1463 977 1470.6111584 977 1480 C 977 1489.3888416 937.1533472 1497 888 1497 C 838.8466528 1497 799 1489.3888416 799 1480 Z" opacity="0.2"/></g><g transform="translate(-238,-70) scale(1,1)"><path fill="#ffffff" stroke="none" d="M 792 1473 C 792 1463.6111584 831.8466528 1456 881 1456 C 930.1533472 1456 970 1463.6111584 970 1473 C 970 1482.3888416 930.1533472 1490 881 1490 C 831.8466528 1490 792 1482.3888416 792 1473 Z"/></g><g transform="translate(-238,-70) scale(1,1)"><path fill="none" stroke="#000000" d="M 792 1473 C 792 1463.6111584 831.8466528 1456 881 1456 C 930.1533472 1456 970 1463.6111584 970 1473 C 970 1482.3888416 930.1533472 1490 881 1490 C 831.8466528 1490 792 1482.3888416 792 1473 Z" stroke-miterlimit="10"/></g><g transform="translate(-238,-70) scale(1,1)"><g><path fill="none" stroke="none"/><text fill="#000000" stroke="none" font-family="Arial" font-size="13px" font-style="normal" font-weight="bold" text-decoration="none" x="842" y="1480">查看售票情况</text></g></g><g transform="translate(-238,-70) scale(1,1)"><path fill="#C0C0C0" stroke="none" d="M 559 1416 C 559 1406.6111584 581.6096176 1399 609.5 1399 C 637.3903824 1399 660 1406.6111584 660 1416 C 660 1425.3888416 637.3903824 1433 609.5 1433 C 581.6096176 1433 559 1425.3888416 559 1416 Z" opacity="0.2"/></g><g transform="translate(-238,-70) scale(1,1)"><path fill="#ffffff" stroke="none" d="M 552 1409 C 552 1399.6111584 574.6096176 1392 602.5 1392 C 630.3903824 1392 653 1399.6111584 653 1409 C 653 1418.3888416 630.3903824 1426 602.5 1426 C 574.6096176 1426 552 1418.3888416 552 1409 Z"/></g><g transform="translate(-238,-70) scale(1,1)"><path fill="none" stroke="#000000" d="M 552 1409 C 552 1399.6111584 574.6096176 1392 602.5 1392 C 630.3903824 1392 653 1399.6111584 653 1409 C 653 1418.3888416 630.3903824 1426 602.5 1426 C 574.6096176 1426 552 1418.3888416 552 1409 Z" stroke-miterlimit="10"/></g><g transform="translate(-238,-70) scale(1,1)"><g><path fill="none" stroke="none"/><text fill="#000000" stroke="none" font-family="Arial" font-size="13px" font-style="normal" font-weight="bold" text-decoration="none" x="576.5" y="1416">上架演出</text></g></g><g transform="translate(-238,-70) scale(1,1)"><path fill="#C0C0C0" stroke="none" d="M 439 1480 C 439 1470.6111584 466.5344848 1463 500.5 1463 C 534.4655152 1463 562 1470.6111584 562 1480 C 562 1489.3888416 534.4655152 1497 500.5 1497 C 466.5344848 1497 439 1489.3888416 439 1480 Z" opacity="0.2"/></g><g transform="translate(-238,-70) scale(1,1)"><path fill="#ffffff" stroke="none" d="M 432 1473 C 432 1463.6111584 459.5344848 1456 493.5 1456 C 527.4655152 1456 555 1463.6111584 555 1473 C 555 1482.3888416 527.4655152 1490 493.5 1490 C 459.5344848 1490 432 1482.3888416 432 1473 Z"/></g><g transform="translate(-238,-70) scale(1,1)"><path fill="none" stroke="#000000" d="M 432 1473 C 432 1463.6111584 459.5344848 1456 493.5 1456 C 527.4655152 1456 555 1463.6111584 555 1473 C 555 1482.3888416 527.4655152 1490 493.5 1490 C 459.5344848 1490 432 1482.3888416 432 1473 Z" stroke-miterlimit="10"/></g><g transform="translate(-238,-70) scale(1,1)"><g><path fill="none" stroke="none"/><text fill="#000000" stroke="none" font-family="Arial" font-size="13px" font-style="normal" font-weight="bold" text-decoration="none" x="454.5" y="1480">修改演出信息</text></g></g><g transform="translate(-238,-70) scale(1,1)"><path fill="#ffffff" stroke="none" d="M 1224.3025454545455 1381.9299999999998 C 1224.3025454545455 1374.7889575359998 1229.9873888558545 1369 1237 1369 C 1244.0126111441455 1369 1249.6974545454545 1374.7889575359998 1249.6974545454545 1381.9299999999998 C 1249.6974545454545 1389.071042464 1244.0126111441455 1394.86 1237 1394.86 C 1229.9873888558545 1394.86 1224.3025454545455 1389.071042464 1224.3025454545455 1381.9299999999998 Z"/></g><g transform="translate(-238,-70) scale(1,1)"><path fill="none" stroke="#000000" d="M 1224.3025454545455 1381.9299999999998 C 1224.3025454545455 1374.7889575359998 1229.9873888558545 1369 1237 1369 C 1244.0126111441455 1369 1249.6974545454545 1374.7889575359998 1249.6974545454545 1381.9299999999998 C 1249.6974545454545 1389.071042464 1244.0126111441455 1394.86 1237 1394.86 C 1229.9873888558545 1394.86 1224.3025454545455 1389.071042464 1224.3025454545455 1381.9299999999998 Z" stroke-miterlimit="10"/></g><g transform="translate(-238,-70) scale(1,1)"><path fill="none" stroke="#000000" d="M 1237 1394.86 L 1237 1420.14" stroke-miterlimit="10"/></g><g transform="translate(-238,-70) scale(1,1)"><path fill="none" stroke="#000000" d="M 1223.5556363636365 1404.34 L 1250.4443636363635 1404.34" stroke-miterlimit="10"/></g><g transform="translate(-238,-70) scale(1,1)"><path fill="none" stroke="#000000" d="M 1237 1420.14 L 1218.3272727272729 1446" stroke-miterlimit="10"/></g><g transform="translate(-238,-70) scale(1,1)"><path fill="none" stroke="#000000" d="M 1237 1420.14 L 1255.6727272727271 1446" stroke-miterlimit="10"/></g><g transform="translate(-238,-70) scale(1,1)"><g><path fill="none" stroke="none"/><text fill="#000000" stroke="none" font-family="Arial" font-size="13px" font-style="normal" font-weight="bold" text-decoration="none" x="1217.5" y="1466.5">管理员</text></g></g><g transform="translate(-238,-70) scale(1,1)"><path fill="#C0C0C0" stroke="none" d="M 919 1400 C 919 1390.6111584 946.5344848 1383 980.5 1383 C 1014.4655152 1383 1042 1390.6111584 1042 1400 C 1042 1409.3888416 1014.4655152 1417 980.5 1417 C 946.5344848 1417 919 1409.3888416 919 1400 Z" opacity="0.2"/></g><g transform="translate(-238,-70) scale(1,1)"><path fill="#ffffff" stroke="none" d="M 912 1393 C 912 1383.6111584 939.5344848 1376 973.5 1376 C 1007.4655152 1376 1035 1383.6111584 1035 1393 C 1035 1402.3888416 1007.4655152 1410 973.5 1410 C 939.5344848 1410 912 1402.3888416 912 1393 Z"/></g><g transform="translate(-238,-70) scale(1,1)"><path fill="none" stroke="#000000" d="M 912 1393 C 912 1383.6111584 939.5344848 1376 973.5 1376 C 1007.4655152 1376 1035 1383.6111584 1035 1393 C 1035 1402.3888416 1007.4655152 1410 973.5 1410 C 939.5344848 1410 912 1402.3888416 912 1393 Z" stroke-miterlimit="10"/></g><g transform="translate(-238,-70) scale(1,1)"><g><path fill="none" stroke="none"/><text fill="#000000" stroke="none" font-family="Arial" font-size="13px" font-style="normal" font-weight="bold" text-decoration="none" x="934.5" y="1400">管理票务信息</text></g></g><g transform="translate(-238,-70) scale(1,1)"><path fill="none" stroke="#000000" d="M 911 1396 L 654 1407" stroke-miterlimit="10" stroke-dasharray="3"/></g><g transform="translate(-238,-70) scale(1,1)"><path fill="none" stroke="#000000" d="M 663.9733696529271 1402.3597524025033 L 654 1407 L 664.3333878554394 1410.7710867702904" stroke-miterlimit="10"/></g><g transform="translate(-238,-70) scale(1,1)"><g><path fill="none" stroke="none"/><text fill="#000000" stroke="none" font-family="Arial" font-size="13px" font-style="normal" font-weight="normal" text-decoration="none" x="769.470947265625" y="1427.5">«include»</text></g></g><g transform="translate(-238,-70) scale(1,1)"><path fill="none" stroke="#000000" d="M 911 1403 L 556 1463" stroke-miterlimit="10" stroke-dasharray="3"/></g><g transform="translate(-238,-70) scale(1,1)"><path fill="none" stroke="#000000" d="M 565.3190415190784 1457.1557322814836 L 556 1463 L 566.7220787871319 1465.4570361174667" stroke-miterlimit="10"/></g><g transform="translate(-238,-70) scale(1,1)"><g><path fill="none" stroke="none"/><text fill="#000000" stroke="none" font-family="Arial" font-size="13px" font-style="normal" font-weight="normal" text-decoration="none" x="706.470947265625" y="1458.5">«include»</text></g></g><g transform="translate(-238,-70) scale(1,1)"><path fill="none" stroke="#000000" d="M 1199 1416 L 1036 1399" stroke-miterlimit="10"/></g><g transform="translate(-238,-70) scale(1,1)"><path fill="none" stroke="#000000" d="M 1046.5445113149683 1395.8673842992625 L 1036 1399 L 1045.6711892599553 1404.2410016502695" stroke-miterlimit="10"/></g><g transform="translate(-238,-70) scale(1,1)"><path fill="none" stroke="#000000" d="M 1199 1426 L 971 1460" stroke-miterlimit="10"/></g><g transform="translate(-238,-70) scale(1,1)"><path fill="none" stroke="#000000" d="M 980.4306586447797 1454.3376084976715 L 971 1460 L 981.6723981078088 1462.6645672497496" stroke-miterlimit="10"/></g><g transform="translate(-238,-70) scale(1,1)"><path fill="#C0C0C0" stroke="none" d="M 399 1584 C 399 1574.6111584 426.5344848 1567 460.5 1567 C 494.4655152 1567 522 1574.6111584 522 1584 C 522 1593.3888416 494.4655152 1601 460.5 1601 C 426.5344848 1601 399 1593.3888416 399 1584 Z" opacity="0.2"/></g><g transform="translate(-238,-70) scale(1,1)"><path fill="#ffffff" stroke="none" d="M 392 1577 C 392 1567.6111584 419.5344848 1560 453.5 1560 C 487.4655152 1560 515 1567.6111584 515 1577 C 515 1586.3888416 487.4655152 1594 453.5 1594 C 419.5344848 1594 392 1586.3888416 392 1577 Z"/></g><g transform="translate(-238,-70) scale(1,1)"><path fill="none" stroke="#000000" d="M 392 1577 C 392 1567.6111584 419.5344848 1560 453.5 1560 C 487.4655152 1560 515 1567.6111584 515 1577 C 515 1586.3888416 487.4655152 1594 453.5 1594 C 419.5344848 1594 392 1586.3888416 392 1577 Z" stroke-miterlimit="10"/></g><g transform="translate(-238,-70) scale(1,1)"><g><path fill="none" stroke="none"/><text fill="#000000" stroke="none" font-family="Arial" font-size="13px" font-style="normal" font-weight="bold" text-decoration="none" x="414.5" y="1584">发布现场分享</text></g></g><g transform="translate(-238,-70) scale(1,1)"><path fill="#C0C0C0" stroke="none" d="M 407 1648 C 407 1638.6111584 450.8760896 1631 505 1631 C 559.1239104 1631 603 1638.6111584 603 1648 C 603 1657.3888416 559.1239104 1665 505 1665 C 450.8760896 1665 407 1657.3888416 407 1648 Z" opacity="0.2"/></g><g transform="translate(-238,-70) scale(1,1)"><path fill="#ffffff" stroke="none" d="M 400 1641 C 400 1631.6111584 443.8760896 1624 498 1624 C 552.1239104 1624 596 1631.6111584 596 1641 C 596 1650.3888416 552.1239104 1658 498 1658 C 443.8760896 1658 400 1650.3888416 400 1641 Z"/></g><g transform="translate(-238,-70) scale(1,1)"><path fill="none" stroke="#000000" d="M 400 1641 C 400 1631.6111584 443.8760896 1624 498 1624 C 552.1239104 1624 596 1631.6111584 596 1641 C 596 1650.3888416 552.1239104 1658 498 1658 C 443.8760896 1658 400 1650.3888416 400 1641 Z" stroke-miterlimit="10"/></g><g transform="translate(-238,-70) scale(1,1)"><g><path fill="none" stroke="none"/><text fill="#000000" stroke="none" font-family="Arial" font-size="13px" font-style="normal" font-weight="bold" text-decoration="none" x="446" y="1648">浏览已发布的分享</text></g></g><g transform="translate(-238,-70) scale(1,1)"><path fill="#C0C0C0" stroke="none" d="M 759 1704 C 759 1694.6111584 786.5344848 1687 820.5 1687 C 854.4655152 1687 882 1694.6111584 882 1704 C 882 1713.3888416 854.4655152 1721 820.5 1721 C 786.5344848 1721 759 1713.3888416 759 1704 Z" opacity="0.2"/></g><g transform="translate(-238,-70) scale(1,1)"><path fill="#ffffff" stroke="none" d="M 752 1697 C 752 1687.6111584 779.5344848 1680 813.5 1680 C 847.4655152 1680 875 1687.6111584 875 1697 C 875 1706.3888416 847.4655152 1714 813.5 1714 C 779.5344848 1714 752 1706.3888416 752 1697 Z"/></g><g transform="translate(-238,-70) scale(1,1)"><path fill="none" stroke="#000000" d="M 752 1697 C 752 1687.6111584 779.5344848 1680 813.5 1680 C 847.4655152 1680 875 1687.6111584 875 1697 C 875 1706.3888416 847.4655152 1714 813.5 1714 C 779.5344848 1714 752 1706.3888416 752 1697 Z" stroke-miterlimit="10"/></g><g transform="translate(-238,-70) scale(1,1)"><g><path fill="none" stroke="none"/><text fill="#000000" stroke="none" font-family="Arial" font-size="13px" font-style="normal" font-weight="bold" text-decoration="none" x="774.5" y="1704">查看现场分享</text></g></g><g transform="translate(-238,-70) scale(1,1)"><path fill="#C0C0C0" stroke="none" d="M 1007 1664 C 1007 1654.6111584 1034.5344848 1647 1068.5 1647 C 1102.4655152 1647 1130 1654.6111584 1130 1664 C 1130 1673.3888416 1102.4655152 1681 1068.5 1681 C 1034.5344848 1681 1007 1673.3888416 1007 1664 Z" opacity="0.2"/></g><g transform="translate(-238,-70) scale(1,1)"><path fill="#ffffff" stroke="none" d="M 1000 1657 C 1000 1647.6111584 1027.5344848 1640 1061.5 1640 C 1095.4655152 1640 1123 1647.6111584 1123 1657 C 1123 1666.3888416 1095.4655152 1674 1061.5 1674 C 1027.5344848 1674 1000 1666.3888416 1000 1657 Z"/></g><g transform="translate(-238,-70) scale(1,1)"><path fill="none" stroke="#000000" d="M 1000 1657 C 1000 1647.6111584 1027.5344848 1640 1061.5 1640 C 1095.4655152 1640 1123 1647.6111584 1123 1657 C 1123 1666.3888416 1095.4655152 1674 1061.5 1674 C 1027.5344848 1674 1000 1666.3888416 1000 1657 Z" stroke-miterlimit="10"/></g><g transform="translate(-238,-70) scale(1,1)"><g><path fill="none" stroke="none"/><text fill="#000000" stroke="none" font-family="Arial" font-size="13px" font-style="normal" font-weight="bold" text-decoration="none" x="1022.5" y="1664">评论现场分享</text></g></g><g transform="translate(-238,-70) scale(1,1)"><path fill="#C0C0C0" stroke="none" d="M 623 1560 C 623 1550.6111584 646.505048 1543 675.5 1543 C 704.494952 1543 728 1550.6111584 728 1560 C 728 1569.3888416 704.494952 1577 675.5 1577 C 646.505048 1577 623 1569.3888416 623 1560 Z" opacity="0.2"/></g><g transform="translate(-238,-70) scale(1,1)"><path fill="#ffffff" stroke="none" d="M 616 1553 C 616 1543.6111584 639.505048 1536 668.5 1536 C 697.494952 1536 721 1543.6111584 721 1553 C 721 1562.3888416 697.494952 1570 668.5 1570 C 639.505048 1570 616 1562.3888416 616 1553 Z"/></g><g transform="translate(-238,-70) scale(1,1)"><path fill="none" stroke="#000000" d="M 616 1553 C 616 1543.6111584 639.505048 1536 668.5 1536 C 697.494952 1536 721 1543.6111584 721 1553 C 721 1562.3888416 697.494952 1570 668.5 1570 C 639.505048 1570 616 1562.3888416 616 1553 Z" stroke-miterlimit="10"/></g><g transform="translate(-238,-70) scale(1,1)"><g><path fill="none" stroke="none"/><text fill="#000000" stroke="none" font-family="Arial" font-size="13px" font-style="normal" font-weight="bold" text-decoration="none" x="636" y="1560">对演出打分</text></g></g><g transform="translate(-238,-70) scale(1,1)"><path fill="#C0C0C0" stroke="none" d="M 647 1656 C 647 1646.6111584 674.5344848 1639 708.5 1639 C 742.4655152 1639 770 1646.6111584 770 1656 C 770 1665.3888416 742.4655152 1673 708.5 1673 C 674.5344848 1673 647 1665.3888416 647 1656 Z" opacity="0.2"/></g><g transform="translate(-238,-70) scale(1,1)"><path fill="#ffffff" stroke="none" d="M 640 1649 C 640 1639.6111584 667.5344848 1632 701.5 1632 C 735.4655152 1632 763 1639.6111584 763 1649 C 763 1658.3888416 735.4655152 1666 701.5 1666 C 667.5344848 1666 640 1658.3888416 640 1649 Z"/></g><g transform="translate(-238,-70) scale(1,1)"><path fill="none" stroke="#000000" d="M 640 1649 C 640 1639.6111584 667.5344848 1632 701.5 1632 C 735.4655152 1632 763 1639.6111584 763 1649 C 763 1658.3888416 735.4655152 1666 701.5 1666 C 667.5344848 1666 640 1658.3888416 640 1649 Z" stroke-miterlimit="10"/></g><g transform="translate(-238,-70) scale(1,1)"><g><path fill="none" stroke="none"/><text fill="#000000" stroke="none" font-family="Arial" font-size="13px" font-style="normal" font-weight="bold" text-decoration="none" x="662.5" y="1656">关联演出信息</text></g></g><g transform="translate(-238,-70) scale(1,1)"><path fill="#C0C0C0" stroke="none" d="M 807 1592 C 807 1582.6111584 829.6096176 1575 857.5 1575 C 885.3903824 1575 908 1582.6111584 908 1592 C 908 1601.3888416 885.3903824 1609 857.5 1609 C 829.6096176 1609 807 1601.3888416 807 1592 Z" opacity="0.2"/></g><g transform="translate(-238,-70) scale(1,1)"><path fill="#ffffff" stroke="none" d="M 800 1585 C 800 1575.6111584 822.6096176 1568 850.5 1568 C 878.3903824 1568 901 1575.6111584 901 1585 C 901 1594.3888416 878.3903824 1602 850.5 1602 C 822.6096176 1602 800 1594.3888416 800 1585 Z"/></g><g transform="translate(-238,-70) scale(1,1)"><path fill="none" stroke="#000000" d="M 800 1585 C 800 1575.6111584 822.6096176 1568 850.5 1568 C 878.3903824 1568 901 1575.6111584 901 1585 C 901 1594.3888416 878.3903824 1602 850.5 1602 C 822.6096176 1602 800 1594.3888416 800 1585 Z" stroke-miterlimit="10"/></g><g transform="translate(-238,-70) scale(1,1)"><g><path fill="none" stroke="none"/><text fill="#000000" stroke="none" font-family="Arial" font-size="13px" font-style="normal" font-weight="bold" text-decoration="none" x="824.5" y="1592">上传内容</text></g></g><g transform="translate(-238,-70) scale(1,1)"><path fill="none" stroke="#000000" d="M 516 1570 L 615 1559" stroke-miterlimit="10" stroke-dasharray="3"/></g><g transform="translate(-238,-70) scale(1,1)"><path fill="none" stroke="#000000" d="M 605.3643462280668 1564.306050922054 L 615 1559 L 604.4346192883949 1555.9385084650057" stroke-miterlimit="10"/></g><g transform="translate(-238,-70) scale(1,1)"><g><path fill="none" stroke="none"/><text fill="#000000" stroke="none" font-family="Arial" font-size="13px" font-style="normal" font-weight="normal" text-decoration="none" x="534.470947265625" y="1540.5">«include»</text></g></g><g transform="translate(-238,-70) scale(1,1)"><path fill="none" stroke="#000000" d="M 515 1595 L 639 1631" stroke-miterlimit="10" stroke-dasharray="3"/></g><g transform="translate(-238,-70) scale(1,1)"><path fill="none" stroke="#000000" d="M 628.0666570809186 1632.209137136049 L 639 1631 L 630.4139700125949 1624.1239481491646" stroke-miterlimit="10"/></g><g transform="translate(-238,-70) scale(1,1)"><g><path fill="none" stroke="none"/><text fill="#000000" stroke="none" font-family="Arial" font-size="13px" font-style="normal" font-weight="normal" text-decoration="none" x="557.470947265625" y="1590.5">«include»</text></g></g><g transform="translate(-238,-70) scale(1,1)"><path fill="none" stroke="#000000" d="M 516 1578 L 799 1584" stroke-miterlimit="10" stroke-dasharray="3"/></g><g transform="translate(-238,-70) scale(1,1)"><path fill="none" stroke="#000000" d="M 788.7503807588633 1587.993157323688 L 799 1584 L 788.9288361080878 1579.5760133519366" stroke-miterlimit="10"/></g><g transform="translate(-238,-70) scale(1,1)"><g><path fill="none" stroke="none"/><text fill="#000000" stroke="none" font-family="Arial" font-size="13px" font-style="normal" font-weight="normal" text-decoration="none" x="681.470947265625" y="1595.5">«include»</text></g></g><g transform="translate(-238,-70) scale(1,1)"><path fill="none" stroke="#000000" d="M 876 1687 L 999 1667" stroke-miterlimit="10" stroke-dasharray="3"/></g><g transform="translate(-238,-70) scale(1,1)"><path fill="none" stroke="#000000" d="M 989.6446669176984 1672.7859954129945 L 999 1667 L 988.2934639448031 1664.4760971296882" stroke-miterlimit="10"/></g><g transform="translate(-238,-70) scale(1,1)"><g><path fill="none" stroke="none"/><text fill="#000000" stroke="none" font-family="Arial" font-size="13px" font-style="normal" font-weight="normal" text-decoration="none" x="905.23291015625" y="1653.5">«extend»</text></g></g><g transform="translate(-238,-70) scale(1,1)"><path fill="none" stroke="#000000" d="M 597 1659 L 751 1686" stroke-miterlimit="10" stroke-dasharray="3"/></g><g transform="translate(-238,-70) scale(1,1)"><path fill="none" stroke="#000000" d="M 740.2630637610855 1688.3912758522356 L 751 1686 L 741.7169522054925 1680.0987269470995" stroke-miterlimit="10"/></g><g transform="translate(-238,-70) scale(1,1)"><g><path fill="none" stroke="none"/><text fill="#000000" stroke="none" font-family="Arial" font-size="13px" font-style="normal" font-weight="normal" text-decoration="none" x="603.23291015625" y="1691.5">«extend»</text></g></g><g transform="translate(-238,-70) scale(1,1)"><path fill="#C0C0C0" stroke="none" d="M 991 1568 C 991 1558.6111584 1018.5344848 1551 1052.5 1551 C 1086.4655152 1551 1114 1558.6111584 1114 1568 C 1114 1577.3888416 1086.4655152 1585 1052.5 1585 C 1018.5344848 1585 991 1577.3888416 991 1568 Z" opacity="0.2"/></g><g transform="translate(-238,-70) scale(1,1)"><path fill="#ffffff" stroke="none" d="M 984 1561 C 984 1551.6111584 1011.5344848 1544 1045.5 1544 C 1079.4655152 1544 1107 1551.6111584 1107 1561 C 1107 1570.3888416 1079.4655152 1578 1045.5 1578 C 1011.5344848 1578 984 1570.3888416 984 1561 Z"/></g><g transform="translate(-238,-70) scale(1,1)"><path fill="none" stroke="#000000" d="M 984 1561 C 984 1551.6111584 1011.5344848 1544 1045.5 1544 C 1079.4655152 1544 1107 1551.6111584 1107 1561 C 1107 1570.3888416 1079.4655152 1578 1045.5 1578 C 1011.5344848 1578 984 1570.3888416 984 1561 Z" stroke-miterlimit="10"/></g><g transform="translate(-238,-70) scale(1,1)"><g><path fill="none" stroke="none"/><text fill="#000000" stroke="none" font-family="Arial" font-size="13px" font-style="normal" font-weight="bold" text-decoration="none" x="1006.5" y="1568">审核现场分享</text></g></g><g transform="translate(-238,-70) scale(1,1)"><path fill="none" stroke="#000000" d="M 1199 1448 L 1070 1543" stroke-miterlimit="10"/></g><g transform="translate(-238,-70) scale(1,1)"><path fill="none" stroke="#000000" d="M 1075.686929347816 1533.584117959907 L 1070 1543 L 1080.679300347372 1540.363232264567" stroke-miterlimit="10"/></g><g transform="translate(-238,-70) scale(1,1)"><path fill="none" stroke="#000000" d="M 303 1137 L 447 1559" stroke-miterlimit="10"/></g><g transform="translate(-238,-70) scale(1,1)"><path fill="none" stroke="#000000" d="M 439.73402745518854 1550.741329224503 L 447 1559 L 447.7019436505895 1548.0224194327075" stroke-miterlimit="10"/></g><g transform="translate(-238,-70) scale(1,1)"><path fill="none" stroke="#000000" d="M 305 1137 L 491 1623" stroke-miterlimit="10"/></g><g transform="translate(-238,-70) scale(1,1)"><path fill="none" stroke="#000000" d="M 483.43609005141684 1615.0133069240314 L 491 1623 L 491.29895281634555 1612.0040631497993" stroke-miterlimit="10"/></g><g transform="translate(-238,-70) scale(1,1)"><path fill="none" stroke="#000000" d="M 556 211 L 480 247" stroke-miterlimit="10" stroke-dasharray="3"/></g><g transform="translate(-238,-70) scale(1,1)"><path fill="none" stroke="#000000" d="M 487.38235674391996 238.8451971878224 L 480 247 L 490.98643088249395 246.45379814703415" stroke-miterlimit="10"/></g><g transform="translate(-238,-70) scale(1,1)"><g><path fill="none" stroke="none"/><text fill="#000000" stroke="none" font-family="Arial" font-size="13px" font-style="normal" font-weight="normal" text-decoration="none" x="487.23291015625" y="219.5">«extend»</text></g></g><g transform="translate(-238,-70) scale(1,1)"><path fill="none" stroke="#000000" d="M 660 674 L 831 656" stroke-miterlimit="10" stroke-dasharray="3"/></g><g transform="translate(-238,-70) scale(1,1)"><path fill="none" stroke="#000000" d="M 821.333836897039 661.2502657901247 L 831 656 L 820.4524919786121 652.8774890650699" stroke-miterlimit="10"/></g><g transform="translate(-238,-70) scale(1,1)"><g><path fill="none" stroke="none"/><text fill="#000000" stroke="none" font-family="Arial" font-size="13px" font-style="normal" font-weight="normal" text-decoration="none" x="727.5" y="660.5">«include»</text></g></g><g transform="translate(-238,-70) scale(1,1)"><path fill="none" stroke="#000000" d="M 660 694 L 735 709" stroke-miterlimit="10" stroke-dasharray="3"/></g><g transform="translate(-238,-70) scale(1,1)"><path fill="none" stroke="#000000" d="M 724.2091230681783 711.1347072497838 L 735 709 L 725.8602317743891 702.8791637187297" stroke-miterlimit="10"/></g><g transform="translate(-238,-70) scale(1,1)"><g><path fill="none" stroke="none"/><text fill="#000000" stroke="none" font-family="Arial" font-size="13px" font-style="normal" font-weight="normal" text-decoration="none" x="655.5" y="716.5">«include»</text></g></g></g></svg>