<svg version="1.1" xmlns="http://www.w3.org/2000/svg" xmlns:xlink="http://www.w3.org/1999/xlink" width="456.04296875" height="195"><defs/><g><g transform="translate(-110,-198) scale(1,1)"><rect fill="#C0C0C0" stroke="none" x="127" y="215" width="165.89501953125" height="175" opacity="0.2"/></g><g transform="translate(-110,-198) scale(1,1)"><rect fill="#ffffff" stroke="none" x="120" y="208" width="165.89501953125" height="175"/></g><g transform="translate(-110,-198) scale(1,1)"><path fill="none" stroke="#000000" d="M 120 208 L 285.89501953125 208 L 285.89501953125 383 L 120 383 L 120 208 Z Z" stroke-miterlimit="10"/></g><g transform="translate(-110,-198) scale(1,1)"><path fill="none" stroke="#000000" d="M 120 233 L 285.89501953125 233" stroke-miterlimit="10"/></g><g transform="translate(-110,-198) scale(1,1)"><path fill="none" stroke="#000000" d="M 120 346 L 285.89501953125 346" stroke-miterlimit="10"/></g><g transform="translate(-110,-198) scale(1,1)"><g><path fill="none" stroke="none"/><text fill="#000000" stroke="none" font-family="Arial" font-size="13px" font-style="normal" font-weight="bold" text-decoration="none" x="189.223876953125" y="227.5">User</text></g></g><g transform="translate(-110,-198) scale(1,1)"><g><path fill="none" stroke="none"/><text fill="#000000" stroke="none" font-family="Arial" font-size="13px" font-style="normal" font-weight="normal" text-decoration="none" x="125" y="250.5">+user_id: int</text></g></g><g transform="translate(-110,-198) scale(1,1)"><g><path fill="none" stroke="none"/><text fill="#000000" stroke="none" font-family="Arial" font-size="13px" font-style="normal" font-weight="normal" text-decoration="none" x="125" y="265.5">+user_name: varchar</text></g></g><g transform="translate(-110,-198) scale(1,1)"><g><path fill="none" stroke="none"/><text fill="#000000" stroke="none" font-family="Arial" font-size="13px" font-style="normal" font-weight="normal" text-decoration="none" x="125" y="280.5">+user_type: tinyint</text></g></g><g transform="translate(-110,-198) scale(1,1)"><g><path fill="none" stroke="none"/><text fill="#000000" stroke="none" font-family="Arial" font-size="13px" font-style="normal" font-weight="normal" text-decoration="none" x="125" y="295.5">+password: varchar</text></g></g><g transform="translate(-110,-198) scale(1,1)"><g><path fill="none" stroke="none"/><text fill="#000000" stroke="none" font-family="Arial" font-size="13px" font-style="normal" font-weight="normal" text-decoration="none" x="125" y="310.5">+phone_number: varchar</text></g></g><g transform="translate(-110,-198) scale(1,1)"><g><path fill="none" stroke="none"/><text fill="#000000" stroke="none" font-family="Arial" font-size="13px" font-style="normal" font-weight="normal" text-decoration="none" x="125" y="325.5">+register: datetime</text></g></g><g transform="translate(-110,-198) scale(1,1)"><g><path fill="none" stroke="none"/><text fill="#000000" stroke="none" font-family="Arial" font-size="13px" font-style="normal" font-weight="normal" text-decoration="none" x="125" y="340.5">+city: varchar</text></g></g><g transform="translate(-110,-198) scale(1,1)"><g><path fill="none" stroke="none"/><text fill="#000000" stroke="none" font-family="Arial" font-size="13px" font-style="normal" font-weight="normal" text-decoration="none" x="125" y="363.5">+viewShow()</text></g></g><g transform="translate(-110,-198) scale(1,1)"><g><path fill="none" stroke="none"/><text fill="#000000" stroke="none" font-family="Arial" font-size="13px" font-style="normal" font-weight="normal" text-decoration="none" x="125" y="378.5">+searchShow()</text></g></g><g transform="translate(-110,-198) scale(1,1)"><rect fill="#C0C0C0" stroke="none" x="431" y="215" width="132.04296875" height="130" opacity="0.2"/></g><g transform="translate(-110,-198) scale(1,1)"><rect fill="#ffffff" stroke="none" x="424" y="208" width="132.04296875" height="130"/></g><g transform="translate(-110,-198) scale(1,1)"><path fill="none" stroke="#000000" d="M 424 208 L 556.04296875 208 L 556.04296875 338 L 424 338 L 424 208 Z Z" stroke-miterlimit="10"/></g><g transform="translate(-110,-198) scale(1,1)"><path fill="none" stroke="#000000" d="M 424 233 L 556.04296875 233" stroke-miterlimit="10"/></g><g transform="translate(-110,-198) scale(1,1)"><path fill="none" stroke="#000000" d="M 424 301 L 556.04296875 301" stroke-miterlimit="10"/></g><g transform="translate(-110,-198) scale(1,1)"><g><path fill="none" stroke="none"/><text fill="#000000" stroke="none" font-family="Arial" font-size="13px" font-style="normal" font-weight="bold" text-decoration="none" x="473.761962890625" y="227.5">Show</text></g></g><g transform="translate(-110,-198) scale(1,1)"><g><path fill="none" stroke="none"/><text fill="#000000" stroke="none" font-family="Arial" font-size="13px" font-style="normal" font-weight="normal" text-decoration="none" x="429" y="250.5">+show_id: int</text></g></g><g transform="translate(-110,-198) scale(1,1)"><g><path fill="none" stroke="none"/><text fill="#000000" stroke="none" font-family="Arial" font-size="13px" font-style="normal" font-weight="normal" text-decoration="none" x="429" y="265.5">+title: varchar</text></g></g><g transform="translate(-110,-198) scale(1,1)"><g><path fill="none" stroke="none"/><text fill="#000000" stroke="none" font-family="Arial" font-size="13px" font-style="normal" font-weight="normal" text-decoration="none" x="429" y="280.5">+description</text></g></g><g transform="translate(-110,-198) scale(1,1)"><g><path fill="none" stroke="none"/><text fill="#000000" stroke="none" font-family="Arial" font-size="13px" font-style="normal" font-weight="normal" text-decoration="none" x="429" y="295.5">+image_url: varchar</text></g></g><g transform="translate(-110,-198) scale(1,1)"><g><path fill="none" stroke="none"/><text fill="#000000" stroke="none" font-family="Arial" font-size="13px" font-style="normal" font-weight="normal" text-decoration="none" x="429" y="318.5">+showSummary()</text></g></g><g transform="translate(-110,-198) scale(1,1)"><g><path fill="none" stroke="none"/><text fill="#000000" stroke="none" font-family="Arial" font-size="13px" font-style="normal" font-weight="normal" text-decoration="none" x="429" y="333.5">+showDetail()</text></g></g><g transform="translate(-110,-198) scale(1,1)"><path fill="none" stroke="#000000" d="M 287 289 L 423 278" stroke-miterlimit="10" stroke-dasharray="3"/></g><g transform="translate(-110,-198) scale(1,1)"><path fill="none" stroke="#000000" d="M 413.2097722543466 283.0151212037436 L 423 278 L 412.53103736004823 274.6234897833274" stroke-miterlimit="10"/></g></g></svg>