<svg version="1.1" xmlns="http://www.w3.org/2000/svg" xmlns:xlink="http://www.w3.org/1999/xlink" width="597" height="215"><defs/><g><g transform="translate(-54,-286) scale(1,1)"><path fill="#C0C0C0" stroke="none" d="M 71 384.5 C 71 379.2532944 75.2532944 375 80.5 375 C 85.7467056 375 90 379.2532944 90 384.5 C 90 389.7467056 85.7467056 394 80.5 394 C 75.2532944 394 71 389.7467056 71 384.5 Z" opacity="0.2"/></g><g transform="translate(-54,-286) scale(1,1)"><path fill="#000000" stroke="none" d="M 64 377.5 C 64 372.2532944 68.2532944 368 73.5 368 C 78.7467056 368 83 372.2532944 83 377.5 C 83 382.7467056 78.7467056 387 73.5 387 C 68.2532944 387 64 382.7467056 64 377.5 Z"/></g><g transform="translate(-54,-286) scale(1,1)"><path fill="#C0C0C0" stroke="none" d="M 193 367 L 273 367 Q 283 367 283 377 L 283 396 Q 283 406 273 406 L 193 406 Q 183 406 183 396 L 183 377 Q 183 367 193 367 Z" opacity="0.2"/></g><g transform="translate(-54,-286) scale(1,1)"><path fill="#ffffff" stroke="none" d="M 186 360 L 266 360 Q 276 360 276 370 L 276 389 Q 276 399 266 399 L 186 399 Q 176 399 176 389 L 176 370 Q 176 360 186 360 Z"/></g><g transform="translate(-54,-286) scale(1,1)"><path fill="none" stroke="#000000" d="M 186 360 L 266 360 Q 276 360 276 370 L 276 389 Q 276 399 266 399 L 186 399 Q 176 399 176 389 L 176 370 Q 176 360 186 360 Z" stroke-miterlimit="10"/></g><g transform="translate(-54,-286) scale(1,1)"><g><path fill="none" stroke="none"/><text fill="#000000" stroke="none" font-family="Arial" font-size="13px" font-style="normal" font-weight="bold" text-decoration="none" x="180.5" y="379.5">输入关键字状态</text></g></g><g transform="translate(-54,-286) scale(1,1)"><path fill="#C0C0C0" stroke="none" d="M 465 303 L 532 303 Q 542 303 542 313 L 542 332 Q 542 342 532 342 L 465 342 Q 455 342 455 332 L 455 313 Q 455 303 465 303 Z" opacity="0.2"/></g><g transform="translate(-54,-286) scale(1,1)"><path fill="#ffffff" stroke="none" d="M 458 296 L 525 296 Q 535 296 535 306 L 535 325 Q 535 335 525 335 L 458 335 Q 448 335 448 325 L 448 306 Q 448 296 458 296 Z"/></g><g transform="translate(-54,-286) scale(1,1)"><path fill="none" stroke="#000000" d="M 458 296 L 525 296 Q 535 296 535 306 L 535 325 Q 535 335 525 335 L 458 335 Q 448 335 448 325 L 448 306 Q 448 296 458 296 Z" stroke-miterlimit="10"/></g><g transform="translate(-54,-286) scale(1,1)"><g><path fill="none" stroke="none"/><text fill="#000000" stroke="none" font-family="Arial" font-size="13px" font-style="normal" font-weight="bold" text-decoration="none" x="452.5" y="315.5">搜索成功状态</text></g></g><g transform="translate(-54,-286) scale(1,1)"><path fill="#C0C0C0" stroke="none" d="M 441 455 L 508 455 Q 518 455 518 465 L 518 484 Q 518 494 508 494 L 441 494 Q 431 494 431 484 L 431 465 Q 431 455 441 455 Z" opacity="0.2"/></g><g transform="translate(-54,-286) scale(1,1)"><path fill="#ffffff" stroke="none" d="M 434 448 L 501 448 Q 511 448 511 458 L 511 477 Q 511 487 501 487 L 434 487 Q 424 487 424 477 L 424 458 Q 424 448 434 448 Z"/></g><g transform="translate(-54,-286) scale(1,1)"><path fill="none" stroke="#000000" d="M 434 448 L 501 448 Q 511 448 511 458 L 511 477 Q 511 487 501 487 L 434 487 Q 424 487 424 477 L 424 458 Q 424 448 434 448 Z" stroke-miterlimit="10"/></g><g transform="translate(-54,-286) scale(1,1)"><g><path fill="none" stroke="none"/><text fill="#000000" stroke="none" font-family="Arial" font-size="13px" font-style="normal" font-weight="bold" text-decoration="none" x="428.5" y="467.5">搜索失败状态</text></g></g><g transform="translate(-54,-286) scale(1,1)"><path fill="#C0C0C0" stroke="none" d="M 623 323.5 C 623 316.59644 628.59644 311 635.5 311 C 642.40356 311 648 316.59644 648 323.5 C 648 330.40356 642.40356 336 635.5 336 C 628.59644 336 623 330.40356 623 323.5 Z" opacity="0.2"/></g><g transform="translate(-54,-286) scale(1,1)"><path fill="none" stroke="#000000" d="M 616 316.5 C 616 309.59644 621.59644 304 628.5 304 C 635.40356 304 641 309.59644 641 316.5 C 641 323.40356 635.40356 329 628.5 329 C 621.59644 329 616 323.40356 616 316.5 Z" stroke-miterlimit="10"/></g><g transform="translate(-54,-286) scale(1,1)"><path fill="#000000" stroke="none" d="M 621 316.5 C 621 312.357864 624.357864 309 628.5 309 C 632.642136 309 636 312.357864 636 316.5 C 636 320.642136 632.642136 324 628.5 324 C 624.357864 324 621 320.642136 621 316.5 Z"/></g><g transform="translate(-54,-286) scale(1,1)"><path fill="none" stroke="#000000" d="M 84 377 L 175 378" stroke-miterlimit="10"/></g><g transform="translate(-54,-286) scale(1,1)"><path fill="none" stroke="#000000" d="M 164.7916830567088 382.09759260850973 L 175 378 L 164.88419434488017 373.67906538491434" stroke-miterlimit="10"/></g><g transform="translate(-54,-286) scale(1,1)"><g><path fill="none" stroke="none"/><text fill="#000000" stroke="none" font-family="Arial" font-size="13px" font-style="normal" font-weight="normal" text-decoration="none" x="96.5" y="368.5">点击搜索框</text></g></g><g transform="translate(-54,-286) scale(1,1)"><path fill="#C0C0C0" stroke="none" d="M 327 383.5 L 338.5 367 L 349 383.5 L 338.5 399 L 327 383.5" opacity="0.2"/></g><g transform="translate(-54,-286) scale(1,1)"><path fill="#ffffff" stroke="none" d="M 320 376 L 331 360 L 342 376 L 331 392 L 320 376"/></g><g transform="translate(-54,-286) scale(1,1)"><path fill="none" stroke="#000000" d="M 320 376 L 331 360 L 342 376 L 331 392 L 320 376 L 320 376" stroke-miterlimit="10"/></g><g transform="translate(-54,-286) scale(1,1)"><path fill="none" stroke="#000000" d="M 276 378 L 320 378" stroke-miterlimit="10"/></g><g transform="translate(-54,-286) scale(1,1)"><path fill="none" stroke="#000000" d="M 309.83732514237585 382.209517756016 L 320 378 L 309.83732514237585 373.790482243984" stroke-miterlimit="10"/></g><g transform="translate(-54,-286) scale(1,1)"><path fill="none" stroke="#000000" d="M 343 384 L 437 447" stroke-miterlimit="10"/></g><g transform="translate(-54,-286) scale(1,1)"><path fill="none" stroke="#000000" d="M 426.21438758997294 444.8388510137728 L 437 447 L 430.9015834289358 437.8452572223044" stroke-miterlimit="10"/></g><g transform="translate(-54,-286) scale(1,1)"><g><path fill="none" stroke="none"/><text fill="#000000" stroke="none" font-family="Arial" font-size="13px" font-style="normal" font-weight="normal" text-decoration="none" x="326.5" y="428.5">搜索结果为空</text></g></g><g transform="translate(-54,-286) scale(1,1)"><path fill="none" stroke="#000000" d="M 343 371 L 447 332" stroke-miterlimit="10"/></g><g transform="translate(-54,-286) scale(1,1)"><path fill="none" stroke="#000000" d="M 438.96245137057895 339.50984767020555 L 447 332 L 436.0063306467394 331.62685907330007" stroke-miterlimit="10"/></g><g transform="translate(-54,-286) scale(1,1)"><g><path fill="none" stroke="none"/><text fill="#000000" stroke="none" font-family="Arial" font-size="13px" font-style="normal" font-weight="normal" text-decoration="none" x="327.5" y="341.5">搜索结果不为空</text></g></g><g transform="translate(-54,-286) scale(1,1)"><path fill="none" stroke="#000000" d="M 448 312 L 240 312 L 240 360" stroke-miterlimit="10"/></g><g transform="translate(-54,-286) scale(1,1)"><path fill="none" stroke="#000000" d="M 235.790482243984 349.83732514237585 L 240 360 L 244.209517756016 349.83732514237585" stroke-miterlimit="10"/></g><g transform="translate(-54,-286) scale(1,1)"><g><path fill="none" stroke="none"/><text fill="#000000" stroke="none" font-family="Arial" font-size="13px" font-style="normal" font-weight="normal" text-decoration="none" x="295.5" y="308.5">更换关键字</text></g></g><g transform="translate(-54,-286) scale(1,1)"><path fill="none" stroke="#000000" d="M 536 315 L 615 316" stroke-miterlimit="10"/></g><g transform="translate(-54,-286) scale(1,1)"><path fill="none" stroke="#000000" d="M 604.7848584645136 320.0805494005072 L 615 316 L 604.8914199974118 311.6621883015425" stroke-miterlimit="10"/></g><g transform="translate(-54,-286) scale(1,1)"><path fill="none" stroke="#000000" d="M 424 472 L 235 472 L 235 399" stroke-miterlimit="10"/></g><g transform="translate(-54,-286) scale(1,1)"><path fill="none" stroke="#000000" d="M 239.209517756016 409.16267485762415 L 235 399 L 230.790482243984 409.16267485762415" stroke-miterlimit="10"/></g><g transform="translate(-54,-286) scale(1,1)"><g><path fill="none" stroke="none"/><text fill="#000000" stroke="none" font-family="Arial" font-size="13px" font-style="normal" font-weight="normal" text-decoration="none" x="286.5" y="491.5">显示失败信息</text></g></g></g></svg>