<svg version="1.1" xmlns="http://www.w3.org/2000/svg" xmlns:xlink="http://www.w3.org/1999/xlink" width="434" height="259"><defs/><g><g transform="translate(-230,-310) scale(1,1)"><path fill="#C0C0C0" stroke="none" d="M 247 432.5 C 247 427.2532944 251.2532944 423 256.5 423 C 261.7467056 423 266 427.2532944 266 432.5 C 266 437.7467056 261.7467056 442 256.5 442 C 251.2532944 442 247 437.7467056 247 432.5 Z" opacity="0.2"/></g><g transform="translate(-230,-310) scale(1,1)"><path fill="#000000" stroke="none" d="M 240 425.5 C 240 420.2532944 244.2532944 416 249.5 416 C 254.7467056 416 259 420.2532944 259 425.5 C 259 430.7467056 254.7467056 435 249.5 435 C 244.2532944 435 240 430.7467056 240 425.5 Z"/></g><g transform="translate(-230,-310) scale(1,1)"><path fill="#C0C0C0" stroke="none" d="M 393 415 L 525 415 Q 535 415 535 425 L 535 444 Q 535 454 525 454 L 393 454 Q 383 454 383 444 L 383 425 Q 383 415 393 415 Z" opacity="0.2"/></g><g transform="translate(-230,-310) scale(1,1)"><path fill="#ffffff" stroke="none" d="M 386 408 L 518 408 Q 528 408 528 418 L 528 437 Q 528 447 518 447 L 386 447 Q 376 447 376 437 L 376 418 Q 376 408 386 408 Z"/></g><g transform="translate(-230,-310) scale(1,1)"><path fill="none" stroke="#000000" d="M 386 408 L 518 408 Q 528 408 528 418 L 528 437 Q 528 447 518 447 L 386 447 Q 376 447 376 437 L 376 418 Q 376 408 386 408 Z" stroke-miterlimit="10"/></g><g transform="translate(-230,-310) scale(1,1)"><g><path fill="none" stroke="none"/><text fill="#000000" stroke="none" font-family="Arial" font-size="13px" font-style="normal" font-weight="bold" text-decoration="none" x="380.5" y="427.5">显示某类型演出信息状态</text></g></g><g transform="translate(-230,-310) scale(1,1)"><path fill="#C0C0C0" stroke="none" d="M 399 339.5 C 399 332.59644 404.59644 327 411.5 327 C 418.40356 327 424 332.59644 424 339.5 C 424 346.40356 418.40356 352 411.5 352 C 404.59644 352 399 346.40356 399 339.5 Z" opacity="0.2"/></g><g transform="translate(-230,-310) scale(1,1)"><path fill="none" stroke="#000000" d="M 392 332.5 C 392 325.59644 397.59644 320 404.5 320 C 411.40356 320 417 325.59644 417 332.5 C 417 339.40356 411.40356 345 404.5 345 C 397.59644 345 392 339.40356 392 332.5 Z" stroke-miterlimit="10"/></g><g transform="translate(-230,-310) scale(1,1)"><path fill="#000000" stroke="none" d="M 397 332.5 C 397 328.357864 400.357864 325 404.5 325 C 408.642136 325 412 328.357864 412 332.5 C 412 336.642136 408.642136 340 404.5 340 C 400.357864 340 397 336.642136 397 332.5 Z"/></g><g transform="translate(-230,-310) scale(1,1)"><path fill="#C0C0C0" stroke="none" d="M 639 435.5 L 650.5 423 L 661 435.5 L 650.5 447 L 639 435.5" opacity="0.2"/></g><g transform="translate(-230,-310) scale(1,1)"><path fill="#ffffff" stroke="none" d="M 632 428 L 643 416 L 654 428 L 643 440 L 632 428"/></g><g transform="translate(-230,-310) scale(1,1)"><path fill="none" stroke="#000000" d="M 632 428 L 643 416 L 654 428 L 643 440 L 632 428 L 632 428" stroke-miterlimit="10"/></g><g transform="translate(-230,-310) scale(1,1)"><path fill="none" stroke="#000000" d="M 260 425 L 375 426" stroke-miterlimit="10"/></g><g transform="translate(-230,-310) scale(1,1)"><path fill="none" stroke="#000000" d="M 364.80110622430794 430.12099087018515 L 375 426 L 364.8743124610911 421.70227364012266" stroke-miterlimit="10"/></g><g transform="translate(-230,-310) scale(1,1)"><g><path fill="none" stroke="none"/><text fill="#000000" stroke="none" font-family="Arial" font-size="13px" font-style="normal" font-weight="normal" text-decoration="none" x="290.5" y="416.5">进入首页</text></g></g><g transform="translate(-230,-310) scale(1,1)"><path fill="none" stroke="#000000" d="M 528 428 L 632 428" stroke-miterlimit="10"/></g><g transform="translate(-230,-310) scale(1,1)"><path fill="none" stroke="#000000" d="M 621.8373251423759 432.209517756016 L 632 428 L 621.8373251423758 423.790482243984" stroke-miterlimit="10"/></g><g transform="translate(-230,-310) scale(1,1)"><g><path fill="none" stroke="none"/><text fill="#000000" stroke="none" font-family="Arial" font-size="13px" font-style="normal" font-weight="normal" text-decoration="none" x="540.5" y="419.5">更换筛选条件</text></g></g><g transform="translate(-230,-310) scale(1,1)"><path fill="none" stroke="#000000" d="M 643 440 L 643 472 L 448 472 L 448 520" stroke-miterlimit="10"/></g><g transform="translate(-230,-310) scale(1,1)"><path fill="none" stroke="#000000" d="M 443.790482243984 509.83732514237585 L 448 520 L 452.209517756016 509.83732514237585" stroke-miterlimit="10"/></g><g transform="translate(-230,-310) scale(1,1)"><g><path fill="none" stroke="none"/><text fill="#000000" stroke="none" font-family="Arial" font-size="13px" font-style="normal" font-weight="normal" text-decoration="none" x="504.5" y="493.5">筛选结果为空</text></g></g><g transform="translate(-230,-310) scale(1,1)"><path fill="#C0C0C0" stroke="none" d="M 409 527 L 515 527 Q 525 527 525 537 L 525 556 Q 525 566 515 566 L 409 566 Q 399 566 399 556 L 399 537 Q 399 527 409 527 Z" opacity="0.2"/></g><g transform="translate(-230,-310) scale(1,1)"><path fill="#ffffff" stroke="none" d="M 402 520 L 508 520 Q 518 520 518 530 L 518 549 Q 518 559 508 559 L 402 559 Q 392 559 392 549 L 392 530 Q 392 520 402 520 Z"/></g><g transform="translate(-230,-310) scale(1,1)"><path fill="none" stroke="#000000" d="M 402 520 L 508 520 Q 518 520 518 530 L 518 549 Q 518 559 508 559 L 402 559 Q 392 559 392 549 L 392 530 Q 392 520 402 520 Z" stroke-miterlimit="10"/></g><g transform="translate(-230,-310) scale(1,1)"><g><path fill="none" stroke="none"/><text fill="#000000" stroke="none" font-family="Arial" font-size="13px" font-style="normal" font-weight="bold" text-decoration="none" x="396.5" y="539.5">显示无相关信息状态</text></g></g><g transform="translate(-230,-310) scale(1,1)"><path fill="none" stroke="#000000" d="M 640 416 L 640 352 L 480 352 L 480 408" stroke-miterlimit="10"/></g><g transform="translate(-230,-310) scale(1,1)"><path fill="none" stroke="#000000" d="M 475.790482243984 397.83732514237585 L 480 408 L 484.209517756016 397.83732514237585" stroke-miterlimit="10"/></g><g transform="translate(-230,-310) scale(1,1)"><g><path fill="none" stroke="none"/><text fill="#000000" stroke="none" font-family="Arial" font-size="13px" font-style="normal" font-weight="normal" text-decoration="none" x="513.5" y="373.5">筛选结果不为空</text></g></g><g transform="translate(-230,-310) scale(1,1)"><path fill="none" stroke="#000000" d="M 400 408 L 400 345" stroke-miterlimit="10"/></g><g transform="translate(-230,-310) scale(1,1)"><path fill="none" stroke="#000000" d="M 404.209517756016 355.16267485762415 L 400 345 L 395.790482243984 355.16267485762415" stroke-miterlimit="10"/></g><g transform="translate(-230,-310) scale(1,1)"><path fill="#C0C0C0" stroke="none" d="M 591 547.5 C 591 540.59644 596.59644 535 603.5 535 C 610.40356 535 616 540.59644 616 547.5 C 616 554.40356 610.40356 560 603.5 560 C 596.59644 560 591 554.40356 591 547.5 Z" opacity="0.2"/></g><g transform="translate(-230,-310) scale(1,1)"><path fill="none" stroke="#000000" d="M 584 540.5 C 584 533.59644 589.59644 528 596.5 528 C 603.40356 528 609 533.59644 609 540.5 C 609 547.40356 603.40356 553 596.5 553 C 589.59644 553 584 547.40356 584 540.5 Z" stroke-miterlimit="10"/></g><g transform="translate(-230,-310) scale(1,1)"><path fill="#000000" stroke="none" d="M 589 540.5 C 589 536.357864 592.357864 533 596.5 533 C 600.642136 533 604 536.357864 604 540.5 C 604 544.642136 600.642136 548 596.5 548 C 592.357864 548 589 544.642136 589 540.5 Z"/></g><g transform="translate(-230,-310) scale(1,1)"><path fill="none" stroke="#000000" d="M 518 540 L 584 540" stroke-miterlimit="10"/></g><g transform="translate(-230,-310) scale(1,1)"><path fill="none" stroke="#000000" d="M 573.8373251423759 544.209517756016 L 584 540 L 573.8373251423758 535.790482243984" stroke-miterlimit="10"/></g></g></svg>